<?xml version="1.0" encoding="utf-8"?>
<!-- Generator: Adobe Illustrator 24.0.1, SVG Export Plug-In . SVG Version: 6.00 Build 0)  -->
<svg version="1.1" id="Layer_1" xmlns="http://www.w3.org/2000/svg" xmlns:xlink="http://www.w3.org/1999/xlink" x="0px" y="0px"
	 viewBox="0 0 280 270" style="enable-background:new 0 0 280 270;" xml:space="preserve">
<style type="text/css">
	.st0{fill:#FFC37C;}
	.st1{fill:#4C3533;}
	.st2{fill:#BF9A6F;}
	.st3{fill:#050505;}
	.st4{fill:#BFA981;}
	.st5{fill:#800020;}
	.st6{fill:#A47140;}
	.st7{fill:#231F20;}
	.st8{fill:#00001F;}
	.st9{fill:#4A4D52;}
	.st10{fill:#4F565B;}
	.st11{fill:#C5631D;stroke:#030202;stroke-width:2;stroke-miterlimit:10;}
	.st12{fill:#CC7082;}
	.st13{fill:#3B181B;}
	.st14{fill:#1A1A1A;}
	.st15{fill:#100E15;}
	.st16{fill:#5C3E16;}
	.st17{fill:#EF451F;}
	.st18{fill:#808080;}
	.st19{fill:#008D36;}
	.st20{fill:none;stroke:#005B00;stroke-width:0.7087;stroke-miterlimit:10;}
	.st21{fill:#FF2A02;stroke:#000000;stroke-width:0.7087;stroke-miterlimit:10;}
	.st22{fill:#F4F900;stroke:#000000;stroke-width:0.7087;stroke-miterlimit:10;}
	.st23{fill:#0003BD;stroke:#000000;stroke-width:0.7087;stroke-miterlimit:10;}
	.st24{fill:#100200;stroke:#000000;stroke-width:0.7087;stroke-miterlimit:10;}
	.st25{fill:#00B52A;stroke:#000000;stroke-width:0.7087;stroke-miterlimit:10;}
	.st26{fill:#D92200;stroke:#000000;stroke-width:0.7087;stroke-miterlimit:10;}
	.st27{fill:none;stroke:#000000;stroke-miterlimit:10;}
	.st28{fill:#D92200;}
	.st29{fill:#00B52A;}
	.st30{fill:#0003BD;}
	.st31{fill:#4C5145;}
	.st32{fill:#7FD4FF;}
	.st33{fill:#9FB0FF;}
	.st34{fill:#F67900;}
</style>
<g>
	<g>
		<path d="M149.4,185c-2.3,1.8-1.8,5.2-0.3,7.3c0.9,1.3,2.1,2.5,2.6,3.9c0.6,1.6-0.5,2.9-1.4,4.1c-1.7,2.5-3.5,5.1-3.8,8.2
			c-0.2,2.6,0.8,5.2,3.1,6.7c1.6,1.1,3.1-1.5,1.5-2.6c-1.8-1.2-1.9-3.7-1.3-5.6c0.8-2.6,2.8-4.6,4.2-6.9c1.4-2.4,0.8-4.9-0.7-7.1
			c-1-1.4-4-4.3-1.8-6C153,185.9,150.9,183.8,149.4,185L149.4,185z"/>
	</g>
</g>
<path class="st0" d="M72.7,98.9H58.1c-2,0-3.6-1.6-3.6-3.6V77.2c0-2,1.6-3.6,3.6-3.6h14.6c2,0,3.6,1.6,3.6,3.6v18.2
	C76.2,97.3,74.6,98.9,72.7,98.9z"/>
<path class="st0" d="M90.3,35.1v38c0,12.7-10.3,23-23,23h-4c-12.7,0-23-10.3-23-23v-38c0-10.5,8.5-19,19-19h12
	C81.8,16.1,90.3,24.6,90.3,35.1z"/>
<path class="st1" d="M59,40.7h-9c-1.1,0-2-0.9-2-2V38c0-1.1,0.9-2,2-2h9c1.1,0,2,0.9,2,2v0.7C61,39.8,60.1,40.7,59,40.7z"/>
<path class="st1" d="M79.5,40.7h-9c-1.1,0-2-0.9-2-2V38c0-1.1,0.9-2,2-2h9c1.1,0,2,0.9,2,2v0.7C81.5,39.8,80.6,40.7,79.5,40.7z"/>
<path class="st2" d="M40.3,56.6h-3.1c-1.1,0-2-0.9-2-2v-7.5c0-1.1,0.9-2,2-2h3.1V56.6z"/>
<circle class="st3" cx="54.5" cy="43.9" r="2.1"/>
<circle class="st3" cx="75.7" cy="43.9" r="2.1"/>
<path class="st4" d="M65.9,58.1h-1.1c-1.1,0-2-0.9-2-2v-4.8c0-1.1,0.9-2,2-2h1.1c1.1,0,2,0.9,2,2v4.8C67.9,57.2,67,58.1,65.9,58.1z"
	/>
<path class="st5" d="M87,164.5H43.7c-3.5,0-6.4-2.9-6.4-6.4v-55.7c0-3.5,2.9-6.4,6.4-6.4H87c3.5,0,6.4,2.9,6.4,6.4v55.7
	C93.4,161.6,90.5,164.5,87,164.5z"/>
<g>
	<path class="st6" d="M110.5,260.8H68.4v-23.3h24.2c9.9,0,18,8.1,18,18V260.8z"/>
	<rect x="68.4" y="256.9" class="st6" width="42.2" height="3.9"/>
	<rect x="68.4" y="258.8" class="st6" width="42.2" height="1"/>
	<g>
		<path class="st6" d="M94,239.1c0.4,1.5-0.2,3.2-1.2,4.5c-1,1.2-2.5,2.1-3.9,2.9"/>
		<g>
			<path class="st7" d="M93,239.4c0.2,0.6,0.1,1.2,0,1.8c-0.2,0.6-0.5,1.3-0.9,1.7c-1,1.2-2.3,1.9-3.6,2.7c-0.5,0.3-0.6,0.9-0.4,1.4
				c0.3,0.5,0.9,0.6,1.4,0.4c1.6-0.9,3.2-1.9,4.3-3.3c1.1-1.5,1.7-3.3,1.2-5.2c-0.1-0.5-0.7-0.8-1.2-0.7
				C93.2,238.3,92.8,238.9,93,239.4L93,239.4z"/>
		</g>
	</g>
	<g>
		<path class="st6" d="M100.2,240.8c0.4,1.5-0.2,3.2-1.2,4.5c-1,1.2-2.5,2.1-3.9,2.9"/>
		<g>
			<path class="st7" d="M99.2,241c0.2,0.6,0.1,1.2,0,1.8c-0.2,0.6-0.5,1.3-0.9,1.7c-1,1.2-2.3,1.9-3.6,2.7c-0.5,0.3-0.6,0.9-0.4,1.4
				c0.3,0.5,0.9,0.6,1.4,0.4c1.6-0.9,3.2-1.9,4.3-3.3c1.1-1.5,1.7-3.3,1.2-5.2c-0.1-0.5-0.7-0.8-1.2-0.7
				C99.4,240,99.1,240.5,99.2,241L99.2,241z"/>
		</g>
	</g>
	<g>
		<path class="st6" d="M104.4,244c0.4,1.5-0.2,3.2-1.2,4.5c-1,1.2-2.5,2.1-3.9,2.9"/>
		<g>
			<path class="st7" d="M103.4,244.2c0.2,0.6,0.1,1.2,0,1.8c-0.2,0.6-0.5,1.3-0.9,1.7c-1,1.2-2.3,1.9-3.6,2.7
				c-0.5,0.3-0.6,0.9-0.4,1.4c0.3,0.5,0.9,0.6,1.4,0.4c1.6-0.9,3.2-1.9,4.3-3.3c1.1-1.5,1.7-3.3,1.2-5.2c-0.1-0.5-0.7-0.8-1.2-0.7
				C103.6,243.1,103.3,243.7,103.4,244.2L103.4,244.2z"/>
		</g>
	</g>
</g>
<path class="st8" d="M84.1,232.2H68.4v-68.7c0-3.3,2.7-6,6-6h3.8c3.3,0,6,2.7,6,6V232.2z"/>
<rect x="68.4" y="218.9" class="st9" width="15.8" height="15"/>
<g>
	<path class="st6" d="M18.5,260.8h42.2v-23.3H36.5c-9.9,0-18,8.1-18,18V260.8z"/>
	
		<rect x="18.5" y="256.9" transform="matrix(-1 -4.494994e-11 4.494994e-11 -1 79.0964 517.6285)" class="st6" width="42.2" height="3.9"/>
	
		<rect x="18.5" y="258.8" transform="matrix(-1 -4.482071e-11 4.482071e-11 -1 79.0964 518.6036)" class="st6" width="42.2" height="1"/>
	<g>
		<path class="st6" d="M35,239.1c-0.4,1.5,0.2,3.2,1.2,4.5c1,1.2,2.5,2.1,3.9,2.9"/>
		<g>
			<path class="st7" d="M34.1,238.9c-0.5,1.8,0.1,3.7,1.2,5.2c1.1,1.4,2.7,2.4,4.3,3.3c0.5,0.3,1.1,0.1,1.4-0.4
				c0.3-0.5,0.1-1.1-0.4-1.4c-1.3-0.8-2.6-1.5-3.6-2.7c-0.4-0.4-0.8-1.1-0.9-1.7c-0.1-0.3-0.2-0.6-0.2-0.9c0-0.4,0-0.6,0.1-1
				c0.1-0.5-0.2-1.1-0.7-1.2C34.8,238,34.2,238.3,34.1,238.9L34.1,238.9z"/>
		</g>
	</g>
	<g>
		<path class="st6" d="M28.8,240.8c-0.4,1.5,0.2,3.2,1.2,4.5c1,1.2,2.5,2.1,3.9,2.9"/>
		<g>
			<path class="st7" d="M27.9,240.5c-0.5,1.8,0.1,3.7,1.2,5.2c1.1,1.4,2.7,2.4,4.3,3.3c0.5,0.3,1.1,0.1,1.4-0.4
				c0.3-0.5,0.1-1.1-0.4-1.4c-1.3-0.8-2.6-1.5-3.6-2.7c-0.4-0.4-0.8-1.1-0.9-1.7c-0.1-0.3-0.2-0.6-0.2-0.9c0-0.4,0-0.6,0.1-1
				c0.1-0.5-0.2-1.1-0.7-1.2C28.6,239.7,28,240,27.9,240.5L27.9,240.5z"/>
		</g>
	</g>
	<g>
		<path class="st6" d="M24.6,244c-0.4,1.5,0.2,3.2,1.2,4.5s2.5,2.1,3.9,2.9"/>
		<g>
			<path class="st7" d="M23.6,243.7c-0.5,1.8,0.1,3.7,1.2,5.2c1.1,1.4,2.7,2.4,4.3,3.3c0.5,0.3,1.1,0.1,1.4-0.4
				c0.3-0.5,0.1-1.1-0.4-1.4c-1.3-0.8-2.6-1.5-3.6-2.7c-0.4-0.4-0.8-1.1-0.9-1.7c-0.1-0.3-0.2-0.6-0.2-0.9c0-0.4,0-0.6,0.1-1
				c0.1-0.5-0.2-1.1-0.7-1.2C24.4,242.9,23.8,243.2,23.6,243.7L23.6,243.7z"/>
		</g>
	</g>
</g>
<path class="st8" d="M44.9,233.3h15.8v-69.9c0-3.3-2.7-6-6-6h-3.8c-3.3,0-6,2.7-6,6V233.3z"/>
<rect x="44.9" y="220" transform="matrix(-1 -3.299106e-11 3.299106e-11 -1 105.4942 454.0796)" class="st10" width="15.8" height="14"/>
<rect x="36.2" y="156.7" class="st7" width="56" height="7.8"/>
<polygon class="st0" points="65.3,106 54.5,95.8 76.2,95.8 "/>
<rect x="44.9" y="225.8" class="st6" width="15.8" height="14.9"/>
<rect x="68.4" y="225.8" class="st6" width="15.8" height="14.9"/>
<path class="st11" d="M68.8,166.1h-7.4c-2.1,0-3.7-1.7-3.7-3.7v-4c0-2.1,1.7-3.7,3.7-3.7h7.4c2.1,0,3.7,1.7,3.7,3.7v4
	C72.5,164.4,70.8,166.1,68.8,166.1z"/>
<path class="st0" d="M37.3,165.5c-0.7,5.1-5.6,8.7-10.9,7.9c-5.3-0.8-8.9-5.5-8.2-10.7c0.3-2.1,1.3-4,2.8-5.4l2-13.8
	c0.5-3.5,3.8-5.9,7.4-5.4l3.1,0.5c3.5,0.5,6,3.8,5.5,7.2L36.9,161C37.4,162.4,37.5,163.9,37.3,165.5z"/>
<path class="st5" d="M39.2,99.6l-3.1-0.5c-3.5-0.5-7.6,7.1-9,16.9l-4.1,28.4l16,2.3l4.1-28.4C44.5,108.6,42.8,100.1,39.2,99.6z"/>
<path class="st0" d="M111.1,162.4c0.5,5.2-3.2,9.8-8.4,10.3c-5.2,0.5-9.8-3.2-10.3-8.4c-0.1-0.8-0.1-1.7,0.1-2.4l-2.1-20.1
	c-0.4-3.5,2.2-6.6,5.7-7l3-0.3c3.5-0.4,6.6,2.2,7,5.7l1.7,16C109.5,157.7,110.8,159.9,111.1,162.4z"/>
<path class="st5" d="M95.6,100.9l-3,0.3c-3.5,0.4-5.5,8.4-4.5,17.9l2.8,27.5l15.7-1.6l-2.8-27.5C102.8,108,99.1,100.5,95.6,100.9z"
	/>
<path class="st12" d="M46.2,230.7h13.1c1.7,0,3-1.3,3-3v-1.3c0-1.7-1.3-3-3-3H46.2c-1.7,0-3,1.3-3,3v1.3
	C43.2,229.3,44.5,230.7,46.2,230.7z"/>
<path class="st12" d="M82.8,230.7H69.7c-1.7,0-3-1.3-3-3v-1.3c0-1.7,1.3-3,3-3h13.1c1.7,0,3,1.3,3,3v1.3
	C85.8,229.3,84.5,230.7,82.8,230.7z"/>
<ellipse class="st13" cx="65.4" cy="71.5" rx="5.9" ry="3.5"/>
<g>
	<g>
		<g>
			<g>
				<path class="st14" d="M100.1,30.3c0,0-0.2,0.1-0.4,0.3c-0.3,0.2-0.8,0.4-1.4,0.6c-1.2,0.4-3.1,0.8-5.7,0.4
					c-1.4-0.2-3-0.8-4.6-1.7c-0.4-0.2-0.8-0.5-1.2-0.8l-0.6-0.4c-0.2-0.1-0.4-0.3-0.5-0.3c-0.4-0.2-0.8-0.4-1.2-0.5
					c-0.8-0.2-1.8-0.1-2.5,0.2c-0.4,0.2-0.7,0.3-1,0.5c0,0.1-0.2,0.1-0.3,0.1l-0.4,0.1c-0.3,0.1-0.6,0.2-0.9,0.3
					c-5.7,1.5-10.8,2.8-13.1,2.8c-6.4,0-11.8-4.6-12-10.4c-0.2-5.9,5.2-10.8,12-10.8c2.4,0,7.7,1.3,13.7,3.2
					c0.9,0.3,1.8,0.6,2.7,0.8c1.2,0.3,2.3,0.8,3.4,1.3c2.1,1,3.9,2.5,5.1,4.4c0.6,0.9,1,1.9,1.4,2.9c0.1,0.3,0.1,0.4,0.2,0.5
					l0.1,0.4c0.1,0.3,0.1,0.5,0.2,0.7c0.3,1,0.9,1.8,1.5,2.6c1.1,1.3,2.6,2,3.7,2.4c0.6,0.2,1,0.3,1.3,0.4
					C100,30.3,100.1,30.3,100.1,30.3z"/>
			</g>
		</g>
	</g>
	<g>
		<g>
			<g>
				<path class="st15" d="M54.8,14.1c-1.8,0.4-3.8,1.2-4.6,3c-0.5,1-0.4,2.2,0,3.2c0.4,1,1.2,1.8,1.7,2.8c0.3,0.6,0.5,1.1-0.2,1.4
					c-0.8,0.4-1.8,0.5-2.7,0.8c-2,0.8-3.8,2-5.3,3.7c-0.5,0.6-0.6,1.5,0,2.1c0.5,0.5,1.6,0.6,2.1,0c1.2-1.4,2.8-2.6,4.6-3.1
					c1.9-0.6,4.1-1,4.5-3.2c0.2-1.1-0.1-2.2-0.6-3.2c-0.4-0.8-1.2-1.5-1.5-2.4c-0.4-1.4,1.6-1.8,2.7-2c0.8-0.2,1.3-1.1,1-1.8
					C56.4,14.3,55.6,13.9,54.8,14.1L54.8,14.1z"/>
			</g>
		</g>
		<g>
			<g>
				<path class="st15" d="M57.5,23.9c-4.3-0.8-8.7-0.9-13.1-0.1c-0.8,0.1-1.2,1.1-1,1.8c0.2,0.8,1,1.2,1.8,1
					c3.8-0.6,7.7-0.6,11.5,0.1c0.8,0.2,1.6-0.2,1.8-1C58.7,25,58.3,24.1,57.5,23.9L57.5,23.9z"/>
			</g>
		</g>
		<g>
			<g>
				<path class="st15" d="M56.9,24.5c0.8-2.4-0.9-4.9-3-5.8c-2.7-1.1-5.5-0.1-8,1.1c-0.7,0.4-1,1.4-0.5,2.1c0.5,0.7,1.3,0.9,2.1,0.5
					c0.2-0.1,0.5-0.2,0.7-0.3c0.3-0.1,0.4-0.2,0.5-0.2c0.5-0.2,0.9-0.3,1.4-0.5c0.2-0.1,0.5-0.1,0.7-0.1c-0.3,0,0.2,0,0.2,0
					c0.1,0,0.2,0,0.3,0c0.1,0,0.3,0,0.4,0c0.1,0,0.4,0,0.1,0c0.2,0,0.4,0.1,0.6,0.2c0.1,0,0.1,0,0,0c0.1,0,0.2,0.1,0.3,0.1
					c0.1,0,0.2,0.1,0.3,0.2c0,0,0.3,0.2,0.2,0.1c-0.2-0.1,0.1,0.1,0.1,0.1c0.1,0.1,0.2,0.1,0.2,0.2c0.1,0.1,0.1,0.2,0.2,0.2
					c-0.1-0.1-0.1-0.1,0,0c0.1,0.2,0.2,0.3,0.3,0.5c-0.1-0.2-0.1-0.1,0,0c0,0.1,0,0.2,0.1,0.3c0,0.2,0,0.1,0-0.1c0,0.1,0,0.2,0,0.3
					c0,0.2,0,0.2,0,0c0,0.1-0.1,0.2-0.1,0.3c-0.2,0.7,0.3,1.7,1,1.8C55.8,25.7,56.6,25.3,56.9,24.5L56.9,24.5z"/>
			</g>
		</g>
		<g>
			<g>
				<path class="st15" d="M55.5,19.2c-0.9-2.4-2.9-4.1-5.4-4.4c-2.4-0.3-4.8,1-6.1,3c-0.4,0.7-0.2,1.7,0.5,2.1
					c0.7,0.4,1.6,0.2,2.1-0.5c0.1-0.1,0.1-0.2,0.2-0.3c0.1-0.1-0.1,0.1,0,0c0.2-0.2,0.3-0.3,0.5-0.5c0.1-0.1,0.1-0.1,0,0
					c0.1-0.1,0.2-0.1,0.3-0.2c0.2-0.1,0.4-0.2,0.6-0.3c0.1,0,0.3-0.1,0.1,0c0.1,0,0.2-0.1,0.2-0.1c0.2-0.1,0.4-0.1,0.6-0.2
					c0.4-0.1-0.2,0,0,0c0.1,0,0.2,0,0.3,0c0.2,0,0.4,0,0.6,0c-0.1,0-0.2,0,0,0c0.1,0,0.2,0,0.3,0.1c0.1,0,0.2,0.1,0.3,0.1
					c0,0,0.4,0.1,0.2,0.1c-0.2-0.1,0.2,0.1,0.2,0.1c0.1,0,0.2,0.1,0.3,0.2c0.1,0.1,0.2,0.1,0.3,0.2c0.1,0.1,0.1,0.1,0,0
					c0.2,0.1,0.3,0.3,0.5,0.4c0.1,0.1,0.1,0.2,0.2,0.2c0,0.1,0.2,0.3,0,0c0.1,0.2,0.2,0.3,0.3,0.5c0.1,0.1,0.1,0.2,0.1,0.3
					c0.1,0.3-0.1-0.2,0,0.1c0.3,0.7,1,1.3,1.8,1C55.2,20.8,55.8,20,55.5,19.2L55.5,19.2z"/>
			</g>
		</g>
		<g>
			<g>
				<path class="st15" d="M57.8,13.5c-4.9-3.8-12.5-3.4-16.7,1.4c-0.5,0.6-0.6,1.5,0,2.1c0.5,0.5,1.6,0.6,2.1,0
					c3-3.4,8.8-4.3,12.4-1.4c0.6,0.5,1.5,0.6,2.1,0C58.3,15.1,58.5,14,57.8,13.5L57.8,13.5z"/>
			</g>
		</g>
		<g>
			<g>
				<path class="st15" d="M50.9,13.1c-2.5,0.1-5.2,0.3-7.4,1.6c-1.1,0.7-2.2,1.7-2.7,2.9c-0.7,1.4-0.9,3-0.9,4.6
					c0,0.8,0.7,1.5,1.5,1.5c0.8,0,1.5-0.7,1.5-1.5c0-0.3,0-0.6,0-1c0-0.2,0-0.3,0-0.5c0,0.2,0-0.2,0-0.2c0.1-0.6,0.3-1.1,0.4-1.5
					c0.1-0.3,0.3-0.5,0.5-0.8c-0.2,0.3,0.1-0.1,0.1-0.1c0.1-0.1,0.2-0.2,0.3-0.3c0.1-0.1,0.2-0.2,0.3-0.3c-0.2,0.1,0,0,0.1,0
					c0.2-0.1,0.4-0.3,0.7-0.4c0.1-0.1,0.2-0.1,0.3-0.1c0.1,0,0.4-0.2,0.1-0.1c0.3-0.1,0.5-0.2,0.8-0.3c0.5-0.2,1-0.3,1.5-0.4
					c0.1,0,0.2,0,0.3-0.1c0.4-0.1-0.2,0,0.2,0c0.3,0,0.6-0.1,0.8-0.1c0.5,0,1.1-0.1,1.6-0.1c0.8,0,1.5-0.7,1.5-1.5
					C52.4,13.8,51.8,13.1,50.9,13.1L50.9,13.1z"/>
			</g>
		</g>
		<g>
			<g>
				<path class="st15" d="M43.2,17.1c-1.6,2.2-2.5,4.9-2.5,7.6c0,0.8,0.7,1.5,1.5,1.5c0.8,0,1.5-0.7,1.5-1.5c0-0.3,0-0.6,0-0.9
					c0-0.2,0-0.3,0-0.5c-0.1,0.4,0,0,0-0.1c0.1-0.6,0.2-1.2,0.4-1.7c0-0.1,0.1-0.3,0.1-0.4c0-0.1,0.2-0.6,0.1-0.2
					c0.1-0.3,0.2-0.5,0.4-0.8c0.3-0.5,0.6-1,1-1.5c0.5-0.6,0.1-1.7-0.5-2.1C44.4,16.2,43.7,16.4,43.2,17.1L43.2,17.1z"/>
			</g>
		</g>
		<g>
			<g>
				<path class="st15" d="M41.8,17.9c-1.3,3.9-1.3,8.3,0,12.3c0.3,0.8,1,1.3,1.8,1c0.8-0.2,1.3-1.1,1-1.8c-1.2-3.5-1.2-7.2,0-10.7
					c0.3-0.8-0.3-1.6-1-1.8C42.9,16.6,42.1,17.1,41.8,17.9L41.8,17.9z"/>
			</g>
		</g>
		<g>
			<g>
				<path class="st15" d="M47.1,16.9c-2,2-3.6,4.5-4.5,7.2c-0.6,1.9-0.9,4.6-2.5,5.8c-0.7,0.5-1,1.3-0.5,2.1c0.4,0.7,1.4,1,2.1,0.5
					c2.3-1.6,2.9-4.1,3.6-6.7c0.7-2.6,2-4.9,4-6.8C50.6,17.7,48.4,15.5,47.1,16.9L47.1,16.9z"/>
			</g>
		</g>
		<g>
			<g>
				<path class="st15" d="M40.6,24.4c0,0.1,0.1,0.2,0.1,0.3c0,0.1,0,0.5,0,0c0,0.2,0,0.5,0,0.7c0,0.2,0,0.5,0,0.7c0,0.1,0,0.1,0,0.2
					c0-0.3,0-0.3,0-0.1c0,0.1,0,0.2-0.1,0.3c0,0.2-0.1,0.4-0.2,0.6c0,0.1-0.1,0.2-0.1,0.3c0,0.1,0,0.1-0.1,0.2
					c0.1-0.2,0.1-0.3,0-0.1c-0.1,0.2-0.2,0.4-0.3,0.6c-0.1,0.1-0.1,0.2-0.2,0.3c-0.1,0.1-0.3,0.4,0,0c-0.3,0.3-0.4,0.6-0.4,1.1
					c0,0.4,0.2,0.8,0.4,1.1c0.3,0.3,0.7,0.5,1.1,0.4c0.4,0,0.8-0.1,1.1-0.4c0.8-1,1.3-2,1.6-3.3c0.3-1.2,0.2-2.5-0.1-3.7
					c-0.2-0.8-1.1-1.3-1.8-1C40.9,22.8,40.4,23.5,40.6,24.4L40.6,24.4z"/>
			</g>
		</g>
		<g>
			<g>
				<path class="st15" d="M42,21.9c-0.6,0.5-1.2,1-1.8,1.4c-0.1,0.1-0.2,0.3-0.3,0.5c-0.1,0.2-0.1,0.4-0.1,0.6c0,0.2,0,0.4,0.1,0.6
					c0.1,0.2,0.2,0.3,0.3,0.5c0.3,0.3,0.7,0.5,1.1,0.4c0.1,0,0.3,0,0.4-0.1c0.3-0.1,0.5-0.2,0.7-0.4c0.6-0.5,1.2-1,1.8-1.4
					c0.1-0.1,0.2-0.3,0.3-0.5c0.1-0.2,0.1-0.4,0.1-0.6c0-0.2,0-0.4-0.1-0.6c-0.1-0.2-0.2-0.3-0.3-0.5c-0.3-0.3-0.7-0.5-1.1-0.4
					c-0.1,0-0.3,0-0.4,0.1C42.4,21.6,42.2,21.7,42,21.9L42,21.9z"/>
			</g>
		</g>
		<g>
			<g>
				<path class="st15" d="M45,29.1c1.3-0.8,2.5-1.9,3.7-2.8c1.2-1,2.5-2,3.7-3c1.2-0.9-0.1-3-1.5-2.5c-2.3,0.8-4.6,1.6-7,2.4
					c0.5,0.8,1,1.7,1.5,2.5c2.8-3.2,5.6-6.4,8.4-9.7c0.5-0.6,0.6-1.5,0-2.1c-0.5-0.5-1.6-0.6-2.1,0c-2.8,3.2-5.6,6.4-8.4,9.7
					c-0.4,0.5-0.6,1.2-0.2,1.8c0.3,0.5,1.1,0.9,1.7,0.7c2.3-0.8,4.6-1.6,7-2.4c-0.5-0.8-1-1.7-1.5-2.5c-1.2,1-2.3,1.9-3.5,2.9
					c-1.1,0.9-2.1,1.8-3.3,2.5C41.8,27.6,43.3,30.2,45,29.1L45,29.1z"/>
			</g>
		</g>
		<g>
			<g>
				<path class="st15" d="M53.6,16.4c0.3,0.6,0.6,1.2,0.9,1.8c-0.1-0.3,0,0.1,0.1,0.1c0.1,0.2,0.1,0.3,0.2,0.5
					c0.1,0.3,0.2,0.6,0.3,0.9c0.2,0.6,0.3,1.2,0.4,1.8c0,0.2,0,0.2,0,0c0,0.1,0,0.2,0,0.3c0,0.1,0,0.3,0,0.4c0,0.4,0,0.7,0,1.1
					c0,0.8,0.7,1.5,1.5,1.5c0.8,0,1.5-0.7,1.5-1.5c0-2.9-0.8-5.8-2.3-8.3c-0.4-0.7-1.4-1-2.1-0.5C53.5,14.8,53.2,15.7,53.6,16.4
					L53.6,16.4z"/>
			</g>
		</g>
		<g>
			<g>
				<path class="st15" d="M40.9,14.3c-2.2,2.1-2.8,5.1-2.8,8c0,3.1,0.7,6.3-0.5,9.3c-0.3,0.8,0.3,1.6,1,1.8c0.9,0.2,1.5-0.3,1.8-1
					c1.2-2.9,0.7-6.1,0.6-9.1c-0.1-2.4,0-5.1,1.9-6.9C44.5,15.1,42.3,12.9,40.9,14.3L40.9,14.3z"/>
			</g>
		</g>
	</g>
</g>
<path class="st2" d="M90.3,57.4h3.1c1.1,0,2-0.9,2-2V48c0-1.1-0.9-2-2-2h-3.1V57.4z"/>
<path class="st16" d="M93.9,60.9c0,0-7,3.9-15.3,2.7c-4.9-0.7-11.7,1.8-13.3,3.8c-1.6-2-8.4-4.5-13.3-3.8
	c-8.3,1.2-15.3-2.7-15.3-2.7s6.8,7.3,12.5,8.5c4.9,1,14,2.6,16-0.4c2,3,11.1,1.4,16,0.4C87.1,68.2,93.9,60.9,93.9,60.9z"/>
<polygon class="st17" points="70.4,144.9 65,150.4 59.6,145.1 61.6,109.7 61.6,109.7 60.8,109 64.6,104.7 68.5,109.2 67.8,109.8 "/>
<path class="st18" d="M234.5,130.5H130.9c-3.9,0-7-3.1-7-7V60.7c0-3.8,3.1-7,7-7h103.5c3.9,0,7,3.2,7,7v62.9
	C241.5,127.4,238.3,130.5,234.5,130.5z"/>
<rect x="131" y="60.9" class="st19" width="70.8" height="55.3"/>
<g>
	<rect x="131" y="60.9" class="st20" width="70.8" height="55.3"/>
	<line class="st20" x1="131" y1="107.1" x2="201.8" y2="107.1"/>
	<line class="st20" x1="131" y1="97.8" x2="201.8" y2="97.8"/>
	<line class="st20" x1="131" y1="88.6" x2="201.8" y2="88.6"/>
	<line class="st20" x1="131" y1="79.4" x2="201.8" y2="79.4"/>
	<line class="st20" x1="131" y1="70.2" x2="201.8" y2="70.2"/>
	<line class="st20" x1="190" y1="60.9" x2="190" y2="116.3"/>
	<line class="st20" x1="178.2" y1="60.9" x2="178.2" y2="116.3"/>
	<line class="st20" x1="166.4" y1="60.9" x2="166.4" y2="116.3"/>
	<line class="st20" x1="154.6" y1="60.9" x2="154.6" y2="116.3"/>
	<line class="st20" x1="142.8" y1="60.9" x2="142.8" y2="116.3"/>
</g>
<circle class="st21" cx="211.8" cy="65.9" r="4.4"/>
<circle class="st22" cx="230.7" cy="65.9" r="4.4"/>
<circle class="st23" cx="211.8" cy="79.4" r="4.4"/>
<circle class="st24" cx="230.7" cy="79.4" r="4.4"/>
<path d="M231.3,105.7h-20c-2.1,0-3.9-1.8-3.9-3.9V90.5c0-2.1,1.8-3.9,3.9-3.9h20c2.1,0,3.9,1.8,3.9,3.9v11.4
	C235.2,104,233.4,105.7,231.3,105.7z"/>
<path d="M232.9,116.3h-23.2c-1.3,0-2.3-1-2.3-2.3v-3.2c0-1.3,1-2.3,2.3-2.3h23.2c1.3,0,2.3,1,2.3,2.3v3.2
	C235.2,115.3,234.1,116.3,232.9,116.3z"/>
<circle class="st25" cx="221.3" cy="112.4" r="2.2"/>
<circle class="st23" cx="228.5" cy="112.4" r="2.2"/>
<circle class="st26" cx="214.1" cy="112.4" r="2.2"/>
<path d="M198.3,127.2h-63.8c-1.9,0-3.5-1.6-3.5-3.5l0,0c0-1.9,1.6-3.5,3.5-3.5h63.8c1.9,0,3.5,1.6,3.5,3.5l0,0
	C201.8,125.6,200.3,127.2,198.3,127.2z"/>
<g>
	<path class="st27" d="M131,73.6c7.1,0,7.2,30,14.2,29.9c7.1,0,6.9-30,14-30.1c7.1,0,7.2,30,14.2,29.9c7.1,0,6.9-30,14-30.1
		c7.1,0,7.2,30,14.3,29.9"/>
</g>
<g>
	<g>
		<path class="st28" d="M214.1,111.3c-2-0.1-3.5,1.7-3.8,3.5c-0.4,2.6,1.4,4.6,2.2,6.9c0.8,2.4,0.4,5.5-1.5,7.3
			c-0.8,0.7-2,1.3-3,0.5c-0.8-0.6-1-1.9-0.4-2.7c0.6-0.7,1.8-0.9,2.6-0.5c1.3,0.6,1.5,2.4,1.5,3.6c-0.1,2.5-1.7,4.8-4,5.8
			c-4.5,2.1-9.9,0.1-14.7,0.5c-2.5,0.2-4.9,1-6.7,2.7c-0.9,0.9-1.6,2.1-2.5,3c-0.7,0.6-2.2,1.3-2.8,0.2c-0.6-1.2-2.4-0.1-1.8,1.1
			c1.2,2.4,4.5,1.8,6.1,0.3c1-1,1.6-2.2,2.7-3.1c1.2-1.1,2.8-1.6,4.4-1.9c5.9-0.9,12.8,2.2,18-1.9c2.3-1.8,3.6-4.8,3.4-7.7
			c-0.3-2.7-2.1-5.2-5.1-4.8c-2.5,0.3-4.1,2.7-3.4,5.1c0.8,2.6,3.6,3.6,5.9,2.3c3-1.6,4-5.5,3.6-8.7c-0.3-1.9-1.3-3.5-2-5.3
			c-0.5-1.2-0.9-4.2,1.2-4.1C215.4,113.6,215.4,111.4,214.1,111.3L214.1,111.3z"/>
	</g>
</g>
<g>
	<g>
		<path class="st29" d="M219.7,112c-0.9,3.8-1.4,8.5,2.6,10.6c0.9,0.5,1.8,0.8,2.6,1.4c0.6,0.5,1.6,1.3,1.7,2.1c0,0.8-0.9,1.5-1.4,2
			c-0.6,0.6-1.3,1.2-1.9,1.8c-2.6,2.7-3.6,6.1-2,9.6c1.6,3.7,5.3,5.7,8.7,7.4c1.7,0.9,3.2-1.7,1.5-2.6c-3-1.5-6.6-3.2-7.8-6.7
			c-1.2-3.6,1.9-5.7,4.1-7.9c1.1-1.2,2.1-2.6,1.7-4.4c-0.4-1.6-1.7-3-3-4c-1.4-1-3.4-1.3-4.2-3c-0.7-1.8-0.1-3.8,0.3-5.6
			C223,110.9,220.1,110.1,219.7,112L219.7,112z"/>
	</g>
</g>
<g>
	<g>
		<path class="st30" d="M228.7,114c1.3,0.2,2.6,0.2,3.9,0.1c1.2-0.1,2.6-0.3,3.7,0.1c1.2,0.5,1.8,1.7,2.4,2.8
			c0.7,1.2,1.4,2.3,2.2,3.4c2.8,3.7,8.6,8.7,13.2,4.7c1.8-1.6,2.2-4.4,0.6-6.3c-1.7-2-4.7-2.1-6.8-0.7c-4.6,3-3.3,9.4-0.2,12.9
			c1,1.1,2.1,2,3.3,2.9c1,0.7,2.9,1.5,3.4,2.6c0.3,0.7,0.1,1.6,0.2,2.3c0,0.7,0.1,1.3,0.3,2c0.4,1.5,1.3,2.9,2.3,4.1
			c1.3,1.4,3.4-0.7,2.1-2.1c-0.7-0.7-1.2-1.6-1.5-2.5c-0.3-1.1-0.2-2.2-0.3-3.3c-0.3-2.3-1.8-3.4-3.5-4.5c-3.1-2-7-5.2-6-9.4
			c0.4-1.6,2.2-3.6,4-2.5c1.8,1.1,0.1,3-1.4,3.2c-2.2,0.2-4.2-1.7-5.6-3.1c-1.5-1.5-2.7-3.3-3.7-5.1c-1.1-2-2.5-3.7-4.8-4.2
			c-2.3-0.5-4.6,0.3-6.9-0.1C227.6,110.8,226.8,113.7,228.7,114L228.7,114z"/>
	</g>
</g>
<path d="M179.1,144.1l-3.1-3.5c-0.2-0.2-0.2-0.6,0.1-0.8l1.4-1.2c0.2-0.2,0.6-0.2,0.8,0.1l3.1,3.5c0.2,0.2,0.2,0.6-0.1,0.8l-1.4,1.2
	C179.7,144.4,179.3,144.4,179.1,144.1z"/>
<path d="M233.7,148.6l-4.3-1.7c-0.3-0.1-0.4-0.5-0.3-0.8l1.2-3c0.1-0.3,0.5-0.4,0.8-0.3l4.3,1.7c0.3,0.1,0.4,0.5,0.3,0.8l-1.2,3
	C234.3,148.5,234,148.7,233.7,148.6z"/>
<path d="M259.5,148.1l-3.1-3.5c-0.2-0.2-0.2-0.6,0.1-0.8l2.5-2.1c0.2-0.2,0.6-0.2,0.8,0.1l3.1,3.5c0.2,0.2,0.2,0.6-0.1,0.8l-2.5,2.1
	C260.1,148.4,259.7,148.4,259.5,148.1z"/>
<path class="st18" d="M154.6,187.7h-5.5c-3.9,0-7-3.1-7-7v-12.5h19.5v12.5C161.6,184.6,158.5,187.7,154.6,187.7z"/>
<rect x="145" y="160" class="st31" width="2.5" height="8.3"/>
<rect x="156.5" y="160" class="st31" width="2.5" height="8.3"/>
<rect x="150.7" y="158.1" class="st31" width="2.5" height="10.2"/>
<path class="st32" d="M223.5,205.5h-35.1c-3.3,0-6-2.7-6-6v-26.8c0-3.3,2.7-6,6-6h35.1c3.3,0,6,2.7,6,6v26.8
	C229.5,202.8,226.8,205.5,223.5,205.5z"/>
<rect x="214.6" y="188.6" width="2.5" height="8.4"/>
<polygon points="225.9,181.1 224.1,183 218.7,177.1 220.5,175.1 "/>
<polygon points="207,183 205.2,181.1 210.6,175.1 212.4,177.1 "/>
<path class="st33" d="M196.9,193.4h-4.5c-1.1,0-2-0.9-2-2v-8c0-1.1,0.9-2,2-2h4.5c1.1,0,2,0.9,2,2v8
	C198.9,192.5,198,193.4,196.9,193.4z"/>
<path class="st34" d="M195,186.7h-0.8c-0.9,0-1.6-0.7-1.6-1.6v0c0-0.9,0.7-1.6,1.6-1.6h0.8c0.9,0,1.6,0.7,1.6,1.6v0
	C196.6,186,195.9,186.7,195,186.7z"/>
</svg>
