<?xml version="1.0" encoding="utf-8"?>
<!-- Generator: Adobe Illustrator 24.0.1, SVG Export Plug-In . SVG Version: 6.00 Build 0)  -->
<svg version="1.1" id="Layer_1" xmlns="http://www.w3.org/2000/svg" xmlns:xlink="http://www.w3.org/1999/xlink" x="0px" y="0px"
	 viewBox="0 0 280 270" style="enable-background:new 0 0 280 270;" xml:space="preserve">
<style type="text/css">
	.st0{fill:#77411B;}
	.st1{fill:#606160;}
	.st2{fill:#989694;}
	.st3{fill:#FFE3B2;}
	.st4{fill:#4C3512;}
	.st5{fill:#BFA981;}
	.st6{fill:#050505;}
	.st7{fill:#5C3E16;}
	.st8{fill:#003B4D;}
	.st9{fill:#933D1F;}
	.st10{fill:#603B15;}
	.st11{fill:#FFF0EB;}
	.st12{fill:#200E0A;}
	.st13{fill:#231F20;}
	.st14{fill:#372611;}
	.st15{fill:#670E0C;}
	.st16{fill:#E4B322;stroke:#030202;stroke-width:0.75;stroke-miterlimit:10;}
	.st17{fill:#484C44;}
	.st18{fill:#B56528;}
	.st19{fill:#683A16;}
	.st20{fill:#366732;}
</style>
<path class="st0" d="M142.91,113.64l5.68-7.59c2.48-2.15,35.61,21.73,47.78,31.99l36.91,29.67c1.3,0.97,1.57,2.84,0.6,4.14
	l-3.61,4.83c-0.97,1.3-4.36,0.32-5.66-0.65c0,0-27.79-24.6-34.58-30.16c-6.82-5.58-16.04-12.91-16.04-12.91
	C162.76,122.73,141.89,117.72,142.91,113.64z"/>
<path class="st1" d="M227.78,169.39c1.18-1.57,2.36-3.11,3.54-4.6c1.02-1.29,0.79-3.15-0.51-4.12L221.9,154
	c-1.44-1.08-3.49-0.64-4.44,0.92c-2.19,3.63-4.72,7.39-7.53,11.16c-9.33,12.49-19.48,21.88-26.81,25.49l23.69,17.71
	C207.46,201.5,215.53,185.77,227.78,169.39z"/>
<path class="st2" d="M208.32,202.98c2.84-8.55,9.82-20.67,19.48-33.58c1.45-1.94,2.91-3.82,4.37-5.64c0.57-0.71,0.44-1.75-0.29-2.3
	l-11.23-8.4c-0.87-0.65-2.1-0.4-2.65,0.53c-2.35,4-5.11,8.18-8.23,12.36c-7.31,9.78-14.92,17.81-21.51,22.48L208.32,202.98z"/>
<circle class="st1" cx="220.87" cy="165.43" r="2.87"/>
<path class="st3" d="M61.84,106.01H47.21c-1.96,0-3.56-1.6-3.56-3.56V84.27c0-1.96,1.6-3.56,3.56-3.56h14.63
	c1.96,0,3.56,1.6,3.56,3.56v18.18C65.4,104.41,63.8,106.01,61.84,106.01z"/>
<path class="st3" d="M78.2,63.4c-0.11-0.31,0.08-0.53,0.33-0.59v-23.1c0-10.49-8.51-19-19-19h-12c-10.49,0-19,8.51-19,19v38
	c0,12.7,10.3,23,23,23h4c12.7,0,23-10.3,23-23V64.3C78.42,64,78.31,63.7,78.2,63.4z"/>
<path class="st4" d="M48.2,47.73h-9c-1.1,0-2-0.9-2-2v-0.67c0-1.1,0.9-2,2-2h9c1.1,0,2,0.9,2,2v0.67
	C50.2,46.83,49.3,47.73,48.2,47.73z"/>
<path class="st4" d="M68.7,47.73h-9c-1.1,0-2-0.9-2-2v-0.67c0-1.1,0.9-2,2-2h9c1.1,0,2,0.9,2,2v0.67
	C70.7,46.83,69.8,47.73,68.7,47.73z"/>
<path class="st5" d="M28.53,61.63h-3.15c-1.1,0-2-0.9-2-2V55c0-1.1,0.9-2,2-2h3.15V61.63z"/>
<path class="st5" d="M81.68,61.63h-3.15V53h3.15c1.1,0,2,0.9,2,2v4.63C83.68,60.74,82.78,61.63,81.68,61.63z"/>
<circle class="st6" cx="43.7" cy="50.99" r="2.06"/>
<circle class="st6" cx="64.84" cy="50.99" r="2.06"/>
<path class="st5" d="M55.03,65.16h-1.15c-1.1,0-2-0.9-2-2v-4.84c0-1.1,0.9-2,2-2h1.15c1.1,0,2,0.9,2,2v4.84
	C57.03,64.26,56.13,65.16,55.03,65.16z"/>
<path class="st7" d="M82.59,82.44c0,0-7-6.08-15.25-4.18c-4.86,1.12-11.71-2.82-13.27-5.98c-1.57,3.15-8.42,7.1-13.28,5.98
	c-8.26-1.9-15.26,4.18-15.26,4.18s6.81-11.5,12.5-13.38c4.91-1.63,14.03-4.11,16.04,0.64c2-4.75,11.11-2.27,16.03-0.64
	C75.78,70.94,82.59,82.44,82.59,82.44z"/>
<path class="st8" d="M75.02,28.75c-3.44-4.85-9.09-8.03-15.49-8.03h-12c-6.4,0-12.05,3.18-15.49,8.03H75.02z"/>
<g>
	<g>
		<path class="st7" d="M77.18,43.27c1.93,0,1.93-3,0-3C75.25,40.27,75.25,43.27,77.18,43.27L77.18,43.27z"/>
	</g>
</g>
<g>
	<g>
		<path class="st7" d="M77.68,44.27c1.93,0,1.93-3,0-3C75.75,41.27,75.75,44.27,77.68,44.27L77.68,44.27z"/>
	</g>
</g>
<g>
	<g>
		<path class="st7" d="M78.51,45.6c1.93,0,1.93-3,0-3C76.58,42.6,76.58,45.6,78.51,45.6L78.51,45.6z"/>
	</g>
</g>
<g>
	<g>
		<path class="st7" d="M78.85,47.1c1.93,0,1.93-3,0-3C76.92,44.1,76.91,47.1,78.85,47.1L78.85,47.1z"/>
	</g>
</g>
<g>
	<g>
		<path class="st7" d="M77.45,46.21c-0.06,0.06-0.11,0.11-0.17,0.17c-0.15,0.14-0.25,0.3-0.31,0.48c-0.09,0.18-0.14,0.37-0.13,0.58
			c-0.01,0.21,0.04,0.4,0.13,0.58c0.06,0.19,0.16,0.35,0.31,0.48c0.1,0.08,0.2,0.16,0.3,0.23c0.23,0.14,0.49,0.2,0.76,0.2
			c0.13-0.02,0.27-0.04,0.4-0.05c0.25-0.07,0.47-0.2,0.66-0.39c0.06-0.06,0.11-0.11,0.17-0.17c0.15-0.14,0.25-0.3,0.31-0.48
			c0.09-0.18,0.14-0.37,0.13-0.58c0.01-0.21-0.04-0.4-0.13-0.58c-0.06-0.19-0.16-0.35-0.31-0.48c-0.1-0.08-0.2-0.16-0.3-0.23
			c-0.23-0.14-0.49-0.2-0.76-0.2c-0.13,0.02-0.27,0.04-0.4,0.05C77.86,45.9,77.64,46.02,77.45,46.21L77.45,46.21z"/>
	</g>
</g>
<g>
	<g>
		<path class="st7" d="M77.85,51.77c1.93,0,1.93-3,0-3C75.92,48.77,75.91,51.77,77.85,51.77L77.85,51.77z"/>
	</g>
</g>
<g>
	<g>
		<path class="st7" d="M78.68,52.94c1.93,0,1.93-3,0-3C76.75,49.94,76.75,52.94,78.68,52.94L78.68,52.94z"/>
	</g>
</g>
<g>
	<g>
		<path class="st7" d="M79.18,54.44c1.93,0,1.93-3,0-3C77.25,51.44,77.25,54.44,79.18,54.44L79.18,54.44z"/>
	</g>
</g>
<g>
	<g>
		<path class="st7" d="M79.51,53.1c1.93,0,1.93-3,0-3C77.58,50.1,77.58,53.1,79.51,53.1L79.51,53.1z"/>
	</g>
</g>
<g>
	<g>
		<path class="st7" d="M79.01,51.1c1.93,0,1.93-3,0-3C77.08,48.1,77.08,51.1,79.01,51.1L79.01,51.1z"/>
	</g>
</g>
<g>
	<g>
		<path class="st7" d="M78.85,50.1c1.93,0,1.93-3,0-3C76.92,47.1,76.91,50.1,78.85,50.1L78.85,50.1z"/>
	</g>
</g>
<g>
	<g>
		<path class="st7" d="M80.01,48.77c1.93,0,1.93-3,0-3C78.08,45.77,78.08,48.77,80.01,48.77L80.01,48.77z"/>
	</g>
</g>
<g>
	<g>
		<path class="st7" d="M80.01,46.44c1.93,0,1.93-3,0-3C78.08,43.44,78.08,46.44,80.01,46.44L80.01,46.44z"/>
	</g>
</g>
<g>
	<g>
		<path class="st7" d="M79.51,43.6c1.93,0,1.93-3,0-3C77.58,40.6,77.58,43.6,79.51,43.6L79.51,43.6z"/>
	</g>
</g>
<g>
	<g>
		<path class="st7" d="M78.35,43.44c1.93,0,1.93-3,0-3C76.42,40.44,76.41,43.44,78.35,43.44L78.35,43.44z"/>
	</g>
</g>
<g>
	<g>
		<path class="st7" d="M76.51,43.1c1.93,0,1.93-3,0-3C74.58,40.1,74.58,43.1,76.51,43.1L76.51,43.1z"/>
	</g>
</g>
<g>
	<g>
		<path class="st7" d="M74.85,43.27c1.93,0,1.93-3,0-3C72.92,40.27,72.91,43.27,74.85,43.27L74.85,43.27z"/>
	</g>
</g>
<g>
	<g>
		<path class="st7" d="M75.51,44.44c1.93,0,1.93-3,0-3C73.58,41.44,73.58,44.44,75.51,44.44L75.51,44.44z"/>
	</g>
</g>
<g>
	<g>
		<path class="st7" d="M76.35,45.44c1.93,0,1.93-3,0-3C74.42,42.44,74.41,45.44,76.35,45.44L76.35,45.44z"/>
	</g>
</g>
<g>
	<g>
		<path class="st7" d="M77.18,47.44c1.93,0,1.93-3,0-3C75.25,44.44,75.25,47.44,77.18,47.44L77.18,47.44z"/>
	</g>
</g>
<g>
	<g>
		<path class="st7" d="M75.68,46.27c0,0.17,0,0.33,0,0.5c-0.01,0.21,0.04,0.4,0.13,0.58c0.06,0.19,0.16,0.35,0.31,0.48
			c0.14,0.15,0.3,0.25,0.48,0.31c0.18,0.09,0.37,0.14,0.58,0.13c0.13-0.02,0.27-0.04,0.4-0.05c0.25-0.07,0.47-0.2,0.66-0.39
			c0.08-0.1,0.16-0.2,0.23-0.3c0.14-0.23,0.2-0.49,0.2-0.76c0-0.17,0-0.33,0-0.5c0.01-0.21-0.04-0.4-0.13-0.58
			c-0.06-0.19-0.16-0.35-0.31-0.48c-0.14-0.15-0.3-0.25-0.48-0.31c-0.18-0.09-0.37-0.14-0.58-0.13c-0.13,0.02-0.27,0.04-0.4,0.05
			c-0.25,0.07-0.47,0.2-0.66,0.39c-0.08,0.1-0.16,0.2-0.23,0.3C75.75,45.75,75.68,46,75.68,46.27L75.68,46.27z"/>
	</g>
</g>
<g>
	<g>
		<path class="st7" d="M77.18,49.94c1.93,0,1.93-3,0-3C75.25,46.94,75.25,49.94,77.18,49.94L77.18,49.94z"/>
	</g>
</g>
<g>
	<g>
		<path class="st7" d="M27.85,43.1c1.93,0,1.93-3,0-3C25.92,40.1,25.91,43.1,27.85,43.1L27.85,43.1z"/>
	</g>
</g>
<g>
	<g>
		<path class="st7" d="M29.01,43.44c1.93,0,1.93-3,0-3C27.08,40.44,27.08,43.44,29.01,43.44L29.01,43.44z"/>
	</g>
</g>
<g>
	<g>
		<path class="st7" d="M29.01,44.77c1.93,0,1.93-3,0-3C27.08,41.77,27.08,44.77,29.01,44.77L29.01,44.77z"/>
	</g>
</g>
<g>
	<g>
		<path class="st7" d="M28.35,46.27c1.93,0,1.93-3,0-3C26.42,43.27,26.41,46.27,28.35,46.27L28.35,46.27z"/>
	</g>
</g>
<g>
	<g>
		<path class="st7" d="M26.51,45.44c1.93,0,1.93-3,0-3C24.58,42.44,24.58,45.44,26.51,45.44L26.51,45.44z"/>
	</g>
</g>
<g>
	<g>
		<path class="st7" d="M26.18,48.44c1.93,0,1.93-3,0-3C24.25,45.44,24.25,48.44,26.18,48.44L26.18,48.44z"/>
	</g>
</g>
<g>
	<g>
		<path class="st7" d="M25.92,47.57c0.11,0.06,0.22,0.11,0.33,0.17c0.17,0.11,0.36,0.17,0.56,0.18c0.2,0.04,0.4,0.04,0.6-0.03
			c0.2-0.05,0.37-0.14,0.51-0.27c0.16-0.11,0.29-0.25,0.39-0.42c0.05-0.12,0.1-0.24,0.15-0.36c0.07-0.27,0.07-0.53,0-0.8
			c-0.05-0.12-0.1-0.24-0.15-0.36c-0.13-0.23-0.31-0.4-0.54-0.54c-0.11-0.06-0.22-0.11-0.33-0.17c-0.17-0.11-0.36-0.17-0.56-0.18
			c-0.2-0.04-0.4-0.04-0.6,0.03c-0.2,0.05-0.37,0.14-0.51,0.27c-0.16,0.11-0.29,0.25-0.39,0.42c-0.05,0.12-0.1,0.24-0.15,0.36
			c-0.07,0.27-0.07,0.53,0,0.8c0.05,0.12,0.1,0.24,0.15,0.36C25.52,47.25,25.7,47.43,25.92,47.57L25.92,47.57z"/>
	</g>
</g>
<g>
	<g>
		<path class="st7" d="M27.68,49.27c1.93,0,1.93-3,0-3C25.75,46.27,25.75,49.27,27.68,49.27L27.68,49.27z"/>
	</g>
</g>
<g>
	<g>
		<path class="st7" d="M27.51,50.27c1.93,0,1.93-3,0-3C25.58,47.27,25.58,50.27,27.51,50.27L27.51,50.27z"/>
	</g>
</g>
<g>
	<g>
		<path class="st7" d="M26.7,51.2c0.06,0.11,0.11,0.22,0.17,0.33c0.09,0.17,0.22,0.32,0.39,0.42c0.14,0.13,0.31,0.22,0.51,0.27
			c0.2,0.06,0.4,0.07,0.6,0.03c0.2-0.01,0.39-0.07,0.56-0.18c0.1-0.08,0.2-0.16,0.3-0.23c0.19-0.19,0.31-0.41,0.39-0.66
			c0.02-0.13,0.04-0.27,0.05-0.4c0-0.27-0.07-0.52-0.2-0.76c-0.06-0.11-0.11-0.22-0.17-0.33c-0.09-0.17-0.22-0.32-0.39-0.42
			c-0.14-0.13-0.31-0.22-0.51-0.27c-0.2-0.06-0.4-0.07-0.6-0.03c-0.2,0.01-0.39,0.07-0.56,0.18c-0.1,0.08-0.2,0.16-0.3,0.23
			c-0.19,0.19-0.31,0.41-0.39,0.66c-0.02,0.13-0.04,0.27-0.05,0.4C26.5,50.72,26.56,50.97,26.7,51.2L26.7,51.2z"/>
	</g>
</g>
<g>
	<g>
		<path class="st7" d="M28.51,53.1c1.93,0,1.93-3,0-3C26.58,50.1,26.58,53.1,28.51,53.1L28.51,53.1z"/>
	</g>
</g>
<g>
	<g>
		<path class="st7" d="M28.68,51.27c1.93,0,1.93-3,0-3C26.75,48.27,26.75,51.27,28.68,51.27L28.68,51.27z"/>
	</g>
</g>
<g>
	<g>
		<path class="st7" d="M28.51,49.27c1.93,0,1.93-3,0-3C26.58,46.27,26.58,49.27,28.51,49.27L28.51,49.27z"/>
	</g>
</g>
<g>
	<g>
		<path class="st7" d="M29.18,46.27c1.93,0,1.93-3,0-3C27.25,43.27,27.25,46.27,29.18,46.27L29.18,46.27z"/>
	</g>
</g>
<g>
	<g>
		<path class="st7" d="M29.85,43.77c1.93,0,1.93-3,0-3C27.92,40.77,27.91,43.77,29.85,43.77L29.85,43.77z"/>
	</g>
</g>
<g>
	<g>
		<path class="st7" d="M31.18,42.44c0.28,0,0.56,0,0.83,0c0.21,0.01,0.4-0.04,0.58-0.13c0.19-0.06,0.35-0.16,0.48-0.31
			c0.15-0.14,0.25-0.3,0.31-0.48c0.09-0.18,0.14-0.37,0.13-0.58c-0.02-0.13-0.04-0.27-0.05-0.4c-0.07-0.25-0.2-0.47-0.39-0.66
			c-0.1-0.08-0.2-0.16-0.3-0.23c-0.23-0.14-0.49-0.2-0.76-0.2c-0.28,0-0.56,0-0.83,0c-0.21-0.01-0.4,0.04-0.58,0.13
			c-0.19,0.06-0.35,0.16-0.48,0.31c-0.15,0.14-0.25,0.3-0.31,0.48c-0.09,0.18-0.14,0.37-0.13,0.58c0.02,0.13,0.04,0.27,0.05,0.4
			c0.07,0.25,0.2,0.47,0.39,0.66c0.1,0.08,0.2,0.16,0.3,0.23C30.66,42.37,30.91,42.44,31.18,42.44L31.18,42.44z"/>
	</g>
</g>
<g>
	<g>
		<path class="st7" d="M33.6,42.05c0.11-0.06,0.22-0.11,0.33-0.17c0.17-0.09,0.32-0.22,0.42-0.39c0.13-0.14,0.22-0.31,0.27-0.51
			c0.06-0.2,0.07-0.4,0.03-0.6c-0.01-0.2-0.07-0.39-0.18-0.56c-0.08-0.1-0.16-0.2-0.23-0.3c-0.19-0.19-0.41-0.31-0.66-0.39
			c-0.13-0.02-0.27-0.04-0.4-0.05c-0.27,0-0.52,0.07-0.76,0.2c-0.11,0.06-0.22,0.11-0.33,0.17c-0.17,0.09-0.32,0.22-0.42,0.39
			c-0.13,0.14-0.22,0.31-0.27,0.51c-0.06,0.2-0.07,0.4-0.03,0.6c0.01,0.2,0.07,0.39,0.18,0.56c0.08,0.1,0.16,0.2,0.23,0.3
			c0.19,0.19,0.41,0.31,0.66,0.39c0.13,0.02,0.27,0.04,0.4,0.05C33.11,42.25,33.36,42.19,33.6,42.05L33.6,42.05z"/>
	</g>
</g>
<g>
	<g>
		<path class="st7" d="M33.45,41.66c0.06,0.06,0.11,0.11,0.17,0.17c0.14,0.15,0.3,0.25,0.48,0.31c0.18,0.09,0.37,0.14,0.58,0.13
			c0.21,0.01,0.4-0.04,0.58-0.13c0.19-0.06,0.35-0.16,0.48-0.31c0.08-0.1,0.16-0.2,0.23-0.3c0.14-0.23,0.2-0.49,0.2-0.76
			c-0.02-0.13-0.04-0.27-0.05-0.4c-0.07-0.25-0.2-0.47-0.39-0.66c-0.06-0.06-0.11-0.11-0.17-0.17c-0.14-0.15-0.3-0.25-0.48-0.31
			c-0.18-0.09-0.37-0.14-0.58-0.13c-0.21-0.01-0.4,0.04-0.58,0.13c-0.19,0.06-0.35,0.16-0.48,0.31c-0.08,0.1-0.16,0.2-0.23,0.3
			c-0.14,0.23-0.2,0.49-0.2,0.76c0.02,0.13,0.04,0.27,0.05,0.4C33.14,41.26,33.27,41.48,33.45,41.66L33.45,41.66z"/>
	</g>
</g>
<g>
	<g>
		<path class="st7" d="M36.01,42.44c1.93,0,1.93-3,0-3C34.08,39.44,34.08,42.44,36.01,42.44L36.01,42.44z"/>
	</g>
</g>
<g>
	<g>
		<path class="st7" d="M37.51,42.27c0.11,0,0.22,0,0.33,0c0.21,0.01,0.4-0.04,0.58-0.13c0.19-0.06,0.35-0.16,0.48-0.31
			c0.15-0.14,0.25-0.3,0.31-0.48c0.09-0.18,0.14-0.37,0.13-0.58c-0.02-0.13-0.04-0.27-0.05-0.4c-0.07-0.25-0.2-0.47-0.39-0.66
			c-0.1-0.08-0.2-0.16-0.3-0.23c-0.23-0.14-0.49-0.2-0.76-0.2c-0.11,0-0.22,0-0.33,0c-0.21-0.01-0.4,0.04-0.58,0.13
			c-0.19,0.06-0.35,0.16-0.48,0.31c-0.15,0.14-0.25,0.3-0.31,0.48c-0.09,0.18-0.14,0.37-0.13,0.58c0.02,0.13,0.04,0.27,0.05,0.4
			c0.07,0.25,0.2,0.47,0.39,0.66c0.1,0.08,0.2,0.16,0.3,0.23C36.99,42.2,37.24,42.27,37.51,42.27L37.51,42.27z"/>
	</g>
</g>
<g>
	<g>
		<path class="st7" d="M39.35,41.94c0.11,0,0.22,0,0.33,0c0.21,0.01,0.4-0.04,0.58-0.13c0.19-0.06,0.35-0.16,0.48-0.31
			c0.15-0.14,0.25-0.3,0.31-0.48c0.09-0.18,0.14-0.37,0.13-0.58c-0.02-0.13-0.04-0.27-0.05-0.4c-0.07-0.25-0.2-0.47-0.39-0.66
			c-0.1-0.08-0.2-0.16-0.3-0.23c-0.23-0.14-0.49-0.2-0.76-0.2c-0.11,0-0.22,0-0.33,0c-0.21-0.01-0.4,0.04-0.58,0.13
			c-0.19,0.06-0.35,0.16-0.48,0.31c-0.15,0.14-0.25,0.3-0.31,0.48c-0.09,0.18-0.14,0.37-0.13,0.58c0.02,0.13,0.04,0.27,0.05,0.4
			c0.07,0.25,0.2,0.47,0.39,0.66c0.1,0.08,0.2,0.16,0.3,0.23C38.82,41.87,39.08,41.94,39.35,41.94L39.35,41.94z"/>
	</g>
</g>
<g>
	<g>
		<path class="st7" d="M40.35,42.1c1.93,0,1.93-3,0-3C38.42,39.1,38.41,42.1,40.35,42.1L40.35,42.1z"/>
	</g>
</g>
<g>
	<g>
		<path class="st7" d="M41.61,42.39c0.17,0.06,0.33,0.11,0.5,0.17c0.2,0.06,0.4,0.07,0.6,0.03c0.2-0.01,0.39-0.07,0.56-0.18
			c0.17-0.09,0.32-0.22,0.42-0.39c0.13-0.14,0.22-0.31,0.27-0.51c0.02-0.13,0.04-0.27,0.05-0.4c0-0.27-0.07-0.52-0.2-0.76
			c-0.08-0.1-0.16-0.2-0.23-0.3c-0.19-0.19-0.41-0.31-0.66-0.39c-0.17-0.06-0.33-0.11-0.5-0.17c-0.2-0.06-0.4-0.07-0.6-0.03
			c-0.2,0.01-0.39,0.07-0.56,0.18c-0.17,0.09-0.32,0.22-0.42,0.39c-0.13,0.14-0.22,0.31-0.27,0.51c-0.02,0.13-0.04,0.27-0.05,0.4
			c0,0.27,0.07,0.52,0.2,0.76c0.08,0.1,0.16,0.2,0.23,0.3C41.14,42.19,41.36,42.32,41.61,42.39L41.61,42.39z"/>
	</g>
</g>
<g>
	<g>
		<path class="st7" d="M44.51,42.44c1.93,0,1.93-3,0-3C42.58,39.44,42.58,42.44,44.51,42.44L44.51,42.44z"/>
	</g>
</g>
<g>
	<g>
		<path class="st7" d="M46.01,42.27c1.93,0,1.93-3,0-3C44.08,39.27,44.08,42.27,46.01,42.27L46.01,42.27z"/>
	</g>
</g>
<g>
	<g>
		<path class="st7" d="M48.01,42.1c1.93,0,1.93-3,0-3C46.08,39.1,46.08,42.1,48.01,42.1L48.01,42.1z"/>
	</g>
</g>
<g>
	<g>
		<path class="st7" d="M49.85,42.1c1.93,0,1.93-3,0-3C47.92,39.1,47.91,42.1,49.85,42.1L49.85,42.1z"/>
	</g>
</g>
<g>
	<g>
		<path class="st7" d="M52.01,42.27c1.93,0,1.93-3,0-3C50.08,39.27,50.08,42.27,52.01,42.27L52.01,42.27z"/>
	</g>
</g>
<g>
	<g>
		<path class="st7" d="M53.51,42.1c1.93,0,1.93-3,0-3C51.58,39.1,51.58,42.1,53.51,42.1L53.51,42.1z"/>
	</g>
</g>
<g>
	<g>
		<path class="st7" d="M55.68,41.94c1.93,0,1.93-3,0-3C53.75,38.94,53.75,41.94,55.68,41.94L55.68,41.94z"/>
	</g>
</g>
<g>
	<g>
		<path class="st7" d="M57.18,42.6c1.93,0,1.93-3,0-3C55.25,39.6,55.25,42.6,57.18,42.6L57.18,42.6z"/>
	</g>
</g>
<g>
	<g>
		<path class="st7" d="M59.01,42.6c1.93,0,1.93-3,0-3C57.08,39.6,57.08,42.6,59.01,42.6L59.01,42.6z"/>
	</g>
</g>
<g>
	<g>
		<path class="st7" d="M60.18,42.1c0.11,0,0.22,0,0.33,0c0.21,0.01,0.4-0.04,0.58-0.13c0.19-0.06,0.35-0.16,0.48-0.31
			c0.15-0.14,0.25-0.3,0.31-0.48c0.09-0.18,0.14-0.37,0.13-0.58c-0.02-0.13-0.04-0.27-0.05-0.4c-0.07-0.25-0.2-0.47-0.39-0.66
			c-0.1-0.08-0.2-0.16-0.3-0.23c-0.23-0.14-0.49-0.2-0.76-0.2c-0.11,0-0.22,0-0.33,0c-0.21-0.01-0.4,0.04-0.58,0.13
			c-0.19,0.06-0.35,0.16-0.48,0.31c-0.15,0.14-0.25,0.3-0.31,0.48c-0.09,0.18-0.14,0.37-0.13,0.58c0.02,0.13,0.04,0.27,0.05,0.4
			c0.07,0.25,0.2,0.47,0.39,0.66c0.1,0.08,0.2,0.16,0.3,0.23C59.66,42.03,59.91,42.1,60.18,42.1L60.18,42.1z"/>
	</g>
</g>
<g>
	<g>
		<path class="st7" d="M62.51,42.27c1.93,0,1.93-3,0-3C60.58,39.27,60.58,42.27,62.51,42.27L62.51,42.27z"/>
	</g>
</g>
<g>
	<g>
		<path class="st7" d="M64.85,42.27c1.93,0,1.93-3,0-3C62.92,39.27,62.91,42.27,64.85,42.27L64.85,42.27z"/>
	</g>
</g>
<g>
	<g>
		<path class="st7" d="M66.35,41.94c1.93,0,1.93-3,0-3C64.42,38.94,64.41,41.94,66.35,41.94L66.35,41.94z"/>
	</g>
</g>
<g>
	<g>
		<path class="st7" d="M68.35,42.44c1.93,0,1.93-3,0-3C66.42,39.44,66.41,42.44,68.35,42.44L68.35,42.44z"/>
	</g>
</g>
<g>
	<g>
		<path class="st7" d="M69.42,42.07c0.11,0.06,0.22,0.11,0.33,0.17c0.17,0.11,0.36,0.17,0.56,0.18c0.2,0.04,0.4,0.04,0.6-0.03
			c0.2-0.05,0.37-0.14,0.51-0.27c0.16-0.11,0.29-0.25,0.39-0.42c0.05-0.12,0.1-0.24,0.15-0.36c0.07-0.27,0.07-0.53,0-0.8
			c-0.05-0.12-0.1-0.24-0.15-0.36c-0.13-0.23-0.31-0.4-0.54-0.54c-0.11-0.06-0.22-0.11-0.33-0.17c-0.17-0.11-0.36-0.17-0.56-0.18
			c-0.2-0.04-0.4-0.04-0.6,0.03c-0.2,0.05-0.37,0.14-0.51,0.27c-0.16,0.11-0.29,0.25-0.39,0.42c-0.05,0.12-0.1,0.24-0.15,0.36
			c-0.07,0.27-0.07,0.53,0,0.8c0.05,0.12,0.1,0.24,0.15,0.36C69.02,41.75,69.2,41.93,69.42,42.07L69.42,42.07z"/>
	</g>
</g>
<g>
	<g>
		<path class="st7" d="M72.09,41.9c0.11,0.06,0.22,0.11,0.33,0.17c0.17,0.11,0.36,0.17,0.56,0.18c0.2,0.04,0.4,0.04,0.6-0.03
			c0.2-0.05,0.37-0.14,0.51-0.27c0.16-0.11,0.29-0.25,0.39-0.42c0.05-0.12,0.1-0.24,0.15-0.36c0.07-0.27,0.07-0.53,0-0.8
			c-0.05-0.12-0.1-0.24-0.15-0.36c-0.13-0.23-0.31-0.4-0.54-0.54c-0.11-0.06-0.22-0.11-0.33-0.17c-0.17-0.11-0.36-0.17-0.56-0.18
			c-0.2-0.04-0.4-0.04-0.6,0.03c-0.2,0.05-0.37,0.14-0.51,0.27c-0.16,0.11-0.29,0.25-0.39,0.42c-0.05,0.12-0.1,0.24-0.15,0.36
			c-0.07,0.27-0.07,0.53,0,0.8c0.05,0.12,0.1,0.24,0.15,0.36C71.68,41.59,71.86,41.77,72.09,41.9L72.09,41.9z"/>
	</g>
</g>
<g>
	<g>
		<path class="st7" d="M26.51,53.94c1.93,0,1.93-3,0-3C24.58,50.94,24.58,53.94,26.51,53.94L26.51,53.94z"/>
	</g>
</g>
<g>
	<g>
		<path class="st7" d="M24.18,54.1c1.93,0,1.93-3,0-3C22.25,51.1,22.25,54.1,24.18,54.1L24.18,54.1z"/>
	</g>
</g>
<g>
	<g>
		<path class="st7" d="M25.01,52.44c1.93,0,1.93-3,0-3C23.08,49.44,23.08,52.44,25.01,52.44L25.01,52.44z"/>
	</g>
</g>
<g>
	<g>
		<path class="st7" d="M25.51,49.77c1.93,0,1.93-3,0-3C23.58,46.77,23.58,49.77,25.51,49.77L25.51,49.77z"/>
	</g>
</g>
<g>
	<g>
		<path class="st7" d="M26.85,51.6c1.93,0,1.93-3,0-3C24.92,48.6,24.91,51.6,26.85,51.6L26.85,51.6z"/>
	</g>
</g>
<g>
	<g>
		<path class="st7" d="M25.35,41.6c1.93,0,1.93-3,0-3C23.42,38.6,23.41,41.6,25.35,41.6L25.35,41.6z"/>
	</g>
</g>
<g>
	<g>
		<path class="st7" d="M25.85,43.44c1.93,0,1.93-3,0-3C23.92,40.44,23.91,43.44,25.85,43.44L25.85,43.44z"/>
	</g>
</g>
<g>
	<g>
		<path class="st7" d="M25.51,45.44c1.93,0,1.93-3,0-3C23.58,42.44,23.58,45.44,25.51,45.44L25.51,45.44z"/>
	</g>
</g>
<g>
	<g>
		<path class="st7" d="M24.85,44.1c1.93,0,1.93-3,0-3C22.92,41.1,22.91,44.1,24.85,44.1L24.85,44.1z"/>
	</g>
</g>
<g>
	<g>
		<path class="st7" d="M24.51,47.77c1.93,0,1.93-3,0-3C22.58,44.77,22.58,47.77,24.51,47.77L24.51,47.77z"/>
	</g>
</g>
<g>
	<g>
		<path class="st7" d="M23.18,45.94c1.93,0,1.93-3,0-3C21.25,42.94,21.25,45.94,23.18,45.94L23.18,45.94z"/>
	</g>
</g>
<g>
	<g>
		<path class="st7" d="M24.35,49.77c1.93,0,1.93-3,0-3C22.42,46.77,22.41,49.77,24.35,49.77L24.35,49.77z"/>
	</g>
</g>
<g>
	<g>
		<path class="st7" d="M23.51,52.27c1.93,0,1.93-3,0-3C21.58,49.27,21.58,52.27,23.51,52.27L23.51,52.27z"/>
	</g>
</g>
<g>
	<g>
		<path class="st7" d="M80.01,41.77c1.93,0,1.93-3,0-3C78.08,38.77,78.08,41.77,80.01,41.77L80.01,41.77z"/>
	</g>
</g>
<g>
	<g>
		<path class="st7" d="M79.01,40.94c0,0.22,0,0.44,0,0.67c-0.01,0.21,0.04,0.4,0.13,0.58c0.06,0.19,0.16,0.35,0.31,0.48
			c0.14,0.15,0.3,0.25,0.48,0.31c0.18,0.09,0.37,0.14,0.58,0.13c0.13-0.02,0.27-0.04,0.4-0.05c0.25-0.07,0.47-0.2,0.66-0.39
			c0.08-0.1,0.16-0.2,0.23-0.3c0.14-0.23,0.2-0.49,0.2-0.76c0-0.22,0-0.44,0-0.67c0.01-0.21-0.04-0.4-0.13-0.58
			c-0.06-0.19-0.16-0.35-0.31-0.48c-0.14-0.15-0.3-0.25-0.48-0.31c-0.18-0.09-0.37-0.14-0.58-0.13c-0.13,0.02-0.27,0.04-0.4,0.05
			c-0.25,0.07-0.47,0.2-0.66,0.39c-0.08,0.1-0.16,0.2-0.23,0.3C79.08,40.41,79.01,40.67,79.01,40.94L79.01,40.94z"/>
	</g>
</g>
<g>
	<g>
		<path class="st7" d="M79.01,43.1c0,0.06,0,0.11,0,0.17c-0.01,0.21,0.04,0.4,0.13,0.58c0.06,0.19,0.16,0.35,0.31,0.48
			c0.14,0.15,0.3,0.25,0.48,0.31c0.18,0.09,0.37,0.14,0.58,0.13c0.13-0.02,0.27-0.04,0.4-0.05c0.25-0.07,0.47-0.2,0.66-0.39
			c0.08-0.1,0.16-0.2,0.23-0.3c0.14-0.23,0.2-0.49,0.2-0.76c0-0.06,0-0.11,0-0.17c0.01-0.21-0.04-0.4-0.13-0.58
			c-0.06-0.19-0.16-0.35-0.31-0.48c-0.14-0.15-0.3-0.25-0.48-0.31c-0.18-0.09-0.37-0.14-0.58-0.13c-0.13,0.02-0.27,0.04-0.4,0.05
			c-0.25,0.07-0.47,0.2-0.66,0.39c-0.08,0.1-0.16,0.2-0.23,0.3C79.08,42.58,79.01,42.83,79.01,43.1L79.01,43.1z"/>
	</g>
</g>
<g>
	<g>
		<path class="st7" d="M79.23,44.34c0.06,0.22,0.11,0.44,0.17,0.67c0.05,0.2,0.14,0.37,0.27,0.51c0.11,0.16,0.25,0.29,0.42,0.39
			c0.17,0.11,0.36,0.17,0.56,0.18c0.2,0.04,0.4,0.04,0.6-0.03c0.12-0.05,0.24-0.1,0.36-0.15c0.23-0.13,0.4-0.31,0.54-0.54
			c0.05-0.12,0.1-0.24,0.15-0.36c0.07-0.27,0.07-0.53,0-0.8c-0.06-0.22-0.11-0.44-0.17-0.67c-0.05-0.2-0.14-0.37-0.27-0.51
			c-0.11-0.16-0.25-0.29-0.42-0.39c-0.17-0.11-0.36-0.17-0.56-0.18c-0.2-0.04-0.4-0.04-0.6,0.03c-0.12,0.05-0.24,0.1-0.36,0.15
			c-0.23,0.13-0.4,0.31-0.54,0.54c-0.05,0.12-0.1,0.24-0.15,0.36C79.16,43.8,79.16,44.07,79.23,44.34L79.23,44.34z"/>
	</g>
</g>
<g>
	<g>
		<path class="st7" d="M79.26,45.66c0.06,0.22,0.11,0.44,0.17,0.67c0.05,0.2,0.14,0.37,0.27,0.51c0.11,0.16,0.25,0.29,0.42,0.39
			c0.17,0.11,0.36,0.17,0.56,0.18c0.2,0.04,0.4,0.04,0.6-0.03c0.12-0.05,0.24-0.1,0.36-0.15c0.23-0.13,0.4-0.31,0.54-0.54
			c0.05-0.12,0.1-0.24,0.15-0.36c0.07-0.27,0.07-0.53,0-0.8c-0.06-0.22-0.11-0.44-0.17-0.67c-0.05-0.2-0.14-0.37-0.27-0.51
			c-0.11-0.16-0.25-0.29-0.42-0.39c-0.17-0.11-0.36-0.17-0.56-0.18c-0.2-0.04-0.4-0.04-0.6,0.03c-0.12,0.05-0.24,0.1-0.36,0.15
			c-0.23,0.13-0.4,0.31-0.54,0.54c-0.05,0.12-0.1,0.24-0.15,0.36C79.18,45.13,79.18,45.4,79.26,45.66L79.26,45.66z"/>
	</g>
</g>
<g>
	<g>
		<path class="st7" d="M79.18,47.1c0,0.11,0,0.22,0,0.33c-0.01,0.21,0.04,0.4,0.13,0.58c0.06,0.19,0.16,0.35,0.31,0.48
			c0.14,0.15,0.3,0.25,0.48,0.31c0.18,0.09,0.37,0.14,0.58,0.13c0.13-0.02,0.27-0.04,0.4-0.05c0.25-0.07,0.47-0.2,0.66-0.39
			c0.08-0.1,0.16-0.2,0.23-0.3c0.14-0.23,0.2-0.49,0.2-0.76c0-0.11,0-0.22,0-0.33c0.01-0.21-0.04-0.4-0.13-0.58
			c-0.06-0.19-0.16-0.35-0.31-0.48c-0.14-0.15-0.3-0.25-0.48-0.31c-0.18-0.09-0.37-0.14-0.58-0.13c-0.13,0.02-0.27,0.04-0.4,0.05
			c-0.25,0.07-0.47,0.2-0.66,0.39c-0.08,0.1-0.16,0.2-0.23,0.3C79.25,46.58,79.18,46.83,79.18,47.1L79.18,47.1z"/>
	</g>
</g>
<g>
	<g>
		<path class="st7" d="M79.18,48.77c0,0.11,0,0.22,0,0.33c-0.01,0.21,0.04,0.4,0.13,0.58c0.06,0.19,0.16,0.35,0.31,0.48
			c0.14,0.15,0.3,0.25,0.48,0.31c0.18,0.09,0.37,0.14,0.58,0.13c0.13-0.02,0.27-0.04,0.4-0.05c0.25-0.07,0.47-0.2,0.66-0.39
			c0.08-0.1,0.16-0.2,0.23-0.3c0.14-0.23,0.2-0.49,0.2-0.76c0-0.11,0-0.22,0-0.33c0.01-0.21-0.04-0.4-0.13-0.58
			c-0.06-0.19-0.16-0.35-0.31-0.48c-0.14-0.15-0.3-0.25-0.48-0.31c-0.18-0.09-0.37-0.14-0.58-0.13c-0.13,0.02-0.27,0.04-0.4,0.05
			c-0.25,0.07-0.47,0.2-0.66,0.39c-0.08,0.1-0.16,0.2-0.23,0.3C79.25,48.25,79.18,48.5,79.18,48.77L79.18,48.77z"/>
	</g>
</g>
<g>
	<g>
		<path class="st7" d="M79.35,49.77c0,0.06,0,0.11,0,0.17c-0.01,0.21,0.04,0.4,0.13,0.58c0.06,0.19,0.16,0.35,0.31,0.48
			c0.14,0.15,0.3,0.25,0.48,0.31c0.18,0.09,0.37,0.14,0.58,0.13c0.13-0.02,0.27-0.04,0.4-0.05c0.25-0.07,0.47-0.2,0.66-0.39
			c0.08-0.1,0.16-0.2,0.23-0.3c0.14-0.23,0.2-0.49,0.2-0.76c0-0.06,0-0.11,0-0.17c0.01-0.21-0.04-0.4-0.13-0.58
			c-0.06-0.19-0.16-0.35-0.31-0.48c-0.14-0.15-0.3-0.25-0.48-0.31c-0.18-0.09-0.37-0.14-0.58-0.13c-0.13,0.02-0.27,0.04-0.4,0.05
			c-0.25,0.07-0.47,0.2-0.66,0.39c-0.08,0.1-0.16,0.2-0.23,0.3C79.42,49.25,79.35,49.5,79.35,49.77L79.35,49.77z"/>
	</g>
</g>
<g>
	<g>
		<path class="st7" d="M80.68,53.6c1.93,0,1.93-3,0-3C78.75,50.6,78.75,53.6,80.68,53.6L80.68,53.6z"/>
	</g>
</g>
<path class="st8" d="M77.54,40.85H28.23c-1.47,0-2.67-1.2-2.67-2.67v-6.76c0-1.47,1.2-2.67,2.67-2.67h49.32
	c1.47,0,2.67,1.2,2.67,2.67v6.76C80.21,39.65,79.01,40.85,77.54,40.85z"/>
<path class="st9" d="M76.18,171.57H32.87c-3.49,0-6.35-2.86-6.35-6.35v-55.66c0-3.49,2.86-6.35,6.35-6.35h43.31
	c3.49,0,6.35,2.86,6.35,6.35v55.66C82.53,168.72,79.67,171.57,76.18,171.57z"/>
<g>
	<path class="st10" d="M99.68,267.84H57.52v-23.33h24.17c9.9,0,18,8.1,18,18V267.84z"/>
	<rect x="57.52" y="263.94" class="st11" width="42.17" height="3.9"/>
	<rect x="57.52" y="265.89" class="st12" width="42.17" height="0.98"/>
	<g>
		<g>
			<path class="st13" d="M82.14,246.47c0.17,0.62,0.14,1.17-0.05,1.82c-0.18,0.59-0.55,1.25-0.95,1.72c-1,1.15-2.29,1.9-3.61,2.66
				c-0.47,0.27-0.63,0.91-0.36,1.37c0.28,0.47,0.9,0.63,1.37,0.36c1.57-0.89,3.16-1.86,4.28-3.3c1.13-1.45,1.74-3.33,1.24-5.16
				c-0.14-0.52-0.71-0.84-1.23-0.7C82.32,245.39,82,245.95,82.14,246.47L82.14,246.47z"/>
		</g>
	</g>
	<g>
		<g>
			<path class="st13" d="M88.36,248.11c0.17,0.62,0.14,1.17-0.05,1.82c-0.18,0.59-0.55,1.25-0.95,1.72c-1,1.15-2.29,1.9-3.61,2.66
				c-0.47,0.27-0.63,0.91-0.36,1.37c0.28,0.47,0.9,0.63,1.37,0.36c1.57-0.89,3.16-1.86,4.28-3.3c1.13-1.45,1.74-3.33,1.24-5.16
				c-0.14-0.52-0.71-0.84-1.23-0.7C88.53,247.03,88.22,247.59,88.36,248.11L88.36,248.11z"/>
		</g>
	</g>
	<g>
		<g>
			<path class="st13" d="M92.57,251.3c0.17,0.62,0.14,1.17-0.05,1.82c-0.18,0.59-0.55,1.25-0.95,1.72c-1,1.15-2.29,1.9-3.61,2.66
				c-0.47,0.27-0.63,0.91-0.36,1.37c0.28,0.47,0.9,0.63,1.37,0.36c1.57-0.89,3.16-1.86,4.28-3.3c1.13-1.45,1.74-3.33,1.24-5.16
				c-0.14-0.52-0.71-0.84-1.23-0.7C92.75,250.22,92.43,250.78,92.57,251.3L92.57,251.3z"/>
		</g>
	</g>
</g>
<path class="st14" d="M73.28,239.23H57.52v-68.73c0-3.3,2.7-6,6-6h3.77c3.3,0,6,2.7,6,6V239.23z"/>
<rect x="57.52" y="226.02" class="st15" width="15.77" height="14.95"/>
<path class="st15" d="M71.95,230.75h-13.1c-1.66,0-3-1.34-3-3v-1.29c0-1.66,1.34-3,3-3h13.1c1.66,0,3,1.34,3,3v1.29
	C74.95,229.41,73.61,230.75,71.95,230.75z"/>
<g>
	<path class="st10" d="M7.62,267.84h42.17v-23.33H25.62c-9.9,0-18,8.1-18,18V267.84z"/>
	
		<rect x="7.62" y="263.94" transform="matrix(-1 -4.494994e-11 4.494994e-11 -1 57.3993 531.779)" class="st11" width="42.17" height="3.9"/>
	
		<rect x="7.62" y="265.89" transform="matrix(-1 -4.486379e-11 4.486379e-11 -1 57.3993 532.7541)" class="st12" width="42.17" height="0.98"/>
	<g>
		<g>
			<path class="st13" d="M23.23,245.94c-0.5,1.82,0.11,3.7,1.24,5.16c1.12,1.44,2.72,2.41,4.28,3.3c0.47,0.27,1.09,0.11,1.37-0.36
				c0.27-0.46,0.11-1.1-0.36-1.37c-1.32-0.75-2.61-1.5-3.61-2.66c-0.39-0.45-0.76-1.09-0.93-1.66c-0.1-0.34-0.16-0.6-0.17-0.88
				c-0.02-0.41,0-0.61,0.11-1c0.14-0.52-0.18-1.09-0.7-1.23C23.94,245.1,23.37,245.42,23.23,245.94L23.23,245.94z"/>
		</g>
	</g>
	<g>
		<g>
			<path class="st13" d="M17.01,247.58c-0.5,1.82,0.11,3.7,1.24,5.16c1.12,1.44,2.72,2.41,4.28,3.3c0.47,0.27,1.09,0.11,1.37-0.36
				c0.27-0.46,0.11-1.1-0.36-1.37c-1.32-0.75-2.61-1.5-3.61-2.66c-0.39-0.45-0.76-1.09-0.93-1.66c-0.1-0.34-0.16-0.6-0.17-0.88
				c-0.02-0.41,0-0.61,0.11-1c0.14-0.52-0.18-1.09-0.7-1.23C17.72,246.74,17.15,247.06,17.01,247.58L17.01,247.58z"/>
		</g>
	</g>
	<g>
		<g>
			<path class="st13" d="M12.8,250.77c-0.5,1.82,0.11,3.7,1.24,5.16c1.12,1.44,2.72,2.41,4.28,3.3c0.47,0.27,1.09,0.11,1.37-0.36
				c0.27-0.46,0.11-1.1-0.36-1.37c-1.32-0.75-2.61-1.5-3.61-2.66c-0.39-0.45-0.76-1.09-0.93-1.66c-0.1-0.34-0.16-0.6-0.17-0.88
				c-0.02-0.41,0-0.61,0.11-1c0.14-0.52-0.18-1.09-0.7-1.23C13.51,249.93,12.94,250.25,12.8,250.77L12.8,250.77z"/>
		</g>
	</g>
</g>
<path class="st14" d="M34.01,240.39h15.77v-69.88c0-3.3-2.7-6-6-6h-3.77c-3.3,0-6,2.7-6,6V240.39z"/>
<rect x="34.01" y="227.11" transform="matrix(-1 -3.299106e-11 3.299106e-11 -1 83.7971 468.23)" class="st15" width="15.77" height="14.02"/>
<path class="st15" d="M35.35,230.75h13.1c1.66,0,3-1.34,3-3v-1.29c0-1.66-1.34-3-3-3h-13.1c-1.66,0-3,1.34-3,3v1.29
	C32.35,229.41,33.69,230.75,35.35,230.75z"/>
<rect x="25.38" y="163.81" class="st13" width="56" height="7.77"/>
<circle class="st3" cx="88.14" cy="170.61" r="9.39"/>
<path class="st3" d="M88.49,174.87h-3.06c-3.49,0-6.35-2.86-6.35-6.35v-48.96c0-3.49,2.86-6.35,6.35-6.35h3.06
	c3.49,0,6.35,2.86,6.35,6.35v48.96C94.85,172.01,91.99,174.87,88.49,174.87z"/>
<circle class="st3" cx="21.23" cy="171.41" r="9.39"/>
<path class="st3" d="M23.18,174.87h-3.06c-3.49,0-6.35-2.86-6.35-6.35v-48.96c0-3.49,2.86-6.35,6.35-6.35h3.06
	c3.49,0,6.35,2.86,6.35,6.35v48.96C29.53,172.01,26.67,174.87,23.18,174.87z"/>
<path class="st16" d="M57.91,173.13h-7.44c-2.06,0-3.74-1.68-3.74-3.74v-3.96c0-2.06,1.68-3.74,3.74-3.74h7.44
	c2.06,0,3.74,1.68,3.74,3.74v3.96C61.65,171.45,59.97,173.13,57.91,173.13z"/>
<path class="st9" d="M88.49,107.83h-3.06c-3.49,0-6.35,2.86-6.35,6.35v10.11h15.77v-10.11C94.85,110.69,91.99,107.83,88.49,107.83z"
	/>
<path class="st9" d="M23.18,106.01h-3.06c-3.49,0-6.35,2.86-6.35,6.35v10.11h15.77v-10.11C29.53,108.87,26.67,106.01,23.18,106.01z"
	/>
<rect x="72.96" y="61.09" class="st3" width="5.57" height="6.06"/>
<polygon class="st3" points="54.52,120.89 43.65,102.88 65.4,102.88 "/>
<path class="st17" d="M40.07,163.81h-5.88v-59.3c0-1.1,0.9-2,2-2h1.88c1.1,0,2,0.9,2,2V163.81z"/>
<path class="st17" d="M74.28,163.81h-5.88v-59.3c0-1.1,0.9-2,2-2h1.88c1.1,0,2,0.9,2,2V163.81z"/>
<rect x="34.03" y="232.9" class="st10" width="15.75" height="14.95"/>
<rect x="57.52" y="232.9" class="st10" width="15.75" height="14.95"/>
<g>
	<g>
		<path class="st10" d="M50.53,115.58c1.93,0,1.93-3,0-3C48.6,112.58,48.6,115.58,50.53,115.58L50.53,115.58z"/>
	</g>
</g>
<g>
	<g>
		<path class="st10" d="M49.2,114.25c1.93,0,1.93-3,0-3C47.27,111.25,47.26,114.25,49.2,114.25L49.2,114.25z"/>
	</g>
</g>
<g>
	<g>
		<path class="st10" d="M47.7,112.08c1.93,0,1.93-3,0-3C45.77,109.08,45.76,112.08,47.7,112.08L47.7,112.08z"/>
	</g>
</g>
<g>
	<g>
		<path class="st10" d="M58.53,115.42c1.93,0,1.93-3,0-3C56.6,112.42,56.6,115.42,58.53,115.42L58.53,115.42z"/>
	</g>
</g>
<g>
	<g>
		<path class="st10" d="M59.03,113.75c1.93,0,1.93-3,0-3C57.1,110.75,57.1,113.75,59.03,113.75L59.03,113.75z"/>
	</g>
</g>
<g>
	<g>
		<path class="st10" d="M60.2,111.75c1.93,0,1.93-3,0-3C58.27,108.75,58.26,111.75,60.2,111.75L60.2,111.75z"/>
	</g>
</g>
<g>
	<g>
		<path class="st10" d="M57.2,113.58c1.93,0,1.93-3,0-3C55.27,110.58,55.26,113.58,57.2,113.58L57.2,113.58z"/>
	</g>
</g>
<g>
	<g>
		<path class="st10" d="M55.03,112.92c1.93,0,1.93-3,0-3C53.1,109.92,53.1,112.92,55.03,112.92L55.03,112.92z"/>
	</g>
</g>
<g>
	<g>
		<path class="st10" d="M53.03,111.42c1.93,0,1.93-3,0-3C51.1,108.42,51.1,111.42,53.03,111.42L53.03,111.42z"/>
	</g>
</g>
<g>
	<g>
		<path class="st10" d="M51.86,115.08c1.93,0,1.93-3,0-3C49.93,112.08,49.93,115.08,51.86,115.08L51.86,115.08z"/>
	</g>
</g>
<g>
	<g>
		<path class="st10" d="M54.36,116.08c1.93,0,1.93-3,0-3C52.43,113.08,52.43,116.08,54.36,116.08L54.36,116.08z"/>
	</g>
</g>
<g>
	<g>
		<path class="st10" d="M55.03,118.42c1.93,0,1.93-3,0-3C53.1,115.42,53.1,118.42,55.03,118.42L55.03,118.42z"/>
	</g>
</g>
<g>
	<g>
		<path class="st10" d="M56.7,119.08c1.93,0,1.93-3,0-3C54.77,116.08,54.76,119.08,56.7,119.08L56.7,119.08z"/>
	</g>
</g>
<g>
	<g>
		<path class="st10" d="M54.03,122.58c1.93,0,1.93-3,0-3C52.1,119.58,52.1,122.58,54.03,122.58L54.03,122.58z"/>
	</g>
</g>
<g>
	<g>
		<path class="st10" d="M52.03,118.42c1.93,0,1.93-3,0-3C50.1,115.42,50.1,118.42,52.03,118.42L52.03,118.42z"/>
	</g>
</g>
<g>
	<g>
		<path class="st10" d="M53.36,121.42c1.93,0,1.93-3,0-3C51.43,118.42,51.43,121.42,53.36,121.42L53.36,121.42z"/>
	</g>
</g>
<g>
	<g>
		<path class="st10" d="M47.86,108.75c0,0.06,0,0.11,0,0.17c-0.01,0.21,0.04,0.4,0.13,0.58c0.06,0.19,0.16,0.35,0.31,0.48
			c0.14,0.15,0.3,0.25,0.48,0.31c0.18,0.09,0.37,0.14,0.58,0.13c0.13-0.02,0.27-0.04,0.4-0.05c0.25-0.07,0.47-0.2,0.66-0.39
			c0.08-0.1,0.16-0.2,0.23-0.3c0.14-0.23,0.2-0.49,0.2-0.76c0-0.06,0-0.11,0-0.17c0.01-0.21-0.04-0.4-0.13-0.58
			c-0.06-0.19-0.16-0.35-0.31-0.48c-0.14-0.15-0.3-0.25-0.48-0.31c-0.18-0.09-0.37-0.14-0.58-0.13c-0.13,0.02-0.27,0.04-0.4,0.05
			c-0.25,0.07-0.47,0.2-0.66,0.39c-0.08,0.1-0.16,0.2-0.23,0.3C47.93,108.23,47.86,108.48,47.86,108.75L47.86,108.75z"/>
	</g>
</g>
<g>
	<g>
		<path class="st10" d="M47.7,108.42c1.93,0,1.93-3,0-3C45.77,105.42,45.76,108.42,47.7,108.42L47.7,108.42z"/>
	</g>
</g>
<g>
	<g>
		<path class="st10" d="M45.03,107.08c1.93,0,1.93-3,0-3C43.1,104.08,43.1,107.08,45.03,107.08L45.03,107.08z"/>
	</g>
</g>
<g>
	<g>
		<path class="st10" d="M61.36,110.42c1.93,0,1.93-3,0-3C59.43,107.42,59.43,110.42,61.36,110.42L61.36,110.42z"/>
	</g>
</g>
<g>
	<g>
		<path class="st10" d="M62.53,107.92c1.93,0,1.93-3,0-3C60.6,104.92,60.6,107.92,62.53,107.92L62.53,107.92z"/>
	</g>
</g>
<g>
	<g>
		<path class="st10" d="M58.86,108.42c1.93,0,1.93-3,0-3C56.93,105.42,56.93,108.42,58.86,108.42L58.86,108.42z"/>
	</g>
</g>
<g>
	<g>
		<path class="st10" d="M58.7,110.92c1.93,0,1.93-3,0-3C56.77,107.92,56.76,110.92,58.7,110.92L58.7,110.92z"/>
	</g>
</g>
<g>
	<g>
		<path class="st10" d="M53.53,109.58c1.93,0,1.93-3,0-3C51.6,106.58,51.6,109.58,53.53,109.58L53.53,109.58z"/>
	</g>
</g>
<g>
	<g>
		<path class="st10" d="M50.53,108.58c1.93,0,1.93-3,0-3C48.6,105.58,48.6,108.58,50.53,108.58L50.53,108.58z"/>
	</g>
</g>
<g>
	<g>
		<path class="st10" d="M50.53,108.58c1.93,0,1.93-3,0-3C48.6,105.58,48.6,108.58,50.53,108.58L50.53,108.58z"/>
	</g>
</g>
<g>
	<g>
		<path class="st10" d="M54.2,107.42c1.93,0,1.93-3,0-3C52.27,104.42,52.26,107.42,54.2,107.42L54.2,107.42z"/>
	</g>
</g>
<path class="st18" d="M225.57,254.99h-47.24v-50.98c0-1.1,0.9-2,2-2h43.24c1.1,0,2,0.9,2,2V254.99z"/>
<path class="st18" d="M175.03,243.56l3.3-1.94v13.37h-38.04c-1.36,0-4.01-0.59-2.95-1.43l1.06-0.91c0.04-0.04,0.09-0.07,0.15-0.08
	c1.07-0.34,2.31-0.09,3.7-0.85c0.17-0.09,0.37,0.1,0.54-0.19l6.95-0.89c0.66-0.42,0.95-0.26,1.16-0.35l5-2.84
	c1.04-0.88,2.33,0.46,2.53-0.13c0.08-0.23,0.23-0.43,0.47-0.48l4.25-0.85c0.09-0.03,0.17-0.04,0.26-0.04
	c1.34,0.03,4.53-1.12,4.62-1.13l6.22-0.99C174.53,243.79,174.79,243.7,175.03,243.56z"/>
<path class="st18" d="M228.2,243.56l-2.64-1.94v13.37h30.41c1.08,0,3.21-0.59,2.36-1.43l-0.85-0.91c-0.03-0.04-0.08-0.07-0.12-0.08
	c-0.86-0.34-1.84-0.09-2.96-0.85c-0.13-0.09-0.3,0.1-0.43-0.19l-5.56-0.89c-0.52-0.42-0.76-0.26-0.92-0.35l-4-2.84
	c-0.83-0.88-1.86,0.46-2.02-0.13c-0.06-0.23-0.18-0.43-0.37-0.48l-3.4-0.85c-0.07-0.03-0.14-0.04-0.21-0.04
	c-1.07,0.03-3.62-1.12-3.69-1.13l-4.97-0.99C228.61,243.79,228.39,243.7,228.2,243.56z"/>
<g>
	<g>
		<path class="st18" d="M223.46,247.39c0.47,0.11,0.93,0.25,1.38,0.44c-0.12-0.05-0.24-0.1-0.36-0.15c0.52,0.22,1.02,0.49,1.49,0.82
			c0.31,0.21,0.81,0.25,1.16,0.15c0.35-0.1,0.73-0.36,0.9-0.69c0.18-0.35,0.28-0.77,0.15-1.16c-0.13-0.39-0.35-0.66-0.69-0.9
			c-0.97-0.67-2.09-1.15-3.23-1.41c-0.39-0.09-0.8-0.05-1.16,0.15c-0.31,0.18-0.61,0.54-0.69,0.9c-0.09,0.38-0.07,0.82,0.15,1.16
			C222.77,247.02,223.08,247.31,223.46,247.39L223.46,247.39z"/>
	</g>
</g>
<g>
	<g>
		<path class="st18" d="M222.19,245.91c1.3,1.06,2.78,1.72,4.37,2.24c1.58,0.51,3.19,0.96,4.78,1.43c0.75,0.22,1.67-0.27,1.85-1.05
			c0.18-0.81-0.24-1.61-1.05-1.85c-1.5-0.45-3.01-0.87-4.51-1.34c-0.34-0.11-0.68-0.22-1.01-0.34c-0.13-0.05-0.27-0.1-0.4-0.15
			c-0.16-0.07-0.18-0.07-0.03-0.01c-0.09-0.04-0.17-0.08-0.26-0.11c-0.3-0.14-0.59-0.29-0.88-0.45c-0.16-0.09-0.32-0.19-0.48-0.3
			c-0.08-0.05-0.15-0.11-0.23-0.16c0.12,0.09,0.11,0.08-0.03-0.03c-0.61-0.49-1.53-0.64-2.12,0
			C221.69,244.34,221.54,245.38,222.19,245.91L222.19,245.91z"/>
	</g>
</g>
<g>
	<g>
		<path class="st19" d="M186.01,213.04c0.31,5.66,0.34,11.33,0.1,17c-0.08,1.93,2.92,1.93,3,0c0.24-5.66,0.2-11.33-0.1-17
			C188.91,211.12,185.91,211.1,186.01,213.04L186.01,213.04z"/>
	</g>
</g>
<g>
	<g>
		<path class="st19" d="M199.35,212.25c1.04,1.79,0.49,3.92,0.07,5.82c-0.49,2.26-0.88,4.53-1.13,6.84
			c-0.5,4.68-0.35,9.37,0.29,14.03c0.26,1.9,3.16,1.09,2.89-0.8c-0.67-4.86-0.68-9.85-0.01-14.71c0.56-4.04,2.7-8.84,0.47-12.7
			C200.97,209.06,198.38,210.57,199.35,212.25L199.35,212.25z"/>
	</g>
</g>
<g>
	<g>
		<path class="st19" d="M211.05,219.04c0.85,6.97,1.26,13.98,1.21,20.99c-0.01,1.93,2.99,1.93,3,0c0.04-7.02-0.36-14.03-1.21-20.99
			c-0.1-0.81-0.62-1.49-1.5-1.5C211.81,217.53,210.95,218.23,211.05,219.04L211.05,219.04z"/>
	</g>
</g>
<g>
	<g>
		<path class="st19" d="M216.51,210.54c0.36,4.02,1.06,8,2.13,11.9c0.51,1.86,3.4,1.07,2.89-0.8c-0.99-3.64-1.68-7.35-2.02-11.1
			c-0.07-0.81-0.64-1.5-1.5-1.5C217.26,209.04,216.44,209.73,216.51,210.54L216.51,210.54z"/>
	</g>
</g>
<g>
	<g>
		<path class="st19" d="M187.38,239.58c-2.55,5.64-8.07,9.82-14.28,10.42c-0.81,0.08-1.5,0.63-1.5,1.5c0,0.75,0.69,1.58,1.5,1.5
			c7.21-0.7,13.86-5.26,16.87-11.91c0.33-0.74,0.21-1.61-0.54-2.05C188.79,238.67,187.71,238.84,187.38,239.58L187.38,239.58z"/>
	</g>
</g>
<g>
	<g>
		<path class="st19" d="M193.08,243.53c0.17,1.67,0.33,3.33,0.5,5c0.04,0.41,0.14,0.76,0.44,1.06c0.26,0.26,0.69,0.46,1.06,0.44
			c0.75-0.03,1.58-0.66,1.5-1.5c-0.17-1.67-0.33-3.33-0.5-5c-0.04-0.41-0.14-0.76-0.44-1.06c-0.26-0.26-0.69-0.46-1.06-0.44
			C193.83,242.07,192.99,242.7,193.08,243.53L193.08,243.53z"/>
	</g>
</g>
<g>
	<g>
		<path class="st19" d="M206.05,234.54c0.44,4.6,0,9.19-1.33,13.62c-0.56,1.85,2.34,2.64,2.89,0.8c1.4-4.65,1.9-9.57,1.44-14.41
			c-0.08-0.81-0.63-1.5-1.5-1.5C206.8,233.04,205.97,233.73,206.05,234.54L206.05,234.54z"/>
	</g>
</g>
<g>
	<g>
		<path class="st19" d="M219.02,242.43c-0.94,1.41-0.77,3.33,0.14,4.72c1,1.53,2.64,2.31,4.3,2.9c3.72,1.32,7.56,2.47,11.54,1.89
			c0.8-0.12,1.24-1.13,1.05-1.85c-0.24-0.86-1.04-1.17-1.85-1.05c-2.98,0.43-5.99-0.57-8.77-1.5c-1.1-0.37-2.32-0.69-3.23-1.44
			c-0.69-0.58-1.06-1.45-0.59-2.17c0.45-0.67,0.13-1.66-0.54-2.05C220.34,241.46,219.47,241.75,219.02,242.43L219.02,242.43z"/>
	</g>
</g>
<g>
	<g>
		<path class="st19" d="M166.1,248.07c-3.01-0.36-6.08,0.25-8.78,1.61c-0.7,0.35-0.96,1.4-0.54,2.05c0.46,0.72,1.3,0.92,2.05,0.54
			c0.17-0.09,0.34-0.17,0.51-0.25c0.01-0.01,0.43-0.19,0.16-0.08c0.31-0.13,0.62-0.24,0.94-0.34c0.63-0.21,1.28-0.37,1.93-0.48
			c0.14-0.02,0.28-0.05,0.42-0.07c-0.32,0.05,0.25-0.02,0.31-0.03c0.33-0.03,0.66-0.05,1-0.06c0.67-0.01,1.33,0.02,1.99,0.1
			c0.78,0.09,1.53-0.76,1.5-1.5C167.56,248.68,166.94,248.17,166.1,248.07L166.1,248.07z"/>
	</g>
</g>
<g>
	<g>
		<path class="st20" d="M125.41,258.03c18.92-2.06,37.97-2.65,56.99-2.47c19.06,0.18,38.1,1.1,57.13,2.02
			c10.81,0.52,21.62,1.05,32.44,1.57c1.93,0.09,1.93-2.91,0-3c-19.13-0.93-38.27-1.93-57.41-2.71c-19.03-0.78-38.08-1.24-57.12-0.61
			c-10.7,0.35-21.39,1.05-32.03,2.21C123.51,255.24,123.49,258.24,125.41,258.03L125.41,258.03z"/>
	</g>
</g>
<g>
	<g>
		<path class="st20" d="M272.23,256.27c-19.4-0.06-38.8-0.12-58.2-0.18c-19.4-0.06-38.8-0.11-58.2-0.2
			c-11.08-0.05-22.16-0.11-33.25-0.18c0,1,0,2,0,3c12.34,0.07,24.68-0.14,37.01-0.66c12.16-0.51,24.28-1.5,36.42-2.36
			c5.94-0.42,12.22-0.51,17.63,2.33c0.25-0.93,0.5-1.86,0.76-2.8c-11.54-0.68-23.02-0.31-34.55,0.25
			c-11.44,0.55-22.88,1.11-34.32,1.66c-6.51,0.31-13.03,0.63-19.54,0.94c-1.92,0.09-1.93,3.09,0,3c11.54-0.56,23.09-1.12,34.63-1.67
			c11.37-0.55,22.75-1.31,34.13-1.56c6.55-0.14,13.1-0.01,19.65,0.37c1.48,0.09,2.05-2.12,0.76-2.8c-4.84-2.54-10.28-3.1-15.67-2.93
			c-5.95,0.19-11.88,0.89-17.82,1.31c-12.56,0.89-25.13,1.46-37.72,1.73c-7.12,0.15-14.24,0.21-21.36,0.16c-1.93-0.01-1.93,2.99,0,3
			c19.63,0.12,39.26,0.21,58.89,0.28c19.34,0.06,38.67,0.12,58.01,0.18c10.91,0.03,21.83,0.07,32.74,0.1
			C274.16,259.27,274.17,256.27,272.23,256.27L272.23,256.27z"/>
	</g>
</g>
<g>
	<g>
		<path class="st20" d="M271.55,260.67c0.85-0.72,1.71-1.44,2.56-2.15c0.53-0.44,0.52-1.26,0.23-1.82
			c-2.16-4.29-8.95-4.35-11.31-0.23c-0.7,1.22,0.45,2.41,1.69,2.2c1.52-0.26,2.41-1.81,2.25-3.27c-0.08-0.77-0.44-1.45-1.08-1.91
			c-0.74-0.53-1.56-0.32-2.38-0.05c-3.38,1.11-5.69,4.24-5.91,7.76c-0.08,1.24,1.74,2.06,2.56,1.06c1.63-1.99,2.21-6.1-0.98-7.03
			c-2.51-0.72-5.32,1.96-3.9,4.41c0.58,1,2,0.94,2.59,0c1.37-2.17,0.26-5.29-2.16-6.17c-1.51-0.55-2.67,0.15-3.1,1.68
			c-0.38,1.36,0.03,2.74,0.99,3.74c0.88,0.93,2.6,0.23,2.56-1.06c-0.06-1.99-1.63-3.81-3.71-3.77c-2.05,0.04-3.63,1.91-3.56,3.91
			c0.93-0.25,1.86-0.5,2.8-0.76c-1.59-2.86-5.42-3.37-7.87-1.36c0.61-0.08,1.21-0.16,1.82-0.23c-2.7-1.61-6.21-0.71-7.87,1.93
			c0.91,0.12,1.83,0.24,2.74,0.36c-0.76-4.27-5.21-6.29-9.09-6.8c-1.95-0.26-4.66-0.34-5.76,1.68c-0.95,1.74,0.2,4.52,2.41,4.29
			c1.14-0.12,2.17-1.65,1.06-2.56c-2.16-1.77-5.72,0.16-4.88,3.03c0.96-0.27,1.93-0.53,2.89-0.8c-1.2-3.94-5.54-5.27-9.26-4.58
			c-2.23,0.42-4.27,1.47-6.35,2.34c-2.15,0.89-4.37,1.62-6.62,2.2c-8.94,2.28-18.41,1.97-27.2-0.83c-1.84-0.59-2.63,2.31-0.8,2.89
			c8.19,2.61,16.94,3.12,25.38,1.57c4.19-0.77,8.15-2.12,12.05-3.81c1.93-0.83,4.13-1.82,6.29-1.56c1.54,0.19,3.14,1.01,3.61,2.57
			c0.56,1.84,3.44,1.06,2.89-0.8c0.02,0.06,0.02,0.07,0.01,0.06c0.03-0.03,0.07-0.05,0.11-0.06c0.16-0.04,0.08-0.08-0.26-0.11
			c0.35-0.85,0.71-1.71,1.06-2.56c0.24,0.31,0.32,0.37,0.25,0.19c-0.03-0.03-0.04-0.05-0.02-0.07c0.12,0,0.28-0.09,0.39-0.14
			c0.49-0.21,1.23-0.09,1.75-0.06c1.08,0.08,2.16,0.32,3.19,0.68c1.94,0.67,3.62,1.92,3.99,4.03c0.24,1.34,2.11,1.37,2.74,0.36
			c0.8-1.28,2.5-1.62,3.77-0.85c0.62,0.37,1.3,0.19,1.82-0.23c1-0.82,2.58-0.29,3.16,0.75c0.71,1.28,2.85,0.73,2.8-0.76
			c-0.04-1,1.24-1.21,1.27-0.14c0.85-0.35,1.71-0.71,2.56-1.06c-0.21-0.22-0.38-0.68-0.16-0.97c-0.35,0.15-0.71,0.29-1.06,0.44
			c0.87,0.07,1.16,1.26,0.77,1.88c0.86,0,1.73,0,2.59,0c0.19,0.32-0.14,0,0.19,0.07c0.18,0.04,0.18-0.1,0.34,0
			c0.53,0.34-0.11,1.64-0.36,1.94c0.85,0.35,1.71,0.71,2.56,1.06c0.16-2.62,2.21-4.66,4.73-5.11c-0.39-0.05-0.77-0.1-1.16-0.15
			c-0.06-0.1-0.12-0.2-0.18-0.29c0.01,0.05,0.01,0.1-0.01,0.14c-0.05-0.01,0.5-0.1-0.07-0.01c0.56,0.73,1.13,1.47,1.69,2.2
			c1.29-2.25,4.99-2.03,6.13,0.23c0.08-0.61,0.16-1.21,0.23-1.82c-0.85,0.72-1.71,1.44-2.56,2.15
			C267.95,259.79,270.08,261.9,271.55,260.67L271.55,260.67z"/>
	</g>
</g>
<g>
	<g>
		<path class="st20" d="M202.94,261.79c8.92,0.7,17.86,0.98,26.81,0.84c4.44-0.07,8.91-0.5,13.35-0.28c4.27,0.22,8.16,2.15,12.47,2
			c4.96-0.17,9.94-0.83,14.88-1.27c1.13-0.1,2.19-1.68,1.06-2.56c-3.83-3-9.26-2.54-13.86-2.78c-5.71-0.3-11.42-0.6-17.13-0.9
			c-1.93-0.1-1.92,2.9,0,3c5.21,0.27,10.42,0.55,15.64,0.82c2.49,0.13,4.98,0.24,7.47,0.39c1.96,0.12,4.16,0.32,5.76,1.58
			c0.35-0.85,0.71-1.71,1.06-2.56c-4.42,0.39-8.84,0.82-13.26,1.17c-2.15,0.17-4.19,0.15-6.28-0.41c-2.05-0.55-4.03-1.13-6.15-1.36
			c-4.39-0.48-8.88,0.01-13.28,0.11c-4.43,0.1-8.86,0.09-13.29-0.02c-5.09-0.13-10.17-0.39-15.24-0.79
			C201.02,258.64,201.03,261.64,202.94,261.79L202.94,261.79z"/>
	</g>
</g>
<g>
	<g>
		<path class="st20" d="M264.99,260.58c-4.41,0.13-8.73,0.14-13.04-0.92c-4.21-1.04-8.3-2.43-12.59-3.2
			c-8.42-1.51-17.01-1.48-25.43,0.02c-0.73,0.13-1.17,0.97-1.07,1.65c0.11,0.8,0.72,1.2,1.47,1.3c7.7,1,15.5,0.64,23.08-1
			c1.92-0.41,1.07-3.19-0.8-2.89c-5.49,0.86-10.88-1.33-16.32-1.7c-4.39-0.3-9.06,0.53-12.27,3.78c-0.86,0.87-0.28,2.66,1.06,2.56
			c3.21-0.25,6.34,0.12,9.41,1.1c1.84,0.59,2.63-2.3,0.8-2.89c-3.3-1.06-6.76-1.48-10.21-1.21c0.35,0.85,0.71,1.71,1.06,2.56
			c3-3.04,7.61-3.26,11.61-2.76c5.27,0.65,10.29,2.29,15.64,1.45c-0.27-0.96-0.53-1.93-0.8-2.89c-7.33,1.58-14.85,1.86-22.28,0.89
			c0.13,0.98,0.27,1.96,0.4,2.95c8.32-1.48,16.93-1.41,25.22,0.25c4.1,0.82,8.04,2.23,12.12,3.16c4.26,0.96,8.57,0.94,12.92,0.81
			C266.92,263.53,266.93,260.53,264.99,260.58L264.99,260.58z"/>
	</g>
</g>
<g>
	<g>
		<path class="st20" d="M201.91,264.11c14.37-1.17,28.74-2.34,43.11-3.51c0-1,0-2,0-3c-7.7,0.88-15.4,1.78-23.1,2.65
			c-7.5,0.85-15.04,1.61-22.59,1.57c-7.57-0.04-15.04-1.2-22.55-2c-7.67-0.82-15.38-1-23.09-0.82c-8.54,0.2-17.06,0.82-25.58,1.45
			c0,1,0,2,0,3c19.97-2.02,40.09-2.44,60.12-1.2c5.75,0.35,11.48,0.85,17.21,1.47c1.66,0.18,2.07-2.68,0.4-2.95
			c-15.18-2.42-30.48-3.95-45.84-4.56c-1.93-0.08-1.93,2.92,0,3c15.09,0.6,30.13,2.08,45.04,4.46c0.13-0.98,0.27-1.96,0.4-2.95
			c-19.95-2.16-40.07-2.72-60.11-1.62c-5.75,0.31-11.49,0.77-17.22,1.35c-1.89,0.19-1.94,3.14,0,3c15.2-1.11,30.5-2.23,45.73-0.91
			c7.52,0.65,14.98,1.97,22.54,2.22c7.72,0.26,15.43-0.4,23.09-1.24c8.52-0.93,17.03-1.94,25.55-2.92c1.88-0.22,1.95-3.16,0-3
			c-14.37,1.17-28.74,2.34-43.11,3.51C200,261.27,199.98,264.27,201.91,264.11L201.91,264.11z"/>
	</g>
</g>
<g>
	<g>
		<path class="st20" d="M119.02,257.52c0.74,1.82,2.03,3.34,3.77,4.28c1.75,0.95,3.73,1.26,5.68,0.88c1.25-0.25,1.48-2.17,0.36-2.74
			c-0.65-0.33-1.27-0.7-1.87-1.12c-0.15-0.1-0.29-0.21-0.44-0.32c-0.14-0.11,0.19,0.15-0.03-0.03c-0.06-0.05-0.13-0.1-0.19-0.15
			c-0.29-0.24-0.58-0.5-0.86-0.77c-0.26-0.25-0.51-0.51-0.76-0.78c-0.12-0.14-0.24-0.27-0.36-0.41c-0.05-0.06-0.1-0.12-0.15-0.19
			c-0.02-0.03-0.23-0.3-0.11-0.13c0.11,0.15-0.05-0.06-0.06-0.09c-0.06-0.08-0.12-0.16-0.18-0.25c-0.1-0.15-0.21-0.3-0.31-0.45
			c-0.21-0.32-0.41-0.65-0.59-0.99c-0.38-0.69-1.38-0.97-2.05-0.54c-0.7,0.45-0.94,1.32-0.54,2.05c1.58,2.87,4.04,5.26,6.97,6.75
			c0.12-0.91,0.24-1.83,0.36-2.74c-0.09,0.02-0.23,0.02-0.31,0.06c0.07-0.03,0.29-0.03,0.09-0.01c-0.19,0.02-0.38,0.03-0.58,0.03
			c-0.17,0-0.35,0-0.52-0.02c-0.05,0-0.22,0.01-0.26-0.02c0.21,0.03,0.25,0.04,0.14,0.02c-0.05-0.01-0.1-0.02-0.16-0.03
			c-0.34-0.06-0.68-0.15-1.02-0.26c-0.08-0.03-0.17-0.06-0.25-0.09c-0.22-0.09-0.08-0.08,0.02,0.01c-0.11-0.11-0.38-0.18-0.52-0.26
			c-0.31-0.17-0.6-0.36-0.89-0.57c-0.15-0.11,0.22,0.19,0.01,0.01c-0.08-0.07-0.16-0.14-0.24-0.21c-0.13-0.12-0.25-0.24-0.37-0.37
			c-0.1-0.1-0.3-0.26-0.34-0.39c0.09,0.25,0.1,0.13,0.01,0.01c-0.05-0.07-0.1-0.14-0.15-0.22c-0.11-0.16-0.2-0.33-0.29-0.5
			c-0.04-0.08-0.08-0.16-0.12-0.23c-0.04-0.08-0.16-0.39-0.02-0.03c-0.29-0.72-1.01-1.32-1.85-1.05
			C119.37,255.9,118.71,256.74,119.02,257.52L119.02,257.52z"/>
	</g>
</g>
<g>
	<g>
		<path class="st20" d="M136.99,253.1c-2.44,0.01-4.88,0.03-7.33,0.04c0.25,0.07,0.5,0.14,0.76,0.2c-4.33-2.6-10.46-0.96-12.88,3.48
			c-0.3,0.54-0.28,1.39,0.23,1.82c2.74,2.29,5.7,4.29,8.87,5.92c1.71,0.88,3.23-1.71,1.51-2.59c-2.95-1.51-5.73-3.32-8.27-5.45
			c0.08,0.61,0.16,1.21,0.23,1.82c1.23-2.26,3.84-3.49,6.38-3.23c0.53,0.05,1.08,0.19,1.57,0.39c0.35,0.14,0.65,0.38,1,0.51
			c0.51,0.2,1.08,0.13,1.62,0.12c2.09-0.01,4.19-0.02,6.28-0.03C138.92,256.09,138.93,253.09,136.99,253.1L136.99,253.1z"/>
	</g>
</g>
<g>
	<g>
		<path class="st20" d="M123.49,256.61c1.93,0,1.93-3,0-3C121.56,253.61,121.56,256.61,123.49,256.61L123.49,256.61z"/>
	</g>
</g>
<g>
	<g>
		<path class="st20" d="M116.89,259.69c4.34,5.27,11.55,6.22,17.96,5.66c7.44-0.66,14.87-2.18,22.1-4.03
			c1.87-0.48,1.08-3.37-0.8-2.89c-6.67,1.72-13.49,3.11-20.35,3.83c-5.95,0.63-12.7,0.29-16.8-4.68
			C117.78,256.08,115.67,258.21,116.89,259.69L116.89,259.69z"/>
	</g>
</g>
<g>
	<g>
		<path class="st20" d="M249.27,258.2c4.37-1.25,8.94-2.03,13.5-2c2.07,0.01,4.18,0.24,6.1,1.05c0.8,0.34,1.73,0.79,2.27,1.51
			c0.29,0.39,0.66,1.32,0.13,1.71c-1.53,1.14-0.04,3.74,1.51,2.59c2.02-1.5,2.22-4.18,0.69-6.14c-1.61-2.06-4.5-3.02-6.99-3.41
			c-5.91-0.93-12.31,0.18-18.01,1.81C246.62,255.84,247.41,258.73,249.27,258.2L249.27,258.2z"/>
	</g>
</g>
</svg>
