<?xml version="1.0" encoding="utf-8"?>
<!-- Generator: Adobe Illustrator 24.0.1, SVG Export Plug-In . SVG Version: 6.00 Build 0)  -->
<svg version="1.1" id="Layer_1" xmlns="http://www.w3.org/2000/svg" xmlns:xlink="http://www.w3.org/1999/xlink" x="0px" y="0px"
	 viewBox="0 0 280 270" style="enable-background:new 0 0 280 270;" xml:space="preserve">
<style type="text/css">
	.st0{fill:#DF9D28;}
	.st1{fill:#6C81B1;}
	.st2{fill:#506E44;}
	.st3{fill:#705739;}
	.st4{fill:#FDD09C;}
	.st5{fill:none;stroke:#A58D1E;stroke-width:3;stroke-miterlimit:10;}
	.st6{fill:#603B15;}
	.st7{fill:#9B702A;}
	.st8{fill:#200E0A;}
	.st9{fill:#231F20;}
	.st10{fill:#A37A44;}
	.st11{fill:#895121;}
	.st12{fill:#B28E62;}
	.st13{fill:#5C5D60;}
	.st14{fill:#D5EDEE;}
	.st15{fill:#C2262D;}
	.st16{fill:#9A6B03;}
	.st17{fill:#258B43;}
	.st18{fill:#ED3224;}
	.st19{fill:#5E74B2;}
	.st20{fill:none;stroke:#231F20;stroke-width:3;stroke-miterlimit:10;}
	.st21{fill:#4A5A8C;}
	.st22{fill:#302D2F;}
</style>
<path class="st0" d="M76.8,44.2H51.4c-8.4,0-15.3,9.2-15.3,20.6v3.2c0-8.2,4.9-14.9,11-14.9h34c6.1,0,11,6.7,11,14.9v-3.2
	C92.1,53.4,85.3,44.2,76.8,44.2z"/>
<g>
	<g>
		<path class="st0" d="M94,98.6c1.9,0,1.9-3,0-3C92.1,95.6,92.1,98.6,94,98.6L94,98.6z"/>
	</g>
</g>
<g>
	<g>
		<path class="st0" d="M93.8,95.1c1.9,0,1.9-3,0-3C91.8,92.1,91.8,95.1,93.8,95.1L93.8,95.1z"/>
	</g>
</g>
<g>
	<g>
		<path class="st0" d="M93.5,93.6c1.9,0,1.9-3,0-3C91.6,90.6,91.6,93.6,93.5,93.6L93.5,93.6z"/>
	</g>
</g>
<g>
	<g>
		<path class="st0" d="M93,90.6c1.9,0,1.9-3,0-3C91.1,87.6,91.1,90.6,93,90.6L93,90.6z"/>
	</g>
</g>
<g>
	<g>
		<path class="st0" d="M93,88.1c1.9,0,1.9-3,0-3C91.1,85.1,91.1,88.1,93,88.1L93,88.1z"/>
	</g>
</g>
<g>
	<g>
		<path class="st0" d="M92.5,85.9c1.9,0,1.9-3,0-3C90.6,82.9,90.6,85.9,92.5,85.9L92.5,85.9z"/>
	</g>
</g>
<g>
	<g>
		<path class="st0" d="M93,83.4c1.9,0,1.9-3,0-3C91.1,80.4,91.1,83.4,93,83.4L93,83.4z"/>
	</g>
</g>
<g>
	<g>
		<path class="st0" d="M92,82.9c0.2,0.2,0.3,0.3,0.5,0.5c0.6,0.6,1.5,0.6,2.1,0c0.6-0.6,0.6-1.5,0-2.1c-0.2-0.2-0.3-0.3-0.5-0.5
			c-0.6-0.6-1.5-0.6-2.1,0C91.4,81.4,91.4,82.3,92,82.9L92,82.9z"/>
	</g>
</g>
<g>
	<g>
		<path class="st0" d="M94.5,84.9c1.9,0,1.9-3,0-3C92.6,81.9,92.6,84.9,94.5,84.9L94.5,84.9z"/>
	</g>
</g>
<g>
	<g>
		<path class="st0" d="M94.3,86.1c1.9,0,1.9-3,0-3C92.3,83.1,92.3,86.1,94.3,86.1L94.3,86.1z"/>
	</g>
</g>
<g>
	<g>
		<path class="st0" d="M93.8,88.4c1.9,0,1.9-3,0-3C91.8,85.4,91.8,88.4,93.8,88.4L93.8,88.4z"/>
	</g>
</g>
<g>
	<g>
		<path class="st0" d="M93.3,90.9c1.9,0,1.9-3,0-3C91.3,87.9,91.3,90.9,93.3,90.9L93.3,90.9z"/>
	</g>
</g>
<g>
	<g>
		<path class="st0" d="M93,92.4c1.9,0,1.9-3,0-3C91.1,89.4,91.1,92.4,93,92.4L93,92.4z"/>
	</g>
</g>
<g>
	<g>
		<path class="st0" d="M91.5,93.1c0,0.1,0,0.2,0,0.3c0,0.8,0.7,1.5,1.5,1.5c0.8,0,1.5-0.7,1.5-1.5c0-0.1,0-0.2,0-0.3
			c0-0.8-0.7-1.5-1.5-1.5C92.2,91.6,91.5,92.3,91.5,93.1L91.5,93.1z"/>
	</g>
</g>
<g>
	<g>
		<path class="st0" d="M92.8,97.6c1.9,0,1.9-3,0-3C90.8,94.6,90.8,97.6,92.8,97.6L92.8,97.6z"/>
	</g>
</g>
<g>
	<g>
		<path class="st0" d="M93.5,97.1c1.9,0,1.9-3,0-3C91.6,94.1,91.6,97.1,93.5,97.1L93.5,97.1z"/>
	</g>
</g>
<g>
	<g>
		<path class="st0" d="M94.3,96.9c1.9,0,1.9-3,0-3C92.3,93.9,92.3,96.9,94.3,96.9L94.3,96.9z"/>
	</g>
</g>
<g>
	<g>
		<path class="st0" d="M94.5,98.9c1.9,0,1.9-3,0-3C92.6,95.9,92.6,98.9,94.5,98.9L94.5,98.9z"/>
	</g>
</g>
<g>
	<g>
		<path class="st0" d="M94.3,101.6c1.9,0,1.9-3,0-3C92.3,98.6,92.3,101.6,94.3,101.6L94.3,101.6z"/>
	</g>
</g>
<g>
	<g>
		<path class="st0" d="M93.8,100.9c1.9,0,1.9-3,0-3C91.8,97.9,91.8,100.9,93.8,100.9L93.8,100.9z"/>
	</g>
</g>
<g>
	<g>
		<path class="st0" d="M93.3,99.4c1.9,0,1.9-3,0-3C91.3,96.4,91.3,99.4,93.3,99.4L93.3,99.4z"/>
	</g>
</g>
<g>
	<g>
		<path class="st0" d="M93.3,101.1c1.9,0,1.9-3,0-3C91.3,98.1,91.3,101.1,93.3,101.1L93.3,101.1z"/>
	</g>
</g>
<g>
	<g>
		<path class="st0" d="M91.8,100.9c0,0.1,0,0.2,0,0.3c0,0.8,0.7,1.5,1.5,1.5c0.8,0,1.5-0.7,1.5-1.5c0-0.1,0-0.2,0-0.3
			c0-0.8-0.7-1.5-1.5-1.5C92.5,99.4,91.8,100,91.8,100.9L91.8,100.9z"/>
	</g>
</g>
<g>
	<g>
		<path class="st0" d="M93.8,104.6c1.9,0,1.9-3,0-3C91.8,101.6,91.8,104.6,93.8,104.6L93.8,104.6z"/>
	</g>
</g>
<g>
	<g>
		<path class="st0" d="M94,106.1c1.9,0,1.9-3,0-3C92.1,103.1,92.1,106.1,94,106.1L94,106.1z"/>
	</g>
</g>
<g>
	<g>
		<path class="st0" d="M92.3,107.4c0,0.1,0,0.2,0,0.3c0,0.8,0.7,1.5,1.5,1.5c0.8,0,1.5-0.7,1.5-1.5c0-0.1,0-0.2,0-0.3
			c0-0.8-0.7-1.5-1.5-1.5C93,105.9,92.3,106.5,92.3,107.4L92.3,107.4z"/>
	</g>
</g>
<g>
	<g>
		<path class="st0" d="M93.5,111.9c1.9,0,1.9-3,0-3C91.6,108.9,91.6,111.9,93.5,111.9L93.5,111.9z"/>
	</g>
</g>
<g>
	<g>
		<path class="st0" d="M93.5,113.4c1.9,0,1.9-3,0-3C91.6,110.4,91.6,113.4,93.5,113.4L93.5,113.4z"/>
	</g>
</g>
<g>
	<g>
		<path class="st0" d="M93.5,114.9c1.9,0,1.9-3,0-3C91.6,111.9,91.6,114.9,93.5,114.9L93.5,114.9z"/>
	</g>
</g>
<g>
	<g>
		<path class="st0" d="M94.5,117.1c1.9,0,1.9-3,0-3C92.6,114.1,92.6,117.1,94.5,117.1L94.5,117.1z"/>
	</g>
</g>
<g>
	<g>
		<path class="st0" d="M94.8,118.1c1.9,0,1.9-3,0-3C92.8,115.1,92.8,118.1,94.8,118.1L94.8,118.1z"/>
	</g>
</g>
<g>
	<g>
		<path class="st0" d="M94.8,116.9c1.9,0,1.9-3,0-3C92.8,113.9,92.8,116.9,94.8,116.9L94.8,116.9z"/>
	</g>
</g>
<g>
	<g>
		<path class="st0" d="M94.8,114.1c1.9,0,1.9-3,0-3C92.8,111.1,92.8,114.1,94.8,114.1L94.8,114.1z"/>
	</g>
</g>
<g>
	<g>
		<path class="st0" d="M96.3,111.9c0-0.1,0-0.2,0-0.3c0-0.8-0.7-1.5-1.5-1.5c-0.8,0-1.5,0.7-1.5,1.5c0,0.1,0,0.2,0,0.3
			c0,0.8,0.7,1.5,1.5,1.5C95.6,113.3,96.3,112.7,96.3,111.9L96.3,111.9z"/>
	</g>
</g>
<g>
	<g>
		<path class="st0" d="M94.8,110.6c1.9,0,1.9-3,0-3C92.8,107.6,92.8,110.6,94.8,110.6L94.8,110.6z"/>
	</g>
</g>
<g>
	<g>
		<path class="st0" d="M95.3,109.1c1.9,0,1.9-3,0-3C93.3,106.1,93.3,109.1,95.3,109.1L95.3,109.1z"/>
	</g>
</g>
<g>
	<g>
		<path class="st0" d="M95.5,107.4c1.9,0,1.9-3,0-3C93.6,104.4,93.6,107.4,95.5,107.4L95.5,107.4z"/>
	</g>
</g>
<g>
	<g>
		<path class="st0" d="M95.5,105.6c1.9,0,1.9-3,0-3C93.6,102.6,93.6,105.6,95.5,105.6L95.5,105.6z"/>
	</g>
</g>
<g>
	<g>
		<path class="st0" d="M95.5,104.4c1.9,0,1.9-3,0-3C93.6,101.4,93.6,104.4,95.5,104.4L95.5,104.4z"/>
	</g>
</g>
<g>
	<g>
		<path class="st0" d="M94.5,102.1c1.9,0,1.9-3,0-3C92.6,99.1,92.6,102.1,94.5,102.1L94.5,102.1z"/>
	</g>
</g>
<g>
	<g>
		<path class="st0" d="M92.7,100.9c-0.1,0.2-0.2,0.3-0.3,0.5c-0.4,0.7-0.2,1.6,0.5,2.1c0.7,0.4,1.7,0.2,2.1-0.5
			c0.1-0.2,0.2-0.3,0.3-0.5c0.4-0.7,0.2-1.6-0.5-2.1C94.1,99.9,93.1,100.1,92.7,100.9L92.7,100.9z"/>
	</g>
</g>
<g>
	<g>
		<path class="st0" d="M92.7,104.1c-0.1,0.1-0.2,0.2-0.3,0.3c-0.6,0.6-0.6,1.5,0,2.1c0.6,0.6,1.5,0.6,2.1,0c0.1-0.1,0.2-0.2,0.3-0.3
			c0.6-0.6,0.6-1.5,0-2.1C94.3,103.5,93.3,103.5,92.7,104.1L92.7,104.1z"/>
	</g>
</g>
<g>
	<g>
		<path class="st0" d="M93,108.9c1.9,0,1.9-3,0-3C91.1,105.9,91.1,108.9,93,108.9L93,108.9z"/>
	</g>
</g>
<g>
	<g>
		<path class="st0" d="M93,109.6c1.9,0,1.9-3,0-3C91.1,106.6,91.1,109.6,93,109.6L93,109.6z"/>
	</g>
</g>
<g>
	<g>
		<path class="st0" d="M93,107.1c1.9,0,1.9-3,0-3C91.1,104.1,91.1,107.1,93,107.1L93,107.1z"/>
	</g>
</g>
<g>
	<g>
		<path class="st0" d="M91.7,105.1c-0.1,0.2-0.2,0.3-0.3,0.5c-0.4,0.7-0.2,1.6,0.5,2.1c0.7,0.4,1.7,0.2,2.1-0.5
			c0.1-0.2,0.2-0.3,0.3-0.5c0.4-0.7,0.2-1.6-0.5-2.1C93.1,104.2,92.1,104.4,91.7,105.1L91.7,105.1z"/>
	</g>
</g>
<g>
	<g>
		<path class="st0" d="M92,111.1c1.9,0,1.9-3,0-3C90.1,108.1,90.1,111.1,92,111.1L92,111.1z"/>
	</g>
</g>
<g>
	<g>
		<path class="st0" d="M92,112.9c1.9,0,1.9-3,0-3C90.1,109.9,90.1,112.9,92,112.9L92,112.9z"/>
	</g>
</g>
<g>
	<g>
		<path class="st0" d="M91.5,114.4c1.9,0,1.9-3,0-3C89.6,111.4,89.6,114.4,91.5,114.4L91.5,114.4z"/>
	</g>
</g>
<g>
	<g>
		<path class="st0" d="M91.3,115.6c1.9,0,1.9-3,0-3C89.3,112.6,89.3,115.6,91.3,115.6L91.3,115.6z"/>
	</g>
</g>
<g>
	<g>
		<path class="st0" d="M90,118.1c1.9,0,1.9-3,0-3C88.1,115.1,88.1,118.1,90,118.1L90,118.1z"/>
	</g>
</g>
<g>
	<g>
		<path class="st0" d="M89.3,118.6c1.9,0,1.9-3,0-3C87.3,115.6,87.3,118.6,89.3,118.6L89.3,118.6z"/>
	</g>
</g>
<g>
	<g>
		<path class="st0" d="M88.3,119.4c1.9,0,1.9-3,0-3C86.3,116.4,86.3,119.4,88.3,119.4L88.3,119.4z"/>
	</g>
</g>
<g>
	<g>
		<path class="st0" d="M88.3,119.4c1.9,0,1.9-3,0-3C86.3,116.4,86.3,119.4,88.3,119.4L88.3,119.4z"/>
	</g>
</g>
<g>
	<g>
		<path class="st0" d="M88.3,118.1c1.9,0,1.9-3,0-3C86.3,115.1,86.3,118.1,88.3,118.1L88.3,118.1z"/>
	</g>
</g>
<g>
	<g>
		<path class="st0" d="M89.8,117.1c1.9,0,1.9-3,0-3C87.8,114.1,87.8,117.1,89.8,117.1L89.8,117.1z"/>
	</g>
</g>
<g>
	<g>
		<path class="st0" d="M90.3,115.1c1.9,0,1.9-3,0-3C88.3,112.1,88.3,115.1,90.3,115.1L90.3,115.1z"/>
	</g>
</g>
<g>
	<g>
		<path class="st0" d="M90.5,113.4c1.9,0,1.9-3,0-3C88.6,110.4,88.6,113.4,90.5,113.4L90.5,113.4z"/>
	</g>
</g>
<g>
	<g>
		<path class="st0" d="M90.5,113.9c1.9,0,1.9-3,0-3C88.6,110.9,88.6,113.9,90.5,113.9L90.5,113.9z"/>
	</g>
</g>
<g>
	<g>
		<path class="st0" d="M88.5,115.9c-0.1,0-0.2,0-0.3,0c-0.8,0-1.5,0.7-1.5,1.5c0,0.8,0.7,1.5,1.5,1.5c0.1,0,0.2,0,0.3,0
			c0.8,0,1.5-0.7,1.5-1.5C90,116.5,89.4,115.9,88.5,115.9L88.5,115.9z"/>
	</g>
</g>
<g>
	<g>
		<path class="st0" d="M87.3,120.1c1.9,0,1.9-3,0-3C85.3,117.1,85.3,120.1,87.3,120.1L87.3,120.1z"/>
	</g>
</g>
<g>
	<g>
		<path class="st0" d="M86.8,121.1c1.9,0,1.9-3,0-3C84.8,118.1,84.8,121.1,86.8,121.1L86.8,121.1z"/>
	</g>
</g>
<g>
	<g>
		<path class="st0" d="M86.3,121.9c1.9,0,1.9-3,0-3C84.3,118.9,84.3,121.9,86.3,121.9L86.3,121.9z"/>
	</g>
</g>
<g>
	<g>
		<path class="st0" d="M85.3,122.4c1.9,0,1.9-3,0-3C83.3,119.4,83.3,122.4,85.3,122.4L85.3,122.4z"/>
	</g>
</g>
<g>
	<g>
		<path class="st0" d="M83.8,122.9c1.9,0,1.9-3,0-3C81.8,119.9,81.8,122.9,83.8,122.9L83.8,122.9z"/>
	</g>
</g>
<g>
	<g>
		<path class="st0" d="M82.8,123.4c1.9,0,1.9-3,0-3C80.8,120.4,80.8,123.4,82.8,123.4L82.8,123.4z"/>
	</g>
</g>
<g>
	<g>
		<path class="st0" d="M80.2,121.8c-0.1,0.1-0.2,0.2-0.3,0.3c-0.6,0.6-0.6,1.5,0,2.1c0.6,0.6,1.5,0.6,2.1,0c0.1-0.1,0.2-0.2,0.3-0.3
			c0.6-0.6,0.6-1.5,0-2.1C81.8,121.2,80.8,121.2,80.2,121.8L80.2,121.8z"/>
	</g>
</g>
<g>
	<g>
		<path class="st0" d="M79.8,125.1c1.9,0,1.9-3,0-3C77.8,122.1,77.8,125.1,79.8,125.1L79.8,125.1z"/>
	</g>
</g>
<g>
	<g>
		<path class="st0" d="M79.5,125.4c1.9,0,1.9-3,0-3C77.6,122.4,77.6,125.4,79.5,125.4L79.5,125.4z"/>
	</g>
</g>
<g>
	<g>
		<path class="st0" d="M79,126.1c1.9,0,1.9-3,0-3C77.1,123.1,77.1,126.1,79,126.1L79,126.1z"/>
	</g>
</g>
<g>
	<g>
		<path class="st0" d="M80.3,126.6c0.1,0,0.2,0,0.3,0c0.8,0,1.5-0.7,1.5-1.5c0-0.8-0.7-1.5-1.5-1.5c-0.1,0-0.2,0-0.3,0
			c-0.8,0-1.5,0.7-1.5,1.5C78.8,125.9,79.4,126.6,80.3,126.6L80.3,126.6z"/>
	</g>
</g>
<g>
	<g>
		<path class="st0" d="M81.8,126.6c0.1,0,0.2,0,0.3,0c0.8,0,1.5-0.7,1.5-1.5c0-0.8-0.7-1.5-1.5-1.5c-0.1,0-0.2,0-0.3,0
			c-0.8,0-1.5,0.7-1.5,1.5C80.3,125.9,80.9,126.6,81.8,126.6L81.8,126.6z"/>
	</g>
</g>
<g>
	<g>
		<path class="st0" d="M83.5,126.6c1.9,0,1.9-3,0-3C81.6,123.6,81.6,126.6,83.5,126.6L83.5,126.6z"/>
	</g>
</g>
<g>
	<g>
		<path class="st0" d="M84.8,126.6c1.9,0,1.9-3,0-3C82.8,123.6,82.8,126.6,84.8,126.6L84.8,126.6z"/>
	</g>
</g>
<g>
	<g>
		<path class="st0" d="M86.3,126.6c0.1,0,0.2,0,0.3,0c0.8,0,1.5-0.7,1.5-1.5c0-0.8-0.7-1.5-1.5-1.5c-0.1,0-0.2,0-0.3,0
			c-0.8,0-1.5,0.7-1.5,1.5C84.8,125.9,85.4,126.6,86.3,126.6L86.3,126.6z"/>
	</g>
</g>
<g>
	<g>
		<path class="st0" d="M88.3,126.6c1.9,0,1.9-3,0-3C86.3,123.6,86.3,126.6,88.3,126.6L88.3,126.6z"/>
	</g>
</g>
<g>
	<g>
		<path class="st0" d="M89.8,126.6c1.9,0,1.9-3,0-3C87.8,123.6,87.8,126.6,89.8,126.6L89.8,126.6z"/>
	</g>
</g>
<g>
	<g>
		<path class="st0" d="M91,126.9c1.9,0,1.9-3,0-3C89.1,123.9,89.1,126.9,91,126.9L91,126.9z"/>
	</g>
</g>
<g>
	<g>
		<path class="st0" d="M91.3,127.6c1.9,0,1.9-3,0-3C89.3,124.6,89.3,127.6,91.3,127.6L91.3,127.6z"/>
	</g>
</g>
<g>
	<g>
		<path class="st0" d="M92.3,127.6c1.9,0,1.9-3,0-3C90.3,124.6,90.3,127.6,92.3,127.6L92.3,127.6z"/>
	</g>
</g>
<g>
	<g>
		<path class="st0" d="M93.5,126.9c1.9,0,1.9-3,0-3C91.6,123.9,91.6,126.9,93.5,126.9L93.5,126.9z"/>
	</g>
</g>
<g>
	<g>
		<path class="st0" d="M93.5,126.9c1.9,0,1.9-3,0-3C91.6,123.9,91.6,126.9,93.5,126.9L93.5,126.9z"/>
	</g>
</g>
<g>
	<g>
		<path class="st0" d="M94.5,123.1c1.9,0,1.9-3,0-3C92.6,120.1,92.6,123.1,94.5,123.1L94.5,123.1z"/>
	</g>
</g>
<g>
	<g>
		<path class="st0" d="M95,122.4c1.9,0,1.9-3,0-3C93.1,119.4,93.1,122.4,95,122.4L95,122.4z"/>
	</g>
</g>
<g>
	<g>
		<path class="st0" d="M94.8,120.4c1.9,0,1.9-3,0-3C92.8,117.4,92.8,120.4,94.8,120.4L94.8,120.4z"/>
	</g>
</g>
<g>
	<g>
		<path class="st0" d="M94.3,119.1c1.9,0,1.9-3,0-3C92.3,116.1,92.3,119.1,94.3,119.1L94.3,119.1z"/>
	</g>
</g>
<g>
	<g>
		<path class="st0" d="M93,118.4c1.9,0,1.9-3,0-3C91.1,115.4,91.1,118.4,93,118.4L93,118.4z"/>
	</g>
</g>
<g>
	<g>
		<path class="st0" d="M92.5,118.1c1.9,0,1.9-3,0-3C90.6,115.1,90.6,118.1,92.5,118.1L92.5,118.1z"/>
	</g>
</g>
<g>
	<g>
		<path class="st0" d="M92.5,117.6c1.9,0,1.9-3,0-3C90.6,114.6,90.6,117.6,92.5,117.6L92.5,117.6z"/>
	</g>
</g>
<g>
	<g>
		<path class="st0" d="M91,119.9c1.9,0,1.9-3,0-3C89.1,116.9,89.1,119.9,91,119.9L91,119.9z"/>
	</g>
</g>
<g>
	<g>
		<path class="st0" d="M91.5,120.9c1.9,0,1.9-3,0-3C89.6,117.9,89.6,120.9,91.5,120.9L91.5,120.9z"/>
	</g>
</g>
<g>
	<g>
		<path class="st0" d="M91.8,120.9c1.9,0,1.9-3,0-3C89.8,117.9,89.8,120.9,91.8,120.9L91.8,120.9z"/>
	</g>
</g>
<g>
	<g>
		<path class="st0" d="M92.5,122.4c1.9,0,1.9-3,0-3C90.6,119.4,90.6,122.4,92.5,122.4L92.5,122.4z"/>
	</g>
</g>
<g>
	<g>
		<path class="st0" d="M91.5,121.9c0,0.2,0,0.3,0,0.5c0,0.8,0.7,1.5,1.5,1.5c0.8,0,1.5-0.7,1.5-1.5c0-0.2,0-0.3,0-0.5
			c0-0.8-0.7-1.5-1.5-1.5C92.2,120.4,91.5,121,91.5,121.9L91.5,121.9z"/>
	</g>
</g>
<g>
	<g>
		<path class="st0" d="M94,125.6c1.9,0,1.9-3,0-3C92.1,122.6,92.1,125.6,94,125.6L94,125.6z"/>
	</g>
</g>
<g>
	<g>
		<path class="st0" d="M94.8,127.1c1.9,0,1.9-3,0-3C92.8,124.1,92.8,127.1,94.8,127.1L94.8,127.1z"/>
	</g>
</g>
<g>
	<g>
		<path class="st0" d="M93.3,126.6c1.9,0,1.9-3,0-3C91.3,123.6,91.3,126.6,93.3,126.6L93.3,126.6z"/>
	</g>
</g>
<g>
	<g>
		<path class="st0" d="M92.8,125.4c1.9,0,1.9-3,0-3C90.8,122.4,90.8,125.4,92.8,125.4L92.8,125.4z"/>
	</g>
</g>
<g>
	<g>
		<path class="st0" d="M92.5,124.9c1.9,0,1.9-3,0-3C90.6,121.9,90.6,124.9,92.5,124.9L92.5,124.9z"/>
	</g>
</g>
<g>
	<g>
		<path class="st0" d="M91.8,123.4c1.9,0,1.9-3,0-3C89.8,120.4,89.8,123.4,91.8,123.4L91.8,123.4z"/>
	</g>
</g>
<g>
	<g>
		<path class="st0" d="M90.8,122.6c1.9,0,1.9-3,0-3C88.8,119.6,88.8,122.6,90.8,122.6L90.8,122.6z"/>
	</g>
</g>
<g>
	<g>
		<path class="st0" d="M90.3,121.6c1.9,0,1.9-3,0-3C88.3,118.6,88.3,121.6,90.3,121.6L90.3,121.6z"/>
	</g>
</g>
<g>
	<g>
		<path class="st0" d="M90.5,125.4c1.9,0,1.9-3,0-3C88.6,122.4,88.6,125.4,90.5,125.4L90.5,125.4z"/>
	</g>
</g>
<g>
	<g>
		<path class="st0" d="M91.3,123.1c-0.1-0.1-0.2-0.2-0.3-0.3c-0.6-0.6-1.5-0.6-2.1,0c-0.6,0.6-0.6,1.5,0,2.1
			c0.1,0.1,0.2,0.2,0.3,0.3c0.6,0.6,1.5,0.6,2.1,0C91.9,124.6,91.9,123.6,91.3,123.1L91.3,123.1z"/>
	</g>
</g>
<g>
	<g>
		<path class="st0" d="M89.8,123.1c1.9,0,1.9-3,0-3C87.8,120.1,87.8,123.1,89.8,123.1L89.8,123.1z"/>
	</g>
</g>
<g>
	<g>
		<path class="st0" d="M89.5,122.1c1.9,0,1.9-3,0-3C87.6,119.1,87.6,122.1,89.5,122.1L89.5,122.1z"/>
	</g>
</g>
<g>
	<g>
		<path class="st0" d="M87.3,120.4c0,0.3,0,0.5,0,0.8c0,0.8,0.7,1.5,1.5,1.5c0.8,0,1.5-0.7,1.5-1.5c0-0.3,0-0.5,0-0.8
			c0-0.8-0.7-1.5-1.5-1.5C88,118.9,87.3,119.5,87.3,120.4L87.3,120.4z"/>
	</g>
</g>
<g>
	<g>
		<path class="st0" d="M88.8,125.4c1.9,0,1.9-3,0-3C86.8,122.4,86.8,125.4,88.8,125.4L88.8,125.4z"/>
	</g>
</g>
<g>
	<g>
		<path class="st0" d="M88,125.6c1.9,0,1.9-3,0-3C86.1,122.6,86.1,125.6,88,125.6L88,125.6z"/>
	</g>
</g>
<g>
	<g>
		<path class="st0" d="M87.5,123.1c1.9,0,1.9-3,0-3C85.6,120.1,85.6,123.1,87.5,123.1L87.5,123.1z"/>
	</g>
</g>
<g>
	<g>
		<path class="st0" d="M87.5,123.1c1.9,0,1.9-3,0-3C85.6,120.1,85.6,123.1,87.5,123.1L87.5,123.1z"/>
	</g>
</g>
<g>
	<g>
		<path class="st0" d="M85.8,125.4c1.9,0,1.9-3,0-3C83.8,122.4,83.8,125.4,85.8,125.4L85.8,125.4z"/>
	</g>
</g>
<g>
	<g>
		<path class="st0" d="M84.5,125.9c1.9,0,1.9-3,0-3C82.6,122.9,82.6,125.9,84.5,125.9L84.5,125.9z"/>
	</g>
</g>
<g>
	<g>
		<path class="st0" d="M83.3,126.4c1.9,0,1.9-3,0-3C81.3,123.4,81.3,126.4,83.3,126.4L83.3,126.4z"/>
	</g>
</g>
<g>
	<g>
		<path class="st0" d="M82.5,126.6c1.9,0,1.9-3,0-3C80.6,123.6,80.6,126.6,82.5,126.6L82.5,126.6z"/>
	</g>
</g>
<g>
	<g>
		<path class="st0" d="M85.3,125.1c1.9,0,1.9-3,0-3C83.3,122.1,83.3,125.1,85.3,125.1L85.3,125.1z"/>
	</g>
</g>
<g>
	<g>
		<path class="st0" d="M86.6,123.4c0.1-0.1,0.2-0.2,0.3-0.3c0.6-0.6,0.6-1.5,0-2.1c-0.6-0.6-1.5-0.6-2.1,0c-0.1,0.1-0.2,0.2-0.3,0.3
			c-0.6,0.6-0.6,1.5,0,2.1C85,124,86,124,86.6,123.4L86.6,123.4z"/>
	</g>
</g>
<g>
	<g>
		<path class="st0" d="M89.3,122.2C89.2,122.3,89.4,122.1,89.3,122.2c0.1-0.1,0.4-0.2,0.3-0.2c-0.1,0,0.2-0.1,0.2-0.1
			c0,0,0.4-0.1,0.2-0.1c0.8-0.1,1.5-0.6,1.5-1.5c0-0.7-0.7-1.6-1.5-1.5c-1.1,0.1-1.9,0.5-2.8,1.2c-0.6,0.5-0.5,1.6,0,2.1
			C87.8,122.8,88.7,122.7,89.3,122.2L89.3,122.2z"/>
	</g>
</g>
<g>
	<g>
		<path class="st0" d="M92.5,121.1c1.9,0,1.9-3,0-3C90.6,118.1,90.6,121.1,92.5,121.1L92.5,121.1z"/>
	</g>
</g>
<g>
	<g>
		<path class="st0" d="M93.8,120.6c1.9,0,1.9-3,0-3C91.8,117.6,91.8,120.6,93.8,120.6L93.8,120.6z"/>
	</g>
</g>
<g>
	<g>
		<path class="st0" d="M93.5,104.9c1.9,0,1.9-3,0-3C91.6,101.9,91.6,104.9,93.5,104.9L93.5,104.9z"/>
	</g>
</g>
<g>
	<g>
		<path class="st0" d="M86.5,119.4c1.9,0,1.9-3,0-3C84.6,116.4,84.6,119.4,86.5,119.4L86.5,119.4z"/>
	</g>
</g>
<g>
	<g>
		<path class="st0" d="M86,121.1c1.9,0,1.9-3,0-3C84.1,118.1,84.1,121.1,86,121.1L86,121.1z"/>
	</g>
</g>
<g>
	<g>
		<path class="st0" d="M51.5,126.4c1.9,0,1.9-3,0-3C49.6,123.4,49.6,126.4,51.5,126.4L51.5,126.4z"/>
	</g>
</g>
<g>
	<g>
		<path class="st0" d="M49.5,124.9c1.9,0,1.9-3,0-3C47.6,121.9,47.6,124.9,49.5,124.9L49.5,124.9z"/>
	</g>
</g>
<g>
	<g>
		<path class="st0" d="M49.3,123.9c1.9,0,1.9-3,0-3C47.3,120.9,47.3,123.9,49.3,123.9L49.3,123.9z"/>
	</g>
</g>
<g>
	<g>
		<path class="st0" d="M48,123.9c1.9,0,1.9-3,0-3C46.1,120.9,46.1,123.9,48,123.9L48,123.9z"/>
	</g>
</g>
<g>
	<g>
		<path class="st0" d="M47,123.1c1.9,0,1.9-3,0-3C45.1,120.1,45.1,123.1,47,123.1L47,123.1z"/>
	</g>
</g>
<g>
	<g>
		<path class="st0" d="M46,122.4c1.9,0,1.9-3,0-3C44.1,119.4,44.1,122.4,46,122.4L46,122.4z"/>
	</g>
</g>
<g>
	<g>
		<path class="st0" d="M45,122.1c1.9,0,1.9-3,0-3C43.1,119.1,43.1,122.1,45,122.1L45,122.1z"/>
	</g>
</g>
<g>
	<g>
		<path class="st0" d="M44.5,121.6c1.9,0,1.9-3,0-3C42.6,118.6,42.6,121.6,44.5,121.6L44.5,121.6z"/>
	</g>
</g>
<g>
	<g>
		<path class="st0" d="M43,120.4c1.9,0,1.9-3,0-3C41.1,117.4,41.1,120.4,43,120.4L43,120.4z"/>
	</g>
</g>
<g>
	<g>
		<path class="st0" d="M43.8,117.6c0-0.1,0-0.2,0-0.3c0-0.8-0.7-1.5-1.5-1.5c-0.8,0-1.5,0.7-1.5,1.5c0,0.1,0,0.2,0,0.3
			c0,0.8,0.7,1.5,1.5,1.5C43.1,119.1,43.8,118.5,43.8,117.6L43.8,117.6z"/>
	</g>
</g>
<g>
	<g>
		<path class="st0" d="M41.3,117.6c1.9,0,1.9-3,0-3C39.3,114.6,39.3,117.6,41.3,117.6L41.3,117.6z"/>
	</g>
</g>
<g>
	<g>
		<path class="st0" d="M40.3,116.6c1.9,0,1.9-3,0-3C38.3,113.6,38.3,116.6,40.3,116.6L40.3,116.6z"/>
	</g>
</g>
<g>
	<g>
		<path class="st0" d="M39.3,115.6c1.9,0,1.9-3,0-3C37.3,112.6,37.3,115.6,39.3,115.6L39.3,115.6z"/>
	</g>
</g>
<g>
	<g>
		<path class="st0" d="M40.3,112.3c-4.7-8.6-4.4-20.6-3.3-30.2c0.2-1.9-2.8-1.9-3,0c-1.2,10.2-1.3,22.4,3.7,31.7
			C38.6,115.5,41.2,114,40.3,112.3L40.3,112.3z"/>
	</g>
</g>
<g>
	<g>
		<path class="st0" d="M34,83.9c1.9,0,1.9-3,0-3C32.1,80.9,32.1,83.9,34,83.9L34,83.9z"/>
	</g>
</g>
<g>
	<g>
		<path class="st0" d="M33.5,83.9c1.9,0,1.9-3,0-3C31.6,80.9,31.6,83.9,33.5,83.9L33.5,83.9z"/>
	</g>
</g>
<g>
	<g>
		<path class="st0" d="M33.5,83.9c1.9,0,1.9-3,0-3C31.6,80.9,31.6,83.9,33.5,83.9L33.5,83.9z"/>
	</g>
</g>
<g>
	<g>
		<path class="st0" d="M33.8,85.1c1.9,0,1.9-3,0-3C31.8,82.1,31.8,85.1,33.8,85.1L33.8,85.1z"/>
	</g>
</g>
<g>
	<g>
		<path class="st0" d="M35,85.9c1.9,0,1.9-3,0-3C33.1,82.9,33.1,85.9,35,85.9L35,85.9z"/>
	</g>
</g>
<g>
	<g>
		<path class="st0" d="M33.3,87.1c1.9,0,1.9-3,0-3C31.3,84.1,31.3,87.1,33.3,87.1L33.3,87.1z"/>
	</g>
</g>
<g>
	<g>
		<path class="st0" d="M31.5,86.4c0,0.1,0,0.2,0,0.3c0,0.8,0.7,1.5,1.5,1.5c0.8,0,1.5-0.7,1.5-1.5c0-0.1,0-0.2,0-0.3
			c0-0.8-0.7-1.5-1.5-1.5C32.2,84.9,31.5,85.5,31.5,86.4L31.5,86.4z"/>
	</g>
</g>
<g>
	<g>
		<path class="st0" d="M32.3,89.1c1.9,0,1.9-3,0-3C30.3,86.1,30.3,89.1,32.3,89.1L32.3,89.1z"/>
	</g>
</g>
<g>
	<g>
		<path class="st0" d="M32.5,91.9c1.9,0,1.9-3,0-3C30.6,88.9,30.6,91.9,32.5,91.9L32.5,91.9z"/>
	</g>
</g>
<g>
	<g>
		<path class="st0" d="M32.8,92.4c1.9,0,1.9-3,0-3C30.8,89.4,30.8,92.4,32.8,92.4L32.8,92.4z"/>
	</g>
</g>
<g>
	<g>
		<path class="st0" d="M31.3,91.9c0,0.1,0,0.2,0,0.3c0,0.8,0.7,1.5,1.5,1.5c0.8,0,1.5-0.7,1.5-1.5c0-0.1,0-0.2,0-0.3
			c0-0.8-0.7-1.5-1.5-1.5C32,90.4,31.3,91,31.3,91.9L31.3,91.9z"/>
	</g>
</g>
<g>
	<g>
		<path class="st0" d="M31.3,94.6c0,0.1,0,0.2,0,0.3c0,0.8,0.7,1.5,1.5,1.5c0.8,0,1.5-0.7,1.5-1.5c0-0.1,0-0.2,0-0.3
			c0-0.8-0.7-1.5-1.5-1.5C32,93.1,31.3,93.8,31.3,94.6L31.3,94.6z"/>
	</g>
</g>
<g>
	<g>
		<path class="st0" d="M30.8,96.6c0,0.1,0,0.2,0,0.3c0,0.8,0.7,1.5,1.5,1.5c0.8,0,1.5-0.7,1.5-1.5c0-0.1,0-0.2,0-0.3
			c0-0.8-0.7-1.5-1.5-1.5C31.5,95.1,30.8,95.8,30.8,96.6L30.8,96.6z"/>
	</g>
</g>
<g>
	<g>
		<path class="st0" d="M30.5,98.4c0,0.1,0,0.2,0,0.3c0,0.8,0.7,1.5,1.5,1.5c0.8,0,1.5-0.7,1.5-1.5c0-0.1,0-0.2,0-0.3
			c0-0.8-0.7-1.5-1.5-1.5C31.2,96.9,30.5,97.5,30.5,98.4L30.5,98.4z"/>
	</g>
</g>
<g>
	<g>
		<path class="st0" d="M32.5,102.4c1.9,0,1.9-3,0-3C30.6,99.4,30.6,102.4,32.5,102.4L32.5,102.4z"/>
	</g>
</g>
<g>
	<g>
		<path class="st0" d="M32.5,103.6c1.9,0,1.9-3,0-3C30.6,100.6,30.6,103.6,32.5,103.6L32.5,103.6z"/>
	</g>
</g>
<g>
	<g>
		<path class="st0" d="M32.5,104.9c1.9,0,1.9-3,0-3C30.6,101.9,30.6,104.9,32.5,104.9L32.5,104.9z"/>
	</g>
</g>
<g>
	<g>
		<path class="st0" d="M31.5,104.6c0,0.1,0,0.2,0,0.3c0,0.8,0.7,1.5,1.5,1.5c0.8,0,1.5-0.7,1.5-1.5c0-0.1,0-0.2,0-0.3
			c0-0.8-0.7-1.5-1.5-1.5C32.2,103.1,31.5,103.8,31.5,104.6L31.5,104.6z"/>
	</g>
</g>
<g>
	<g>
		<path class="st0" d="M33.3,108.1c1.9,0,1.9-3,0-3C31.3,105.1,31.3,108.1,33.3,108.1L33.3,108.1z"/>
	</g>
</g>
<g>
	<g>
		<path class="st0" d="M33.8,109.4c1.9,0,1.9-3,0-3C31.8,106.4,31.8,109.4,33.8,109.4L33.8,109.4z"/>
	</g>
</g>
<g>
	<g>
		<path class="st0" d="M33.5,100.4c1.9,0,1.9-3,0-3C31.6,97.4,31.6,100.4,33.5,100.4L33.5,100.4z"/>
	</g>
</g>
<g>
	<g>
		<path class="st0" d="M32,105.9c0,0.1,0,0.2,0,0.3c0,0.8,0.7,1.5,1.5,1.5c0.8,0,1.5-0.7,1.5-1.5c0-0.1,0-0.2,0-0.3
			c0-0.8-0.7-1.5-1.5-1.5C32.7,104.4,32,105,32,105.9L32,105.9z"/>
	</g>
</g>
<g>
	<g>
		<path class="st0" d="M33.5,111.9c1.9,0,1.9-3,0-3C31.6,108.9,31.6,111.9,33.5,111.9L33.5,111.9z"/>
	</g>
</g>
<g>
	<g>
		<path class="st0" d="M33.5,112.9c1.9,0,1.9-3,0-3C31.6,109.9,31.6,112.9,33.5,112.9L33.5,112.9z"/>
	</g>
</g>
<g>
	<g>
		<path class="st0" d="M34.5,110.1c1.9,0,1.9-3,0-3C32.6,107.1,32.6,110.1,34.5,110.1L34.5,110.1z"/>
	</g>
</g>
<g>
	<g>
		<path class="st0" d="M34.5,112.1c1.9,0,1.9-3,0-3C32.6,109.1,32.6,112.1,34.5,112.1L34.5,112.1z"/>
	</g>
</g>
<g>
	<g>
		<path class="st0" d="M35.3,112.9c1.9,0,1.9-3,0-3C33.3,109.9,33.3,112.9,35.3,112.9L35.3,112.9z"/>
	</g>
</g>
<g>
	<g>
		<path class="st0" d="M35.2,112.9c0.1,0.1,0.2,0.2,0.3,0.3c0.6,0.6,1.5,0.6,2.1,0c0.6-0.6,0.6-1.5,0-2.1c-0.1-0.1-0.2-0.2-0.3-0.3
			c-0.6-0.6-1.5-0.6-2.1,0C34.6,111.4,34.6,112.3,35.2,112.9L35.2,112.9z"/>
	</g>
</g>
<g>
	<g>
		<path class="st0" d="M37.5,115.9c1.9,0,1.9-3,0-3C35.6,112.9,35.6,115.9,37.5,115.9L37.5,115.9z"/>
	</g>
</g>
<g>
	<g>
		<path class="st0" d="M38,117.4c1.9,0,1.9-3,0-3C36.1,114.4,36.1,117.4,38,117.4L38,117.4z"/>
	</g>
</g>
<g>
	<g>
		<path class="st0" d="M36.8,114.6c1.9,0,1.9-3,0-3C34.8,111.6,34.8,114.6,36.8,114.6L36.8,114.6z"/>
	</g>
</g>
<g>
	<g>
		<path class="st0" d="M35.2,112.3c-0.1,0.2-0.2,0.3-0.3,0.5c-0.4,0.7-0.2,1.6,0.5,2.1c0.7,0.4,1.7,0.2,2.1-0.5
			c0.1-0.2,0.2-0.3,0.3-0.5c0.4-0.7,0.2-1.6-0.5-2.1C36.6,111.4,35.6,111.6,35.2,112.3L35.2,112.3z"/>
	</g>
</g>
<g>
	<g>
		<path class="st0" d="M35.8,116.4c1.9,0,1.9-3,0-3C33.8,113.4,33.8,116.4,35.8,116.4L35.8,116.4z"/>
	</g>
</g>
<g>
	<g>
		<path class="st0" d="M35.3,115.1c1.9,0,1.9-3,0-3C33.3,112.1,33.3,115.1,35.3,115.1L35.3,115.1z"/>
	</g>
</g>
<g>
	<g>
		<path class="st0" d="M34.5,114.6c1.9,0,1.9-3,0-3C32.6,111.6,32.6,114.6,34.5,114.6L34.5,114.6z"/>
	</g>
</g>
<g>
	<g>
		<path class="st0" d="M33.8,117.6c1.9,0,1.9-3,0-3C31.8,114.6,31.8,117.6,33.8,117.6L33.8,117.6z"/>
	</g>
</g>
<g>
	<g>
		<path class="st0" d="M33.8,118.1c1.9,0,1.9-3,0-3C31.8,115.1,31.8,118.1,33.8,118.1L33.8,118.1z"/>
	</g>
</g>
<g>
	<g>
		<path class="st0" d="M36.6,117.7c0.1-0.1,0.2-0.2,0.3-0.3c0.6-0.6,0.6-1.5,0-2.1c-0.6-0.6-1.5-0.6-2.1,0c-0.1,0.1-0.2,0.2-0.3,0.3
			c-0.6,0.6-0.6,1.5,0,2.1C35,118.2,36,118.2,36.6,117.7L36.6,117.7z"/>
	</g>
</g>
<g>
	<g>
		<path class="st0" d="M35.7,118.4c0.1,0.1,0.2,0.2,0.3,0.3c0.6,0.6,1.5,0.6,2.1,0c0.6-0.6,0.6-1.5,0-2.1c-0.1-0.1-0.2-0.2-0.3-0.3
			c-0.6-0.6-1.5-0.6-2.1,0C35.1,116.9,35.1,117.8,35.7,118.4L35.7,118.4z"/>
	</g>
</g>
<g>
	<g>
		<path class="st0" d="M38.8,118.9c1.9,0,1.9-3,0-3C36.8,115.9,36.8,118.9,38.8,118.9L38.8,118.9z"/>
	</g>
</g>
<g>
	<g>
		<path class="st0" d="M39.5,118.6c0.1,0,0.2,0,0.3,0c0.8,0,1.5-0.7,1.5-1.5c0-0.8-0.7-1.5-1.5-1.5c-0.1,0-0.2,0-0.3,0
			c-0.8,0-1.5,0.7-1.5,1.5C38.1,117.9,38.7,118.6,39.5,118.6L39.5,118.6z"/>
	</g>
</g>
<g>
	<g>
		<path class="st0" d="M40.8,120.6c1.9,0,1.9-3,0-3C38.8,117.6,38.8,120.6,40.8,120.6L40.8,120.6z"/>
	</g>
</g>
<g>
	<g>
		<path class="st0" d="M41,120.9c0.1,0.1,0.2,0.2,0.3,0.3c0.6,0.6,1.5,0.6,2.1,0c0.6-0.6,0.6-1.5,0-2.1c-0.1-0.1-0.2-0.2-0.3-0.3
			c-0.6-0.6-1.5-0.6-2.1,0C40.4,119.4,40.4,120.3,41,120.9L41,120.9z"/>
	</g>
</g>
<g>
	<g>
		<path class="st0" d="M42.7,122.7c0.1,0.1,0.2,0.2,0.3,0.3c0.6,0.6,1.5,0.6,2.1,0c0.6-0.6,0.6-1.5,0-2.1c-0.1-0.1-0.2-0.2-0.3-0.3
			c-0.6-0.6-1.5-0.6-2.1,0C42.1,121.1,42.1,122.1,42.7,122.7L42.7,122.7z"/>
	</g>
</g>
<g>
	<g>
		<path class="st0" d="M45.5,124.2c0.3,0.2,0.5,0.3,0.8,0.5c0.7,0.4,1.7,0.1,2.1-0.5c0.4-0.7,0.1-1.6-0.5-2.1
			c-0.3-0.2-0.5-0.3-0.8-0.5c-0.7-0.4-1.7-0.1-2.1,0.5C44.5,122.9,44.8,123.7,45.5,124.2L45.5,124.2z"/>
	</g>
</g>
<g>
	<g>
		<path class="st0" d="M48.2,125.2c0.1,0.1,0.2,0.2,0.3,0.3c0.6,0.6,1.5,0.6,2.1,0c0.6-0.6,0.6-1.5,0-2.1c-0.1-0.1-0.2-0.2-0.3-0.3
			c-0.6-0.6-1.5-0.6-2.1,0C47.6,123.6,47.6,124.6,48.2,125.2L48.2,125.2z"/>
	</g>
</g>
<g>
	<g>
		<path class="st0" d="M49.5,125.9c0,0.1,0,0.2,0,0.3c0,0.8,0.7,1.5,1.5,1.5c0.8,0,1.5-0.7,1.5-1.5c0-0.1,0-0.2,0-0.3
			c0-0.8-0.7-1.5-1.5-1.5C50.2,124.4,49.5,125,49.5,125.9L49.5,125.9z"/>
	</g>
</g>
<g>
	<g>
		<path class="st0" d="M48.8,128.4c1.9,0,1.9-3,0-3C46.8,125.4,46.8,128.4,48.8,128.4L48.8,128.4z"/>
	</g>
</g>
<g>
	<g>
		<path class="st0" d="M48.3,128.4c1.9,0,1.9-3,0-3C46.3,125.4,46.3,128.4,48.3,128.4L48.3,128.4z"/>
	</g>
</g>
<g>
	<g>
		<path class="st0" d="M47.8,128.1c1.9,0,1.9-3,0-3C45.8,125.1,45.8,128.1,47.8,128.1L47.8,128.1z"/>
	</g>
</g>
<g>
	<g>
		<path class="st0" d="M46.8,127.9c1.9,0,1.9-3,0-3C44.8,124.9,44.8,127.9,46.8,127.9L46.8,127.9z"/>
	</g>
</g>
<g>
	<g>
		<path class="st0" d="M46.5,127.9c1.9,0,1.9-3,0-3C44.6,124.9,44.6,127.9,46.5,127.9L46.5,127.9z"/>
	</g>
</g>
<g>
	<g>
		<path class="st0" d="M45.8,127.9c1.9,0,1.9-3,0-3C43.8,124.9,43.8,127.9,45.8,127.9L45.8,127.9z"/>
	</g>
</g>
<g>
	<g>
		<path class="st0" d="M45,127.9c1.9,0,1.9-3,0-3C43.1,124.9,43.1,127.9,45,127.9L45,127.9z"/>
	</g>
</g>
<g>
	<g>
		<path class="st0" d="M43.3,127.9c1.9,0,1.9-3,0-3C41.3,124.9,41.3,127.9,43.3,127.9L43.3,127.9z"/>
	</g>
</g>
<g>
	<g>
		<path class="st0" d="M42.3,128.1c1.9,0,1.9-3,0-3C40.3,125.1,40.3,128.1,42.3,128.1L42.3,128.1z"/>
	</g>
</g>
<g>
	<g>
		<path class="st0" d="M41.3,125.1c-0.1,0-0.2,0-0.3,0c-0.8,0-1.5,0.7-1.5,1.5c0,0.8,0.7,1.5,1.5,1.5c0.1,0,0.2,0,0.3,0
			c0.8,0,1.5-0.7,1.5-1.5C42.7,125.8,42.1,125.1,41.3,125.1L41.3,125.1z"/>
	</g>
</g>
<g>
	<g>
		<path class="st0" d="M39.5,128.1c1.9,0,1.9-3,0-3C37.6,125.1,37.6,128.1,39.5,128.1L39.5,128.1z"/>
	</g>
</g>
<g>
	<g>
		<path class="st0" d="M37.8,128.1c1.9,0,1.9-3,0-3C35.8,125.1,35.8,128.1,37.8,128.1L37.8,128.1z"/>
	</g>
</g>
<g>
	<g>
		<path class="st0" d="M36.5,128.1c1.9,0,1.9-3,0-3C34.6,125.1,34.6,128.1,36.5,128.1L36.5,128.1z"/>
	</g>
</g>
<g>
	<g>
		<path class="st0" d="M35.5,127.9c1.9,0,1.9-3,0-3C33.6,124.9,33.6,127.9,35.5,127.9L35.5,127.9z"/>
	</g>
</g>
<g>
	<g>
		<path class="st0" d="M34.8,127.9c1.9,0,1.9-3,0-3C32.8,124.9,32.8,127.9,34.8,127.9L34.8,127.9z"/>
	</g>
</g>
<g>
	<g>
		<path class="st0" d="M33.8,127.6c1.9,0,1.9-3,0-3C31.8,124.6,31.8,127.6,33.8,127.6L33.8,127.6z"/>
	</g>
</g>
<g>
	<g>
		<path class="st0" d="M33.5,127.4c1.9,0,1.9-3,0-3C31.6,124.4,31.6,127.4,33.5,127.4L33.5,127.4z"/>
	</g>
</g>
<g>
	<g>
		<path class="st0" d="M33.5,125.6c1.9,0,1.9-3,0-3C31.6,122.6,31.6,125.6,33.5,125.6L33.5,125.6z"/>
	</g>
</g>
<g>
	<g>
		<path class="st0" d="M33.5,125.6c1.9,0,1.9-3,0-3C31.6,122.6,31.6,125.6,33.5,125.6L33.5,125.6z"/>
	</g>
</g>
<g>
	<g>
		<path class="st0" d="M34.6,124.4c0.1-0.1,0.2-0.2,0.3-0.3c0.6-0.6,0.6-1.5,0-2.1c-0.6-0.6-1.5-0.6-2.1,0c-0.1,0.1-0.2,0.2-0.3,0.3
			c-0.6,0.6-0.6,1.5,0,2.1C33,125,34,125,34.6,124.4L34.6,124.4z"/>
	</g>
</g>
<g>
	<g>
		<path class="st0" d="M34,123.4c1.9,0,1.9-3,0-3C32.1,120.4,32.1,123.4,34,123.4L34,123.4z"/>
	</g>
</g>
<g>
	<g>
		<path class="st0" d="M34,122.1c1.9,0,1.9-3,0-3C32.1,119.1,32.1,122.1,34,122.1L34,122.1z"/>
	</g>
</g>
<g>
	<g>
		<path class="st0" d="M34.3,120.1c1.9,0,1.9-3,0-3C32.3,117.1,32.3,120.1,34.3,120.1L34.3,120.1z"/>
	</g>
</g>
<g>
	<g>
		<path class="st0" d="M34.8,119.1c1.9,0,1.9-3,0-3C32.8,116.1,32.8,119.1,34.8,119.1L34.8,119.1z"/>
	</g>
</g>
<g>
	<g>
		<path class="st0" d="M36.3,120.1c1.9,0,1.9-3,0-3C34.3,117.1,34.3,120.1,36.3,120.1L36.3,120.1z"/>
	</g>
</g>
<g>
	<g>
		<path class="st0" d="M38.3,120.4c1.9,0,1.9-3,0-3C36.3,117.4,36.3,120.4,38.3,120.4L38.3,120.4z"/>
	</g>
</g>
<g>
	<g>
		<path class="st0" d="M38.5,120.9c0.2,0.2,0.3,0.3,0.5,0.5c0.6,0.6,1.5,0.6,2.1,0c0.6-0.6,0.6-1.5,0-2.1c-0.2-0.2-0.3-0.3-0.5-0.5
			c-0.6-0.6-1.5-0.6-2.1,0C37.9,119.4,37.9,120.3,38.5,120.9L38.5,120.9z"/>
	</g>
</g>
<g>
	<g>
		<path class="st0" d="M40.7,122.7c0.2,0.2,0.3,0.3,0.5,0.5c0.6,0.6,1.5,0.6,2.1,0c0.6-0.6,0.6-1.5,0-2.1c-0.2-0.2-0.3-0.3-0.5-0.5
			c-0.6-0.6-1.5-0.6-2.1,0C40.1,121.1,40.1,122.1,40.7,122.7L40.7,122.7z"/>
	</g>
</g>
<g>
	<g>
		<path class="st0" d="M42.5,123.4c0.2,0.3,0.3,0.5,0.5,0.8c0.4,0.7,1.3,1,2.1,0.5c0.7-0.4,1-1.4,0.5-2.1c-0.2-0.3-0.3-0.5-0.5-0.8
			c-0.4-0.7-1.3-1-2.1-0.5C42.3,121.7,42,122.7,42.5,123.4L42.5,123.4z"/>
	</g>
</g>
<g>
	<g>
		<path class="st0" d="M46.8,125.9c0.1,0,0.2,0,0.3,0c0.8,0,1.5-0.7,1.5-1.5c0-0.8-0.7-1.5-1.5-1.5c-0.1,0-0.2,0-0.3,0
			c-0.8,0-1.5,0.7-1.5,1.5C45.3,125.2,45.9,125.9,46.8,125.9L46.8,125.9z"/>
	</g>
</g>
<g>
	<g>
		<path class="st0" d="M48.5,126.1c1.9,0,1.9-3,0-3C46.6,123.1,46.6,126.1,48.5,126.1L48.5,126.1z"/>
	</g>
</g>
<g>
	<g>
		<path class="st0" d="M45.8,124.1c-2.2,0.2-4.3,0-6.4-0.6c-0.8-0.3-2.4-0.6-2.9-1.4c-0.5-0.8-0.2-2-0.1-2.8c-0.6,0.5-1.3,1-1.9,1.4
			c1.5,0.4,2.2,2.3,3.4,3.2c1.1,0.9,2.3,1.1,3.7,0.8c1.9-0.4,1.1-3.3-0.8-2.9c-1.3,0.3-2.5-2-3.2-2.7c-0.7-0.7-1.4-1.1-2.3-1.3
			c-1-0.3-1.8,0.5-1.9,1.4c-0.3,2.7,0.2,4.9,2.7,6.2c3,1.4,6.4,1.9,9.7,1.7C47.7,127,47.7,124,45.8,124.1L45.8,124.1z"/>
	</g>
</g>
<g>
	<g>
		<path class="st0" d="M93.8,66.4c1.9,0,1.9-3,0-3C91.8,63.4,91.8,66.4,93.8,66.4L93.8,66.4z"/>
	</g>
</g>
<g>
	<g>
		<path class="st0" d="M93.5,66.4c1.9,0,1.9-3,0-3C91.6,63.4,91.6,66.4,93.5,66.4L93.5,66.4z"/>
	</g>
</g>
<g>
	<g>
		<path class="st0" d="M92.8,64.9c1.9,0,1.9-3,0-3C90.8,61.9,90.8,64.9,92.8,64.9L92.8,64.9z"/>
	</g>
</g>
<g>
	<g>
		<path class="st0" d="M92.8,63.4c1.9,0,1.9-3,0-3C90.8,60.4,90.8,63.4,92.8,63.4L92.8,63.4z"/>
	</g>
</g>
<g>
	<g>
		<path class="st0" d="M92,62.1c1.9,0,1.9-3,0-3C90.1,59.1,90.1,62.1,92,62.1L92,62.1z"/>
	</g>
</g>
<g>
	<g>
		<path class="st0" d="M91.5,60.6c1.9,0,1.9-3,0-3C89.6,57.6,89.6,60.6,91.5,60.6L91.5,60.6z"/>
	</g>
</g>
<g>
	<g>
		<path class="st0" d="M90.5,59.6c1.9,0,1.9-3,0-3C88.6,56.6,88.6,59.6,90.5,59.6L90.5,59.6z"/>
	</g>
</g>
<g>
	<g>
		<path class="st0" d="M90.3,59.1c1.9,0,1.9-3,0-3C88.3,56.1,88.3,59.1,90.3,59.1L90.3,59.1z"/>
	</g>
</g>
<g>
	<g>
		<path class="st0" d="M89.5,58.4c1.9,0,1.9-3,0-3C87.6,55.4,87.6,58.4,89.5,58.4L89.5,58.4z"/>
	</g>
</g>
<g>
	<g>
		<path class="st0" d="M87,57.6c1.9,0,1.9-3,0-3C85.1,54.6,85.1,57.6,87,57.6L87,57.6z"/>
	</g>
</g>
<g>
	<g>
		<path class="st0" d="M85.3,56.9c1.9,0,1.9-3,0-3C83.3,53.9,83.3,56.9,85.3,56.9L85.3,56.9z"/>
	</g>
</g>
<g>
	<g>
		<path class="st0" d="M84.3,56.1c1.9,0,1.9-3,0-3C82.3,53.1,82.3,56.1,84.3,56.1L84.3,56.1z"/>
	</g>
</g>
<g>
	<g>
		<path class="st0" d="M83,55.9c1.9,0,1.9-3,0-3C81.1,52.9,81.1,55.9,83,55.9L83,55.9z"/>
	</g>
</g>
<g>
	<g>
		<path class="st0" d="M79.8,54.9c1.9,0,1.9-3,0-3C77.8,51.9,77.8,54.9,79.8,54.9L79.8,54.9z"/>
	</g>
</g>
<g>
	<g>
		<path class="st0" d="M78.5,54.4c1.9,0,1.9-3,0-3C76.6,51.4,76.6,54.4,78.5,54.4L78.5,54.4z"/>
	</g>
</g>
<g>
	<g>
		<path class="st0" d="M82,54.6c1.9,0,1.9-3,0-3C80.1,51.6,80.1,54.6,82,54.6L82,54.6z"/>
	</g>
</g>
<g>
	<g>
		<path class="st0" d="M77.5,51.4c-0.1,0-0.2,0-0.3,0c-0.8,0-1.5,0.7-1.5,1.5c0,0.8,0.7,1.5,1.5,1.5c0.1,0,0.2,0,0.3,0
			c0.8,0,1.5-0.7,1.5-1.5C79,52,78.4,51.4,77.5,51.4L77.5,51.4z"/>
	</g>
</g>
<g>
	<g>
		<path class="st0" d="M73,51.4c-0.3,0-0.5,0-0.8,0c-0.8,0-1.5,0.7-1.5,1.5c0,0.8,0.7,1.5,1.5,1.5c0.3,0,0.5,0,0.8,0
			c0.8,0,1.5-0.7,1.5-1.5C74.5,52,73.9,51.4,73,51.4L73,51.4z"/>
	</g>
</g>
<g>
	<g>
		<path class="st0" d="M69.3,54.4c1.9,0,1.9-3,0-3C67.3,51.4,67.3,54.4,69.3,54.4L69.3,54.4z"/>
	</g>
</g>
<g>
	<g>
		<path class="st0" d="M66,54.1c1.9,0,1.9-3,0-3C64.1,51.1,64.1,54.1,66,54.1L66,54.1z"/>
	</g>
</g>
<g>
	<g>
		<path class="st0" d="M64,54.1c1.9,0,1.9-3,0-3C62.1,51.1,62.1,54.1,64,54.1L64,54.1z"/>
	</g>
</g>
<g>
	<g>
		<path class="st0" d="M53.8,54.6c1.9,0,1.9-3,0-3C51.8,51.6,51.8,54.6,53.8,54.6L53.8,54.6z"/>
	</g>
</g>
<g>
	<g>
		<path class="st0" d="M51,55.1c1.9,0,1.9-3,0-3C49.1,52.1,49.1,55.1,51,55.1L51,55.1z"/>
	</g>
</g>
<g>
	<g>
		<path class="st0" d="M58.8,54.6c1.9,0,1.9-3,0-3C56.8,51.6,56.8,54.6,58.8,54.6L58.8,54.6z"/>
	</g>
</g>
<g>
	<g>
		<path class="st0" d="M53.3,54.1c1.9,0,1.9-3,0-3C51.3,51.1,51.3,54.1,53.3,54.1L53.3,54.1z"/>
	</g>
</g>
<g>
	<g>
		<path class="st0" d="M48.5,51.6c-0.1,0.1-0.2,0.2-0.3,0.3c-0.6,0.6-0.6,1.5,0,2.1c0.6,0.6,1.5,0.6,2.1,0c0.1-0.1,0.2-0.2,0.3-0.3
			c0.6-0.6,0.6-1.5,0-2.1C50,51,49,51,48.5,51.6L48.5,51.6z"/>
	</g>
</g>
<g>
	<g>
		<path class="st0" d="M46.8,55.1c1.9,0,1.9-3,0-3C44.8,52.1,44.8,55.1,46.8,55.1L46.8,55.1z"/>
	</g>
</g>
<g>
	<g>
		<path class="st0" d="M41.5,55.4c1.9,0,1.9-3,0-3C39.6,52.4,39.6,55.4,41.5,55.4L41.5,55.4z"/>
	</g>
</g>
<g>
	<g>
		<path class="st0" d="M46.3,54.9c1.9,0,1.9-3,0-3C44.3,51.9,44.3,54.9,46.3,54.9L46.3,54.9z"/>
	</g>
</g>
<g>
	<g>
		<path class="st0" d="M42.5,54.9c1.9,0,1.9-3,0-3C40.6,51.9,40.6,54.9,42.5,54.9L42.5,54.9z"/>
	</g>
</g>
<g>
	<g>
		<path class="st0" d="M41,57.4c1.9,0,1.9-3,0-3C39.1,54.4,39.1,57.4,41,57.4L41,57.4z"/>
	</g>
</g>
<g>
	<g>
		<path class="st0" d="M38.3,60.6c1.9,0,1.9-3,0-3C36.3,57.6,36.3,60.6,38.3,60.6L38.3,60.6z"/>
	</g>
</g>
<g>
	<g>
		<path class="st0" d="M35.8,63.9c1.9,0,1.9-3,0-3C33.8,60.9,33.8,63.9,35.8,63.9L35.8,63.9z"/>
	</g>
</g>
<g>
	<g>
		<path class="st0" d="M35.8,65.6c1.9,0,1.9-3,0-3C33.8,62.6,33.8,65.6,35.8,65.6L35.8,65.6z"/>
	</g>
</g>
<g>
	<g>
		<path class="st0" d="M35.8,67.1c1.9,0,1.9-3,0-3C33.8,64.1,33.8,67.1,35.8,67.1L35.8,67.1z"/>
	</g>
</g>
<g>
	<g>
		<path class="st0" d="M35.3,64.4c1.9,0,1.9-3,0-3C33.3,61.4,33.3,64.4,35.3,64.4L35.3,64.4z"/>
	</g>
</g>
<g>
	<g>
		<path class="st0" d="M35.3,63.1c1.9,0,1.9-3,0-3C33.3,60.1,33.3,63.1,35.3,63.1L35.3,63.1z"/>
	</g>
</g>
<g>
	<g>
		<path class="st0" d="M35.8,60.9c1.9,0,1.9-3,0-3C33.8,57.9,33.8,60.9,35.8,60.9L35.8,60.9z"/>
	</g>
</g>
<g>
	<g>
		<path class="st0" d="M36.5,59.6c1.9,0,1.9-3,0-3C34.6,56.6,34.6,59.6,36.5,59.6L36.5,59.6z"/>
	</g>
</g>
<g>
	<g>
		<path class="st0" d="M37,58.1c1.9,0,1.9-3,0-3C35.1,55.1,35.1,58.1,37,58.1L37,58.1z"/>
	</g>
</g>
<g>
	<g>
		<path class="st0" d="M37.3,57.4c1.9,0,1.9-3,0-3C35.3,54.4,35.3,57.4,37.3,57.4L37.3,57.4z"/>
	</g>
</g>
<g>
	<g>
		<path class="st0" d="M33.8,66.6c1.9,0,1.9-3,0-3C31.8,63.6,31.8,66.6,33.8,66.6L33.8,66.6z"/>
	</g>
</g>
<g>
	<g>
		<path class="st0" d="M33.8,66.4c1.9,0,1.9-3,0-3C31.8,63.4,31.8,66.4,33.8,66.4L33.8,66.4z"/>
	</g>
</g>
<g>
	<g>
		<path class="st0" d="M34.3,63.4c1.9,0,1.9-3,0-3C32.3,60.4,32.3,63.4,34.3,63.4L34.3,63.4z"/>
	</g>
</g>
<g>
	<g>
		<path class="st0" d="M35.8,61.4c1.9,0,1.9-3,0-3C33.8,58.4,33.8,61.4,35.8,61.4L35.8,61.4z"/>
	</g>
</g>
<g>
	<g>
		<path class="st0" d="M37.5,59.6c1.9,0,1.9-3,0-3C35.6,56.6,35.6,59.6,37.5,59.6L37.5,59.6z"/>
	</g>
</g>
<g>
	<g>
		<path class="st0" d="M38.3,58.6c1.9,0,1.9-3,0-3C36.3,55.6,36.3,58.6,38.3,58.6L38.3,58.6z"/>
	</g>
</g>
<g>
	<g>
		<path class="st0" d="M39,57.4c1.9,0,1.9-3,0-3C37.1,54.4,37.1,57.4,39,57.4L39,57.4z"/>
	</g>
</g>
<g>
	<g>
		<path class="st0" d="M39.5,56.6c1.9,0,1.9-3,0-3C37.6,53.6,37.6,56.6,39.5,56.6L39.5,56.6z"/>
	</g>
</g>
<g>
	<g>
		<path class="st0" d="M40,54.9c1.9,0,1.9-3,0-3C38.1,51.9,38.1,54.9,40,54.9L40,54.9z"/>
	</g>
</g>
<g>
	<g>
		<path class="st0" d="M38,54.9c1.9,0,1.9-3,0-3C36.1,51.9,36.1,54.9,38,54.9L38,54.9z"/>
	</g>
</g>
<g>
	<g>
		<path class="st0" d="M38,54.6c1.9,0,1.9-3,0-3C36.1,51.6,36.1,54.6,38,54.6L38,54.6z"/>
	</g>
</g>
<g>
	<g>
		<path class="st0" d="M40.3,52.6c0.3-0.2,0.5-0.3,0.8-0.5c0.7-0.4,1-1.3,0.5-2.1c-0.4-0.7-1.4-1-2.1-0.5c-0.3,0.2-0.5,0.3-0.8,0.5
			c-0.7,0.4-1,1.3-0.5,2.1C38.6,52.8,39.6,53.1,40.3,52.6L40.3,52.6z"/>
	</g>
</g>
<g>
	<g>
		<path class="st0" d="M41.5,51.9c1.9,0,1.9-3,0-3C39.6,48.9,39.6,51.9,41.5,51.9L41.5,51.9z"/>
	</g>
</g>
<g>
	<g>
		<path class="st0" d="M42.3,50.4c1.9,0,1.9-3,0-3C40.3,47.4,40.3,50.4,42.3,50.4L42.3,50.4z"/>
	</g>
</g>
<g>
	<g>
		<path class="st0" d="M44.3,49.4c0.2-0.1,0.3-0.2,0.5-0.3c0.7-0.4,0.9-1.4,0.5-2.1c-0.4-0.7-1.3-0.9-2.1-0.5
			c-0.2,0.1-0.3,0.2-0.5,0.3c-0.7,0.4-0.9,1.4-0.5,2.1C42.7,49.6,43.6,49.8,44.3,49.4L44.3,49.4z"/>
	</g>
</g>
<g>
	<g>
		<path class="st0" d="M45.3,48.4c1.9,0,1.9-3,0-3C43.3,45.4,43.3,48.4,45.3,48.4L45.3,48.4z"/>
	</g>
</g>
<g>
	<g>
		<path class="st0" d="M48.3,46.7c0.1-0.1,0.2-0.2,0.3-0.3c0.6-0.6,0.6-1.5,0-2.1c-0.6-0.6-1.5-0.6-2.1,0c-0.1,0.1-0.2,0.2-0.3,0.3
			c-0.6,0.6-0.6,1.5,0,2.1C46.8,47.2,47.8,47.2,48.3,46.7L48.3,46.7z"/>
	</g>
</g>
<g>
	<g>
		<path class="st0" d="M49.5,46.1c0.3,0,0.7,0,1,0c0.8,0,1.5-0.7,1.5-1.5c0-0.8-0.7-1.5-1.5-1.5c-0.3,0-0.7,0-1,0
			c-0.8,0-1.5,0.7-1.5,1.5C48.1,45.4,48.7,46.1,49.5,46.1L49.5,46.1z"/>
	</g>
</g>
<g>
	<g>
		<path class="st0" d="M52.5,45.9c1.9,0,1.9-3,0-3C50.6,42.9,50.6,45.9,52.5,45.9L52.5,45.9z"/>
	</g>
</g>
<g>
	<g>
		<path class="st0" d="M55,45.7c0.2-0.1,0.3-0.2,0.5-0.3c0.7-0.4,0.9-1.4,0.5-2.1c-0.4-0.7-1.3-0.9-2.1-0.5
			c-0.2,0.1-0.3,0.2-0.5,0.3c-0.7,0.4-0.9,1.4-0.5,2.1C53.4,45.9,54.3,46,55,45.7L55,45.7z"/>
	</g>
</g>
<g>
	<g>
		<path class="st0" d="M57,45.6c0.1,0,0.2,0,0.3,0c0.8,0,1.5-0.7,1.5-1.5c0-0.8-0.7-1.5-1.5-1.5c-0.1,0-0.2,0-0.3,0
			c-0.8,0-1.5,0.7-1.5,1.5C55.6,44.9,56.2,45.6,57,45.6L57,45.6z"/>
	</g>
</g>
<g>
	<g>
		<path class="st0" d="M60.5,45.6c0.3,0,0.7,0,1,0c0.8,0,1.5-0.7,1.5-1.5c0-0.8-0.7-1.5-1.5-1.5c-0.3,0-0.7,0-1,0
			c-0.8,0-1.5,0.7-1.5,1.5C59.1,44.9,59.7,45.6,60.5,45.6L60.5,45.6z"/>
	</g>
</g>
<g>
	<g>
		<path class="st0" d="M63.5,45.4c0.1,0,0.2,0,0.3,0c0.8,0,1.5-0.7,1.5-1.5c0-0.8-0.7-1.5-1.5-1.5c-0.1,0-0.2,0-0.3,0
			c-0.8,0-1.5,0.7-1.5,1.5C62.1,44.7,62.7,45.4,63.5,45.4L63.5,45.4z"/>
	</g>
</g>
<g>
	<g>
		<path class="st0" d="M67,45.1c1.9,0,1.9-3,0-3C65.1,42.1,65.1,45.1,67,45.1L67,45.1z"/>
	</g>
</g>
<g>
	<g>
		<path class="st0" d="M67,45.1c1.9,0,1.9-3,0-3C65.1,42.1,65.1,45.1,67,45.1L67,45.1z"/>
	</g>
</g>
<g>
	<g>
		<path class="st0" d="M59.3,45.1c1.9,0,1.9-3,0-3C57.3,42.1,57.3,45.1,59.3,45.1L59.3,45.1z"/>
	</g>
</g>
<g>
	<g>
		<path class="st0" d="M67.3,45.1c1.9,0,1.9-3,0-3C65.3,42.1,65.3,45.1,67.3,45.1L67.3,45.1z"/>
	</g>
</g>
<g>
	<g>
		<path class="st0" d="M69,45.1c0.1,0,0.2,0,0.3,0c0.8,0,1.5-0.7,1.5-1.5c0-0.8-0.7-1.5-1.5-1.5c-0.1,0-0.2,0-0.3,0
			c-0.8,0-1.5,0.7-1.5,1.5C67.6,44.4,68.2,45.1,69,45.1L69,45.1z"/>
	</g>
</g>
<g>
	<g>
		<path class="st0" d="M70.5,45.1c1.9,0,1.9-3,0-3C68.6,42.1,68.6,45.1,70.5,45.1L70.5,45.1z"/>
	</g>
</g>
<g>
	<g>
		<path class="st0" d="M74.8,45.1c1.9,0,1.9-3,0-3C72.8,42.1,72.8,45.1,74.8,45.1L74.8,45.1z"/>
	</g>
</g>
<g>
	<g>
		<path class="st0" d="M75.8,45.1c0.1,0,0.2,0,0.3,0c0.8,0,1.5-0.7,1.5-1.5c0-0.8-0.7-1.5-1.5-1.5c-0.1,0-0.2,0-0.3,0
			c-0.8,0-1.5,0.7-1.5,1.5C74.3,44.4,74.9,45.1,75.8,45.1L75.8,45.1z"/>
	</g>
</g>
<g>
	<g>
		<path class="st0" d="M77.3,45.6c1.9,0,1.9-3,0-3C75.3,42.6,75.3,45.6,77.3,45.6L77.3,45.6z"/>
	</g>
</g>
<g>
	<g>
		<path class="st0" d="M73.5,45.4c1.9,0,1.9-3,0-3C71.6,42.4,71.6,45.4,73.5,45.4L73.5,45.4z"/>
	</g>
</g>
<g>
	<g>
		<path class="st0" d="M71.5,41.9c-0.1,0-0.2,0-0.3,0c-0.8,0-1.5,0.7-1.5,1.5c0,0.8,0.7,1.5,1.5,1.5c0.1,0,0.2,0,0.3,0
			c0.8,0,1.5-0.7,1.5-1.5C73,42.5,72.4,41.9,71.5,41.9L71.5,41.9z"/>
	</g>
</g>
<g>
	<g>
		<path class="st0" d="M65.8,44.9c1.9,0,1.9-3,0-3C63.8,41.9,63.8,44.9,65.8,44.9L65.8,44.9z"/>
	</g>
</g>
<g>
	<g>
		<path class="st0" d="M63.5,44.9c1.9,0,1.9-3,0-3C61.6,41.9,61.6,44.9,63.5,44.9L63.5,44.9z"/>
	</g>
</g>
<g>
	<g>
		<path class="st0" d="M78.5,45.9c1.9,0,1.9-3,0-3C76.6,42.9,76.6,45.9,78.5,45.9L78.5,45.9z"/>
	</g>
</g>
<g>
	<g>
		<path class="st0" d="M79.3,46.4c0.1,0,0.2,0,0.3,0c0.8,0,1.5-0.7,1.5-1.5c0-0.8-0.7-1.5-1.5-1.5c-0.1,0-0.2,0-0.3,0
			c-0.8,0-1.5,0.7-1.5,1.5C77.8,45.7,78.4,46.4,79.3,46.4L79.3,46.4z"/>
	</g>
</g>
<g>
	<g>
		<path class="st0" d="M80.5,46.4c0.3,0.2,0.7,0.3,1,0.5c0.7,0.4,1.6,0.2,2.1-0.5c0.4-0.7,0.2-1.7-0.5-2.1c-0.3-0.2-0.7-0.3-1-0.5
			c-0.7-0.4-1.6-0.2-2.1,0.5C79.6,45,79.8,46,80.5,46.4L80.5,46.4z"/>
	</g>
</g>
<g>
	<g>
		<path class="st0" d="M83.8,47.6c0.1,0,0.2,0,0.3,0c0.8,0,1.5-0.7,1.5-1.5c0-0.8-0.7-1.5-1.5-1.5c-0.1,0-0.2,0-0.3,0
			c-0.8,0-1.5,0.7-1.5,1.5C82.3,46.9,82.9,47.6,83.8,47.6L83.8,47.6z"/>
	</g>
</g>
<g>
	<g>
		<path class="st0" d="M84.8,48.6c1.9,0,1.9-3,0-3C82.8,45.6,82.8,48.6,84.8,48.6L84.8,48.6z"/>
	</g>
</g>
<g>
	<g>
		<path class="st0" d="M84,48.7c0.2,0.2,0.3,0.3,0.5,0.5c0.6,0.6,1.5,0.6,2.1,0c0.6-0.6,0.6-1.5,0-2.1c-0.2-0.2-0.3-0.3-0.5-0.5
			c-0.6-0.6-1.5-0.6-2.1,0C83.4,47.1,83.4,48.1,84,48.7L84,48.7z"/>
	</g>
</g>
<g>
	<g>
		<path class="st0" d="M85.5,50.1c0.2,0.1,0.3,0.2,0.5,0.3c0.7,0.4,1.6,0.2,2.1-0.5c0.4-0.7,0.2-1.7-0.5-2.1
			c-0.2-0.1-0.3-0.2-0.5-0.3c-0.7-0.4-1.6-0.2-2.1,0.5C84.6,48.7,84.8,49.8,85.5,50.1L85.5,50.1z"/>
	</g>
</g>
<g>
	<g>
		<path class="st0" d="M86.2,50.7c0.1,0.1,0.2,0.2,0.3,0.3c0.6,0.6,1.5,0.6,2.1,0c0.6-0.6,0.6-1.5,0-2.1c-0.1-0.1-0.2-0.2-0.3-0.3
			c-0.6-0.6-1.5-0.6-2.1,0C85.6,49.1,85.6,50.1,86.2,50.7L86.2,50.7z"/>
	</g>
</g>
<g>
	<g>
		<path class="st0" d="M87.2,52.1c0.2,0.3,0.3,0.5,0.5,0.8c0.4,0.7,1.3,1,2.1,0.5c0.7-0.4,1-1.4,0.5-2.1c-0.2-0.3-0.3-0.5-0.5-0.8
			c-0.4-0.7-1.3-1-2.1-0.5C87.1,50.5,86.8,51.4,87.2,52.1L87.2,52.1z"/>
	</g>
</g>
<g>
	<g>
		<path class="st0" d="M90,55.1c1.9,0,1.9-3,0-3C88.1,52.1,88.1,55.1,90,55.1L90,55.1z"/>
	</g>
</g>
<g>
	<g>
		<path class="st0" d="M89.5,55.7c0.1,0.1,0.2,0.2,0.3,0.3c0.6,0.6,1.5,0.6,2.1,0c0.6-0.6,0.6-1.5,0-2.1c-0.1-0.1-0.2-0.2-0.3-0.3
			C91,53,90,53,89.5,53.6C88.9,54.1,88.9,55.1,89.5,55.7L89.5,55.7z"/>
	</g>
</g>
<g>
	<g>
		<path class="st0" d="M89.8,56.1c0,0.1,0,0.2,0,0.3c0,0.8,0.7,1.5,1.5,1.5c0.8,0,1.5-0.7,1.5-1.5c0-0.1,0-0.2,0-0.3
			c0-0.8-0.7-1.5-1.5-1.5C90.5,54.6,89.8,55.3,89.8,56.1L89.8,56.1z"/>
	</g>
</g>
<g>
	<g>
		<path class="st0" d="M92,59.4c1.9,0,1.9-3,0-3C90.1,56.4,90.1,59.4,92,59.4L92,59.4z"/>
	</g>
</g>
<g>
	<g>
		<path class="st0" d="M91.3,58.6c0,0.1,0,0.2,0,0.3c0,0.8,0.7,1.5,1.5,1.5c0.8,0,1.5-0.7,1.5-1.5c0-0.1,0-0.2,0-0.3
			c0-0.8-0.7-1.5-1.5-1.5C92,57.1,91.3,57.8,91.3,58.6L91.3,58.6z"/>
	</g>
</g>
<g>
	<g>
		<path class="st0" d="M92,61.4c0.1,0.2,0.2,0.3,0.3,0.5c0.4,0.7,1.4,0.9,2.1,0.5c0.7-0.4,0.9-1.3,0.5-2.1c-0.1-0.2-0.2-0.3-0.3-0.5
			c-0.4-0.7-1.4-0.9-2.1-0.5C91.8,59.7,91.6,60.6,92,61.4L92,61.4z"/>
	</g>
</g>
<g>
	<g>
		<path class="st0" d="M93,63.9c0.1,0.1,0.2,0.2,0.3,0.3c0.6,0.6,1.5,0.6,2.1,0c0.6-0.6,0.6-1.5,0-2.1c-0.1-0.1-0.2-0.2-0.3-0.3
			c-0.6-0.6-1.5-0.6-2.1,0C92.4,62.4,92.4,63.3,93,63.9L93,63.9z"/>
	</g>
</g>
<g>
	<g>
		<path class="st0" d="M95,67.9c1.9,0,1.9-3,0-3C93.1,64.9,93.1,67.9,95,67.9L95,67.9z"/>
	</g>
</g>
<g>
	<g>
		<path class="st0" d="M94.5,82.4c1.9,0,1.9-3,0-3C92.6,79.4,92.6,82.4,94.5,82.4L94.5,82.4z"/>
	</g>
</g>
<g>
	<g>
		<path class="st0" d="M93,83.9c0,0.2,0,0.3,0,0.5c0,0.8,0.7,1.5,1.5,1.5c0.8,0,1.5-0.7,1.5-1.5c0-0.2,0-0.3,0-0.5
			c0-0.8-0.7-1.5-1.5-1.5C93.7,82.4,93,83,93,83.9L93,83.9z"/>
	</g>
</g>
<g>
	<g>
		<path class="st0" d="M93,88.6c0,0.2,0,0.3,0,0.5c0,0.8,0.7,1.5,1.5,1.5c0.8,0,1.5-0.7,1.5-1.5c0-0.2,0-0.3,0-0.5
			c0-0.8-0.7-1.5-1.5-1.5C93.7,87.1,93,87.8,93,88.6L93,88.6z"/>
	</g>
</g>
<g>
	<g>
		<path class="st0" d="M93.5,92.4c0.2,0.2,0.3,0.3,0.5,0.5c0.6,0.6,1.5,0.6,2.1,0c0.6-0.6,0.6-1.5,0-2.1c-0.2-0.2-0.3-0.3-0.5-0.5
			c-0.6-0.6-1.5-0.6-2.1,0C92.9,90.9,92.9,91.8,93.5,92.4L93.5,92.4z"/>
	</g>
</g>
<g>
	<g>
		<path class="st0" d="M94,94.4c0,0.1,0,0.2,0,0.3c0,0.8,0.7,1.5,1.5,1.5c0.8,0,1.5-0.7,1.5-1.5c0-0.1,0-0.2,0-0.3
			c0-0.8-0.7-1.5-1.5-1.5C94.7,92.9,94,93.5,94,94.4L94,94.4z"/>
	</g>
</g>
<g>
	<g>
		<path class="st0" d="M94,97.1c0,0.1,0,0.2,0,0.3c0,0.8,0.7,1.5,1.5,1.5c0.8,0,1.5-0.7,1.5-1.5c0-0.1,0-0.2,0-0.3
			c0-0.8-0.7-1.5-1.5-1.5C94.7,95.6,94,96.3,94,97.1L94,97.1z"/>
	</g>
</g>
<g>
	<g>
		<path class="st0" d="M95.5,99.9c1.9,0,1.9-3,0-3C93.6,96.9,93.6,99.9,95.5,99.9L95.5,99.9z"/>
	</g>
</g>
<g>
	<g>
		<path class="st0" d="M95.5,101.1c1.9,0,1.9-3,0-3C93.6,98.1,93.6,101.1,95.5,101.1L95.5,101.1z"/>
	</g>
</g>
<g>
	<g>
		<path class="st0" d="M94,101.6c0,0.1,0,0.2,0,0.3c0,0.8,0.7,1.5,1.5,1.5c0.8,0,1.5-0.7,1.5-1.5c0-0.1,0-0.2,0-0.3
			c0-0.8-0.7-1.5-1.5-1.5C94.7,100.1,94,100.8,94,101.6L94,101.6z"/>
	</g>
</g>
<g>
	<g>
		<path class="st0" d="M93.8,103.6c0,0.4,0,0.8,0,1.3c0,0.8,0.7,1.5,1.5,1.5c0.8,0,1.5-0.7,1.5-1.5c0-0.4,0-0.8,0-1.3
			c0-0.8-0.7-1.5-1.5-1.5C94.5,102.1,93.8,102.8,93.8,103.6L93.8,103.6z"/>
	</g>
</g>
<g>
	<g>
		<path class="st0" d="M95,107.1c1.9,0,1.9-3,0-3C93.1,104.1,93.1,107.1,95,107.1L95,107.1z"/>
	</g>
</g>
<g>
	<g>
		<path class="st0" d="M95,112.6c1.9,0,1.9-3,0-3C93.1,109.6,93.1,112.6,95,112.6L95,112.6z"/>
	</g>
</g>
<g>
	<g>
		<path class="st0" d="M93.8,113.6c0,0.1,0,0.2,0,0.3c0,0.8,0.7,1.5,1.5,1.5c0.8,0,1.5-0.7,1.5-1.5c0-0.1,0-0.2,0-0.3
			c0-0.8-0.7-1.5-1.5-1.5C94.5,112.1,93.8,112.8,93.8,113.6L93.8,113.6z"/>
	</g>
</g>
<g>
	<g>
		<path class="st0" d="M93.8,115.1c0,0.3,0,0.5,0,0.8c0,0.8,0.7,1.5,1.5,1.5c0.8,0,1.5-0.7,1.5-1.5c0-0.3,0-0.5,0-0.8
			c0-0.8-0.7-1.5-1.5-1.5C94.5,113.6,93.8,114.3,93.8,115.1L93.8,115.1z"/>
	</g>
</g>
<g>
	<g>
		<path class="st0" d="M93.8,117.9c0,0.1,0,0.2,0,0.3c0,0.8,0.7,1.5,1.5,1.5c0.8,0,1.5-0.7,1.5-1.5c0-0.1,0-0.2,0-0.3
			c0-0.8-0.7-1.5-1.5-1.5C94.5,116.4,93.8,117,93.8,117.9L93.8,117.9z"/>
	</g>
</g>
<g>
	<g>
		<path class="st0" d="M93.8,120.1c0,0.1,0,0.2,0,0.3c0,0.8,0.7,1.5,1.5,1.5c0.8,0,1.5-0.7,1.5-1.5c0-0.1,0-0.2,0-0.3
			c0-0.8-0.7-1.5-1.5-1.5C94.5,118.6,93.8,119.3,93.8,120.1L93.8,120.1z"/>
	</g>
</g>
<g>
	<g>
		<path class="st0" d="M93.8,122.6c0,0.3,0,0.5,0,0.8c0,0.8,0.7,1.5,1.5,1.5c0.8,0,1.5-0.7,1.5-1.5c0-0.3,0-0.5,0-0.8
			c0-0.8-0.7-1.5-1.5-1.5C94.5,121.1,93.8,121.8,93.8,122.6L93.8,122.6z"/>
	</g>
</g>
<g>
	<g>
		<path class="st0" d="M94.8,127.1c1.9,0,1.9-3,0-3C92.8,124.1,92.8,127.1,94.8,127.1L94.8,127.1z"/>
	</g>
</g>
<g>
	<g>
		<path class="st0" d="M94.8,127.6c1.9,0,1.9-3,0-3C92.8,124.6,92.8,127.6,94.8,127.6L94.8,127.6z"/>
	</g>
</g>
<g>
	<g>
		<path class="st0" d="M92.8,127.1c0,0.1,0,0.2,0,0.3c0,0.8,0.7,1.5,1.5,1.5c0.8,0,1.5-0.7,1.5-1.5c0-0.1,0-0.2,0-0.3
			c0-0.8-0.7-1.5-1.5-1.5C93.5,125.6,92.8,126.3,92.8,127.1L92.8,127.1z"/>
	</g>
</g>
<g>
	<g>
		<path class="st0" d="M94,129.4c1.9,0,1.9-3,0-3C92.1,126.4,92.1,129.4,94,129.4L94,129.4z"/>
	</g>
</g>
<g>
	<g>
		<path class="st0" d="M93,129.6c1.9,0,1.9-3,0-3C91.1,126.6,91.1,129.6,93,129.6L93,129.6z"/>
	</g>
</g>
<g>
	<g>
		<path class="st0" d="M90.8,129.4c1.9,0,1.9-3,0-3C88.8,126.4,88.8,129.4,90.8,129.4L90.8,129.4z"/>
	</g>
</g>
<g>
	<g>
		<path class="st0" d="M89.5,129.4c1.9,0,1.9-3,0-3C87.6,126.4,87.6,129.4,89.5,129.4L89.5,129.4z"/>
	</g>
</g>
<g>
	<g>
		<path class="st0" d="M88.5,129.4c1.9,0,1.9-3,0-3C86.6,126.4,86.6,129.4,88.5,129.4L88.5,129.4z"/>
	</g>
</g>
<g>
	<g>
		<path class="st0" d="M87,129.4c1.9,0,1.9-3,0-3C85.1,126.4,85.1,129.4,87,129.4L87,129.4z"/>
	</g>
</g>
<g>
	<g>
		<path class="st0" d="M85.8,129.4c1.9,0,1.9-3,0-3C83.8,126.4,83.8,129.4,85.8,129.4L85.8,129.4z"/>
	</g>
</g>
<g>
	<g>
		<path class="st0" d="M84,129.4c1.9,0,1.9-3,0-3C82.1,126.4,82.1,129.4,84,129.4L84,129.4z"/>
	</g>
</g>
<g>
	<g>
		<path class="st0" d="M83,126.4c-0.1,0-0.2,0-0.3,0c-0.8,0-1.5,0.7-1.5,1.5c0,0.8,0.7,1.5,1.5,1.5c0.1,0,0.2,0,0.3,0
			c0.8,0,1.5-0.7,1.5-1.5C84.5,127,83.9,126.4,83,126.4L83,126.4z"/>
	</g>
</g>
<g>
	<g>
		<path class="st0" d="M80.8,129.4c1.9,0,1.9-3,0-3C78.8,126.4,78.8,129.4,80.8,129.4L80.8,129.4z"/>
	</g>
</g>
<g>
	<g>
		<path class="st0" d="M79.5,129.4c1.9,0,1.9-3,0-3C77.6,126.4,77.6,129.4,79.5,129.4L79.5,129.4z"/>
	</g>
</g>
<g>
	<g>
		<path class="st0" d="M50.8,130.1c1.9,0,1.9-3,0-3C48.8,127.1,48.8,130.1,50.8,130.1L50.8,130.1z"/>
	</g>
</g>
<g>
	<g>
		<path class="st0" d="M51.8,130.1c1.9,0,1.9-3,0-3C49.8,127.1,49.8,130.1,51.8,130.1L51.8,130.1z"/>
	</g>
</g>
<g>
	<g>
		<path class="st0" d="M53.5,128.4c1.9,0,1.9-3,0-3C51.6,125.4,51.6,128.4,53.5,128.4L53.5,128.4z"/>
	</g>
</g>
<g>
	<g>
		<path class="st0" d="M52,126.4c0,0.1,0,0.2,0,0.3c0,0.8,0.7,1.5,1.5,1.5c0.8,0,1.5-0.7,1.5-1.5c0-0.1,0-0.2,0-0.3
			c0-0.8-0.7-1.5-1.5-1.5C52.7,124.9,52,125.5,52,126.4L52,126.4z"/>
	</g>
</g>
<g>
	<g>
		<path class="st0" d="M52.3,127.1c-0.1,0-0.2,0-0.3,0c-0.8,0-1.5,0.7-1.5,1.5c0,0.8,0.7,1.5,1.5,1.5c0.1,0,0.2,0,0.3,0
			c0.8,0,1.5-0.7,1.5-1.5C53.7,127.8,53.1,127.1,52.3,127.1L52.3,127.1z"/>
	</g>
</g>
<g>
	<g>
		<path class="st0" d="M49.5,127.4c-0.2,0-0.3,0-0.5,0c-0.8,0-1.5,0.7-1.5,1.5c0,0.8,0.7,1.5,1.5,1.5c0.2,0,0.3,0,0.5,0
			c0.8,0,1.5-0.7,1.5-1.5C51,128,50.4,127.4,49.5,127.4L49.5,127.4z"/>
	</g>
</g>
<g>
	<g>
		<path class="st0" d="M47,128.1c-0.1,0-0.2,0-0.3,0c-0.8,0-1.5,0.7-1.5,1.5c0,0.8,0.7,1.5,1.5,1.5c0.1,0,0.2,0,0.3,0
			c0.8,0,1.5-0.7,1.5-1.5C48.5,128.8,47.9,128.1,47,128.1L47,128.1z"/>
	</g>
</g>
<g>
	<g>
		<path class="st0" d="M45.5,131.1c1.9,0,1.9-3,0-3C43.6,128.1,43.6,131.1,45.5,131.1L45.5,131.1z"/>
	</g>
</g>
<g>
	<g>
		<path class="st0" d="M44.3,131.1c1.9,0,1.9-3,0-3C42.3,128.1,42.3,131.1,44.3,131.1L44.3,131.1z"/>
	</g>
</g>
<g>
	<g>
		<path class="st0" d="M42.5,131.1c1.9,0,1.9-3,0-3C40.6,128.1,40.6,131.1,42.5,131.1L42.5,131.1z"/>
	</g>
</g>
<g>
	<g>
		<path class="st0" d="M41.8,128.1c-0.1,0-0.2,0-0.3,0c-0.8,0-1.5,0.7-1.5,1.5c0,0.8,0.7,1.5,1.5,1.5c0.1,0,0.2,0,0.3,0
			c0.8,0,1.5-0.7,1.5-1.5C43.2,128.8,42.6,128.1,41.8,128.1L41.8,128.1z"/>
	</g>
</g>
<g>
	<g>
		<path class="st0" d="M39.8,128.1c-0.1,0-0.2,0-0.3,0c-0.8,0-1.5,0.7-1.5,1.5c0,0.8,0.7,1.5,1.5,1.5c0.1,0,0.2,0,0.3,0
			c0.8,0,1.5-0.7,1.5-1.5C41.2,128.8,40.6,128.1,39.8,128.1L39.8,128.1z"/>
	</g>
</g>
<g>
	<g>
		<path class="st0" d="M37,127.9c-0.2,0-0.3,0-0.5,0c-0.8,0-1.5,0.7-1.5,1.5c0,0.8,0.7,1.5,1.5,1.5c0.2,0,0.3,0,0.5,0
			c0.8,0,1.5-0.7,1.5-1.5C38.5,128.5,37.9,127.9,37,127.9L37,127.9z"/>
	</g>
</g>
<g>
	<g>
		<path class="st0" d="M34.3,130.6c1.9,0,1.9-3,0-3C32.3,127.6,32.3,130.6,34.3,130.6L34.3,130.6z"/>
	</g>
</g>
<g>
	<g>
		<path class="st0" d="M33.5,129.6c1.9,0,1.9-3,0-3C31.6,126.6,31.6,129.6,33.5,129.6L33.5,129.6z"/>
	</g>
</g>
<g>
	<g>
		<path class="st0" d="M34.8,129.4c0.3,0,0.7,0,1,0c0.8,0,1.5-0.7,1.5-1.5c0-0.8-0.7-1.5-1.5-1.5c-0.3,0-0.7,0-1,0
			c-0.8,0-1.5,0.7-1.5,1.5C33.3,128.7,33.9,129.4,34.8,129.4L34.8,129.4z"/>
	</g>
</g>
<g>
	<g>
		<path class="st0" d="M38.3,129.4c1.9,0,1.9-3,0-3C36.3,126.4,36.3,129.4,38.3,129.4L38.3,129.4z"/>
	</g>
</g>
<g>
	<g>
		<path class="st0" d="M39.3,129.4c0.1,0,0.2,0,0.3,0c0.8,0,1.5-0.7,1.5-1.5c0-0.8-0.7-1.5-1.5-1.5c-0.1,0-0.2,0-0.3,0
			c-0.8,0-1.5,0.7-1.5,1.5C37.8,128.7,38.4,129.4,39.3,129.4L39.3,129.4z"/>
	</g>
</g>
<g>
	<g>
		<path class="st0" d="M41.8,129.1c0.3,0,0.5,0,0.8,0c0.8,0,1.5-0.7,1.5-1.5c0-0.8-0.7-1.5-1.5-1.5c-0.3,0-0.5,0-0.8,0
			c-0.8,0-1.5,0.7-1.5,1.5C40.3,128.4,40.9,129.1,41.8,129.1L41.8,129.1z"/>
	</g>
</g>
<g>
	<g>
		<path class="st0" d="M43.4,129c0.3-0.1,0.5-0.2,0.8-0.2c0.8-0.2,1.3-1,1-1.8c-0.2-0.8-1.1-1.3-1.8-1c-0.3,0.1-0.5,0.2-0.8,0.2
			c-0.8,0.2-1.3,1-1,1.8C41.8,128.7,42.6,129.3,43.4,129L43.4,129z"/>
	</g>
</g>
<g>
	<g>
		<path class="st0" d="M45.8,128.9c1.9,0,1.9-3,0-3C43.8,125.9,43.8,128.9,45.8,128.9L45.8,128.9z"/>
	</g>
</g>
<g>
	<g>
		<path class="st0" d="M46.8,128.9c1.9,0,1.9-3,0-3C44.8,125.9,44.8,128.9,46.8,128.9L46.8,128.9z"/>
	</g>
</g>
<g>
	<g>
		<path class="st0" d="M42.5,125.9c1.9,0,1.9-3,0-3C40.6,122.9,40.6,125.9,42.5,125.9L42.5,125.9z"/>
	</g>
</g>
<g>
	<g>
		<path class="st0" d="M77.8,127.9c1.9,0,1.9-3,0-3C75.8,124.9,75.8,127.9,77.8,127.9L77.8,127.9z"/>
	</g>
</g>
<g>
	<g>
		<path class="st0" d="M78.5,127.1c1.9,0,1.9-3,0-3C76.6,124.1,76.6,127.1,78.5,127.1L78.5,127.1z"/>
	</g>
</g>
<g>
	<g>
		<path class="st0" d="M78.8,126.4c1.9,0,1.9-3,0-3C76.8,123.4,76.8,126.4,78.8,126.4L78.8,126.4z"/>
	</g>
</g>
<g>
	<g>
		<path class="st0" d="M78.8,129.6c1.9,0,1.9-3,0-3C76.8,126.6,76.8,129.6,78.8,129.6L78.8,129.6z"/>
	</g>
</g>
<path class="st1" d="M69.3,245.7h26v-41.3c0-3.3-2.7-6-6-6h-14c-3.3,0-6,2.7-6,6V245.7z"/>
<path class="st1" d="M36.9,245.5h26v-41.3c0-3.3-2.7-6-6-6h-14c-3.3,0-6,2.7-6,6V245.5z"/>
<path class="st2" d="M97,197.3c-4.5-0.2-5.2-1.2-32.8-1.2c-26.6,0-19.9,6-32.5,0C15.5,188.5,15,117.4,63.5,117
	C119,116.6,112.6,197.9,97,197.3z"/>
<path class="st3" d="M95.9,205.2H35c-1.8,0-3.2-1.4-3.2-3.2v-9.2c0-1.8,1.4-3.2,3.2-3.2h60.9c1.8,0,3.2,1.4,3.2,3.2v9.2
	C99.1,203.7,97.6,205.2,95.9,205.2z"/>
<path class="st2" d="M91.5,158.3l-4.3-22.2c-1.2-6.1,2.9-12.1,9-13.3l6.5-1.2c6.1-1.2,12.1,2.9,13.3,9l4.3,22.2
	c1.2,6.1-2.9,12.1-9,13.3l-6.5,1.2C98.6,168.4,92.7,164.4,91.5,158.3z"/>
<rect x="94" y="160.5" transform="matrix(0.1888 0.982 -0.982 0.1888 259.3471 26.4716)" class="st4" width="39.3" height="19.5"/>
<circle class="st4" cx="117" cy="187.8" r="10.7"/>
<path class="st2" d="M39.9,159.6l4.3-22.2c1.2-6.1-2.9-12.1-9-13.3l-6.5-1.2c-6.1-1.2-12.1,2.9-13.3,9l-4.3,22.2
	c-1.2,6.1,2.9,12.1,9,13.3l6.5,1.2C32.7,169.8,38.7,165.8,39.9,159.6z"/>
<rect x="-2.1" y="162.9" transform="matrix(-0.1888 0.982 -0.982 -0.1888 190.2447 187.8552)" class="st4" width="39.3" height="19.2"/>
<path class="st5" d="M75.6,206H55.1c-2.1,0-3.7-1.7-3.7-3.7v-8.9c0-2.1,1.7-3.7,3.7-3.7h20.4c2.1,0,3.7,1.7,3.7,3.7v8.9
	C79.3,204.3,77.6,206,75.6,206z"/>
<g>
	<path class="st6" d="M111,265.3H68.8V242H93c9.9,0,18,8.1,18,18V265.3z"/>
	<rect x="68.8" y="261.4" class="st7" width="42.2" height="3.9"/>
	<rect x="68.8" y="263.4" class="st8" width="42.2" height="1"/>
	<g>
		<g>
			<path class="st9" d="M100.5,245.6c0.7,3-2.4,4.9-4.6,6.2c-1.1,0.6-0.1,2.4,1,1.7c3.1-1.8,6.4-4.4,5.5-8.5
				C102.1,243.8,100.2,244.3,100.5,245.6L100.5,245.6z"/>
		</g>
	</g>
</g>
<g>
	<path class="st6" d="M21.1,265.3h42.2V242H39.1c-9.9,0-18,8.1-18,18V265.3z"/>
	
		<rect x="21.1" y="261.4" transform="matrix(-1 -4.494994e-11 4.494994e-11 -1 84.3263 526.7581)" class="st7" width="42.2" height="3.9"/>
	
		<rect x="21.1" y="263.4" transform="matrix(-1 -4.494994e-11 4.494994e-11 -1 84.3263 527.7332)" class="st8" width="42.2" height="1"/>
	<g>
		<g>
			<path class="st9" d="M29.7,245.1c-0.9,4,2.4,6.7,5.5,8.5c1.1,0.6,2.1-1.1,1-1.7c-2.2-1.3-5.3-3.2-4.6-6.2
				C31.9,244.3,29.9,243.8,29.7,245.1L29.7,245.1z"/>
		</g>
	</g>
</g>
<path class="st9" d="M92.4,245.7H72.6c-2.9,0-5.2-2.3-5.2-5.2v-2.2c0-2.9,2.3-5.2,5.2-5.2h19.8c2.9,0,5.2,2.3,5.2,5.2v2.2
	C97.6,243.4,95.3,245.7,92.4,245.7z"/>
<circle class="st4" cx="13.4" cy="190.5" r="10.7"/>
<path class="st10" d="M95.4,80.1h-3.1v-14h3.1c1.1,0,2,0.9,2,2v10C97.4,79.2,96.5,80.1,95.4,80.1z"/>
<g>
	<path class="st4" d="M67.3,126.2h-6c-13.8,0-25-11.2-25-25v-40c0-8.3,6.7-15,15-15h26c8.3,0,15,6.7,15,15v40
		C92.3,115,81.1,126.2,67.3,126.2z"/>
</g>
<path class="st11" d="M87.8,91c7.9,4.3,3.1,19.7,2.8,11.4c-0.1-3.9-9.9,0.1-15.5,0.1c-6,0-11.3-3.9-11.3-11.5
	c0-7.6,7.7-6.9,13.5-4.6C83.5,88.9,87.8,91,87.8,91z"/>
<path class="st11" d="M42.3,91c-7.9,4.3-3.1,19.7-2.8,11.4c0.1-3.9,9.9,0.1,15.5,0.1c6,0,11.3-3.9,11.3-11.5c0-7.6-7.7-6.9-13.5-4.6
	C46.5,88.9,42.3,91,42.3,91z"/>
<path class="st12" d="M59,63.4H43.6c-1.1,0-2-0.9-2-2V61c0-1.1,0.9-2,2-2H59c1.1,0,2,0.9,2,2v0.4C61,62.5,60.1,63.4,59,63.4z"/>
<path class="st12" d="M85,63.4H69.6c-1.1,0-2-0.9-2-2V61c0-1.1,0.9-2,2-2H85c1.1,0,2,0.9,2,2v0.4C87,62.5,86.1,63.4,85,63.4z"/>
<circle class="st11" cx="53.1" cy="67.8" r="3"/>
<circle class="st11" cx="76" cy="67.8" r="3"/>
<path class="st10" d="M66.9,87.8H63c-1,0-1.7-1-1.7-2.2l0.4-5.6c0-1.2,0.4-3.1,1.3-3.1h3.9c1,0,1.3,2,1.3,3.2l0.4,5.4
	C68.6,86.8,67.8,87.8,66.9,87.8z"/>
<path class="st10" d="M33.3,80.8h3.1v-14h-3.1c-1.1,0-2,0.9-2,2v10C31.3,79.9,32.2,80.8,33.3,80.8z"/>
<path class="st0" d="M76.9,44.1H51.4c-8.4,0-15.3,9.2-15.3,20.6V68c0-8.2,4.9-14.9,11-14.9h34c6.1,0,11,6.7,11,14.9v-3.2
	C92.2,53.3,85.3,44.1,76.9,44.1z"/>
<g>
	<g>
		<path class="st0" d="M35,62.5c1.9,0,1.9-3,0-3C33,59.5,33,62.5,35,62.5L35,62.5z"/>
	</g>
</g>
<g>
	<g>
		<path class="st0" d="M36,60.2c1.9,0,1.9-3,0-3C34,57.2,34,60.2,36,60.2L36,60.2z"/>
	</g>
</g>
<g>
	<g>
		<path class="st0" d="M36.3,58.2c1.9,0,1.9-3,0-3C34.4,55.2,34.4,58.2,36.3,58.2L36.3,58.2z"/>
	</g>
</g>
<g>
	<g>
		<path class="st0" d="M36.6,57.8c1.9,0,1.9-3,0-3C34.7,54.8,34.7,57.8,36.6,57.8L36.6,57.8z"/>
	</g>
</g>
<g>
	<g>
		<path class="st0" d="M38.3,55.8c1.9,0,1.9-3,0-3C36.4,52.8,36.4,55.8,38.3,55.8L38.3,55.8z"/>
	</g>
</g>
<g>
	<g>
		<path class="st0" d="M38.3,55.5c1.9,0,1.9-3,0-3C36.4,52.5,36.4,55.5,38.3,55.5L38.3,55.5z"/>
	</g>
</g>
<g>
	<g>
		<path class="st0" d="M39,54.5c1.9,0,1.9-3,0-3C37,51.5,37,54.5,39,54.5L39,54.5z"/>
	</g>
</g>
<g>
	<g>
		<path class="st0" d="M40.3,52.5c1.9,0,1.9-3,0-3C38.4,49.5,38.4,52.5,40.3,52.5L40.3,52.5z"/>
	</g>
</g>
<g>
	<g>
		<path class="st0" d="M41.3,51.5c1.9,0,1.9-3,0-3C39.4,48.5,39.4,51.5,41.3,51.5L41.3,51.5z"/>
	</g>
</g>
<g>
	<g>
		<path class="st0" d="M92.6,64.2c1.9,0,1.9-3,0-3C90.7,61.2,90.7,64.2,92.6,64.2L92.6,64.2z"/>
	</g>
</g>
<g>
	<g>
		<path class="st0" d="M92,62.8c1.9,0,1.9-3,0-3C90,59.8,90,62.8,92,62.8L92,62.8z"/>
	</g>
</g>
<g>
	<g>
		<path class="st0" d="M92,60.2c1.9,0,1.9-3,0-3C90,57.2,90,60.2,92,60.2L92,60.2z"/>
	</g>
</g>
<g>
	<g>
		<path class="st0" d="M92,59.5c1.9,0,1.9-3,0-3C90,56.5,90,59.5,92,59.5L92,59.5z"/>
	</g>
</g>
<g>
	<g>
		<path class="st0" d="M91.6,57.5c1.9,0,1.9-3,0-3C89.7,54.5,89.7,57.5,91.6,57.5L91.6,57.5z"/>
	</g>
</g>
<g>
	<g>
		<path class="st0" d="M90.3,56.2c1.9,0,1.9-3,0-3C88.4,53.2,88.4,56.2,90.3,56.2L90.3,56.2z"/>
	</g>
</g>
<g>
	<g>
		<path class="st0" d="M90.3,56.2c1.9,0,1.9-3,0-3C88.4,53.2,88.4,56.2,90.3,56.2L90.3,56.2z"/>
	</g>
</g>
<g>
	<g>
		<path class="st0" d="M90,53.2c1.9,0,1.9-3,0-3C88,50.2,88,53.2,90,53.2L90,53.2z"/>
	</g>
</g>
<g>
	<g>
		<path class="st0" d="M85,53.8c1.9,0,1.9-3,0-3C83,50.8,83,53.8,85,53.8L85,53.8z"/>
	</g>
</g>
<g>
	<g>
		<path class="st0" d="M88.3,53.5c1.9,0,1.9-3,0-3C86.4,50.5,86.4,53.5,88.3,53.5L88.3,53.5z"/>
	</g>
</g>
<g>
	<g>
		<path class="st0" d="M81,53.5c1.9,0,1.9-3,0-3C79,50.5,79,53.5,81,53.5L81,53.5z"/>
	</g>
</g>
<g>
	<g>
		<path class="st0" d="M77.6,54.8c1.9,0,1.9-3,0-3C75.7,51.8,75.7,54.8,77.6,54.8L77.6,54.8z"/>
	</g>
</g>
<g>
	<g>
		<path class="st0" d="M75,54.8c1.9,0,1.9-3,0-3C73,51.8,73,54.8,75,54.8L75,54.8z"/>
	</g>
</g>
<g>
	<g>
		<path class="st0" d="M71.6,54.8c1.9,0,1.9-3,0-3C69.7,51.8,69.7,54.8,71.6,54.8L71.6,54.8z"/>
	</g>
</g>
<g>
	<g>
		<path class="st0" d="M70.3,54.8c1.9,0,1.9-3,0-3C68.4,51.8,68.4,54.8,70.3,54.8L70.3,54.8z"/>
	</g>
</g>
<g>
	<g>
		<path class="st0" d="M67.3,54.5c1.9,0,1.9-3,0-3C65.4,51.5,65.4,54.5,67.3,54.5L67.3,54.5z"/>
	</g>
</g>
<g>
	<g>
		<path class="st0" d="M67,54.5c1.9,0,1.9-3,0-3C65,51.5,65,54.5,67,54.5L67,54.5z"/>
	</g>
</g>
<g>
	<g>
		<path class="st0" d="M66,54.5c1.9,0,1.9-3,0-3C64,51.5,64,54.5,66,54.5L66,54.5z"/>
	</g>
</g>
<g>
	<g>
		<path class="st0" d="M63,54.5c1.9,0,1.9-3,0-3C61,51.5,61,54.5,63,54.5L63,54.5z"/>
	</g>
</g>
<g>
	<g>
		<path class="st0" d="M59.6,53.8c1.9,0,1.9-3,0-3C57.7,50.8,57.7,53.8,59.6,53.8L59.6,53.8z"/>
	</g>
</g>
<g>
	<g>
		<path class="st0" d="M57.3,53.2c1.9,0,1.9-3,0-3C55.4,50.2,55.4,53.2,57.3,53.2L57.3,53.2z"/>
	</g>
</g>
<g>
	<g>
		<path class="st0" d="M56.3,50.2c-0.1,0-0.2,0-0.3,0c-0.8,0-1.5,0.7-1.5,1.5c0,0.8,0.7,1.5,1.5,1.5c0.1,0,0.2,0,0.3,0
			c0.8,0,1.5-0.7,1.5-1.5C57.8,50.8,57.1,50.2,56.3,50.2L56.3,50.2z"/>
	</g>
</g>
<g>
	<g>
		<path class="st0" d="M53,53.2c1.9,0,1.9-3,0-3C51,50.2,51,53.2,53,53.2L53,53.2z"/>
	</g>
</g>
<g>
	<g>
		<path class="st0" d="M51.6,53.2c1.9,0,1.9-3,0-3C49.7,50.2,49.7,53.2,51.6,53.2L51.6,53.2z"/>
	</g>
</g>
<g>
	<g>
		<path class="st0" d="M49,54.2c1.9,0,1.9-3,0-3C47,51.2,47,54.2,49,54.2L49,54.2z"/>
	</g>
</g>
<g>
	<g>
		<path class="st0" d="M47,54.2c1.9,0,1.9-3,0-3C45,51.2,45,54.2,47,54.2L47,54.2z"/>
	</g>
</g>
<g>
	<g>
		<path class="st0" d="M45,54.2c1.9,0,1.9-3,0-3C43,51.2,43,54.2,45,54.2L45,54.2z"/>
	</g>
</g>
<g>
	<g>
		<path class="st0" d="M44.3,54.2c1.9,0,1.9-3,0-3C42.4,51.2,42.4,54.2,44.3,54.2L44.3,54.2z"/>
	</g>
</g>
<g>
	<g>
		<path class="st0" d="M44.3,54.8c1.9,0,1.9-3,0-3C42.4,51.8,42.4,54.8,44.3,54.8L44.3,54.8z"/>
	</g>
</g>
<g>
	<g>
		<path class="st0" d="M42.6,54.8c1.9,0,1.9-3,0-3C40.7,51.8,40.7,54.8,42.6,54.8L42.6,54.8z"/>
	</g>
</g>
<g>
	<g>
		<path class="st0" d="M40,56.8c1.9,0,1.9-3,0-3C38,53.8,38,56.8,40,56.8L40,56.8z"/>
	</g>
</g>
<g>
	<g>
		<path class="st0" d="M38.6,58.2c1.9,0,1.9-3,0-3C36.7,55.2,36.7,58.2,38.6,58.2L38.6,58.2z"/>
	</g>
</g>
<g>
	<g>
		<path class="st0" d="M38.3,59.5c1.9,0,1.9-3,0-3C36.4,56.5,36.4,59.5,38.3,59.5L38.3,59.5z"/>
	</g>
</g>
<g>
	<g>
		<path class="st0" d="M46.6,47.5c1.9,0,1.9-3,0-3C44.7,44.5,44.7,47.5,46.6,47.5L46.6,47.5z"/>
	</g>
</g>
<g>
	<g>
		<path class="st0" d="M43,47.8c1.9,0,1.9-3,0-3C41,44.8,41,47.8,43,47.8L43,47.8z"/>
	</g>
</g>
<g>
	<g>
		<path class="st0" d="M40.3,49.5c1.9,0,1.9-3,0-3C38.4,46.5,38.4,49.5,40.3,49.5L40.3,49.5z"/>
	</g>
</g>
<g>
	<g>
		<path class="st0" d="M38.3,52.5c1.9,0,1.9-3,0-3C36.4,49.5,36.4,52.5,38.3,52.5L38.3,52.5z"/>
	</g>
</g>
<g>
	<g>
		<path class="st0" d="M35.3,55.5c1.9,0,1.9-3,0-3C33.4,52.5,33.4,55.5,35.3,55.5L35.3,55.5z"/>
	</g>
</g>
<g>
	<g>
		<path class="st0" d="M35.3,58.5c1.9,0,1.9-3,0-3C33.4,55.5,33.4,58.5,35.3,58.5L35.3,58.5z"/>
	</g>
</g>
<g>
	<g>
		<path class="st0" d="M35.3,59.2c1.9,0,1.9-3,0-3C33.4,56.2,33.4,59.2,35.3,59.2L35.3,59.2z"/>
	</g>
</g>
<g>
	<g>
		<path class="st0" d="M35.3,56.5c1.9,0,1.9-3,0-3C33.4,53.5,33.4,56.5,35.3,56.5L35.3,56.5z"/>
	</g>
</g>
<g>
	<g>
		<path class="st0" d="M35.6,53.8c1.9,0,1.9-3,0-3C33.7,50.8,33.7,53.8,35.6,53.8L35.6,53.8z"/>
	</g>
</g>
<g>
	<g>
		<path class="st0" d="M36.6,52.8c1.9,0,1.9-3,0-3C34.7,49.8,34.7,52.8,36.6,52.8L36.6,52.8z"/>
	</g>
</g>
<g>
	<g>
		<path class="st0" d="M37.3,52.2c1.9,0,1.9-3,0-3C35.4,49.2,35.4,52.2,37.3,52.2L37.3,52.2z"/>
	</g>
</g>
<g>
	<g>
		<path class="st0" d="M38.3,51.5c1.9,0,1.9-3,0-3C36.4,48.5,36.4,51.5,38.3,51.5L38.3,51.5z"/>
	</g>
</g>
<g>
	<g>
		<path class="st0" d="M40.3,51.5c0.1,0,0.2,0,0.3,0c0.8,0,1.5-0.7,1.5-1.5c0-0.8-0.7-1.5-1.5-1.5c-0.1,0-0.2,0-0.3,0
			c-0.8,0-1.5,0.7-1.5,1.5C38.8,50.8,39.5,51.5,40.3,51.5L40.3,51.5z"/>
	</g>
</g>
<g>
	<g>
		<path class="st0" d="M43,50.5c1.9,0,1.9-3,0-3C41,47.5,41,50.5,43,50.5L43,50.5z"/>
	</g>
</g>
<g>
	<g>
		<path class="st0" d="M44,49.5c1.9,0,1.9-3,0-3C42,46.5,42,49.5,44,49.5L44,49.5z"/>
	</g>
</g>
<g>
	<g>
		<path class="st0" d="M44.3,48.8c1.9,0,1.9-3,0-3C42.4,45.8,42.4,48.8,44.3,48.8L44.3,48.8z"/>
	</g>
</g>
<g>
	<g>
		<path class="st0" d="M45.3,48.2c1.9,0,1.9-3,0-3C43.4,45.2,43.4,48.2,45.3,48.2L45.3,48.2z"/>
	</g>
</g>
<g>
	<g>
		<path class="st0" d="M46,47.2c1.9,0,1.9-3,0-3C44,44.2,44,47.2,46,47.2L46,47.2z"/>
	</g>
</g>
<g>
	<g>
		<path class="st0" d="M46.3,46.8c1.9,0,1.9-3,0-3C44.4,43.8,44.4,46.8,46.3,46.8L46.3,46.8z"/>
	</g>
</g>
<g>
	<g>
		<path class="st0" d="M47,46.2c1.9,0,1.9-3,0-3C45,43.2,45,46.2,47,46.2L47,46.2z"/>
	</g>
</g>
<g>
	<g>
		<path class="st0" d="M48,45.8c1.9,0,1.9-3,0-3C46,42.8,46,45.8,48,45.8L48,45.8z"/>
	</g>
</g>
<g>
	<g>
		<path class="st0" d="M49,45.8c1.9,0,1.9-3,0-3C47,42.8,47,45.8,49,45.8L49,45.8z"/>
	</g>
</g>
<g>
	<g>
		<path class="st0" d="M50.6,45.2c1.9,0,1.9-3,0-3C48.7,42.2,48.7,45.2,50.6,45.2L50.6,45.2z"/>
	</g>
</g>
<g>
	<g>
		<path class="st0" d="M52,44.5c1.9,0,1.9-3,0-3C50,41.5,50,44.5,52,44.5L52,44.5z"/>
	</g>
</g>
<g>
	<g>
		<path class="st0" d="M53.6,44.2c1.9,0,1.9-3,0-3C51.7,41.2,51.7,44.2,53.6,44.2L53.6,44.2z"/>
	</g>
</g>
<g>
	<g>
		<path class="st0" d="M55.3,43.8c1.9,0,1.9-3,0-3C53.4,40.8,53.4,43.8,55.3,43.8L55.3,43.8z"/>
	</g>
</g>
<g>
	<g>
		<path class="st0" d="M57,43.5c1.9,0,1.9-3,0-3C55,40.5,55,43.5,57,43.5L57,43.5z"/>
	</g>
</g>
<g>
	<g>
		<path class="st0" d="M58,43.2c1.9,0,1.9-3,0-3C56,40.2,56,43.2,58,43.2L58,43.2z"/>
	</g>
</g>
<g>
	<g>
		<path class="st0" d="M59,43.2c1.9,0,1.9-3,0-3C57,40.2,57,43.2,59,43.2L59,43.2z"/>
	</g>
</g>
<g>
	<g>
		<path class="st0" d="M60,43.2c1.9,0,1.9-3,0-3C58,40.2,58,43.2,60,43.2L60,43.2z"/>
	</g>
</g>
<g>
	<g>
		<path class="st0" d="M60.6,43.2c1.9,0,1.9-3,0-3C58.7,40.2,58.7,43.2,60.6,43.2L60.6,43.2z"/>
	</g>
</g>
<g>
	<g>
		<path class="st0" d="M62,43.2c1.9,0,1.9-3,0-3C60,40.2,60,43.2,62,43.2L62,43.2z"/>
	</g>
</g>
<g>
	<g>
		<path class="st0" d="M63.6,43.2c1.9,0,1.9-3,0-3C61.7,40.2,61.7,43.2,63.6,43.2L63.6,43.2z"/>
	</g>
</g>
<g>
	<g>
		<path class="st0" d="M65,43.2c1.9,0,1.9-3,0-3C63,40.2,63,43.2,65,43.2L65,43.2z"/>
	</g>
</g>
<g>
	<g>
		<path class="st0" d="M66,43.2c1.9,0,1.9-3,0-3C64,40.2,64,43.2,66,43.2L66,43.2z"/>
	</g>
</g>
<g>
	<g>
		<path class="st0" d="M68,43.2c1.9,0,1.9-3,0-3C66,40.2,66,43.2,68,43.2L68,43.2z"/>
	</g>
</g>
<g>
	<g>
		<path class="st0" d="M68,43.2c1.9,0,1.9-3,0-3C66,40.2,66,43.2,68,43.2L68,43.2z"/>
	</g>
</g>
<g>
	<g>
		<path class="st0" d="M70,42.5c1.9,0,1.9-3,0-3C68,39.5,68,42.5,70,42.5L70,42.5z"/>
	</g>
</g>
<g>
	<g>
		<path class="st0" d="M71,42.2c1.9,0,1.9-3,0-3C69,39.2,69,42.2,71,42.2L71,42.2z"/>
	</g>
</g>
<g>
	<g>
		<path class="st0" d="M72,41.8c1.9,0,1.9-3,0-3C70,38.8,70,41.8,72,41.8L72,41.8z"/>
	</g>
</g>
<g>
	<g>
		<path class="st0" d="M73,41.8c1.9,0,1.9-3,0-3C71,38.8,71,41.8,73,41.8L73,41.8z"/>
	</g>
</g>
<g>
	<g>
		<path class="st0" d="M73,42.2c0.1,0,0.2,0,0.3,0c0.8,0,1.5-0.7,1.5-1.5c0-0.8-0.7-1.5-1.5-1.5c-0.1,0-0.2,0-0.3,0
			c-0.8,0-1.5,0.7-1.5,1.5C71.5,41.5,72.1,42.2,73,42.2L73,42.2z"/>
	</g>
</g>
<g>
	<g>
		<path class="st0" d="M74,42.5c0.1,0,0.2,0,0.3,0c0.8,0,1.5-0.7,1.5-1.5c0-0.8-0.7-1.5-1.5-1.5c-0.1,0-0.2,0-0.3,0
			c-0.8,0-1.5,0.7-1.5,1.5C72.5,41.8,73.1,42.5,74,42.5L74,42.5z"/>
	</g>
</g>
<g>
	<g>
		<path class="st0" d="M75,42.8c1.9,0,1.9-3,0-3C73,39.8,73,42.8,75,42.8L75,42.8z"/>
	</g>
</g>
<g>
	<g>
		<path class="st0" d="M76.6,43.2c1.9,0,1.9-3,0-3C74.7,40.2,74.7,43.2,76.6,43.2L76.6,43.2z"/>
	</g>
</g>
<g>
	<g>
		<path class="st0" d="M72,42.8c1.9,0,1.9-3,0-3C70,39.8,70,42.8,72,42.8L72,42.8z"/>
	</g>
</g>
<g>
	<g>
		<path class="st0" d="M70.6,42.7c0.1,0.1,0.2,0.2,0.3,0.3c0.6,0.6,1.5,0.6,2.1,0c0.6-0.6,0.6-1.5,0-2.1c-0.1-0.1-0.2-0.2-0.3-0.3
			c-0.6-0.6-1.5-0.6-2.1,0C70,41.2,70,42.1,70.6,42.7L70.6,42.7z"/>
	</g>
</g>
<g>
	<g>
		<path class="st0" d="M74.6,41.9c-0.6-1.2-1.9-2-3.3-2c-0.8,0-1.5,0.7-1.5,1.5c0,0.8,0.7,1.5,1.5,1.5c0.2,0,0.2,0,0,0
			c0.1,0,0.2,0,0.3,0.1c-0.2-0.1,0.1,0,0.1,0.1c0.1,0.1,0.2,0.1,0.1,0c-0.1-0.1-0.1,0,0.1,0.1c0.1,0.1,0.1,0.1,0,0
			c0.1,0.1,0.1,0.2,0.1,0.2c0.4,0.7,1.4,0.9,2.1,0.5C74.8,43.5,75,42.6,74.6,41.9L74.6,41.9z"/>
	</g>
</g>
<g>
	<g>
		<path class="st0" d="M69.3,42.2c1.9,0,1.9-3,0-3C67.4,39.2,67.4,42.2,69.3,42.2L69.3,42.2z"/>
	</g>
</g>
<g>
	<g>
		<path class="st0" d="M67.6,42.2c1.9,0,1.9-3,0-3C65.7,39.2,65.7,42.2,67.6,42.2L67.6,42.2z"/>
	</g>
</g>
<g>
	<g>
		<path class="st0" d="M67.6,39.2c-0.3,0-0.7,0-1,0c-0.8,0-1.5,0.7-1.5,1.5c0,0.8,0.7,1.5,1.5,1.5c0.3,0,0.7,0,1,0
			c0.8,0,1.5-0.7,1.5-1.5C69.1,39.8,68.5,39.2,67.6,39.2L67.6,39.2z"/>
	</g>
</g>
<g>
	<g>
		<path class="st0" d="M65.3,42.2c1.9,0,1.9-3,0-3C63.4,39.2,63.4,42.2,65.3,42.2L65.3,42.2z"/>
	</g>
</g>
<g>
	<g>
		<path class="st0" d="M64.3,42.2c1.9,0,1.9-3,0-3C62.4,39.2,62.4,42.2,64.3,42.2L64.3,42.2z"/>
	</g>
</g>
<g>
	<g>
		<path class="st0" d="M61.6,42.2c1.9,0,1.9-3,0-3C59.7,39.2,59.7,42.2,61.6,42.2L61.6,42.2z"/>
	</g>
</g>
<g>
	<g>
		<path class="st0" d="M60.3,42.5c1.9,0,1.9-3,0-3C58.4,39.5,58.4,42.5,60.3,42.5L60.3,42.5z"/>
	</g>
</g>
<g>
	<g>
		<path class="st0" d="M58,42.8c1.9,0,1.9-3,0-3C56,39.8,56,42.8,58,42.8L58,42.8z"/>
	</g>
</g>
<g>
	<g>
		<path class="st0" d="M56.3,43.2c1.9,0,1.9-3,0-3C54.4,40.2,54.4,43.2,56.3,43.2L56.3,43.2z"/>
	</g>
</g>
<g>
	<g>
		<path class="st0" d="M55.3,43.2c1.9,0,1.9-3,0-3C53.4,40.2,53.4,43.2,55.3,43.2L55.3,43.2z"/>
	</g>
</g>
<g>
	<g>
		<path class="st0" d="M53,43.5c1.9,0,1.9-3,0-3C51,40.5,51,43.5,53,43.5L53,43.5z"/>
	</g>
</g>
<g>
	<g>
		<path class="st0" d="M51,41.2c-0.1,0-0.2,0-0.3,0c-0.8,0-1.5,0.7-1.5,1.5c0,0.8,0.7,1.5,1.5,1.5c0.1,0,0.2,0,0.3,0
			c0.8,0,1.5-0.7,1.5-1.5C52.4,41.8,51.8,41.2,51,41.2L51,41.2z"/>
	</g>
</g>
<g>
	<g>
		<path class="st0" d="M48,44.5c1.9,0,1.9-3,0-3C46,41.5,46,44.5,48,44.5L48,44.5z"/>
	</g>
</g>
<g>
	<g>
		<path class="st0" d="M47.3,45.2c1.9,0,1.9-3,0-3C45.4,42.2,45.4,45.2,47.3,45.2L47.3,45.2z"/>
	</g>
</g>
<g>
	<g>
		<path class="st0" d="M44.3,43.2c-0.1,0-0.2,0-0.3,0c-0.8,0-1.5,0.7-1.5,1.5c0,0.8,0.7,1.5,1.5,1.5c0.1,0,0.2,0,0.3,0
			c0.8,0,1.5-0.7,1.5-1.5C45.8,43.8,45.1,43.2,44.3,43.2L44.3,43.2z"/>
	</g>
</g>
<g>
	<g>
		<path class="st0" d="M42.3,47.2c1.9,0,1.9-3,0-3C40.4,44.2,40.4,47.2,42.3,47.2L42.3,47.2z"/>
	</g>
</g>
<g>
	<g>
		<path class="st0" d="M38.3,48.5c1.9,0,1.9-3,0-3C36.4,45.5,36.4,48.5,38.3,48.5L38.3,48.5z"/>
	</g>
</g>
<g>
	<g>
		<path class="st0" d="M41.6,46.8c1.9,0,1.9-3,0-3C39.7,43.8,39.7,46.8,41.6,46.8L41.6,46.8z"/>
	</g>
</g>
<g>
	<g>
		<path class="st0" d="M41,48.2c1.9,0,1.9-3,0-3C39,45.2,39,48.2,41,48.2L41,48.2z"/>
	</g>
</g>
<g>
	<g>
		<path class="st0" d="M40,48.5c1.9,0,1.9-3,0-3C38,45.5,38,48.5,40,48.5L40,48.5z"/>
	</g>
</g>
<g>
	<g>
		<path class="st0" d="M38,49.5c1.9,0,1.9-3,0-3C36,46.5,36,49.5,38,49.5L38,49.5z"/>
	</g>
</g>
<g>
	<g>
		<path class="st0" d="M36,50.8c1.9,0,1.9-3,0-3C34,47.8,34,50.8,36,50.8L36,50.8z"/>
	</g>
</g>
<g>
	<g>
		<path class="st0" d="M35,55.5c1.9,0,1.9-3,0-3C33,52.5,33,55.5,35,55.5L35,55.5z"/>
	</g>
</g>
<g>
	<g>
		<path class="st0" d="M77,44.2c1.9,0,1.9-3,0-3C75,41.2,75,44.2,77,44.2L77,44.2z"/>
	</g>
</g>
<g>
	<g>
		<path class="st0" d="M77.3,44.2c1.9,0,1.9-3,0-3C75.4,41.2,75.4,44.2,77.3,44.2L77.3,44.2z"/>
	</g>
</g>
<g>
	<g>
		<path class="st0" d="M79,44.2c1.9,0,1.9-3,0-3C77,41.2,77,44.2,79,44.2L79,44.2z"/>
	</g>
</g>
<g>
	<g>
		<path class="st0" d="M81,44.2c1.9,0,1.9-3,0-3C79,41.2,79,44.2,81,44.2L81,44.2z"/>
	</g>
</g>
<g>
	<g>
		<path class="st0" d="M81.6,44.2c1.9,0,1.9-3,0-3C79.7,41.2,79.7,44.2,81.6,44.2L81.6,44.2z"/>
	</g>
</g>
<g>
	<g>
		<path class="st0" d="M82.6,44.8c1.9,0,1.9-3,0-3C80.7,41.8,80.7,44.8,82.6,44.8L82.6,44.8z"/>
	</g>
</g>
<g>
	<g>
		<path class="st0" d="M83,44.8c1.9,0,1.9-3,0-3C81,41.8,81,44.8,83,44.8L83,44.8z"/>
	</g>
</g>
<g>
	<g>
		<path class="st0" d="M84,45.5c1.9,0,1.9-3,0-3C82,42.5,82,45.5,84,45.5L84,45.5z"/>
	</g>
</g>
<g>
	<g>
		<path class="st0" d="M85,46.8c1.9,0,1.9-3,0-3C83,43.8,83,46.8,85,46.8L85,46.8z"/>
	</g>
</g>
<g>
	<g>
		<path class="st0" d="M85.3,47.2c1.9,0,1.9-3,0-3C83.4,44.2,83.4,47.2,85.3,47.2L85.3,47.2z"/>
	</g>
</g>
<g>
	<g>
		<path class="st0" d="M87.6,48.8c1.9,0,1.9-3,0-3C85.7,45.8,85.7,48.8,87.6,48.8L87.6,48.8z"/>
	</g>
</g>
<g>
	<g>
		<path class="st0" d="M87.6,49.2c1.9,0,1.9-3,0-3C85.7,46.2,85.7,49.2,87.6,49.2L87.6,49.2z"/>
	</g>
</g>
<g>
	<g>
		<path class="st0" d="M88.6,49.5c1.9,0,1.9-3,0-3C86.7,46.5,86.7,49.5,88.6,49.5L88.6,49.5z"/>
	</g>
</g>
<g>
	<g>
		<path class="st0" d="M89.6,50.2c1.9,0,1.9-3,0-3C87.7,47.2,87.7,50.2,89.6,50.2L89.6,50.2z"/>
	</g>
</g>
<g>
	<g>
		<path class="st0" d="M89.6,50.2c1.9,0,1.9-3,0-3C87.7,47.2,87.7,50.2,89.6,50.2L89.6,50.2z"/>
	</g>
</g>
<g>
	<g>
		<path class="st0" d="M89.6,51.8c1.9,0,1.9-3,0-3C87.7,48.8,87.7,51.8,89.6,51.8L89.6,51.8z"/>
	</g>
</g>
<g>
	<g>
		<path class="st0" d="M90.3,53.5c1.9,0,1.9-3,0-3C88.4,50.5,88.4,53.5,90.3,53.5L90.3,53.5z"/>
	</g>
</g>
<g>
	<g>
		<path class="st0" d="M91,53.8c1.9,0,1.9-3,0-3C89,50.8,89,53.8,91,53.8L91,53.8z"/>
	</g>
</g>
<g>
	<g>
		<path class="st0" d="M92,55.5c1.9,0,1.9-3,0-3C90,52.5,90,55.5,92,55.5L92,55.5z"/>
	</g>
</g>
<g>
	<g>
		<path class="st0" d="M92.6,57.2c1.9,0,1.9-3,0-3C90.7,54.2,90.7,57.2,92.6,57.2L92.6,57.2z"/>
	</g>
</g>
<g>
	<g>
		<path class="st0" d="M93.3,58.8c1.9,0,1.9-3,0-3C91.4,55.8,91.4,58.8,93.3,58.8L93.3,58.8z"/>
	</g>
</g>
<g>
	<g>
		<path class="st0" d="M94,60.5c1.9,0,1.9-3,0-3C92,57.5,92,60.5,94,60.5L94,60.5z"/>
	</g>
</g>
<g>
	<g>
		<path class="st0" d="M94.6,61.5c1.9,0,1.9-3,0-3C92.7,58.5,92.7,61.5,94.6,61.5L94.6,61.5z"/>
	</g>
</g>
<path class="st9" d="M59.8,245.7H40c-2.9,0-5.2-2.3-5.2-5.2v-2.2c0-2.9,2.3-5.2,5.2-5.2h19.8c2.9,0,5.2,2.3,5.2,5.2v2.2
	C65,243.4,62.6,245.7,59.8,245.7z"/>
<path class="st13" d="M273.6,213.5H135.1c-1.7,0-3-1.4-3-3V108.1c0-6.6,5.4-12,12-12h120.5c6.6,0,12,5.4,12,12v102.4
	C276.6,212.1,275.3,213.5,273.6,213.5z"/>
<path class="st14" d="M202.6,172.5h-62.9c-1.7,0-3-1.4-3-3v-58.3c0-6.6,5.4-12,12-12h53.9V172.5z"/>
<path class="st14" d="M207.1,172.7h62c1.7,0,3-1.4,3-3v-58.3c0-6.6-5.4-12-12-12h-53V172.7z"/>
<circle class="st9" cx="169.7" cy="184.2" r="5.4"/>
<rect x="165.2" y="171.7" transform="matrix(0.5 -0.866 0.866 0.5 -61.6495 239.8646)" class="st9" width="23.3" height="3.3"/>
<rect x="167.4" y="192" transform="matrix(0.7071 0.7071 -0.7071 0.7071 189.3682 -69.9011)" class="st9" width="23.3" height="3.3"/>
<rect x="152.1" y="194.5" transform="matrix(-0.5 0.866 -0.866 -0.5 415.4578 152.3254)" class="st9" width="23.3" height="3.3"/>
<rect x="148.3" y="172.9" transform="matrix(0.7071 0.7071 -0.7071 0.7071 170.2402 -61.978)" class="st9" width="23.3" height="3.3"/>
<circle class="st15" cx="169.7" cy="184.2" r="3.1"/>
<path class="st9" d="M210.7,213.5h-3.8v-21.8c0-0.6,0.5-1,1-1h1.8c0.6,0,1,0.4,1,1V213.5z"/>
<path class="st9" d="M212.7,191.6H205c-1.1,0-2-0.9-2-2v-3.1c0-1.1,0.9-2,2-2h7.7c1.1,0,2,0.9,2,2v3.1
	C214.7,190.7,213.8,191.6,212.7,191.6z"/>
<circle class="st16" cx="138.1" cy="179.4" r="2.3"/>
<circle class="st17" cx="138.1" cy="186.9" r="2.3"/>
<circle class="st18" cx="138.1" cy="194.3" r="2.3"/>
<path class="st19" d="M203.4,181.6h-23.3c-0.6,0-1-0.4-1-1v-4.3c0-0.5,0.4-1,1-1h23.3c0.6,0,1,0.5,1,1v4.3
	C204.4,181.1,203.9,181.6,203.4,181.6z"/>
<circle class="st20" cx="169.7" cy="184.2" r="25.3"/>
<path class="st21" d="M270.6,181.6h-62.7c-0.5,0-1-0.4-1-1v-4.3c0-0.5,0.5-1,1-1h62.7c0.5,0,1,0.5,1,1v4.3
	C271.6,181.1,271.2,181.6,270.6,181.6z"/>
<path class="st22" d="M270.3,181.6h-44.3v-0.3c0-1.1,0.9-2,2-2h40.3c1.1,0,2,0.9,2,2V181.6z"/>
</svg>
