<?xml version="1.0" encoding="utf-8"?>
<!-- Generator: Adobe Illustrator 24.0.1, SVG Export Plug-In . SVG Version: 6.00 Build 0)  -->
<svg version="1.1" id="Layer_1" xmlns="http://www.w3.org/2000/svg" xmlns:xlink="http://www.w3.org/1999/xlink" x="0px" y="0px"
	 viewBox="0 0 280 270" style="enable-background:new 0 0 280 270;" xml:space="preserve">
<style type="text/css">
	.st0{fill:#4C5965;}
	.st1{fill:#FFE3B2;}
	.st2{fill:#4C3512;}
	.st3{fill:#BFA981;}
	.st4{fill:#050505;}
	.st5{fill:#8AB7CE;}
	.st6{fill:#A47140;}
	.st7{fill:#231F20;}
	.st8{fill:#484C44;}
	.st9{fill:#4A4D52;}
	.st10{fill:#4F565B;}
	.st11{fill:#C59C1D;stroke:#030202;stroke-width:2;stroke-miterlimit:10;}
	.st12{fill:#4A7082;}
	.st13{fill:#C59C1D;stroke:#030202;stroke-width:0.75;stroke-miterlimit:10;}
	.st14{fill:#8A181B;}
	.st15{fill:#3F3F1D;}
	.st16{fill:#3F3D17;}
	.st17{fill:#3F3E1B;}
	.st18{fill:#9C8048;}
	.st19{fill:#E1C034;}
	.st20{fill:#54C8EE;}
	.st21{fill:none;stroke:#837642;stroke-width:4;stroke-miterlimit:10;}
	.st22{fill:#837642;}
	.st23{fill:#185D2F;}
	.st24{fill:#A02221;}
	.st25{fill:#262469;}
	.st26{fill:#CE2027;}
	.st27{fill:#CE2028;}
	.st28{fill:#43449B;}
	.st29{fill:#006838;}
	.st30{fill:#43469C;}
	.st31{fill:#CE2029;}
</style>
<path class="st0" d="M244.4,116.6h-1.6v-3.9c0-0.5,0.4-0.8,0.8-0.8l0,0c0.5,0,0.8,0.4,0.8,0.8V116.6z"/>
<path class="st0" d="M258.1,116.8h-1.6v-3.9c0-0.5,0.4-0.8,0.8-0.8l0,0c0.5,0,0.8,0.4,0.8,0.8V116.8z"/>
<path class="st1" d="M74.2,103.9H59.6c-2,0-3.6-1.6-3.6-3.6V82.2c0-2,1.6-3.6,3.6-3.6h14.6c2,0,3.6,1.6,3.6,3.6v18.2
	C77.8,102.3,76.2,103.9,74.2,103.9z"/>
<path class="st1" d="M90.6,61.3c-0.1-0.3,0.1-0.5,0.3-0.6V37.7c0-10.5-8.5-19-19-19h-12c-10.5,0-19,8.5-19,19v38
	c0,12.7,10.3,23,23,23h4c12.7,0,23-10.3,23-23V62.2C90.8,61.9,90.7,61.6,90.6,61.3z"/>
<path class="st2" d="M60.6,45.7h-9c-1.1,0-2-0.9-2-2V43c0-1.1,0.9-2,2-2h9c1.1,0,2,0.9,2,2v0.7C62.6,44.8,61.7,45.7,60.6,45.7z"/>
<path class="st2" d="M81.1,45.7h-9c-1.1,0-2-0.9-2-2V43c0-1.1,0.9-2,2-2h9c1.1,0,2,0.9,2,2v0.7C83.1,44.8,82.2,45.7,81.1,45.7z"/>
<path class="st3" d="M40.9,59.6h-3.1c-1.1,0-2-0.9-2-2v-4.6c0-1.1,0.9-2,2-2h3.1V59.6z"/>
<path class="st3" d="M94.1,59.6h-3.1v-8.6h3.1c1.1,0,2,0.9,2,2v4.6C96.1,58.7,95.2,59.6,94.1,59.6z"/>
<circle class="st4" cx="56.1" cy="48.9" r="2.1"/>
<circle class="st4" cx="77.2" cy="48.9" r="2.1"/>
<path class="st3" d="M67.4,63.1h-1.1c-1.1,0-2-0.9-2-2v-4.8c0-1.1,0.9-2,2-2h1.1c1.1,0,2,0.9,2,2v4.8C69.4,62.2,68.5,63.1,67.4,63.1
	z"/>
<path class="st5" d="M88.6,169.5H45.3c-3.5,0-6.4-2.9-6.4-6.4v-55.7c0-3.5,2.9-6.4,6.4-6.4h43.3c3.5,0,6.4,2.9,6.4,6.4v55.7
	C94.9,166.7,92.1,169.5,88.6,169.5z"/>
<g>
	<path class="st6" d="M112.1,265.8H69.9v-23.3h24.2c9.9,0,18,8.1,18,18V265.8z"/>
	<rect x="69.9" y="261.9" class="st6" width="42.2" height="3.9"/>
	<rect x="69.9" y="263.8" class="st6" width="42.2" height="1"/>
	<g>
		<path class="st6" d="M95.5,244.1c0.4,1.5-0.2,3.2-1.2,4.5c-1,1.2-2.5,2.1-3.9,2.9"/>
		<g>
			<path class="st7" d="M94.5,244.4c0.7,3-2.4,4.9-4.6,6.2c-1.1,0.6-0.1,2.4,1,1.7c3.1-1.8,6.4-4.4,5.5-8.5
				C96.2,242.6,94.3,243.2,94.5,244.4L94.5,244.4z"/>
		</g>
	</g>
	<g>
		<path class="st6" d="M101.7,245.8c0.4,1.5-0.2,3.2-1.2,4.5c-1,1.2-2.5,2.1-3.9,2.9"/>
		<g>
			<path class="st7" d="M100.8,246.1c0.7,3-2.4,4.9-4.6,6.2c-1.1,0.6-0.1,2.4,1,1.7c3.1-1.8,6.4-4.4,5.5-8.5
				C102.4,244.3,100.5,244.8,100.8,246.1L100.8,246.1z"/>
		</g>
	</g>
	<g>
		<path class="st6" d="M105.9,249c0.4,1.5-0.2,3.2-1.2,4.5c-1,1.2-2.5,2.1-3.9,2.9"/>
		<g>
			<path class="st7" d="M105,249.2c0.7,3-2.4,4.9-4.6,6.2c-1.1,0.6-0.1,2.4,1,1.7c3.1-1.8,6.4-4.4,5.5-8.5
				C106.6,247.5,104.7,248,105,249.2L105,249.2z"/>
		</g>
	</g>
</g>
<path class="st8" d="M85.7,237.2H69.9v-68.7c0-3.3,2.7-6,6-6h3.8c3.3,0,6,2.7,6,6V237.2z"/>
<rect x="69.9" y="224" class="st9" width="15.8" height="15"/>
<g>
	<path class="st6" d="M20,265.8h42.2v-23.3H38c-9.9,0-18,8.1-18,18V265.8z"/>
	
		<rect x="20" y="261.9" transform="matrix(-1 -4.494994e-11 4.494994e-11 -1 82.2033 527.6592)" class="st6" width="42.2" height="3.9"/>
	
		<rect x="20" y="263.8" transform="matrix(-1 -4.486379e-11 4.486379e-11 -1 82.2033 528.6343)" class="st6" width="42.2" height="1"/>
	<g>
		<path class="st6" d="M36.6,244.1c-0.4,1.5,0.2,3.2,1.2,4.5s2.5,2.1,3.9,2.9"/>
		<g>
			<path class="st7" d="M35.6,243.9c-0.9,4,2.4,6.7,5.5,8.5c1.1,0.6,2.1-1.1,1-1.7c-2.2-1.3-5.3-3.2-4.6-6.2
				C37.8,243.2,35.9,242.6,35.6,243.9L35.6,243.9z"/>
		</g>
	</g>
	<g>
		<path class="st6" d="M30.4,245.8c-0.4,1.5,0.2,3.2,1.2,4.5c1,1.2,2.5,2.1,3.9,2.9"/>
		<g>
			<path class="st7" d="M29.4,245.5c-0.9,4,2.4,6.7,5.5,8.5c1.1,0.6,2.1-1.1,1-1.7c-2.2-1.3-5.3-3.2-4.6-6.2
				C31.6,244.8,29.7,244.3,29.4,245.5L29.4,245.5z"/>
		</g>
	</g>
	<g>
		<path class="st6" d="M26.2,249c-0.4,1.5,0.2,3.2,1.2,4.5c1,1.2,2.5,2.1,3.9,2.9"/>
		<g>
			<path class="st7" d="M25.2,248.7c-0.9,4,2.4,6.7,5.5,8.5c1.1,0.6,2.1-1.1,1-1.7c-2.2-1.3-5.3-3.2-4.6-6.2
				C27.4,248,25.5,247.5,25.2,248.7L25.2,248.7z"/>
		</g>
	</g>
</g>
<path class="st8" d="M46.4,238.3h15.8v-69.9c0-3.3-2.7-6-6-6h-3.8c-3.3,0-6,2.7-6,6V238.3z"/>
<rect x="46.4" y="225" transform="matrix(-1 -3.299106e-11 3.299106e-11 -1 108.6011 464.1102)" class="st10" width="15.8" height="14"/>
<rect x="37.8" y="161.7" class="st7" width="56" height="7.8"/>
<circle class="st1" cx="100.5" cy="168.6" r="9.4"/>
<circle class="st1" cx="33.6" cy="169.4" r="9.4"/>
<rect x="85.4" y="59" class="st1" width="5.6" height="6.1"/>
<polygon class="st1" points="66.6,108.1 56.1,100.8 77.8,100.8 "/>
<path class="st8" d="M52.7,117.6h-6.2v-15.2c0-1.1,0.9-2,2-2h2.2c1.1,0,2,0.9,2,2V117.6z"/>
<path class="st8" d="M86.7,117.6h-5.9v-15.2c0-1.1,0.9-2,2-2h1.9c1.1,0,2,0.9,2,2V117.6z"/>
<path class="st8" d="M94.9,162.4h-56v-40.8c0-2.2,1.9-1.2,4.1-1.2l3.6-2.8h6.2l2.4,2.8h11h7.9l6.8-2.8h5.9l4.2,2.8c2.2,0,4-1,4,1.2
	V162.4z"/>
<rect x="46.4" y="230.8" class="st6" width="15.8" height="14.9"/>
<rect x="69.9" y="230.8" class="st6" width="15.8" height="14.9"/>
<path class="st1" d="M100.9,172.8h-3.1c-3.5,0-6.4-2.9-6.4-6.4v-49c0-3.5,2.9-6.4,6.4-6.4h3.1c3.5,0,6.4,2.9,6.4,6.4v49
	C107.2,170,104.4,172.8,100.9,172.8z"/>
<path class="st1" d="M35.6,172.8h-3.1c-3.5,0-6.4-2.9-6.4-6.4v-49c0-3.5,2.9-6.4,6.4-6.4h3.1c3.5,0,6.4,2.9,6.4,6.4v49
	C41.9,170,39.1,172.8,35.6,172.8z"/>
<path class="st11" d="M70.3,171.1h-7.4c-2.1,0-3.7-1.7-3.7-3.7v-4c0-2.1,1.7-3.7,3.7-3.7h7.4c2.1,0,3.7,1.7,3.7,3.7v4
	C74.1,169.4,72.4,171.1,70.3,171.1z"/>
<path class="st5" d="M35.6,103.9h-3.1c-3.5,0-6.4,4.2-6.4,9.4v15h15.8v-15C41.9,108.2,39.1,103.9,35.6,103.9z"/>
<path class="st5" d="M100.9,105.8h-3.1c-3.5,0-6.4,3.9-6.4,8.7v13.9h15.8v-13.9C107.2,109.7,104.4,105.8,100.9,105.8z"/>
<path class="st12" d="M47.7,235.7h13.1c1.7,0,3-1.3,3-3v-1.3c0-1.7-1.3-3-3-3H47.7c-1.7,0-3,1.3-3,3v1.3
	C44.7,234.4,46.1,235.7,47.7,235.7z"/>
<path class="st12" d="M84.4,235.7H71.2c-1.7,0-3-1.3-3-3v-1.3c0-1.7,1.3-3,3-3h13.1c1.7,0,3,1.3,3,3v1.3
	C87.4,234.4,86,235.7,84.4,235.7z"/>
<circle class="st13" cx="49.7" cy="122.2" r="2.9"/>
<circle class="st13" cx="83.7" cy="122.2" r="2.9"/>
<ellipse class="st14" cx="66.9" cy="76.6" rx="5.9" ry="3.5"/>
<ellipse class="st15" cx="66.9" cy="71.5" rx="9.4" ry="4.4"/>
<g>
	<g>
		<g>
			<path class="st16" d="M66.9,71c0.1,2.8-1.4,5-3.3,5.2c-1,0.1-4.8-0.8-8.6-1.3c-1.9-0.2-3.8-0.5-5.1-0.5c-1.3-0.1-2.1,0.4-2.1,0.4
				s0.1-0.2,0.3-0.6c0.2-0.4,0.7-0.8,1.3-1.3c1.3-0.9,2.9-1.9,4.6-2.9c3.5-2,7.6-3.7,8.7-3.8C65,66.1,66.8,68.3,66.9,71z"/>
		</g>
	</g>
</g>
<g>
	<path class="st17" d="M86,74.8c-0.9-0.9-2.1-1.3-3.3-1.6c-5.1-1.3-10.4-2-15.7-2.2"/>
	<g>
		<g>
			<path class="st16" d="M66.9,71c0.1-2.8,1.9-4.9,4.1-4.8c1.1,0.1,5.2,1.8,8.7,3.8c1.8,1,3.4,2,4.6,2.9c0.6,0.5,1,0.9,1.3,1.3
				c0.2,0.4,0.3,0.6,0.3,0.6s-0.8-0.5-2.1-0.4c-1.3,0.1-3.2,0.3-5.1,0.5c-3.8,0.5-7.6,1.4-8.6,1.3C68.3,76.1,66.8,73.8,66.9,71z"/>
		</g>
	</g>
</g>
<path class="st18" d="M71.8,18.8h-12c-10.5,0-19,8.5-19,19V51h4v-1c0-10.5,8.5-19,19-19h12c6.1,0,11.5,2.9,15,7.4v-0.6
	C90.8,27.3,82.3,18.8,71.8,18.8z"/>
<path class="st19" d="M222.4,190.3h-52.9c-3.3,0-6-2.7-6-6v-80c0-3.3,2.7-6,6-6h52.9c3.3,0,6,2.7,6,6v80
	C228.4,187.6,225.7,190.3,222.4,190.3z"/>
<path class="st20" d="M220.3,126.3h-48.8c-2.8,0-5-2.3-5-5v-13.9c0-2.8,2.3-5,5-5h48.8c2.8,0,5,2.3,5,5v13.9
	C225.3,124.1,223.1,126.3,220.3,126.3z"/>
<circle class="st21" cx="195.9" cy="159.5" r="18.7"/>
<path class="st22" d="M208.9,176.3l-30.1-30.1c-0.4-0.4-0.4-1,0-1.4l2.1-2.1c0.4-0.4,1-0.4,1.4,0l30.1,30.1c0.4,0.4,0.4,1,0,1.4
	l-2.1,2.1C209.9,176.7,209.3,176.7,208.9,176.3z"/>
<path class="st23" d="M188.1,133.8h-19.6c-1.1,0-2-0.9-2-2V131c0-1.1,0.9-2,2-2h19.6c1.1,0,2,0.9,2,2v0.8
	C190.1,132.9,189.2,133.8,188.1,133.8z"/>
<path class="st24" d="M223.3,133.8h-19.6c-1.1,0-2-0.9-2-2V131c0-1.1,0.9-2,2-2h19.6c1.1,0,2,0.9,2,2v0.8
	C225.3,132.9,224.4,133.8,223.3,133.8z"/>
<circle class="st25" cx="195.6" cy="131.4" r="2.4"/>
<circle class="st26" cx="191.8" cy="184.7" r="3.4"/>
<circle class="st27" cx="220.7" cy="184.7" r="3.4"/>
<circle class="st28" cx="211.2" cy="184.7" r="3.4"/>
<circle class="st27" cx="201.7" cy="184.7" r="3.4"/>
<circle cx="191.8" cy="184.7" r="1.9"/>
<circle cx="201.7" cy="184.7" r="1.9"/>
<circle cx="211.2" cy="184.7" r="1.9"/>
<circle cx="220.7" cy="184.7" r="1.9"/>
<g>
	<g>
		<path class="st29" d="M219.5,184.6c-0.4,5.4,1,12,7.8,11.5c7.2-0.6,10.5-9.2,12.3-15.1c2.6-8.7,2.6-17.6,2.6-26.6
			c0-9.1,5.5-17.9,2.9-26.9c-0.5-1.9-3.4-1.1-2.9,0.8c1.9,6.6-1.4,12.5-2.5,18.9c-0.9,5.4-0.3,11.1-0.5,16.6c-0.2,6.1-0.9,12.2-3,18
			c-1.2,3.3-2.7,7.4-5.5,9.6c-1,1.1-2.4,1.7-4,1.7c-1.3-1.1-2.7-2.3-4-3.4c-0.6-1.3-0.2-3.8-0.1-5.1
			C222.6,182.7,219.6,182.7,219.5,184.6L219.5,184.6z"/>
	</g>
</g>
<g>
	<g>
		<path class="st29" d="M209.6,184.6c0,4.6,0.8,9.2,3,13.3c2,3.8,4.9,4.8,9.1,5.5c7.4,1.2,21,1.7,26.4-4.8c3.1-3.7,3.4-9.3,4.3-13.8
			c1.3-6.5,2.6-13,4-19.6c2.5-12.4,2.2-24.9,2.4-37.6c0-1.9-3-1.9-3,0c-0.2,9.7,0.5,19.9-1,29.6c-1.3,9-3.5,17.9-5.3,26.8
			c-0.7,3.6-1,8.8-3.2,12c-2.7,4-10.2,4.7-14.6,4.9c-4,0.2-9.2,0.4-12.9-1.2c-5.3-2.3-6.1-10.1-6.1-15.1
			C212.6,182.7,209.6,182.7,209.6,184.6L209.6,184.6z"/>
	</g>
</g>
<rect x="253.9" y="116.6" class="st30" width="6.3" height="13.4"/>
<rect x="240.4" y="116.6" class="st31" width="6.3" height="13.4"/>
</svg>
