<svg id="Layer_1" data-name="Layer 1" xmlns="http://www.w3.org/2000/svg" viewBox="0 0 818 545"><defs><style>.cls-1{fill:#58785a;}.cls-2{fill:#fff;}.cls-3{fill:#29abe2;}.cls-4{font-size:76px;}.cls-4,.cls-5{font-family:MyriadPro-Regular, Myriad Pro;}.cls-5{font-size:96.38px;}.cls-6{letter-spacing:-0.01em;}.cls-7{letter-spacing:0.01em;}.cls-8{letter-spacing:0.01em;}.cls-9{letter-spacing:-0.01em;}.cls-10{letter-spacing:-0.01em;}.cls-11{letter-spacing:0em;}</style></defs><title>instructions5</title><rect class="cls-1" width="818" height="545" rx="12"/><rect class="cls-2" x="158.5" y="210.06" width="493" height="186" rx="12"/><rect class="cls-3" x="182.53" y="226.06" width="215" height="70" rx="12"/><rect class="cls-3" x="416.53" y="226.06" width="215" height="70" rx="12"/><rect class="cls-3" x="181.53" y="311.06" width="215" height="70" rx="12"/><rect class="cls-3" x="415.53" y="311.06" width="215" height="70" rx="12"/><text class="cls-4" transform="translate(267.61 286.94)">A</text><text class="cls-4" transform="translate(267.25 372.81)">C</text><text class="cls-4" transform="translate(502.25 286.81)">B</text><text class="cls-4" transform="translate(502.25 372.81)">D</text><text class="cls-5" transform="translate(42.05 173.22)">Sn<tspan class="cls-6" x="101" y="0">o</tspan><tspan class="cls-7" x="153.24" y="0">w</tspan><tspan x="225.33" y="0">y </tspan><tspan class="cls-8" x="291.15" y="0">H</tspan><tspan class="cls-9" x="354.86" y="0">y</tspan><tspan x="399.29" y="0">d</tspan><tspan class="cls-10" x="453.65" y="0">r</tspan><tspan x="484.2" y="0">o </tspan><tspan class="cls-11" x="557.54" y="0">Q</tspan><tspan x="624.23" y="0">uiz</tspan></text><polygon class="cls-2" points="619.72 426.8 602.54 438.74 585.82 364.75 649.31 406.25 632.13 418.18 662.48 461.89 650.07 470.51 619.72 426.8"/><path d="M636.6,428.89l54.11,35.37-11.4,7.92-4.66,3.23,3.24,4.66L705,519.12l-7.75,5.38-27.13-39.05-3.23-4.65L662.24,484,650.85,492,636.6,428.89M628,416.49l19.19,84.91,18.31-12.71,30.35,43.7,17.07-11.85-30.36-43.71,18.31-12.71L628,416.49Z" transform="translate(-46.47 -57.94)"/></svg>