<svg id="Layer_1" data-name="Layer 1" xmlns="http://www.w3.org/2000/svg" viewBox="0 0 818 545"><defs><style>.cls-1{fill:#58785a;}.cls-2{fill:#cacbce;}.cls-3{fill:#ffc37c;}.cls-4{fill:#4c3533;}.cls-5{fill:#bf9a6f;}.cls-6{fill:#050505;}.cls-7{fill:#bfa981;}.cls-8{fill:#800020;}.cls-9{fill:#a47140;}.cls-10{fill:#231f20;}.cls-11{fill:#00001f;}.cls-12{fill:#4a4d52;}.cls-13{fill:#4f565b;}.cls-14{fill:#c5631d;stroke-width:2px;}.cls-14,.cls-65,.cls-75{stroke:#030202;}.cls-113,.cls-115,.cls-14,.cls-144,.cls-23,.cls-24,.cls-25,.cls-26,.cls-27,.cls-28,.cls-29,.cls-30,.cls-42,.cls-46,.cls-47,.cls-65,.cls-66,.cls-73,.cls-74,.cls-75,.cls-78,.cls-79,.cls-80,.cls-86,.cls-87,.cls-90{stroke-miterlimit:10;}.cls-15{fill:#cc7082;}.cls-16{fill:#3b181b;}.cls-17{fill:#1a1a1a;}.cls-18{fill:#100e15;}.cls-19{fill:#5c3e16;}.cls-20{fill:#ef451f;}.cls-21{fill:gray;}.cls-22{fill:#008d36;}.cls-23,.cls-30,.cls-42,.cls-47,.cls-90{fill:none;}.cls-23{stroke:#005b00;}.cls-23,.cls-24,.cls-25,.cls-26,.cls-27,.cls-28,.cls-29{stroke-width:0.71px;}.cls-24{fill:#ff2a02;}.cls-144,.cls-24,.cls-25,.cls-26,.cls-27,.cls-28,.cls-29,.cls-30,.cls-46,.cls-47,.cls-73,.cls-74,.cls-78,.cls-79,.cls-80{stroke:#000;}.cls-25{fill:#f4f900;}.cls-26,.cls-33{fill:#0003bd;}.cls-27{fill:#100200;}.cls-28,.cls-32{fill:#00b52a;}.cls-29,.cls-31{fill:#d92200;}.cls-34{fill:#4c5145;}.cls-35{fill:#7fd4ff;}.cls-36{fill:#9fb0ff;}.cls-37{fill:#f67900;}.cls-38{fill:#602413;}.cls-39{fill:#12004a;}.cls-40{fill:#d8bd9d;}.cls-41{fill:#badad3;}.cls-42{stroke:#fff;}.cls-42,.cls-75{stroke-width:0.75px;}.cls-43{fill:#3b2314;}.cls-44{fill:#58595b;}.cls-45{fill:#a87c4f;}.cls-46{fill:#ffe4b4;stroke-width:0.43px;}.cls-47{stroke-width:0.5px;}.cls-48{fill:#f6921e;}.cls-49{fill:#deadcf;}.cls-50{fill:#e51c43;}.cls-51{fill:#f39984;}.cls-52{fill:#c9eeff;}.cls-53{fill:#000024;}.cls-54{fill:#ad652c;}.cls-55{fill:#ad872c;}.cls-56{fill:#ad6347;}.cls-57{fill:#eaac7d;}.cls-58{fill:#d2be6a;}.cls-59{fill:#fffaeb;}.cls-60{fill:#dfbe1a;}.cls-61{fill:#fff0eb;}.cls-62{fill:#200e0a;}.cls-63{fill:#635724;}.cls-64{fill:#00002f;}.cls-65{fill:#f7f9e7;}.cls-65,.cls-78{stroke-width:2.83px;}.cls-66{fill:#ccc;stroke:#333;}.cls-67{fill:#333;}.cls-68{fill:#4d4d4d;}.cls-69{fill:#2b2938;}.cls-70{fill:#7f2900;}.cls-71{fill:#7f291f;}.cls-72{fill:#ad8762;}.cls-73{fill:#ffceff;stroke-width:1.42px;}.cls-123,.cls-144,.cls-74,.cls-79{fill:#fff;}.cls-75{fill:#c59c1d;}.cls-76{fill:#000018;}.cls-77{fill:#002e27;}.cls-78{fill:#a8fff3;}.cls-79,.cls-80{stroke-width:0.71px;}.cls-80{fill:#ffff6f;}.cls-81{fill:#85642d;}.cls-82{fill:#1f4282;}.cls-83{fill:#a8a595;}.cls-84{fill:#bd9c76;}.cls-85{fill:#fdd09c;}.cls-86{fill:#f58b1f;stroke-width:0.28px;}.cls-86,.cls-87{stroke:#f58b1f;}.cls-87{fill:#f58b21;}.cls-88{fill:#895121;}.cls-89{fill:#99712a;}.cls-90{stroke:#f4cd2f;stroke-width:2.83px;}.cls-91{fill:#603b15;}.cls-92{fill:#9b702a;}.cls-93{fill:#513217;}.cls-94{fill:#c58e67;}.cls-95{fill:#b67343;}.cls-96{fill:#8e5e38;}.cls-97{fill:#8e807c;}.cls-98{fill:#6d625f;}.cls-99{fill:#958580;}.cls-100{fill:#825b27;}.cls-101{fill:#48484a;}.cls-102{fill:#d6cec7;}.cls-103{fill:#ec873a;}.cls-104{fill:#484545;}.cls-105{fill:#baa9a7;}.cls-106{fill:#fccca5;}.cls-107{fill:#abc1e4;}.cls-108{fill:#2a241d;}.cls-109{fill:#68809b;}.cls-110{fill:#242962;}.cls-111{fill:#ef4923;}.cls-112{fill:#f3e91c;}.cls-113{fill:#faed3a;stroke:#110a09;}.cls-114{fill:#110a09;}.cls-115{fill:#808d99;stroke:#231f20;}.cls-116{fill:#8b8074;}.cls-117{fill:#7d5f32;}.cls-118{fill:#9e9388;}.cls-119{fill:#9ed8dd;}.cls-120{fill:#ee4223;}.cls-121{fill:#ee4323;}.cls-122{fill:#ee4423;}.cls-124{fill:#eca133;}.cls-125{fill:#d7cfc8;}.cls-126{fill:#fbdbe1;}.cls-127{fill:#492b80;}.cls-128{fill:#fff100;}.cls-129{fill:#fbbb74;}.cls-130{fill:#68092d;}.cls-131{fill:#7b277c;}.cls-132{fill:#f7991c;}.cls-133{fill:#be5c3f;}.cls-134{fill:#df1d3b;}.cls-135{fill:#0f0908;}.cls-136{fill:#faaf40;}.cls-137{fill:#6952a1;}.cls-138{fill:#cb7929;}.cls-139{fill:#374d8b;}.cls-140{fill:#4562ac;}.cls-141{fill:#d0d2d3;}.cls-142{fill:#ffdc7f;}.cls-143{font-size:110px;font-family:Roboto-Medium, Roboto;font-weight:500;}.cls-144{stroke-width:5.67px;}</style></defs><title>instructions5</title><rect class="cls-1" width="818" height="545" rx="12"/><rect class="cls-2" x="295.98" y="450.03" width="110" height="85.76" rx="12"/><rect class="cls-2" x="539.66" y="450.03" width="110" height="85.76" rx="12"/><rect class="cls-2" x="657.91" y="450.03" width="110" height="85.76" rx="12"/><rect class="cls-2" x="54.94" y="450.03" width="110" height="85.76" rx="12"/><rect class="cls-2" x="175.91" y="450.03" width="110" height="85.76" rx="12"/><rect class="cls-2" x="418.86" y="450.03" width="110" height="85.76" rx="12"/><path d="M399.48,570.2a2.48,2.48,0,0,0-1.1,1.91,2.9,2.9,0,0,0,.41,1.65,6.89,6.89,0,0,0,.6.82l.07.09a3.22,3.22,0,0,1,.24.36l0-.11c0,.16,0,.18,0,.07s0-.28.08-.28a7.1,7.1,0,0,0-.44.67,5.85,5.85,0,0,0-1.37,3.06,3.26,3.26,0,0,0,1.49,3,1.5,1.5,0,1,0,1.52-2.59c-.16-.1,0,0,0,0-.19-.19.14.09,0,0s-.08-.25,0-.06,0-.06,0-.09c0-.21,0,.38,0,0a1.85,1.85,0,0,1,0-.23c0-.24,0,0,0,.07s.05-.19.05-.22l.05-.14c-.05.12-.05.13,0,0l.14-.25a5,5,0,0,1,.31-.49c.25-.36.53-.7.76-1.08a2.86,2.86,0,0,0-.17-3.2c-.15-.22-.32-.43-.49-.64s-.18-.26-.07-.09l-.15-.23c-.09-.15,0-.14,0,0,0-.19,0,0,0,.08,0-.33-.05.2,0,0s0-.06,0,0a.64.64,0,0,1-.34.4,1.55,1.55,0,0,0,.53-2.06,1.51,1.51,0,0,0-2-.53Z" transform="translate(-41.8 -63.94)"/><rect class="cls-3" x="327.37" y="472.89" width="7.04" height="7.8" rx="3.52"/><path class="cls-3" d="M380.75,525v11.72a7.27,7.27,0,0,1-7.44,7.09H372a7.27,7.27,0,0,1-7.44-7.09V525a6,6,0,0,1,6.15-5.86h3.88A6,6,0,0,1,380.75,525Z" transform="translate(-41.8 -63.94)"/><rect class="cls-4" x="325.29" y="461.29" width="4.21" height="1.44" rx="0.72"/><rect class="cls-4" x="331.92" y="461.29" width="4.21" height="1.44" rx="0.72"/><path class="cls-5" d="M322.77,464.11h0a0,0,0,0,1,0,0v3.53a0,0,0,0,1,0,0h0A1.67,1.67,0,0,1,321.1,466v-.2a1.67,1.67,0,0,1,1.67-1.67Z"/><ellipse class="cls-6" cx="327.39" cy="463.73" rx="0.67" ry="0.64"/><ellipse class="cls-6" cx="334.24" cy="463.73" rx="0.67" ry="0.64"/><rect class="cls-7" x="330.04" y="465.38" width="1.67" height="2.72" rx="0.83"/><rect class="cls-8" x="321.83" y="479.83" width="18.13" height="21.08" rx="6.35"/><path class="cls-9" d="M331.86,523.4h6.46a7.19,7.19,0,0,1,7.19,7.19v0a0,0,0,0,1,0,0H331.86a0,0,0,0,1,0,0V523.4A0,0,0,0,1,331.86,523.4Z"/><rect class="cls-9" x="331.86" y="529.39" width="13.65" height="1.2"/><rect class="cls-9" x="331.86" y="529.99" width="13.65" height="0.3"/><path class="cls-9" d="M382,587.86a1.5,1.5,0,0,1-.4,1.38,4.23,4.23,0,0,1-1.24.88" transform="translate(-41.8 -63.94)"/><path class="cls-10" d="M381,588.13a1,1,0,0,1,0,.17l0-.27a.86.86,0,0,1,0,.32l0-.27a1.78,1.78,0,0,1-.1.38l.1-.24a1.63,1.63,0,0,1-.24.4l.16-.2a2.8,2.8,0,0,1-.46.45l.21-.16a7.34,7.34,0,0,1-.89.55,1.07,1.07,0,0,0-.46.6,1.09,1.09,0,0,0,.1.77,1,1,0,0,0,1.37.35,4.85,4.85,0,0,0,1.51-1.1,3.07,3.07,0,0,0,.59-1.06,2.3,2.3,0,0,0,0-1.22,1,1,0,0,0-.46-.6,1,1,0,0,0-.77-.1,1,1,0,0,0-.7,1.23Z" transform="translate(-41.8 -63.94)"/><path class="cls-9" d="M384,588.37a1.53,1.53,0,0,1-.39,1.38,4.85,4.85,0,0,1-1.25.88" transform="translate(-41.8 -63.94)"/><path class="cls-10" d="M383,588.63a1.16,1.16,0,0,1,0,.18l0-.27a1.6,1.6,0,0,1,0,.31l0-.26a1.56,1.56,0,0,1-.1.37l.1-.24a1.69,1.69,0,0,1-.24.41l.16-.2a2.67,2.67,0,0,1-.45.44l.2-.15a6.21,6.21,0,0,1-.89.54,1.1,1.1,0,0,0-.46.6,1,1,0,0,0,.11.77,1,1,0,0,0,1.36.36,4.73,4.73,0,0,0,1.51-1.11,3,3,0,0,0,.59-1,2.24,2.24,0,0,0,0-1.23,1,1,0,0,0-.46-.59,1,1,0,0,0-1.47,1.12Z" transform="translate(-41.8 -63.94)"/><path class="cls-9" d="M385.32,589.35a1.47,1.47,0,0,1-.39,1.38,4.47,4.47,0,0,1-1.25.88" transform="translate(-41.8 -63.94)"/><path class="cls-10" d="M384.36,589.62a.85.85,0,0,1,0,.17l0-.27a1.71,1.71,0,0,1,0,.32l0-.27a1.82,1.82,0,0,1-.11.38l.11-.24a2.65,2.65,0,0,1-.24.4l.16-.2a3.26,3.26,0,0,1-.46.45l.2-.16a7.21,7.21,0,0,1-.88.55,1,1,0,0,0-.46.59,1,1,0,0,0,.1.77,1,1,0,0,0,1.37.36,5,5,0,0,0,1.51-1.1,3,3,0,0,0,.58-1.06,2.2,2.2,0,0,0,0-1.22,1,1,0,0,0-.46-.6,1,1,0,0,0-.77-.1,1,1,0,0,0-.7,1.23Z" transform="translate(-41.8 -63.94)"/><path class="cls-11" d="M334.42,498.73h0a2.55,2.55,0,0,1,2.55,2.55v20.49a0,0,0,0,1,0,0h-5.1a0,0,0,0,1,0,0V501.28A2.55,2.55,0,0,1,334.42,498.73Z"/><rect class="cls-12" x="331.86" y="517.7" width="5.1" height="4.61"/><path class="cls-9" d="M357.51,587.34h13.65a0,0,0,0,1,0,0v0a7.19,7.19,0,0,1-7.19,7.19h-6.46a0,0,0,0,1,0,0v-7.19A0,0,0,0,1,357.51,587.34Z" transform="translate(686.87 1117.93) rotate(180)"/><rect class="cls-9" x="357.51" y="593.33" width="13.65" height="1.2" transform="translate(686.87 1123.92) rotate(-180)"/><rect class="cls-9" x="357.51" y="593.93" width="13.65" height="0.3" transform="translate(686.87 1124.22) rotate(-180)"/><path class="cls-9" d="M362.88,587.86a1.47,1.47,0,0,0,.39,1.38,4.28,4.28,0,0,0,1.25.88" transform="translate(-41.8 -63.94)"/><path class="cls-10" d="M361.91,587.6a2.2,2.2,0,0,0,0,1.22,2.89,2.89,0,0,0,.58,1.06,3.84,3.84,0,0,0,.78.67,6.65,6.65,0,0,0,.73.43,1,1,0,0,0,.77.11,1.07,1.07,0,0,0,.6-.46,1,1,0,0,0-.36-1.37,7.21,7.21,0,0,1-.88-.55l.2.16a3.26,3.26,0,0,1-.46-.45l.16.2a2.65,2.65,0,0,1-.24-.4l.1.24a2.66,2.66,0,0,1-.1-.38l0,.27a1.71,1.71,0,0,1,0-.32l0,.27a1,1,0,0,1,0-.17,1,1,0,0,0-.1-.77,1,1,0,0,0-.6-.46,1,1,0,0,0-1.23.7Z" transform="translate(-41.8 -63.94)"/><path class="cls-9" d="M360.86,588.37a1.51,1.51,0,0,0,.4,1.38,4.64,4.64,0,0,0,1.24.88" transform="translate(-41.8 -63.94)"/><path class="cls-10" d="M359.9,588.1a2.24,2.24,0,0,0,0,1.23,2.85,2.85,0,0,0,.58,1,3.89,3.89,0,0,0,.78.68,6.65,6.65,0,0,0,.73.43,1,1,0,0,0,.77.1,1,1,0,0,0,.24-1.83,6.21,6.21,0,0,1-.89-.54l.21.15a2.4,2.4,0,0,1-.46-.44l.16.2a1.69,1.69,0,0,1-.24-.41l.1.24a1.56,1.56,0,0,1-.1-.37l0,.26a.81.81,0,0,1,0-.31l0,.27a1.16,1.16,0,0,1,0-.18,1,1,0,0,0-.1-.77,1.07,1.07,0,0,0-.6-.46,1,1,0,0,0-1.23.7Z" transform="translate(-41.8 -63.94)"/><path class="cls-9" d="M359.5,589.35a1.52,1.52,0,0,0,.39,1.38,4.62,4.62,0,0,0,1.25.88" transform="translate(-41.8 -63.94)"/><path class="cls-10" d="M358.54,589.09a2.2,2.2,0,0,0,0,1.22,3.17,3.17,0,0,0,.59,1.06,3.59,3.59,0,0,0,.78.67,6.65,6.65,0,0,0,.73.43,1,1,0,0,0,.77.1,1,1,0,0,0,.59-.46,1,1,0,0,0-.35-1.36,7.34,7.34,0,0,1-.89-.55l.2.16a2.74,2.74,0,0,1-.45-.45l.15.2a2,2,0,0,1-.23-.4l.1.24a1.78,1.78,0,0,1-.1-.38l0,.27a1.71,1.71,0,0,1,0-.32l0,.27,0-.17a1,1,0,0,0-.1-.77,1,1,0,0,0-.59-.46,1,1,0,0,0-1.23.7Z" transform="translate(-41.8 -63.94)"/><path class="cls-11" d="M366.06,562.67h5.1a0,0,0,0,1,0,0v20.85a2.55,2.55,0,0,1-2.55,2.55h0a2.55,2.55,0,0,1-2.55-2.55V562.67A0,0,0,0,1,366.06,562.67Z" transform="translate(695.42 1084.8) rotate(-180)"/><rect class="cls-13" x="366.06" y="581.97" width="5.1" height="4.32" transform="translate(695.42 1104.33) rotate(-180)"/><rect class="cls-10" x="321.46" y="498.51" width="18.13" height="2.4"/><polygon class="cls-3" points="330.86 482.86 327.38 479.73 334.42 479.73 330.86 482.86"/><rect class="cls-9" x="324.26" y="519.82" width="5.1" height="4.61"/><rect class="cls-9" x="331.87" y="519.82" width="5.1" height="4.61"/><rect class="cls-14" x="328.37" y="497.86" width="4.83" height="3.53" rx="1.76"/><path class="cls-3" d="M363.61,565.15a3,3,0,0,1-3.52,2.44,3,3,0,0,1-2.64-3.29,2.81,2.81,0,0,1,.9-1.66l.65-4.27a2.09,2.09,0,0,1,2.38-1.65l1,.14a2,2,0,0,1,1.79,2.23l-.72,4.68A2.58,2.58,0,0,1,363.61,565.15Z" transform="translate(-41.8 -63.94)"/><path class="cls-8" d="M364.23,544.84l-1-.14c-1.14-.16-2.46,2.19-2.92,5.22L359,558.69l5.17.72,1.34-8.78C365.93,547.6,365.38,545,364.23,544.84Z" transform="translate(-41.8 -63.94)"/><path class="cls-3" d="M387.48,564.22a2.93,2.93,0,0,1-2.71,3.17,3,3,0,0,1-3.33-2.58,2.67,2.67,0,0,1,0-.75l-.67-6.22a2,2,0,0,1,1.84-2.14l1-.1a2,2,0,0,1,2.26,1.75l.53,4.93A2.85,2.85,0,0,1,387.48,564.22Z" transform="translate(-41.8 -63.94)"/><path class="cls-8" d="M382.49,545.24l-1,.1c-1.13.11-1.79,2.59-1.47,5.52l.91,8.46,5.08-.5-.92-8.46C384.8,547.43,383.62,545.13,382.49,545.24Z" transform="translate(-41.8 -63.94)"/><rect class="cls-15" x="365.52" y="583.01" width="6.18" height="2.25" rx="1.12" transform="translate(695.42 1104.32) rotate(-180)"/><rect class="cls-15" x="331.32" y="519.07" width="6.18" height="2.25" rx="1.12"/><ellipse class="cls-16" cx="330.9" cy="472.25" rx="1.91" ry="1.07"/><path class="cls-17" d="M384,523.47a3,3,0,0,1-.41.18,3.93,3.93,0,0,1-3.2-.27,8.14,8.14,0,0,1-1-.67,1.33,1.33,0,0,0-.56-.19,1.38,1.38,0,0,0-.55.09,3,3,0,0,1-.68.2l-1.88.46a15,15,0,0,1-2.7.47c-2.08,0-3.81-1.35-3.87-3s1.67-3,3.87-3a15.94,15.94,0,0,1,2.81.47c.63.15,1.24.29,2,.51a14,14,0,0,1,1.34.45,4.07,4.07,0,0,1,1.33.84,3.86,3.86,0,0,1,.82,1.22,6,6,0,0,0,.29.74,2.5,2.5,0,0,0,.92,1,3.22,3.22,0,0,0,1,.43A2.54,2.54,0,0,0,384,523.47Z" transform="translate(-41.8 -63.94)"/><path class="cls-18" d="M369.28,518.51a2,2,0,0,0-1.44.85,1.22,1.22,0,0,0,0,1c.14.3.36.54.52.83s.15.37-.09.47-.59.16-.88.27a4.36,4.36,0,0,0-1.66,1.12c-.37.4.23,1,.6.6a3.42,3.42,0,0,1,1.46-1c.58-.2,1.34-.27,1.49-1a1.43,1.43,0,0,0-.22-1,3.19,3.19,0,0,1-.47-.76c-.11-.44.62-.59.93-.65a.44.44,0,0,0,.3-.52.44.44,0,0,0-.53-.3Z" transform="translate(-41.8 -63.94)"/><path class="cls-18" d="M370.12,521.54a12.6,12.6,0,0,0-4.2,0,.42.42,0,0,0-.3.52.43.43,0,0,0,.52.3,11.24,11.24,0,0,1,3.75,0,.44.44,0,0,0,.53-.3.43.43,0,0,0-.3-.52Z" transform="translate(-41.8 -63.94)"/><path class="cls-18" d="M369.88,521.67a1.52,1.52,0,0,0-1-1.78,3.22,3.22,0,0,0-2.47.37.44.44,0,0,0-.15.59.44.44,0,0,0,.58.15,2.47,2.47,0,0,1,1.7-.33l.07,0,0,0a.83.83,0,0,1,.16.09l0,0,.07.07.06.05c.08.09,0,0,0,0a.83.83,0,0,1,.09.16c0,.05,0-.08,0,0a.19.19,0,0,0,0,.07c0,.07,0,0,0,0v.09s0,0,0,0a.35.35,0,0,1,0,.11.44.44,0,0,0,.3.53.43.43,0,0,0,.52-.3Z" transform="translate(-41.8 -63.94)"/><path class="cls-18" d="M369.43,520.06a2,2,0,0,0-1.69-1.32,2.07,2.07,0,0,0-1.93.92.42.42,0,1,0,.73.42s.07-.09,0-.05l.05,0a1.59,1.59,0,0,1,.13-.13c.06-.05-.07,0,0,0l.07-.05.19-.1h0l.08,0,.21,0c.07,0-.1,0,0,0h.31l.1,0,.18.06h0l.09.05.15.1s0,0,0,0l.07.07a.86.86,0,0,1,.13.14s0,0,0,0l.06.09,0,.07c.06.1,0-.07,0,0a.45.45,0,0,0,.53.3.42.42,0,0,0,.29-.52Z" transform="translate(-41.8 -63.94)"/><path class="cls-18" d="M370.12,518.25a4.11,4.11,0,0,0-5.24.5c-.37.4.23,1,.61.6a3.24,3.24,0,0,1,4.2-.36.43.43,0,0,0,.58-.16.44.44,0,0,0-.15-.58Z" transform="translate(-41.8 -63.94)"/><path class="cls-18" d="M368,518.21a5.46,5.46,0,0,0-2.36.49,2.18,2.18,0,0,0-.87.86,3,3,0,0,0-.3,1.41.42.42,0,0,0,.42.43.45.45,0,0,0,.43-.43,2.12,2.12,0,0,1,.21-1,.61.61,0,0,1,.07-.1l0-.06h0l.16-.16s.1-.08,0,0l.1-.07.2-.11.1,0,.06,0,.23-.08.5-.11h.18l.25,0,.54,0a.42.42,0,0,0,.43-.42.45.45,0,0,0-.43-.43Z" transform="translate(-41.8 -63.94)"/><path class="cls-18" d="M365.56,519.42a3.91,3.91,0,0,0-.8,2.33.43.43,0,0,0,.43.42.42.42,0,0,0,.42-.42c0-.1,0-.19,0-.29s0-.17,0-.06a.78.78,0,0,1,0-.14,3.23,3.23,0,0,1,.14-.51.5.5,0,0,1,0-.13h0l0-.07a2.26,2.26,0,0,1,.11-.22,3,3,0,0,1,.31-.48.42.42,0,0,0-.15-.58.43.43,0,0,0-.58.15Z" transform="translate(-41.8 -63.94)"/><path class="cls-18" d="M365.13,519.66a5.77,5.77,0,0,0,0,3.76.44.44,0,0,0,.53.3.42.42,0,0,0,.29-.52,5.07,5.07,0,0,1,0-3.31.41.41,0,0,0-.29-.52.44.44,0,0,0-.53.29Z" transform="translate(-41.8 -63.94)"/><path class="cls-18" d="M366.81,519.36a5.42,5.42,0,0,0-1.43,2.21c-.2.59-.27,1.43-.84,1.8s0,1,.43.73a3.25,3.25,0,0,0,1.14-2,4.67,4.67,0,0,1,1.3-2.12c.4-.37-.2-1-.6-.6Z" transform="translate(-41.8 -63.94)"/><path class="cls-18" d="M364.73,521.63a1.6,1.6,0,0,0,0,.21c0-.07,0-.08,0,0V522a1.48,1.48,0,0,1,0,.21c0,.05,0,0,0,0v.05a.44.44,0,0,1,0,.1,1.8,1.8,0,0,1-.05.19.42.42,0,0,0,0,.1c0-.06,0-.07,0,0l0,.05a1.74,1.74,0,0,1-.1.19l-.06.09s0,0,0,0l0,0a.47.47,0,0,0-.12.3.42.42,0,0,0,.12.3.43.43,0,0,0,.6,0,2.35,2.35,0,0,0,.48-2.1.41.41,0,0,0-.52-.29.43.43,0,0,0-.3.52Z" transform="translate(-41.8 -63.94)"/><path class="cls-18" d="M365.25,520.83l-.59.44a.43.43,0,0,0-.12.11.35.35,0,0,0-.07.15.32.32,0,0,0,0,.17.27.27,0,0,0,.05.15.47.47,0,0,0,.26.2h.11a.36.36,0,0,0,.21,0l.59-.45a.25.25,0,0,0,.12-.11.31.31,0,0,0,.07-.14.33.33,0,0,0,0-.17.3.3,0,0,0-.05-.16.43.43,0,0,0-.25-.19l-.12,0a.39.39,0,0,0-.21.06Z" transform="translate(-41.8 -63.94)"/><path class="cls-18" d="M366.06,523.08a13.21,13.21,0,0,0,1.2-.88l1.18-.92c.34-.27,0-.84-.41-.71l-2.26.73.41.71,2.72-3c.37-.4-.23-1-.6-.6l-2.72,3a.43.43,0,0,0,.41.71l2.26-.73-.41-.71-1.12.87a10.82,10.82,0,0,1-1.09.79.43.43,0,0,0,.43.74Z" transform="translate(-41.8 -63.94)"/><path class="cls-18" d="M369,519.18a4.06,4.06,0,0,1,.47,1,5.59,5.59,0,0,1,.12.56s0,.06,0,.08,0,0,0,0a.49.49,0,0,0,0,.12c0,.11,0,.22,0,.33a.45.45,0,0,0,.43.43.42.42,0,0,0,.42-.43,4.89,4.89,0,0,0-.75-2.55.42.42,0,1,0-.73.43Z" transform="translate(-41.8 -63.94)"/><path class="cls-18" d="M364.83,518.55a3.15,3.15,0,0,0-.89,2.38,7.53,7.53,0,0,1-.11,2.84.44.44,0,0,0,.15.58.41.41,0,0,0,.58-.15,6.45,6.45,0,0,0,.24-2.9,2.61,2.61,0,0,1,.63-2.15c.41-.36-.2-1-.6-.6Z" transform="translate(-41.8 -63.94)"/><path class="cls-5" d="M382.42,528.31h0a0,0,0,0,1,0,0v3.53a0,0,0,0,1,0,0h0a1.67,1.67,0,0,1-1.67-1.67V530a1.67,1.67,0,0,1,1.67-1.67Z" transform="translate(721.37 996.21) rotate(-180)"/><path class="cls-19" d="M381.93,532.92a9.07,9.07,0,0,1-4.94.82,6.14,6.14,0,0,0-4.29,1.17,6.18,6.18,0,0,0-4.3-1.17,9.07,9.07,0,0,1-4.94-.82s2.2,2.25,4.05,2.62c1.59.32,4.54.8,5.19-.13.65.93,3.59.45,5.19.13C379.73,535.17,381.93,532.92,381.93,532.92Z" transform="translate(-41.8 -63.94)"/><polygon class="cls-20" points="332.53 494.85 330.79 496.55 329.04 494.93 329.67 484.01 329.67 484 329.41 483.79 330.65 482.46 331.9 483.86 331.67 484.04 332.53 494.85"/><rect class="cls-21" x="349.85" y="466.74" width="38.04" height="23.7" rx="7"/><rect class="cls-22" x="352.15" y="468.98" width="22.92" height="17.07"/><rect class="cls-23" x="352.15" y="468.98" width="22.92" height="17.07"/><line class="cls-23" x1="352.15" y1="483.2" x2="375.07" y2="483.2"/><line class="cls-23" x1="352.15" y1="480.36" x2="375.07" y2="480.36"/><line class="cls-23" x1="352.15" y1="477.51" x2="375.07" y2="477.51"/><line class="cls-23" x1="352.15" y1="474.67" x2="375.07" y2="474.67"/><line class="cls-23" x1="352.15" y1="471.82" x2="375.07" y2="471.82"/><line class="cls-23" x1="371.25" y1="468.98" x2="371.25" y2="486.05"/><line class="cls-23" x1="367.43" y1="468.98" x2="367.43" y2="486.05"/><line class="cls-23" x1="363.61" y1="468.98" x2="363.61" y2="486.05"/><line class="cls-23" x1="359.79" y1="468.98" x2="359.79" y2="486.05"/><line class="cls-23" x1="355.97" y1="468.98" x2="355.97" y2="486.05"/><ellipse class="cls-24" cx="378.29" cy="470.5" rx="1.44" ry="1.37"/><ellipse class="cls-25" cx="384.42" cy="470.5" rx="1.44" ry="1.37"/><ellipse class="cls-26" cx="378.29" cy="474.67" rx="1.44" ry="1.37"/><ellipse class="cls-27" cx="384.42" cy="474.67" rx="1.44" ry="1.37"/><rect x="376.85" y="476.89" width="9.01" height="5.91" rx="2.95"/><rect x="376.85" y="483.64" width="9.01" height="2.41" rx="1.2"/><ellipse class="cls-28" cx="381.36" cy="484.84" rx="0.72" ry="0.68"/><ellipse class="cls-26" cx="383.7" cy="484.84" rx="0.72" ry="0.68"/><ellipse class="cls-29" cx="379.02" cy="484.84" rx="0.72" ry="0.68"/><rect x="352.15" y="487.26" width="22.92" height="2.15" rx="1.07"/><path class="cls-30" d="M393.89,526.45c2.28,0,2.41,30,4.69,30s2.16-30,4.44-30,2.41,30,4.7,30,2.16-30,4.44-30,2.42,30,4.7,30" transform="translate(-41.8 -63.94)"/><path class="cls-31" d="M420.82,547.73A1.89,1.89,0,0,0,419,549a2.67,2.67,0,0,0,.29,2.23,2,2,0,0,1,.29,1.78.74.74,0,0,1-.21.31s-.17.12-.17.13h.1v.21c0,.1.05.32,0,.5a1.43,1.43,0,0,1-1,1.18c-1.38.47-2.95-.1-4.38,0a4.45,4.45,0,0,0-2.42.89,5.62,5.62,0,0,0-.74.8,3.24,3.24,0,0,0-.22.28.39.39,0,0,1-.13,0h0c.12,0,.21,0,.29.18a1.06,1.06,0,0,0-1.83,1.07A2,2,0,0,0,412,559c.33-.29.55-.7.89-1a2.09,2.09,0,0,1,1-.41,20.27,20.27,0,0,1,3.21.1,4.75,4.75,0,0,0,3.17-1,3.43,3.43,0,0,0,1.16-3.11,2.19,2.19,0,0,0-2.26-1.94,2,2,0,0,0-1.89,2.37,2,2,0,0,0,2.62,1.47,3.2,3.2,0,0,0,1.93-3.3,4.6,4.6,0,0,0-.61-1.84c-.09-.18-.15-.35-.22-.52s.23.06-.17,0c1.37,0,1.37-2.07,0-2.12Z" transform="translate(-41.8 -63.94)"/><path class="cls-32" d="M421.66,548.38c-.4,1.55-.42,3.35,1.09,4.32.27.18.58.27.87.43,0,0,.32.23.21.14s.28.22.15.17-.2-.75.06-.88c-.11.06-.22.23-.32.32s-.46.41-.68.63a3.54,3.54,0,0,0-.74,4.23,6.37,6.37,0,0,0,3.16,2.6,1.56,1.56,0,0,0,2.06-.54,1.52,1.52,0,0,0-.54-2,12.81,12.81,0,0,1-1.46-.79,2.47,2.47,0,0,1-.42-.37c.07.08-.14-.22-.14-.23l-.07-.13c0,.1.05.1,0,0a.92.92,0,1,1,0-.12V556q0,.19,0,0c0-.1,0-.09,0,0l.07-.13c.26-.37-.1.09.08-.11.36-.39.79-.71,1.15-1.11a2.33,2.33,0,0,0,.6-2.26,3.69,3.69,0,0,0-2.06-2.08l-.23-.11c-.09-.05-.09,0,0,0-.19-.06,0-.16,0,0s-.05-.19-.06-.22c.05.24,0,0,0-.15a.55.55,0,0,1,0-.21c0-.17.08-.35.13-.52a1.5,1.5,0,0,0-2.9-.8Z" transform="translate(-41.8 -63.94)"/><path class="cls-33" d="M425.3,550.28a6,6,0,0,0,1.47.07c.22,0,.45,0,.68,0,0,0,.35,0,.17,0s.25,0,0,0c.16,0,.17.07.05,0,.14.06.13.14,0,0a5.19,5.19,0,0,1,.31.5,10,10,0,0,0,.93,1.31c1.34,1.58,3.81,3,5.63,1.27a2.39,2.39,0,0,0,.18-3.35,2.77,2.77,0,0,0-3.41-.44,3.2,3.2,0,0,0-1.53,2.67,4.06,4.06,0,0,0,1.07,2.81,6.81,6.81,0,0,0,1.28,1.12c.21.15.43.29.65.43l.26.16c.2.13,0,0,0-.12s0-.3-.07-.16a1.79,1.79,0,0,0,0,.4,3.93,3.93,0,0,0,.16,1,4.21,4.21,0,0,0,1,1.63,1.5,1.5,0,1,0,2.13-2.12c-.18-.18,0,.07-.13-.15s-.16-.37-.1-.16c0-.09-.07-.4,0-.16,0-.18,0-.37,0-.56a2.85,2.85,0,0,0-1.56-2.27c-.26-.16-.53-.33-.78-.52s0,0,0,0l-.17-.15a4.54,4.54,0,0,1-.38-.38c.13.15-.09-.14-.12-.19-.14-.22,0,.13-.06-.12s-.07-.38-.05-.12a1.21,1.21,0,0,1,0-.19s0-.3,0-.13.15-.28,0-.1,0,0,0,0-.18.12,0,.06-.25.09,0,0,0,0,0,0-.15,0-.22-.05a.74.74,0,0,1-.24-.64.94.94,0,0,1,.07-.22s.17-.17,0-.06.26-.09.1-.05.06,0,.08,0-.24,0-.05,0c-.07,0-.4-.13-.21-.05a1.9,1.9,0,0,1-.39-.23s-.2-.14-.1-.06-.08-.07-.08-.07a4.83,4.83,0,0,1-.4-.38,5.88,5.88,0,0,1-1-1.36,3.28,3.28,0,0,0-2.16-1.65,5.06,5.06,0,0,0-1.29-.06l-.54,0h-.23c-.06,0-.38,0-.13,0a1.54,1.54,0,0,0-1.85,1,1.53,1.53,0,0,0,1.05,1.85Z" transform="translate(-41.8 -63.94)"/><path d="M409.33,558.37l-.61-.68a.44.44,0,0,1,0-.63h0a.5.5,0,0,1,.67,0l.62.68a.43.43,0,0,1-.05.63h0A.51.51,0,0,1,409.33,558.37Z" transform="translate(-41.8 -63.94)"/><path d="M426.91,559.84l-.87-.33a.45.45,0,0,1-.27-.58l.18-.43a.48.48,0,0,1,.62-.26l.87.33a.46.46,0,0,1,.27.59l-.18.43A.49.49,0,0,1,426.91,559.84Z" transform="translate(-41.8 -63.94)"/><path d="M435.35,559.6l-.61-.68a.42.42,0,0,1,0-.63l.37-.31a.48.48,0,0,1,.66,0l.62.67a.45.45,0,0,1,0,.64l-.37.3A.5.5,0,0,1,435.35,559.6Z" transform="translate(-41.8 -63.94)"/><path class="cls-21" d="M355.73,502.07H362a0,0,0,0,1,0,0v2.85a3.15,3.15,0,0,1-3.15,3.15h0a3.15,3.15,0,0,1-3.15-3.15v-2.85A0,0,0,0,1,355.73,502.07Z"/><rect class="cls-34" x="356.66" y="499.52" width="0.82" height="2.55"/><rect class="cls-34" x="360.39" y="499.52" width="0.82" height="2.55"/><rect class="cls-34" x="358.53" y="498.93" width="0.82" height="3.14"/><rect class="cls-35" x="368.77" y="501.56" width="15.25" height="11.98" rx="5.99"/><rect x="379.21" y="508.35" width="0.81" height="2.6"/><polygon points="382.86 506.02 382.28 506.62 380.53 504.79 381.11 504.18 382.86 506.02"/><polygon points="376.74 506.62 376.17 506.02 377.92 504.18 378.49 504.79 376.74 506.62"/><rect class="cls-36" x="371.35" y="506.12" width="2.76" height="3.71" rx="1.38"/><rect class="cls-37" x="372.09" y="506.78" width="1.29" height="0.97" rx="0.48"/><path class="cls-38" d="M729.56,539.1a1.65,1.65,0,0,1,.32.18l-.91-.7a1.93,1.93,0,0,1,.33.31l-.7-.91a2.22,2.22,0,0,1,.23.39l-.45-1.07a2,2,0,0,1,.13.44l-.16-1.2a2.46,2.46,0,0,1,0,.28,4.64,4.64,0,0,0,1.32,3.18,3.36,3.36,0,0,0,1.45.93,3.41,3.41,0,0,0,1.73.39,4.51,4.51,0,0,0,4.5-4.5,6.4,6.4,0,0,0-.1-.88,6.06,6.06,0,0,0-.13-.82,5.65,5.65,0,0,0-.67-1.53,6.4,6.4,0,0,0-1-1.26,9.36,9.36,0,0,0-1.06-.82l-.31-.19a3.5,3.5,0,0,0-1.68-.53,3.41,3.41,0,0,0-1.79.08,4.59,4.59,0,0,0-2.69,2.07,4.53,4.53,0,0,0-.45,3.47,4.44,4.44,0,0,0,2.06,2.69Z" transform="translate(-41.8 -63.94)"/><path class="cls-38" d="M727.33,533.83c-.2-.9,0,.21,0,.46-.05.56,0,.56,0,0,0,.18-.07.35-.11.52s-.09.34-.14.51c.22-.47.26-.56.11-.27-.65,1,.42-.3-.25.29a4.53,4.53,0,0,0,0,6.37,4.6,4.6,0,0,0,6.36,0c2.77-2.46,3.47-6.79,2.7-10.25a4.52,4.52,0,0,0-5.53-3.14,4.6,4.6,0,0,0-3.15,5.53Z" transform="translate(-41.8 -63.94)"/><path class="cls-38" d="M712.87,532.35a9.91,9.91,0,0,0,2.93,9.31c1.77,1.54,4.64,1.87,6.36,0,1.56-1.7,1.9-4.71,0-6.36-.14-.13-.29-.26-.42-.4-.32-.36-.26-.28.16.24-.1-.16-.2-.33-.29-.5.22.6.28.74.16.41,0-.13-.09-.27-.13-.41-.1-.49-.1-.37,0,.35,0,0,.2-2-.1-.25.39-2.31-.6-5-3.14-5.53-2.17-.5-5.12.66-5.54,3.14Z" transform="translate(-41.8 -63.94)"/><path class="cls-38" d="M712.06,536.55a2.46,2.46,0,0,1,0,.28l.16-1.19a2.72,2.72,0,0,1-.15.54l.45-1.08a1.94,1.94,0,0,1-.28.48l.71-.91-.12.15a3.36,3.36,0,0,0-.93,1.45,4,4,0,0,0,0,3.46,3.36,3.36,0,0,0,.93,1.45A4.51,4.51,0,0,0,716,542.5a4.45,4.45,0,0,0,3.18-1.32,10,10,0,0,0,.93-1.21,8.45,8.45,0,0,0,.63-1.4,2.64,2.64,0,0,0,.12-.4,8.76,8.76,0,0,0,.21-1.62,4.32,4.32,0,0,0-2.76-4.11,3.47,3.47,0,0,0-1.74-.39,4.6,4.6,0,0,0-3.18,1.32,4.87,4.87,0,0,0-1.32,3.18Z" transform="translate(-41.8 -63.94)"/><path class="cls-38" d="M714.21,535.58l.42.38a4.54,4.54,0,0,0,2,1.15,5.1,5.1,0,0,0,3.47-.45,4.6,4.6,0,0,0,1.61-1.61,6,6,0,0,0,.51-1.2s0-.07,0-.1l.16-1.2v-.13l-.16-1.2a.07.07,0,0,1,0-.05l0-.08-.45-1.07,0-.06a3.36,3.36,0,0,0-1.16-1.26,4,4,0,0,0-3.33-.89,3.33,3.33,0,0,0-1.67.53l-.91.71a4.43,4.43,0,0,0-1.16,2l-.16,1.2a4.52,4.52,0,0,0,.61,2.27.09.09,0,0,1,0,.06l-.45-1.08a.93.93,0,0,1,0,.13l-.16-1.19v.13l.16-1.19a.94.94,0,0,1,0,.16l.45-1.08,0,.06,7.07-.91-.43-.38a3.36,3.36,0,0,0-1.45-.93,4,4,0,0,0-3.46,0,3.36,3.36,0,0,0-1.45.93l-.71.91a4.52,4.52,0,0,0-.61,2.27l.16,1.2a4.52,4.52,0,0,0,1.16,2Z" transform="translate(-41.8 -63.94)"/><path class="cls-38" d="M735.12,537.77a20.91,20.91,0,0,0,.25-3,4.24,4.24,0,0,0,0-1c-.13.73-.14.86,0,.37a2.55,2.55,0,0,1,.18-.53,4.53,4.53,0,0,0-.46-3.47,4.49,4.49,0,0,0-8.22,1.08,8.82,8.82,0,0,0-.48,3c0,.33,0,.67,0,1s-.13,1.65.07.23a4.93,4.93,0,0,0,.46,3.47,4.51,4.51,0,0,0,6.15,1.61,4.3,4.3,0,0,0,2.07-2.69Z" transform="translate(-41.8 -63.94)"/><path class="cls-39" d="M724.47,565.13s6.37,1.92,6.25.36c-.19-2.49-1.25-3-1.38-5.6a72,72,0,0,1,.1-8.5c.15-1.5.52-1.13.75-2.22a11.91,11.91,0,0,0-.34-5.57,8.29,8.29,0,0,0-2.29-1.57,2.6,2.6,0,0,0-3.09,1.57Z" transform="translate(-41.8 -63.94)"/><path class="cls-39" d="M724.75,565.13s-6,1.78-6,.18c0-2.4,1-2.86,1.13-5.42a47.86,47.86,0,0,0,.07-8.57c-.1-.68-.76-1.3-.87-1.86a14,14,0,0,1,.28-5.86,2.93,2.93,0,0,1,2.42-1.45,3,3,0,0,1,3,1.45Z" transform="translate(-41.8 -63.94)"/><rect class="cls-40" x="731.34" y="549.1" width="3.47" height="9.43" rx="1.73" transform="translate(-73.96 -18.58) rotate(-3.47)"/><rect class="cls-40" x="714.55" y="548.99" width="3.47" height="9.43" rx="1.73" transform="translate(1355.97 1085.78) rotate(-176.53)"/><rect class="cls-40" x="680.72" y="475.74" width="3.83" height="3.83" rx="1.91"/><path class="cls-40" d="M681.6,460.28h1.93a5.07,5.07,0,0,1,5.07,5.07v5.32a6,6,0,0,1-6,6h0a6,6,0,0,1-6-6v-5.32A5.07,5.07,0,0,1,681.6,460.28Z"/><path class="cls-41" d="M724.25,543.51l.37,2.44s1,0,2.8.2a5.8,5.8,0,0,1,3.24,1.35,11.53,11.53,0,0,0-.56-4.1,9.42,9.42,0,0,0-2.48-1.57c-2-.34-1.1,1.3-3.31,1.23C724.08,543,724.25,543.51,724.25,543.51Z" transform="translate(-41.8 -63.94)"/><path class="cls-41" d="M724.57,543.41l0,2.54-2.85,0c-.72,0-3.17,1.58-3.17,1.58a11.61,11.61,0,0,1,.55-4.1,8.81,8.81,0,0,1,2.44-1.57c2-.34.27.63,2.72,1.22C724.2,543.22,724.57,543.41,724.57,543.41Z" transform="translate(-41.8 -63.94)"/><rect class="cls-40" x="715.73" y="544.03" width="3.47" height="7.28" rx="1.73" transform="matrix(-0.93, -0.37, 0.37, -0.93, 1136.39, 1259.89)"/><rect class="cls-40" x="730.16" y="544.14" width="3.47" height="7.28" rx="1.73" transform="translate(-193.51 249.37) rotate(-21.95)"/><path class="cls-41" d="M729.8,547.38l3.28-1.21L731.85,543a1.43,1.43,0,0,0-1.82-.79l-.64.24a1.34,1.34,0,0,0-.82,1.76Z" transform="translate(-41.8 -63.94)"/><path class="cls-41" d="M719.56,547.26l-3.27-1.2,1.23-3.15a1.42,1.42,0,0,1,1.81-.8l.65.24a1.35,1.35,0,0,1,.81,1.76Z" transform="translate(-41.8 -63.94)"/><rect class="cls-39" x="684.95" y="477.83" width="1.37" height="3.43" rx="0.68"/><rect class="cls-39" x="679.22" y="477.83" width="1.37" height="3.43" rx="0.68"/><ellipse class="cls-10" cx="685.63" cy="481.59" rx="0.73" ry="0.89"/><ellipse class="cls-10" cx="679.9" cy="481.59" rx="0.73" ry="0.89"/><rect class="cls-42" x="679.68" y="485.57" width="6.2" height="3.41" rx="1.71"/><path class="cls-42" d="M680.91,485.57h3.74a1.23,1.23,0,0,1,1.23,1.23v0a0,0,0,0,1,0,0h-6.2a0,0,0,0,1,0,0v0a1.23,1.23,0,0,1,1.23-1.23Z"/><rect class="cls-38" x="719.7" y="581.3" width="4.14" height="7.51" rx="2.07" transform="translate(-79.68 -13.84) rotate(-3.87)"/><rect class="cls-43" x="677.06" y="516.99" width="5.34" height="1.18" rx="0.59"/><path class="cls-38" d="M720.29,592.27l-6.47,0c0-.7.2-2.74,1.87-2.85,2.14-.13,4.57-1,4.28-2-.76-2.68,1-1.31,2.78-.82,2.23.59.59,1.82,1.73,3.43a4.62,4.62,0,0,1,.27,2.24l-2.09,0,0-.78Z" transform="translate(-41.8 -63.94)"/><polygon class="cls-44" points="682.96 528.35 680.84 528.35 680.81 527.55 682.96 527.55 682.96 528.35"/><polygon class="cls-44" points="678.44 528.35 672.02 528.35 672.06 527.8 680.81 527.55 678.44 528.35"/><rect class="cls-38" x="725.39" y="581.3" width="4.14" height="7.51" rx="2.07" transform="translate(1371.93 1153.98) rotate(-176.13)"/><rect class="cls-43" x="725.03" y="580.93" width="5.34" height="1.18" rx="0.59" transform="translate(1413.59 1099.11) rotate(-180)"/><path class="cls-38" d="M728.93,592.27l6.47,0c0-.7-.2-2.74-1.87-2.85-2.14-.13-4.57-1-4.28-2,.77-2.68-1-1.31-2.77-.82-2.23.59-.6,1.82-1.74,3.43a4.74,4.74,0,0,0-.26,2.24l2.09,0,0-.78Z" transform="translate(-41.8 -63.94)"/><polygon class="cls-44" points="682.67 528.35 684.78 528.35 684.81 527.55 682.67 527.55 682.67 528.35"/><polygon class="cls-44" points="687.18 528.35 693.6 528.35 693.57 527.8 684.81 527.55 687.18 528.35"/><circle class="cls-40" cx="691.37" cy="493.84" r="2.24"/><circle class="cls-40" cx="674.15" cy="493.78" r="2.24"/><path class="cls-10" d="M721.8,531a.43.43,0,0,0,0-.85.43.43,0,0,0,0,.85Z" transform="translate(-41.8 -63.94)"/><path class="cls-10" d="M727,531a.43.43,0,0,0,0-.85.43.43,0,0,0,0,.85Z" transform="translate(-41.8 -63.94)"/><path class="cls-10" d="M726.12,529.56a4.75,4.75,0,0,0,1.19,0,1.35,1.35,0,0,1,.91.13.28.28,0,0,0,.28-.49,1.7,1.7,0,0,0-1.08-.22,5.58,5.58,0,0,1-1.15.09.29.29,0,0,0-.35.2.28.28,0,0,0,.2.34Z" transform="translate(-41.8 -63.94)"/><path class="cls-10" d="M722.73,529a14.24,14.24,0,0,0-1.48-.2,1.64,1.64,0,0,0-1.23.42.28.28,0,0,0,.4.4,1.18,1.18,0,0,1,.92-.25c.42,0,.83.12,1.24.18a.3.3,0,0,0,.35-.2.28.28,0,0,0-.2-.35Z" transform="translate(-41.8 -63.94)"/><rect class="cls-45" x="682.27" y="468.46" width="1.09" height="2.13" rx="0.55"/><path class="cls-10" d="M726.32,536.65a21.29,21.29,0,0,1-2.26.18,3.17,3.17,0,0,1-1,0,1.63,1.63,0,0,1-.71-.53c-.24-.28-.64.13-.4.4a2.38,2.38,0,0,0,.76.61,2.69,2.69,0,0,0,1.13.13,23.35,23.35,0,0,0,2.5-.18.3.3,0,0,0,.29-.28c0-.14-.14-.31-.29-.29Z" transform="translate(-41.8 -63.94)"/><path class="cls-39" d="M733,583.94,718,583.56a1.58,1.58,0,0,1-1.54-1.52L716,571a61.89,61.89,0,0,1,.82-6.92c.61-1.59,2.49-4.82,4.2-5.11,3.76-.64,4.68-.93,8.37,1,2.37,1.22,4.54,8.1,4.5,10.07-.07,3.41.38,9.63.61,12.5A1.38,1.38,0,0,1,733,583.94Z" transform="translate(-41.8 -63.94)"/><path d="M729,559.79h-8.77c-.15,0-.28,0-.28-.12l.06-1.35c0-.15.07-.21.22-.21H729c.15,0,.32-.15.32,0l0,1.52C729.32,559.78,729.11,559.79,729,559.79Z" transform="translate(-41.8 -63.94)"/><path class="cls-38" d="M725.89,525.68c3.27-.69,4.4,4.37,4.81,6.49A26.48,26.48,0,0,0,733,538c.91,2,3.84.27,2.94-1.71a21.94,21.94,0,0,1-2-6,12.19,12.19,0,0,0-1.84-4.35c-1.62-2.58-4-4.19-7.09-3.53-2.15.45-1.24,3.73.9,3.28Z" transform="translate(-41.8 -63.94)"/><path class="cls-38" d="M724.34,522.23c-3.09-.65-5.48.94-7.09,3.54a12.64,12.64,0,0,0-1.81,4.12,26.44,26.44,0,0,1-2.07,6.22c-.9,2,2,3.71,2.94,1.72a26.07,26.07,0,0,0,2.32-5.83c.41-2.12,1.54-7.18,4.81-6.49,2.14.45,3-2.83.9-3.28Z" transform="translate(-41.8 -63.94)"/><path class="cls-45" d="M688.6,465.23h0a1.24,1.24,0,0,1,1.24,1.24v.36a.83.83,0,0,1-.83.83h-.41a0,0,0,0,1,0,0v-2.43A0,0,0,0,1,688.6,465.23Z"/><path class="cls-45" d="M717.09,529.17h.41a.83.83,0,0,1,.83.83v.36a1.24,1.24,0,0,1-1.24,1.24h0a0,0,0,0,1,0,0v-2.43A0,0,0,0,1,717.09,529.17Z" transform="translate(1393.61 996.83) rotate(-180)"/><rect class="cls-46" x="708.01" y="477.28" width="25.89" height="35.84" rx="5"/><polygon class="cls-47" points="714.72 494.49 709.41 497.06 709.41 490.62 714.72 492.21 714.72 494.49"/><polygon class="cls-47" points="714.72 494.49 720.03 497.06 720.03 490.62 714.72 492.21 714.72 494.49"/><rect class="cls-47" x="720.03" y="493.14" width="1.41" height="1.41"/><rect class="cls-47" x="709.86" y="479.08" width="22.52" height="8.31" rx="1"/><line class="cls-47" x1="711.77" y1="491.32" x2="711.81" y2="495.9"/><line class="cls-47" x1="709.43" y1="490.72" x2="711.81" y2="495.9"/><line class="cls-47" x1="711.79" y1="491.4" x2="709.41" y2="497.06"/><rect class="cls-47" x="723.15" y="490.41" width="9.67" height="7.15" rx="1"/><rect class="cls-47" x="708.79" y="501.22" width="4.42" height="9.46" rx="1"/><polygon class="cls-47" points="716.99 505.15 720.2 510.02 713.79 510.02 716.99 505.15"/><polygon class="cls-47" points="723.33 505.15 726.53 510.02 720.12 510.02 723.33 505.15"/><polygon class="cls-47" points="729.73 505.15 732.94 510.02 726.53 510.02 729.73 505.15"/><line class="cls-47" x1="716.95" y1="505.1" x2="729.73" y2="505.1"/><rect x="723.7" y="491.01" width="4.79" height="0.64" rx="0.32"/><rect x="723.7" y="492.23" width="4.79" height="0.64" rx="0.32"/><rect x="723.7" y="493.45" width="4.79" height="0.64" rx="0.32"/><rect x="709.12" y="501.72" width="3.75" height="0.64" rx="0.32"/><rect x="709.12" y="502.83" width="3.75" height="0.64" rx="0.32"/><rect x="709.13" y="503.94" width="3.75" height="0.64" rx="0.32"/><rect x="709.13" y="505.04" width="3.75" height="0.64" rx="0.32"/><rect x="709.13" y="506.15" width="2.78" height="0.64" rx="0.32"/><rect x="710.82" y="480.06" width="20.71" height="1.19" rx="0.6"/><rect x="710.82" y="482.24" width="18.7" height="1.19" rx="0.6"/><rect class="cls-48" x="703.16" y="489.27" width="2" height="17.02"/><path class="cls-49" d="M703.16,504.46h2a0,0,0,0,1,0,0v1.37a1,1,0,0,1-1,1h0a1,1,0,0,1-1-1v-1.37A0,0,0,0,1,703.16,504.46Z"/><rect class="cls-50" x="703.16" y="504.21" width="2" height="0.96"/><polygon class="cls-51" points="704.16 485.7 705.16 489.26 703.16 489.26 704.16 485.7"/><polygon class="cls-10" points="704.62 487.34 704.16 485.7 703.7 487.34 704.62 487.34"/><rect class="cls-52" x="697.12" y="477.22" width="3.29" height="31.7"/><path d="M698.44,477.66h2a0,0,0,0,1,0,0v.55a0,0,0,0,1,0,0h-2a.27.27,0,0,1-.27-.27v0A.27.27,0,0,1,698.44,477.66Z"/><path d="M699.56,478.73h.85a0,0,0,0,1,0,0v.55a0,0,0,0,1,0,0h-.85a.27.27,0,0,1-.27-.27v0A.27.27,0,0,1,699.56,478.73Z"/><path d="M699.56,479.81h.85a0,0,0,0,1,0,0v.55a0,0,0,0,1,0,0h-.85a.27.27,0,0,1-.27-.27v0A.27.27,0,0,1,699.56,479.81Z"/><path d="M699.56,480.88h.85a0,0,0,0,1,0,0v.55a0,0,0,0,1,0,0h-.85a.27.27,0,0,1-.27-.27v0A.27.27,0,0,1,699.56,480.88Z"/><path d="M698.45,482h2a0,0,0,0,1,0,0v.55a0,0,0,0,1,0,0h-2a.27.27,0,0,1-.27-.27v0A.27.27,0,0,1,698.45,482Z"/><path d="M699.56,483h.85a0,0,0,0,1,0,0v.55a0,0,0,0,1,0,0h-.85a.27.27,0,0,1-.27-.27v0A.27.27,0,0,1,699.56,483Z"/><path d="M699.56,484.11h.85a0,0,0,0,1,0,0v.55a0,0,0,0,1,0,0h-.85a.27.27,0,0,1-.27-.27v0A.27.27,0,0,1,699.56,484.11Z"/><path d="M699.56,485.18h.85a0,0,0,0,1,0,0v.55a0,0,0,0,1,0,0h-.85a.27.27,0,0,1-.27-.27v0A.27.27,0,0,1,699.56,485.18Z"/><path d="M698.45,486.26h2a0,0,0,0,1,0,0v.55a0,0,0,0,1,0,0h-2a.27.27,0,0,1-.27-.27v0a.27.27,0,0,1,.27-.27Z"/><path d="M699.56,487.34h.85a0,0,0,0,1,0,0v.55a0,0,0,0,1,0,0h-.85a.27.27,0,0,1-.27-.27v0A.27.27,0,0,1,699.56,487.34Z"/><path d="M699.56,488.41h.85a0,0,0,0,1,0,0V489a0,0,0,0,1,0,0h-.85a.27.27,0,0,1-.27-.27v0a.27.27,0,0,1,.27-.27Z"/><path d="M699.56,489.49h.85a0,0,0,0,1,0,0V490a0,0,0,0,1,0,0h-.85a.27.27,0,0,1-.27-.27v0A.27.27,0,0,1,699.56,489.49Z"/><path d="M698.45,490.56h2a0,0,0,0,1,0,0v.55a0,0,0,0,1,0,0h-2a.27.27,0,0,1-.27-.27v0A.27.27,0,0,1,698.45,490.56Z"/><path d="M699.55,491.64h.85a0,0,0,0,1,0,0v.55a0,0,0,0,1,0,0h-.85a.27.27,0,0,1-.27-.27v0A.27.27,0,0,1,699.55,491.64Z"/><path d="M699.55,492.71h.85a0,0,0,0,1,0,0v.55a0,0,0,0,1,0,0h-.85a.27.27,0,0,1-.27-.27v0a.27.27,0,0,1,.27-.27Z"/><path d="M699.55,493.78h.85a0,0,0,0,1,0,0v.55a0,0,0,0,1,0,0h-.85a.27.27,0,0,1-.27-.27v0A.27.27,0,0,1,699.55,493.78Z"/><path d="M698.44,494.86h2a0,0,0,0,1,0,0v.55a0,0,0,0,1,0,0h-2a.27.27,0,0,1-.27-.27v0A.27.27,0,0,1,698.44,494.86Z"/><path d="M699.55,495.93h.85a0,0,0,0,1,0,0v.55a0,0,0,0,1,0,0h-.85a.27.27,0,0,1-.27-.27v0A.27.27,0,0,1,699.55,495.93Z"/><path d="M699.55,497h.85a0,0,0,0,1,0,0v.55a0,0,0,0,1,0,0h-.85a.27.27,0,0,1-.27-.27v0A.27.27,0,0,1,699.55,497Z"/><path d="M699.55,498.08h.85a0,0,0,0,1,0,0v.55a0,0,0,0,1,0,0h-.85a.27.27,0,0,1-.27-.27v0A.27.27,0,0,1,699.55,498.08Z"/><path d="M698.44,499.16h2a0,0,0,0,1,0,0v.55a0,0,0,0,1,0,0h-2a.27.27,0,0,1-.27-.27v0A.27.27,0,0,1,698.44,499.16Z"/><path d="M699.55,500.23h.85a0,0,0,0,1,0,0v.55a0,0,0,0,1,0,0h-.85a.27.27,0,0,1-.27-.27v0A.27.27,0,0,1,699.55,500.23Z"/><path d="M699.55,501.31h.85a0,0,0,0,1,0,0v.55a0,0,0,0,1,0,0h-.85a.27.27,0,0,1-.27-.27v0a.27.27,0,0,1,.27-.27Z"/><path d="M699.55,502.38h.85a0,0,0,0,1,0,0v.55a0,0,0,0,1,0,0h-.85a.27.27,0,0,1-.27-.27v0A.27.27,0,0,1,699.55,502.38Z"/><path d="M698.44,503.46h2a0,0,0,0,1,0,0V504a0,0,0,0,1,0,0h-2a.27.27,0,0,1-.27-.27v0A.27.27,0,0,1,698.44,503.46Z"/><path d="M699.55,504.53h.85a0,0,0,0,1,0,0v.55a0,0,0,0,1,0,0h-.85a.27.27,0,0,1-.27-.27v0a.27.27,0,0,1,.27-.27Z"/><path d="M699.55,505.61h.85a0,0,0,0,1,0,0v.55a0,0,0,0,1,0,0h-.85a.27.27,0,0,1-.27-.27v0A.27.27,0,0,1,699.55,505.61Z"/><path d="M699.55,506.68h.85a0,0,0,0,1,0,0v.55a0,0,0,0,1,0,0h-.85a.27.27,0,0,1-.27-.27v0A.27.27,0,0,1,699.55,506.68Z"/><path d="M698.44,507.76h2a0,0,0,0,1,0,0v.55a0,0,0,0,1,0,0h-2a.27.27,0,0,1-.27-.27v0a.27.27,0,0,1,.27-.27Z"/><path class="cls-53" d="M644,566.5a19.25,19.25,0,0,0-2,0,3.15,3.15,0,0,0-1.92.93,2.54,2.54,0,0,0-.61,2.21,2.33,2.33,0,0,0,1.53,1.7,1.46,1.46,0,0,0,1.46-.38,2.35,2.35,0,0,0,.72-1.59,1.9,1.9,0,0,0-.87-1.56,2.3,2.3,0,0,0-2.81.75,3.24,3.24,0,0,0-.94,2.37,2.68,2.68,0,0,0,1.43,2.26,1.46,1.46,0,0,0,1.51,0,1.88,1.88,0,0,0,.86-1.28,1.91,1.91,0,0,0-.37-1.44,2,2,0,0,0-2.68-.36,3.17,3.17,0,0,0-1.17,2.2,2.91,2.91,0,0,0,.67,2.68,2,2,0,0,0,2.8,0,1.87,1.87,0,0,0-.15-2.74c-1-.79-2.19-.09-2.83.8a2.75,2.75,0,0,0-.38,2.36,2.72,2.72,0,0,0,2.22,2,2.12,2.12,0,0,0,2.42-2.11,1.55,1.55,0,0,0-1.5-1.5,2,2,0,0,0-2,1.56,2.26,2.26,0,0,0,1,2.44,3.19,3.19,0,0,0,4.42-3.46,1.8,1.8,0,0,0-2.85-.82,2.08,2.08,0,0,0-.5,2.58,2.17,2.17,0,0,0,2.43,1.07,2.85,2.85,0,0,0,2-1.74c.1-.23.19-.46.28-.69s0-.09,0,0l.13-.25s.14-.2,0-.08,0,.06,0,0,.06-.07-.05,0a.64.64,0,0,1-.57,0,1.51,1.51,0,0,0,2-.54,1.53,1.53,0,0,0-.54-2,2.64,2.64,0,0,0-3.67,1.38c-.13.28-.24.58-.36.88.11-.28-.07.13-.08.15l-.07.12c.1-.12.09-.11,0,0,.05,0,.33-.15.17-.11s-.08.05.37,0l.37.24a.86.86,0,0,1,.25.57,1,1,0,0,1-.68,1h-.8l-.17-.08-.54-.53a1,1,0,0,1-.09-.71,1.31,1.31,0,0,1-.08.21c.11-.31,0,0-.06.1a1.59,1.59,0,0,1-.13.22c.11-.14.11-.15,0,0s-.12.11,0,0c-.14.07-.15.08,0,0s.11,0,0,0q.35,0,.09,0c.23,0,.26,0,.1,0a.41.41,0,0,1,.24.13c.1.09.1.08,0,0a.8.8,0,0,1,.26.61.78.78,0,0,1-.26.59c-.77.16-1,.26-.62.29l-1.5-1.5a.94.94,0,0,1,.85-.83.52.52,0,0,1,.38.11c-.16-.09-.08,0,0,.07h0c0-.1,0-.08,0,.09v-.13l0,.16c.12-.36-.09.17,0,0s0-.07-.06.07l.08-.09-.11.1a1,1,0,0,1,.21-.11h-1.52l-.42-1.57c.65-.67,1.18-.77,1.57-.32a.33.33,0,0,1,.16.19.23.23,0,0,1,0,.11v-.22c0,.22,0,0,0-.11a3.29,3.29,0,0,0,.16-.59c.06.1-.29.38-.34.41-.33.18-.6,0-.84-.47-.66-.19-.85-.54-.56-1.07l.54-.54-.06.05h1.51c-.32-.14.19.22-.06,0,.08.08.17.15,0,0,.06.17.08.19,0,.09s0-.08,0,.11c0-.29-.07.19,0,0s-.17.28,0-.06-.08,0,0-.06.16-.15.25-.22l-.1.07c.24-.14.14-.13-.31,0l-.76-.2c.18-1.53,0-2-.36-1.53l1.46-.38a.85.85,0,0,1,.54.4c.08.22.09.25,0,.09,0,.22,0,.27,0,.16s0-.07,0,.15-.11.23,0,.09a.35.35,0,0,1-.15.17c-.09.06-.07,0,0,0h0c.15,0,.34-.06.08,0a3.87,3.87,0,0,1,.59,0c.37,0,.73,0,1.1,0a1.5,1.5,0,0,0,0-3Z" transform="translate(-41.8 -63.94)"/><path class="cls-54" d="M665.72,540.14v14.37a.61.61,0,0,1-.61.61H643.47a.6.6,0,0,1-.6-.61V540.14a.6.6,0,0,1,.6-.61h13.8l.81-2.11h3.58l1.2,2.11h2.25A.61.61,0,0,1,665.72,540.14Z" transform="translate(-41.8 -63.94)"/><path class="cls-55" d="M663.37,541.31v14.38a.6.6,0,0,1-.6.6H641.13a.6.6,0,0,1-.61-.6V541.31a.6.6,0,0,1,.61-.6h13.79l.82-2.11h3.58l1.19,2.11h2.26A.6.6,0,0,1,663.37,541.31Z" transform="translate(-41.8 -63.94)"/><path class="cls-56" d="M661.22,542.3v14.38a.61.61,0,0,1-.6.61H639a.61.61,0,0,1-.6-.61V542.3a.6.6,0,0,1,.6-.6h13.8l.81-2.11h3.58l1.2,2.11h2.25A.6.6,0,0,1,661.22,542.3Z" transform="translate(-41.8 -63.94)"/><path class="cls-57" d="M620.35,526.08v11.46A6.94,6.94,0,0,1,616,544v3.77h-6.29V544a6.94,6.94,0,0,1-4.39-6.45V526.08a5.73,5.73,0,0,1,5.73-5.72h3.61A5.72,5.72,0,0,1,620.35,526.08Z" transform="translate(-41.8 -63.94)"/><rect class="cls-58" x="562.57" y="482.01" width="16.88" height="20.61" rx="6.35"/><rect class="cls-59" x="575.25" y="485.08" width="2.36" height="2.36"/><rect class="cls-60" x="574.87" y="485.88" width="3.11" height="3.11" rx="1.56"/><path class="cls-10" d="M572.05,524.6h5.68a7,7,0,0,1,7,7v0a0,0,0,0,1,0,0H572.05a0,0,0,0,1,0,0v-7A0,0,0,0,1,572.05,524.6Z"/><rect class="cls-61" x="572.05" y="530.45" width="12.71" height="1.18"/><rect class="cls-62" x="572.05" y="531.04" width="12.71" height="0.29"/><path class="cls-63" d="M574.91,500.48h0a2.86,2.86,0,0,1,2.86,2.86v20.72a0,0,0,0,1,0,0h-5.73a0,0,0,0,1,0,0V503.35a2.86,2.86,0,0,1,2.86-2.86Z"/><path class="cls-10" d="M599.07,588.54h12.71a0,0,0,0,1,0,0v0a7,7,0,0,1-7,7h-5.68a0,0,0,0,1,0,0v-7A0,0,0,0,1,599.07,588.54Z" transform="translate(1169.05 1120.16) rotate(180)"/><rect class="cls-61" x="599.07" y="594.39" width="12.71" height="1.18" transform="translate(1169.05 1126.02) rotate(-180)"/><rect class="cls-62" x="599.07" y="594.98" width="12.71" height="0.29" transform="translate(1169.05 1126.32) rotate(-180)"/><rect class="cls-64" x="606.05" y="586.86" width="5.73" height="1.67" transform="translate(1176.04 1111.46) rotate(-180)"/><path class="cls-63" d="M606.05,564.42h5.73a0,0,0,0,1,0,0v19.24a2.86,2.86,0,0,1-2.86,2.86h0a2.86,2.86,0,0,1-2.86-2.86V564.42A0,0,0,0,1,606.05,564.42Z" transform="translate(1176.04 1087) rotate(-180)"/><rect class="cls-10" x="562.4" y="500.27" width="16.88" height="2.34"/><rect class="cls-65" x="568.84" y="499.63" width="4.5" height="3.45" rx="1.72"/><path class="cls-58" d="M623.22,546.79h-1.57c-3.07,0-1.26,3.68-1.26,7.51v11.08h4.75V554.3C625.14,550.47,626,547.66,623.22,546.79Z" transform="translate(-41.8 -63.94)"/><path class="cls-58" d="M602.84,547h1.57c3.06,0,1.26,3.68,1.26,7.51v11.09h-4.76V554.46C600.91,550.63,600.11,547.83,602.84,547Z" transform="translate(-41.8 -63.94)"/><circle class="cls-57" cx="561.15" cy="502.56" r="2.83"/><circle class="cls-57" cx="581.32" cy="502.32" r="2.83"/><rect class="cls-66" x="565.03" y="462.36" width="5.57" height="4.49" rx="2"/><rect class="cls-66" x="571.81" y="462.36" width="5.57" height="4.49" rx="2"/><rect class="cls-67" x="570.6" y="464.99" width="1.21" height="0.48"/><rect class="cls-67" x="577.34" y="464.32" width="1.21" height="0.67"/><rect class="cls-67" x="563.48" y="464.27" width="1.44" height="0.67"/><path class="cls-68" d="M620.3,539.19c0,4.1-7.27,7.06-7.27,7.06s-7.53-2.93-7.53-7,3.93.36,7.53.36S620.3,535.1,620.3,539.19Z" transform="translate(-41.8 -63.94)"/><ellipse cx="571.02" cy="474.78" rx="2.35" ry="1.25"/><path class="cls-17" d="M622.28,540.5a7.41,7.41,0,0,0-1-.66,5.14,5.14,0,0,0-2.24-.76,3.05,3.05,0,0,0-1.89.51,6.94,6.94,0,0,1-1.16.66,3.12,3.12,0,0,1-3.4-2,2.75,2.75,0,0,1,1.79-3.85,6.92,6.92,0,0,1,6.25,2.07,6.75,6.75,0,0,1,1.42,2.77A7.78,7.78,0,0,1,622.28,540.5Z" transform="translate(-41.8 -63.94)"/><path class="cls-17" d="M603.51,540.5a7.26,7.26,0,0,1,.22-1.21,6.51,6.51,0,0,1,1.42-2.77,6.9,6.9,0,0,1,6.24-2.07,2.75,2.75,0,0,1,1.79,3.85,3.12,3.12,0,0,1-3.4,2,6.94,6.94,0,0,1-1.16-.66,3,3,0,0,0-1.89-.51,5.19,5.19,0,0,0-2.24.76A8.38,8.38,0,0,0,603.51,540.5Z" transform="translate(-41.8 -63.94)"/><rect class="cls-69" x="563.63" y="520.76" width="6.83" height="2.2" rx="1.1"/><rect class="cls-64" x="613.85" y="586.86" width="5.73" height="1.67" transform="translate(1191.63 1111.46) rotate(-180)"/><rect class="cls-69" x="571.42" y="520.76" width="6.83" height="2.2" rx="1.1"/><rect class="cls-70" x="570.59" y="466.82" width="1.23" height="2.4" rx="0.61"/><path class="cls-71" d="M578.55,465.64h0a1.23,1.23,0,0,1,1.23,1.23v.37a1.23,1.23,0,0,1-1.23,1.23h0a0,0,0,0,1,0,0v-2.83A0,0,0,0,1,578.55,465.64Z"/><path class="cls-71" d="M604.05,529.58h0a1.23,1.23,0,0,1,1.23,1.23v.37a1.23,1.23,0,0,1-1.23,1.23h0a0,0,0,0,1,0,0v-2.83A0,0,0,0,1,604.05,529.58Z" transform="translate(1167.53 998.05) rotate(180)"/><path class="cls-72" d="M659.36,543.48v14.38a.61.61,0,0,1-.61.6H637.11a.6.6,0,0,1-.6-.6V543.48a.6.6,0,0,1,.6-.6h13.8l.81-2.12h3.58l1.2,2.12h2.25A.61.61,0,0,1,659.36,543.48Z" transform="translate(-41.8 -63.94)"/><rect class="cls-73" x="596.09" y="482.25" width="20.07" height="4.26" rx="2"/><rect class="cls-74" x="611.96" y="487.86" width="4.2" height="2.48" rx="1.24"/><rect class="cls-48" x="627.71" y="475.29" width="2.21" height="18.78"/><path class="cls-49" d="M627.71,492.06h2.21a0,0,0,0,1,0,0v1.61a1,1,0,0,1-1,1h-.21a1,1,0,0,1-1-1v-1.61a0,0,0,0,1,0,0Z"/><rect class="cls-50" x="627.71" y="491.78" width="2.21" height="1.05"/><polygon class="cls-51" points="628.82 471.35 629.92 475.29 627.71 475.29 628.82 471.35"/><polygon class="cls-10" points="629.32 473.16 628.82 471.35 628.31 473.16 629.32 473.16"/><circle class="cls-75" cx="571.37" cy="485.42" r="0.43"/><circle class="cls-75" cx="571.37" cy="487.75" r="0.43"/><circle class="cls-75" cx="571.4" cy="490.25" r="0.43"/><circle class="cls-75" cx="571.4" cy="492.59" r="0.43"/><circle class="cls-75" cx="571.4" cy="494.98" r="0.43"/><circle class="cls-75" cx="571.4" cy="497.26" r="0.43"/><polygon class="cls-76" points="618.48 518.57 605.11 518.57 602.81 516.24 620.78 516.24 618.48 518.57"/><polygon class="cls-77" points="620.78 516.24 602.81 516.24 605.11 506.34 618.48 506.34 620.78 516.24"/><path d="M609,504.8h0a1,1,0,0,1,1,1v.5a0,0,0,0,1,0,0H608a0,0,0,0,1,0,0v-.5A1,1,0,0,1,609,504.8Z"/><path d="M614.49,504.8h0a1,1,0,0,1,1,1v.5a0,0,0,0,1,0,0h-2.07a0,0,0,0,1,0,0v-.5A1,1,0,0,1,614.49,504.8Z"/><circle class="cls-78" cx="611.79" cy="511.29" r="4.1"/><circle class="cls-79" cx="611.79" cy="508.41" r="0.53"/><circle class="cls-79" cx="611.79" cy="514.28" r="0.53"/><circle class="cls-79" cx="614.82" cy="511.1" r="0.53"/><circle class="cls-79" cx="608.76" cy="511.1" r="0.53"/><circle class="cls-79" cx="609.81" cy="509.46" r="0.53"/><circle class="cls-79" cx="613.77" cy="509.46" r="0.53"/><circle class="cls-79" cx="609.81" cy="513.11" r="0.53"/><circle class="cls-79" cx="613.77" cy="513.11" r="0.53"/><circle class="cls-80" cx="611.79" cy="511.1" r="0.68"/><path d="M662.22,569.65c-.83.67-3.43-.65-4.41-1a16.82,16.82,0,0,0-4.35-.64,51.25,51.25,0,0,0-5.61,1.07s-2.92,1.29-3.87.67-.73-2.57,0-3.34,3.33-.41,4.52-.53,3.87-.38,5-.38,3.43.18,4.73.32c1.08.12,3.28-.07,4,.68C662.82,567.11,663,569,662.22,569.65Z" transform="translate(-41.8 -63.94)"/><path class="cls-81" d="M274.13,562.77H273a.41.41,0,0,1-.41-.41s-.16-1.84-.2-3.8,0-4.3,0-5.26c0-2,.2-6.48.2-6.48h1.75s-.18,4.08-.18,6.07.18,9.67.18,9.67A.21.21,0,0,1,274.13,562.77Z" transform="translate(-41.8 -63.94)"/><path class="cls-82" d="M249,572.46h7.73a0,0,0,0,1,0,0v10.16a3.87,3.87,0,0,1-3.87,3.87h0a3.87,3.87,0,0,1-3.87-3.87V572.46A0,0,0,0,1,249,572.46Z" transform="translate(463.87 1095.02) rotate(-180)"/><path class="cls-82" d="M239.34,572.4h7.73a0,0,0,0,1,0,0v10.16a3.87,3.87,0,0,1-3.87,3.87h0a3.87,3.87,0,0,1-3.87-3.87V572.4A0,0,0,0,1,239.34,572.4Z" transform="translate(444.61 1094.89) rotate(-180)"/><path class="cls-83" d="M257.2,572a64,64,0,0,0-9.75-.44c-7.9,0-5.9,2.1-9.65,0-4.79-2.68-5-27.69,9.45-27.82C263.72,543.63,261.82,572.23,257.2,572Z" transform="translate(-41.8 -63.94)"/><path class="cls-84" d="M214.11,468.47h0a1.53,1.53,0,0,1,1.53,1.53v1.11a1.53,1.53,0,0,1-1.53,1.53h0a0,0,0,0,1,0,0v-4.17A0,0,0,0,1,214.11,468.47Z"/><path class="cls-85" d="M204.08,462.56h3.45a6.59,6.59,0,0,1,6.59,6.59V478a8.31,8.31,0,0,1-8.31,8.31h0a8.31,8.31,0,0,1-8.31-8.31v-8.85a6.59,6.59,0,0,1,6.59-6.59Z"/><path class="cls-86" d="M244.43,548.53a2.47,2.47,0,0,1-2.28.62,4.65,4.65,0,0,1-2.76-1.83,7.38,7.38,0,0,1-1.15-2.77,9.15,9.15,0,0,1-.19-2,13.82,13.82,0,0,1,.31-1.84,13.42,13.42,0,0,1,.42-1.54l.4-1.22.4-1.15.5,1.1.52,1.18c.19.45.4.93.63,1.35s.42.9.66,1.24a8.36,8.36,0,0,0,.79.87c.53.53,1,1,1.3,1.29C245,545.2,245.56,547.37,244.43,548.53Z" transform="translate(-41.8 -63.94)"/><path class="cls-86" d="M247.64,553.47c1.59,0,2.87,1,2.86,2.12s-2.92,4.77-2.92,4.77-2.85-3.67-2.84-4.82S246.05,553.46,247.64,553.47Z" transform="translate(-41.8 -63.94)"/><path class="cls-86" d="M244.61,544.55c1.48.64,1.81,2.86,1.36,4.51-.12.42-.43,1-.72,1.69a8,8,0,0,0-.4,1.11,13.59,13.59,0,0,0-.14,1.39,12.19,12.19,0,0,0-.07,1.49l0,1.28,0,1.22-.8-.92-.83-1a12.09,12.09,0,0,1-1-1.26,12.7,12.7,0,0,1-1-1.59,8.83,8.83,0,0,1-.57-1.91,7.25,7.25,0,0,1,0-3,4.64,4.64,0,0,1,1.86-2.73A2.46,2.46,0,0,1,244.61,544.55Z" transform="translate(-41.8 -63.94)"/><path class="cls-86" d="M250.78,548.53c-1.13-1.16-.6-3.33.44-4.69.27-.34.78-.76,1.31-1.29a8.36,8.36,0,0,0,.79-.87c.23-.34.43-.82.66-1.24s.44-.9.63-1.35l.52-1.18.5-1.1L256,538l.4,1.22a13.42,13.42,0,0,1,.42,1.54,13.82,13.82,0,0,1,.31,1.84,9.15,9.15,0,0,1-.19,2,7.38,7.38,0,0,1-1.15,2.77,4.65,4.65,0,0,1-2.76,1.83A2.47,2.47,0,0,1,250.78,548.53Z" transform="translate(-41.8 -63.94)"/><path class="cls-86" d="M247.57,553.47c1.59,0,2.89.91,2.9,2.07s-2.84,4.82-2.84,4.82-2.91-3.61-2.92-4.77S246,553.48,247.57,553.47Z" transform="translate(-41.8 -63.94)"/><path class="cls-86" d="M250.6,544.55a2.46,2.46,0,0,1,2.35.29,4.64,4.64,0,0,1,1.86,2.73,7.25,7.25,0,0,1,0,3,8.83,8.83,0,0,1-.57,1.91,12.7,12.7,0,0,1-1,1.59,12.09,12.09,0,0,1-1,1.26l-.83,1-.8.92,0-1.22,0-1.28a12.19,12.19,0,0,0-.07-1.49,13.59,13.59,0,0,0-.14-1.39,8,8,0,0,0-.4-1.11c-.29-.69-.61-1.27-.72-1.69C248.79,547.41,249.12,545.19,250.6,544.55Z" transform="translate(-41.8 -63.94)"/><ellipse class="cls-87" cx="205.84" cy="483.68" rx="4.43" ry="8.76"/><path class="cls-88" d="M254.58,539.8c2.34,1.26.91,5.85.83,3.39,0-1.17-2.94,0-4.62,0a3.19,3.19,0,0,1-3.34-3.41c0-2.26,2.3-2,4-1.36S254.58,539.8,254.58,539.8Z" transform="translate(-41.8 -63.94)"/><path class="cls-88" d="M241.08,539.8c-2.34,1.26-.91,5.85-.83,3.39,0-1.17,2.94,0,4.61,0a3.19,3.19,0,0,0,3.34-3.41c0-2.26-2.3-2-4-1.36S241.08,539.8,241.08,539.8Z" transform="translate(-41.8 -63.94)"/><rect class="cls-87" x="199.07" y="466.06" width="5.75" height="1.72" rx="0.86"/><rect class="cls-87" x="206.78" y="466.06" width="5.75" height="1.72" rx="0.86"/><circle class="cls-88" cx="202.77" cy="468.66" r="0.89"/><circle class="cls-88" cx="208.99" cy="468.66" r="0.89"/><path class="cls-84" d="M248.57,538.86h-1.49a.67.67,0,0,1-.66-.67l.16-1.65c0-.36.14-.91.5-.91h1.49c.37,0,.52.59.52,1l.15,1.61A.67.67,0,0,1,248.57,538.86Z" transform="translate(-41.8 -63.94)"/><rect class="cls-89" x="196.04" y="507.66" width="19.97" height="4.62" rx="2.31"/><rect class="cls-83" x="253.65" y="550.88" width="13.44" height="8.68" rx="4.34" transform="translate(714.66 130.78) rotate(79.12)"/><rect class="cls-85" x="257.5" y="559.99" width="11.66" height="5.78" transform="translate(724.57 134.09) rotate(79.12)"/><circle class="cls-85" cx="222.53" cy="504.17" r="3.17"/><rect class="cls-83" x="228.71" y="551.59" width="13.44" height="8.68" rx="4.34" transform="translate(784 365.75) rotate(100.88)"/><rect class="cls-85" x="226.59" y="561" width="11.66" height="5.71" transform="translate(788.21 378.13) rotate(100.88)"/><rect class="cls-90" x="201.26" y="505.34" width="9.76" height="7.48" rx="3.74"/><path class="cls-91" d="M207,521.44h5.59a6.93,6.93,0,0,1,6.93,6.93v0a0,0,0,0,1,0,0H207a0,0,0,0,1,0,0v-6.93A0,0,0,0,1,207,521.44Z"/><rect class="cls-92" x="207.02" y="527.21" width="12.52" height="1.16"/><rect class="cls-62" x="207.02" y="527.79" width="12.52" height="0.29"/><path class="cls-10" d="M257.54,586.64a.85.85,0,0,1,0,.17l0-.27a1.6,1.6,0,0,1,0,.31l0-.27a2.24,2.24,0,0,1-.1.37l.1-.24a2,2,0,0,1-.25.43l.15-.21a2.23,2.23,0,0,1-.44.43l.2-.15a5.77,5.77,0,0,1-.74.47,1,1,0,0,0-.36,1.37,1,1,0,0,0,1.37.36,4.87,4.87,0,0,0,1.47-1.16,2.46,2.46,0,0,0,.49-2.15,1,1,0,0,0-.46-.59,1,1,0,0,0-.77-.1,1,1,0,0,0-.7,1.23Z" transform="translate(-41.8 -63.94)"/><path class="cls-91" d="M234.66,585.38h12.52a0,0,0,0,1,0,0v0a6.93,6.93,0,0,1-6.93,6.93h-5.59a0,0,0,0,1,0,0v-6.93A0,0,0,0,1,234.66,585.38Z" transform="translate(440.03 1113.74) rotate(180)"/><rect class="cls-92" x="234.66" y="591.15" width="12.52" height="1.16" transform="translate(440.03 1119.51) rotate(-180)"/><rect class="cls-62" x="234.66" y="591.73" width="12.52" height="0.29" transform="translate(440.03 1119.8) rotate(-180)"/><path class="cls-10" d="M236.53,586.1a2.46,2.46,0,0,0,.49,2.15,4.75,4.75,0,0,0,1.47,1.16,1,1,0,0,0,.77.1,1.06,1.06,0,0,0,.6-.46,1,1,0,0,0-.36-1.37,5.87,5.87,0,0,1-.75-.47l.21.15a2,2,0,0,1-.45-.43l.16.21a2,2,0,0,1-.25-.43l.1.24a1.56,1.56,0,0,1-.1-.37l0,.27a1.07,1.07,0,0,1,0-.31l0,.27,0-.17a1,1,0,0,0-.1-.77,1,1,0,0,0-.59-.46,1,1,0,0,0-.77.1,1,1,0,0,0-.46.59Z" transform="translate(-41.8 -63.94)"/><rect class="cls-93" x="206.31" y="517.64" width="8.95" height="5.58" rx="2.79"/><rect class="cls-93" x="196.93" y="517.64" width="8.95" height="5.58" rx="2.79"/><circle class="cls-85" cx="189.4" cy="505.27" r="3.17"/><path class="cls-84" d="M237.8,532.6h0a1.53,1.53,0,0,1,1.53,1.53v1.11a1.53,1.53,0,0,1-1.53,1.53h0a0,0,0,0,1,0,0V532.6a0,0,0,0,1,0,0Z" transform="translate(435.33 1005.44) rotate(180)"/><path class="cls-87" d="M251.34,525.88h-7.55a4.82,4.82,0,0,0-4.53,5.07v.8a3.48,3.48,0,0,1,3.26-3.66h10.09a3.48,3.48,0,0,1,3.27,3.66V531A4.83,4.83,0,0,0,251.34,525.88Z" transform="translate(-41.8 -63.94)"/><polygon class="cls-94" points="229.28 528.17 225.19 528.17 233.36 507.33 236.77 507.33 229.28 528.17"/><polygon class="cls-94" points="261.78 528.17 265.86 528.17 257.7 507.33 254.28 507.33 261.78 528.17"/><rect class="cls-95" x="229.8" y="504.17" width="31.39" height="3.46" rx="1"/><path class="cls-96" d="M229.8,505.07h0a0,0,0,0,1,0,0v1.65a0,0,0,0,1,0,0h0a.74.74,0,0,1-.74-.74v-.16a.74.74,0,0,1,.74-.74Z"/><path class="cls-96" d="M303.73,569h0a0,0,0,0,1,0,0v1.65a0,0,0,0,1,0,0h0a.74.74,0,0,1-.74-.74v-.16A.74.74,0,0,1,303.73,569Z" transform="translate(564.92 1075.74) rotate(180)"/><polygon class="cls-97" points="233.38 479.01 233.91 481.02 233.38 483.02 229.98 483.02 229.42 481.02 229.98 479.01 233.38 479.01"/><rect class="cls-97" x="228.79" y="480.3" width="5.75" height="1.43"/><path class="cls-98" d="M275.89,544.1a5.44,5.44,0,0,1,1-.25c.25,0,1,0,1,.25,0,.46,0,1.23,0,1.69,0,.26-.73.28-1,.28a5,5,0,0,1-1-.28Z" transform="translate(-41.8 -63.94)"/><path class="cls-98" d="M268.09,543.4c0-.37,1-.47,1.41-.47s1.41.1,1.41.47c0,.86,0,2.2,0,3.07,0,.37-1,.46-1.41.51s-1.4-.14-1.41-.51C268.08,545.56,268.11,544.3,268.09,543.4Z" transform="translate(-41.8 -63.94)"/><polygon class="cls-99" points="265.34 498.71 262.07 502.17 261.96 501.44 260.96 501.31 260.67 500.29 259.58 500.25 259.25 499.21 258.27 499.24 258.02 498.27 257.09 498.33 256.83 497.44 255.76 497.3 255.27 496.22 254.45 496.29 254.25 495.37 253.24 495.36 252.91 494.36 251.95 494.36 251.76 493.45 250.77 493.45 250.53 492.59 249.58 492.54 249.19 491.5 248.23 491.5 247.84 490.49 246.86 490.44 246.48 489.42 245.59 489.47 245.36 488.59 244.41 488.55 244.25 487.72 243.31 487.71 248.19 482.53 265.34 498.71"/><path class="cls-100" d="M285.35,541.67l-5.3,5.62a.63.63,0,0,0,0,.9l4.2,4a.63.63,0,0,0,.9,0l5.3-5.61a.64.64,0,0,0,0-.9l-4.2-4A.63.63,0,0,0,285.35,541.67Zm3,3.41-4.68,5-2.05-1.94a.65.65,0,0,1,0-.91l3.8-4a.63.63,0,0,1,.9,0Z" transform="translate(-41.8 -63.94)"/><circle class="cls-101" cx="243.69" cy="486.04" r="0.68"/><circle class="cls-101" cx="245.33" cy="484.31" r="0.68"/><circle class="cls-101" cx="246.75" cy="482.8" r="0.68"/><rect class="cls-102" x="465.46" y="479.49" width="47.15" height="28.33" rx="12"/><polygon class="cls-103" points="473.37 495.4 472.93 495.48 472.96 493.77 473.54 493.79 473.37 495.4"/><polygon class="cls-104" points="472.69 503.05 470.37 503.05 469.61 492.6 473.02 492.6 472.69 503.05"/><path class="cls-105" d="M528.74,552.77v-1.46h0a1.46,1.46,0,1,1,0,2.91Z" transform="translate(-41.8 -63.94)"/><rect class="cls-106" x="442.01" y="472.59" width="6.12" height="7.12" rx="3.06"/><rect class="cls-107" x="437.19" y="478.93" width="15.77" height="19.25" rx="6.35"/><path class="cls-108" d="M445.91,518.7h5.3a6.57,6.57,0,0,1,6.57,6.57v0a0,0,0,0,1,0,0H445.91a0,0,0,0,1,0,0V518.7A0,0,0,0,1,445.91,518.7Z"/><rect class="cls-108" x="445.91" y="524.17" width="11.87" height="1.1"/><rect class="cls-108" x="445.91" y="524.72" width="11.87" height="0.27"/><path class="cls-109" d="M448.13,496.18h0a2.22,2.22,0,0,1,2.22,2.22v18.82a0,0,0,0,1,0,0h-4.44a0,0,0,0,1,0,0V498.4A2.22,2.22,0,0,1,448.13,496.18Z"/><rect class="cls-110" x="445.91" y="513.5" width="4.44" height="4.21"/><rect class="cls-110" x="445.44" y="512.78" width="5.38" height="2.05" rx="1.03"/><path class="cls-108" d="M473.67,582.64h11.87a0,0,0,0,1,0,0v0a6.57,6.57,0,0,1-6.57,6.57h-5.3a0,0,0,0,1,0,0v-6.57A0,0,0,0,1,473.67,582.64Z" transform="translate(917.4 1107.91) rotate(180)"/><rect class="cls-108" x="473.67" y="588.11" width="11.87" height="1.1" transform="translate(917.4 1113.38) rotate(-180)"/><rect class="cls-108" x="473.67" y="588.66" width="11.87" height="0.27" transform="translate(917.4 1113.66) rotate(-180)"/><path class="cls-109" d="M481.1,560.12h4.44a0,0,0,0,1,0,0v19.14a2.22,2.22,0,0,1-2.22,2.22h0a2.22,2.22,0,0,1-2.22-2.22V560.12A0,0,0,0,1,481.1,560.12Z" transform="translate(924.83 1077.66) rotate(-180)"/><rect class="cls-110" x="481.1" y="577.74" width="4.44" height="3.95" transform="translate(924.83 1095.49) rotate(-180)"/><rect class="cls-110" x="480.63" y="576.72" width="5.38" height="2.05" rx="1.03" transform="translate(924.83 1091.55) rotate(180)"/><rect class="cls-10" x="436.87" y="495.98" width="15.76" height="2.19"/><circle class="cls-106" cx="453.78" cy="496.25" r="2.64"/><rect class="cls-106" x="451.33" y="490.17" width="4.44" height="6.08" rx="2.22"/><circle class="cls-106" cx="436.15" cy="496.25" r="2.64"/><rect class="cls-106" x="434.35" y="485.97" width="4.44" height="10.84" rx="2.22"/><path class="cls-107" d="M495.78,543.33h-.86c-1,0-1.79,2.51-1.79,5.57v8.85h4.44V548.9C497.57,545.84,496.76,543.33,495.78,543.33Z" transform="translate(-41.8 -63.94)"/><path class="cls-107" d="M478.8,543.57h-.86c-1,0-1.79,2.59-1.79,5.76v9.17h4.44v-9.17C480.59,546.16,479.79,543.57,478.8,543.57Z" transform="translate(-41.8 -63.94)"/><path class="cls-106" d="M486.16,545.14l-2.35-2.37h6.12l-2.35,2.37A1,1,0,0,1,486.16,545.14Z" transform="translate(-41.8 -63.94)"/><rect class="cls-108" x="439.3" y="516.68" width="4.44" height="2.96"/><rect class="cls-108" x="445.91" y="516.68" width="4.44" height="2.96"/><path class="cls-111" d="M482.48,542.87h-1a1,1,0,0,0-1,1l.35,15.88a1,1,0,0,0,1,1h3.3a1,1,0,0,0,1-1l-.45-13.18a1,1,0,0,0-.29-.66Z" transform="translate(-41.8 -63.94)"/><path class="cls-112" d="M483,560.75h-1.64L481,543.3a.58.58,0,0,1,.55-.6H482a.56.56,0,0,1,.57.57Z" transform="translate(-41.8 -63.94)"/><path class="cls-111" d="M491.26,542.87h1a1,1,0,0,1,1,1l-.35,15.88a1,1,0,0,1-1,1h-3.3a1,1,0,0,1-1-1l.45-13.18a1,1,0,0,1,.29-.66Z" transform="translate(-41.8 -63.94)"/><path class="cls-112" d="M490.73,560.75h1.64l.41-17.45a.58.58,0,0,0-.55-.6h-.53a.58.58,0,0,0-.58.57Z" transform="translate(-41.8 -63.94)"/><path class="cls-106" d="M443.56,459h3a5.26,5.26,0,0,1,5.26,5.26v5.07a6.77,6.77,0,0,1-6.77,6.77h0a6.77,6.77,0,0,1-6.77-6.77v-5.07a5.26,5.26,0,0,1,5.26-5.26Z"/><path class="cls-113" d="M487,527.22h-8c0-5,3.59-9.16,8-9.16s8,4.14,8,9.16h-8Z" transform="translate(-41.8 -63.94)"/><rect class="cls-113" x="436.57" y="462.36" width="16.98" height="1.03"/><path class="cls-114" d="M487.57,520.39l1.65.91a4.13,4.13,0,0,1,1.23.89,8,8,0,0,1,.86,1.26,9,9,0,0,1,.75,1.48.78.78,0,0,0,.92.53.76.76,0,0,0,.53-.93,10.61,10.61,0,0,0-.86-1.76,10,10,0,0,0-1.08-1.58,5.35,5.35,0,0,0-1.44-1.1l-1.8-1a.75.75,0,1,0-.76,1.29Z" transform="translate(-41.8 -63.94)"/><path class="cls-114" d="M487.65,522.49s.14.11.06,0,.05.05.06.05l.19.17c.14.11.27.24.4.36s.25.26.37.4.11.13.17.2l.09.11c.07.08-.11-.15,0,0a10.44,10.44,0,0,1,.58.89l.24.48.06.13,0,.06s0,0,0,0,.08.2.11.27a.77.77,0,0,0,.92.52.75.75,0,0,0,.52-.92,8.7,8.7,0,0,0-3-4,.75.75,0,0,0-1,.27.77.77,0,0,0,.27,1Z" transform="translate(-41.8 -63.94)"/><path class="cls-114" d="M485.35,519.1l-1.76,1a5.26,5.26,0,0,0-1.48,1.12,10.79,10.79,0,0,0-1.06,1.54,11.1,11.1,0,0,0-.88,1.8.76.76,0,0,0,.52.93.78.78,0,0,0,.93-.53,8.42,8.42,0,0,1,.72-1.44,8,8,0,0,1,.89-1.3,3.87,3.87,0,0,1,1.19-.86l1.68-.94a.75.75,0,1,0-.75-1.29Z" transform="translate(-41.8 -63.94)"/><path class="cls-114" d="M485.61,521a8.68,8.68,0,0,0-3,4,.75.75,0,1,0,1.44.4c0-.06.06-.22.11-.26s-.05.11,0,0l.06-.13a4.44,4.44,0,0,1,.24-.49,6.74,6.74,0,0,1,.59-.91c.05-.07,0,0,0,0l.09-.12.17-.19c.12-.14.24-.27.37-.4l.39-.37.22-.18.09-.07c-.15.09,0,0,0,0a.75.75,0,1,0-.75-1.29Z" transform="translate(-41.8 -63.94)"/><path class="cls-114" d="M486.25,522.64l0,3a.76.76,0,0,0,.75.75.77.77,0,0,0,.75-.75l0-3a.75.75,0,0,0-1.5,0Z" transform="translate(-41.8 -63.94)"/><rect class="cls-115" x="439.63" y="504.23" width="3.78" height="3.59" rx="1.79"/><rect class="cls-115" x="446.24" y="504.23" width="3.78" height="3.59" rx="1.79"/><circle class="cls-6" cx="442.16" cy="466.34" r="0.85"/><circle class="cls-6" cx="447.89" cy="466.34" r="0.85"/><rect class="cls-116" x="444.67" y="467.75" width="1.13" height="2.16" rx="0.56"/><rect class="cls-117" x="483.45" y="527.28" width="0.82" height="2.91" rx="0.41" transform="translate(-69.59 966.69) rotate(-91.99)"/><rect class="cls-117" x="489.28" y="527.28" width="0.82" height="2.91" rx="0.41" transform="translate(-97.5 935.86) rotate(-88.01)"/><path class="cls-118" d="M451.84,465.81h.32a1.13,1.13,0,0,1,1.13,1.13v0a1.13,1.13,0,0,1-1.13,1.13h-.32a0,0,0,0,1,0,0v-2.27A0,0,0,0,1,451.84,465.81Z"/><path class="cls-118" d="M478.67,530H479a1.13,1.13,0,0,1,1.13,1.13v0a1.13,1.13,0,0,1-1.13,1.13h-.32a0,0,0,0,1,0,0V530A0,0,0,0,1,478.67,530Z" transform="translate(916.98 998.31) rotate(180)"/><path class="cls-10" d="M484.21,536.5a3,3,0,0,0,1.6.68,7.72,7.72,0,0,0,2,0,4.21,4.21,0,0,0,2.82-2.16c.21-.3-.28-.59-.49-.29a3.63,3.63,0,0,1-2.43,1.9,7.78,7.78,0,0,1-1.6,0,2.53,2.53,0,0,1-1.48-.54c-.27-.25-.68.15-.4.4Z" transform="translate(-41.8 -63.94)"/><path class="cls-119" d="M510.19,549.87v6.46a.93.93,0,0,0,.92.93c7.61.08,14.18,1.2,17.63,2.82V546.85C524.88,548.14,518.8,549,512,549h-.87A.9.9,0,0,0,510.19,549.87Z" transform="translate(-41.8 -63.94)"/><rect class="cls-120" x="485.79" y="482.35" width="1.15" height="14.19" rx="0.58"/><path class="cls-121" d="M518.73,548.68c-2.13.19-4.4.29-6.76.29h-.87a.9.9,0,0,0-.91.9v6.46a.94.94,0,0,0,.92.93,74.61,74.61,0,0,1,7.62.45Z" transform="translate(-41.8 -63.94)"/><rect class="cls-104" x="470.02" y="502.14" width="3.64" height="0.92" rx="0.46"/><path class="cls-105" d="M468.39,488.06h0a0,0,0,0,1,0,0v2.22a0,0,0,0,1,0,0h0a1.07,1.07,0,0,1-1.07-1.07v-.08A1.07,1.07,0,0,1,468.39,488.06Z"/><rect class="cls-122" x="491.48" y="484.43" width="16.67" height="21.95" rx="7.09"/><rect class="cls-123" x="492.44" y="485.43" width="14.76" height="20.27"/><rect class="cls-124" x="493.88" y="484.1" width="11.87" height="1.92" rx="0.96"/><circle class="cls-124" cx="499.81" cy="483.75" r="2.28"/><circle class="cls-102" cx="499.81" cy="483.31" r="1.12"/><rect class="cls-125" x="492.86" y="486.81" width="13.91" height="1.13" rx="0.56"/><rect class="cls-125" x="492.86" y="488.72" width="13.91" height="1.13" rx="0.56"/><rect class="cls-125" x="492.86" y="490.64" width="13.91" height="1.13" rx="0.56"/><rect class="cls-125" x="492.95" y="492.55" width="13.91" height="1.13" rx="0.56"/><rect class="cls-125" x="492.95" y="494.46" width="13.91" height="1.13" rx="0.56"/><rect class="cls-125" x="492.95" y="496.37" width="9.79" height="1.13" rx="0.56"/><path class="cls-126" d="M89.5,519.4h0a1.7,1.7,0,0,1,1.7,1.7V524a0,0,0,0,1,0,0H89.5a1.7,1.7,0,0,1-1.7-1.7v-1.24A1.7,1.7,0,0,1,89.5,519.4Z"/><path class="cls-126" d="M80.64,518.94h0a1.7,1.7,0,0,1,1.7,1.7v2.94a0,0,0,0,1,0,0h-1.7a1.7,1.7,0,0,1-1.7-1.7v-1.24A1.7,1.7,0,0,1,80.64,518.94Z"/><rect class="cls-126" x="134.64" y="547.16" width="4.02" height="16.61" rx="2.01" transform="translate(231.49 1047) rotate(-180)"/><path class="cls-127" d="M135.48,548.67a6,6,0,0,0-2.21-4.63l.27,0H137a2.18,2.18,0,0,1,2.17,2.17v1.07a2.18,2.18,0,0,1-2.17,2.17H135.3Z" transform="translate(-41.8 -63.94)"/><rect class="cls-126" x="72.51" y="483.22" width="4.02" height="16.61" rx="2.01"/><path class="cls-127" d="M117.49,548.67a6,6,0,0,1,2.2-4.63l-.26,0H116a2.17,2.17,0,0,0-2.17,2.17v1.07a2.17,2.17,0,0,0,2.17,2.17h1.67Z" transform="translate(-41.8 -63.94)"/><rect class="cls-126" x="82.89" y="475.67" width="4.4" height="4.41" rx="2.2"/><path class="cls-128" d="M113.81,537.77c.5.85,6.49,1.53,7.19-.42s-1.48-2.08-.24-3.89c1.42-2.07-3.89-.7-4,1.95C116.75,537.16,113.46,537.16,113.81,537.77Z" transform="translate(-41.8 -63.94)"/><path class="cls-128" d="M116.77,535.11c0,2.52,5-1.94,5.7-3.89s.08-2.18,1.32-4c1.41-2.07-3.8-2.16-5.7-1.27C116.51,526.72,116.77,532.6,116.77,535.11Z" transform="translate(-41.8 -63.94)"/><path class="cls-128" d="M140.35,537.1c-.49.86-6.49,1.54-7.19-.41s1.48-2.08.24-3.89c-1.42-2.07,3.89-.7,4,2C137.41,536.5,140.7,536.5,140.35,537.1Z" transform="translate(-41.8 -63.94)"/><path class="cls-128" d="M137.3,534.78c0,2.52-5-1.94-5.7-3.89s-.08-2.17-1.31-4c-1.42-2.07,3.79-2.16,5.69-1.26C137.56,526.39,137.3,532.27,137.3,534.78Z" transform="translate(-41.8 -63.94)"/><path class="cls-126" d="M83.9,457.87h2.22A5.84,5.84,0,0,1,92,463.71v6.12A6.95,6.95,0,0,1,85,476.78h0a6.95,6.95,0,0,1-6.95-6.95v-6.12A5.84,5.84,0,0,1,83.9,457.87Z"/><path class="cls-129" d="M92,463.58h0A1.43,1.43,0,0,1,93.39,465v.41a1,1,0,0,1-1,1H92a0,0,0,0,1,0,0v-2.8a0,0,0,0,1,0,0Z"/><circle class="cls-130" cx="87.77" cy="463.88" r="0.68"/><polygon class="cls-131" points="92.94 465.84 92.12 467.56 93.77 467.56 92.94 465.84"/><polygon class="cls-132" points="93.1 467.2 92.89 467.27 92.73 467.12 92.77 466.91 92.99 466.84 93.15 466.99 93.1 467.2"/><path class="cls-129" d="M118.44,527.52h.48a1,1,0,0,1,1,1v.41a1.43,1.43,0,0,1-1.43,1.43h0a0,0,0,0,1,0,0v-2.8A0,0,0,0,1,118.44,527.52Z" transform="translate(196.5 993.89) rotate(-180)"/><polygon class="cls-131" points="77.35 465.84 76.53 467.56 78.17 467.56 77.35 465.84"/><polygon class="cls-132" points="77.52 467.26 77.3 467.32 77.14 467.18 77.19 466.96 77.4 466.89 77.56 467.04 77.52 467.26"/><path class="cls-128" d="M137.16,527.14c0,2.52-4.09-2.66-6.18-3.51s-3,1.24-4.24-.57c-1.42-2.07,3.54-4.08,5.44-3.18C133.76,520.63,137.16,524.63,137.16,527.14Z" transform="translate(-41.8 -63.94)"/><path class="cls-128" d="M117.05,527.14c0,2.52,4.08-2.66,6.18-3.51s3,1.24,4.24-.57c1.42-2.07-3.54-4.08-5.44-3.18C120.44,520.63,117.05,524.63,117.05,527.14Z" transform="translate(-41.8 -63.94)"/><rect class="cls-133" x="84.52" y="466.32" width="1.12" height="2" rx="0.56"/><path class="cls-134" d="M126.77,535.52a.94.94,0,0,1-.94.94c-.52,0-1.92-.86-1.92-1.38s1.4-.51,1.92-.51A1,1,0,0,1,126.77,535.52Z" transform="translate(-41.8 -63.94)"/><path class="cls-134" d="M126.73,535.52a.94.94,0,0,0,.94.94c.52,0,1.92-.86,1.92-1.38s-1.4-.51-1.92-.51A1,1,0,0,0,126.73,535.52Z" transform="translate(-41.8 -63.94)"/><path class="cls-134" d="M129.42,535.27a3.83,3.83,0,0,1-2.56,1.49c-1,0-2.55-.9-2.55-1.24s1.6,0,2.55,0S129.42,534.93,129.42,535.27Z" transform="translate(-41.8 -63.94)"/><circle class="cls-130" cx="82.23" cy="463.82" r="0.68"/><path class="cls-135" d="M122.92,527.7l.09-.08,0,0s-.08.06,0,0l.2-.15a3.21,3.21,0,0,1,.45-.24l.06,0s.08,0,0,0,0,0,0,0l.06,0,.23-.08a3.1,3.1,0,0,1,.51-.11.51.51,0,0,0,.29-.23.49.49,0,0,0,0-.39.46.46,0,0,0-.23-.3.61.61,0,0,0-.38,0,4.12,4.12,0,0,0-2.09,1,.49.49,0,0,0,0,.7.5.5,0,0,0,.71,0Z" transform="translate(-41.8 -63.94)"/><path class="cls-135" d="M131.33,527a4.19,4.19,0,0,0-2.09-1,.56.56,0,0,0-.38.05.5.5,0,0,0,.12.91,4.15,4.15,0,0,1,.48.11l.24.08.12.05,0,0,.07,0a3.75,3.75,0,0,1,.44.24l.2.14s.08.06,0,0,0,0,0,0l.1.09a.5.5,0,1,0,.71-.71Z" transform="translate(-41.8 -63.94)"/><path class="cls-136" d="M127.29,521.46a3.54,3.54,0,0,0-2.38-1.6,2.53,2.53,0,0,0-2.9.77,1,1,0,0,0,.35,1.37,1,1,0,0,0,1.37-.36c.06-.09,0,0-.07.09l.06-.06c-.15.11-.18.13-.1.08l.08,0c-.18.06-.22.08-.12,0l.08,0,.19,0-.27,0a2.57,2.57,0,0,1,.62,0l-.26,0c.2,0,.39.07.59.12l.3.09.15.05c.17.07-.24-.11,0,0s.18.09.27.15l.13.08c.17.12-.12-.1,0,0l.21.2c.07.08-.15-.22,0,0a.6.6,0,0,1,.09.15,1,1,0,1,0,1.73-1Z" transform="translate(-41.8 -63.94)"/><path class="cls-136" d="M124.43,521.52c.2,0,0,0-.05,0l-.22,0a2.5,2.5,0,0,0-.61-.09,1.7,1.7,0,0,0-.63.1c-.15,0-.29.12-.43.18h0c-.67.25-1.36.43-2,.72a4.66,4.66,0,0,0-2.51,2.91,1,1,0,0,0,.7,1.23,1,1,0,0,0,1.23-.7.75.75,0,0,1,.05-.16l0-.11c0,.11,0-.06,0-.08l.1-.18.18-.28c.14-.22-.08.08,0,0l.11-.13a3.31,3.31,0,0,1,.27-.26l.12-.11c-.15.13,0,0,0,0a2.63,2.63,0,0,1,.33-.2l.17-.09c.16-.08,0,0,.07,0,.52-.21,1.06-.35,1.59-.55a3.76,3.76,0,0,0,.55-.23c.11-.06,0,0,0,0h0s0,0,0,0,.1,0,.13,0l.18,0a4.22,4.22,0,0,0,.62.1,1,1,0,1,0,0-2Z" transform="translate(-41.8 -63.94)"/><path class="cls-136" d="M129.24,522.59l.35-.09.18,0c.28-.05-.11,0,0,0a5.9,5.9,0,0,1,.73,0h.18c.08,0,.2,0,.05,0l.36.07a6.34,6.34,0,0,1,.74.23c.14,0-.12-.07,0,0l.17.08a2.58,2.58,0,0,1,.32.18l.3.2c.06,0,0,0,0,0l.08.07.15.13a13.19,13.19,0,0,1,1.17,1.31,1,1,0,0,0,1.41,0,1,1,0,0,0,0-1.41,10.12,10.12,0,0,0-1.28-1.41,6,6,0,0,0-1.78-1.07,5.89,5.89,0,0,0-3.71-.17,1,1,0,0,0-.69,1.23,1,1,0,0,0,1.23.7Z" transform="translate(-41.8 -63.94)"/><path class="cls-136" d="M132.28,525l.25.09-.24-.1a2.55,2.55,0,0,1,.46.25l.2.13c.1.07-.18-.15-.06,0l.11.09a6.39,6.39,0,0,1,.71.76l.08.1c.12.16-.11-.14,0,0l.18.23.33.45a11,11,0,0,0,.88,1,1,1,0,0,0,1.42,0,1,1,0,0,0,0-1.41,5,5,0,0,1-.44-.48l-.18-.23c.19.22.06.07,0,0l-.09-.12c-.29-.38-.57-.77-.88-1.14a4.73,4.73,0,0,0-2.18-1.53,1,1,0,0,0-.53,1.93Z" transform="translate(-41.8 -63.94)"/><path class="cls-136" d="M116.92,532.88c.18.73.37,1.46.54,2.19l.06.26c0,.26,0-.15,0,.06s0,.25,0,.29v-.12a.43.43,0,0,1,0,.11c0,.17.1-.22,0,0s.15-.13,0,0,.14-.07,0,0c.25-.13.08,0,0,0a1,1,0,0,0-.59.46,1,1,0,0,0-.1.77,1,1,0,0,0,.46.6,1.19,1.19,0,0,0,.77.1,1.82,1.82,0,0,0,1.22-.91,2.63,2.63,0,0,0,.24-1.7c-.07-.43-.19-.85-.29-1.27l-.34-1.36a1,1,0,1,0-1.93.53Z" transform="translate(-41.8 -63.94)"/><path class="cls-136" d="M118.24,536.88a1,1,0,0,1,0,.14l.1-.24-.11.19.15-.21a1,1,0,0,1-.17.18l.2-.16a1,1,0,0,1-.22.13l.24-.1-.24.07.27,0h-.22l.26,0-.08,0a1.08,1.08,0,0,0-.77.1.7.7,0,0,0-.28.26.75.75,0,0,0-.18.34l0,.26a1,1,0,0,0,.14.51,1,1,0,0,0,.59.46,1.91,1.91,0,0,0,1.46-.22c.12-.08.23-.17.34-.26a2.88,2.88,0,0,0,.28-.33,1.4,1.4,0,0,0,.09-.17,1.76,1.76,0,0,0,.16-.4.78.78,0,0,0,0-.4.81.81,0,0,0-.12-.37,1.15,1.15,0,0,0-.6-.46l-.26,0a1,1,0,0,0-1,.74Z" transform="translate(-41.8 -63.94)"/><path class="cls-136" d="M133.47,533.38s.1.21.13.21-.07-.16,0-.06a.53.53,0,0,1,0,.12l0,.12c0,.11,0,.08,0-.08a1.15,1.15,0,0,0,0,.26,8.77,8.77,0,0,0,.16,1.24,6.33,6.33,0,0,0,.92,2.21,1,1,0,1,0,1.72-1,3.77,3.77,0,0,1-.28-.48c0-.08-.09-.17-.13-.25l-.06-.13,0,0a6.27,6.27,0,0,1-.29-1.05.36.36,0,0,1,0-.1c0-.11,0-.09,0,.05a1.18,1.18,0,0,1,0-.27c0-.17,0-.34,0-.51a2.71,2.71,0,0,0-.42-1.32,1.13,1.13,0,0,0-.59-.46,1.08,1.08,0,0,0-.77.1,1,1,0,0,0-.36,1.37Z" transform="translate(-41.8 -63.94)"/><path class="cls-136" d="M135.3,530.85a11.15,11.15,0,0,0,.53,4.44,1,1,0,0,0,1.23.7,1,1,0,0,0,.7-1.23c-.11-.32-.2-.65-.28-1,0-.18-.07-.36-.11-.54l0-.23c0-.12,0-.1,0,0,0,0,0-.08,0-.12a10.23,10.23,0,0,1,0-2.07,1,1,0,0,0-1-1,1,1,0,0,0-1,1Z" transform="translate(-41.8 -63.94)"/><path class="cls-136" d="M136.35,537.42l.63.39a.66.66,0,0,0,.38.12.65.65,0,0,0,.39,0,.66.66,0,0,0,.34-.18.7.7,0,0,0,.26-.28l.1-.23a1,1,0,0,0,0-.54l-.1-.24a1,1,0,0,0-.36-.35l-.63-.4a.85.85,0,0,0-.37-.12.9.9,0,0,0-.4,0,.7.7,0,0,0-.34.18.77.77,0,0,0-.26.28l-.1.24a1,1,0,0,0,0,.53l.1.24a1,1,0,0,0,.36.36Z" transform="translate(-41.8 -63.94)"/><path class="cls-136" d="M121.54,521.07a2.28,2.28,0,0,0-.63-.13,2.35,2.35,0,0,0-.65,0,.75.75,0,0,0-.34.18.87.87,0,0,0-.26.28.72.72,0,0,0-.11.37.77.77,0,0,0,0,.4l.1.24a1,1,0,0,0,.36.36l.24.1a1,1,0,0,0,.53,0h.07l-.27,0a1.37,1.37,0,0,1,.35,0l-.27,0a1,1,0,0,1,.34.09.77.77,0,0,0,.4,0,.85.85,0,0,0,.37-.12.87.87,0,0,0,.28-.26.75.75,0,0,0,.18-.34l0-.27a1,1,0,0,0-.13-.5l-.16-.2a.94.94,0,0,0-.44-.26Z" transform="translate(-41.8 -63.94)"/><path class="cls-136" d="M128.21,524.13l.73-.3a.75.75,0,0,0,.34-.18.78.78,0,0,0,.26-.28.85.85,0,0,0,.12-.37.77.77,0,0,0,0-.4l-.1-.24a1,1,0,0,0-.36-.36l-.24-.1a1,1,0,0,0-.53,0l-.73.31a.84.84,0,0,0-.34.17.77.77,0,0,0-.26.28.85.85,0,0,0-.12.38.78.78,0,0,0,0,.4l.1.23a1,1,0,0,0,.36.36l.24.1a1,1,0,0,0,.53,0Z" transform="translate(-41.8 -63.94)"/><path class="cls-137" d="M133.22,563.25h-12.5l-3.44-14.66a6,6,0,0,1,6-6h6.41a6,6,0,0,1,6,6Z" transform="translate(-41.8 -63.94)"/><polygon class="cls-137" points="73.62 520.24 78.59 496.88 91.83 496.88 96.32 520.24 73.62 520.24"/><path class="cls-48" d="M123.11,545.15c2.57,0,2.58-4,0-4s-2.58,4,0,4Z" transform="translate(-41.8 -63.94)"/><path class="cls-48" d="M123.53,546.58c2.57,0,2.58-4,0-4s-2.58,4,0,4Z" transform="translate(-41.8 -63.94)"/><path class="cls-48" d="M124.13,547.93c2.57,0,2.58-4,0-4s-2.58,4,0,4Z" transform="translate(-41.8 -63.94)"/><path class="cls-48" d="M125,549.13c2.57,0,2.58-4,0-4s-2.58,4,0,4Z" transform="translate(-41.8 -63.94)"/><path class="cls-48" d="M126.31,549.59c2.57,0,2.58-4,0-4s-2.58,4,0,4Z" transform="translate(-41.8 -63.94)"/><path class="cls-48" d="M127.6,549.13c2.58,0,2.58-4,0-4s-2.57,4,0,4Z" transform="translate(-41.8 -63.94)"/><path class="cls-48" d="M128.58,548.06c2.57,0,2.58-4,0-4s-2.58,4,0,4Z" transform="translate(-41.8 -63.94)"/><path class="cls-48" d="M129.18,546.58c2.57,0,2.58-4,0-4s-2.58,4,0,4Z" transform="translate(-41.8 -63.94)"/><path class="cls-48" d="M129.46,545.24c2.57,0,2.58-4,0-4s-2.58,4,0,4Z" transform="translate(-41.8 -63.94)"/><path class="cls-128" d="M121.17,564.4c3.86,0,3.86-6,0-6s-3.87,6,0,6Z" transform="translate(-41.8 -63.94)"/><path class="cls-128" d="M123,564.68c3.86,0,3.87-6,0-6s-3.87,6,0,6Z" transform="translate(-41.8 -63.94)"/><path class="cls-128" d="M124.85,564.81c3.86,0,3.87-6,0-6s-3.87,6,0,6Z" transform="translate(-41.8 -63.94)"/><path class="cls-128" d="M126.79,565c3.86,0,3.87-6,0-6s-3.86,6,0,6Z" transform="translate(-41.8 -63.94)"/><path class="cls-128" d="M128.6,564.88c3.86,0,3.87-6,0-6s-3.87,6,0,6Z" transform="translate(-41.8 -63.94)"/><path class="cls-128" d="M130.62,564.68c3.86,0,3.86-6,0-6s-3.87,6,0,6Z" transform="translate(-41.8 -63.94)"/><path class="cls-128" d="M132.56,564.33c3.86,0,3.87-6,0-6s-3.87,6,0,6Z" transform="translate(-41.8 -63.94)"/><circle class="cls-126" cx="74.53" cy="499.84" r="2.61"/><circle class="cls-126" cx="94.83" cy="499.84" r="2.61"/><path class="cls-138" d="M76.46,523.18h5.87a0,0,0,0,1,0,0v1.95a0,0,0,0,1,0,0H74.52a0,0,0,0,1,0,0v0A1.95,1.95,0,0,1,76.46,523.18Z"/><path class="cls-10" d="M74.89,524.52h7.45a0,0,0,0,1,0,0v.34a0,0,0,0,1,0,0H74.55a0,0,0,0,1,0,0v0A.34.34,0,0,1,74.89,524.52Z"/><path class="cls-138" d="M129.61,587.12h7.81a0,0,0,0,1,0,0v1.95a0,0,0,0,1,0,0h-5.87a1.95,1.95,0,0,1-1.95-1.95v0A0,0,0,0,1,129.61,587.12Z" transform="translate(225.23 1112.24) rotate(180)"/><path class="cls-10" d="M129.61,588.46h7.78a0,0,0,0,1,0,0v.34a0,0,0,0,1,0,0h-7.45a.34.34,0,0,1-.34-.34v0A0,0,0,0,1,129.61,588.46Z" transform="translate(225.2 1113.32) rotate(-180)"/><rect class="cls-139" x="115.67" y="492.89" width="23.59" height="15" rx="7.5"/><rect class="cls-140" x="112.99" y="490.75" width="28.95" height="6.69" rx="3.34"/><circle class="cls-123" cx="117.96" cy="500.39" r="0.54"/><circle class="cls-123" cx="120.03" cy="500.39" r="0.54"/><circle class="cls-123" cx="117.96" cy="502.32" r="0.54"/><circle class="cls-123" cx="120.03" cy="502.32" r="0.54"/><circle class="cls-123" cx="122.16" cy="500.39" r="0.54"/><circle class="cls-123" cx="124.23" cy="500.39" r="0.54"/><circle class="cls-123" cx="122.16" cy="502.32" r="0.54"/><circle class="cls-123" cx="124.23" cy="502.32" r="0.54"/><circle class="cls-123" cx="126.43" cy="500.32" r="0.54"/><circle class="cls-123" cx="128.5" cy="500.32" r="0.54"/><circle class="cls-123" cx="126.43" cy="502.25" r="0.54"/><circle class="cls-123" cx="128.5" cy="502.25" r="0.54"/><circle class="cls-123" cx="130.36" cy="500.32" r="0.54"/><circle class="cls-123" cx="132.43" cy="500.32" r="0.54"/><circle class="cls-123" cx="130.36" cy="502.25" r="0.54"/><circle class="cls-123" cx="132.43" cy="502.25" r="0.54"/><circle class="cls-123" cx="134.36" cy="500.32" r="0.54"/><circle class="cls-123" cx="136.43" cy="500.32" r="0.54"/><circle class="cls-123" cx="134.36" cy="502.25" r="0.54"/><circle class="cls-123" cx="136.43" cy="502.25" r="0.54"/><circle class="cls-123" cx="120.03" cy="504.1" r="0.54"/><circle class="cls-123" cx="122.09" cy="504.1" r="0.54"/><circle class="cls-123" cx="120.03" cy="506.04" r="0.54"/><circle class="cls-123" cx="122.09" cy="506.04" r="0.54"/><circle class="cls-123" cx="132.29" cy="504.13" r="0.54"/><circle class="cls-123" cx="134.36" cy="504.13" r="0.54"/><circle class="cls-123" cx="132.29" cy="506.07" r="0.54"/><circle class="cls-123" cx="134.36" cy="506.07" r="0.54"/><circle class="cls-123" cx="124.23" cy="504.18" r="0.54"/><circle class="cls-123" cx="126.43" cy="504.06" r="0.54"/><circle class="cls-123" cx="128.5" cy="504.06" r="0.54"/><circle class="cls-123" cx="130.36" cy="504.06" r="0.54"/><circle class="cls-123" cx="124.23" cy="506.04" r="0.54"/><circle class="cls-123" cx="130.36" cy="506.07" r="0.54"/><rect class="cls-123" x="126" y="505.63" width="3.22" height="0.81" rx="0.4"/><rect class="cls-123" x="136.04" y="503.66" width="0.92" height="2.95" rx="0.46"/><rect class="cls-123" x="117.5" y="503.66" width="0.92" height="2.95" rx="0.46"/><path class="cls-10" d="M112.3,492.82H113a0,0,0,0,1,0,0v2.55a0,0,0,0,1,0,0h-.69a1.28,1.28,0,0,1-1.28-1.28v0A1.28,1.28,0,0,1,112.3,492.82Z"/><path class="cls-10" d="M185,556.76h.69a0,0,0,0,1,0,0v2.55a0,0,0,0,1,0,0H185a1.28,1.28,0,0,1-1.28-1.28v0A1.28,1.28,0,0,1,185,556.76Z" transform="translate(327.64 1052.12) rotate(180)"/><rect class="cls-141" x="120.26" y="482.3" width="15.39" height="12.21"/><rect class="cls-10" x="119.71" y="494.29" width="16.5" height="0.44" rx="0.22"/><rect class="cls-10" x="120.97" y="483.42" width="13.93" height="0.53" rx="0.26"/><rect class="cls-10" x="120.97" y="484.64" width="13.93" height="0.53" rx="0.26"/><rect class="cls-10" x="120.99" y="485.87" width="13.93" height="0.53" rx="0.26"/><rect class="cls-10" x="120.97" y="487.09" width="13.93" height="0.53" rx="0.26"/><rect class="cls-10" x="120.99" y="488.31" width="13.93" height="0.53" rx="0.26"/><rect class="cls-10" x="120.99" y="489.53" width="13.93" height="0.53" rx="0.26"/><rect class="cls-10" x="120.97" y="490.86" width="9.13" height="0.44" rx="0.22"/><rect class="cls-2" x="186.2" y="108.06" width="465" height="268" rx="12"/><rect class="cls-142" x="196.2" y="122.06" width="217" height="114" rx="12"/><rect class="cls-142" x="425.2" y="122.06" width="217" height="114" rx="12"/><rect class="cls-142" x="196.2" y="248.06" width="217" height="114" rx="12"/><rect class="cls-142" x="425.2" y="248.06" width="217" height="114" rx="12"/><text class="cls-143" transform="translate(271.88 223.02)">A</text><text class="cls-143" transform="translate(271.57 349.07)">C</text><text class="cls-143" transform="translate(498.57 223.07)">B</text><text class="cls-143" transform="translate(499.57 349.07)">D</text><rect class="cls-144" x="627.2" y="19.06" width="170" height="62" rx="12"/><rect class="cls-144" x="187.2" y="388.06" width="226" height="31" rx="12"/><rect class="cls-144" x="426.2" y="388.06" width="226" height="31" rx="12"/><polygon class="cls-123" points="396.23 262.76 379.05 274.69 362.33 200.71 425.82 242.21 408.64 254.14 438.99 297.85 426.58 306.47 396.23 262.76"/><path d="M408.44,270.85l54.11,35.37-11.4,7.92-4.66,3.23,3.24,4.66,27.12,39.05-7.75,5.38-27.13-39-3.23-4.65L434.08,326l-11.39,7.92-14.25-63.06m-8.62-12.4L419,343.36l18.31-12.71,30.35,43.7,17.07-11.85-30.36-43.71,18.31-12.71-72.87-47.63Z" transform="translate(-41.8 -63.94)"/></svg>