<svg id="Layer_1" data-name="Layer 1" xmlns="http://www.w3.org/2000/svg" viewBox="0 0 818 564.48"><defs><style>.cls-1{fill:#58785a;}.cls-2{fill:#cacbce;}.cls-3{fill:#94dddb;stroke-width:3px;}.cls-12,.cls-3,.cls-57{stroke:#231f20;}.cls-12,.cls-24,.cls-26,.cls-3,.cls-34,.cls-53,.cls-57,.cls-59{stroke-miterlimit:10;}.cls-4{fill:#6b9692;}.cls-5{fill:#525f4f;}.cls-6{fill:#7fa37f;}.cls-7{fill:#a6c5a2;}.cls-8{fill:#65815e;}.cls-9{fill:#f0ece6;}.cls-10{fill:#ffeeec;}.cls-11{fill:#fff;}.cls-12,.cls-34,.cls-53,.cls-59{fill:none;}.cls-12{stroke-width:6px;}.cls-13{fill:#4c5965;}.cls-14{fill:#ffe3b2;}.cls-15{fill:#4c3512;}.cls-16{fill:#bfa981;}.cls-17{fill:#050505;}.cls-18{fill:#8ab7ce;}.cls-19{fill:#a47140;}.cls-20{fill:#231f20;}.cls-21{fill:#484c44;}.cls-22{fill:#4a4d52;}.cls-23{fill:#4f565b;}.cls-24,.cls-26{fill:#c59c1d;stroke:#030202;}.cls-24{stroke-width:2px;}.cls-25{fill:#4a7082;}.cls-26,.cls-53{stroke-width:0.75px;}.cls-27{fill:#8a181b;}.cls-28{fill:#3f3f1d;}.cls-29{fill:#3f3d17;}.cls-30{fill:#3f3e1b;}.cls-31{fill:#9c8048;}.cls-32{fill:#e1c034;}.cls-33{fill:#54c8ee;}.cls-34{stroke:#837642;stroke-width:4px;}.cls-35{fill:#837642;}.cls-36{fill:#185d2f;}.cls-37{fill:#a02221;}.cls-38{fill:#262469;}.cls-39{fill:#ce2027;}.cls-40{fill:#ce2028;}.cls-41{fill:#43449b;}.cls-42{fill:#006838;}.cls-43{fill:#43469c;}.cls-44{fill:#ce2029;}.cls-45{fill:#dddfe0;}.cls-46{fill:#fff000;}.cls-47{fill:#a78956;}.cls-48{fill:#8a5d3b;}.cls-49{fill:#f6921e;}.cls-50{fill:#d8bd9d;}.cls-51{fill:#a87c4f;}.cls-52{fill:#d0d2d3;}.cls-53{stroke:#111042;}.cls-54{fill:#603813;}.cls-55{fill:#3b2314;}.cls-56{fill:#58595b;}.cls-57{fill:#fcb614;}.cls-58{fill:#6d6e70;}.cls-59{stroke:#58595b;stroke-width:5px;}.cls-60{fill:#deadcf;}.cls-61{fill:#e51c43;}.cls-62{fill:#f39984;}.cls-63{fill:#3e5724;}.cls-64{fill:#817669;}</style></defs><title>instructions2</title><rect class="cls-1" width="818" height="545" rx="12"/><rect class="cls-2" x="53" y="67" width="163.97" height="127.83" rx="12"/><polygon class="cls-3" points="154.92 84.46 183.5 113.05 183.5 153.47 154.92 182.06 114.49 182.06 85.91 153.47 85.91 113.05 114.49 84.46 154.92 84.46"/><polygon class="cls-4" points="139.72 110.74 169.77 165.89 105.42 171.87 139.72 110.74"/><polygon class="cls-5" points="160.04 122.39 179.88 157.16 162.88 174.17 155.52 181.98 125.79 181.98 160.04 122.39"/><polygon class="cls-6" points="117.8 95.67 157.36 179.68 155.06 181.98 138.51 181.98 114.61 181.98 89.33 156.7 117.8 95.67"/><polygon class="cls-7" points="117.8 181.98 141.73 181.98 155.52 181.98 157.82 179.68 117.8 95.67 117.8 95.67 117.83 178.3 117.8 181.98"/><polygon class="cls-8" points="160.12 177.38 179.88 157.16 160.12 122.39 160.12 122.39 160.12 177.38"/><polygon class="cls-9" points="117.8 95.36 135.76 133.26 130.13 130.6 125.85 133.34 120.54 126.5 117.8 133.34 110.26 126.5 108.89 133.34 104.78 129.92 99.99 133.34 117.8 95.36"/><polygon class="cls-10" points="160.12 122.23 170.23 140.15 166.21 138.14 164.1 140.19 160.04 137.46 156.22 140.19 154.56 136.77 149.77 140.19 160.12 122.23"/><polygon class="cls-11" points="117.8 95.36 117.8 133.34 120.54 126.5 125.85 133.34 130.13 130.6 135.76 133.26 117.8 95.36"/><polygon class="cls-11" points="160.12 122.23 160.04 137.46 164.1 140.19 166.21 138.14 170.23 140.15 160.12 122.23"/><polygon class="cls-12" points="154.92 84.46 183.5 113.05 183.5 153.47 154.92 182.06 114.49 182.06 85.91 153.47 85.91 113.05 114.49 84.46 154.92 84.46"/><rect class="cls-2" x="236.25" y="67.17" width="163.97" height="127.83" rx="12"/><polygon class="cls-3" points="338.17 84.63 366.75 113.22 366.75 153.64 338.17 182.23 297.74 182.23 269.15 153.64 269.15 113.22 297.74 84.63 338.17 84.63"/><polygon class="cls-4" points="322.97 110.91 353.02 166.06 288.67 172.04 322.97 110.91"/><polygon class="cls-5" points="343.29 122.56 363.13 157.33 346.12 174.34 338.77 182.15 309.04 182.15 343.29 122.56"/><polygon class="cls-6" points="301.05 95.84 340.61 179.85 338.31 182.15 321.76 182.15 297.86 182.15 272.58 156.87 301.05 95.84"/><polygon class="cls-7" points="301.05 182.15 324.98 182.15 338.77 182.15 341.07 179.85 301.05 95.84 301.05 95.84 301.08 178.47 301.05 182.15"/><polygon class="cls-8" points="343.37 177.56 363.13 157.33 343.37 122.56 343.37 122.56 343.37 177.56"/><polygon class="cls-9" points="301.05 95.53 319 133.43 313.38 130.78 309.1 133.52 303.79 126.67 301.05 133.52 293.51 126.67 292.14 133.52 288.03 130.09 283.24 133.52 301.05 95.53"/><polygon class="cls-10" points="343.37 122.4 353.48 140.32 349.45 138.31 347.34 140.37 343.29 137.63 339.47 140.37 337.81 136.94 333.02 140.37 343.37 122.4"/><polygon class="cls-11" points="301.05 95.53 301.05 133.52 303.79 126.67 309.1 133.52 313.38 130.78 319 133.43 301.05 95.53"/><polygon class="cls-11" points="343.37 122.4 343.29 137.63 347.34 140.37 349.45 138.31 353.48 140.32 343.37 122.4"/><polygon class="cls-12" points="338.17 84.63 366.75 113.22 366.75 153.64 338.17 182.23 297.74 182.23 269.15 153.64 269.15 113.22 297.74 84.63 338.17 84.63"/><rect class="cls-2" x="419.2" y="67.17" width="163.97" height="127.83" rx="12"/><polygon class="cls-3" points="521.12 84.63 549.71 113.22 549.71 153.64 521.12 182.23 480.69 182.23 452.11 153.64 452.11 113.22 480.69 84.63 521.12 84.63"/><polygon class="cls-4" points="505.92 110.91 535.97 166.06 471.62 172.04 505.92 110.91"/><polygon class="cls-5" points="526.25 122.56 546.08 157.33 529.08 174.34 521.72 182.15 492 182.15 526.25 122.56"/><polygon class="cls-6" points="484 95.84 523.56 179.85 521.26 182.15 504.72 182.15 480.82 182.15 455.54 156.87 484 95.84"/><polygon class="cls-7" points="484 182.15 507.93 182.15 521.72 182.15 524.02 179.85 484 95.84 484 95.84 484.03 178.47 484 182.15"/><polygon class="cls-8" points="526.32 177.56 546.08 157.33 526.32 122.56 526.32 122.56 526.32 177.56"/><polygon class="cls-9" points="484 95.53 501.96 133.43 496.33 130.78 492.05 133.52 486.74 126.67 484 133.52 476.47 126.67 475.1 133.52 470.99 130.09 466.19 133.52 484 95.53"/><polygon class="cls-10" points="526.32 122.4 536.43 140.32 532.41 138.31 530.3 140.37 526.25 137.63 522.42 140.37 520.76 136.94 515.97 140.37 526.32 122.4"/><polygon class="cls-11" points="484 95.53 484 133.52 486.74 126.67 492.05 133.52 496.33 130.78 501.96 133.43 484 95.53"/><polygon class="cls-11" points="526.32 122.4 526.25 137.63 530.3 140.37 532.41 138.31 536.43 140.32 526.32 122.4"/><polygon class="cls-12" points="521.12 84.63 549.71 113.22 549.71 153.64 521.12 182.23 480.69 182.23 452.11 153.64 452.11 113.22 480.69 84.63 521.12 84.63"/><rect class="cls-2" x="602.36" y="67.35" width="163.97" height="127.83" rx="12"/><polygon class="cls-3" points="704.27 84.81 732.86 113.39 732.86 153.82 704.27 182.41 663.85 182.41 635.26 153.82 635.26 113.39 663.85 84.81 704.27 84.81"/><polygon class="cls-4" points="689.07 111.09 719.13 166.24 654.78 172.21 689.07 111.09"/><polygon class="cls-5" points="709.4 122.73 729.24 157.5 712.23 174.51 704.88 182.32 675.15 182.32 709.4 122.73"/><polygon class="cls-6" points="667.15 96.02 706.72 180.03 704.42 182.32 687.87 182.32 663.97 182.32 638.69 157.05 667.15 96.02"/><polygon class="cls-7" points="667.15 182.32 691.09 182.32 704.88 182.32 707.17 180.03 667.15 96.02 667.15 96.02 667.19 178.65 667.15 182.32"/><polygon class="cls-8" points="709.47 177.73 729.24 157.5 709.47 122.73 709.47 122.73 709.47 177.73"/><polygon class="cls-9" points="667.15 95.71 685.11 133.6 679.48 130.95 675.2 133.69 669.89 126.84 667.15 133.69 659.62 126.84 658.25 133.69 654.14 130.27 649.35 133.69 667.15 95.71"/><polygon class="cls-10" points="709.47 122.57 719.59 140.5 715.56 138.49 713.45 140.54 709.4 137.8 705.57 140.54 703.92 137.12 699.12 140.54 709.47 122.57"/><polygon class="cls-11" points="667.15 95.71 667.15 133.69 669.89 126.84 675.2 133.69 679.48 130.95 685.11 133.6 667.15 95.71"/><polygon class="cls-11" points="709.47 122.57 709.4 137.8 713.45 140.54 715.56 138.49 719.59 140.5 709.47 122.57"/><polygon class="cls-12" points="704.27 84.81 732.86 113.39 732.86 153.82 704.27 182.41 663.85 182.41 635.26 153.82 635.26 113.39 663.85 84.81 704.27 84.81"/><rect class="cls-2" x="52.68" y="210.17" width="163.97" height="127.83" rx="12"/><polygon class="cls-3" points="154.6 227.63 183.18 256.22 183.18 296.65 154.6 325.23 114.17 325.23 85.58 296.65 85.58 256.22 114.17 227.63 154.6 227.63"/><polygon class="cls-4" points="139.4 253.91 169.45 309.07 105.1 315.04 139.4 253.91"/><polygon class="cls-5" points="159.72 265.56 179.56 300.33 162.55 317.34 155.2 325.15 125.47 325.15 159.72 265.56"/><polygon class="cls-6" points="117.48 238.84 157.04 322.85 154.74 325.15 138.19 325.15 114.29 325.15 89.01 299.87 117.48 238.84"/><polygon class="cls-7" points="117.48 325.15 141.41 325.15 155.2 325.15 157.5 322.85 117.48 238.84 117.48 238.84 117.51 321.48 117.48 325.15"/><polygon class="cls-8" points="159.79 320.56 179.56 300.33 159.8 265.56 159.79 265.56 159.79 320.56"/><polygon class="cls-9" points="117.48 238.54 135.44 276.43 129.81 273.78 125.53 276.52 120.22 269.67 117.48 276.52 109.94 269.67 108.57 276.52 104.46 273.09 99.67 276.52 117.48 238.54"/><polygon class="cls-10" points="159.79 265.4 169.91 283.33 165.89 281.31 163.77 283.37 159.72 280.63 155.9 283.37 154.24 279.94 149.45 283.37 159.79 265.4"/><polygon class="cls-11" points="117.48 238.54 117.48 276.52 120.22 269.67 125.53 276.52 129.81 273.78 135.44 276.43 117.48 238.54"/><polygon class="cls-11" points="159.79 265.4 159.72 280.63 163.77 283.37 165.89 281.31 169.91 283.33 159.79 265.4"/><polygon class="cls-12" points="154.6 227.63 183.18 256.22 183.18 296.65 154.6 325.23 114.17 325.23 85.58 296.65 85.58 256.22 114.17 227.63 154.6 227.63"/><rect class="cls-2" x="418.88" y="210.34" width="163.97" height="127.83" rx="12"/><polygon class="cls-3" points="520.8 227.8 549.38 256.39 549.38 296.82 520.8 325.4 480.37 325.4 451.79 296.82 451.79 256.39 480.37 227.8 520.8 227.8"/><polygon class="cls-4" points="505.6 254.09 535.65 309.24 471.3 315.21 505.6 254.09"/><polygon class="cls-5" points="525.92 265.73 545.76 300.5 528.75 317.51 521.4 325.32 491.67 325.32 525.92 265.73"/><polygon class="cls-6" points="483.68 239.01 523.24 323.03 520.94 325.32 504.39 325.32 480.49 325.32 455.21 300.05 483.68 239.01"/><polygon class="cls-7" points="483.68 325.32 507.61 325.32 521.4 325.32 523.7 323.03 483.68 239.01 483.68 239.02 483.71 321.65 483.68 325.32"/><polygon class="cls-8" points="526 320.73 545.76 300.5 526 265.73 526 265.73 526 320.73"/><polygon class="cls-9" points="483.68 238.71 501.64 276.6 496.01 273.95 491.73 276.69 486.42 269.84 483.68 276.69 476.14 269.84 474.77 276.69 470.66 273.26 465.87 276.69 483.68 238.71"/><polygon class="cls-10" points="526 265.57 536.11 283.5 532.09 281.49 529.98 283.54 525.92 280.8 522.1 283.54 520.44 280.12 515.65 283.54 526 265.57"/><polygon class="cls-11" points="483.68 238.71 483.68 276.69 486.42 269.84 491.73 276.69 496.01 273.95 501.64 276.6 483.68 238.71"/><polygon class="cls-11" points="526 265.57 525.92 280.8 529.98 283.54 532.09 281.49 536.11 283.5 526 265.57"/><polygon class="cls-12" points="520.8 227.8 549.38 256.39 549.38 296.82 520.8 325.4 480.37 325.4 451.79 296.82 451.79 256.39 480.37 227.8 520.8 227.8"/><rect class="cls-2" x="602.03" y="210.52" width="163.97" height="127.83" rx="12"/><polygon class="cls-3" points="703.95 227.98 732.54 256.56 732.54 296.99 703.95 325.58 663.53 325.58 634.94 296.99 634.94 256.56 663.53 227.98 703.95 227.98"/><polygon class="cls-4" points="688.75 254.26 718.8 309.41 654.46 315.39 688.75 254.26"/><polygon class="cls-5" points="709.08 265.9 728.91 300.68 711.91 317.69 704.55 325.5 674.83 325.5 709.08 265.9"/><polygon class="cls-6" points="666.83 239.19 706.39 323.2 704.1 325.5 687.55 325.5 663.65 325.5 638.37 300.22 666.83 239.19"/><polygon class="cls-7" points="666.83 325.5 690.77 325.5 704.55 325.5 706.85 323.2 666.83 239.19 666.83 239.19 666.87 321.82 666.83 325.5"/><polygon class="cls-8" points="709.15 320.9 728.91 300.68 709.15 265.9 709.15 265.9 709.15 320.9"/><polygon class="cls-9" points="666.83 238.88 684.79 276.78 679.16 274.12 674.88 276.86 669.57 270.01 666.83 276.86 659.3 270.01 657.93 276.86 653.82 273.44 649.02 276.86 666.83 238.88"/><polygon class="cls-10" points="709.15 265.75 719.26 283.67 715.24 281.66 713.13 283.71 709.08 280.97 705.25 283.71 703.6 280.29 698.8 283.71 709.15 265.75"/><polygon class="cls-11" points="666.83 238.88 666.83 276.86 669.57 270.01 674.88 276.86 679.16 274.12 684.79 276.78 666.83 238.88"/><polygon class="cls-11" points="709.15 265.75 709.08 280.97 713.13 283.71 715.24 281.66 719.26 283.67 709.15 265.75"/><polygon class="cls-12" points="703.95 227.98 732.54 256.56 732.54 296.99 703.95 325.58 663.53 325.58 634.94 296.99 634.94 256.56 663.53 227.98 703.95 227.98"/><rect class="cls-2" x="52.68" y="357.17" width="163.97" height="127.83" rx="12"/><polygon class="cls-3" points="154.6 374.63 183.18 403.22 183.18 443.65 154.6 472.23 114.17 472.23 85.58 443.65 85.58 403.22 114.17 374.63 154.6 374.63"/><polygon class="cls-4" points="139.4 400.91 169.45 456.07 105.1 462.04 139.4 400.91"/><polygon class="cls-5" points="159.72 412.56 179.56 447.33 162.55 464.34 155.2 472.15 125.47 472.15 159.72 412.56"/><polygon class="cls-6" points="117.48 385.84 157.04 469.85 154.74 472.15 138.19 472.15 114.29 472.15 89.01 446.87 117.48 385.84"/><polygon class="cls-7" points="117.48 472.15 141.41 472.15 155.2 472.15 157.5 469.85 117.48 385.84 117.48 385.85 117.51 468.48 117.48 472.15"/><polygon class="cls-8" points="159.79 467.56 179.56 447.33 159.8 412.56 159.79 412.56 159.79 467.56"/><polygon class="cls-9" points="117.48 385.54 135.44 423.43 129.81 420.78 125.53 423.52 120.22 416.67 117.48 423.52 109.94 416.67 108.57 423.52 104.46 420.09 99.67 423.52 117.48 385.54"/><polygon class="cls-10" points="159.79 412.4 169.91 430.33 165.89 428.31 163.77 430.37 159.72 427.63 155.9 430.37 154.24 426.94 149.45 430.37 159.79 412.4"/><polygon class="cls-11" points="117.48 385.54 117.48 423.52 120.22 416.67 125.53 423.52 129.81 420.78 135.44 423.43 117.48 385.54"/><polygon class="cls-11" points="159.79 412.4 159.72 427.63 163.77 430.37 165.89 428.31 169.91 430.33 159.79 412.4"/><polygon class="cls-12" points="154.6 374.63 183.18 403.22 183.18 443.65 154.6 472.23 114.17 472.23 85.58 443.65 85.58 403.22 114.17 374.63 154.6 374.63"/><rect class="cls-2" x="235.93" y="357.34" width="163.97" height="127.83" rx="12"/><polygon class="cls-3" points="337.85 374.8 366.43 403.39 366.43 443.82 337.85 472.4 297.42 472.4 268.83 443.82 268.83 403.39 297.42 374.8 337.85 374.8"/><polygon class="cls-4" points="322.64 401.08 352.69 456.24 288.35 462.21 322.64 401.08"/><polygon class="cls-5" points="342.97 412.73 362.81 447.5 345.8 464.51 338.45 472.32 308.72 472.32 342.97 412.73"/><polygon class="cls-6" points="300.73 386.01 340.29 470.03 337.99 472.32 321.44 472.32 297.54 472.32 272.26 447.05 300.73 386.01"/><polygon class="cls-7" points="300.72 472.32 324.66 472.32 338.45 472.32 340.75 470.03 300.73 386.01 300.72 386.02 300.76 468.65 300.72 472.32"/><polygon class="cls-8" points="343.04 467.73 362.81 447.5 343.04 412.73 343.04 412.73 343.04 467.73"/><polygon class="cls-9" points="300.72 385.71 318.68 423.6 313.05 420.95 308.77 423.69 303.46 416.84 300.72 423.69 293.19 416.84 291.82 423.69 287.71 420.26 282.91 423.69 300.72 385.71"/><polygon class="cls-10" points="343.04 412.57 353.15 430.5 349.13 428.49 347.02 430.54 342.97 427.8 339.14 430.54 337.49 427.12 332.69 430.54 343.04 412.57"/><polygon class="cls-11" points="300.72 385.71 300.72 423.69 303.46 416.84 308.77 423.69 313.05 420.95 318.68 423.6 300.72 385.71"/><polygon class="cls-11" points="343.04 412.57 342.97 427.8 347.02 430.54 349.13 428.49 353.15 430.5 343.04 412.57"/><polygon class="cls-12" points="337.85 374.8 366.43 403.39 366.43 443.82 337.85 472.4 297.42 472.4 268.83 443.82 268.83 403.39 297.42 374.8 337.85 374.8"/><rect class="cls-2" x="418.88" y="357.34" width="163.97" height="127.83" rx="12"/><rect class="cls-2" x="602.03" y="357.52" width="163.97" height="127.83" rx="12"/><polygon class="cls-3" points="703.95 374.98 732.54 403.56 732.54 443.99 703.95 472.58 663.53 472.58 634.94 443.99 634.94 403.56 663.53 374.98 703.95 374.98"/><polygon class="cls-4" points="688.75 401.26 718.8 456.41 654.46 462.39 688.75 401.26"/><polygon class="cls-5" points="709.08 412.9 728.91 447.68 711.91 464.69 704.55 472.5 674.83 472.5 709.08 412.9"/><polygon class="cls-6" points="666.83 386.19 706.39 470.2 704.1 472.5 687.55 472.5 663.65 472.5 638.37 447.22 666.83 386.19"/><polygon class="cls-7" points="666.83 472.5 690.77 472.5 704.55 472.5 706.85 470.2 666.83 386.19 666.83 386.19 666.87 468.82 666.83 472.5"/><polygon class="cls-8" points="709.15 467.9 728.91 447.68 709.15 412.9 709.15 412.9 709.15 467.9"/><polygon class="cls-9" points="666.83 385.88 684.79 423.78 679.16 421.12 674.88 423.86 669.57 417.01 666.83 423.86 659.3 417.01 657.93 423.86 653.82 420.44 649.02 423.86 666.83 385.88"/><polygon class="cls-10" points="709.15 412.75 719.26 430.67 715.24 428.66 713.13 430.71 709.08 427.97 705.25 430.71 703.6 427.29 698.8 430.71 709.15 412.75"/><polygon class="cls-11" points="666.83 385.88 666.83 423.86 669.57 417.01 674.88 423.86 679.16 421.12 684.79 423.78 666.83 385.88"/><polygon class="cls-11" points="709.15 412.75 709.08 427.97 713.13 430.71 715.24 428.66 719.26 430.67 709.15 412.75"/><polygon class="cls-12" points="703.95 374.98 732.54 403.56 732.54 443.99 703.95 472.58 663.53 472.58 634.94 443.99 634.94 403.56 663.53 374.98 703.95 374.98"/><polygon class="cls-11" points="608.1 516.83 590.92 528.76 574.2 454.78 637.69 496.28 620.51 508.21 650.87 551.92 638.46 560.54 608.1 516.83"/><path d="M620,508.44l54.11,35.37-11.4,7.92L658,555l3.23,4.66,27.12,39-7.75,5.38-27.12-39-3.24-4.66-4.65,3.24-11.4,7.91L620,508.44M611.33,496,630.53,581l18.3-12.71,30.36,43.7,17.06-11.85L665.9,556.38l18.3-12.71L611.33,496Z" transform="translate(-41.44 -47.46)"/><rect class="cls-2" x="239.02" y="210.59" width="163.97" height="127.83" rx="12"/><path class="cls-13" d="M372.56,264.79h.25a.27.27,0,0,1,.27.27v1.75a0,0,0,0,1,0,0h-.78a0,0,0,0,1,0,0v-1.75A.27.27,0,0,1,372.56,264.79Z"/><path class="cls-13" d="M379,264.84h.25a.27.27,0,0,1,.27.27v1.75a0,0,0,0,1,0,0h-.78a0,0,0,0,1,0,0V265.1a.27.27,0,0,1,.27-.27Z"/><rect class="cls-14" x="283.96" y="250.57" width="10.29" height="10.81" rx="3.52"/><path class="cls-14" d="M341.91,280.52v16.24c0,5.43-4.88,9.82-10.89,9.82h-1.89c-6,0-10.88-4.39-10.88-9.82V280.52c0-4.49,4-8.12,9-8.12h5.68C337.88,272.4,341.91,276,341.91,280.52Z" transform="translate(-41.44 -47.46)"/><rect class="cls-15" x="280.91" y="234.49" width="6.15" height="1.99" rx="0.75"/><rect class="cls-15" x="290.61" y="234.49" width="6.15" height="1.99" rx="0.75"/><path class="cls-16" d="M275.77,238.73h1a0,0,0,0,1,0,0v3.69a0,0,0,0,1,0,0h-1a1.4,1.4,0,0,1-1.4-1.4v-.9A1.4,1.4,0,0,1,275.77,238.73Z"/><path class="cls-16" d="M300.47,238.73h1a1.4,1.4,0,0,1,1.4,1.4v.9a1.4,1.4,0,0,1-1.4,1.4h-1a0,0,0,0,1,0,0v-3.69a0,0,0,0,1,0,0Z"/><ellipse class="cls-17" cx="283.98" cy="237.88" rx="0.98" ry="0.88"/><ellipse class="cls-17" cx="293.99" cy="237.88" rx="0.98" ry="0.88"/><rect class="cls-16" x="287.86" y="240.16" width="2.44" height="3.78" rx="0.83"/><rect class="cls-18" x="275.85" y="260.19" width="26.51" height="29.21" rx="6.35"/><path class="cls-19" d="M290.52,320.57h12.41a7.54,7.54,0,0,1,7.54,7.54v2.43a0,0,0,0,1,0,0h-20a0,0,0,0,1,0,0v-10A0,0,0,0,1,290.52,320.57Z"/><rect class="cls-19" x="290.52" y="328.87" width="19.95" height="1.67"/><rect class="cls-19" x="290.52" y="329.71" width="19.95" height="0.42"/><path class="cls-19" d="M344.07,368.76a2,2,0,0,1-.57,1.9,6.46,6.46,0,0,1-1.83,1.23" transform="translate(-41.44 -47.46)"/><path class="cls-20" d="M343.11,369a1.89,1.89,0,0,1,.05.23l0-.26a2,2,0,0,1,0,.42l0-.26a2.17,2.17,0,0,1-.13.5l.1-.23a3.08,3.08,0,0,1-.33.55l.15-.2a4.05,4.05,0,0,1-.59.58l.2-.16a9.28,9.28,0,0,1-1.39.83,1,1,0,0,0-.36,1.37,1,1,0,0,0,1.37.36,6.91,6.91,0,0,0,2.11-1.47,3,3,0,0,0,.75-2.79,1,1,0,0,0-1.93.53Z" transform="translate(-41.44 -47.46)"/><path class="cls-19" d="M347,369.46a2,2,0,0,1-.57,1.91,6.6,6.6,0,0,1-1.82,1.22" transform="translate(-41.44 -47.46)"/><path class="cls-20" d="M346.05,369.72a2,2,0,0,1,.05.24l0-.27a1.48,1.48,0,0,1,0,.42l0-.26a3.23,3.23,0,0,1-.14.51l.1-.24a2.77,2.77,0,0,1-.33.55l.15-.2a3.24,3.24,0,0,1-.59.58l.2-.16a8.51,8.51,0,0,1-1.39.83,1,1,0,0,0-.36,1.37,1,1,0,0,0,1.37.36,6.91,6.91,0,0,0,2.11-1.47,3,3,0,0,0,.75-2.79,1,1,0,0,0-1.93.53Z" transform="translate(-41.44 -47.46)"/><path class="cls-19" d="M349,370.82a2,2,0,0,1-.58,1.91,6.6,6.6,0,0,1-1.82,1.22" transform="translate(-41.44 -47.46)"/><path class="cls-20" d="M348,371.09a1.55,1.55,0,0,1,.06.23l0-.27a1.55,1.55,0,0,1,0,.43l0-.27a1.84,1.84,0,0,1-.14.51l.1-.24a2.77,2.77,0,0,1-.33.55l.16-.2a3.3,3.3,0,0,1-.6.58l.21-.16a9,9,0,0,1-1.4.84,1,1,0,0,0-.35,1.36,1,1,0,0,0,1.36.36,6.79,6.79,0,0,0,2.11-1.47,3,3,0,0,0,.75-2.79,1,1,0,0,0-1.93.54Z" transform="translate(-41.44 -47.46)"/><path class="cls-21" d="M293.07,286.38h2.36a2.55,2.55,0,0,1,2.55,2.55v29.38a0,0,0,0,1,0,0h-7.46a0,0,0,0,1,0,0V288.93A2.55,2.55,0,0,1,293.07,286.38Z"/><rect class="cls-22" x="290.52" y="312.67" width="7.46" height="6.39"/><path class="cls-19" d="M308.35,368h20a0,0,0,0,1,0,0v2.43a7.54,7.54,0,0,1-7.54,7.54H308.35a0,0,0,0,1,0,0V368A0,0,0,0,1,308.35,368Z" transform="translate(595.22 698.57) rotate(180)"/><rect class="cls-19" x="308.35" y="376.33" width="19.95" height="1.67" transform="translate(595.22 706.87) rotate(-180)"/><rect class="cls-19" x="308.35" y="377.17" width="19.95" height="0.42" transform="translate(595.22 707.29) rotate(-180)"/><path class="cls-19" d="M316.19,368.76a2,2,0,0,0,.58,1.9,6.41,6.41,0,0,0,1.82,1.23" transform="translate(-41.44 -47.46)"/><path class="cls-20" d="M315.23,368.49a3,3,0,0,0,.75,2.79,6.79,6.79,0,0,0,2.11,1.47,1,1,0,1,0,1-1.73,9.28,9.28,0,0,1-1.39-.83l.2.16a4.71,4.71,0,0,1-.6-.58l.16.2a3.08,3.08,0,0,1-.33-.55l.1.23a2.19,2.19,0,0,1-.14-.5l0,.26a1.48,1.48,0,0,1,0-.42l0,.26.06-.23a1,1,0,0,0-1.93-.53Z" transform="translate(-41.44 -47.46)"/><path class="cls-19" d="M313.25,369.46a2,2,0,0,0,.58,1.91,6.6,6.6,0,0,0,1.82,1.22" transform="translate(-41.44 -47.46)"/><path class="cls-20" d="M312.29,369.19A3,3,0,0,0,313,372a6.79,6.79,0,0,0,2.11,1.47,1,1,0,0,0,1-1.73,8.6,8.6,0,0,1-1.4-.83l.21.16a3.65,3.65,0,0,1-.6-.58l.16.2a2.77,2.77,0,0,1-.33-.55l.1.24a2.42,2.42,0,0,1-.14-.51l0,.26a1.48,1.48,0,0,1,0-.42l0,.27a2.1,2.1,0,0,1,.06-.24,1,1,0,0,0-.7-1.23,1,1,0,0,0-1.23.7Z" transform="translate(-41.44 -47.46)"/><path class="cls-19" d="M311.26,370.82a2,2,0,0,0,.57,1.91,6.8,6.8,0,0,0,1.83,1.22" transform="translate(-41.44 -47.46)"/><path class="cls-20" d="M310.3,370.55a3,3,0,0,0,.74,2.79,6.91,6.91,0,0,0,2.11,1.47,1,1,0,1,0,1-1.72,9.34,9.34,0,0,1-1.39-.84l.2.16a3.24,3.24,0,0,1-.59-.58l.15.2a2.33,2.33,0,0,1-.32-.55l.1.24a1.84,1.84,0,0,1-.14-.51l0,.27a2,2,0,0,1,0-.43l0,.27a1.55,1.55,0,0,1,.05-.23,1,1,0,0,0-1.92-.54Z" transform="translate(-41.44 -47.46)"/><path class="cls-21" d="M320.84,333.84h7.46a0,0,0,0,1,0,0v29.88a2.55,2.55,0,0,1-2.55,2.55h-2.36a2.55,2.55,0,0,1-2.55-2.55V333.84A0,0,0,0,1,320.84,333.84Z" transform="translate(607.71 652.65) rotate(-180)"/><rect class="cls-23" x="320.84" y="360.59" width="7.46" height="5.99" transform="translate(607.71 679.72) rotate(-180)"/><rect class="cls-20" x="275.32" y="286.08" width="26.5" height="3.32"/><ellipse class="cls-14" cx="305.01" cy="288.99" rx="4.44" ry="4.01"/><ellipse class="cls-14" cx="273.35" cy="289.34" rx="4.44" ry="4.01"/><polygon class="cls-14" points="288.95 263.17 283.96 260.05 294.25 260.05 288.95 263.17"/><path class="cls-21" d="M280.48,259.89h.92a1,1,0,0,1,1,1v6.34a0,0,0,0,1,0,0h-2.91a0,0,0,0,1,0,0v-6.34A1,1,0,0,1,280.48,259.89Z"/><path class="cls-21" d="M296.63,259.89h.88a1,1,0,0,1,1,1v6.39a0,0,0,0,1,0,0h-2.78a0,0,0,0,1,0,0v-6.39A1,1,0,0,1,296.63,259.89Z"/><path class="cls-21" d="M343.8,333.84H317.29V316.4c0-.94.9-.52,1.94-.52l1.7-1.19h2.91l1.14,1.19h8.94l3.2-1.19h2.78l2,1.19c1,0,1.89-.42,1.89.52Z" transform="translate(-41.44 -47.46)"/><rect class="cls-19" x="279.41" y="315.61" width="7.45" height="6.39"/><rect class="cls-19" x="290.53" y="315.61" width="7.45" height="6.39"/><rect class="cls-14" x="300.73" y="264.46" width="7.46" height="26.35" rx="2.55"/><rect class="cls-14" x="269.82" y="264.46" width="7.46" height="26.35" rx="2.55"/><rect class="cls-24" x="285.42" y="285.18" width="7.06" height="4.89" rx="1.85"/><path class="cls-18" d="M315.72,308.84h-1.45c-1.66,0-3,1.81-3,4v6.4h7.46v-6.4C318.72,310.65,317.37,308.84,315.72,308.84Z" transform="translate(-41.44 -47.46)"/><path class="cls-18" d="M346.62,309.62h-1.45c-1.65,0-3,1.68-3,3.72v5.93h7.46v-5.93C349.63,311.3,348.27,309.62,346.62,309.62Z" transform="translate(-41.44 -47.46)"/><rect class="cls-25" x="320.05" y="362.03" width="9.04" height="3.12" rx="1.18" transform="translate(607.71 679.71) rotate(-180)"/><rect class="cls-25" x="289.73" y="314.57" width="9.04" height="3.12" rx="1.18"/><ellipse class="cls-26" cx="280.94" cy="269.2" rx="1.36" ry="1.23"/><ellipse class="cls-26" cx="297.07" cy="269.2" rx="1.36" ry="1.23"/><ellipse class="cls-27" cx="289.11" cy="249.68" rx="2.79" ry="1.48"/><ellipse class="cls-28" cx="289.11" cy="247.52" rx="4.44" ry="1.88"/><path class="cls-29" d="M330.55,294.77c.07,2.77-.54,5-1.36,5.09-.42,0-2.17-1.08-4-2-.9-.46-1.89-.91-2.49-1.21a2.64,2.64,0,0,0-.82-.24,1.93,1.93,0,0,0-.32,0,3,3,0,0,1,.66-1.24c.59-.67,1.27-1.43,2.09-2.22,1.59-1.57,3.58-3,4.13-3C329.52,289.8,330.47,292,330.55,294.77Z" transform="translate(-41.44 -47.46)"/><path class="cls-30" d="M339.56,296.39a3.31,3.31,0,0,0-1.59-.68,42,42,0,0,0-7.42-.94" transform="translate(-41.44 -47.46)"/><path class="cls-29" d="M330.55,294.77c.07-2.76,1-5,2.13-4.88.54,0,2.53,1.47,4.13,3,.81.79,1.49,1.55,2.09,2.22a3.11,3.11,0,0,1,.66,1.24,1.94,1.94,0,0,0-.32,0,2.77,2.77,0,0,0-.83.24c-.6.3-1.58.75-2.49,1.21-1.85.93-3.59,2-4,2C331.08,299.79,330.47,297.54,330.55,294.77Z" transform="translate(-41.44 -47.46)"/><path class="cls-31" d="M332.84,272.44h-5.67c-5,0-9,3.64-9,8.12v5.66h1.89v-.45c0-4.48,4-8.12,9-8.12h5.68a9.35,9.35,0,0,1,7.1,3.15v-.24C341.84,276.08,337.81,272.44,332.84,272.44Z" transform="translate(-41.44 -47.46)"/><rect class="cls-32" x="334.79" y="258.97" width="30.7" height="39.31" rx="6"/><rect class="cls-33" x="336.23" y="260.74" width="27.84" height="10.21" rx="3.86"/><ellipse class="cls-34" cx="350.14" cy="285.13" rx="8.85" ry="7.99"/><path class="cls-35" d="M397.22,339.33l-13.28-12a1,1,0,0,1,0-1.49h0a1.27,1.27,0,0,1,1.66,0l13.28,12a1,1,0,0,1,0,1.49h0A1.27,1.27,0,0,1,397.22,339.33Z" transform="translate(-41.44 -47.46)"/><rect class="cls-36" x="336.23" y="272.08" width="11.19" height="2.06" rx="0.78"/><rect class="cls-37" x="352.88" y="272.08" width="11.19" height="2.06" rx="0.78"/><ellipse class="cls-38" cx="349.97" cy="273.11" rx="1.14" ry="1.03"/><ellipse class="cls-39" cx="348.19" cy="295.87" rx="1.63" ry="1.47"/><ellipse class="cls-40" cx="361.87" cy="295.87" rx="1.63" ry="1.47"/><ellipse class="cls-41" cx="357.36" cy="295.87" rx="1.63" ry="1.47"/><ellipse class="cls-40" cx="352.88" cy="295.87" rx="1.63" ry="1.47"/><ellipse cx="348.19" cy="295.87" rx="0.89" ry="0.8"/><ellipse cx="352.88" cy="295.87" rx="0.89" ry="0.8"/><ellipse cx="357.36" cy="295.87" rx="0.89" ry="0.8"/><ellipse cx="361.87" cy="295.87" rx="0.89" ry="0.8"/><path class="cls-42" d="M401.93,343.31a5.84,5.84,0,0,0,.94,4.37,4.35,4.35,0,0,0,4.36,1.3c3.45-.76,5.17-4.83,6-7.87,1-3.68.91-7.39,1-11.16s2.7-7.43,1.35-11.24c-.64-1.81-3.54-1-2.89.79,1,2.77-.93,5.59-1.31,8.32s0,5.83-.32,8.73a18.11,18.11,0,0,1-2.37,7.65c-.58.95-1.65,2.19-2.93,1.89s-.92-1.87-.84-2.78c.18-1.92-2.82-1.9-3,0Z" transform="translate(-41.44 -47.46)"/><path class="cls-42" d="M397.27,343.3c0,3.36,1.17,7.76,4.86,8.61a23.9,23.9,0,0,0,11.37-.27,6.19,6.19,0,0,0,3.92-2.55,15.81,15.81,0,0,0,1.5-4.91c.88-3.95,1.93-7.9,2.63-11.89.76-4.33.47-8.92.55-13.31,0-1.93-3-1.93-3,0l-.11,6.43a41.16,41.16,0,0,1-.33,6.08c-.72,4.15-1.82,8.27-2.75,12.38-.31,1.41-.44,3.57-1.82,4.39-1.59.94-4,1.09-5.8,1.17a23.67,23.67,0,0,1-3.26-.08,8.74,8.74,0,0,1-2.74-.5c-1.69-.84-2-3.9-2-5.55,0-1.93-3-1.93-3,0Z" transform="translate(-41.44 -47.46)"/><rect class="cls-43" x="377.58" y="266.81" width="2.98" height="5.73"/><rect class="cls-44" x="371.19" y="266.81" width="2.98" height="5.73"/><rect class="cls-45" x="492.4" y="400.76" width="65.16" height="42.15" rx="12"/><rect class="cls-46" x="539.4" y="436.51" width="16.43" height="1.09"/><path class="cls-47" d="M587.6,485.07H575.11v-9.5s8.64,6.5,12.06,6.5C589,482.07,587.6,485.07,587.6,485.07Z" transform="translate(-41.44 -47.46)"/><path class="cls-48" d="M520.49,420a37.62,37.62,0,0,0-1,9.91,21.37,21.37,0,0,0,3.26,9.89c.18.3,1,1.81,1.48,1.2s-.79-2.51-1.05-2.92c-.14-.23-.16-.24-.23-.38.09.18-.14-.32-.14-.34a9.65,9.65,0,0,1-.46-1.59,16.42,16.42,0,0,1-.34-3.5,39.3,39.3,0,0,1,1-8.15c.19-.93-.58-2.17-1-2.92-.1-.17-1.34-1.88-1.48-1.2Z" transform="translate(-41.44 -47.46)"/><path class="cls-48" d="M520.55,427.31v9.28a3.37,3.37,0,0,0,2.1,2.76c.85.33,2.1.29,2.1-.91v-9.29a3.39,3.39,0,0,0-2.1-2.76c-.86-.33-2.1-.29-2.1.92Z" transform="translate(-41.44 -47.46)"/><path class="cls-48" d="M521,430a11.57,11.57,0,0,0,.72,6.7,3.6,3.6,0,0,0,.93,1.26,5.54,5.54,0,0,0,1.62,1c.36.14.93.38,1.29.18a.57.57,0,0,0,.26-.78,11.41,11.41,0,0,1-.69-2.29l.06.35a11,11,0,0,1,0-4.08c.07-.36-.39-.94-.58-1.16a5.51,5.51,0,0,0-1.5-1.22c-.51-.27-2-1-2.15,0Z" transform="translate(-41.44 -47.46)"/><path class="cls-48" d="M519.59,428.6a13,13,0,0,0,1.64,10.13,3.41,3.41,0,0,0,1.4,1.34,2.5,2.5,0,0,0,1.74.19,1.67,1.67,0,0,0,1.14-1.05,2.11,2.11,0,0,0-.18-1.65,11.78,11.78,0,0,1-1-1.86c-.09-.23-.07-.17.06.16,0-.09-.07-.18-.09-.27s-.12-.35-.17-.53-.16-.64-.21-1a4.18,4.18,0,0,1-.09-.55c0,.3,0,.37,0,.2s0-.14,0-.21a8.38,8.38,0,0,1,0-1.12c0-.33,0-.66.07-1,0-.1,0-.19,0-.28-.05.3-.06.34,0,.11l.12-.55a2.66,2.66,0,0,0-1.58-3c-.93-.4-2.56-.4-2.88.87Z" transform="translate(-41.44 -47.46)"/><path class="cls-48" d="M520.28,434.22a5.4,5.4,0,0,0-.22,3.63,8.47,8.47,0,0,0,2.71,3.93,6.29,6.29,0,0,0,1.65,1,3.35,3.35,0,0,0,1.53.3c.29-.05.63-.17.58-.55a2,2,0,0,0-.75-1c-.1-.08-.2-.19-.3-.27l.16.16-.14-.15a3.47,3.47,0,0,1-.25-.29l-.12-.15c-.11-.15-.08-.11.08.12-.11-.22-.27-.42-.38-.64a5.71,5.71,0,0,1-.3-.67l.12.33a5.15,5.15,0,0,1-.26-2.43l0,.27a4.93,4.93,0,0,1,.35-1.19c.14-.34-.13-.71-.33-.95a4.74,4.74,0,0,0-1.43-1.08,4.62,4.62,0,0,0-1.7-.57c-.28,0-.82-.07-1,.26Z" transform="translate(-41.44 -47.46)"/><path class="cls-48" d="M520.63,433.84a9.26,9.26,0,0,0,.35,4.64,4.4,4.4,0,0,0,.94,1.53,4.27,4.27,0,0,0,1.45,1.08c.31.11.82.29,1.09,0a1.09,1.09,0,0,0,.11-1.09,7.9,7.9,0,0,1-.27-.95l.1.44a7.51,7.51,0,0,1-.13-2.17l0,.37a5.62,5.62,0,0,1,.1-.7,2.15,2.15,0,0,0-.27-1.31,5,5,0,0,0-1.22-1.5,2.85,2.85,0,0,0-1.4-.74c-.32,0-.75,0-.82.41Z" transform="translate(-41.44 -47.46)"/><path class="cls-48" d="M523.86,434.89a3.48,3.48,0,0,0-3.9-.49,1.84,1.84,0,0,0-.43.45,1.2,1.2,0,0,0-.16.27,3.35,3.35,0,0,0-.24,1,19.85,19.85,0,0,0-.06,3.18,1.33,1.33,0,0,0,.15.68,1.82,1.82,0,0,0,.43.68,3.81,3.81,0,0,0,1.63,1,2.6,2.6,0,0,0,1.65.08c.38-.16.81-.47.79-.94s-.05-1.23,0-1.85a8.21,8.21,0,0,1,.14-1.72l-.11.41a1.17,1.17,0,0,1,.23-.46l-.28.32a.94.94,0,0,1,.23-.16l-.4.21a.74.74,0,0,1,.21-.07l-.49.09h.1l-.56,0,.11,0-.6-.15.09,0-.61-.27,0,0-.56-.36,0,0a4,4,0,0,0,1.77.77,1.94,1.94,0,0,0,1.45-.28c.85-.78.09-1.95-.64-2.5Z" transform="translate(-41.44 -47.46)"/><path class="cls-48" d="M518,437.11a17.62,17.62,0,0,1-.3,3.4l.07-.39c0,.2-.08.4-.13.6a.81.81,0,0,0,0,.61,1.23,1.23,0,0,0,.28.65,3.5,3.5,0,0,0,1.44,1.11,3.37,3.37,0,0,0,1.79.32l.48-.12a1.05,1.05,0,0,0,.61-.54,18.21,18.21,0,0,0,.52-4.41,2,2,0,0,0-.69-1.27,4,4,0,0,0-1.71-.92,2.56,2.56,0,0,0-1.64,0,1,1,0,0,0-.69.94Z" transform="translate(-41.44 -47.46)"/><path class="cls-48" d="M517.89,434.56c0,.22,0,.44.05.66l0-.44a11.77,11.77,0,0,1-.44,3.78,1.16,1.16,0,0,0,.56,1.14,2.66,2.66,0,0,0,1.63.35,3.58,3.58,0,0,0,1.82-.65l.43-.37a1.65,1.65,0,0,0,.44-.86,12.5,12.5,0,0,0,.36-4.87c0-.45-.63-.8-1-.93a3.26,3.26,0,0,0-1.83,0,3.15,3.15,0,0,0-1.59.91l-.3.41a1.23,1.23,0,0,0-.12.88Z" transform="translate(-41.44 -47.46)"/><path class="cls-48" d="M518,433.82a26.3,26.3,0,0,0-.12,4.86,1.59,1.59,0,0,0,.19.42,4.67,4.67,0,0,0,.38.6,15.87,15.87,0,0,0,1.21,1.5,6,6,0,0,0,1.09,1c.1.07.39.3.37,0a26.43,26.43,0,0,1,.12-4.87,1.62,1.62,0,0,0-.2-.42,4.56,4.56,0,0,0-.38-.59,12.51,12.51,0,0,0-1.21-1.51,6.65,6.65,0,0,0-1.08-1l-.23-.13c-.12-.05-.17,0-.14.12Z" transform="translate(-41.44 -47.46)"/><path class="cls-48" d="M516.6,437.71l-.82,2.75a.27.27,0,0,0,0,.36.46.46,0,0,0,.32.3,2.32,2.32,0,0,0,.67.19,3.53,3.53,0,0,0,.86.07,5.89,5.89,0,0,0,1.91-.27l.49-.18a1.43,1.43,0,0,0,.6-.46l.83-2.75a.27.27,0,0,0,0-.35.49.49,0,0,0-.33-.31,2.16,2.16,0,0,0-.66-.18,3.62,3.62,0,0,0-.87-.08,6.21,6.21,0,0,0-1.91.27l-.49.19a1.33,1.33,0,0,0-.6.45Z" transform="translate(-41.44 -47.46)"/><path class="cls-48" d="M515.37,438.47a3,3,0,0,0,.2,1.69,1,1,0,0,0,.28.43,2.52,2.52,0,0,0,.53.5,5,5,0,0,0,.79.5,5,5,0,0,0,.89.45l.56.21a3.66,3.66,0,0,0,.92.18l.31,0A.27.27,0,0,0,520,442a2.65,2.65,0,0,1-.24-1.24V441c0-.08,0-.16,0-.24a.32.32,0,0,0-.06-.35,1.08,1.08,0,0,0-.34-.45,4.56,4.56,0,0,0-.65-.51,5.28,5.28,0,0,0-.82-.5l-.61-.28a5,5,0,0,0-1.06-.34l-.42-.05a.49.49,0,0,0-.47.17Z" transform="translate(-41.44 -47.46)"/><path class="cls-48" d="M517.08,440.18V444a1.35,1.35,0,0,0,.61,1.1,3.48,3.48,0,0,0,1.7.62,3.39,3.39,0,0,0,1.81-.21c.35-.18.84-.47.84-.93v-3.85a1.35,1.35,0,0,0-.61-1.1,3.48,3.48,0,0,0-1.7-.62,3.38,3.38,0,0,0-1.81.21c-.35.18-.84.47-.84.93Z" transform="translate(-41.44 -47.46)"/><path class="cls-48" d="M519.07,441.33l.6,3a2.86,2.86,0,0,0,.94,1.62,2.29,2.29,0,0,0,.86.48,1.86,1.86,0,0,0,.9.17,2,2,0,0,0,1.54-.69,2.05,2.05,0,0,0,.42-1.64l-.6-3a2.83,2.83,0,0,0-.94-1.62,2.1,2.1,0,0,0-.86-.48,1.84,1.84,0,0,0-.9-.17,2,2,0,0,0-1.54.69,2,2,0,0,0-.42,1.63Z" transform="translate(-41.44 -47.46)"/><path class="cls-48" d="M518.27,423.39a18.67,18.67,0,0,0,1.29,4.82,2.71,2.71,0,0,0,1.28,1.06,3.88,3.88,0,0,0,1.9.32,1.88,1.88,0,0,0,1.34-.6l.19-.38a1.11,1.11,0,0,0-.14-.83l-.21-.53.16.41a17.22,17.22,0,0,1-.94-3.87,2,2,0,0,0-.89-1.18,3.85,3.85,0,0,0-1.83-.62c-.87,0-2.3.22-2.15,1.4Z" transform="translate(-41.44 -47.46)"/><path class="cls-48" d="M517.48,427.48a4.6,4.6,0,0,0-.08.91,5.93,5.93,0,0,0,.11,1.33,6.65,6.65,0,0,0,.46,1.22,4.12,4.12,0,0,0,.48.81,2.06,2.06,0,0,0,1.33.71,2.53,2.53,0,0,0,1,0,2.71,2.71,0,0,0,1-.24,2.57,2.57,0,0,0,1.29-1.07,1.22,1.22,0,0,0,0-1.3,4.43,4.43,0,0,1-.48-.81l.19.41a4.37,4.37,0,0,1-.38-1.66v.45a4.22,4.22,0,0,1,.08-.94,1.26,1.26,0,0,0-.52-1.19,2.68,2.68,0,0,0-1.63-.42,3.52,3.52,0,0,0-1.84.59,2.05,2.05,0,0,0-.91,1.21Z" transform="translate(-41.44 -47.46)"/><path class="cls-48" d="M519.8,430l.3,2.34a.29.29,0,0,0,.22.12,1.82,1.82,0,0,0,.52.08,11.62,11.62,0,0,0,1.77,0,13,13,0,0,0,1.76-.18l.39-.09a.43.43,0,0,0,.33-.18l-.3-2.34a.29.29,0,0,0-.22-.12,1.82,1.82,0,0,0-.52-.08,11.62,11.62,0,0,0-1.77,0,13,13,0,0,0-1.76.18l-.39.09a.43.43,0,0,0-.33.18Z" transform="translate(-41.44 -47.46)"/><path class="cls-48" d="M518.84,428.09a28.11,28.11,0,0,0,.38,6.21c.21,1.19,1.68,1.45,2.65,1.09s2.23-1.42,2-2.67a25.5,25.5,0,0,1-.4-4.27v.5c0-.47,0-.95,0-1.43a1.53,1.53,0,0,0-.5-1.36,2.08,2.08,0,0,0-1.55-.37,3.22,3.22,0,0,0-1.76.81,2.47,2.47,0,0,0-.86,1.49Z" transform="translate(-41.44 -47.46)"/><path class="cls-48" d="M517.84,430.79V435c0,.33.58.5.79.56a5.06,5.06,0,0,0,1.78.09,4.69,4.69,0,0,0,1.73-.43c.28-.14.67-.33.67-.7v-4.22c0-.33-.58-.51-.79-.56a4.85,4.85,0,0,0-1.78-.09,4.79,4.79,0,0,0-1.74.43c-.27.14-.66.33-.66.7Z" transform="translate(-41.44 -47.46)"/><path class="cls-48" d="M500.56,427.81c0,.28,0,.57,0,.86v-.54a18.58,18.58,0,0,1-.9,5.68,1.63,1.63,0,0,0,.51,1.46,2.51,2.51,0,0,0,1.63.65,3,3,0,0,0,1.86-.53l.45-.39a2,2,0,0,0,.48-1,19.67,19.67,0,0,0,.87-7.07,1.79,1.79,0,0,0-1-1.26,2.86,2.86,0,0,0-1.84-.28,2.82,2.82,0,0,0-1.64.88,2.05,2.05,0,0,0-.48,1.51Z" transform="translate(-41.44 -47.46)"/><path class="cls-48" d="M499.9,432.21a4.93,4.93,0,0,1-.54,2.59l.05-.1a4.69,4.69,0,0,1-.52.79c-.18.22.27.09.31.08a8.42,8.42,0,0,0,1.41-.5c.6-.25,1.18-.52,1.75-.82l.44-.25a3.23,3.23,0,0,0,.54-.37,5,5,0,0,0,1.11-3.48c0-.12-.84.16-.74.13a16.69,16.69,0,0,0-1.65.66c-.53.25-1.07.5-1.57.8l-.34.21a.46.46,0,0,0-.25.26Z" transform="translate(-41.44 -47.46)"/><path class="cls-48" d="M501.22,432.35a5.14,5.14,0,0,1,.07.88v-.55a5.75,5.75,0,0,1-.21,1.43l.15-.5a5.46,5.46,0,0,1-.71,1.48,1.36,1.36,0,0,0-.14.77,1.74,1.74,0,0,0,.14.84,3.12,3.12,0,0,0,1.22,1.51,2.44,2.44,0,0,0,1.67.45l.5-.14a1.5,1.5,0,0,0,.72-.71,6.57,6.57,0,0,0,.93-2.31,4.81,4.81,0,0,0,.13-1,7.71,7.71,0,0,0-.08-1.52,3.08,3.08,0,0,0-.84-1.65,3,3,0,0,0-1.64-.87,1.71,1.71,0,0,0-1.47.42,1.75,1.75,0,0,0-.44,1.47Z" transform="translate(-41.44 -47.46)"/><path class="cls-48" d="M502.09,435.54a5.86,5.86,0,0,0-1.29,3.25.41.41,0,0,0,.3.27,1,1,0,0,0,.57.14,3.85,3.85,0,0,0,.83,0,5.3,5.3,0,0,0,.95-.18,5.18,5.18,0,0,0,1.64-.7l.33-.27a.61.61,0,0,0,.22-.52v0l0,.24a5.68,5.68,0,0,1,1-2.58l-.19.27a.76.76,0,0,1,.08-.11.45.45,0,0,0,.2-.39.27.27,0,0,0-.13-.33,1.07,1.07,0,0,0-.51-.17,2.29,2.29,0,0,0-.74,0,6,6,0,0,0-1.88.41l-.56.24a2.76,2.76,0,0,0-.78.53Z" transform="translate(-41.44 -47.46)"/><path class="cls-48" d="M503.21,437.25l-.45,2.74a1.81,1.81,0,0,0,.16.73,2.56,2.56,0,0,0,.4.79,3.15,3.15,0,0,0,.66.75,3,3,0,0,0,.75.57l.5.23a1.47,1.47,0,0,0,.88.06l.32-.18a1,1,0,0,0,.27-.71l.46-2.74a1.89,1.89,0,0,0-.16-.74,2.62,2.62,0,0,0-.4-.78,3.42,3.42,0,0,0-.66-.75,3,3,0,0,0-.75-.57l-.5-.23a1.47,1.47,0,0,0-.88-.06l-.32.18a.91.91,0,0,0-.28.71Z" transform="translate(-41.44 -47.46)"/><path class="cls-48" d="M503.32,435.17c0,.16,0,.32-.05.48l.08-.57a6.22,6.22,0,0,1-.43,1.53l.22-.5a5.72,5.72,0,0,1-.39.73,2.23,2.23,0,0,0-.22,1.66,2.14,2.14,0,0,0,.4.88,2.35,2.35,0,0,0,.66.75,2.49,2.49,0,0,0,1.67.56,1.83,1.83,0,0,0,1.39-.81,8,8,0,0,0,1.15-3.81,2,2,0,0,0-.18-.9,2.1,2.1,0,0,0-.47-.85,2.27,2.27,0,0,0-.74-.64,2,2,0,0,0-.84-.35,1.92,1.92,0,0,0-1.59.35l-.37.41a2,2,0,0,0-.29,1.08Z" transform="translate(-41.44 -47.46)"/><path class="cls-48" d="M504.17,439.71a6.86,6.86,0,0,1-.39,1.56l.05-.11a7.12,7.12,0,0,1-.69,1.38c-.08.09-.07.13,0,.13a.36.36,0,0,0,.32,0,7,7,0,0,0,1.39-.56,17.2,17.2,0,0,0,1.7-.9l.43-.28a2.55,2.55,0,0,0,.51-.41,7.54,7.54,0,0,0,1.11-3.06c0-.13-.87.18-.75.14a11.67,11.67,0,0,0-1.61.73,12.9,12.9,0,0,0-1.53.88l-.32.24a.39.39,0,0,0-.23.29Z" transform="translate(-41.44 -47.46)"/><path class="cls-48" d="M505.28,441a8.56,8.56,0,0,1-.63,2.15l.05-.12a9.42,9.42,0,0,1-.56,1c-.08.08-.08.13,0,.14a.36.36,0,0,0,.32,0,7.24,7.24,0,0,0,1.45-.4,15.45,15.45,0,0,0,1.78-.73l.46-.23a2.25,2.25,0,0,0,.54-.37,8.56,8.56,0,0,0,1.25-3.3c0-.15-.87.07-.76,0a13.9,13.9,0,0,0-1.69.55,13.69,13.69,0,0,0-1.61.73c-.18.11-.56.26-.6.49Z" transform="translate(-41.44 -47.46)"/><path class="cls-48" d="M505.23,437.43a13.29,13.29,0,0,1-.63,2l.14-.36a12.06,12.06,0,0,1-1.23,2.26,1.3,1.3,0,0,0,0,1.24,4,4,0,0,0,2.85,2.09,1.28,1.28,0,0,0,1.18-.37,13.71,13.71,0,0,0,2-4.58,2,2,0,0,0-.43-1.35,4.24,4.24,0,0,0-1.47-1.26c-.72-.34-2.17-.76-2.43.36Z" transform="translate(-41.44 -47.46)"/><path class="cls-48" d="M502,438.44a7.57,7.57,0,0,1-.89,1.31l.34-.4a7.27,7.27,0,0,1-1.22,1.13l.46-.34c-.14.11-.29.2-.44.3a2.08,2.08,0,0,0-1,1.17.87.87,0,0,0,.05.69,1,1,0,0,0,.38.59,2.57,2.57,0,0,0,1.59.58,3.43,3.43,0,0,0,1.88-.43,9.17,9.17,0,0,0,1.92-1.53,9,9,0,0,0,1.43-1.94,1.06,1.06,0,0,0,.21-.68.89.89,0,0,0-.14-.67,1.3,1.3,0,0,0-.52-.52,1.75,1.75,0,0,0-.76-.34,3.43,3.43,0,0,0-1.93.09l-.57.25a2.27,2.27,0,0,0-.8.74Z" transform="translate(-41.44 -47.46)"/><path class="cls-48" d="M501.13,435.22a17.77,17.77,0,0,1-2.63,3.95c-.17.19.34.7.4.76a6.65,6.65,0,0,0,1.42,1.06,6.55,6.55,0,0,0,1.62.73c.25.07.66.21.87,0a17.17,17.17,0,0,0,2.62-3.95c.12-.25-.27-.63-.4-.76a6.65,6.65,0,0,0-1.42-1.06,6.55,6.55,0,0,0-1.62-.73c-.2-.05-.74-.24-.86,0Z" transform="translate(-41.44 -47.46)"/><path class="cls-48" d="M499.56,432.85l-1.48,2.74a.36.36,0,0,0-.08.34,1.16,1.16,0,0,0,.15.55,3.6,3.6,0,0,0,.39.72,5.39,5.39,0,0,0,.56.79,5.53,5.53,0,0,0,1.28,1.23l.36.21a.48.48,0,0,0,.5,0l1.48-2.75a.33.33,0,0,0,.08-.34,1.11,1.11,0,0,0-.15-.55,3.6,3.6,0,0,0-.39-.72,5.3,5.3,0,0,0-.56-.78,5.79,5.79,0,0,0-1.28-1.24l-.36-.21a.5.5,0,0,0-.5,0Z" transform="translate(-41.44 -47.46)"/><path class="cls-48" d="M500.37,432.67a17.53,17.53,0,0,1-2,7.15c-.1.19.29.62.35.7A10.63,10.63,0,0,0,500,441.8c.15.13,2,1.69,2.12,1.38a17.53,17.53,0,0,0,2-7.15c0-.27-.2-.5-.35-.7a9.85,9.85,0,0,0-1.23-1.27,9.74,9.74,0,0,0-1.39-1.1c-.06,0-.73-.43-.73-.29Z" transform="translate(-41.44 -47.46)"/><path class="cls-48" d="M498.18,436.49a6.18,6.18,0,0,0-.62.92,9.34,9.34,0,0,0-.65,1.49,1.8,1.8,0,0,0-.09.86,2.15,2.15,0,0,0,.2.9,2.26,2.26,0,0,0,.56.83,2.12,2.12,0,0,0,.74.62l.55.22a2,2,0,0,0,1.11,0l.49-.24a1.76,1.76,0,0,0,.64-.88,5.3,5.3,0,0,1,.37-.93l-.25.49a5.91,5.91,0,0,1,.65-1,1.36,1.36,0,0,0,.3-.77,1.71,1.71,0,0,0,0-.87,2.2,2.2,0,0,0-.35-.9,2.33,2.33,0,0,0-.61-.79l-.52-.36a2.43,2.43,0,0,0-1.12-.3l-.54.08a1.72,1.72,0,0,0-.88.64Z" transform="translate(-41.44 -47.46)"/><path class="cls-48" d="M500.62,438.8l-.26,4a1.54,1.54,0,0,0,.78,1.26,2.51,2.51,0,0,0,1.72.25,3.1,3.1,0,0,0,1.71-.9l.36-.47a1.82,1.82,0,0,0,.27-1l.26-4a1.54,1.54,0,0,0-.78-1.26,2.51,2.51,0,0,0-1.72-.25,3.1,3.1,0,0,0-1.71.9l-.36.47a1.82,1.82,0,0,0-.27,1Z" transform="translate(-41.44 -47.46)"/><path class="cls-48" d="M501.74,439.21a12.77,12.77,0,0,1-.09,2.47l.07-.54q-.06.45-.15.9a2.73,2.73,0,0,0,.21,1.71,2.43,2.43,0,0,0,.57.82,2.27,2.27,0,0,0,.73.61,2.05,2.05,0,0,0,1.58.26,1.49,1.49,0,0,0,1-1.06,15.54,15.54,0,0,0,.31-3.91,3.12,3.12,0,0,0-.62-1.74,2.27,2.27,0,0,0-.7-.68,2,2,0,0,0-.79-.42,1.67,1.67,0,0,0-1.49.2,1.71,1.71,0,0,0-.63,1.38Z" transform="translate(-41.44 -47.46)"/><path class="cls-48" d="M505.18,441.21a7.77,7.77,0,0,1,.15,2.76c0,.18.88,0,.8,0a10.35,10.35,0,0,0,1.68-.56,9.37,9.37,0,0,0,1.58-.8c.2-.14.53-.3.56-.56a7.71,7.71,0,0,0-.16-2.75c0-.19-.79,0-.79,0a9,9,0,0,0-1.68.57,10.13,10.13,0,0,0-1.58.79l-.33.23a.43.43,0,0,0-.23.33Z" transform="translate(-41.44 -47.46)"/><path class="cls-48" d="M506.79,440.59a1.19,1.19,0,0,1,.13.25l-.21-.53a1.16,1.16,0,0,1,.08.32l-.07-.52a1.21,1.21,0,0,1,0,.38l.07-.48a.43.43,0,0,1,0,.11,1.24,1.24,0,0,0,0,.74,1.63,1.63,0,0,0,.25.79,2.33,2.33,0,0,0,.57.75,2.78,2.78,0,0,0,.79.62l.57.25a2.24,2.24,0,0,0,1.09.1l.45-.15a1.27,1.27,0,0,0,.6-.71q.06-.3.09-.6a.76.76,0,0,0,0-.15.66.66,0,0,0,0-.14.17.17,0,0,0,0-.07c0-.19,0-.39-.08-.58a1.38,1.38,0,0,0-.08-.27c-.07-.19-.15-.39-.23-.58a.16.16,0,0,0,0-.07.54.54,0,0,0-.07-.13,2.69,2.69,0,0,0-.58-.76,2.74,2.74,0,0,0-.78-.61,2.08,2.08,0,0,0-.86-.31,1.67,1.67,0,0,0-.8,0l-.46.15a1.22,1.22,0,0,0-.59.71l-.08.48a2.3,2.3,0,0,0,.29,1Z" transform="translate(-41.44 -47.46)"/><path class="cls-48" d="M514.59,440.23v1.06a1.78,1.78,0,0,0,.17.85,2.05,2.05,0,0,0,.46.81,2.26,2.26,0,0,0,.78.62,2,2,0,0,0,.89.36l.6,0a2,2,0,0,0,1.06-.35l.4-.39a1.72,1.72,0,0,0,.35-1v-1.06a1.77,1.77,0,0,0-.16-.85,2.18,2.18,0,0,0-.46-.81,2.46,2.46,0,0,0-.78-.62,2.1,2.1,0,0,0-.89-.36l-.6,0a2,2,0,0,0-1.07.35l-.4.39a1.85,1.85,0,0,0-.35,1Z" transform="translate(-41.44 -47.46)"/><path class="cls-48" d="M514,440.84v1.9a.57.57,0,0,0,.24.41,1.18,1.18,0,0,0,.54.32,3.23,3.23,0,0,0,.82.17,3.44,3.44,0,0,0,1,0l.66-.08a4.2,4.2,0,0,0,1.09-.35c.31-.18.68-.41.68-.82v-1.9a.53.53,0,0,0-.24-.41,1.07,1.07,0,0,0-.54-.32,2.87,2.87,0,0,0-.82-.18,3.86,3.86,0,0,0-1,0l-.66.08a3.86,3.86,0,0,0-1.09.35c-.31.18-.68.41-.68.82Z" transform="translate(-41.44 -47.46)"/><path class="cls-48" d="M508.22,439.52a3.57,3.57,0,0,0-.77,1,4.75,4.75,0,0,0-.33.81,5.51,5.51,0,0,0-.1.9,1.65,1.65,0,0,0,.23.81,2,2,0,0,0,.52.77,2.3,2.3,0,0,0,.81.57,2.26,2.26,0,0,0,.9.32l.6,0a1.94,1.94,0,0,0,1-.37l.36-.39a1.67,1.67,0,0,0,.27-1v0l-.05.53a2,2,0,0,1,.17-.65l-.21.48a2,2,0,0,1,.38-.57l-.37.38,0,0a1.18,1.18,0,0,0,.47-.63,1.2,1.2,0,0,0,.16-.77,1.67,1.67,0,0,0-.24-.82,2,2,0,0,0-.51-.76l-.52-.42a3,3,0,0,0-1.2-.47l-.6,0a1.86,1.86,0,0,0-1,.37Z" transform="translate(-41.44 -47.46)"/><path class="cls-48" d="M506.85,440.25l-.21,1.06a1.17,1.17,0,0,0,.07.49,3.44,3.44,0,0,0,.26.67,6.48,6.48,0,0,0,.46.81,6.59,6.59,0,0,0,.56.82l.38.47a4.43,4.43,0,0,0,.68.62l.27.13c.15,0,.24,0,.27-.18l.21-1.06a1.17,1.17,0,0,0-.07-.49,3.21,3.21,0,0,0-.26-.67,6.48,6.48,0,0,0-.46-.81,7.54,7.54,0,0,0-.56-.83l-.38-.46a4.08,4.08,0,0,0-.69-.62l-.26-.13q-.22-.06-.27.18Z" transform="translate(-41.44 -47.46)"/><path class="cls-48" d="M501.85,420.18h-1.48a.54.54,0,0,0-.44.27.69.69,0,0,0-.22.53,1.71,1.71,0,0,0,.1.74,2.74,2.74,0,0,0,.32.82l.36.56a4.79,4.79,0,0,0,.9.9l.47.28a1.44,1.44,0,0,0,.84.17h1.48a.54.54,0,0,0,.44-.27.65.65,0,0,0,.21-.53,1.7,1.7,0,0,0-.09-.74,2.74,2.74,0,0,0-.32-.82l-.36-.56a4.79,4.79,0,0,0-.9-.9l-.47-.28a1.45,1.45,0,0,0-.84-.17Z" transform="translate(-41.44 -47.46)"/><path class="cls-48" d="M500.1,422.12a6.59,6.59,0,0,0-1.21.47,3.48,3.48,0,0,0-.51.34,2.9,2.9,0,0,0-.34.36,1.74,1.74,0,0,0-.11.18,1.56,1.56,0,0,0-.15.6.83.83,0,0,0,.07.41.4.4,0,0,0,.27.25,1.14,1.14,0,0,0,.55.13,3.75,3.75,0,0,0,.82,0,5,5,0,0,0,1-.12l.65-.16a5.49,5.49,0,0,0,1-.41l.35-.23a.49.49,0,0,0,.26-.44,1,1,0,0,1-.05-.56l0,.22a1.09,1.09,0,0,1,.24-.48l-.21.23.17-.15-.35.23.12-.06-.48.22.08,0-.57.19h0a4,4,0,0,0,.81-.3,2.32,2.32,0,0,0,.59-.34.41.41,0,0,0,.23-.33.21.21,0,0,0-.1-.29l-.29-.13a3.2,3.2,0,0,0-.93-.1,7.19,7.19,0,0,0-1.9.31Z" transform="translate(-41.44 -47.46)"/><path class="cls-48" d="M498,424.81a4.57,4.57,0,0,0,0,1.43,5.45,5.45,0,0,0,.46,1.62c.16.33.68.37,1,.36a2.83,2.83,0,0,0,.82-.15,4.15,4.15,0,0,0,.91-.34,4.38,4.38,0,0,0,1.45-1.07c.2-.27.49-.65.31-1a4.7,4.7,0,0,1-.4-1.27l.05.3a4.59,4.59,0,0,1,0-1.48.38.38,0,0,0-.15-.4.55.55,0,0,0-.45-.24,1.89,1.89,0,0,0-.71,0,2.84,2.84,0,0,0-.85.2,5.26,5.26,0,0,0-1.68.94,2.1,2.1,0,0,0-.74,1.09Z" transform="translate(-41.44 -47.46)"/><path class="cls-48" d="M499.11,425.87c-.06.61-.14,1.22-.25,1.82l.07-.34a19.39,19.39,0,0,1-.69,2.59,2,2,0,0,0,.12,1.29,5.52,5.52,0,0,0,1,1.67,3,3,0,0,0,1.21,1c.29.09.67.14.8-.22a19.78,19.78,0,0,0,1-4.76,3.26,3.26,0,0,0-.43-1.5,5.35,5.35,0,0,0-1.15-1.55l-.41-.34a1.54,1.54,0,0,0-.74-.29c-.36,0-.48.29-.51.65Z" transform="translate(-41.44 -47.46)"/><path class="cls-48" d="M499.39,428.35a9.16,9.16,0,0,1-.18,2.76l.09-.39a10,10,0,0,1-.75,2.13.85.85,0,0,0,.22,1,2,2,0,0,0,1.38.2,4,4,0,0,0,2.86-1.93,10.1,10.1,0,0,0,1-5.29c-.09-1.08-1.54-.94-2.28-.69a4.53,4.53,0,0,0-1.67,1c-.3.31-.72.75-.68,1.22Z" transform="translate(-41.44 -47.46)"/><path class="cls-48" d="M499.83,421.33a5.41,5.41,0,0,0-.46,1,5.58,5.58,0,0,0-.23,1.15,3.07,3.07,0,0,0,0,.68,6.06,6.06,0,0,0,.14,1.21,3.81,3.81,0,0,0,.88,1.73,2.37,2.37,0,0,0,.7.56,1.77,1.77,0,0,0,.74.29h.48a1.13,1.13,0,0,0,.75-.47l.21-.42a2.46,2.46,0,0,0,0-1.08,3.44,3.44,0,0,1-.09-.56l.05.57a3.75,3.75,0,0,1,0-.82l-.08.51a3.37,3.37,0,0,1,.3-1l-.2.42a1.74,1.74,0,0,1,.1-.19,1.19,1.19,0,0,0,.24-.68,1.75,1.75,0,0,0,0-.82,2.62,2.62,0,0,0-.32-.9,2.86,2.86,0,0,0-.55-.83l-.46-.41a2.21,2.21,0,0,0-1-.44,1.19,1.19,0,0,0-1.23.47Z" transform="translate(-41.44 -47.46)"/><path class="cls-48" d="M498.83,426.75a7.37,7.37,0,0,1-.12,1.32l.06-.32a6.62,6.62,0,0,1-.46,1.45,1.09,1.09,0,0,0,.27,1.06,2.54,2.54,0,0,0,.6.58,3.94,3.94,0,0,0,.81.54,4.08,4.08,0,0,0,1.73.51c.34,0,.85,0,1-.38a7.39,7.39,0,0,0,.65-3.07,1,1,0,0,0-.22-.56,1.91,1.91,0,0,0-.48-.58,3.79,3.79,0,0,0-.77-.56,3.89,3.89,0,0,0-.89-.44l-.58-.17a2.55,2.55,0,0,0-1-.05l-.35.13a.56.56,0,0,0-.28.54Z" transform="translate(-41.44 -47.46)"/><path class="cls-48" d="M498.35,431.57v2.33a.38.38,0,0,0,.09.38,1.15,1.15,0,0,0,.39.43,3.15,3.15,0,0,0,.69.45,5.39,5.39,0,0,0,.88.4,5.24,5.24,0,0,0,1.74.39l.42,0a.53.53,0,0,0,.47-.28v-2.32a.4.4,0,0,0-.08-.38,1.15,1.15,0,0,0-.39-.43,3.47,3.47,0,0,0-.7-.45,4.87,4.87,0,0,0-.87-.4,5.29,5.29,0,0,0-1.75-.39l-.42,0a.57.57,0,0,0-.47.28Z" transform="translate(-41.44 -47.46)"/><path class="cls-48" d="M498.17,431.17a6.59,6.59,0,0,1-.92,2.93c-.12.2.52.59.56.62a7.79,7.79,0,0,0,1.6.75,8.57,8.57,0,0,0,1.72.46c.22,0,.68.12.82-.11a6.8,6.8,0,0,0,.92-2.93c0-.27-.4-.51-.56-.62a7.79,7.79,0,0,0-1.6-.75,8,8,0,0,0-1.72-.46l-.4,0a.46.46,0,0,0-.42.14Z" transform="translate(-41.44 -47.46)"/><path class="cls-48" d="M497.77,426.73A37.34,37.34,0,0,1,495,439.2c-.42,1,.81,2.05,1.64,2.41s2.47.76,2.9-.3a40.13,40.13,0,0,0,2.9-13.27c.08-1.93-4.61-3.54-4.71-1.31Z" transform="translate(-41.44 -47.46)"/><path class="cls-48" d="M517.69,421.67l.45,6.12c0,.15.8.1.76.1a13,13,0,0,0,1.76-.21,12.7,12.7,0,0,0,1.73-.38c.12,0,.7-.16.68-.34l-.45-6.12c0-.15-.8-.09-.76-.09a17.19,17.19,0,0,0-3.49.58c-.12,0-.7.17-.68.34Z" transform="translate(-41.44 -47.46)"/><path class="cls-48" d="M519.34,419.63l.45,2.32a8,8,0,0,0,.47,1.43,12.67,12.67,0,0,0,.88,1.72l.28.42a2,2,0,0,0,.45.5l.14,0a.43.43,0,0,0,0-.4l-.45-2.32a7.29,7.29,0,0,0-.48-1.43,11,11,0,0,0-.87-1.71l-.28-.43a2,2,0,0,0-.45-.5l-.14,0a.41.41,0,0,0,0,.4Z" transform="translate(-41.44 -47.46)"/><path class="cls-48" d="M518.72,422.32h0l-.58.21.12,0-.66.1h-.53l.15,0-.61-.12.15,0-.52-.21.18.1-.41-.3a1.37,1.37,0,0,1,.17.17l-.28-.37a.81.81,0,0,1,.1.18,1.29,1.29,0,0,0,.49.52,1.85,1.85,0,0,0,.73.36,2.51,2.51,0,0,0,.94.12,2.79,2.79,0,0,0,1-.1l.58-.2a2.37,2.37,0,0,0,.86-.64l.22-.4a1.07,1.07,0,0,0-.06-.86,1.09,1.09,0,0,0-.08-.15,2.86,2.86,0,0,0-.38-.48,2.78,2.78,0,0,0-.53-.39.55.55,0,0,0-.15-.08,3.74,3.74,0,0,0-.67-.27,4.46,4.46,0,0,0-.76-.13c-.21,0-.48,0-.69,0h-.12a5.72,5.72,0,0,0-.73.12,4.32,4.32,0,0,0-.66.23,1.71,1.71,0,0,0-.67.46,1.21,1.21,0,0,0-.41.58.83.83,0,0,0,0,.64.93.93,0,0,0,.33.58l.42.3a3.14,3.14,0,0,0,1.13.33h.66a3.59,3.59,0,0,0,1.25-.31Z" transform="translate(-41.44 -47.46)"/><path class="cls-48" d="M517.2,422.28a12.92,12.92,0,0,0,0,2.78,13.63,13.63,0,0,0,.67,2.75,3.67,3.67,0,0,0,1.09,1.6,2.51,2.51,0,0,0,1.58.63,1.4,1.4,0,0,0,1.23-.68,2.06,2.06,0,0,0,.1-1.56,9.65,9.65,0,0,1-.51-1.82l.1.57a10.46,10.46,0,0,1-.15-2.37l0,.53c0-.08,0-.16,0-.24a1.75,1.75,0,0,0,0-.82,2.19,2.19,0,0,0-.29-.86,3.41,3.41,0,0,0-1.36-1.38,2,2,0,0,0-1.56-.2,1.35,1.35,0,0,0-.91,1.07Z" transform="translate(-41.44 -47.46)"/><path class="cls-48" d="M520.5,435.33a13.94,13.94,0,0,0,1.44,2.66,1.12,1.12,0,0,0,.46.2,2.88,2.88,0,0,0,.71.14,8.22,8.22,0,0,0,1.92,0l.6-.09a3.33,3.33,0,0,0,.88-.27l.25-.16a.21.21,0,0,0,0-.34c-.2-.29-.39-.58-.56-.88l.09.17a14.25,14.25,0,0,1-.79-1.62.29.29,0,0,0-.22-.24,1.4,1.4,0,0,0-.53-.19,5.27,5.27,0,0,0-.81-.1,7.69,7.69,0,0,0-1,0,6.52,6.52,0,0,0-1.76.26l-.38.15a.46.46,0,0,0-.33.34Z" transform="translate(-41.44 -47.46)"/><path class="cls-48" d="M497,425.77a14.58,14.58,0,0,1-.09,2.47l.07-.54q-.06.45-.15.9a2.72,2.72,0,0,0,.2,1.71,2.37,2.37,0,0,0,.57.82,2.3,2.3,0,0,0,.73.62,2.05,2.05,0,0,0,1.58.25,1.49,1.49,0,0,0,1-1.06,15.54,15.54,0,0,0,.31-3.91,3.17,3.17,0,0,0-.62-1.74,2.39,2.39,0,0,0-.7-.68,2.06,2.06,0,0,0-.79-.41,1.67,1.67,0,0,0-1.49.19,1.71,1.71,0,0,0-.62,1.38Z" transform="translate(-41.44 -47.46)"/><path class="cls-48" d="M496.3,430.34a14.54,14.54,0,0,1-.09,2.47l.07-.54q-.06.47-.15.9a2.72,2.72,0,0,0,.2,1.71,2.52,2.52,0,0,0,.57.82,2.3,2.3,0,0,0,.73.62,2.06,2.06,0,0,0,1.58.26,1.48,1.48,0,0,0,1-1.06,15.16,15.16,0,0,0,.31-3.91,3.16,3.16,0,0,0-.61-1.75,2.56,2.56,0,0,0-.71-.68,2.06,2.06,0,0,0-.79-.41,1.55,1.55,0,0,0-2.11,1.57Z" transform="translate(-41.44 -47.46)"/><path class="cls-49" d="M512.77,514.71l5.9-.07a50.39,50.39,0,0,1,.13-5.86c.34-1.76.32-4.29.61-6.23s.51-3.87.86-6.25a104,104,0,0,0,.63-10.81c0-2-.36-7.6-2.37-7.6l-6.16.95c-.18,3.79-.43,4,.14,7.91.5,3.45-.07,9.09.2,12.35a65.56,65.56,0,0,1,.2,8C512.78,509,512.77,514.71,512.77,514.71Z" transform="translate(-41.44 -47.46)"/><path class="cls-49" d="M511,481.18s9.85,3,9.67.55c-.3-3.84-1.94-4.68-2.15-8.65a112.7,112.7,0,0,1,.17-13.14c.23-2.31.8-1.74,1.16-3.43a18.42,18.42,0,0,0-.53-8.61s-2.45-2.24-3.54-2.43A4,4,0,0,0,511,447.9Z" transform="translate(-41.44 -47.46)"/><path class="cls-49" d="M511.38,481.18s-9.27,2.75-9.27.29c0-3.72,1.54-4.42,1.74-8.39.2-3.75.72-9.06.11-13.24-.15-1-1.16-2-1.35-2.89a21.58,21.58,0,0,1,.44-9.05,4.52,4.52,0,0,1,3.74-2.23,4.59,4.59,0,0,1,4.59,2.23Z" transform="translate(-41.44 -47.46)"/><path class="cls-20" d="M517.9,472.93H504.33c-.23,0-.42.05-.42-.19l.09-2.08c0-.24.1-.32.33-.32H517.9c.23,0,.48-.23.48,0l.07,2.34C518.45,472.91,518.13,472.93,517.9,472.93Z" transform="translate(-41.44 -47.46)"/><rect class="cls-50" x="521.58" y="456.41" width="5.36" height="14.58" rx="2.68" transform="translate(-68.53 -14.9) rotate(-3.47)"/><rect class="cls-50" x="495.62" y="456.23" width="5.36" height="14.58" rx="2.68" transform="translate(926.21 908.88) rotate(-176.53)"/><rect class="cls-50" x="466.49" y="394.38" width="5.91" height="5.92" rx="2"/><path class="cls-50" d="M467.86,370.48h3a7.84,7.84,0,0,1,7.84,7.84v8.22a9.33,9.33,0,0,1-9.33,9.33h0a9.33,9.33,0,0,1-9.33-9.33v-8.22A7.84,7.84,0,0,1,467.86,370.48Z"/><path class="cls-51" d="M478.68,378.14h0a1.92,1.92,0,0,1,1.92,1.92v.56a1.28,1.28,0,0,1-1.28,1.28h-.64a0,0,0,0,1,0,0v-3.76A0,0,0,0,1,478.68,378.14Z"/><path class="cls-51" d="M499.54,425.6h.64a1.28,1.28,0,0,1,1.28,1.28v.56a1.92,1.92,0,0,1-1.92,1.92h0a0,0,0,0,1,0,0V425.6A0,0,0,0,1,499.54,425.6Z" transform="translate(959.55 807.49) rotate(-180)"/><path class="cls-49" d="M509.87,514.92l-5.89-.07a52.78,52.78,0,0,0-.13-5.86c-.34-1.76-.33-4.29-.61-6.23s-.51-3.87-.87-6.25c-.56-3.75-.63-12.82-.63-12.82A5.83,5.83,0,0,1,504,478.6l6.32.45c.18,3.79.42,4-.15,7.92-.5,3.45.08,9.09-.19,12.34a65.72,65.72,0,0,0-.2,8.06C509.87,509.22,509.87,514.92,509.87,514.92Z" transform="translate(-41.44 -47.46)"/><path class="cls-52" d="M510.61,447.76l.57,3.77s1.55.05,4.34.32a8.91,8.91,0,0,1,5,2.09,17.73,17.73,0,0,0-.88-6.34s-2.65-2.24-3.83-2.44c-3.13-.52-1.7,2-5.11,1.91C510.35,447,510.61,447.76,510.61,447.76Z" transform="translate(-41.44 -47.46)"/><path class="cls-52" d="M511.11,447.61l.07,3.92-4.41,0c-1.11,0-4.9,2.45-4.9,2.45a18,18,0,0,1,.86-6.34s2.6-2.24,3.76-2.44c3.08-.52.43,1,4.22,1.9C510.53,447.31,511.11,447.61,511.11,447.61Z" transform="translate(-41.44 -47.46)"/><rect class="cls-50" x="497.44" y="448.56" width="5.36" height="11.26" rx="2.68" transform="translate(752.77 1014.95) rotate(-158.05)"/><rect class="cls-50" x="519.75" y="448.74" width="5.36" height="11.26" rx="2.68" transform="translate(-173.42 180.78) rotate(-21.95)"/><path class="cls-52" d="M519.19,453.74l5.07-1.86L522.35,447a2.19,2.19,0,0,0-2.8-1.23l-1,.37a2.09,2.09,0,0,0-1.26,2.72Z" transform="translate(-41.44 -47.46)"/><path class="cls-52" d="M503.37,453.56l-5.07-1.86,1.9-4.87A2.21,2.21,0,0,1,503,445.6l1,.37a2.11,2.11,0,0,1,1.26,2.72Z" transform="translate(-41.44 -47.46)"/><rect class="cls-49" x="473.04" y="397.61" width="2.11" height="5.3" rx="1.06"/><rect class="cls-49" x="464.18" y="397.61" width="2.11" height="5.3" rx="1.06"/><ellipse class="cls-20" cx="474.09" cy="403.43" rx="1.13" ry="1.37"/><ellipse class="cls-20" cx="465.23" cy="403.43" rx="1.13" ry="1.37"/><rect class="cls-53" x="464.88" y="409.58" width="9.58" height="5.28" rx="2.64"/><path class="cls-53" d="M466.78,409.58h5.78a1.9,1.9,0,0,1,1.9,1.9v0a0,0,0,0,1,0,0h-9.58a0,0,0,0,1,0,0v0A1.9,1.9,0,0,1,466.78,409.58Z"/><rect class="cls-54" x="503.57" y="506.18" width="6.4" height="11.61" rx="3" transform="translate(-74.87 -12.05) rotate(-3.87)"/><rect class="cls-55" x="460.84" y="458.15" width="8.25" height="1.83" rx="0.91"/><path class="cls-54" d="M504.49,523.14l-10,0c0-1.08.31-4.23,2.89-4.4,3.31-.21,7.07-1.6,6.62-3.16-1.19-4.14,1.48-2,4.29-1.27,3.45.91.92,2.81,2.68,5.31.57.81.4,2.45.41,3.46l-3.23,0-.07-1.2Z" transform="translate(-41.44 -47.46)"/><polygon class="cls-56" points="469.95 475.71 466.68 475.71 466.64 474.48 469.95 474.48 469.95 475.71"/><polygon class="cls-56" points="462.97 475.71 453.05 475.71 453.1 474.87 466.64 474.48 462.97 475.71"/><rect class="cls-54" x="512.37" y="506.18" width="6.4" height="11.61" rx="3" transform="translate(953.93 1010.17) rotate(-176.13)"/><rect class="cls-55" x="511.82" y="505.61" width="8.25" height="1.83" rx="0.91" transform="translate(990.44 965.6) rotate(-180)"/><path class="cls-54" d="M517.85,523.14l10,0c0-1.08-.3-4.23-2.89-4.4-3.31-.21-7.06-1.6-6.61-3.16,1.18-4.14-1.48-2-4.3-1.27-3.44.91-.91,2.81-2.68,5.31-.56.81-.39,2.45-.4,3.46l3.22,0,.07-1.2Z" transform="translate(-41.44 -47.46)"/><polygon class="cls-56" points="469.51 475.71 472.78 475.71 472.82 474.48 469.51 474.48 469.51 475.71"/><polygon class="cls-56" points="476.49 475.71 486.41 475.71 486.36 474.87 472.82 474.48 476.49 475.71"/><path class="cls-57" d="M520.77,422.24a8.28,8.28,0,0,0-8.27-7.86h-3.17a8.3,8.3,0,0,0-8.28,7.86Z" transform="translate(-41.44 -47.46)"/><rect class="cls-57" x="457.49" y="373.32" width="23.53" height="3.15" rx="1.57"/><circle class="cls-50" cx="482.96" cy="422.36" r="3.46"/><circle class="cls-50" cx="456.34" cy="422.27" r="3.46"/><path class="cls-20" d="M506.83,429.65a.85.85,0,0,0,0-1.7.85.85,0,0,0,0,1.7Z" transform="translate(-41.44 -47.46)"/><path class="cls-20" d="M513.47,426.33a4.41,4.41,0,0,0,1,0l.53-.07.38-.05a5.09,5.09,0,0,1,.78,0s0,0,0,0l.1,0,.19.05s.18.08.09,0a1.18,1.18,0,0,1,.19.11.57.57,0,0,0,.78-.21.58.58,0,0,0-.21-.77,2.84,2.84,0,0,0-1.74-.36l-.89.11-.44,0h-.41a.58.58,0,0,0-.7.39.58.58,0,0,0,.4.7Z" transform="translate(-41.44 -47.46)"/><path class="cls-20" d="M508.3,425.21a19.91,19.91,0,0,0-2.32-.32,2.7,2.7,0,0,0-2,.69.57.57,0,1,0,.81.81l.1-.1.15-.09.1-.06s0,0,0,0l.2-.07.17,0c.07,0,.08,0,0,0h.59c.61.05,1.25.18,1.88.28a.6.6,0,0,0,.7-.4.58.58,0,0,0-.4-.7Z" transform="translate(-41.44 -47.46)"/><rect class="cls-51" x="468.9" y="383.13" width="1.69" height="3.3" rx="0.84"/><path class="cls-20" d="M509.14,438.74c1.29-.07,2.58-.21,3.85-.4a4.47,4.47,0,0,0,1.76-.51,3.87,3.87,0,0,0,1.13-1.25.57.57,0,0,0-1-.57,2.27,2.27,0,0,1-.9.94,5.72,5.72,0,0,1-1.54.33c-1.1.16-2.21.26-3.32.32-.73,0-.73,1.18,0,1.14Z" transform="translate(-41.44 -47.46)"/><rect class="cls-58" x="499.9" y="414.71" width="4.27" height="15.95"/><path class="cls-58" d="M545.84,455.56V461a.53.53,0,0,1-.52.53h-3.46a.53.53,0,0,1-.52-.53v-5.49a5.06,5.06,0,0,0-3.29,4.64,5.43,5.43,0,0,0,10.84,0A5,5,0,0,0,545.84,455.56Z" transform="translate(-41.44 -47.46)"/><circle class="cls-59" cx="502.08" cy="433.3" r="3.07"/><rect class="cls-20" x="500.77" y="417.54" width="0.71" height="11.07" rx="0.36"/><rect class="cls-20" x="502.63" y="417.54" width="0.71" height="11.07" rx="0.36"/><rect class="cls-49" x="515.2" y="411.72" width="3.1" height="26.31"/><path class="cls-60" d="M515.2,435.21h3.1a0,0,0,0,1,0,0v2.66a1,1,0,0,1-1,1h-1.1a1,1,0,0,1-1-1v-2.66a0,0,0,0,1,0,0Z"/><rect class="cls-61" x="515.2" y="434.83" width="3.1" height="1.48"/><polygon class="cls-62" points="516.74 406.21 518.29 411.72 515.2 411.72 516.74 406.21"/><polygon class="cls-20" points="517.45 408.74 516.74 406.21 516.03 408.74 517.45 408.74"/><ellipse class="cls-47" cx="532.92" cy="427.02" rx="10.13" ry="10.58"/><ellipse class="cls-63" cx="532.92" cy="427.02" rx="7.26" ry="7.58"/><path class="cls-64" d="M555.62,436.51h0a.63.63,0,0,1,.63.63v1.16a.63.63,0,0,1-.63.63h0a0,0,0,0,1,0,0v-2.43A0,0,0,0,1,555.62,436.51Z"/><path class="cls-20" d="M515.25,430.14a.85.85,0,0,0,0-1.7.85.85,0,0,0,0,1.7Z" transform="translate(-41.44 -47.46)"/></svg>