<svg id="Layer_1" data-name="Layer 1" xmlns="http://www.w3.org/2000/svg" viewBox="0 0 818.44 545.8"><defs><style>.cls-1{fill:#58785a;}.cls-2{fill:#cacbce;}.cls-3{fill:#94dddb;stroke-width:3px;}.cls-12,.cls-3{stroke:#231f20;}.cls-12,.cls-24,.cls-26,.cls-3,.cls-34{stroke-miterlimit:10;}.cls-4{fill:#6b9692;}.cls-5{fill:#525f4f;}.cls-6{fill:#7fa37f;}.cls-7{fill:#a6c5a2;}.cls-8{fill:#65815e;}.cls-9{fill:#f0ece6;}.cls-10{fill:#ffeeec;}.cls-11{fill:#fff;}.cls-12,.cls-34{fill:none;}.cls-12{stroke-width:6px;}.cls-13{fill:#4c5965;}.cls-14{fill:#ffe3b2;}.cls-15{fill:#4c3512;}.cls-16{fill:#bfa981;}.cls-17{fill:#050505;}.cls-18{fill:#8ab7ce;}.cls-19{fill:#a47140;}.cls-20{fill:#231f20;}.cls-21{fill:#484c44;}.cls-22{fill:#4a4d52;}.cls-23{fill:#4f565b;}.cls-24,.cls-26{fill:#c59c1d;stroke:#030202;}.cls-24{stroke-width:2px;}.cls-25{fill:#4a7082;}.cls-26{stroke-width:0.75px;}.cls-27{fill:#8a181b;}.cls-28{fill:#3f3f1d;}.cls-29{fill:#3f3d17;}.cls-30{fill:#3f3e1b;}.cls-31{fill:#9c8048;}.cls-32{fill:#e1c034;}.cls-33{fill:#54c8ee;}.cls-34{stroke:#837642;stroke-width:4px;}.cls-35{fill:#837642;}.cls-36{fill:#185d2f;}.cls-37{fill:#a02221;}.cls-38{fill:#262469;}.cls-39{fill:#ce2027;}.cls-40{fill:#ce2028;}.cls-41{fill:#43449b;}.cls-42{fill:#006838;}.cls-43{fill:#43469c;}.cls-44{fill:#ce2029;}.cls-45{opacity:0.68;}.cls-46{fill:#0071bc;}</style></defs><title>instructions3</title><rect class="cls-1" x="0.44" width="818" height="545" rx="12"/><rect class="cls-2" x="53.44" y="67" width="163.97" height="127.83" rx="12"/><polygon class="cls-3" points="155.36 84.46 183.94 113.05 183.94 153.47 155.36 182.06 114.93 182.06 86.35 153.47 86.35 113.05 114.93 84.46 155.36 84.46"/><polygon class="cls-4" points="140.16 110.74 170.21 165.89 105.86 171.87 140.16 110.74"/><polygon class="cls-5" points="160.48 122.39 180.32 157.16 163.31 174.17 155.96 181.98 126.23 181.98 160.48 122.39"/><polygon class="cls-6" points="118.24 95.67 157.8 179.68 155.5 181.98 138.96 181.98 115.05 181.98 89.78 156.7 118.24 95.67"/><polygon class="cls-7" points="118.24 181.98 142.17 181.98 155.96 181.98 158.26 179.68 118.24 95.67 118.24 95.67 118.27 178.3 118.24 181.98"/><polygon class="cls-8" points="160.56 177.38 180.32 157.16 160.56 122.39 160.56 122.39 160.56 177.38"/><polygon class="cls-9" points="118.24 95.36 136.2 133.26 130.57 130.6 126.29 133.34 120.98 126.5 118.24 133.34 110.7 126.5 109.33 133.34 105.22 129.92 100.43 133.34 118.24 95.36"/><polygon class="cls-10" points="160.56 122.23 170.67 140.15 166.65 138.14 164.54 140.19 160.48 137.46 156.66 140.19 155 136.77 150.21 140.19 160.56 122.23"/><polygon class="cls-11" points="118.24 95.36 118.24 133.34 120.98 126.5 126.29 133.34 130.57 130.6 136.2 133.26 118.24 95.36"/><polygon class="cls-11" points="160.56 122.23 160.48 137.46 164.54 140.19 166.65 138.14 170.67 140.15 160.56 122.23"/><polygon class="cls-12" points="155.36 84.46 183.94 113.05 183.94 153.47 155.36 182.06 114.93 182.06 86.35 153.47 86.35 113.05 114.93 84.46 155.36 84.46"/><rect class="cls-2" x="236.69" y="67.17" width="163.97" height="127.83" rx="12"/><polygon class="cls-3" points="338.61 84.63 367.19 113.22 367.19 153.64 338.61 182.23 298.18 182.23 269.59 153.64 269.59 113.22 298.18 84.63 338.61 84.63"/><polygon class="cls-4" points="323.41 110.91 353.46 166.06 289.11 172.04 323.41 110.91"/><polygon class="cls-5" points="343.73 122.56 363.57 157.33 346.56 174.34 339.21 182.15 309.48 182.15 343.73 122.56"/><polygon class="cls-6" points="301.49 95.84 341.05 179.85 338.75 182.15 322.2 182.15 298.3 182.15 273.02 156.87 301.49 95.84"/><polygon class="cls-7" points="301.49 182.15 325.42 182.15 339.21 182.15 341.51 179.85 301.49 95.84 301.49 95.84 301.52 178.47 301.49 182.15"/><polygon class="cls-8" points="343.81 177.56 363.57 157.33 343.81 122.56 343.81 122.56 343.81 177.56"/><polygon class="cls-9" points="301.49 95.53 319.44 133.43 313.82 130.78 309.54 133.52 304.23 126.67 301.49 133.52 293.95 126.67 292.58 133.52 288.47 130.09 283.68 133.52 301.49 95.53"/><polygon class="cls-10" points="343.81 122.4 353.92 140.32 349.89 138.31 347.78 140.37 343.73 137.63 339.91 140.37 338.25 136.94 333.46 140.37 343.81 122.4"/><polygon class="cls-11" points="301.49 95.53 301.49 133.52 304.23 126.67 309.54 133.52 313.82 130.78 319.44 133.43 301.49 95.53"/><polygon class="cls-11" points="343.81 122.4 343.73 137.63 347.78 140.37 349.89 138.31 353.92 140.32 343.81 122.4"/><polygon class="cls-12" points="338.61 84.63 367.19 113.22 367.19 153.64 338.61 182.23 298.18 182.23 269.59 153.64 269.59 113.22 298.18 84.63 338.61 84.63"/><rect class="cls-2" x="419.64" y="67.17" width="163.97" height="127.83" rx="12"/><polygon class="cls-3" points="521.56 84.63 550.15 113.22 550.15 153.64 521.56 182.23 481.13 182.23 452.55 153.64 452.55 113.22 481.13 84.63 521.56 84.63"/><polygon class="cls-4" points="506.36 110.91 536.41 166.06 472.06 172.04 506.36 110.91"/><polygon class="cls-5" points="526.68 122.56 546.52 157.33 529.52 174.34 522.16 182.15 492.44 182.15 526.68 122.56"/><polygon class="cls-6" points="484.44 95.84 524 179.85 521.7 182.15 505.16 182.15 481.26 182.15 455.98 156.87 484.44 95.84"/><polygon class="cls-7" points="484.44 182.15 508.37 182.15 522.16 182.15 524.46 179.85 484.44 95.84 484.44 95.84 484.47 178.47 484.44 182.15"/><polygon class="cls-8" points="526.76 177.56 546.52 157.33 526.76 122.56 526.76 122.56 526.76 177.56"/><polygon class="cls-9" points="484.44 95.53 502.4 133.43 496.77 130.78 492.49 133.52 487.18 126.67 484.44 133.52 476.91 126.67 475.54 133.52 471.43 130.09 466.63 133.52 484.44 95.53"/><polygon class="cls-10" points="526.76 122.4 536.87 140.32 532.85 138.31 530.74 140.37 526.68 137.63 522.86 140.37 521.21 136.94 516.41 140.37 526.76 122.4"/><polygon class="cls-11" points="484.44 95.53 484.44 133.52 487.18 126.67 492.49 133.52 496.77 130.78 502.4 133.43 484.44 95.53"/><polygon class="cls-11" points="526.76 122.4 526.68 137.63 530.74 140.37 532.85 138.31 536.87 140.32 526.76 122.4"/><polygon class="cls-12" points="521.56 84.63 550.15 113.22 550.15 153.64 521.56 182.23 481.13 182.23 452.55 153.64 452.55 113.22 481.13 84.63 521.56 84.63"/><rect class="cls-2" x="602.8" y="67.35" width="163.97" height="127.83" rx="12"/><rect class="cls-2" x="53.12" y="210.17" width="163.97" height="127.83" rx="12"/><polygon class="cls-3" points="155.04 227.63 183.62 256.22 183.62 296.65 155.04 325.23 114.61 325.23 86.02 296.65 86.02 256.22 114.61 227.63 155.04 227.63"/><polygon class="cls-4" points="139.84 253.91 169.89 309.07 105.54 315.04 139.84 253.91"/><polygon class="cls-5" points="160.16 265.56 180 300.33 162.99 317.34 155.64 325.15 125.91 325.15 160.16 265.56"/><polygon class="cls-6" points="117.92 238.84 157.48 322.85 155.18 325.15 138.63 325.15 114.73 325.15 89.45 299.87 117.92 238.84"/><polygon class="cls-7" points="117.92 325.15 141.85 325.15 155.64 325.15 157.94 322.85 117.92 238.84 117.92 238.84 117.95 321.48 117.92 325.15"/><polygon class="cls-8" points="160.24 320.56 180 300.33 160.24 265.56 160.24 265.56 160.24 320.56"/><polygon class="cls-9" points="117.92 238.54 135.88 276.43 130.25 273.78 125.97 276.52 120.66 269.67 117.92 276.52 110.38 269.67 109.01 276.52 104.9 273.09 100.11 276.52 117.92 238.54"/><polygon class="cls-10" points="160.24 265.4 170.35 283.33 166.33 281.31 164.21 283.37 160.16 280.63 156.34 283.37 154.68 279.94 149.89 283.37 160.24 265.4"/><polygon class="cls-11" points="117.92 238.54 117.92 276.52 120.66 269.67 125.97 276.52 130.25 273.78 135.88 276.43 117.92 238.54"/><polygon class="cls-11" points="160.24 265.4 160.16 280.63 164.21 283.37 166.33 281.31 170.35 283.33 160.24 265.4"/><polygon class="cls-12" points="155.04 227.63 183.62 256.22 183.62 296.65 155.04 325.23 114.61 325.23 86.02 296.65 86.02 256.22 114.61 227.63 155.04 227.63"/><rect class="cls-2" x="419.32" y="210.34" width="163.97" height="127.83" rx="12"/><polygon class="cls-3" points="521.24 227.8 549.83 256.39 549.83 296.82 521.24 325.4 480.81 325.4 452.23 296.82 452.23 256.39 480.81 227.8 521.24 227.8"/><polygon class="cls-4" points="506.04 254.09 536.09 309.24 471.74 315.21 506.04 254.09"/><polygon class="cls-5" points="526.36 265.73 546.2 300.5 529.2 317.51 521.84 325.32 492.11 325.32 526.36 265.73"/><polygon class="cls-6" points="484.12 239.01 523.68 323.03 521.38 325.32 504.83 325.32 480.93 325.32 455.65 300.05 484.12 239.01"/><polygon class="cls-7" points="484.12 325.32 508.05 325.32 521.84 325.32 524.14 323.03 484.12 239.01 484.12 239.02 484.15 321.65 484.12 325.32"/><polygon class="cls-8" points="526.44 320.73 546.2 300.5 526.44 265.73 526.44 265.73 526.44 320.73"/><polygon class="cls-9" points="484.12 238.71 502.08 276.6 496.45 273.95 492.17 276.69 486.86 269.84 484.12 276.69 476.58 269.84 475.21 276.69 471.1 273.26 466.31 276.69 484.12 238.71"/><polygon class="cls-10" points="526.44 265.57 536.55 283.5 532.53 281.49 530.41 283.54 526.36 280.8 522.54 283.54 520.88 280.12 516.09 283.54 526.44 265.57"/><polygon class="cls-11" points="484.12 238.71 484.12 276.69 486.86 269.84 492.17 276.69 496.45 273.95 502.08 276.6 484.12 238.71"/><polygon class="cls-11" points="526.44 265.57 526.36 280.8 530.41 283.54 532.53 281.49 536.55 283.5 526.44 265.57"/><polygon class="cls-12" points="521.24 227.8 549.83 256.39 549.83 296.82 521.24 325.4 480.81 325.4 452.23 296.82 452.23 256.39 480.81 227.8 521.24 227.8"/><rect class="cls-2" x="602.47" y="210.52" width="163.97" height="127.83" rx="12"/><polygon class="cls-3" points="704.39 227.98 732.98 256.56 732.98 296.99 704.39 325.58 663.97 325.58 635.38 296.99 635.38 256.56 663.97 227.98 704.39 227.98"/><polygon class="cls-4" points="689.19 254.26 719.24 309.41 654.89 315.39 689.19 254.26"/><polygon class="cls-5" points="709.52 265.9 729.36 300.68 712.35 317.69 705 325.5 675.27 325.5 709.52 265.9"/><polygon class="cls-6" points="667.27 239.19 706.83 323.2 704.53 325.5 687.99 325.5 664.09 325.5 638.81 300.22 667.27 239.19"/><polygon class="cls-7" points="667.27 325.5 691.21 325.5 705 325.5 707.29 323.2 667.27 239.19 667.27 239.19 667.3 321.82 667.27 325.5"/><polygon class="cls-8" points="709.59 320.9 729.36 300.68 709.59 265.9 709.59 265.9 709.59 320.9"/><polygon class="cls-9" points="667.27 238.88 685.23 276.78 679.6 274.12 675.32 276.86 670.01 270.01 667.27 276.86 659.74 270.01 658.37 276.86 654.26 273.44 649.46 276.86 667.27 238.88"/><polygon class="cls-10" points="709.59 265.75 719.7 283.67 715.68 281.66 713.57 283.71 709.52 280.97 705.69 283.71 704.04 280.29 699.24 283.71 709.59 265.75"/><polygon class="cls-11" points="667.27 238.88 667.27 276.86 670.01 270.01 675.32 276.86 679.6 274.12 685.23 276.78 667.27 238.88"/><polygon class="cls-11" points="709.59 265.75 709.52 280.97 713.57 283.71 715.68 281.66 719.7 283.67 709.59 265.75"/><polygon class="cls-12" points="704.39 227.98 732.98 256.56 732.98 296.99 704.39 325.58 663.97 325.58 635.38 296.99 635.38 256.56 663.97 227.98 704.39 227.98"/><rect class="cls-2" x="53.12" y="357.17" width="163.97" height="127.83" rx="12"/><polygon class="cls-3" points="155.04 374.63 183.62 403.22 183.62 443.65 155.04 472.23 114.61 472.23 86.02 443.65 86.02 403.22 114.61 374.63 155.04 374.63"/><polygon class="cls-4" points="139.84 400.91 169.89 456.07 105.54 462.04 139.84 400.91"/><polygon class="cls-5" points="160.16 412.56 180 447.33 162.99 464.34 155.64 472.15 125.91 472.15 160.16 412.56"/><polygon class="cls-6" points="117.92 385.84 157.48 469.85 155.18 472.15 138.63 472.15 114.73 472.15 89.45 446.87 117.92 385.84"/><polygon class="cls-7" points="117.92 472.15 141.85 472.15 155.64 472.15 157.94 469.85 117.92 385.84 117.92 385.85 117.95 468.48 117.92 472.15"/><polygon class="cls-8" points="160.24 467.56 180 447.33 160.24 412.56 160.24 412.56 160.24 467.56"/><polygon class="cls-9" points="117.92 385.54 135.88 423.43 130.25 420.78 125.97 423.52 120.66 416.67 117.92 423.52 110.38 416.67 109.01 423.52 104.9 420.09 100.11 423.52 117.92 385.54"/><polygon class="cls-10" points="160.24 412.4 170.35 430.33 166.33 428.31 164.21 430.37 160.16 427.63 156.34 430.37 154.68 426.94 149.89 430.37 160.24 412.4"/><polygon class="cls-11" points="117.92 385.54 117.92 423.52 120.66 416.67 125.97 423.52 130.25 420.78 135.88 423.43 117.92 385.54"/><polygon class="cls-11" points="160.24 412.4 160.16 427.63 164.21 430.37 166.33 428.31 170.35 430.33 160.24 412.4"/><polygon class="cls-12" points="155.04 374.63 183.62 403.22 183.62 443.65 155.04 472.23 114.61 472.23 86.02 443.65 86.02 403.22 114.61 374.63 155.04 374.63"/><rect class="cls-2" x="236.37" y="357.34" width="163.97" height="127.83" rx="12"/><polygon class="cls-3" points="338.29 374.8 366.87 403.39 366.87 443.82 338.29 472.4 297.86 472.4 269.27 443.82 269.27 403.39 297.86 374.8 338.29 374.8"/><polygon class="cls-4" points="323.08 401.08 353.13 456.24 288.79 462.21 323.08 401.08"/><polygon class="cls-5" points="343.41 412.73 363.25 447.5 346.24 464.51 338.89 472.32 309.16 472.32 343.41 412.73"/><polygon class="cls-6" points="301.17 386.01 340.73 470.03 338.43 472.32 321.88 472.32 297.98 472.32 272.7 447.05 301.17 386.01"/><polygon class="cls-7" points="301.16 472.32 325.1 472.32 338.89 472.32 341.19 470.03 301.17 386.01 301.16 386.02 301.2 468.65 301.16 472.32"/><polygon class="cls-8" points="343.48 467.73 363.25 447.5 343.48 412.73 343.48 412.73 343.48 467.73"/><polygon class="cls-9" points="301.16 385.71 319.12 423.6 313.49 420.95 309.21 423.69 303.9 416.84 301.16 423.69 293.63 416.84 292.26 423.69 288.15 420.26 283.35 423.69 301.16 385.71"/><polygon class="cls-10" points="343.48 412.57 353.6 430.5 349.57 428.49 347.46 430.54 343.41 427.8 339.58 430.54 337.93 427.12 333.13 430.54 343.48 412.57"/><polygon class="cls-11" points="301.16 385.71 301.16 423.69 303.9 416.84 309.21 423.69 313.49 420.95 319.12 423.6 301.16 385.71"/><polygon class="cls-11" points="343.48 412.57 343.41 427.8 347.46 430.54 349.57 428.49 353.6 430.5 343.48 412.57"/><polygon class="cls-12" points="338.29 374.8 366.87 403.39 366.87 443.82 338.29 472.4 297.86 472.4 269.27 443.82 269.27 403.39 297.86 374.8 338.29 374.8"/><rect class="cls-2" x="602.47" y="357.52" width="163.97" height="127.83" rx="12"/><polygon class="cls-3" points="704.39 374.98 732.98 403.56 732.98 443.99 704.39 472.58 663.97 472.58 635.38 443.99 635.38 403.56 663.97 374.98 704.39 374.98"/><polygon class="cls-4" points="689.19 401.26 719.24 456.41 654.89 462.39 689.19 401.26"/><polygon class="cls-5" points="709.52 412.9 729.36 447.68 712.35 464.69 705 472.5 675.27 472.5 709.52 412.9"/><polygon class="cls-6" points="667.27 386.19 706.83 470.2 704.53 472.5 687.99 472.5 664.09 472.5 638.81 447.22 667.27 386.19"/><polygon class="cls-7" points="667.27 472.5 691.21 472.5 705 472.5 707.29 470.2 667.27 386.19 667.27 386.19 667.3 468.82 667.27 472.5"/><polygon class="cls-8" points="709.59 467.9 729.36 447.68 709.59 412.9 709.59 412.9 709.59 467.9"/><polygon class="cls-9" points="667.27 385.88 685.23 423.78 679.6 421.12 675.32 423.86 670.01 417.01 667.27 423.86 659.74 417.01 658.37 423.86 654.26 420.44 649.46 423.86 667.27 385.88"/><polygon class="cls-10" points="709.59 412.75 719.7 430.67 715.68 428.66 713.57 430.71 709.52 427.97 705.69 430.71 704.04 427.29 699.24 430.71 709.59 412.75"/><polygon class="cls-11" points="667.27 385.88 667.27 423.86 670.01 417.01 675.32 423.86 679.6 421.12 685.23 423.78 667.27 385.88"/><polygon class="cls-11" points="709.59 412.75 709.52 427.97 713.57 430.71 715.68 428.66 719.7 430.67 709.59 412.75"/><polygon class="cls-12" points="704.39 374.98 732.98 403.56 732.98 443.99 704.39 472.58 663.97 472.58 635.38 443.99 635.38 403.56 663.97 374.98 704.39 374.98"/><polygon class="cls-11" points="718.54 234.83 701.36 246.76 684.64 172.78 748.13 214.28 730.95 226.21 761.31 269.92 748.9 278.54 718.54 234.83"/><path d="M730,227.18l54.11,35.37-11.4,7.92L768,273.7l3.23,4.66,27.12,39-7.75,5.39-27.12-39.05-3.24-4.66-4.65,3.24-11.4,7.91L730,227.18m-8.62-12.41,19.2,84.92L758.83,287l30.36,43.71,17.06-11.85L775.9,275.12l18.3-12.71-72.87-47.64Z" transform="translate(-41 -48.2)"/><rect class="cls-2" x="239.46" y="210.59" width="163.97" height="127.83" rx="12"/><path class="cls-13" d="M373,264.79h.25a.27.27,0,0,1,.27.27v1.75a0,0,0,0,1,0,0h-.78a0,0,0,0,1,0,0v-1.75a.27.27,0,0,1,.27-.27Z"/><path class="cls-13" d="M379.48,264.84h.25a.27.27,0,0,1,.27.27v1.75a0,0,0,0,1,0,0h-.78a0,0,0,0,1,0,0V265.1A.27.27,0,0,1,379.48,264.84Z"/><rect class="cls-14" x="284.4" y="250.57" width="10.29" height="10.81" rx="3.52"/><path class="cls-14" d="M341.91,281.26V297.5c0,5.43-4.88,9.82-10.89,9.82h-1.89c-6,0-10.88-4.39-10.88-9.82V281.26c0-4.49,4-8.12,9-8.12h5.68C337.88,273.14,341.91,276.77,341.91,281.26Z" transform="translate(-41 -48.2)"/><rect class="cls-15" x="281.35" y="234.49" width="6.15" height="1.99" rx="0.75"/><rect class="cls-15" x="291.05" y="234.49" width="6.15" height="1.99" rx="0.75"/><path class="cls-16" d="M276.21,238.73h1a0,0,0,0,1,0,0v3.69a0,0,0,0,1,0,0h-1a1.4,1.4,0,0,1-1.4-1.4v-.9a1.4,1.4,0,0,1,1.4-1.4Z"/><path class="cls-16" d="M300.91,238.73h1a1.4,1.4,0,0,1,1.4,1.4v.9a1.4,1.4,0,0,1-1.4,1.4h-1a0,0,0,0,1,0,0v-3.69A0,0,0,0,1,300.91,238.73Z"/><ellipse class="cls-17" cx="284.42" cy="237.88" rx="0.98" ry="0.88"/><ellipse class="cls-17" cx="294.43" cy="237.88" rx="0.98" ry="0.88"/><rect class="cls-16" x="288.3" y="240.16" width="2.44" height="3.78" rx="0.83"/><rect class="cls-18" x="276.29" y="260.19" width="26.51" height="29.21" rx="6.35"/><path class="cls-19" d="M291,320.57h12.41a7.54,7.54,0,0,1,7.54,7.54v2.43a0,0,0,0,1,0,0H291a0,0,0,0,1,0,0v-10A0,0,0,0,1,291,320.57Z"/><rect class="cls-19" x="290.96" y="328.87" width="19.95" height="1.67"/><rect class="cls-19" x="290.96" y="329.71" width="19.95" height="0.42"/><path class="cls-19" d="M344.07,369.5a2,2,0,0,1-.57,1.9,6.46,6.46,0,0,1-1.83,1.23" transform="translate(-41 -48.2)"/><path class="cls-20" d="M343.11,369.76a1.89,1.89,0,0,1,.05.23l0-.26a2,2,0,0,1,0,.42l0-.26a2.17,2.17,0,0,1-.13.5l.1-.23a3.08,3.08,0,0,1-.33.55l.15-.2a4.05,4.05,0,0,1-.59.58l.2-.16a9.28,9.28,0,0,1-1.39.83,1,1,0,0,0-.36,1.37,1,1,0,0,0,1.37.36,6.91,6.91,0,0,0,2.11-1.47,3,3,0,0,0,.75-2.79,1,1,0,0,0-1.93.53Z" transform="translate(-41 -48.2)"/><path class="cls-19" d="M347,370.2a2,2,0,0,1-.57,1.91,6.6,6.6,0,0,1-1.82,1.22" transform="translate(-41 -48.2)"/><path class="cls-20" d="M346.05,370.46c0,.08,0,.16.05.23l0-.26a1.48,1.48,0,0,1,0,.42l0-.26a3.23,3.23,0,0,1-.14.51l.1-.24a2.77,2.77,0,0,1-.33.55l.15-.2a3.6,3.6,0,0,1-.59.58l.2-.16a8.51,8.51,0,0,1-1.39.83,1,1,0,0,0-.36,1.37,1,1,0,0,0,1.37.36,6.91,6.91,0,0,0,2.11-1.47,3,3,0,0,0,.75-2.79,1,1,0,0,0-1.93.53Z" transform="translate(-41 -48.2)"/><path class="cls-19" d="M349,371.56a2,2,0,0,1-.58,1.91,6.6,6.6,0,0,1-1.82,1.22" transform="translate(-41 -48.2)"/><path class="cls-20" d="M348,371.82a2.1,2.1,0,0,1,.06.24l0-.27a1.55,1.55,0,0,1,0,.43l0-.27a1.84,1.84,0,0,1-.14.51l.1-.24a2.77,2.77,0,0,1-.33.55l.16-.2a3.3,3.3,0,0,1-.6.58l.21-.16a9,9,0,0,1-1.4.84,1,1,0,0,0-.35,1.36,1,1,0,0,0,1.36.36,6.79,6.79,0,0,0,2.11-1.47,3,3,0,0,0,.75-2.79,1,1,0,0,0-1.93.53Z" transform="translate(-41 -48.2)"/><path class="cls-21" d="M293.51,286.38h2.36a2.55,2.55,0,0,1,2.55,2.55v29.38a0,0,0,0,1,0,0H291a0,0,0,0,1,0,0V288.93A2.55,2.55,0,0,1,293.51,286.38Z"/><rect class="cls-22" x="290.96" y="312.67" width="7.46" height="6.39"/><path class="cls-19" d="M308.35,368.77h20a0,0,0,0,1,0,0v2.43a7.54,7.54,0,0,1-7.54,7.54H308.35a0,0,0,0,1,0,0v-10A0,0,0,0,1,308.35,368.77Z" transform="translate(595.66 699.31) rotate(180)"/><rect class="cls-19" x="308.35" y="377.07" width="19.95" height="1.67" transform="translate(595.66 707.61) rotate(-180)"/><rect class="cls-19" x="308.35" y="377.91" width="19.95" height="0.42" transform="translate(595.66 708.03) rotate(-180)"/><path class="cls-19" d="M316.19,369.5a2,2,0,0,0,.58,1.9,6.41,6.41,0,0,0,1.82,1.23" transform="translate(-41 -48.2)"/><path class="cls-20" d="M315.23,369.23A3,3,0,0,0,316,372a6.79,6.79,0,0,0,2.11,1.47,1,1,0,1,0,1-1.73,9.28,9.28,0,0,1-1.39-.83l.2.16a4.71,4.71,0,0,1-.6-.58l.16.2a3.08,3.08,0,0,1-.33-.55l.1.23a2.19,2.19,0,0,1-.14-.5l0,.26a1.48,1.48,0,0,1,0-.42l0,.26.06-.23a1,1,0,1,0-1.93-.53Z" transform="translate(-41 -48.2)"/><path class="cls-19" d="M313.25,370.2a2,2,0,0,0,.58,1.91,6.6,6.6,0,0,0,1.82,1.22" transform="translate(-41 -48.2)"/><path class="cls-20" d="M312.29,369.93a3,3,0,0,0,.75,2.79,6.79,6.79,0,0,0,2.11,1.47,1,1,0,1,0,1-1.73,8.6,8.6,0,0,1-1.4-.83l.21.16a4.11,4.11,0,0,1-.6-.58l.16.2a2.77,2.77,0,0,1-.33-.55l.1.24a2.42,2.42,0,0,1-.14-.51l0,.26a1.48,1.48,0,0,1,0-.42l0,.26c0-.07,0-.15.06-.23a1,1,0,0,0-1.93-.53Z" transform="translate(-41 -48.2)"/><path class="cls-19" d="M311.26,371.56a2,2,0,0,0,.57,1.91,6.8,6.8,0,0,0,1.83,1.22" transform="translate(-41 -48.2)"/><path class="cls-20" d="M310.3,371.29a3,3,0,0,0,.74,2.79,6.91,6.91,0,0,0,2.11,1.47,1,1,0,1,0,1-1.72,9.34,9.34,0,0,1-1.39-.84l.2.16a3.24,3.24,0,0,1-.59-.58l.15.2a2.33,2.33,0,0,1-.32-.55l.1.24a1.84,1.84,0,0,1-.14-.51l0,.27a2,2,0,0,1,0-.43l0,.27a2,2,0,0,1,.05-.24,1,1,0,0,0-.69-1.23,1,1,0,0,0-1.23.7Z" transform="translate(-41 -48.2)"/><path class="cls-21" d="M320.84,334.58h7.46a0,0,0,0,1,0,0v29.88a2.55,2.55,0,0,1-2.55,2.55h-2.36a2.55,2.55,0,0,1-2.55-2.55V334.58A0,0,0,0,1,320.84,334.58Z" transform="translate(608.15 653.39) rotate(-180)"/><rect class="cls-23" x="320.84" y="361.33" width="7.46" height="5.99" transform="translate(608.15 680.46) rotate(-180)"/><rect class="cls-20" x="275.76" y="286.08" width="26.5" height="3.32"/><ellipse class="cls-14" cx="305.45" cy="288.99" rx="4.44" ry="4.01"/><ellipse class="cls-14" cx="273.79" cy="289.34" rx="4.44" ry="4.01"/><polygon class="cls-14" points="289.39 263.17 284.4 260.05 294.69 260.05 289.39 263.17"/><path class="cls-21" d="M280.92,259.89h.92a1,1,0,0,1,1,1v6.34a0,0,0,0,1,0,0h-2.91a0,0,0,0,1,0,0v-6.34A1,1,0,0,1,280.92,259.89Z"/><path class="cls-21" d="M297.07,259.89h.88a1,1,0,0,1,1,1v6.39a0,0,0,0,1,0,0h-2.78a0,0,0,0,1,0,0v-6.39A1,1,0,0,1,297.07,259.89Z"/><path class="cls-21" d="M343.8,334.58H317.29V317.14c0-.94.9-.52,1.94-.52l1.7-1.19h2.91l1.14,1.19h8.94l3.2-1.19h2.78l2,1.19c1,0,1.89-.42,1.89.52Z" transform="translate(-41 -48.2)"/><rect class="cls-19" x="279.85" y="315.61" width="7.45" height="6.39"/><rect class="cls-19" x="290.97" y="315.61" width="7.45" height="6.39"/><rect class="cls-14" x="301.17" y="264.46" width="7.46" height="26.35" rx="2.55"/><rect class="cls-14" x="270.26" y="264.46" width="7.46" height="26.35" rx="2.55"/><rect class="cls-24" x="285.86" y="285.18" width="7.06" height="4.89" rx="1.85"/><path class="cls-18" d="M315.72,309.58h-1.45c-1.66,0-3,1.81-3,4V320h7.46V313.6C318.72,311.39,317.37,309.58,315.72,309.58Z" transform="translate(-41 -48.2)"/><path class="cls-18" d="M346.62,310.36h-1.45c-1.65,0-3,1.68-3,3.72V320h7.46v-5.93C349.63,312,348.27,310.36,346.62,310.36Z" transform="translate(-41 -48.2)"/><rect class="cls-25" x="320.05" y="362.77" width="9.04" height="3.12" rx="1.18" transform="translate(608.15 680.45) rotate(-180)"/><rect class="cls-25" x="290.17" y="314.57" width="9.04" height="3.12" rx="1.18"/><ellipse class="cls-26" cx="281.38" cy="269.2" rx="1.36" ry="1.23"/><ellipse class="cls-26" cx="297.51" cy="269.2" rx="1.36" ry="1.23"/><ellipse class="cls-27" cx="289.55" cy="249.68" rx="2.79" ry="1.48"/><ellipse class="cls-28" cx="289.55" cy="247.52" rx="4.44" ry="1.88"/><path class="cls-29" d="M330.55,295.51c.07,2.76-.54,5-1.36,5.09-.42,0-2.17-1.08-4-2-.9-.47-1.89-.91-2.49-1.21a2.64,2.64,0,0,0-.82-.24,1.93,1.93,0,0,0-.32,0,2.89,2.89,0,0,1,.66-1.24c.59-.67,1.27-1.43,2.09-2.22,1.59-1.57,3.58-3,4.13-3C329.52,290.54,330.47,292.75,330.55,295.51Z" transform="translate(-41 -48.2)"/><path class="cls-30" d="M339.56,297.13a3.31,3.31,0,0,0-1.59-.68,41,41,0,0,0-7.42-.94" transform="translate(-41 -48.2)"/><path class="cls-29" d="M330.55,295.51c.07-2.76,1-5,2.13-4.88.54,0,2.53,1.47,4.13,3,.81.79,1.49,1.55,2.09,2.22a3,3,0,0,1,.66,1.24,1.94,1.94,0,0,0-.32,0,2.77,2.77,0,0,0-.83.24c-.6.3-1.58.74-2.49,1.21-1.85.93-3.59,2-4,2C331.08,300.53,330.47,298.27,330.55,295.51Z" transform="translate(-41 -48.2)"/><path class="cls-31" d="M332.84,273.18h-5.67c-5,0-9,3.64-9,8.12V287h1.89v-.45c0-4.48,4-8.12,9-8.12h5.68a9.35,9.35,0,0,1,7.1,3.15v-.24C341.84,276.82,337.81,273.18,332.84,273.18Z" transform="translate(-41 -48.2)"/><rect class="cls-32" x="335.23" y="258.97" width="30.7" height="39.31" rx="6"/><rect class="cls-33" x="336.67" y="260.74" width="27.84" height="10.21" rx="3.86"/><ellipse class="cls-34" cx="350.58" cy="285.13" rx="8.85" ry="7.99"/><path class="cls-35" d="M397.22,340.07l-13.28-12a1,1,0,0,1,0-1.49h0a1.27,1.27,0,0,1,1.66,0l13.28,12a1,1,0,0,1,0,1.49h0A1.27,1.27,0,0,1,397.22,340.07Z" transform="translate(-41 -48.2)"/><rect class="cls-36" x="336.67" y="272.08" width="11.19" height="2.06" rx="0.78"/><rect class="cls-37" x="353.32" y="272.08" width="11.19" height="2.06" rx="0.78"/><ellipse class="cls-38" cx="350.41" cy="273.11" rx="1.14" ry="1.03"/><ellipse class="cls-39" cx="348.63" cy="295.87" rx="1.63" ry="1.47"/><ellipse class="cls-40" cx="362.31" cy="295.87" rx="1.63" ry="1.47"/><ellipse class="cls-41" cx="357.8" cy="295.87" rx="1.63" ry="1.47"/><ellipse class="cls-40" cx="353.32" cy="295.87" rx="1.63" ry="1.47"/><ellipse cx="348.63" cy="295.87" rx="0.89" ry="0.8"/><ellipse cx="353.32" cy="295.87" rx="0.89" ry="0.8"/><ellipse cx="357.8" cy="295.87" rx="0.89" ry="0.8"/><ellipse cx="362.31" cy="295.87" rx="0.89" ry="0.8"/><path class="cls-42" d="M401.93,344.05a5.84,5.84,0,0,0,.94,4.37,4.38,4.38,0,0,0,4.36,1.3c3.45-.76,5.17-4.83,6-7.88,1-3.67.91-7.38,1-11.15s2.7-7.43,1.35-11.24c-.64-1.81-3.54-1-2.89.79,1,2.77-.93,5.59-1.31,8.32s0,5.83-.32,8.73a18.11,18.11,0,0,1-2.37,7.65c-.58.95-1.65,2.19-2.93,1.89s-.92-1.87-.84-2.78c.18-1.92-2.82-1.91-3,0Z" transform="translate(-41 -48.2)"/><path class="cls-42" d="M397.27,344c0,3.36,1.17,7.76,4.86,8.61a24,24,0,0,0,11.37-.27,6.19,6.19,0,0,0,3.92-2.55,15.81,15.81,0,0,0,1.5-4.91c.88-3.95,1.93-7.9,2.63-11.89.76-4.33.47-8.92.55-13.31,0-1.93-3-1.93-3,0l-.11,6.43a41.16,41.16,0,0,1-.33,6.08c-.72,4.15-1.82,8.27-2.75,12.38-.31,1.41-.44,3.57-1.82,4.39-1.59.94-4,1.08-5.8,1.17a23.67,23.67,0,0,1-3.26-.08,8.74,8.74,0,0,1-2.74-.5c-1.69-.84-2-3.9-2-5.55,0-1.93-3-1.93-3,0Z" transform="translate(-41 -48.2)"/><rect class="cls-43" x="378.02" y="266.81" width="2.98" height="5.73"/><rect class="cls-44" x="371.63" y="266.81" width="2.98" height="5.73"/><rect class="cls-2" x="419.64" y="357.63" width="163.97" height="127.83" rx="12"/><polygon class="cls-3" points="521.56 375.09 550.14 403.68 550.14 444.11 521.56 472.69 481.13 472.69 452.54 444.11 452.54 403.68 481.13 375.09 521.56 375.09"/><polygon class="cls-4" points="506.36 401.37 536.41 456.53 472.06 462.5 506.36 401.37"/><polygon class="cls-5" points="526.68 413.02 546.52 447.79 529.51 464.8 522.16 472.61 492.43 472.61 526.68 413.02"/><polygon class="cls-6" points="484.44 386.3 524 470.31 521.7 472.61 505.15 472.61 481.25 472.61 455.97 447.33 484.44 386.3"/><polygon class="cls-7" points="484.44 472.61 508.37 472.61 522.16 472.61 524.46 470.31 484.44 386.3 484.44 386.31 484.47 468.94 484.44 472.61"/><polygon class="cls-8" points="526.75 468.02 546.52 447.79 526.76 413.02 526.75 413.02 526.75 468.02"/><polygon class="cls-9" points="484.44 386 502.39 423.89 496.77 421.24 492.49 423.98 487.18 417.13 484.44 423.98 476.9 417.13 475.53 423.98 471.42 420.55 466.63 423.98 484.44 386"/><polygon class="cls-10" points="526.75 412.86 536.87 430.79 532.85 428.77 530.73 430.83 526.68 428.09 522.86 430.83 521.2 427.4 516.41 430.83 526.75 412.86"/><polygon class="cls-11" points="484.44 386 484.44 423.98 487.18 417.13 492.49 423.98 496.77 421.24 502.39 423.89 484.44 386"/><polygon class="cls-11" points="526.75 412.86 526.68 428.09 530.73 430.83 532.85 428.77 536.87 430.79 526.75 412.86"/><polygon class="cls-12" points="521.56 375.09 550.14 403.68 550.14 444.11 521.56 472.69 481.13 472.69 452.54 444.11 452.54 403.68 481.13 375.09 521.56 375.09"/><path class="cls-13" d="M732.64,117.93h.25a.27.27,0,0,1,.27.27V120a0,0,0,0,1,0,0h-.78a0,0,0,0,1,0,0V118.2A.27.27,0,0,1,732.64,117.93Z"/><path class="cls-13" d="M739.12,118h.25a.27.27,0,0,1,.27.27V120a0,0,0,0,1,0,0h-.78a0,0,0,0,1,0,0v-1.75A.27.27,0,0,1,739.12,118Z"/><rect class="cls-14" x="644.04" y="103.72" width="10.29" height="10.81" rx="3.52"/><path class="cls-14" d="M701.55,134.4v16.24c0,5.43-4.88,9.82-10.89,9.82h-1.89c-6,0-10.88-4.39-10.88-9.82V134.4c0-4.49,4-8.12,9-8.12h5.68C697.52,126.28,701.55,129.91,701.55,134.4Z" transform="translate(-41 -48.2)"/><rect class="cls-15" x="640.99" y="87.63" width="6.15" height="1.99" rx="0.75"/><rect class="cls-15" x="650.69" y="87.63" width="6.15" height="1.99" rx="0.75"/><path class="cls-16" d="M635.85,91.87h1a0,0,0,0,1,0,0v3.69a0,0,0,0,1,0,0h-1a1.4,1.4,0,0,1-1.4-1.4v-.9A1.4,1.4,0,0,1,635.85,91.87Z"/><path class="cls-16" d="M660.55,91.87h1a1.4,1.4,0,0,1,1.4,1.4v.9a1.4,1.4,0,0,1-1.4,1.4h-1a0,0,0,0,1,0,0V91.87A0,0,0,0,1,660.55,91.87Z"/><ellipse class="cls-17" cx="644.06" cy="91.02" rx="0.98" ry="0.88"/><ellipse class="cls-17" cx="654.07" cy="91.02" rx="0.98" ry="0.88"/><rect class="cls-16" x="647.94" y="93.3" width="2.44" height="3.78" rx="0.83"/><rect class="cls-18" x="635.93" y="113.33" width="26.51" height="29.21" rx="6.35"/><path class="cls-19" d="M650.6,173.71H663a7.54,7.54,0,0,1,7.54,7.54v2.43a0,0,0,0,1,0,0h-20a0,0,0,0,1,0,0v-10A0,0,0,0,1,650.6,173.71Z"/><rect class="cls-19" x="650.6" y="182.01" width="19.95" height="1.67"/><rect class="cls-19" x="650.6" y="182.85" width="19.95" height="0.42"/><path class="cls-19" d="M703.71,222.64a2,2,0,0,1-.57,1.9,6.46,6.46,0,0,1-1.83,1.23" transform="translate(-41 -48.2)"/><path class="cls-20" d="M702.75,222.9a1.89,1.89,0,0,1,0,.23l0-.26a2,2,0,0,1,0,.42l0-.26a2.17,2.17,0,0,1-.13.5l.1-.23a3.08,3.08,0,0,1-.33.55l.15-.2a4.05,4.05,0,0,1-.59.58l.2-.16a9.28,9.28,0,0,1-1.39.83,1,1,0,0,0-.36,1.37,1,1,0,0,0,1.37.36,6.91,6.91,0,0,0,2.11-1.47,3,3,0,0,0,.75-2.79,1,1,0,1,0-1.93.53Z" transform="translate(-41 -48.2)"/><path class="cls-19" d="M706.65,223.34a2,2,0,0,1-.57,1.91,6.6,6.6,0,0,1-1.82,1.22" transform="translate(-41 -48.2)"/><path class="cls-20" d="M705.69,223.6a2,2,0,0,1,0,.24l0-.27a1.48,1.48,0,0,1,0,.42l0-.26a3.23,3.23,0,0,1-.14.51l.1-.24a2.77,2.77,0,0,1-.33.55l.15-.2a3.24,3.24,0,0,1-.59.58l.2-.16a8.51,8.51,0,0,1-1.39.83,1,1,0,0,0-.36,1.37,1,1,0,0,0,1.37.36,6.91,6.91,0,0,0,2.11-1.47,3,3,0,0,0,.75-2.79,1,1,0,1,0-1.93.53Z" transform="translate(-41 -48.2)"/><path class="cls-19" d="M708.65,224.7a2,2,0,0,1-.58,1.91,6.6,6.6,0,0,1-1.82,1.22" transform="translate(-41 -48.2)"/><path class="cls-20" d="M707.68,225a1.55,1.55,0,0,1,.06.23l0-.27a1.55,1.55,0,0,1,0,.43l0-.27a1.84,1.84,0,0,1-.14.51l.1-.24a2.77,2.77,0,0,1-.33.55l.16-.2a3.3,3.3,0,0,1-.6.58l.21-.16a9,9,0,0,1-1.4.84,1,1,0,0,0-.35,1.36,1,1,0,0,0,1.36.36,6.79,6.79,0,0,0,2.11-1.47,3,3,0,0,0,.75-2.79,1,1,0,0,0-1.93.54Z" transform="translate(-41 -48.2)"/><path class="cls-21" d="M653.15,139.52h2.36a2.55,2.55,0,0,1,2.55,2.55v29.38a0,0,0,0,1,0,0H650.6a0,0,0,0,1,0,0V142.07A2.55,2.55,0,0,1,653.15,139.52Z"/><rect class="cls-22" x="650.6" y="165.81" width="7.46" height="6.39"/><path class="cls-19" d="M668,221.91h20a0,0,0,0,1,0,0v2.43a7.54,7.54,0,0,1-7.54,7.54H668a0,0,0,0,1,0,0v-10A0,0,0,0,1,668,221.91Z" transform="translate(1314.94 405.59) rotate(180)"/><rect class="cls-19" x="667.99" y="230.21" width="19.95" height="1.67" transform="translate(1314.94 413.89) rotate(-180)"/><rect class="cls-19" x="667.99" y="231.05" width="19.95" height="0.42" transform="translate(1314.94 414.31) rotate(-180)"/><path class="cls-19" d="M675.83,222.64a2,2,0,0,0,.58,1.9,6.41,6.41,0,0,0,1.82,1.23" transform="translate(-41 -48.2)"/><path class="cls-20" d="M674.87,222.37a3,3,0,0,0,.75,2.79,6.79,6.79,0,0,0,2.11,1.47,1,1,0,1,0,1-1.73,9.28,9.28,0,0,1-1.39-.83l.2.16a4.71,4.71,0,0,1-.6-.58l.16.2a3.08,3.08,0,0,1-.33-.55l.1.23a2.19,2.19,0,0,1-.14-.5l0,.26a1.48,1.48,0,0,1,0-.42l0,.26.06-.23a1,1,0,0,0-1.93-.53Z" transform="translate(-41 -48.2)"/><path class="cls-19" d="M672.89,223.34a2,2,0,0,0,.58,1.91,6.6,6.6,0,0,0,1.82,1.22" transform="translate(-41 -48.2)"/><path class="cls-20" d="M671.93,223.07a3,3,0,0,0,.75,2.79,6.79,6.79,0,0,0,2.11,1.47,1,1,0,1,0,1-1.73,8.6,8.6,0,0,1-1.4-.83l.21.16a3.65,3.65,0,0,1-.6-.58l.16.2a2.77,2.77,0,0,1-.33-.55l.1.24a2.42,2.42,0,0,1-.14-.51l0,.26a1.48,1.48,0,0,1,0-.42l0,.27a2.1,2.1,0,0,1,.06-.24,1,1,0,0,0-.7-1.23,1,1,0,0,0-1.23.7Z" transform="translate(-41 -48.2)"/><path class="cls-19" d="M670.9,224.7a2,2,0,0,0,.57,1.91,6.8,6.8,0,0,0,1.83,1.22" transform="translate(-41 -48.2)"/><path class="cls-20" d="M669.94,224.43a3,3,0,0,0,.74,2.79,6.91,6.91,0,0,0,2.11,1.47,1,1,0,1,0,1-1.72,9.34,9.34,0,0,1-1.39-.84l.2.16a3.24,3.24,0,0,1-.59-.58l.15.2a2.33,2.33,0,0,1-.32-.55l.1.24a1.84,1.84,0,0,1-.14-.51l0,.27a2,2,0,0,1,0-.43l0,.27a1.55,1.55,0,0,1,.05-.23,1,1,0,1,0-1.92-.54Z" transform="translate(-41 -48.2)"/><path class="cls-21" d="M680.48,187.72h7.46a0,0,0,0,1,0,0V217.6a2.55,2.55,0,0,1-2.55,2.55H683a2.55,2.55,0,0,1-2.55-2.55V187.72A0,0,0,0,1,680.48,187.72Z" transform="translate(1327.43 359.67) rotate(-180)"/><rect class="cls-23" x="680.48" y="214.47" width="7.46" height="5.99" transform="translate(1327.43 386.74) rotate(-180)"/><rect class="cls-20" x="635.4" y="139.22" width="26.5" height="3.32"/><ellipse class="cls-14" cx="665.09" cy="142.13" rx="4.44" ry="4.01"/><ellipse class="cls-14" cx="633.43" cy="142.48" rx="4.44" ry="4.01"/><polygon class="cls-14" points="649.03 116.31 644.04 113.19 654.33 113.19 649.03 116.31"/><path class="cls-21" d="M640.56,113h.92a1,1,0,0,1,1,1v6.34a0,0,0,0,1,0,0h-2.91a0,0,0,0,1,0,0V114a1,1,0,0,1,1-1Z"/><path class="cls-21" d="M656.71,113h.88a1,1,0,0,1,1,1v6.39a0,0,0,0,1,0,0h-2.78a0,0,0,0,1,0,0V114a1,1,0,0,1,1-1Z"/><path class="cls-21" d="M703.44,187.72H676.93V170.28c0-.94.9-.52,1.94-.52l1.7-1.19h2.91l1.14,1.19h8.94l3.2-1.19h2.78l2,1.19c1,0,1.89-.42,1.89.52Z" transform="translate(-41 -48.2)"/><rect class="cls-19" x="639.49" y="168.75" width="7.45" height="6.39"/><rect class="cls-19" x="650.61" y="168.75" width="7.45" height="6.39"/><rect class="cls-14" x="660.81" y="117.6" width="7.46" height="26.35" rx="2.55"/><rect class="cls-14" x="629.9" y="117.6" width="7.46" height="26.35" rx="2.55"/><rect class="cls-24" x="645.5" y="138.32" width="7.06" height="4.89" rx="1.85"/><path class="cls-18" d="M675.36,162.72h-1.45c-1.66,0-3,1.81-3,4v6.4h7.46v-6.4C678.36,164.53,677,162.72,675.36,162.72Z" transform="translate(-41 -48.2)"/><path class="cls-18" d="M706.26,163.5h-1.45c-1.65,0-3,1.68-3,3.72v5.93h7.46v-5.93C709.27,165.18,707.91,163.5,706.26,163.5Z" transform="translate(-41 -48.2)"/><rect class="cls-25" x="679.69" y="215.91" width="9.04" height="3.12" rx="1.18" transform="translate(1327.43 386.73) rotate(-180)"/><rect class="cls-25" x="649.81" y="167.71" width="9.04" height="3.12" rx="1.18"/><ellipse class="cls-26" cx="641.02" cy="122.34" rx="1.36" ry="1.23"/><ellipse class="cls-26" cx="657.15" cy="122.34" rx="1.36" ry="1.23"/><ellipse class="cls-27" cx="649.19" cy="102.82" rx="2.79" ry="1.48"/><ellipse class="cls-28" cx="649.19" cy="100.66" rx="4.44" ry="1.88"/><path class="cls-29" d="M690.19,148.65c.07,2.77-.54,5-1.36,5.09-.42,0-2.17-1.08-4-2-.9-.46-1.89-.91-2.49-1.21a2.64,2.64,0,0,0-.82-.24,1.93,1.93,0,0,0-.32,0,3,3,0,0,1,.66-1.24c.59-.67,1.27-1.43,2.09-2.22,1.59-1.57,3.58-3,4.13-3C689.16,143.68,690.11,145.89,690.19,148.65Z" transform="translate(-41 -48.2)"/><path class="cls-30" d="M699.2,150.27a3.31,3.31,0,0,0-1.59-.68,42,42,0,0,0-7.42-.94" transform="translate(-41 -48.2)"/><path class="cls-29" d="M690.19,148.65c.07-2.76,1-5,2.13-4.88.54,0,2.53,1.47,4.13,3,.81.79,1.49,1.55,2.09,2.22a3.11,3.11,0,0,1,.66,1.24,1.94,1.94,0,0,0-.32,0,2.77,2.77,0,0,0-.83.24c-.6.3-1.58.75-2.49,1.21-1.85.93-3.59,2-4,2C690.72,153.67,690.11,151.42,690.19,148.65Z" transform="translate(-41 -48.2)"/><path class="cls-31" d="M692.48,126.32h-5.67c-5,0-9,3.64-9,8.12v5.66h1.89v-.45c0-4.48,4-8.12,9-8.12h5.68a9.35,9.35,0,0,1,7.1,3.15v-.24C701.48,130,697.45,126.32,692.48,126.32Z" transform="translate(-41 -48.2)"/><rect class="cls-32" x="694.87" y="112.11" width="30.7" height="39.31" rx="6"/><rect class="cls-33" x="696.31" y="113.88" width="27.84" height="10.21" rx="3.86"/><ellipse class="cls-34" cx="710.22" cy="138.27" rx="8.85" ry="7.99"/><path class="cls-35" d="M756.86,193.21l-13.28-12a1,1,0,0,1,0-1.49h0a1.27,1.27,0,0,1,1.66,0l13.28,12a1,1,0,0,1,0,1.49h0A1.27,1.27,0,0,1,756.86,193.21Z" transform="translate(-41 -48.2)"/><rect class="cls-36" x="696.31" y="125.22" width="11.19" height="2.06" rx="0.78"/><rect class="cls-37" x="712.96" y="125.22" width="11.19" height="2.06" rx="0.78"/><ellipse class="cls-38" cx="710.05" cy="126.25" rx="1.14" ry="1.03"/><ellipse class="cls-39" cx="708.27" cy="149.01" rx="1.63" ry="1.47"/><ellipse class="cls-40" cx="721.95" cy="149.01" rx="1.63" ry="1.47"/><ellipse class="cls-41" cx="717.44" cy="149.01" rx="1.63" ry="1.47"/><ellipse class="cls-40" cx="712.96" cy="149.01" rx="1.63" ry="1.47"/><ellipse cx="708.27" cy="149.01" rx="0.89" ry="0.8"/><ellipse cx="712.96" cy="149.01" rx="0.89" ry="0.8"/><ellipse cx="717.44" cy="149.01" rx="0.89" ry="0.8"/><ellipse cx="721.95" cy="149.01" rx="0.89" ry="0.8"/><path class="cls-42" d="M761.57,197.19a5.84,5.84,0,0,0,.94,4.37,4.35,4.35,0,0,0,4.36,1.3c3.45-.76,5.17-4.83,6-7.87,1-3.68.91-7.39,1-11.16s2.7-7.43,1.35-11.24c-.64-1.81-3.54-1-2.89.79,1,2.77-.93,5.59-1.31,8.32-.4,2.88,0,5.83-.32,8.73a18.11,18.11,0,0,1-2.37,7.65c-.58.95-1.65,2.19-2.93,1.89s-.92-1.87-.84-2.78c.18-1.92-2.82-1.9-3,0Z" transform="translate(-41 -48.2)"/><path class="cls-42" d="M756.91,197.18c0,3.36,1.17,7.76,4.86,8.61a23.9,23.9,0,0,0,11.37-.27,6.19,6.19,0,0,0,3.92-2.55,15.81,15.81,0,0,0,1.5-4.91c.88-3.95,1.93-7.9,2.63-11.89.76-4.33.47-8.92.55-13.31,0-1.93-3-1.93-3,0l-.11,6.43a41.16,41.16,0,0,1-.33,6.08c-.72,4.15-1.82,8.27-2.75,12.38-.31,1.41-.44,3.57-1.82,4.39-1.59.94-4,1.09-5.8,1.17a23.67,23.67,0,0,1-3.26-.08,8.74,8.74,0,0,1-2.74-.5c-1.69-.84-2-3.9-2-5.55,0-1.93-3-1.93-3,0Z" transform="translate(-41 -48.2)"/><rect class="cls-43" x="737.66" y="119.95" width="2.98" height="5.73"/><rect class="cls-44" x="731.27" y="119.95" width="2.98" height="5.73"/><rect class="cls-45" y="0.8" width="818" height="545" rx="12"/><rect class="cls-46" x="261" y="115.8" width="350" height="276" rx="12"/><path class="cls-13" d="M581,237.6h0a.54.54,0,0,1,.54.54v2.7a0,0,0,0,1,0,0h-1.07a0,0,0,0,1,0,0v-2.7A.54.54,0,0,1,581,237.6Z"/><path class="cls-13" d="M589.89,237.68h0a.54.54,0,0,1,.54.54v2.7a0,0,0,0,1,0,0h-1.07a0,0,0,0,1,0,0v-2.7A.54.54,0,0,1,589.89,237.68Z"/><rect class="cls-14" x="459.17" y="214.86" width="14.13" height="17.3" rx="3.56"/><path class="cls-14" d="M522.83,235v26c0,8.69-6.69,15.73-14.94,15.73h-2.6c-8.26,0-15-7-15-15.73V235c0-7.17,5.53-13,12.35-13h7.79C517.3,222,522.83,227.86,522.83,235Z" transform="translate(-41 -48.2)"/><rect class="cls-15" x="454.97" y="189.12" width="8.45" height="3.19" rx="1.6"/><rect class="cls-15" x="468.29" y="189.12" width="8.45" height="3.19" rx="1.6"/><path class="cls-16" d="M448,195.91h1.34a0,0,0,0,1,0,0v5.9a0,0,0,0,1,0,0H448a2,2,0,0,1-2-2v-1.9A2,2,0,0,1,448,195.91Z"/><path class="cls-16" d="M481.83,195.91h1.34a2,2,0,0,1,2,2v1.9a2,2,0,0,1-2,2h-1.34a0,0,0,0,1,0,0v-5.9A0,0,0,0,1,481.83,195.91Z"/><ellipse class="cls-17" cx="459.2" cy="194.54" rx="1.34" ry="1.41"/><ellipse class="cls-17" cx="472.94" cy="194.54" rx="1.34" ry="1.41"/><rect class="cls-16" x="464.52" y="198.19" width="3.34" height="6.04" rx="1.67"/><rect class="cls-18" x="448.03" y="230.24" width="36.4" height="46.74" rx="6.35"/><path class="cls-19" d="M468.18,326.85h11.45a16,16,0,0,1,16,16v0a0,0,0,0,1,0,0h-27.4a0,0,0,0,1,0,0v-16A0,0,0,0,1,468.18,326.85Z"/><rect class="cls-19" x="468.18" y="340.13" width="27.4" height="2.67"/><rect class="cls-19" x="468.18" y="341.47" width="27.4" height="0.67"/><path class="cls-19" d="M525.8,376.21a3.5,3.5,0,0,1-.78,3.05,9.2,9.2,0,0,1-2.51,2" transform="translate(-41 -48.2)"/><path class="cls-20" d="M524.84,376.48c0,.06,0,.13,0,.19s0-.17,0,0,0,.23,0,.35,0,.14,0,.2.05-.23,0,0a3.59,3.59,0,0,1-.08.35,3.4,3.4,0,0,1-.12.34c0-.12,0-.07,0,0a1,1,0,0,1-.07.15l-.18.31-.11.17s-.15.18,0,0a6.76,6.76,0,0,1-.52.55l-.28.25-.17.13c.07-.06.08-.06,0,0-.44.31-.89.59-1.34.86a1,1,0,1,0,1,1.73,9.7,9.7,0,0,0,3-2.44,4.46,4.46,0,0,0,.79-3.7,1,1,0,0,0-1.23-.7,1,1,0,0,0-.7,1.24Z" transform="translate(-41 -48.2)"/><path class="cls-19" d="M529.84,377.33a3.53,3.53,0,0,1-.79,3.06,9,9,0,0,1-2.5,1.95" transform="translate(-41 -48.2)"/><path class="cls-20" d="M528.88,377.6c0,.06,0,.13,0,.19s0-.17,0,0,0,.24,0,.36,0,.13,0,.19,0-.23,0,0,0,.24-.08.35l-.12.35c0-.13,0-.08,0,0s-.05.09-.07.14l-.18.31-.11.17s-.15.18,0,0c-.17.19-.34.38-.52.55a3.47,3.47,0,0,1-.29.25l-.16.13h0c-.43.31-.88.59-1.33.87a1,1,0,0,0,1,1.72,9.55,9.55,0,0,0,3-2.43,4.43,4.43,0,0,0,.8-3.7,1,1,0,1,0-1.93.53Z" transform="translate(-41 -48.2)"/><path class="cls-19" d="M532.58,379.51a3.51,3.51,0,0,1-.79,3.05,8.83,8.83,0,0,1-2.5,2" transform="translate(-41 -48.2)"/><path class="cls-20" d="M531.62,379.78a1.29,1.29,0,0,0,0,.19c0,.14,0-.17,0,0s0,.24,0,.36a1.21,1.21,0,0,0,0,.19c0,.15,0-.23,0,0a3.58,3.58,0,0,1-.09.35c0,.12-.07.23-.11.35,0-.13,0-.08,0,0s-.05.09-.07.14l-.18.31a1.63,1.63,0,0,0-.11.17s-.16.18,0,0a6.64,6.64,0,0,1-.51.55l-.29.25-.16.13h0c-.43.31-.88.59-1.34.87a1,1,0,0,0,1,1.72,9.56,9.56,0,0,0,3-2.44,4.44,4.44,0,0,0,.8-3.69,1,1,0,1,0-1.93.53Z" transform="translate(-41 -48.2)"/><path class="cls-21" d="M473.3,272.15h0a5.12,5.12,0,0,1,5.12,5.12v46a0,0,0,0,1,0,0H468.18a0,0,0,0,1,0,0v-46A5.12,5.12,0,0,1,473.3,272.15Z"/><rect class="cls-22" x="468.18" y="314.21" width="10.25" height="10.22"/><path class="cls-19" d="M476.75,375h27.4a0,0,0,0,1,0,0v0a16,16,0,0,1-16,16H476.75a0,0,0,0,1,0,0V375A0,0,0,0,1,476.75,375Z" transform="translate(939.9 717.85) rotate(180)"/><rect class="cls-19" x="476.75" y="388.33" width="27.4" height="2.67" transform="translate(939.9 731.13) rotate(-180)"/><rect class="cls-19" x="476.75" y="389.67" width="27.4" height="0.67" transform="translate(939.9 731.8) rotate(-180)"/><path class="cls-19" d="M487.52,376.21a3.51,3.51,0,0,0,.79,3.05,9.31,9.31,0,0,0,2.5,2" transform="translate(-41 -48.2)"/><path class="cls-20" d="M486.56,375.94a4.45,4.45,0,0,0,.79,3.7,9.7,9.7,0,0,0,3,2.44,1,1,0,0,0,1.37-.36,1,1,0,0,0-.36-1.37,15.27,15.27,0,0,1-1.31-.84s-.19-.15,0,0l-.13-.1-.28-.25a6,6,0,0,1-.55-.58c.05.06.07.1,0,0a1.63,1.63,0,0,1-.11-.17,3.21,3.21,0,0,1-.19-.31s-.05-.09-.07-.14-.1-.23-.05-.1,0-.1,0-.11a.88.88,0,0,1-.05-.15,2.74,2.74,0,0,1-.09-.39c0-.13,0,0,0,0a.66.66,0,0,1,0-.2,2,2,0,0,1,0-.35c0-.17,0,0,0,0a1,1,0,0,1,.06-.23,1,1,0,1,0-1.93-.54Z" transform="translate(-41 -48.2)"/><path class="cls-19" d="M483.48,377.33a3.57,3.57,0,0,0,.79,3.06,9.17,9.17,0,0,0,2.51,1.95" transform="translate(-41 -48.2)"/><path class="cls-20" d="M482.52,377.07a4.46,4.46,0,0,0,.79,3.7,9.67,9.67,0,0,0,3,2.43,1,1,0,1,0,1-1.72c-.44-.27-.89-.54-1.3-.85,0,0-.19-.14,0,0l-.13-.1-.28-.25a7.54,7.54,0,0,1-.55-.58c0,.06.07.1,0,0l-.11-.16a2.48,2.48,0,0,1-.18-.31l-.08-.15,0-.1c.05.14,0-.1,0-.1s0-.11-.05-.16a2.46,2.46,0,0,1-.09-.39c0-.12,0,0,0,0a.61.61,0,0,1,0-.19c0-.12,0-.24,0-.36s0,0,0,0a1,1,0,0,1,.06-.23,1,1,0,0,0-1.93-.53Z" transform="translate(-41 -48.2)"/><path class="cls-19" d="M480.74,379.51a3.54,3.54,0,0,0,.79,3.05,9,9,0,0,0,2.51,2" transform="translate(-41 -48.2)"/><path class="cls-20" d="M479.78,379.25a4.43,4.43,0,0,0,.79,3.69,9.56,9.56,0,0,0,3,2.44,1,1,0,1,0,1-1.72c-.44-.27-.88-.54-1.3-.85,0,0-.19-.14,0,0l-.13-.1-.29-.25a7.54,7.54,0,0,1-.55-.58c.06.06.08.1,0,0l-.11-.16c-.06-.1-.13-.21-.18-.31l-.08-.15,0-.1,0-.1c0-.06,0-.11-.05-.16s-.06-.26-.09-.39,0,0,0,0a.61.61,0,0,1,0-.19c0-.12,0-.24,0-.36s0,0,0,0,0-.22,0-.23a1,1,0,1,0-1.93-.53Z" transform="translate(-41 -48.2)"/><path class="cls-21" d="M493.9,320.35h10.25a0,0,0,0,1,0,0v46.76a5.12,5.12,0,0,1-5.12,5.12h0a5.12,5.12,0,0,1-5.12-5.12V320.35A0,0,0,0,1,493.9,320.35Z" transform="translate(957.06 644.38) rotate(-180)"/><rect class="cls-23" x="493.9" y="363.15" width="10.25" height="9.58" transform="translate(957.06 687.68) rotate(-180)"/><rect class="cls-20" x="447.29" y="271.67" width="36.39" height="5.31"/><ellipse class="cls-14" cx="488.07" cy="276.33" rx="6.1" ry="6.42"/><ellipse class="cls-14" cx="444.6" cy="276.87" rx="6.1" ry="6.42"/><polygon class="cls-14" points="466.01 235.01 459.17 230.01 473.3 230.01 466.01 235.01"/><path class="cls-21" d="M455,229.76h0a2,2,0,0,1,2,2v9.74a0,0,0,0,1,0,0h-4a0,0,0,0,1,0,0v-9.74A2,2,0,0,1,455,229.76Z"/><path class="cls-21" d="M477.16,229.76h0a1.91,1.91,0,0,1,1.91,1.91v9.83a0,0,0,0,1,0,0h-3.82a0,0,0,0,1,0,0v-9.83A1.91,1.91,0,0,1,477.16,229.76Z"/><path class="cls-21" d="M525.43,320.35H489V292.44c0-1.51,1.24-.83,2.67-.83L494,289.7h4l1.57,1.91h12.27l4.39-1.91h3.82l2.76,1.91c1.43,0,2.6-.68,2.6.83Z" transform="translate(-41 -48.2)"/><rect class="cls-19" x="452.91" y="318.91" width="10.24" height="10.22"/><rect class="cls-19" x="468.18" y="318.91" width="10.24" height="10.22"/><rect class="cls-14" x="482.19" y="237.08" width="10.25" height="42.16" rx="5.12"/><rect class="cls-14" x="439.75" y="237.08" width="10.25" height="42.16" rx="5.12"/><rect class="cls-24" x="461.16" y="270.23" width="9.7" height="7.82" rx="3.74"/><path class="cls-18" d="M486.86,280.35h-2c-2.28,0-4.13,2.9-4.13,6.44V297H491V286.79C491,283.25,489.14,280.35,486.86,280.35Z" transform="translate(-41 -48.2)"/><path class="cls-18" d="M529.3,281.6h-2c-2.27,0-4.12,2.68-4.12,5.95V297h10.24v-9.48C533.43,284.28,531.58,281.6,529.3,281.6Z" transform="translate(-41 -48.2)"/><rect class="cls-25" x="492.82" y="365.44" width="12.41" height="4.99" rx="2.49" transform="translate(957.06 687.67) rotate(-180)"/><rect class="cls-25" x="467.09" y="317.25" width="12.41" height="4.99" rx="2.49"/><ellipse class="cls-26" cx="455.02" cy="244.66" rx="1.87" ry="1.97"/><ellipse class="cls-26" cx="477.16" cy="244.66" rx="1.87" ry="1.97"/><ellipse class="cls-27" cx="466.23" cy="213.42" rx="3.83" ry="2.36"/><ellipse class="cls-28" cx="466.23" cy="209.97" rx="6.1" ry="3"/><path class="cls-29" d="M507.23,257.84c.09,2.76-.79,5-2,5.14-.59,0-3-1-5.56-1.69-1.23-.37-2.56-.72-3.37-.91a3.17,3.17,0,0,0-1.08-.05,2.39,2.39,0,0,0-.4.09A2.63,2.63,0,0,1,495,260a3.78,3.78,0,0,1,.74-1.05,36.75,36.75,0,0,1,2.91-2.53c2.22-1.76,4.95-3.32,5.69-3.37C505.86,252.88,507.15,255.08,507.23,257.84Z" transform="translate(-41 -48.2)"/><path class="cls-30" d="M519.6,260.42a4.26,4.26,0,0,0-2.17-1.08,48.88,48.88,0,0,0-10.2-1.5" transform="translate(-41 -48.2)"/><path class="cls-29" d="M507.23,257.84c.09-2.76,1.37-5,2.87-4.82.74,0,3.46,1.61,5.68,3.37,1.13.89,2.1,1.74,2.92,2.53a4,4,0,0,1,.74,1.05,3.05,3.05,0,0,1,.16.45,2.39,2.39,0,0,0-.4-.09,3.11,3.11,0,0,0-1.07.05c-.82.19-2.14.54-3.38.91-2.52.73-5,1.73-5.55,1.69C508,262.87,507.15,260.6,507.23,257.84Z" transform="translate(-41 -48.2)"/><path class="cls-31" d="M510.39,222.11h-7.8c-6.82,0-12.35,5.82-12.35,13v9.05h2.6v-.71c0-7.18,5.53-13,12.35-13H513a12.11,12.11,0,0,1,9.74,5v-.39C522.73,227.93,517.2,222.11,510.39,222.11Z" transform="translate(-41 -48.2)"/><rect class="cls-32" x="528.97" y="228.3" width="42.16" height="62.89" rx="6"/><rect class="cls-33" x="530.93" y="231.13" width="38.23" height="16.33" rx="5"/><ellipse class="cls-34" cx="550.05" cy="270.15" rx="12.15" ry="12.78"/><path class="cls-35" d="M599.47,329.85l-19.59-20.61a.72.72,0,0,1,0-1l1.36-1.42a.61.61,0,0,1,.91,0l19.59,20.6a.72.72,0,0,1,0,1l-1.35,1.43A.64.64,0,0,1,599.47,329.85Z" transform="translate(-41 -48.2)"/><rect class="cls-36" x="530.93" y="249.27" width="15.36" height="3.29" rx="1.64"/><rect class="cls-37" x="553.8" y="249.27" width="15.36" height="3.29" rx="1.64"/><ellipse class="cls-38" cx="549.81" cy="250.92" rx="1.56" ry="1.64"/><ellipse class="cls-39" cx="547.37" cy="287.34" rx="2.23" ry="2.35"/><ellipse class="cls-40" cx="566.15" cy="287.34" rx="2.23" ry="2.35"/><ellipse class="cls-41" cx="559.96" cy="287.34" rx="2.23" ry="2.35"/><ellipse class="cls-40" cx="553.8" cy="287.34" rx="2.23" ry="2.35"/><ellipse cx="547.37" cy="287.34" rx="1.22" ry="1.29"/><ellipse cx="553.8" cy="287.34" rx="1.22" ry="1.29"/><ellipse cx="559.96" cy="287.34" rx="1.22" ry="1.29"/><ellipse cx="566.15" cy="287.34" rx="1.22" ry="1.29"/><path class="cls-42" d="M605.82,335.5c-.28,3.48.34,7.92,4.62,8.35s6.73-3.67,8.16-7.05a40.11,40.11,0,0,0,2.8-12.42c.36-4.46-.21-9,.39-13.46.66-4.9,3.3-9.53,1.69-14.55-.59-1.83-3.49-1.05-2.9.8,1.46,4.52-1.21,9.09-1.77,13.55-.6,4.74,0,9.57-.47,14.33-.42,4.45-1.39,9.16-3.71,13.05-.86,1.44-2.7,3.56-4.62,2.58-1.7-.86-1.31-3.64-1.19-5.18.16-1.92-2.84-1.91-3,0Z" transform="translate(-41 -48.2)"/><path class="cls-42" d="M599.42,335.49a20.35,20.35,0,0,0,1.41,8c1,2.57,2.35,4.31,5.14,5a27.63,27.63,0,0,0,16.29-.95c5.16-2,5.29-8.33,6.2-13,1.12-5.81,2.48-11.64,3.29-17.51a80.41,80.41,0,0,0,.49-9.94l.15-10.45a1.5,1.5,0,0,0-3,0c-.08,5.28-.06,10.58-.25,15.86s-1.48,10.37-2.46,15.48l-1.48,7.69a33.85,33.85,0,0,1-1.53,6.71c-1,2.23-3.22,2.76-5.39,3.26a25.71,25.71,0,0,1-7.37.59,24.17,24.17,0,0,1-4.14-.6,3.49,3.49,0,0,1-2.66-2.06,17.09,17.09,0,0,1-1.69-8c0-1.93-3-1.93-3,0Z" transform="translate(-41 -48.2)"/><rect class="cls-43" x="587.73" y="240.84" width="4.09" height="9.16"/><rect class="cls-44" x="578.95" y="240.84" width="4.09" height="9.16"/><rect x="270.26" y="155.8" width="145" height="18.24" rx="9.12"/><rect x="270.26" y="189.92" width="145" height="18.24" rx="9.12"/><rect x="270.26" y="223.92" width="145" height="18.24" rx="9.12"/><rect x="293.47" y="255.92" width="98.58" height="18.24" rx="9.12"/></svg>