<svg id="Layer_1" data-name="Layer 1" xmlns="http://www.w3.org/2000/svg" viewBox="0 0 818 545"><defs><style>.cls-1{fill:#58785a;}.cls-2{fill:#cacbce;}.cls-3{fill:#94dddb;stroke-width:3px;}.cls-12,.cls-3{stroke:#231f20;stroke-miterlimit:10;}.cls-4{fill:#6b9692;}.cls-5{fill:#525f4f;}.cls-6{fill:#7fa37f;}.cls-7{fill:#a6c5a2;}.cls-8{fill:#65815e;}.cls-9{fill:#f0ece6;}.cls-10{fill:#ffeeec;}.cls-11{fill:#fff;}.cls-12{fill:none;stroke-width:6px;}</style></defs><title>instructions1</title><rect class="cls-1" width="818" height="545" rx="12"/><rect class="cls-2" x="53" y="67" width="163.97" height="127.83" rx="12"/><polygon class="cls-3" points="154.92 84.46 183.5 113.05 183.5 153.47 154.92 182.06 114.49 182.06 85.91 153.47 85.91 113.05 114.49 84.46 154.92 84.46"/><polygon class="cls-4" points="139.72 110.74 169.77 165.89 105.42 171.87 139.72 110.74"/><polygon class="cls-5" points="160.04 122.39 179.88 157.16 162.88 174.17 155.52 181.98 125.79 181.98 160.04 122.39"/><polygon class="cls-6" points="117.8 95.67 157.36 179.68 155.06 181.98 138.51 181.98 114.61 181.98 89.33 156.7 117.8 95.67"/><polygon class="cls-7" points="117.8 181.98 141.73 181.98 155.52 181.98 157.82 179.68 117.8 95.67 117.8 95.67 117.83 178.3 117.8 181.98"/><polygon class="cls-8" points="160.12 177.38 179.88 157.16 160.12 122.39 160.12 122.39 160.12 177.38"/><polygon class="cls-9" points="117.8 95.36 135.76 133.26 130.13 130.6 125.85 133.34 120.54 126.5 117.8 133.34 110.26 126.5 108.89 133.34 104.78 129.92 99.99 133.34 117.8 95.36"/><polygon class="cls-10" points="160.12 122.23 170.23 140.15 166.21 138.14 164.1 140.19 160.04 137.46 156.22 140.19 154.56 136.77 149.77 140.19 160.12 122.23"/><polygon class="cls-11" points="117.8 95.36 117.8 133.34 120.54 126.5 125.85 133.34 130.13 130.6 135.76 133.26 117.8 95.36"/><polygon class="cls-11" points="160.12 122.23 160.04 137.46 164.1 140.19 166.21 138.14 170.23 140.15 160.12 122.23"/><polygon class="cls-12" points="154.92 84.46 183.5 113.05 183.5 153.47 154.92 182.06 114.49 182.06 85.91 153.47 85.91 113.05 114.49 84.46 154.92 84.46"/><rect class="cls-2" x="236.25" y="67.17" width="163.97" height="127.83" rx="12"/><polygon class="cls-3" points="338.17 84.63 366.75 113.22 366.75 153.64 338.17 182.23 297.74 182.23 269.15 153.64 269.15 113.22 297.74 84.63 338.17 84.63"/><polygon class="cls-4" points="322.97 110.91 353.02 166.06 288.67 172.04 322.97 110.91"/><polygon class="cls-5" points="343.29 122.56 363.13 157.33 346.12 174.34 338.77 182.15 309.04 182.15 343.29 122.56"/><polygon class="cls-6" points="301.05 95.84 340.61 179.85 338.31 182.15 321.76 182.15 297.86 182.15 272.58 156.87 301.05 95.84"/><polygon class="cls-7" points="301.05 182.15 324.98 182.15 338.77 182.15 341.07 179.85 301.05 95.84 301.05 95.84 301.08 178.47 301.05 182.15"/><polygon class="cls-8" points="343.37 177.56 363.13 157.33 343.37 122.56 343.37 122.56 343.37 177.56"/><polygon class="cls-9" points="301.05 95.53 319 133.43 313.38 130.78 309.1 133.52 303.79 126.67 301.05 133.52 293.51 126.67 292.14 133.52 288.03 130.09 283.24 133.52 301.05 95.53"/><polygon class="cls-10" points="343.37 122.4 353.48 140.32 349.45 138.31 347.34 140.37 343.29 137.63 339.47 140.37 337.81 136.94 333.02 140.37 343.37 122.4"/><polygon class="cls-11" points="301.05 95.53 301.05 133.52 303.79 126.67 309.1 133.52 313.38 130.78 319 133.43 301.05 95.53"/><polygon class="cls-11" points="343.37 122.4 343.29 137.63 347.34 140.37 349.45 138.31 353.48 140.32 343.37 122.4"/><polygon class="cls-12" points="338.17 84.63 366.75 113.22 366.75 153.64 338.17 182.23 297.74 182.23 269.15 153.64 269.15 113.22 297.74 84.63 338.17 84.63"/><rect class="cls-2" x="419.2" y="67.17" width="163.97" height="127.83" rx="12"/><polygon class="cls-3" points="521.12 84.63 549.71 113.22 549.71 153.64 521.12 182.23 480.69 182.23 452.11 153.64 452.11 113.22 480.69 84.63 521.12 84.63"/><polygon class="cls-4" points="505.92 110.91 535.97 166.06 471.62 172.04 505.92 110.91"/><polygon class="cls-5" points="526.25 122.56 546.08 157.33 529.08 174.34 521.72 182.15 492 182.15 526.25 122.56"/><polygon class="cls-6" points="484 95.84 523.56 179.85 521.26 182.15 504.72 182.15 480.82 182.15 455.54 156.87 484 95.84"/><polygon class="cls-7" points="484 182.15 507.93 182.15 521.72 182.15 524.02 179.85 484 95.84 484 95.84 484.03 178.47 484 182.15"/><polygon class="cls-8" points="526.32 177.56 546.08 157.33 526.32 122.56 526.32 122.56 526.32 177.56"/><polygon class="cls-9" points="484 95.53 501.96 133.43 496.33 130.78 492.05 133.52 486.74 126.67 484 133.52 476.47 126.67 475.1 133.52 470.99 130.09 466.19 133.52 484 95.53"/><polygon class="cls-10" points="526.32 122.4 536.43 140.32 532.41 138.31 530.3 140.37 526.25 137.63 522.42 140.37 520.76 136.94 515.97 140.37 526.32 122.4"/><polygon class="cls-11" points="484 95.53 484 133.52 486.74 126.67 492.05 133.52 496.33 130.78 501.96 133.43 484 95.53"/><polygon class="cls-11" points="526.32 122.4 526.25 137.63 530.3 140.37 532.41 138.31 536.43 140.32 526.32 122.4"/><polygon class="cls-12" points="521.12 84.63 549.71 113.22 549.71 153.64 521.12 182.23 480.69 182.23 452.11 153.64 452.11 113.22 480.69 84.63 521.12 84.63"/><rect class="cls-2" x="602.36" y="67.35" width="163.97" height="127.83" rx="12"/><polygon class="cls-3" points="704.27 84.81 732.86 113.39 732.86 153.82 704.27 182.41 663.85 182.41 635.26 153.82 635.26 113.39 663.85 84.81 704.27 84.81"/><polygon class="cls-4" points="689.07 111.09 719.13 166.24 654.78 172.21 689.07 111.09"/><polygon class="cls-5" points="709.4 122.73 729.24 157.5 712.23 174.51 704.88 182.32 675.15 182.32 709.4 122.73"/><polygon class="cls-6" points="667.15 96.02 706.72 180.03 704.42 182.32 687.87 182.32 663.97 182.32 638.69 157.05 667.15 96.02"/><polygon class="cls-7" points="667.15 182.32 691.09 182.32 704.88 182.32 707.17 180.03 667.15 96.02 667.15 96.02 667.19 178.65 667.15 182.32"/><polygon class="cls-8" points="709.47 177.73 729.24 157.5 709.47 122.73 709.47 122.73 709.47 177.73"/><polygon class="cls-9" points="667.15 95.71 685.11 133.6 679.48 130.95 675.2 133.69 669.89 126.84 667.15 133.69 659.62 126.84 658.25 133.69 654.14 130.27 649.35 133.69 667.15 95.71"/><polygon class="cls-10" points="709.47 122.57 719.59 140.5 715.56 138.49 713.45 140.54 709.4 137.8 705.57 140.54 703.92 137.12 699.12 140.54 709.47 122.57"/><polygon class="cls-11" points="667.15 95.71 667.15 133.69 669.89 126.84 675.2 133.69 679.48 130.95 685.11 133.6 667.15 95.71"/><polygon class="cls-11" points="709.47 122.57 709.4 137.8 713.45 140.54 715.56 138.49 719.59 140.5 709.47 122.57"/><polygon class="cls-12" points="704.27 84.81 732.86 113.39 732.86 153.82 704.27 182.41 663.85 182.41 635.26 153.82 635.26 113.39 663.85 84.81 704.27 84.81"/><rect class="cls-2" x="52.68" y="210.17" width="163.97" height="127.83" rx="12"/><polygon class="cls-3" points="154.6 227.63 183.18 256.22 183.18 296.65 154.6 325.23 114.17 325.23 85.58 296.65 85.58 256.22 114.17 227.63 154.6 227.63"/><polygon class="cls-4" points="139.4 253.91 169.45 309.07 105.1 315.04 139.4 253.91"/><polygon class="cls-5" points="159.72 265.56 179.56 300.33 162.55 317.34 155.2 325.15 125.47 325.15 159.72 265.56"/><polygon class="cls-6" points="117.48 238.84 157.04 322.85 154.74 325.15 138.19 325.15 114.29 325.15 89.01 299.87 117.48 238.84"/><polygon class="cls-7" points="117.48 325.15 141.41 325.15 155.2 325.15 157.5 322.85 117.48 238.84 117.48 238.84 117.51 321.48 117.48 325.15"/><polygon class="cls-8" points="159.79 320.56 179.56 300.33 159.8 265.56 159.79 265.56 159.79 320.56"/><polygon class="cls-9" points="117.48 238.54 135.44 276.43 129.81 273.78 125.53 276.52 120.22 269.67 117.48 276.52 109.94 269.67 108.57 276.52 104.46 273.09 99.67 276.52 117.48 238.54"/><polygon class="cls-10" points="159.79 265.4 169.91 283.33 165.89 281.31 163.77 283.37 159.72 280.63 155.9 283.37 154.24 279.94 149.45 283.37 159.79 265.4"/><polygon class="cls-11" points="117.48 238.54 117.48 276.52 120.22 269.67 125.53 276.52 129.81 273.78 135.44 276.43 117.48 238.54"/><polygon class="cls-11" points="159.79 265.4 159.72 280.63 163.77 283.37 165.89 281.31 169.91 283.33 159.79 265.4"/><polygon class="cls-12" points="154.6 227.63 183.18 256.22 183.18 296.65 154.6 325.23 114.17 325.23 85.58 296.65 85.58 256.22 114.17 227.63 154.6 227.63"/><rect class="cls-2" x="235.93" y="210.34" width="163.97" height="127.83" rx="12"/><polygon class="cls-3" points="337.85 227.8 366.43 256.39 366.43 296.82 337.85 325.4 297.42 325.4 268.83 296.82 268.83 256.39 297.42 227.8 337.85 227.8"/><polygon class="cls-4" points="322.64 254.09 352.69 309.24 288.35 315.21 322.64 254.09"/><polygon class="cls-5" points="342.97 265.73 362.81 300.5 345.8 317.51 338.45 325.32 308.72 325.32 342.97 265.73"/><polygon class="cls-6" points="300.73 239.01 340.29 323.03 337.99 325.32 321.44 325.32 297.54 325.32 272.26 300.05 300.73 239.01"/><polygon class="cls-7" points="300.72 325.32 324.66 325.32 338.45 325.32 340.75 323.03 300.73 239.01 300.72 239.02 300.76 321.65 300.72 325.32"/><polygon class="cls-8" points="343.04 320.73 362.81 300.5 343.04 265.73 343.04 265.73 343.04 320.73"/><polygon class="cls-9" points="300.72 238.71 318.68 276.6 313.05 273.95 308.77 276.69 303.46 269.84 300.72 276.69 293.19 269.84 291.82 276.69 287.71 273.26 282.91 276.69 300.72 238.71"/><polygon class="cls-10" points="343.04 265.57 353.15 283.5 349.13 281.49 347.02 283.54 342.97 280.8 339.14 283.54 337.49 280.12 332.69 283.54 343.04 265.57"/><polygon class="cls-11" points="300.72 238.71 300.72 276.69 303.46 269.84 308.77 276.69 313.05 273.95 318.68 276.6 300.72 238.71"/><polygon class="cls-11" points="343.04 265.57 342.97 280.8 347.02 283.54 349.13 281.49 353.15 283.5 343.04 265.57"/><polygon class="cls-12" points="337.85 227.8 366.43 256.39 366.43 296.82 337.85 325.4 297.42 325.4 268.83 296.82 268.83 256.39 297.42 227.8 337.85 227.8"/><rect class="cls-2" x="418.88" y="210.34" width="163.97" height="127.83" rx="12"/><polygon class="cls-3" points="520.8 227.8 549.38 256.39 549.38 296.82 520.8 325.4 480.37 325.4 451.79 296.82 451.79 256.39 480.37 227.8 520.8 227.8"/><polygon class="cls-4" points="505.6 254.09 535.65 309.24 471.3 315.21 505.6 254.09"/><polygon class="cls-5" points="525.92 265.73 545.76 300.5 528.75 317.51 521.4 325.32 491.67 325.32 525.92 265.73"/><polygon class="cls-6" points="483.68 239.01 523.24 323.03 520.94 325.32 504.39 325.32 480.49 325.32 455.21 300.05 483.68 239.01"/><polygon class="cls-7" points="483.68 325.32 507.61 325.32 521.4 325.32 523.7 323.03 483.68 239.01 483.68 239.02 483.71 321.65 483.68 325.32"/><polygon class="cls-8" points="526 320.73 545.76 300.5 526 265.73 526 265.73 526 320.73"/><polygon class="cls-9" points="483.68 238.71 501.64 276.6 496.01 273.95 491.73 276.69 486.42 269.84 483.68 276.69 476.14 269.84 474.77 276.69 470.66 273.26 465.87 276.69 483.68 238.71"/><polygon class="cls-10" points="526 265.57 536.11 283.5 532.09 281.49 529.98 283.54 525.92 280.8 522.1 283.54 520.44 280.12 515.65 283.54 526 265.57"/><polygon class="cls-11" points="483.68 238.71 483.68 276.69 486.42 269.84 491.73 276.69 496.01 273.95 501.64 276.6 483.68 238.71"/><polygon class="cls-11" points="526 265.57 525.92 280.8 529.98 283.54 532.09 281.49 536.11 283.5 526 265.57"/><polygon class="cls-12" points="520.8 227.8 549.38 256.39 549.38 296.82 520.8 325.4 480.37 325.4 451.79 296.82 451.79 256.39 480.37 227.8 520.8 227.8"/><rect class="cls-2" x="602.03" y="210.52" width="163.97" height="127.83" rx="12"/><polygon class="cls-3" points="703.95 227.98 732.54 256.56 732.54 296.99 703.95 325.58 663.53 325.58 634.94 296.99 634.94 256.56 663.53 227.98 703.95 227.98"/><polygon class="cls-4" points="688.75 254.26 718.8 309.41 654.46 315.39 688.75 254.26"/><polygon class="cls-5" points="709.08 265.9 728.91 300.68 711.91 317.69 704.55 325.5 674.83 325.5 709.08 265.9"/><polygon class="cls-6" points="666.83 239.19 706.39 323.2 704.1 325.5 687.55 325.5 663.65 325.5 638.37 300.22 666.83 239.19"/><polygon class="cls-7" points="666.83 325.5 690.77 325.5 704.55 325.5 706.85 323.2 666.83 239.19 666.83 239.19 666.87 321.82 666.83 325.5"/><polygon class="cls-8" points="709.15 320.9 728.91 300.68 709.15 265.9 709.15 265.9 709.15 320.9"/><polygon class="cls-9" points="666.83 238.88 684.79 276.78 679.16 274.12 674.88 276.86 669.57 270.01 666.83 276.86 659.3 270.01 657.93 276.86 653.82 273.44 649.02 276.86 666.83 238.88"/><polygon class="cls-10" points="709.15 265.75 719.26 283.67 715.24 281.66 713.13 283.71 709.08 280.97 705.25 283.71 703.6 280.29 698.8 283.71 709.15 265.75"/><polygon class="cls-11" points="666.83 238.88 666.83 276.86 669.57 270.01 674.88 276.86 679.16 274.12 684.79 276.78 666.83 238.88"/><polygon class="cls-11" points="709.15 265.75 709.08 280.97 713.13 283.71 715.24 281.66 719.26 283.67 709.15 265.75"/><polygon class="cls-12" points="703.95 227.98 732.54 256.56 732.54 296.99 703.95 325.58 663.53 325.58 634.94 296.99 634.94 256.56 663.53 227.98 703.95 227.98"/><rect class="cls-2" x="52.68" y="357.17" width="163.97" height="127.83" rx="12"/><polygon class="cls-3" points="154.6 374.63 183.18 403.22 183.18 443.65 154.6 472.23 114.17 472.23 85.58 443.65 85.58 403.22 114.17 374.63 154.6 374.63"/><polygon class="cls-4" points="139.4 400.91 169.45 456.07 105.1 462.04 139.4 400.91"/><polygon class="cls-5" points="159.72 412.56 179.56 447.33 162.55 464.34 155.2 472.15 125.47 472.15 159.72 412.56"/><polygon class="cls-6" points="117.48 385.84 157.04 469.85 154.74 472.15 138.19 472.15 114.29 472.15 89.01 446.87 117.48 385.84"/><polygon class="cls-7" points="117.48 472.15 141.41 472.15 155.2 472.15 157.5 469.85 117.48 385.84 117.48 385.85 117.51 468.48 117.48 472.15"/><polygon class="cls-8" points="159.79 467.56 179.56 447.33 159.8 412.56 159.79 412.56 159.79 467.56"/><polygon class="cls-9" points="117.48 385.54 135.44 423.43 129.81 420.78 125.53 423.52 120.22 416.67 117.48 423.52 109.94 416.67 108.57 423.52 104.46 420.09 99.67 423.52 117.48 385.54"/><polygon class="cls-10" points="159.79 412.4 169.91 430.33 165.89 428.31 163.77 430.37 159.72 427.63 155.9 430.37 154.24 426.94 149.45 430.37 159.79 412.4"/><polygon class="cls-11" points="117.48 385.54 117.48 423.52 120.22 416.67 125.53 423.52 129.81 420.78 135.44 423.43 117.48 385.54"/><polygon class="cls-11" points="159.79 412.4 159.72 427.63 163.77 430.37 165.89 428.31 169.91 430.33 159.79 412.4"/><polygon class="cls-12" points="154.6 374.63 183.18 403.22 183.18 443.65 154.6 472.23 114.17 472.23 85.58 443.65 85.58 403.22 114.17 374.63 154.6 374.63"/><rect class="cls-2" x="235.93" y="357.34" width="163.97" height="127.83" rx="12"/><polygon class="cls-3" points="337.85 374.8 366.43 403.39 366.43 443.82 337.85 472.4 297.42 472.4 268.83 443.82 268.83 403.39 297.42 374.8 337.85 374.8"/><polygon class="cls-4" points="322.64 401.08 352.69 456.24 288.35 462.21 322.64 401.08"/><polygon class="cls-5" points="342.97 412.73 362.81 447.5 345.8 464.51 338.45 472.32 308.72 472.32 342.97 412.73"/><polygon class="cls-6" points="300.73 386.01 340.29 470.03 337.99 472.32 321.44 472.32 297.54 472.32 272.26 447.05 300.73 386.01"/><polygon class="cls-7" points="300.72 472.32 324.66 472.32 338.45 472.32 340.75 470.03 300.73 386.01 300.72 386.02 300.76 468.65 300.72 472.32"/><polygon class="cls-8" points="343.04 467.73 362.81 447.5 343.04 412.73 343.04 412.73 343.04 467.73"/><polygon class="cls-9" points="300.72 385.71 318.68 423.6 313.05 420.95 308.77 423.69 303.46 416.84 300.72 423.69 293.19 416.84 291.82 423.69 287.71 420.26 282.91 423.69 300.72 385.71"/><polygon class="cls-10" points="343.04 412.57 353.15 430.5 349.13 428.49 347.02 430.54 342.97 427.8 339.14 430.54 337.49 427.12 332.69 430.54 343.04 412.57"/><polygon class="cls-11" points="300.72 385.71 300.72 423.69 303.46 416.84 308.77 423.69 313.05 420.95 318.68 423.6 300.72 385.71"/><polygon class="cls-11" points="343.04 412.57 342.97 427.8 347.02 430.54 349.13 428.49 353.15 430.5 343.04 412.57"/><polygon class="cls-12" points="337.85 374.8 366.43 403.39 366.43 443.82 337.85 472.4 297.42 472.4 268.83 443.82 268.83 403.39 297.42 374.8 337.85 374.8"/><rect class="cls-2" x="418.88" y="357.34" width="163.97" height="127.83" rx="12"/><polygon class="cls-3" points="520.8 374.8 549.38 403.39 549.38 443.82 520.8 472.4 480.37 472.4 451.79 443.82 451.79 403.39 480.37 374.8 520.8 374.8"/><polygon class="cls-4" points="505.6 401.08 535.65 456.24 471.3 462.21 505.6 401.08"/><polygon class="cls-5" points="525.92 412.73 545.76 447.5 528.75 464.51 521.4 472.32 491.67 472.32 525.92 412.73"/><polygon class="cls-6" points="483.68 386.01 523.24 470.03 520.94 472.32 504.39 472.32 480.49 472.32 455.21 447.05 483.68 386.01"/><polygon class="cls-7" points="483.68 472.32 507.61 472.32 521.4 472.32 523.7 470.03 483.68 386.01 483.68 386.02 483.71 468.65 483.68 472.32"/><polygon class="cls-8" points="526 467.73 545.76 447.5 526 412.73 526 412.73 526 467.73"/><polygon class="cls-9" points="483.68 385.71 501.64 423.6 496.01 420.95 491.73 423.69 486.42 416.84 483.68 423.69 476.14 416.84 474.77 423.69 470.66 420.26 465.87 423.69 483.68 385.71"/><polygon class="cls-10" points="526 412.57 536.11 430.5 532.09 428.49 529.98 430.54 525.92 427.8 522.1 430.54 520.44 427.12 515.65 430.54 526 412.57"/><polygon class="cls-11" points="483.68 385.71 483.68 423.69 486.42 416.84 491.73 423.69 496.01 420.95 501.64 423.6 483.68 385.71"/><polygon class="cls-11" points="526 412.57 525.92 427.8 529.98 430.54 532.09 428.49 536.11 430.5 526 412.57"/><polygon class="cls-12" points="520.8 374.8 549.38 403.39 549.38 443.82 520.8 472.4 480.37 472.4 451.79 443.82 451.79 403.39 480.37 374.8 520.8 374.8"/><rect class="cls-2" x="602.03" y="357.52" width="163.97" height="127.83" rx="12"/><polygon class="cls-3" points="703.95 374.98 732.54 403.56 732.54 443.99 703.95 472.58 663.53 472.58 634.94 443.99 634.94 403.56 663.53 374.98 703.95 374.98"/><polygon class="cls-4" points="688.75 401.26 718.8 456.41 654.46 462.39 688.75 401.26"/><polygon class="cls-5" points="709.08 412.9 728.91 447.68 711.91 464.69 704.55 472.5 674.83 472.5 709.08 412.9"/><polygon class="cls-6" points="666.83 386.19 706.39 470.2 704.1 472.5 687.55 472.5 663.65 472.5 638.37 447.22 666.83 386.19"/><polygon class="cls-7" points="666.83 472.5 690.77 472.5 704.55 472.5 706.85 470.2 666.83 386.19 666.83 386.19 666.87 468.82 666.83 472.5"/><polygon class="cls-8" points="709.15 467.9 728.91 447.68 709.15 412.9 709.15 412.9 709.15 467.9"/><polygon class="cls-9" points="666.83 385.88 684.79 423.78 679.16 421.12 674.88 423.86 669.57 417.01 666.83 423.86 659.3 417.01 657.93 423.86 653.82 420.44 649.02 423.86 666.83 385.88"/><polygon class="cls-10" points="709.15 412.75 719.26 430.67 715.24 428.66 713.13 430.71 709.08 427.97 705.25 430.71 703.6 427.29 698.8 430.71 709.15 412.75"/><polygon class="cls-11" points="666.83 385.88 666.83 423.86 669.57 417.01 674.88 423.86 679.16 421.12 684.79 423.78 666.83 385.88"/><polygon class="cls-11" points="709.15 412.75 709.08 427.97 713.13 430.71 715.24 428.66 719.26 430.67 709.15 412.75"/><polygon class="cls-12" points="703.95 374.98 732.54 403.56 732.54 443.99 703.95 472.58 663.53 472.58 634.94 443.99 634.94 403.56 663.53 374.98 703.95 374.98"/></svg>