<?xml version="1.0" encoding="utf-8"?>
<!-- Generator: Adobe Illustrator 24.0.1, SVG Export Plug-In . SVG Version: 6.00 Build 0)  -->
<svg version="1.1" id="Layer_1" xmlns="http://www.w3.org/2000/svg" xmlns:xlink="http://www.w3.org/1999/xlink" x="0px" y="0px"
	 viewBox="0 0 280 270" style="enable-background:new 0 0 280 270;" xml:space="preserve">
<style type="text/css">
	.st0{fill:#C6C3C1;}
	.st1{fill:#603B15;}
	.st2{fill:#FDD09C;}
	.st3{fill:#4E4533;}
	.st4{fill:#806339;}
	.st5{fill:#4B5484;}
	.st6{fill:#B47C2B;}
	.st7{fill:#715623;}
	.st8{fill:#86817E;}
	.st9{fill:#383530;}
	.st10{fill:#867E83;}
	.st11{fill:#1B0E21;}
	.st12{fill:#595257;}
	.st13{fill:#9B702A;}
	.st14{fill:#200E0A;}
	.st15{fill:#231F20;}
	.st16{fill:#FFE5AC;}
	.st17{fill:#C8822A;}
	.st18{fill:#4C4C41;}
	.st19{fill:none;stroke:#CAB42E;stroke-width:2;stroke-miterlimit:10;}
	.st20{fill:#CAB42E;}
	.st21{fill:#0C2315;}
	.st22{fill:#B6BFE1;}
	.st23{fill:#454B52;}
	.st24{fill:#E13E26;}
	.st25{fill:#C58E2B;}
	.st26{fill:#239B48;}
	.st27{fill:#364199;}
	.st28{fill:#575A64;}
	.st29{fill:#D7B681;}
	.st30{fill:#A79E90;}
	.st31{fill:#9BD8E0;}
	.st32{fill:#112112;}
	.st33{fill:#D44B27;}
	.st34{fill:#30A749;}
	.st35{fill:#575958;}
	.st36{fill:#040508;}
	.st37{fill:#68896F;}
	.st38{fill:#070707;}
	.st39{fill:#E62526;}
	.st40{fill:none;stroke:#1F803F;stroke-width:0.5;stroke-miterlimit:10;}
	.st41{fill:#76C380;}
</style>
<path class="st0" d="M266.72,228.05h-132c-2.75,0-5-2.25-5-5v-59.04c0-33,27-60,60-60h22c33,0,60,27,60,60v59.04
	C271.72,225.8,269.47,228.05,266.72,228.05z"/>
<path class="st1" d="M70.12,248.95h-3.66c-2.85,0-5.17-2.31-5.17-5.17v-20.26c0-2.85,2.31-5.17,5.17-5.17h3.66
	c2.85,0,5.17,2.31,5.17,5.17v20.26C75.28,246.63,72.97,248.95,70.12,248.95z"/>
<path class="st2" d="M62.86,107.22H48.23c-1.96,0-3.56-1.6-3.56-3.56V85.49c0-1.96,1.6-3.56,3.56-3.56h14.63
	c1.96,0,3.56,1.6,3.56,3.56v18.18C66.42,105.62,64.82,107.22,62.86,107.22z"/>
<path class="st2" d="M57.7,88.72h-4c-12.7,0-23-10.3-23-23v-38c0-10.49,8.51-19,19-19h12c10.49,0,19,8.51,19,19v38
	C80.7,78.42,70.4,88.72,57.7,88.72z"/>
<path class="st3" d="M50.4,35.56h-9c-1.1,0-2-0.9-2-2v0c0-1.1,0.9-2,2-2h9c1.1,0,2,0.9,2,2v0C52.4,34.66,51.5,35.56,50.4,35.56z"/>
<path class="st4" d="M83.88,49.12h-3.15V37.21h3.15c1.1,0,2,0.9,2,2v7.91C85.88,48.23,84.98,49.12,83.88,49.12z"/>
<circle class="st5" cx="45.9" cy="39.28" r="2.06"/>
<path class="st6" d="M56.55,52.65h-0.22c-1.1,0-2-0.9-2-2v-8.17c0-1.1,0.9-2,2-2h0.22c1.1,0,2,0.9,2,2v8.17
	C58.55,51.75,57.65,52.65,56.55,52.65z"/>
<path class="st3" d="M72.76,35.56h-9c-1.1,0-2-0.9-2-2v0c0-1.1,0.9-2,2-2h9c1.1,0,2,0.9,2,2v0C74.76,34.66,73.86,35.56,72.76,35.56z
	"/>
<circle class="st5" cx="68.26" cy="39.28" r="2.06"/>
<path class="st6" d="M58.88,52.72h-3.15v-2c0-1.1,0.9-2,2-2h1.15c1.1,0,2,0.9,2,2v0C60.88,51.83,59.98,52.72,58.88,52.72z"/>
<path class="st6" d="M56.66,52.72h-3.15c-1.1,0-2-0.9-2-2v0c0-1.1,0.9-2,2-2h1.15c1.1,0,2,0.9,2,2V52.72z"/>
<g>
	<g>
		<path class="st7" d="M45.59,63.63c0.45,2.55,1.06,5.01,2.66,7.11c1.43,1.87,3.5,3.28,5.84,3.67c5.13,0.84,9.07-3.14,10.97-7.49
			c0.51-1.17-1.21-2.19-1.73-1.01c-1.54,3.53-4.66,7.35-8.99,6.52c-1.92-0.37-3.6-1.57-4.71-3.16c-1.29-1.85-1.74-3.99-2.12-6.17
			C47.29,61.83,45.36,62.37,45.59,63.63L45.59,63.63z"/>
	</g>
</g>
<path class="st4" d="M27.59,49.71h3.15V37.8h-3.15c-1.1,0-2,0.9-2,2v7.91C25.59,48.81,26.48,49.71,27.59,49.71z"/>
<path class="st8" d="M61.73,8.72h-12c-10.49,0-19,8.51-19,19v19.6c1.92-0.15,3.83-0.26,5.75-0.2v-7.16c0-10.49,8.51-19,19-19h12
	c5.12,0,9.76,2.04,13.18,5.33C79.93,16.48,71.75,8.72,61.73,8.72z"/>
<g>
	<g>
		<path class="st9" d="M32.26,59.67c0.64,0,0.64-1,0-1C31.62,58.67,31.62,59.67,32.26,59.67L32.26,59.67z"/>
	</g>
</g>
<g>
	<g>
		<path class="st9" d="M36.43,59.67c0.64,0,0.64-1,0-1C35.78,58.67,35.78,59.67,36.43,59.67L36.43,59.67z"/>
	</g>
</g>
<g>
	<g>
		<path class="st9" d="M34.09,63.34c0.64,0,0.64-1,0-1C33.45,62.34,33.45,63.34,34.09,63.34L34.09,63.34z"/>
	</g>
</g>
<g>
	<g>
		<path class="st9" d="M40.43,63c0.64,0,0.64-1,0-1C39.78,62,39.78,63,40.43,63L40.43,63z"/>
	</g>
</g>
<g>
	<g>
		<path class="st9" d="M38.59,61.5c0.64,0,0.64-1,0-1C37.95,60.5,37.95,61.5,38.59,61.5L38.59,61.5z"/>
	</g>
</g>
<g>
	<g>
		<path class="st9" d="M38.26,68.17c0.64,0,0.64-1,0-1C37.62,67.17,37.62,68.17,38.26,68.17L38.26,68.17z"/>
	</g>
</g>
<g>
	<g>
		<path class="st9" d="M45.59,72.34c0.64,0,0.64-1,0-1C44.95,71.34,44.95,72.34,45.59,72.34L45.59,72.34z"/>
	</g>
</g>
<g>
	<g>
		<path class="st9" d="M43.43,67.5c0.64,0,0.64-1,0-1C42.78,66.5,42.78,67.5,43.43,67.5L43.43,67.5z"/>
	</g>
</g>
<g>
	<g>
		<path class="st9" d="M40.59,73.84c0.64,0,0.64-1,0-1C39.95,72.84,39.95,73.84,40.59,73.84L40.59,73.84z"/>
	</g>
</g>
<g>
	<g>
		<path class="st9" d="M33.26,70.84c0.64,0,0.64-1,0-1C32.62,69.84,32.62,70.84,33.26,70.84L33.26,70.84z"/>
	</g>
</g>
<g>
	<g>
		<path class="st9" d="M43.43,79.17c0.64,0,0.64-1,0-1C42.78,78.17,42.78,79.17,43.43,79.17L43.43,79.17z"/>
	</g>
</g>
<g>
	<g>
		<path class="st9" d="M53.09,81.17c0.64,0,0.64-1,0-1C52.45,80.17,52.45,81.17,53.09,81.17L53.09,81.17z"/>
	</g>
</g>
<g>
	<g>
		<path class="st9" d="M50.26,76.84c0.64,0,0.64-1,0-1C49.62,75.84,49.62,76.84,50.26,76.84L50.26,76.84z"/>
	</g>
</g>
<g>
	<g>
		<path class="st9" d="M49.26,82.67c0.64,0,0.64-1,0-1C48.62,81.67,48.62,82.67,49.26,82.67L49.26,82.67z"/>
	</g>
</g>
<g>
	<g>
		<path class="st9" d="M46.43,77.17c0.64,0,0.64-1,0-1C45.78,76.17,45.78,77.17,46.43,77.17L46.43,77.17z"/>
	</g>
</g>
<g>
	<g>
		<path class="st9" d="M46.43,84.5c0.64,0,0.64-1,0-1C45.78,83.5,45.78,84.5,46.43,84.5L46.43,84.5z"/>
	</g>
</g>
<g>
	<g>
		<path class="st9" d="M38.93,80.34c0.64,0,0.64-1,0-1C38.28,79.34,38.28,80.34,38.93,80.34L38.93,80.34z"/>
	</g>
</g>
<g>
	<g>
		<path class="st9" d="M37.09,76.34c0.64,0,0.64-1,0-1C36.45,75.34,36.45,76.34,37.09,76.34L37.09,76.34z"/>
	</g>
</g>
<g>
	<g>
		<path class="st9" d="M42.43,59.84c0.64,0,0.64-1,0-1C41.78,58.84,41.78,59.84,42.43,59.84L42.43,59.84z"/>
	</g>
</g>
<g>
	<g>
		<path class="st9" d="M47.59,58.67c0.64,0,0.64-1,0-1C46.95,57.67,46.95,58.67,47.59,58.67L47.59,58.67z"/>
	</g>
</g>
<g>
	<g>
		<path class="st9" d="M51.09,62.17c0.64,0,0.64-1,0-1C50.45,61.17,50.45,62.17,51.09,62.17L51.09,62.17z"/>
	</g>
</g>
<g>
	<g>
		<path class="st9" d="M55.76,60.84c0.64,0,0.64-1,0-1C55.12,59.84,55.12,60.84,55.76,60.84L55.76,60.84z"/>
	</g>
</g>
<g>
	<g>
		<path class="st9" d="M55.26,65.84c0.64,0,0.64-1,0-1C54.62,64.84,54.62,65.84,55.26,65.84L55.26,65.84z"/>
	</g>
</g>
<g>
	<g>
		<path class="st9" d="M61.26,63.5c0.64,0,0.64-1,0-1C60.62,62.5,60.61,63.5,61.26,63.5L61.26,63.5z"/>
	</g>
</g>
<g>
	<g>
		<path class="st9" d="M59.09,67.34c0.64,0,0.64-1,0-1C58.45,66.34,58.45,67.34,59.09,67.34L59.09,67.34z"/>
	</g>
</g>
<g>
	<g>
		<path class="st9" d="M64.76,64.67c0.64,0,0.64-1,0-1C64.12,63.67,64.11,64.67,64.76,64.67L64.76,64.67z"/>
	</g>
</g>
<g>
	<g>
		<path class="st9" d="M64.59,60.84c0.64,0,0.64-1,0-1C63.95,59.84,63.95,60.84,64.59,60.84L64.59,60.84z"/>
	</g>
</g>
<g>
	<g>
		<path class="st9" d="M67.93,60.17c0.64,0,0.64-1,0-1C67.28,59.17,67.28,60.17,67.93,60.17L67.93,60.17z"/>
	</g>
</g>
<g>
	<g>
		<path class="st9" d="M68.26,65c0.64,0,0.64-1,0-1C67.62,64,67.61,65,68.26,65L68.26,65z"/>
	</g>
</g>
<g>
	<g>
		<path class="st9" d="M71.09,63.67c0.64,0,0.64-1,0-1C70.45,62.67,70.45,63.67,71.09,63.67L71.09,63.67z"/>
	</g>
</g>
<g>
	<g>
		<path class="st9" d="M73.43,60.84c0.64,0,0.64-1,0-1C72.78,59.84,72.78,60.84,73.43,60.84L73.43,60.84z"/>
	</g>
</g>
<g>
	<g>
		<path class="st9" d="M77.26,62.34c0.64,0,0.64-1,0-1C76.61,61.34,76.61,62.34,77.26,62.34L77.26,62.34z"/>
	</g>
</g>
<g>
	<g>
		<path class="st9" d="M78.09,67.5c0.64,0,0.64-1,0-1C77.45,66.5,77.45,67.5,78.09,67.5L78.09,67.5z"/>
	</g>
</g>
<g>
	<g>
		<path class="st9" d="M71.93,66c0.64,0,0.64-1,0-1C71.28,65,71.28,66,71.93,66L71.93,66z"/>
	</g>
</g>
<g>
	<g>
		<path class="st9" d="M69.93,73.5c0.64,0,0.64-1,0-1C69.28,72.5,69.28,73.5,69.93,73.5L69.93,73.5z"/>
	</g>
</g>
<g>
	<g>
		<path class="st9" d="M73.76,71c0.64,0,0.64-1,0-1C73.11,70,73.11,71,73.76,71L73.76,71z"/>
	</g>
</g>
<g>
	<g>
		<path class="st9" d="M75.09,65.5c0.64,0,0.64-1,0-1C74.45,64.5,74.45,65.5,75.09,65.5L75.09,65.5z"/>
	</g>
</g>
<g>
	<g>
		<path class="st9" d="M77.26,73.67c0.64,0,0.64-1,0-1C76.61,72.67,76.61,73.67,77.26,73.67L77.26,73.67z"/>
	</g>
</g>
<g>
	<g>
		<path class="st9" d="M70.93,80c0.64,0,0.64-1,0-1C70.28,79,70.28,80,70.93,80L70.93,80z"/>
	</g>
</g>
<g>
	<g>
		<path class="st9" d="M73.09,76.34c0.64,0,0.64-1,0-1C72.45,75.34,72.45,76.34,73.09,76.34L73.09,76.34z"/>
	</g>
</g>
<g>
	<g>
		<path class="st9" d="M68.59,69.84c0.64,0,0.64-1,0-1C67.95,68.84,67.95,69.84,68.59,69.84L68.59,69.84z"/>
	</g>
</g>
<g>
	<g>
		<path class="st9" d="M64.93,73.84c0.64,0,0.64-1,0-1C64.28,72.84,64.28,73.84,64.93,73.84L64.93,73.84z"/>
	</g>
</g>
<g>
	<g>
		<path class="st9" d="M68.93,77.5c0.64,0,0.64-1,0-1C68.28,76.5,68.28,77.5,68.93,77.5L68.93,77.5z"/>
	</g>
</g>
<g>
	<g>
		<path class="st9" d="M62.76,76.84c0.64,0,0.64-1,0-1C62.12,75.84,62.11,76.84,62.76,76.84L62.76,76.84z"/>
	</g>
</g>
<g>
	<g>
		<path class="st9" d="M66.93,81.5c0.64,0,0.64-1,0-1C66.28,80.5,66.28,81.5,66.93,81.5L66.93,81.5z"/>
	</g>
</g>
<g>
	<g>
		<path class="st9" d="M63.26,82.67c0.64,0,0.64-1,0-1C62.62,81.67,62.61,82.67,63.26,82.67L63.26,82.67z"/>
	</g>
</g>
<g>
	<g>
		<path class="st9" d="M59.93,79.17c0.64,0,0.64-1,0-1C59.28,78.17,59.28,79.17,59.93,79.17L59.93,79.17z"/>
	</g>
</g>
<g>
	<g>
		<path class="st9" d="M55.26,77.84c0.64,0,0.64-1,0-1C54.62,76.84,54.62,77.84,55.26,77.84L55.26,77.84z"/>
	</g>
</g>
<g>
	<g>
		<path class="st9" d="M59.26,83.67c0.64,0,0.64-1,0-1C58.62,82.67,58.61,83.67,59.26,83.67L59.26,83.67z"/>
	</g>
</g>
<g>
	<g>
		<path class="st9" d="M55.43,85.84c0.64,0,0.64-1,0-1C54.78,84.84,54.78,85.84,55.43,85.84L55.43,85.84z"/>
	</g>
</g>
<g>
	<g>
		<path class="st9" d="M51.43,86c0.64,0,0.64-1,0-1C50.78,85,50.78,86,51.43,86L51.43,86z"/>
	</g>
</g>
<g>
	<g>
		<path class="st9" d="M56.59,81.5c0.64,0,0.64-1,0-1C55.95,80.5,55.95,81.5,56.59,81.5L56.59,81.5z"/>
	</g>
</g>
<g>
	<g>
		<path class="st9" d="M41.43,83.34c0.64,0,0.64-1,0-1C40.78,82.34,40.78,83.34,41.43,83.34L41.43,83.34z"/>
	</g>
</g>
<g>
	<g>
		<path class="st9" d="M64.09,86.84c0.64,0,0.64-1,0-1C63.45,85.84,63.45,86.84,64.09,86.84L64.09,86.84z"/>
	</g>
</g>
<g>
	<g>
		<path class="st9" d="M70.09,84.34c0.64,0,0.64-1,0-1C69.45,83.34,69.45,84.34,70.09,84.34L70.09,84.34z"/>
	</g>
</g>
<g>
	<g>
		<path class="st9" d="M65.59,78.34c0.64,0,0.64-1,0-1C64.95,77.34,64.95,78.34,65.59,78.34L65.59,78.34z"/>
	</g>
</g>
<g>
	<g>
		<path class="st9" d="M37.59,72.34c0.64,0,0.64-1,0-1C36.95,71.34,36.95,72.34,37.59,72.34L37.59,72.34z"/>
	</g>
</g>
<g>
	<g>
		<path class="st9" d="M33.26,66.67c0.64,0,0.64-1,0-1C32.62,65.67,32.62,66.67,33.26,66.67L33.26,66.67z"/>
	</g>
</g>
<g>
	<g>
		<path class="st9" d="M51.59,66.34c0.64,0,0.64-1,0-1C50.95,65.34,50.95,66.34,51.59,66.34L51.59,66.34z"/>
	</g>
</g>
<g>
	<g>
		<path class="st9" d="M55.43,70.17c0.64,0,0.64-1,0-1C54.78,69.17,54.78,70.17,55.43,70.17L55.43,70.17z"/>
	</g>
</g>
<g>
	<g>
		<path class="st9" d="M61.26,60c0.64,0,0.64-1,0-1C60.62,59,60.61,60,61.26,60L61.26,60z"/>
	</g>
</g>
<g>
	<g>
		<path class="st9" d="M57.93,63.5c0.64,0,0.64-1,0-1C57.28,62.5,57.28,63.5,57.93,63.5L57.93,63.5z"/>
	</g>
</g>
<g>
	<g>
		<path class="st9" d="M52.26,59c0.64,0,0.64-1,0-1C51.62,58,51.62,59,52.26,59L52.26,59z"/>
	</g>
</g>
<g>
	<g>
		<path class="st9" d="M45.26,62c0.64,0,0.64-1,0-1C44.62,61,44.62,62,45.26,62L45.26,62z"/>
	</g>
</g>
<g>
	<g>
		<path class="st9" d="M76.92,59.34c0.64,0,0.64-1,0-1C76.28,58.34,76.28,59.34,76.92,59.34L76.92,59.34z"/>
	</g>
</g>
<path class="st10" d="M77.07,168.11H33.76c-3.49,0-6.35-2.86-6.35-6.35v-55.65c0-3.49,2.86-6.35,6.35-6.35h43.31
	c3.49,0,6.35,2.86,6.35,6.35v55.65C83.42,165.25,80.56,168.11,77.07,168.11z"/>
<path class="st11" d="M71.96,122.16h-4.53c-1.59,0-2.89-1.3-2.89-2.89v-4.53c0-1.59,1.3-2.89,2.89-2.89h4.53
	c1.59,0,2.89,1.3,2.89,2.89v4.53C74.86,120.86,73.55,122.16,71.96,122.16z"/>
<path class="st12" d="M75.95,225.54H60.18V167.9c0-3.3,2.7-6,6-6h3.77c3.3,0,6,2.7,6,6V225.54z"/>
<g>
	<path class="st1" d="M9.28,265.23h42.16V241.9H27.28c-9.9,0-18,8.1-18,18V265.23z"/>
	
		<rect x="9.28" y="261.33" transform="matrix(-1 -4.486645e-11 4.486645e-11 -1 60.733 526.5587)" class="st13" width="42.16" height="3.9"/>
	
		<rect x="9.28" y="263.28" transform="matrix(-1 -4.490953e-11 4.490953e-11 -1 60.733 527.5337)" class="st14" width="42.16" height="0.98"/>
	<g>
		<g>
			<path class="st15" d="M17.86,244.97c-0.5,1.82,0.11,3.7,1.24,5.16c1.12,1.44,2.72,2.41,4.28,3.3c0.47,0.27,1.09,0.11,1.37-0.36
				c0.27-0.46,0.11-1.1-0.36-1.37c-1.32-0.75-2.61-1.5-3.61-2.66c-0.39-0.45-0.76-1.09-0.93-1.66c-0.1-0.34-0.16-0.6-0.17-0.88
				c-0.02-0.41,0-0.61,0.11-1c0.14-0.52-0.18-1.09-0.7-1.23C18.57,244.13,18,244.45,17.86,244.97L17.86,244.97z"/>
		</g>
	</g>
</g>
<path class="st1" d="M42.62,248.9h3.66c2.85,0,5.17-2.31,5.17-5.17v-20.26c0-2.85-2.31-5.17-5.17-5.17h-3.66
	c-2.85,0-5.17,2.31-5.17,5.17v20.26C37.45,246.59,39.77,248.9,42.62,248.9z"/>
<path class="st12" d="M36.68,225.72h15.77V167.9c0-3.3-2.7-6-6-6h-3.77c-3.3,0-6,2.7-6,6V225.72z"/>
<rect x="26.27" y="160.35" class="st15" width="56" height="7.77"/>
<path class="st10" d="M89.35,102.55h-5.21c-10.17,0-4.18,12.21-4.18,24.91v36.77h15.77v-36.77
	C95.73,114.76,98.41,105.45,89.35,102.55z"/>
<path class="st10" d="M21.74,103.09h5.21c10.17,0,4.18,12.21,4.18,24.91v36.77H15.36v-36.77C15.36,115.31,12.68,106,21.74,103.09z"
	/>
<circle class="st16" cx="22.12" cy="167.95" r="9.39"/>
<circle class="st16" cx="89.02" cy="167.15" r="9.39"/>
<rect x="44.69" y="94.58" class="st10" width="21.6" height="7.37"/>
<polygon class="st17" points="89.11,124.64 89.11,115.05 94.81,116.47 94.42,128.48 "/>
<path class="st18" d="M73.85,113.97h-8.46c-1.08,0-1.97-0.89-1.97-1.97v-1.22c0-1.08,0.89-1.97,1.97-1.97h8.46
	c1.08,0,1.97,0.89,1.97,1.97V112C75.82,113.09,74.93,113.97,73.85,113.97z"/>
<path class="st18" d="M69.7,120.4L69.7,120.4c-1.08,0-1.97-0.89-1.97-1.97l0,0c0-1.08,0.89-1.97,1.97-1.97l0,0
	c1.08,0,1.97,0.89,1.97,1.97l0,0C71.67,119.52,70.78,120.4,69.7,120.4z"/>
<rect x="54.05" y="94.75" transform="matrix(-1 -1.224647e-16 1.224647e-16 -1 111.0892 255.0947)" class="st18" width="2.98" height="65.6"/>
<path class="st11" d="M42.17,123.04h-4.53c-1.59,0-2.89-1.3-2.89-2.89v-4.53c0-1.59,1.3-2.89,2.89-2.89h4.53
	c1.59,0,2.89,1.3,2.89,2.89v4.53C45.07,121.74,43.76,123.04,42.17,123.04z"/>
<path class="st18" d="M43.4,114.8h-8.46c-1.08,0-1.97-0.89-1.97-1.97v-1.22c0-1.08,0.89-1.97,1.97-1.97h8.46
	c1.08,0,1.97,0.89,1.97,1.97v1.22C45.37,113.91,44.48,114.8,43.4,114.8z"/>
<path class="st18" d="M39.7,120.43L39.7,120.43c-1.08,0-1.97-0.89-1.97-1.97l0,0c0-1.08,0.89-1.97,1.97-1.97h0
	c1.08,0,1.97,0.89,1.97,1.97l0,0C41.67,119.54,40.78,120.43,39.7,120.43z"/>
<path class="st19" d="M58.8,168.67h-7.44c-2.06,0-3.74-1.68-3.74-3.74v-3.96c0-2.06,1.68-3.74,3.74-3.74h7.44
	c2.06,0,3.74,1.68,3.74,3.74v3.96C62.54,166.99,60.86,168.67,58.8,168.67z"/>
<rect x="55.49" y="161.41" class="st20" width="6.55" height="3.09"/>
<g>
	<path class="st1" d="M103.45,265.28H61.29v-23.33h24.16c9.9,0,18,8.1,18,18V265.28z"/>
	<rect x="61.29" y="261.38" class="st13" width="42.16" height="3.9"/>
	<rect x="61.29" y="263.33" class="st14" width="42.16" height="0.98"/>
	<g>
		<g>
			<path class="st15" d="M92.95,245.55c0.17,0.62,0.14,1.17-0.05,1.82c-0.18,0.59-0.55,1.25-0.95,1.72c-1,1.15-2.29,1.9-3.61,2.66
				c-0.47,0.27-0.63,0.91-0.36,1.37c0.28,0.47,0.9,0.63,1.37,0.36c1.57-0.89,3.16-1.86,4.28-3.3c1.13-1.45,1.74-3.33,1.24-5.16
				c-0.14-0.52-0.71-0.84-1.23-0.7C93.12,244.46,92.81,245.03,92.95,245.55L92.95,245.55z"/>
		</g>
	</g>
</g>
<path class="st21" d="M75.87,200.1H73.2c-1.1,0-2-0.9-2-2v-8.87c0-1.1,0.9-2,2-2h2.68c1.1,0,2,0.9,2,2v8.87
	C77.87,199.2,76.97,200.1,75.87,200.1z"/>
<path class="st22" d="M76.97,195.16h-1c-1.1,0-2-0.9-2-2v-0.21c0-1.1,0.9-2,2-2h1c0.55,0,1,0.45,1,1v2.21
	C77.97,194.71,77.52,195.16,76.97,195.16z"/>
<path class="st21" d="M37.83,200.1h2.68c1.1,0,2-0.9,2-2v-8.87c0-1.1-0.9-2-2-2h-2.68c-1.1,0-2,0.9-2,2v8.87
	C35.83,199.2,36.73,200.1,37.83,200.1z"/>
<path class="st22" d="M36.83,195.16h1c1.1,0,2-0.9,2-2v-0.21c0-1.1-0.9-2-2-2h-1c-0.55,0-1,0.45-1,1v2.21
	C35.83,194.71,36.28,195.16,36.83,195.16z"/>
<g>
	<path class="st23" d="M227.37,182.85h-6.66c-1.86,0-3.38,1.52-3.38,3.38v19.54h0c-2.43,0.99-8.5,0-8.5,0
		c-0.49,0-0.89-0.4-0.89-0.89v-24.65c0-1.86-1.52-3.38-3.38-3.38h-6.66c-1.86,0-3.38,1.52-3.38,3.38v25.54h0
		c-2.69,0.99-9.14,0.99-10.44,0h0v-19.54c0-1.86-1.52-3.38-3.38-3.38h-6.66c-1.86,0-3.38,1.52-3.38,3.38v27.59v1.2v0
		c0,4.44,3.63,8.08,8.08,8.08h0h1.99h17.13h6.72h16.08h1.98h1.52c3.61,0,6.56-2.95,6.56-6.56v-1.52v-2.7v-26.07
		C230.75,184.37,229.23,182.85,227.37,182.85z"/>
</g>
<path class="st24" d="M184.37,192.91h-0.3v-5.02h0.3c0.55,0,1,0.45,1,1v3.02C185.37,192.46,184.92,192.91,184.37,192.91z"/>
<path class="st24" d="M217.07,192.91h0.3v-5.02h-0.3c-0.55,0-1,0.45-1,1v3.02C216.07,192.46,216.51,192.91,217.07,192.91z"/>
<path class="st25" d="M204.47,176.55v0.3h-5.02v-0.3c0-0.55,0.45-1,1-1h3.02C204.02,175.55,204.47,176,204.47,176.55z"/>
<path class="st26" d="M184.37,197.41h-0.3v-3.42h0.3c0.55,0,1,0.45,1,1v1.42C185.37,196.96,184.92,197.41,184.37,197.41z"/>
<path class="st27" d="M217.07,197.38h0.3v-3.42h-0.3c-0.55,0-1,0.45-1,1v1.42C216.07,196.93,216.51,197.38,217.07,197.38z"/>
<path class="st28" d="M180.19,206.14h-5.58c-0.55,0-1-0.45-1-1v-17.8c0-1.1,0.9-2,2-2h3.58c1.1,0,2,0.9,2,2v17.8
	C181.19,205.69,180.75,206.14,180.19,206.14z"/>
<path class="st28" d="M227.02,205.72h-5.58c-0.55,0-1-0.45-1-1v-17.8c0-1.1,0.9-2,2-2h3.58c1.1,0,2,0.9,2,2v17.8
	C228.02,205.28,227.58,205.72,227.02,205.72z"/>
<circle class="st29" cx="198.71" cy="182.03" r="2"/>
<circle class="st29" cx="204.47" cy="182.03" r="2"/>
<circle class="st30" cx="197.9" cy="187.16" r="1.27"/>
<circle class="st30" cx="197.9" cy="190.4" r="1.27"/>
<circle class="st30" cx="197.9" cy="193.64" r="1.27"/>
<path class="st31" d="M194.62,171.97h-57c-1.65,0-3-1.35-3-3v-2c0-33,27-60,60-60h0c1.66,0,3,1.34,3,3v59
	C197.62,170.62,196.27,171.97,194.62,171.97z"/>
<path class="st31" d="M206.97,171.97h57c1.65,0,3-1.35,3-3v-2c0-33-27-60-60-60h0c-1.66,0-3,1.34-3,3v59
	C203.97,170.62,205.32,171.97,206.97,171.97z"/>
<circle class="st32" cx="139.56" cy="187.16" r="3.2"/>
<circle class="st32" cx="139.56" cy="194.91" r="3.2"/>
<circle class="st32" cx="139.56" cy="202.66" r="3.2"/>
<circle class="st33" cx="139.56" cy="187.16" r="1.48"/>
<circle class="st34" cx="139.56" cy="194.91" r="1.48"/>
<rect x="197.97" y="223.09" class="st35" width="7.96" height="4.95"/>
<circle class="st36" cx="250.67" cy="196.09" r="16.42"/>
<path class="st37" d="M156.67,191.1l-9.35-4.66c2.56-5.13,8.88-7.24,14.01-4.68c2.15,1.07,3.86,2.85,4.85,5.04L156.67,191.1z"/>
<rect x="154.44" y="186.2" transform="matrix(0.3712 -0.9286 0.9286 0.3712 -73.8634 264.3229)" class="st38" width="7.57" height="1"/>
<path class="st39" d="M156.67,191.04l-9.9-3.34c0.24-0.73,0.57-1.42,0.96-2.08c0.4-0.65,0.86-1.26,1.39-1.82L156.67,191.04z"/>
<circle class="st40" cx="250.67" cy="196.09" r="16.42"/>
<circle class="st40" cx="250.8" cy="196.47" r="13.3"/>
<circle class="st40" cx="250.67" cy="196.09" r="10.24"/>
<circle class="st40" cx="250.8" cy="196.47" r="7.05"/>
<circle class="st40" cx="250.8" cy="196.47" r="4.29"/>
<rect x="245.76" y="188.96" transform="matrix(0.3712 -0.9286 0.9286 0.3712 -16.2892 354.5409)" class="st41" width="15.73" height="0.67"/>
<path class="st0" d="M266.72,228.05h-132c-2.75,0-5-2.25-5-5v-59.04c0-33,27-60,60-60h22c33,0,60,27,60,60v59.04
	C271.72,225.8,269.47,228.05,266.72,228.05z"/>
<path class="st1" d="M70.12,248.95h-3.66c-2.85,0-5.17-2.31-5.17-5.17v-20.26c0-2.85,2.31-5.17,5.17-5.17h3.66
	c2.85,0,5.17,2.31,5.17,5.17v20.26C75.28,246.63,72.97,248.95,70.12,248.95z"/>
<path class="st2" d="M62.86,107.22H48.23c-1.96,0-3.56-1.6-3.56-3.56V85.49c0-1.96,1.6-3.56,3.56-3.56h14.63
	c1.96,0,3.56,1.6,3.56,3.56v18.18C66.42,105.62,64.82,107.22,62.86,107.22z"/>
<path class="st2" d="M57.7,88.72h-4c-12.7,0-23-10.3-23-23v-38c0-10.49,8.51-19,19-19h12c10.49,0,19,8.51,19,19v38
	C80.7,78.42,70.4,88.72,57.7,88.72z"/>
<path class="st3" d="M50.4,35.56h-9c-1.1,0-2-0.9-2-2v0c0-1.1,0.9-2,2-2h9c1.1,0,2,0.9,2,2v0C52.4,34.66,51.5,35.56,50.4,35.56z"/>
<path class="st4" d="M83.88,49.12h-3.15V37.21h3.15c1.1,0,2,0.9,2,2v7.91C85.88,48.23,84.98,49.12,83.88,49.12z"/>
<circle class="st5" cx="45.9" cy="39.28" r="2.06"/>
<path class="st6" d="M56.55,52.65h-0.22c-1.1,0-2-0.9-2-2v-8.17c0-1.1,0.9-2,2-2h0.22c1.1,0,2,0.9,2,2v8.17
	C58.55,51.75,57.65,52.65,56.55,52.65z"/>
<path class="st3" d="M72.76,35.56h-9c-1.1,0-2-0.9-2-2v0c0-1.1,0.9-2,2-2h9c1.1,0,2,0.9,2,2v0C74.76,34.66,73.86,35.56,72.76,35.56z
	"/>
<circle class="st5" cx="68.26" cy="39.28" r="2.06"/>
<path class="st6" d="M58.88,52.72h-3.15v-2c0-1.1,0.9-2,2-2h1.15c1.1,0,2,0.9,2,2v0C60.88,51.83,59.98,52.72,58.88,52.72z"/>
<path class="st6" d="M56.66,52.72h-3.15c-1.1,0-2-0.9-2-2v0c0-1.1,0.9-2,2-2h1.15c1.1,0,2,0.9,2,2V52.72z"/>
<g>
	<g>
		<path class="st7" d="M45.59,63.63c0.45,2.55,1.06,5.01,2.66,7.11c1.43,1.87,3.5,3.28,5.84,3.67c5.13,0.84,9.07-3.14,10.97-7.49
			c0.51-1.17-1.21-2.19-1.73-1.01c-1.54,3.53-4.66,7.35-8.99,6.52c-1.92-0.37-3.6-1.57-4.71-3.16c-1.29-1.85-1.74-3.99-2.12-6.17
			C47.29,61.83,45.36,62.37,45.59,63.63L45.59,63.63z"/>
	</g>
</g>
<path class="st4" d="M27.59,49.71h3.15V37.8h-3.15c-1.1,0-2,0.9-2,2v7.91C25.59,48.81,26.48,49.71,27.59,49.71z"/>
<path class="st8" d="M61.73,8.72h-12c-10.49,0-19,8.51-19,19v19.6c1.92-0.15,3.83-0.26,5.75-0.2v-7.16c0-10.49,8.51-19,19-19h12
	c5.12,0,9.76,2.04,13.18,5.33C79.93,16.48,71.75,8.72,61.73,8.72z"/>
<g>
	<g>
		<path class="st9" d="M32.26,59.67c0.64,0,0.64-1,0-1C31.62,58.67,31.62,59.67,32.26,59.67L32.26,59.67z"/>
	</g>
</g>
<g>
	<g>
		<path class="st9" d="M36.43,59.67c0.64,0,0.64-1,0-1C35.78,58.67,35.78,59.67,36.43,59.67L36.43,59.67z"/>
	</g>
</g>
<g>
	<g>
		<path class="st9" d="M34.09,63.34c0.64,0,0.64-1,0-1C33.45,62.34,33.45,63.34,34.09,63.34L34.09,63.34z"/>
	</g>
</g>
<g>
	<g>
		<path class="st9" d="M40.43,63c0.64,0,0.64-1,0-1C39.78,62,39.78,63,40.43,63L40.43,63z"/>
	</g>
</g>
<g>
	<g>
		<path class="st9" d="M38.59,61.5c0.64,0,0.64-1,0-1C37.95,60.5,37.95,61.5,38.59,61.5L38.59,61.5z"/>
	</g>
</g>
<g>
	<g>
		<path class="st9" d="M38.26,68.17c0.64,0,0.64-1,0-1C37.62,67.17,37.62,68.17,38.26,68.17L38.26,68.17z"/>
	</g>
</g>
<g>
	<g>
		<path class="st9" d="M45.59,72.34c0.64,0,0.64-1,0-1C44.95,71.34,44.95,72.34,45.59,72.34L45.59,72.34z"/>
	</g>
</g>
<g>
	<g>
		<path class="st9" d="M43.43,67.5c0.64,0,0.64-1,0-1C42.78,66.5,42.78,67.5,43.43,67.5L43.43,67.5z"/>
	</g>
</g>
<g>
	<g>
		<path class="st9" d="M40.59,73.84c0.64,0,0.64-1,0-1C39.95,72.84,39.95,73.84,40.59,73.84L40.59,73.84z"/>
	</g>
</g>
<g>
	<g>
		<path class="st9" d="M33.26,70.84c0.64,0,0.64-1,0-1C32.62,69.84,32.62,70.84,33.26,70.84L33.26,70.84z"/>
	</g>
</g>
<g>
	<g>
		<path class="st9" d="M43.43,79.17c0.64,0,0.64-1,0-1C42.78,78.17,42.78,79.17,43.43,79.17L43.43,79.17z"/>
	</g>
</g>
<g>
	<g>
		<path class="st9" d="M53.09,81.17c0.64,0,0.64-1,0-1C52.45,80.17,52.45,81.17,53.09,81.17L53.09,81.17z"/>
	</g>
</g>
<g>
	<g>
		<path class="st9" d="M50.26,76.84c0.64,0,0.64-1,0-1C49.62,75.84,49.62,76.84,50.26,76.84L50.26,76.84z"/>
	</g>
</g>
<g>
	<g>
		<path class="st9" d="M49.26,82.67c0.64,0,0.64-1,0-1C48.62,81.67,48.62,82.67,49.26,82.67L49.26,82.67z"/>
	</g>
</g>
<g>
	<g>
		<path class="st9" d="M46.43,77.17c0.64,0,0.64-1,0-1C45.78,76.17,45.78,77.17,46.43,77.17L46.43,77.17z"/>
	</g>
</g>
<g>
	<g>
		<path class="st9" d="M46.43,84.5c0.64,0,0.64-1,0-1C45.78,83.5,45.78,84.5,46.43,84.5L46.43,84.5z"/>
	</g>
</g>
<g>
	<g>
		<path class="st9" d="M38.93,80.34c0.64,0,0.64-1,0-1C38.28,79.34,38.28,80.34,38.93,80.34L38.93,80.34z"/>
	</g>
</g>
<g>
	<g>
		<path class="st9" d="M37.09,76.34c0.64,0,0.64-1,0-1C36.45,75.34,36.45,76.34,37.09,76.34L37.09,76.34z"/>
	</g>
</g>
<g>
	<g>
		<path class="st9" d="M42.43,59.84c0.64,0,0.64-1,0-1C41.78,58.84,41.78,59.84,42.43,59.84L42.43,59.84z"/>
	</g>
</g>
<g>
	<g>
		<path class="st9" d="M47.59,58.67c0.64,0,0.64-1,0-1C46.95,57.67,46.95,58.67,47.59,58.67L47.59,58.67z"/>
	</g>
</g>
<g>
	<g>
		<path class="st9" d="M51.09,62.17c0.64,0,0.64-1,0-1C50.45,61.17,50.45,62.17,51.09,62.17L51.09,62.17z"/>
	</g>
</g>
<g>
	<g>
		<path class="st9" d="M55.76,60.84c0.64,0,0.64-1,0-1C55.12,59.84,55.12,60.84,55.76,60.84L55.76,60.84z"/>
	</g>
</g>
<g>
	<g>
		<path class="st9" d="M55.26,65.84c0.64,0,0.64-1,0-1C54.62,64.84,54.62,65.84,55.26,65.84L55.26,65.84z"/>
	</g>
</g>
<g>
	<g>
		<path class="st9" d="M61.26,63.5c0.64,0,0.64-1,0-1C60.62,62.5,60.61,63.5,61.26,63.5L61.26,63.5z"/>
	</g>
</g>
<g>
	<g>
		<path class="st9" d="M59.09,67.34c0.64,0,0.64-1,0-1C58.45,66.34,58.45,67.34,59.09,67.34L59.09,67.34z"/>
	</g>
</g>
<g>
	<g>
		<path class="st9" d="M64.76,64.67c0.64,0,0.64-1,0-1C64.12,63.67,64.11,64.67,64.76,64.67L64.76,64.67z"/>
	</g>
</g>
<g>
	<g>
		<path class="st9" d="M64.59,60.84c0.64,0,0.64-1,0-1C63.95,59.84,63.95,60.84,64.59,60.84L64.59,60.84z"/>
	</g>
</g>
<g>
	<g>
		<path class="st9" d="M67.93,60.17c0.64,0,0.64-1,0-1C67.28,59.17,67.28,60.17,67.93,60.17L67.93,60.17z"/>
	</g>
</g>
<g>
	<g>
		<path class="st9" d="M68.26,65c0.64,0,0.64-1,0-1C67.62,64,67.61,65,68.26,65L68.26,65z"/>
	</g>
</g>
<g>
	<g>
		<path class="st9" d="M71.09,63.67c0.64,0,0.64-1,0-1C70.45,62.67,70.45,63.67,71.09,63.67L71.09,63.67z"/>
	</g>
</g>
<g>
	<g>
		<path class="st9" d="M73.43,60.84c0.64,0,0.64-1,0-1C72.78,59.84,72.78,60.84,73.43,60.84L73.43,60.84z"/>
	</g>
</g>
<g>
	<g>
		<path class="st9" d="M77.26,62.34c0.64,0,0.64-1,0-1C76.61,61.34,76.61,62.34,77.26,62.34L77.26,62.34z"/>
	</g>
</g>
<g>
	<g>
		<path class="st9" d="M78.09,67.5c0.64,0,0.64-1,0-1C77.45,66.5,77.45,67.5,78.09,67.5L78.09,67.5z"/>
	</g>
</g>
<g>
	<g>
		<path class="st9" d="M71.93,66c0.64,0,0.64-1,0-1C71.28,65,71.28,66,71.93,66L71.93,66z"/>
	</g>
</g>
<g>
	<g>
		<path class="st9" d="M69.93,73.5c0.64,0,0.64-1,0-1C69.28,72.5,69.28,73.5,69.93,73.5L69.93,73.5z"/>
	</g>
</g>
<g>
	<g>
		<path class="st9" d="M73.76,71c0.64,0,0.64-1,0-1C73.11,70,73.11,71,73.76,71L73.76,71z"/>
	</g>
</g>
<g>
	<g>
		<path class="st9" d="M75.09,65.5c0.64,0,0.64-1,0-1C74.45,64.5,74.45,65.5,75.09,65.5L75.09,65.5z"/>
	</g>
</g>
<g>
	<g>
		<path class="st9" d="M77.26,73.67c0.64,0,0.64-1,0-1C76.61,72.67,76.61,73.67,77.26,73.67L77.26,73.67z"/>
	</g>
</g>
<g>
	<g>
		<path class="st9" d="M70.93,80c0.64,0,0.64-1,0-1C70.28,79,70.28,80,70.93,80L70.93,80z"/>
	</g>
</g>
<g>
	<g>
		<path class="st9" d="M73.09,76.34c0.64,0,0.64-1,0-1C72.45,75.34,72.45,76.34,73.09,76.34L73.09,76.34z"/>
	</g>
</g>
<g>
	<g>
		<path class="st9" d="M68.59,69.84c0.64,0,0.64-1,0-1C67.95,68.84,67.95,69.84,68.59,69.84L68.59,69.84z"/>
	</g>
</g>
<g>
	<g>
		<path class="st9" d="M64.93,73.84c0.64,0,0.64-1,0-1C64.28,72.84,64.28,73.84,64.93,73.84L64.93,73.84z"/>
	</g>
</g>
<g>
	<g>
		<path class="st9" d="M68.93,77.5c0.64,0,0.64-1,0-1C68.28,76.5,68.28,77.5,68.93,77.5L68.93,77.5z"/>
	</g>
</g>
<g>
	<g>
		<path class="st9" d="M62.76,76.84c0.64,0,0.64-1,0-1C62.12,75.84,62.11,76.84,62.76,76.84L62.76,76.84z"/>
	</g>
</g>
<g>
	<g>
		<path class="st9" d="M66.93,81.5c0.64,0,0.64-1,0-1C66.28,80.5,66.28,81.5,66.93,81.5L66.93,81.5z"/>
	</g>
</g>
<g>
	<g>
		<path class="st9" d="M63.26,82.67c0.64,0,0.64-1,0-1C62.62,81.67,62.61,82.67,63.26,82.67L63.26,82.67z"/>
	</g>
</g>
<g>
	<g>
		<path class="st9" d="M59.93,79.17c0.64,0,0.64-1,0-1C59.28,78.17,59.28,79.17,59.93,79.17L59.93,79.17z"/>
	</g>
</g>
<g>
	<g>
		<path class="st9" d="M55.26,77.84c0.64,0,0.64-1,0-1C54.62,76.84,54.62,77.84,55.26,77.84L55.26,77.84z"/>
	</g>
</g>
<g>
	<g>
		<path class="st9" d="M59.26,83.67c0.64,0,0.64-1,0-1C58.62,82.67,58.61,83.67,59.26,83.67L59.26,83.67z"/>
	</g>
</g>
<g>
	<g>
		<path class="st9" d="M55.43,85.84c0.64,0,0.64-1,0-1C54.78,84.84,54.78,85.84,55.43,85.84L55.43,85.84z"/>
	</g>
</g>
<g>
	<g>
		<path class="st9" d="M51.43,86c0.64,0,0.64-1,0-1C50.78,85,50.78,86,51.43,86L51.43,86z"/>
	</g>
</g>
<g>
	<g>
		<path class="st9" d="M56.59,81.5c0.64,0,0.64-1,0-1C55.95,80.5,55.95,81.5,56.59,81.5L56.59,81.5z"/>
	</g>
</g>
<g>
	<g>
		<path class="st9" d="M41.43,83.34c0.64,0,0.64-1,0-1C40.78,82.34,40.78,83.34,41.43,83.34L41.43,83.34z"/>
	</g>
</g>
<g>
	<g>
		<path class="st9" d="M64.09,86.84c0.64,0,0.64-1,0-1C63.45,85.84,63.45,86.84,64.09,86.84L64.09,86.84z"/>
	</g>
</g>
<g>
	<g>
		<path class="st9" d="M70.09,84.34c0.64,0,0.64-1,0-1C69.45,83.34,69.45,84.34,70.09,84.34L70.09,84.34z"/>
	</g>
</g>
<g>
	<g>
		<path class="st9" d="M65.59,78.34c0.64,0,0.64-1,0-1C64.95,77.34,64.95,78.34,65.59,78.34L65.59,78.34z"/>
	</g>
</g>
<g>
	<g>
		<path class="st9" d="M37.59,72.34c0.64,0,0.64-1,0-1C36.95,71.34,36.95,72.34,37.59,72.34L37.59,72.34z"/>
	</g>
</g>
<g>
	<g>
		<path class="st9" d="M33.26,66.67c0.64,0,0.64-1,0-1C32.62,65.67,32.62,66.67,33.26,66.67L33.26,66.67z"/>
	</g>
</g>
<g>
	<g>
		<path class="st9" d="M51.59,66.34c0.64,0,0.64-1,0-1C50.95,65.34,50.95,66.34,51.59,66.34L51.59,66.34z"/>
	</g>
</g>
<g>
	<g>
		<path class="st9" d="M55.43,70.17c0.64,0,0.64-1,0-1C54.78,69.17,54.78,70.17,55.43,70.17L55.43,70.17z"/>
	</g>
</g>
<g>
	<g>
		<path class="st9" d="M61.26,60c0.64,0,0.64-1,0-1C60.62,59,60.61,60,61.26,60L61.26,60z"/>
	</g>
</g>
<g>
	<g>
		<path class="st9" d="M57.93,63.5c0.64,0,0.64-1,0-1C57.28,62.5,57.28,63.5,57.93,63.5L57.93,63.5z"/>
	</g>
</g>
<g>
	<g>
		<path class="st9" d="M52.26,59c0.64,0,0.64-1,0-1C51.62,58,51.62,59,52.26,59L52.26,59z"/>
	</g>
</g>
<g>
	<g>
		<path class="st9" d="M45.26,62c0.64,0,0.64-1,0-1C44.62,61,44.62,62,45.26,62L45.26,62z"/>
	</g>
</g>
<g>
	<g>
		<path class="st9" d="M76.92,59.34c0.64,0,0.64-1,0-1C76.28,58.34,76.28,59.34,76.92,59.34L76.92,59.34z"/>
	</g>
</g>
<path class="st10" d="M77.07,168.11H33.76c-3.49,0-6.35-2.86-6.35-6.35v-55.65c0-3.49,2.86-6.35,6.35-6.35h43.31
	c3.49,0,6.35,2.86,6.35,6.35v55.65C83.42,165.25,80.56,168.11,77.07,168.11z"/>
<path class="st11" d="M71.96,122.16h-4.53c-1.59,0-2.89-1.3-2.89-2.89v-4.53c0-1.59,1.3-2.89,2.89-2.89h4.53
	c1.59,0,2.89,1.3,2.89,2.89v4.53C74.86,120.86,73.55,122.16,71.96,122.16z"/>
<path class="st12" d="M75.95,225.54H60.18V167.9c0-3.3,2.7-6,6-6h3.77c3.3,0,6,2.7,6,6V225.54z"/>
<g>
	<path class="st1" d="M9.28,265.23h42.16V241.9H27.28c-9.9,0-18,8.1-18,18V265.23z"/>
	
		<rect x="9.28" y="261.33" transform="matrix(-1 -4.486645e-11 4.486645e-11 -1 60.733 526.5587)" class="st13" width="42.16" height="3.9"/>
	
		<rect x="9.28" y="263.28" transform="matrix(-1 -4.490953e-11 4.490953e-11 -1 60.733 527.5337)" class="st14" width="42.16" height="0.98"/>
	<g>
		<g>
			<path class="st15" d="M17.86,244.97c-0.5,1.82,0.11,3.7,1.24,5.16c1.12,1.44,2.72,2.41,4.28,3.3c0.47,0.27,1.09,0.11,1.37-0.36
				c0.27-0.46,0.11-1.1-0.36-1.37c-1.32-0.75-2.61-1.5-3.61-2.66c-0.39-0.45-0.76-1.09-0.93-1.66c-0.1-0.34-0.16-0.6-0.17-0.88
				c-0.02-0.41,0-0.61,0.11-1c0.14-0.52-0.18-1.09-0.7-1.23C18.57,244.13,18,244.45,17.86,244.97L17.86,244.97z"/>
		</g>
	</g>
</g>
<path class="st1" d="M42.62,248.9h3.66c2.85,0,5.17-2.31,5.17-5.17v-20.26c0-2.85-2.31-5.17-5.17-5.17h-3.66
	c-2.85,0-5.17,2.31-5.17,5.17v20.26C37.45,246.59,39.77,248.9,42.62,248.9z"/>
<path class="st12" d="M36.68,225.72h15.77V167.9c0-3.3-2.7-6-6-6h-3.77c-3.3,0-6,2.7-6,6V225.72z"/>
<rect x="26.27" y="160.35" class="st15" width="56" height="7.77"/>
<path class="st10" d="M89.35,102.55h-5.21c-10.17,0-4.18,12.21-4.18,24.91v36.77h15.77v-36.77
	C95.73,114.76,98.41,105.45,89.35,102.55z"/>
<path class="st10" d="M21.74,103.09h5.21c10.17,0,4.18,12.21,4.18,24.91v36.77H15.36v-36.77C15.36,115.31,12.68,106,21.74,103.09z"
	/>
<circle class="st16" cx="22.12" cy="167.95" r="9.39"/>
<circle class="st16" cx="89.02" cy="167.15" r="9.39"/>
<rect x="44.69" y="94.58" class="st10" width="21.6" height="7.37"/>
<polygon class="st17" points="89.11,124.64 89.11,115.05 94.81,116.47 94.42,128.48 "/>
<path class="st18" d="M73.85,113.97h-8.46c-1.08,0-1.97-0.89-1.97-1.97v-1.22c0-1.08,0.89-1.97,1.97-1.97h8.46
	c1.08,0,1.97,0.89,1.97,1.97V112C75.82,113.09,74.93,113.97,73.85,113.97z"/>
<path class="st18" d="M69.7,120.4L69.7,120.4c-1.08,0-1.97-0.89-1.97-1.97l0,0c0-1.08,0.89-1.97,1.97-1.97l0,0
	c1.08,0,1.97,0.89,1.97,1.97l0,0C71.67,119.52,70.78,120.4,69.7,120.4z"/>
<rect x="54.05" y="94.75" transform="matrix(-1 -1.224647e-16 1.224647e-16 -1 111.0892 255.0947)" class="st18" width="2.98" height="65.6"/>
<path class="st11" d="M42.17,123.04h-4.53c-1.59,0-2.89-1.3-2.89-2.89v-4.53c0-1.59,1.3-2.89,2.89-2.89h4.53
	c1.59,0,2.89,1.3,2.89,2.89v4.53C45.07,121.74,43.76,123.04,42.17,123.04z"/>
<path class="st18" d="M43.4,114.8h-8.46c-1.08,0-1.97-0.89-1.97-1.97v-1.22c0-1.08,0.89-1.97,1.97-1.97h8.46
	c1.08,0,1.97,0.89,1.97,1.97v1.22C45.37,113.91,44.48,114.8,43.4,114.8z"/>
<path class="st18" d="M39.7,120.43L39.7,120.43c-1.08,0-1.97-0.89-1.97-1.97l0,0c0-1.08,0.89-1.97,1.97-1.97h0
	c1.08,0,1.97,0.89,1.97,1.97l0,0C41.67,119.54,40.78,120.43,39.7,120.43z"/>
<path class="st19" d="M58.8,168.67h-7.44c-2.06,0-3.74-1.68-3.74-3.74v-3.96c0-2.06,1.68-3.74,3.74-3.74h7.44
	c2.06,0,3.74,1.68,3.74,3.74v3.96C62.54,166.99,60.86,168.67,58.8,168.67z"/>
<rect x="55.49" y="161.41" class="st20" width="6.55" height="3.09"/>
<g>
	<path class="st1" d="M103.45,265.28H61.29v-23.33h24.16c9.9,0,18,8.1,18,18V265.28z"/>
	<rect x="61.29" y="261.38" class="st13" width="42.16" height="3.9"/>
	<rect x="61.29" y="263.33" class="st14" width="42.16" height="0.98"/>
	<g>
		<g>
			<path class="st15" d="M92.95,245.55c0.17,0.62,0.14,1.17-0.05,1.82c-0.18,0.59-0.55,1.25-0.95,1.72c-1,1.15-2.29,1.9-3.61,2.66
				c-0.47,0.27-0.63,0.91-0.36,1.37c0.28,0.47,0.9,0.63,1.37,0.36c1.57-0.89,3.16-1.86,4.28-3.3c1.13-1.45,1.74-3.33,1.24-5.16
				c-0.14-0.52-0.71-0.84-1.23-0.7C93.12,244.46,92.81,245.03,92.95,245.55L92.95,245.55z"/>
		</g>
	</g>
</g>
<path class="st21" d="M75.87,200.1H73.2c-1.1,0-2-0.9-2-2v-8.87c0-1.1,0.9-2,2-2h2.68c1.1,0,2,0.9,2,2v8.87
	C77.87,199.2,76.97,200.1,75.87,200.1z"/>
<path class="st22" d="M76.97,195.16h-1c-1.1,0-2-0.9-2-2v-0.21c0-1.1,0.9-2,2-2h1c0.55,0,1,0.45,1,1v2.21
	C77.97,194.71,77.52,195.16,76.97,195.16z"/>
<path class="st21" d="M37.83,200.1h2.68c1.1,0,2-0.9,2-2v-8.87c0-1.1-0.9-2-2-2h-2.68c-1.1,0-2,0.9-2,2v8.87
	C35.83,199.2,36.73,200.1,37.83,200.1z"/>
<path class="st22" d="M36.83,195.16h1c1.1,0,2-0.9,2-2v-0.21c0-1.1-0.9-2-2-2h-1c-0.55,0-1,0.45-1,1v2.21
	C35.83,194.71,36.28,195.16,36.83,195.16z"/>
<g>
	<path class="st23" d="M227.37,182.85h-6.66c-1.86,0-3.38,1.52-3.38,3.38v19.54h0c-2.43,0.99-8.5,0-8.5,0
		c-0.49,0-0.89-0.4-0.89-0.89v-24.65c0-1.86-1.52-3.38-3.38-3.38h-6.66c-1.86,0-3.38,1.52-3.38,3.38v25.54h0
		c-2.69,0.99-9.14,0.99-10.44,0h0v-19.54c0-1.86-1.52-3.38-3.38-3.38h-6.66c-1.86,0-3.38,1.52-3.38,3.38v27.59v1.2v0
		c0,4.44,3.63,8.08,8.08,8.08h0h1.99h17.13h6.72h16.08h1.98h1.52c3.61,0,6.56-2.95,6.56-6.56v-1.52v-2.7v-26.07
		C230.75,184.37,229.23,182.85,227.37,182.85z"/>
</g>
<path class="st24" d="M184.37,192.91h-0.3v-5.02h0.3c0.55,0,1,0.45,1,1v3.02C185.37,192.46,184.92,192.91,184.37,192.91z"/>
<path class="st24" d="M217.07,192.91h0.3v-5.02h-0.3c-0.55,0-1,0.45-1,1v3.02C216.07,192.46,216.51,192.91,217.07,192.91z"/>
<path class="st25" d="M204.47,176.55v0.3h-5.02v-0.3c0-0.55,0.45-1,1-1h3.02C204.02,175.55,204.47,176,204.47,176.55z"/>
<path class="st26" d="M184.37,197.41h-0.3v-3.42h0.3c0.55,0,1,0.45,1,1v1.42C185.37,196.96,184.92,197.41,184.37,197.41z"/>
<path class="st27" d="M217.07,197.38h0.3v-3.42h-0.3c-0.55,0-1,0.45-1,1v1.42C216.07,196.93,216.51,197.38,217.07,197.38z"/>
<path class="st28" d="M180.19,206.14h-5.58c-0.55,0-1-0.45-1-1v-17.8c0-1.1,0.9-2,2-2h3.58c1.1,0,2,0.9,2,2v17.8
	C181.19,205.69,180.75,206.14,180.19,206.14z"/>
<path class="st28" d="M227.02,205.72h-5.58c-0.55,0-1-0.45-1-1v-17.8c0-1.1,0.9-2,2-2h3.58c1.1,0,2,0.9,2,2v17.8
	C228.02,205.28,227.58,205.72,227.02,205.72z"/>
<circle class="st29" cx="198.71" cy="182.03" r="2"/>
<circle class="st29" cx="204.47" cy="182.03" r="2"/>
<circle class="st30" cx="197.9" cy="187.16" r="1.27"/>
<circle class="st30" cx="197.9" cy="190.4" r="1.27"/>
<circle class="st30" cx="197.9" cy="193.64" r="1.27"/>
<path class="st31" d="M194.62,171.97h-57c-1.65,0-3-1.35-3-3v-2c0-33,27-60,60-60h0c1.66,0,3,1.34,3,3v59
	C197.62,170.62,196.27,171.97,194.62,171.97z"/>
<path class="st31" d="M206.97,171.97h57c1.65,0,3-1.35,3-3v-2c0-33-27-60-60-60h0c-1.66,0-3,1.34-3,3v59
	C203.97,170.62,205.32,171.97,206.97,171.97z"/>
<circle class="st32" cx="139.56" cy="187.16" r="3.2"/>
<circle class="st32" cx="139.56" cy="194.91" r="3.2"/>
<circle class="st32" cx="139.56" cy="202.66" r="3.2"/>
<circle class="st33" cx="139.56" cy="187.16" r="1.48"/>
<circle class="st34" cx="139.56" cy="194.91" r="1.48"/>
<rect x="197.97" y="223.09" class="st35" width="7.96" height="4.95"/>
<circle class="st36" cx="250.67" cy="196.09" r="16.42"/>
<path class="st37" d="M156.67,191.1l-9.35-4.66c2.56-5.13,8.88-7.24,14.01-4.68c2.15,1.07,3.86,2.85,4.85,5.04L156.67,191.1z"/>
<rect x="154.44" y="186.2" transform="matrix(0.3712 -0.9286 0.9286 0.3712 -73.8634 264.3229)" class="st38" width="7.57" height="1"/>
<path class="st39" d="M156.67,191.04l-9.9-3.34c0.24-0.73,0.57-1.42,0.96-2.08c0.4-0.65,0.86-1.26,1.39-1.82L156.67,191.04z"/>
<circle class="st40" cx="250.67" cy="196.09" r="16.42"/>
<circle class="st40" cx="250.8" cy="196.47" r="13.3"/>
<circle class="st40" cx="250.67" cy="196.09" r="10.24"/>
<circle class="st40" cx="250.8" cy="196.47" r="7.05"/>
<circle class="st40" cx="250.8" cy="196.47" r="4.29"/>
<rect x="245.76" y="188.96" transform="matrix(0.3712 -0.9286 0.9286 0.3712 -16.2892 354.5409)" class="st41" width="15.73" height="0.67"/>
</svg>
