<?xml version="1.0" encoding="utf-8"?>
<!-- Generator: Adobe Illustrator 24.0.1, SVG Export Plug-In . SVG Version: 6.00 Build 0)  -->
<svg version="1.1" id="Layer_1" xmlns="http://www.w3.org/2000/svg" xmlns:xlink="http://www.w3.org/1999/xlink" x="0px" y="0px"
	 viewBox="0 0 280 270" style="enable-background:new 0 0 280 270;" xml:space="preserve">
<style type="text/css">
	.st0{fill:#692B11;}
	.st1{fill:#544842;}
	.st2{fill:#FFDCB2;}
	.st3{fill:#4C3617;}
	.st4{fill:#8A4C20;}
	.st5{fill:#070707;}
	.st6{fill:#FFE3B2;}
	.st7{fill:#010101;}
	.st8{fill:#603A17;}
	.st9{fill:#046937;}
	.st10{fill:#412312;}
	.st11{fill:#A55F41;}
	.st12{fill:#231F20;}
	.st13{fill:#4B4E53;}
	.st14{fill:#50575C;}
	.st15{fill:#025138;}
	.st16{fill:#B4B4B4;stroke:#040404;stroke-width:2;stroke-miterlimit:10;}
	.st17{fill:#22120B;}
	.st18{fill:#4E4E4E;}
	.st19{fill:#B4B4B4;}
	.st20{fill:#F6EB16;}
	.st21{fill:#F15B27;}
	.st22{fill:#FAED24;}
</style>
<rect x="39.3" y="177.4" class="st0" width="4.4" height="80.9"/>
<path class="st1" d="M109.9,236.9H94.1v-60.7c0-3.3,2.7-6,6-6h3.8c3.3,0,6,2.7,6,6V236.9z"/>
<path class="st1" d="M70.6,238.1h15.8v-61.8c0-3.3-2.7-6-6-6h-3.8c-3.3,0-6,2.7-6,6V238.1z"/>
<path class="st2" d="M97.5,108H82.9c-2,0-3.6-1.6-3.6-3.6V86.3c0-2,1.6-3.6,3.6-3.6h14.6c2,0,3.6,1.6,3.6,3.6v18.2
	C101.1,106.4,99.5,108,97.5,108z"/>
<path class="st2" d="M113.9,65.4c-0.1-0.3,0.1-0.5,0.3-0.6V41.8c0-10.5-8.5-19-19-19h-12c-10.5,0-19,8.5-19,19v38
	c0,12.7,10.3,23,23,23h4c12.7,0,23-10.3,23-23V66.3C114.1,66,114,65.7,113.9,65.4z"/>
<path class="st3" d="M83.9,49.8h-9c-1.1,0-2-0.9-2-2v-0.7c0-1.1,0.9-2,2-2h9c1.1,0,2,0.9,2,2v0.7C85.9,48.9,85,49.8,83.9,49.8z"/>
<path class="st3" d="M104.4,49.8h-9c-1.1,0-2-0.9-2-2v-0.7c0-1.1,0.9-2,2-2h9c1.1,0,2,0.9,2,2v0.7C106.4,48.9,105.5,49.8,104.4,49.8
	z"/>
<path class="st4" d="M64.2,63.7h-3.1c-1.1,0-2-0.9-2-2V57c0-1.1,0.9-2,2-2h3.1V63.7z"/>
<path class="st4" d="M117.4,63.7h-3.1V55h3.1c1.1,0,2,0.9,2,2v4.6C119.4,62.8,118.5,63.7,117.4,63.7z"/>
<circle class="st5" cx="79.4" cy="53" r="2.1"/>
<circle class="st5" cx="100.5" cy="53" r="2.1"/>
<path class="st4" d="M91.1,71.2h-1.8c-1.1,0-2-0.9-2-2v-7.8c0-1.1,0.9-2,2-2h1.8c1.1,0,2,0.9,2,2v7.8C93.1,70.3,92.2,71.2,91.1,71.2
	z"/>
<rect x="108.7" y="63.1" class="st6" width="5.6" height="6.1"/>
<ellipse class="st7" cx="90.2" cy="84.3" rx="5.9" ry="2.8"/>
<circle class="st8" cx="114.2" cy="52.3" r="2.5"/>
<circle class="st8" cx="112.8" cy="49.7" r="2.5"/>
<circle class="st8" cx="115.8" cy="48.4" r="2.5"/>
<circle class="st8" cx="112.8" cy="45.1" r="2.5"/>
<circle class="st8" cx="116.5" cy="44.7" r="2.5"/>
<circle class="st8" cx="111.7" cy="41.3" r="2.5"/>
<circle class="st8" cx="115.3" cy="42.2" r="2.5"/>
<circle class="st8" cx="115.8" cy="37.7" r="2.5"/>
<circle class="st8" cx="113.1" cy="38.2" r="2.5"/>
<circle class="st8" cx="110.2" cy="37.7" r="2.5"/>
<circle class="st8" cx="114" cy="34.5" r="2.5"/>
<circle class="st8" cx="110.2" cy="34.1" r="2.5"/>
<circle class="st8" cx="117" cy="52.2" r="2.5"/>
<circle class="st8" cx="115.3" cy="53.5" r="2.5"/>
<circle class="st8" cx="64.2" cy="53" r="2.5"/>
<circle class="st8" cx="65.4" cy="48.4" r="2.5"/>
<circle class="st8" cx="63.4" cy="45.1" r="2.5"/>
<circle class="st8" cx="61.4" cy="47.4" r="2.5"/>
<circle class="st8" cx="61.7" cy="49.8" r="2.5"/>
<circle class="st8" cx="64.9" cy="36.6" r="2.5"/>
<circle class="st8" cx="65.4" cy="40.3" r="2.5"/>
<circle class="st8" cx="64.2" cy="42.2" r="2.5"/>
<circle class="st8" cx="62.4" cy="39.6" r="2.5"/>
<circle class="st8" cx="62.4" cy="35.5" r="2.5"/>
<circle class="st8" cx="61.4" cy="43.2" r="2.5"/>
<circle class="st8" cx="67.5" cy="33.6" r="2.5"/>
<circle class="st8" cx="66.2" cy="36.6" r="2.5"/>
<circle class="st8" cx="64.2" cy="33.2" r="2.5"/>
<g>
	<g>
		<path class="st7" d="M99.9,83c-0.4-0.7-0.9-1.4-1.6-1.9c-0.2-0.2-0.4-0.3-0.7-0.3c-0.2,0-0.5,0.1-0.7,0.3
			c-0.2,0.2-0.3,0.4-0.3,0.7c0,0.3,0.1,0.5,0.3,0.7c0.4,0.3,0.7,0.6,1,1c-0.1-0.1-0.1-0.1-0.2-0.2c0.2,0.2,0.3,0.4,0.5,0.7
			c0.1,0.2,0.4,0.4,0.6,0.5c0.2,0.1,0.6,0,0.8-0.1c0.2-0.1,0.4-0.3,0.5-0.6C100.1,83.5,100,83.2,99.9,83L99.9,83z"/>
	</g>
</g>
<g>
	<path class="st8" d="M72.3,30c-0.4-0.5-0.9-1-1.5-1.4"/>
	<g>
		<path class="st8" d="M73,29.3c-0.5-0.6-1.1-1.1-1.7-1.5c-0.1-0.1-0.2-0.1-0.4-0.1c-0.1,0-0.3,0-0.4,0c-0.2,0.1-0.5,0.2-0.6,0.5
			c-0.1,0.2-0.2,0.5-0.1,0.8c0,0.1,0.1,0.2,0.1,0.2c0.1,0.2,0.2,0.3,0.4,0.4c0.1,0.1,0.2,0.1,0.3,0.2c-0.1-0.1-0.1-0.1-0.2-0.2
			c0.4,0.3,0.8,0.7,1.2,1.2c0.1,0.1,0.2,0.2,0.3,0.2C72,31,72.2,31,72.3,31c0.2,0,0.5-0.1,0.7-0.3c0.2-0.2,0.3-0.4,0.3-0.7
			c0-0.1,0-0.2,0-0.3C73.2,29.6,73.1,29.4,73,29.3L73,29.3z"/>
	</g>
</g>
<g>
	<path class="st8" d="M75.5,27.7c-0.6-0.7-1.3-1.4-2-2"/>
	<g>
		<path class="st8" d="M76.2,27c-0.6-0.7-1.3-1.4-2-2c-0.2-0.2-0.4-0.3-0.7-0.3c-0.2,0-0.5,0.1-0.7,0.3c-0.2,0.2-0.3,0.4-0.3,0.7
			c0,0.3,0.1,0.5,0.3,0.7c0.7,0.6,1.4,1.3,2,2c0.2,0.2,0.5,0.3,0.7,0.3c0.2,0,0.5-0.1,0.7-0.3c0.2-0.2,0.3-0.4,0.3-0.7
			c0-0.1,0-0.2,0-0.3C76.4,27.3,76.3,27.1,76.2,27L76.2,27z"/>
	</g>
</g>
<g>
	<path class="st8" d="M80.1,27.2c-0.3-1.2-0.9-2.3-1.7-3.2"/>
	<g>
		<path class="st8" d="M81,26.9c-0.4-1.4-1-2.6-2-3.6c-0.3-0.4-1.1-0.4-1.4,0c-0.4,0.4-0.4,1,0,1.4c0.1,0.1,0.2,0.3,0.3,0.4
			c-0.1-0.1-0.1-0.1-0.2-0.2c0.4,0.5,0.7,1.1,1,1.7c0-0.1-0.1-0.2-0.1-0.2c0.1,0.3,0.3,0.7,0.4,1.1c0.1,0.5,0.7,0.9,1.2,0.7
			C80.8,27.9,81.2,27.4,81,26.9L81,26.9z"/>
	</g>
</g>
<g>
	<path class="st8" d="M84,26.6c0-1.3-0.4-2.7-1.1-3.8"/>
	<g>
		<path class="st8" d="M85,26.6c0-1.5-0.4-3-1.3-4.3c-0.3-0.4-0.9-0.7-1.4-0.4c-0.4,0.3-0.7,0.9-0.4,1.4c0.2,0.3,0.3,0.6,0.5,0.9
			c0,0,0,0.1,0.1,0.1c0,0.1,0,0.1,0-0.1c0,0,0.1,0.2,0.1,0.2c0.1,0.2,0.1,0.3,0.2,0.5c0.1,0.3,0.2,0.6,0.2,0.9c0,0.1,0,0.1,0-0.1
			c0,0,0,0.1,0,0.1c0,0.1,0,0.1,0,0.2c0,0.2,0,0.3,0,0.5c0,0.5,0.5,1,1,1C84.5,27.6,85,27.2,85,26.6L85,26.6z"/>
	</g>
</g>
<g>
	<path class="st8" d="M87.6,27c0.3-1.2,0.3-2.5,0-3.8"/>
	<g>
		<path class="st8" d="M88.5,27.3c0.3-1.4,0.3-2.9,0-4.3c-0.1-0.5-0.7-0.9-1.2-0.7c-0.5,0.2-0.8,0.7-0.7,1.2c0,0.2,0.1,0.3,0.1,0.5
			c0,0,0,0.1,0,0.1c0,0.1,0,0.1,0-0.1c0,0.1,0,0.1,0,0.2c0,0.3,0,0.6,0,0.9c0,0.3,0,0.6,0,0.9c0,0.1,0,0.1,0,0.2c0-0.3,0-0.1,0,0
			c0,0.2-0.1,0.3-0.1,0.5c-0.1,0.5,0.2,1.1,0.7,1.2C87.8,28.1,88.4,27.8,88.5,27.3L88.5,27.3z"/>
	</g>
</g>
<g>
	<path class="st8" d="M91.4,27.2c-0.1-1.4-0.2-2.8-0.2-4.1"/>
	<g>
		<path class="st8" d="M92.4,27.2c-0.1-1.4-0.2-2.8-0.2-4.1c0-0.5-0.4-1-1-1c-0.5,0-1,0.4-1,1c0.1,1.4,0.2,2.8,0.2,4.1
			c0,0.5,0.4,1,1,1C91.9,28.1,92.4,27.7,92.4,27.2L92.4,27.2z"/>
	</g>
</g>
<g>
	<path class="st8" d="M95.7,27.7c0-1.5,0.1-3,0.4-4.5"/>
	<g>
		<path class="st8" d="M96.7,27.7c0-0.7,0-1.5,0.1-2.2c0-0.2,0-0.4,0.1-0.6c0-0.1,0-0.2,0-0.3c0,0.2,0,0,0-0.1
			c0.1-0.4,0.1-0.7,0.2-1.1c0.1-0.5-0.1-1.1-0.7-1.2c-0.5-0.1-1.1,0.1-1.2,0.7c-0.3,1.6-0.5,3.2-0.4,4.8c0,0.5,0.5,1,1,1
			C96.3,28.7,96.8,28.3,96.7,27.7L96.7,27.7z"/>
	</g>
</g>
<g>
	<path class="st8" d="M99.8,28.6c0.1-1.5,0.6-2.9,1.4-4.2"/>
	<g>
		<path class="st8" d="M100.8,28.6c0-0.1,0-0.2,0-0.3c0-0.1,0-0.4,0-0.1c0-0.2,0.1-0.3,0.1-0.5c0.1-0.4,0.2-0.7,0.3-1
			c0-0.1,0.1-0.2,0.1-0.3c0-0.1,0.1-0.1,0.1-0.2c-0.1,0.1-0.1,0.1,0,0c0,0,0-0.1,0.1-0.1c0-0.1,0.1-0.2,0.1-0.3
			c0.2-0.3,0.3-0.6,0.5-0.9c0.3-0.4,0.1-1.1-0.4-1.4c-0.5-0.3-1.1-0.1-1.4,0.4c-0.9,1.4-1.5,3-1.6,4.7c0,0.5,0.5,1,1,1
			C100.3,29.6,100.7,29.2,100.8,28.6L100.8,28.6z"/>
	</g>
</g>
<g>
	<path class="st8" d="M103.6,29.3c0.2-1.2,0.7-2.3,1.5-3.3"/>
	<g>
		<path class="st8" d="M104.6,29.6c0.1-0.5,0.2-1,0.4-1.5c0,0.1-0.1,0.2-0.1,0.2c0.1-0.3,0.3-0.6,0.5-0.9c0.1-0.1,0.2-0.3,0.3-0.4
			c0-0.1,0.1-0.1,0.1-0.2c0,0-0.1,0.2-0.1,0.1c0,0,0.1-0.1,0.1-0.1c0.2-0.2,0.3-0.4,0.3-0.7c0-0.2-0.1-0.5-0.3-0.7
			c-0.4-0.3-1.1-0.4-1.4,0c-0.9,1.1-1.5,2.3-1.8,3.7c0,0.3,0,0.5,0.1,0.8c0.1,0.2,0.4,0.4,0.6,0.5C103.9,30.4,104.5,30.2,104.6,29.6
			L104.6,29.6z"/>
	</g>
</g>
<g>
	<path class="st8" d="M106.7,30.9c0.8-0.5,1.5-1.1,2-2"/>
	<g>
		<path class="st8" d="M107.2,31.8c1-0.5,1.8-1.4,2.3-2.3c0.1-0.2,0.2-0.5,0.1-0.8c-0.1-0.2-0.2-0.5-0.5-0.6
			c-0.2-0.1-0.5-0.2-0.8-0.1c-0.2,0.1-0.5,0.2-0.6,0.5c-0.1,0.2-0.3,0.4-0.4,0.6c0.1-0.1,0.1-0.1,0.2-0.2c-0.3,0.3-0.6,0.6-0.9,0.9
			c0.1-0.1,0.1-0.1,0.2-0.2c-0.2,0.2-0.4,0.3-0.7,0.4c-0.2,0.1-0.4,0.4-0.5,0.6c-0.1,0.2,0,0.6,0.1,0.8
			C106.1,31.9,106.7,32,107.2,31.8L107.2,31.8z"/>
	</g>
</g>
<path class="st9" d="M94.7,174.4h-9.2c-14.9,0-27-12.1-27-27v-29.2c0-7.4,6.1-13.5,13.5-13.5h36.3c7.4,0,13.5,6.1,13.5,13.5v29.2
	C121.7,162.3,109.6,174.4,94.7,174.4z"/>
<path class="st2" d="M101,104.8l-9.9,15c-0.4,0.6-1.3,0.6-1.7,0l-10.2-15H101z"/>
<path class="st9" d="M129.1,138.4h-4.3c-3.3,0-6-2.7-6-6v-13.3c0-3.3,2.7-6,6-6h4.3c3.3,0,6,2.7,6,6v13.3
	C135.1,135.7,132.4,138.4,129.1,138.4z"/>
<rect x="118.8" y="132.1" class="st2" width="16.3" height="39.5"/>
<ellipse class="st2" cx="127" cy="169.6" rx="9.3" ry="9.8"/>
<path class="st9" d="M56.2,138.4h-4.3c-3.3,0-6-2.7-6-6v-13.3c0-3.3,2.7-6,6-6h4.3c3.3,0,6,2.7,6,6v13.3
	C62.2,135.7,59.5,138.4,56.2,138.4z"/>
<rect x="45.8" y="132.1" class="st2" width="16.3" height="39.5"/>
<ellipse class="st2" cx="54" cy="169.6" rx="9.3" ry="9.8"/>
<g>
	<g>
		<path class="st10" d="M39,180.7c2-1.6,2.8-2.2,4.9-0.6c1.1,0.8,2.2,1.6,3.5,2.1c2.8,1.1,5.6,1.2,8.5,0.5c3.1-0.7,1.8-5.5-1.3-4.8
			c-2.1,0.4-4.3,0.3-6.2-0.7c-1.6-0.9-2.8-2.4-4.6-3.1c-3.2-1.2-6.1,1.2-8.4,3.1C33,179.2,36.6,182.7,39,180.7L39,180.7z"/>
	</g>
</g>
<path class="st7" d="M110.3,175.5H70c-1.1,0-2-0.9-2-2v-3c0-1.1,0.9-2,2-2h40.3c1.1,0,2,0.9,2,2v3
	C112.3,174.6,111.4,175.5,110.3,175.5z"/>
<g>
	<path class="st11" d="M130.3,265.6H94.1v-23.3h18.2c9.9,0,18,8.1,18,18V265.6z"/>
	<rect x="94.1" y="261.7" class="st11" width="36.2" height="3.9"/>
	<rect x="94.1" y="263.6" class="st11" width="36.2" height="1"/>
	<g>
		<path class="st11" d="M116,243.9c0.4,1.5-0.1,3.2-1,4.5s-2.1,2.1-3.3,2.9"/>
		<g>
			<path class="st12" d="M115.1,244.2c0.3,1.2-0.1,2.5-0.8,3.6c-0.8,1.1-1.9,1.9-3,2.6c-0.4,0.3-0.6,0.9-0.4,1.4
				c0.3,0.4,0.9,0.7,1.4,0.4c1.4-1,2.9-2,3.8-3.5c1-1.5,1.4-3.3,1-5c-0.1-0.5-0.7-0.8-1.2-0.7C115.2,243.1,115,243.7,115.1,244.2
				L115.1,244.2z"/>
		</g>
	</g>
	<g>
		<path class="st11" d="M121.4,245.6c0.4,1.5-0.1,3.2-1,4.5c-0.9,1.2-2.1,2.1-3.3,2.9"/>
		<g>
			<path class="st12" d="M120.4,245.8c0.3,1.2-0.1,2.5-0.8,3.6c-0.8,1.1-1.9,1.9-3,2.6c-0.4,0.3-0.6,0.9-0.4,1.4
				c0.3,0.4,0.9,0.7,1.4,0.4c1.4-1,2.9-2,3.8-3.5c1-1.5,1.4-3.3,1-5c-0.1-0.5-0.7-0.8-1.2-0.7C120.6,244.7,120.3,245.3,120.4,245.8
				L120.4,245.8z"/>
		</g>
	</g>
	<g>
		<path class="st11" d="M125,248.7c0.4,1.5-0.1,3.2-1,4.5c-0.9,1.2-2.1,2.1-3.3,2.9"/>
		<g>
			<path class="st12" d="M124,249c0.3,1.2-0.1,2.5-0.8,3.6c-0.8,1.1-1.9,1.9-3,2.6c-0.4,0.3-0.6,0.9-0.4,1.4
				c0.3,0.4,0.9,0.7,1.4,0.4c1.4-1,2.9-2,3.8-3.5c1-1.5,1.4-3.3,1-5c-0.1-0.5-0.7-0.8-1.2-0.7C124.2,247.9,123.9,248.5,124,249
				L124,249z"/>
		</g>
	</g>
</g>
<rect x="94.1" y="223.7" class="st13" width="15.8" height="15"/>
<g>
	<path class="st11" d="M49.2,265.6h37.1v-23.3H67.2c-9.9,0-18,8.1-18,18V265.6z"/>
	
		<rect x="49.2" y="261.7" transform="matrix(-1 -5.103929e-11 5.103929e-11 -1 135.5791 527.2025)" class="st11" width="37.1" height="3.9"/>
	
		<rect x="49.2" y="263.6" transform="matrix(-1 -5.094159e-11 5.094159e-11 -1 135.5791 528.1776)" class="st11" width="37.1" height="1"/>
	<g>
		<path class="st11" d="M63.8,243.9c-0.4,1.5,0.2,3.2,1.1,4.5s2.2,2.1,3.4,2.9"/>
		<g>
			<path class="st12" d="M62.9,243.7c-0.4,1.7,0,3.6,1,5c1,1.5,2.4,2.5,3.9,3.5c0.5,0.3,1.1,0.1,1.4-0.4c0.3-0.5,0.1-1.1-0.4-1.4
				c-1.1-0.7-2.3-1.5-3.1-2.6c-0.8-1.1-1.2-2.4-0.9-3.6c0.1-0.5-0.2-1.1-0.7-1.2C63.6,242.8,63,243.1,62.9,243.7L62.9,243.7z"/>
		</g>
	</g>
	<g>
		<path class="st11" d="M58.3,245.6c-0.4,1.5,0.2,3.2,1.1,4.5c0.9,1.2,2.2,2.1,3.4,2.9"/>
		<g>
			<path class="st12" d="M57.4,245.3c-0.4,1.7,0,3.6,1,5c1,1.5,2.4,2.5,3.9,3.5c0.5,0.3,1.1,0.1,1.4-0.4c0.3-0.5,0.1-1.1-0.4-1.4
				c-1.1-0.7-2.3-1.5-3.1-2.6c-0.8-1.1-1.2-2.4-0.9-3.6c0.1-0.5-0.2-1.1-0.7-1.2C58.1,244.5,57.5,244.8,57.4,245.3L57.4,245.3z"/>
		</g>
	</g>
	<g>
		<path class="st11" d="M54.6,248.7c-0.4,1.5,0.2,3.2,1.1,4.5c0.9,1.2,2.2,2.1,3.4,2.9"/>
		<g>
			<path class="st12" d="M53.7,248.5c-0.4,1.7,0,3.6,1,5c1,1.5,2.4,2.5,3.9,3.5c0.5,0.3,1.1,0.1,1.4-0.4c0.3-0.5,0.1-1.1-0.4-1.4
				c-1.1-0.7-2.3-1.5-3.1-2.6c-0.8-1.1-1.2-2.4-0.9-3.6c0.1-0.5-0.2-1.1-0.7-1.2C54.4,247.6,53.8,248,53.7,248.5L53.7,248.5z"/>
		</g>
	</g>
</g>
<rect x="70.6" y="224.8" transform="matrix(-1 -3.299106e-11 3.299106e-11 -1 156.9461 463.6536)" class="st14" width="15.8" height="14"/>
<rect x="70.6" y="230.6" class="st11" width="15.8" height="14.9"/>
<rect x="94.1" y="230.6" class="st11" width="15.8" height="14.9"/>
<path class="st15" d="M71.9,235.5H85c1.7,0,3-1.3,3-3v-1.3c0-1.7-1.3-3-3-3H71.9c-1.7,0-3,1.3-3,3v1.3
	C68.9,234.1,70.3,235.5,71.9,235.5z"/>
<path class="st15" d="M108.5,235.5H95.4c-1.7,0-3-1.3-3-3v-1.3c0-1.7,1.3-3,3-3h13.1c1.7,0,3,1.3,3,3v1.3
	C111.5,234.1,110.2,235.5,108.5,235.5z"/>
<path class="st16" d="M93.9,177.3h-7.4c-2.1,0-3.7-1.7-3.7-3.7v-4c0-2.1,1.7-3.7,3.7-3.7h7.4c2.1,0,3.7,1.7,3.7,3.7v4
	C97.7,175.6,96,177.3,93.9,177.3z"/>
<rect x="94.1" y="260.2" class="st17" width="36.2" height="5.2"/>
<rect x="49.2" y="260.2" class="st17" width="37.1" height="5.2"/>
<polygon class="st7" points="45.4,265.5 37.6,265.5 39.3,257.8 43.7,257.8 "/>
<rect x="165.6" y="164.5" class="st18" width="83" height="63.6"/>
<rect x="180.2" y="153.2" class="st7" width="54" height="11.3"/>
<rect x="165.6" y="222.5" class="st7" width="83" height="5.7"/>
<rect x="165.6" y="216.8" class="st7" width="9.6" height="5.7"/>
<rect x="239" y="216.8" class="st7" width="9.6" height="5.7"/>
<rect x="202.3" y="216.8" class="st7" width="9.6" height="5.7"/>
<rect x="184" y="216.8" class="st7" width="9.6" height="5.7"/>
<rect x="220.7" y="216.8" class="st7" width="9.6" height="5.7"/>
<rect x="165.6" y="205.6" class="st19" width="9.6" height="4.6"/>
<rect x="239" y="205.6" class="st19" width="9.6" height="4.6"/>
<circle class="st19" cx="175.3" cy="174.1" r="7.1"/>
<circle class="st19" cx="239" cy="174.1" r="7.1"/>
<rect x="171.5" y="173.4" class="st7" width="7.6" height="1.5"/>
<rect x="171.5" y="173.4" transform="matrix(-1.836970e-16 1 -1 -1.836970e-16 349.4281 -1.1599)" class="st7" width="7.6" height="1.5"/>
<rect x="235.2" y="173.4" class="st7" width="7.6" height="1.5"/>
<polygon class="st20" points="203.7,189.5 197.9,189.5 199.5,174.1 209.4,174.1 "/>
<polygon class="st20" points="212.5,189.5 197.9,189.5 198.3,185.1 216.7,185.1 "/>
<polygon class="st20" points="204.8,200.1 204.8,200.1 209.4,185.1 216.7,185.1 "/>
<g>
	<g>
		<path class="st7" d="M197.5,111.2c-2.7,1.2-5.5,2.5-7.3,4.9c-2.5,3.1-2.7,6.9-1.3,10.6c2.6,6.8,6.8,13.1,11.5,18.6
			c1,1.2,3.2,1.1,4.2,0c1.2-1.2,1-3,0-4.2c-3.8-4.6-7-9.6-9.5-15c-0.5-1.1-1-2.4-1.1-3.6c-0.1-1,0.3-1.8,0.7-2.3
			c1.4-1.8,3.8-2.7,5.9-3.7c1.5-0.6,1.8-2.8,1.1-4.1C200.7,110.7,199,110.6,197.5,111.2L197.5,111.2z"/>
	</g>
</g>
<g>
	<g>
		<path class="st7" d="M215.2,116.4c2.1,0.9,4.4,1.9,5.8,3.5c0.4,0.5,0.8,1.2,0.8,2.2c0,1.3-0.6,2.7-1.1,3.8
			c-2.5,5.4-5.7,10.5-9.5,15c-1,1.2-1.2,3,0,4.2c1.1,1.1,3.2,1.2,4.2,0c4.7-5.6,8.9-11.8,11.5-18.6c1.4-3.6,1.2-7.5-1.3-10.6
			c-1.9-2.3-4.6-3.7-7.3-4.9c-1.5-0.6-3.2-0.4-4.1,1.1C213.3,113.5,213.7,115.7,215.2,116.4L215.2,116.4z"/>
	</g>
</g>
<path class="st18" d="M204,97.9l5.2,17.6c-8,2.2-16.5-3.5-19.1-12.8c-2.6-9.3,1.8-18.6,9.7-20.8L204,97.9z"/>
<path class="st18" d="M212.2,90.1l-7.2,25.5c8,2.2,16.5-3.5,19.1-12.8c2.6-9.3-1.8-18.6-9.7-20.8L212.2,90.1z"/>
<path class="st21" d="M213.4,117h-12.3c-1.6,0-3-1.3-3-3v-1.9c0-1.7,1.4-3,3-3h12.3c1.6,0,3,1.3,3,3v1.9
	C216.4,115.7,215.1,117,213.4,117z"/>
<circle class="st22" cx="203.4" cy="113.1" r="2.9"/>
<circle class="st22" cx="212.2" cy="113.1" r="2.9"/>
</svg>
