<?xml version="1.0" encoding="utf-8"?>
<!-- Generator: Adobe Illustrator 24.0.1, SVG Export Plug-In . SVG Version: 6.00 Build 0)  -->
<svg version="1.1" id="Layer_1" xmlns="http://www.w3.org/2000/svg" xmlns:xlink="http://www.w3.org/1999/xlink" x="0px" y="0px"
	 viewBox="0 0 280 270" style="enable-background:new 0 0 280 270;" xml:space="preserve">
<style type="text/css">
	.st0{fill:#602413;}
	.st1{fill:#12004A;}
	.st2{fill:#D8BD9D;}
	.st3{fill:#BADAD3;}
	.st4{fill:#231F20;}
	.st5{fill:none;stroke:#FFFFFF;stroke-width:0.75;stroke-miterlimit:10;}
	.st6{fill:#3B2314;}
	.st7{fill:#58595B;}
	.st8{fill:#A87C4F;}
	.st9{fill:#FFE4B4;stroke:#000000;stroke-miterlimit:10;}
	.st10{fill:none;stroke:#000000;stroke-width:0.5;stroke-miterlimit:10;}
	.st11{fill:#F6921E;}
	.st12{fill:#DEADCF;}
	.st13{fill:#E51C43;}
	.st14{fill:#F39984;}
	.st15{fill:#C9EEFF;}
</style>
<g>
	<g>
		<g>
			<path class="st0" d="M92.7,61.2c0.2,0.1,0.4,0.2,0.6,0.3c0.9,0.4-0.3-0.4,0,0c0.1,0.2,0.3,0.3,0.5,0.5c0.4,0.3-0.5-0.8,0,0
				c0,0,0.4,0.6,0.3,0.6c0,0-0.3-0.9-0.1-0.1c0,0.2,0.4,1,0.1,0.4c-0.2-0.5,0,0.2,0,0.4c0,2.4,2,4.6,4.5,4.5c2.4-0.1,4.5-2,4.5-4.5
				c-0.1-4-2.3-8-6-9.8c-2.1-1-5-0.7-6.2,1.6C90.1,57,90.5,60.1,92.7,61.2L92.7,61.2z"/>
		</g>
	</g>
	<g>
		<g>
			<path class="st0" d="M90.1,49c1.3,5.7,0,13.1-4.5,17.1c-4.3,3.9,2,10.2,6.4,6.4c6.9-6.1,8.7-17.2,6.8-25.9
				C97.5,41,88.8,43.4,90.1,49L90.1,49z"/>
		</g>
	</g>
	<g>
		<g>
			<path class="st0" d="M37.1,50c-1.4,8.4,1.1,16.8,7.6,22.4c4.3,3.8,10.7-2.6,6.4-6.4c-3.9-3.4-6.2-8.4-5.3-13.7
				C46.8,46.7,38.1,44.3,37.1,50L37.1,50z"/>
		</g>
	</g>
	<g>
		<g>
			<path class="st0" d="M34.6,62.2c0,0.2,0,0.5,0,0.7c0.1-0.6,0.1-0.7,0-0.2c-0.1,0.3-0.1,0.7-0.3,1c0.2-0.5,0.3-0.6,0.1-0.3
				c-0.1,0.2-0.2,0.3-0.2,0.5c-0.1,0.2-0.2,0.4-0.4,0.6c0.4-0.5,0.4-0.5,0.1-0.1c-1.5,1.8-1.9,4.6,0,6.4c1.7,1.6,4.7,1.9,6.4,0
				c2.1-2.4,3.3-5.2,3.4-8.5c0.1-2.4-2.1-4.6-4.5-4.5C36.6,57.8,34.7,59.7,34.6,62.2L34.6,62.2z"/>
		</g>
	</g>
	<g>
		<g>
			<path class="st0" d="M38.9,50.1c0.5,0.5,1,0.9,1.6,1.4c1.1,1,2.3,1.4,3.8,1.2c0.6,0,1.2-0.2,1.7-0.5c0.7-0.4,1.2-0.9,1.6-1.6
				c1.2-2,1.2-4.5,0-6.5c-0.5-1-1.6-1.8-2.7-2.1c-1.1-0.3-2.5-0.2-3.5,0.5c-1,0.6-1.8,1.5-2.1,2.7c-0.3,1.2-0.2,2.4,0.5,3.5
				c0,0.1,0.1,0.1,0.1,0.2c-0.2-0.4-0.3-0.7-0.5-1.1c0.1,0.2,0.1,0.3,0.1,0.5c-0.1-0.4-0.1-0.8-0.2-1.2c0,0.2,0,0.3,0,0.5
				c0.1-0.4,0.1-0.8,0.2-1.2c0,0.2-0.1,0.4-0.2,0.6c0.2-0.4,0.3-0.7,0.5-1.1c0,0.1-0.1,0.1-0.1,0.2c2.4-0.3,4.7-0.6,7.1-0.9
				c-0.5-0.5-1-0.9-1.6-1.4c-0.9-0.8-2-1.3-3.2-1.3c-1.1,0-2.4,0.5-3.2,1.3c-0.8,0.9-1.4,2-1.3,3.2C37.7,48.1,38.1,49.3,38.9,50.1
				L38.9,50.1z"/>
		</g>
	</g>
	<g>
		<g>
			<path class="st0" d="M95.5,63.5c0.7-5.1-0.4-10.6,1.5-15.4c2.1-5.4-6.6-7.7-8.7-2.4c-2,5.1-0.7,10.2-1.5,15.4
				c-0.4,2.4,0.6,4.8,3.1,5.5C92.1,67.2,95.2,65.9,95.5,63.5L95.5,63.5z"/>
		</g>
	</g>
</g>
<g>
	<path class="st1" d="M68,166.8c0,0,23.3,7,22.9,1.3c-0.7-9.1-4.6-11.1-5.1-20.5c-0.3-6.8-0.5-22.6,0.4-31.1
		c0.6-5.5,1.9-4.1,2.8-8.1C91.2,98,87.8,88,87.8,88s-5.8-5.3-8.4-5.8C70.5,80.6,68,88,68,88V166.8z"/>
	<path class="st1" d="M69.1,166.8c0,0-21.9,6.5-21.9,0.7c0-8.8,3.6-10.5,4.1-19.9c0.5-8.9,1.7-21.5,0.3-31.4
		c-0.4-2.5-2.8-4.8-3.2-6.8c-2.2-10.3,1-21.4,1-21.4s2.2-4.7,8.8-5.3C66.1,82,69.1,88,69.1,88V166.8z"/>
</g>
<path class="st2" d="M102.9,142.5l-4.7,0.3c-2.2,0.1-4.1-1.6-4.2-3.8l-1.6-26.5c-0.1-2.2,1.6-4.1,3.8-4.2l4.7-0.3
	c2.2-0.1,4.1,1.6,4.2,3.8l1.6,26.5C106.8,140.5,105.1,142.4,102.9,142.5z"/>
<path class="st2" d="M34.7,142.1l4.7,0.3c2.2,0.1,4.1-1.6,4.2-3.8l1.6-26.5c0.1-2.2-1.6-4.1-3.8-4.2l-4.7-0.3
	c-2.2-0.1-4.1,1.6-4.2,3.8L31,137.8C30.8,140,32.5,141.9,34.7,142.1z"/>
<path class="st2" d="M72.9,87.6h-10c-1.1,0-2-0.9-2-2v-10c0-1.1,0.9-2,2-2h10c1.1,0,2,0.9,2,2v10C74.9,86.7,74,87.6,72.9,87.6z"/>
<path class="st2" d="M67.7,77.1L67.7,77.1c-12.2,0-22.1-9.9-22.1-22.1V35.6c0-10.3,8.3-18.6,18.6-18.6h7.1
	c10.3,0,18.6,8.3,18.6,18.6V55C89.8,67.3,79.9,77.1,67.7,77.1z"/>
<path class="st3" d="M67.3,87.6l1.3,8.9c0,0,3.7,0.1,10.3,0.8c7.5,0.7,11.9,4.9,11.9,4.9c0.4-8.2-2.1-15-2.1-15s-6.3-5.3-9.1-5.8
	c-7.4-1.2-4,4.8-12.1,4.5C66.6,85.8,67.3,87.6,67.3,87.6z"/>
<path class="st3" d="M68.4,87.3l0.2,9.3c0,0-7.6-0.1-10.4-0.1c-2.6,0-11.6,5.8-11.6,5.8c-0.4-8.2,2-15,2-15s6.2-5.3,8.9-5.8
	c7.3-1.2,1,2.3,10,4.5C67,86.6,68.4,87.3,68.4,87.3z"/>
<path class="st2" d="M35.2,114.4l4.4,1.8c2,0.8,4.4-0.2,5.2-2.2l7-17.3c0.8-2-0.2-4.4-2.2-5.2l-4.4-1.8c-2-0.8-4.4,0.2-5.2,2.2
	l-7,17.3C32.2,111.2,33.2,113.5,35.2,114.4z"/>
<path class="st2" d="M102.4,114.8l-4.4,1.8c-2,0.8-4.4-0.2-5.2-2.2l-7-17.3c-0.8-2,0.2-4.4,2.2-5.2l4.4-1.8c2-0.8,4.4,0.2,5.2,2.2
	l7,17.3C105.4,111.6,104.4,114,102.4,114.8z"/>
<path class="st3" d="M87.6,101.8l12-4.4l-4.5-11.5c-1-2.6-4-3.9-6.6-2.9l-2.4,0.9c-2.7,1-4,3.9-3,6.4L87.6,101.8z"/>
<path class="st3" d="M50.1,101.4l-12-4.4l4.5-11.5c1-2.6,4-3.9,6.6-2.9l2.4,0.9c2.7,1,4,3.9,3,6.4L50.1,101.4z"/>
<path class="st1" d="M78.9,93.8L78.9,93.8c-1.4,0-2.5-1.1-2.5-2.5v-7.6c0-1.4,1.1-2.5,2.5-2.5h0c1.4,0,2.5,1.1,2.5,2.5v7.6
	C81.4,92.7,80.3,93.8,78.9,93.8z"/>
<path class="st1" d="M57.9,93.8L57.9,93.8c-1.4,0-2.5-1.1-2.5-2.5v-7.6c0-1.4,1.1-2.5,2.5-2.5h0c1.4,0,2.5,1.1,2.5,2.5v7.6
	C60.4,92.7,59.3,93.8,57.9,93.8z"/>
<ellipse class="st4" cx="78.9" cy="95.1" rx="2.7" ry="3.3"/>
<ellipse class="st4" cx="57.9" cy="95.1" rx="2.7" ry="3.3"/>
<path class="st5" d="M76.8,122.1H60.1c-1.7,0-3-1.3-3-3v-6.5c0-1.7,1.3-3,3-3h16.7c1.7,0,3,1.3,3,3v6.5
	C79.8,120.8,78.4,122.1,76.8,122.1z"/>
<path class="st5" d="M79.8,114.1H57.1v-1.5c0-1.7,1.3-3,3-3h16.7c1.7,0,3,1.3,3,3V114.1z"/>
<path class="st0" d="M63.7,253.2l-9.1,0.6c-1.6,0.1-3.1-1.1-3.2-2.8l-1.5-21.5c-0.1-1.6,1.1-3.1,2.8-3.2l9.1-0.6
	c1.6-0.1,3.1,1.1,3.2,2.8l1.5,21.5C66.6,251.6,65.3,253.1,63.7,253.2z"/>
<path class="st6" d="M65,229H49.5c-1.1,0-2-0.9-2-2v-0.3c0-1.1,0.9-2,2-2H65c1.1,0,2,0.9,2,2v0.3C67,228.1,66.2,229,65,229z"/>
<path class="st0" d="M52.7,266.2l-23.7,0.1c0-2.6,0.7-10,6.8-10.4c7.8-0.5,16.7-3.8,15.7-7.5c-2.8-9.8,3.5-4.8,10.2-3
	c8.2,2.2,2.2,6.7,6.3,12.6c1.3,1.9,0.9,5.8,1,8.2l-7.6,0.1l-0.2-2.8L52.7,266.2z"/>
<polygon class="st7" points="69.1,266.3 61.4,266.3 61.2,263.3 69.1,263.3 "/>
<polygon class="st7" points="52.6,266.3 29.1,266.3 29.2,264.3 61.2,263.3 "/>
<path class="st0" d="M73.5,253.2l9.1,0.6c1.6,0.1,3.1-1.1,3.2-2.8l1.5-21.5c0.1-1.6-1.1-3.1-2.8-3.2l-9.1-0.6
	c-1.6-0.1-3.1,1.1-3.2,2.8L70.7,250C70.6,251.6,71.8,253.1,73.5,253.2z"/>
<path class="st6" d="M72.1,229h15.5c1.1,0,2-0.9,2-2v-0.3c0-1.1-0.9-2-2-2H72.1c-1.1,0-2,0.9-2,2v0.3C70.1,228.1,71,229,72.1,229z"
	/>
<path class="st0" d="M84.4,266.2l23.7,0.1c0-2.6-0.7-10-6.8-10.4c-7.8-0.5-16.7-3.8-15.7-7.5c2.8-9.8-3.5-4.8-10.2-3
	c-8.2,2.2-2.2,6.7-6.3,12.6c-1.3,1.9-0.9,5.8-1,8.2l7.6,0.1l0.2-2.8L84.4,266.2z"/>
<polygon class="st7" points="68,266.3 75.8,266.3 75.9,263.3 68,263.3 "/>
<polygon class="st7" points="84.6,266.3 108.1,266.3 108,264.3 75.9,263.3 "/>
<circle class="st2" cx="99.9" cy="139.9" r="8.2"/>
<circle class="st2" cx="36.9" cy="139.7" r="8.2"/>
<g>
	<g>
		<path class="st4" d="M58.3,43.4c3.9,0,3.9-6,0-6C54.4,37.4,54.4,43.4,58.3,43.4L58.3,43.4z"/>
	</g>
</g>
<g>
	<g>
		<path class="st4" d="M77.2,43.4c3.9,0,3.9-6,0-6C73.4,37.4,73.4,43.4,77.2,43.4L77.2,43.4z"/>
	</g>
</g>
<g>
	<g>
		<path class="st4" d="M74.2,36.3c1.5,0.2,2.8-0.1,4.3-0.2c1.2-0.1,2.4-0.1,3.5,0.5c0.8,0.5,1.6-0.8,0.8-1.3
			c-1.1-0.7-2.5-0.9-3.8-0.8c-1.4,0.1-2.9,0.5-4.3,0.3c-0.4-0.1-0.8,0.1-0.9,0.5C73.5,35.8,73.8,36.3,74.2,36.3L74.2,36.3z"/>
	</g>
</g>
<g>
	<g>
		<path class="st4" d="M61.6,34.8c-1.8-0.3-3.6-0.7-5.3-0.7c-1.6-0.1-3.2,0.3-4.3,1.5c-0.7,0.7,0.4,1.7,1.1,1.1
			c0.9-0.9,2.3-1.1,3.6-1c1.5,0.1,3.1,0.4,4.6,0.7c0.4,0.1,0.8-0.1,0.9-0.5C62.2,35.4,62,34.9,61.6,34.8L61.6,34.8z"/>
	</g>
</g>
<path class="st8" d="M68.6,54.8L68.6,54.8c-1.1,0-2-0.9-2-2V49c0-1.1,0.9-2,2-2h0c1.1,0,2,0.9,2,2v3.8
	C70.6,53.9,69.7,54.8,68.6,54.8z"/>
<g>
	<g>
		<path class="st4" d="M74.8,62.6c-2.7,0.3-5.5,0.6-8.3,0.7c-1.2,0-2.6,0.2-3.8-0.1c-1.1-0.3-1.9-1.2-2.6-2c-0.9-1-2.3,0.5-1.4,1.4
			c0.8,0.9,1.7,1.7,2.8,2.2c1.3,0.6,2.7,0.5,4.1,0.5c3.1-0.1,6.1-0.3,9.2-0.7c0.5-0.1,1-0.4,1-1C75.8,63.1,75.4,62.5,74.8,62.6
			L74.8,62.6z"/>
	</g>
</g>
<path class="st1" d="M99.4,235.7l-55.1-1.4c-3-0.1-5.5-2.5-5.6-5.5l-1.8-40.6c-0.3-1.8,2.3-23.6,3-25.3c2.2-5.8,9.1-17.6,15.4-18.7
	c13.7-2.4,17.1-3.4,30.6,3.5c8.7,4.5,16.6,29.7,16.5,36.9c-0.3,12.5,1.4,35.3,2.2,45.8C104.8,233.2,102.4,235.8,99.4,235.7z"/>
<path d="M84.5,147.3H52.4c-0.5,0-1,0.1-1-0.5l0.2-4.9c0-0.6,0.2-0.7,0.8-0.7h32.1c0.5,0,1.2-0.6,1.2,0l0.2,5.5
	C85.8,147.2,85,147.3,84.5,147.3z"/>
<g>
	<g>
		<path class="st0" d="M72.8,20.7c9.6-2.7,17.1,11.1,19,18.8c1.1,4.4,0.8,8.5,2.5,12.9c2,4.8,4.3,9.5,6.5,14.3
			c2.4,5.3,10.2,0.7,7.8-4.5c-2.7-6-6.7-12.3-7.3-19c-0.6-6.2-2.6-11.2-5.6-16.7c-5.1-9.3-14-17.6-25.3-14.4
			C64.8,13.6,67.2,22.3,72.8,20.7L72.8,20.7z"/>
	</g>
</g>
<g>
	<g>
		<path class="st0" d="M67.1,11.4c-11.4-3.2-20.2,5.2-25.3,14.4c-3,5.5-4.9,10.5-5.6,16.7c-0.7,6.7-4.5,12.9-7.3,19
			c-2.4,5.2,5.4,9.8,7.8,4.5c2.1-4.6,4.3-9.1,6.2-13.7c1.9-4.5,1.6-8.8,2.8-13.4c2-7.7,9.4-21.5,19-18.8
			C70.3,21.7,72.7,13,67.1,11.4L67.1,11.4z"/>
	</g>
</g>
<path class="st8" d="M92.3,44.1h-2.5v-8.9h1.5c1.7,0,3,1.3,3,3v3.9C94.3,43.2,93.4,44.1,92.3,44.1z"/>
<path class="st8" d="M43,44.1h2.5v-8.9H44c-1.7,0-3,1.3-3,3v3.9C41,43.2,41.9,44.1,43,44.1z"/>
<path class="st9" d="M250.6,210.5h-84.8c-2.8,0-5-2.3-5-5V84.3c0-2.8,2.3-5,5-5h84.8c2.8,0,5,2.3,5,5v121.2
	C255.6,208.2,253.4,210.5,250.6,210.5z"/>
<polygon class="st10" points="185.4,142.3 166,151.7 166,128.1 185.4,133.9 "/>
<polygon class="st10" points="185.4,142.3 204.8,151.7 204.8,128.1 185.4,133.9 "/>
<rect x="204.8" y="137.3" class="st10" width="5.1" height="5.1"/>
<path class="st10" d="M249,116.3h-80.4c-0.6,0-1-0.4-1-1V86.9c0-0.6,0.4-1,1-1H249c0.6,0,1,0.4,1,1v28.4
	C250,115.9,249.6,116.3,249,116.3z"/>
<line class="st10" x1="174.6" y1="130.7" x2="174.7" y2="147.5"/>
<line class="st10" x1="166" y1="128.5" x2="174.7" y2="147.5"/>
<line class="st10" x1="174.7" y1="131" x2="166" y2="151.7"/>
<path class="st10" d="M250.6,153.6h-33.4c-0.6,0-1-0.4-1-1v-24.2c0-0.6,0.4-1,1-1h33.4c0.6,0,1,0.4,1,1v24.2
	C251.6,153.1,251.2,153.6,250.6,153.6z"/>
<path class="st10" d="M178.9,201.6h-14.2c-0.6,0-1-0.4-1-1v-32.6c0-0.6,0.4-1,1-1h14.2c0.6,0,1,0.4,1,1v32.6
	C179.9,201.1,179.4,201.6,178.9,201.6z"/>
<polygon class="st10" points="193.7,181.3 205.4,199.2 182,199.2 "/>
<polygon class="st10" points="216.9,181.3 228.6,199.2 205.2,199.2 "/>
<polygon class="st10" points="240.4,181.3 252.1,199.2 228.6,199.2 "/>
<line class="st10" x1="193.6" y1="181.1" x2="240.4" y2="181.1"/>
<path d="M234.8,131.9h-15.5c-0.6,0-1-0.5-1-1v-0.3c0-0.5,0.4-1,1-1h15.5c0.6,0,1,0.5,1,1v0.3C235.8,131.4,235.4,131.9,234.8,131.9z"
	/>
<path d="M234.8,136.4h-15.5c-0.6,0-1-0.5-1-1V135c0-0.6,0.4-1,1-1h15.5c0.6,0,1,0.4,1,1v0.3C235.8,135.9,235.4,136.4,234.8,136.4z"
	/>
<path d="M234.8,140.8h-15.5c-0.6,0-1-0.4-1-1v-0.3c0-0.6,0.4-1,1-1h15.5c0.6,0,1,0.4,1,1v0.3C235.8,140.4,235.4,140.8,234.8,140.8z"
	/>
<path d="M177.6,171.1h-11.7c-0.6,0-1-0.4-1-1v-0.3c0-0.6,0.4-1,1-1h11.7c0.6,0,1,0.4,1,1v0.3C178.6,170.7,178.2,171.1,177.6,171.1z"
	/>
<path d="M177.6,175.2h-11.7c-0.6,0-1-0.4-1-1v-0.3c0-0.6,0.4-1,1-1h11.7c0.6,0,1,0.4,1,1v0.3C178.6,174.7,178.2,175.2,177.6,175.2z"
	/>
<path d="M177.6,179.2h-11.7c-0.6,0-1-0.4-1-1v-0.3c0-0.6,0.4-1,1-1h11.7c0.5,0,1,0.4,1,1v0.3C178.6,178.8,178.2,179.2,177.6,179.2z"
	/>
<path d="M177.6,183.3h-11.7c-0.6,0-1-0.4-1-1v-0.3c0-0.6,0.4-1,1-1h11.7c0.5,0,1,0.4,1,1v0.3C178.6,182.8,178.2,183.3,177.6,183.3z"
	/>
<path d="M174.1,187.3h-8.2c-0.6,0-1-0.4-1-1V186c0-0.6,0.4-1,1-1h8.2c0.6,0,1,0.4,1,1v0.3C175.1,186.9,174.6,187.3,174.1,187.3z"/>
<path d="M246,93.8h-73.8c-0.5,0-1-0.4-1-1v-2.4c0-0.6,0.5-1,1-1H246c0.5,0,1,0.4,1,1v2.4C247,93.4,246.5,93.8,246,93.8z"/>
<path d="M238.6,101.8h-66.5c-0.5,0-1-0.5-1-1v-2.4c0-0.5,0.5-1,1-1h66.5c0.6,0,1,0.5,1,1v2.4C239.6,101.4,239.1,101.8,238.6,101.8z"
	/>
<rect x="143.1" y="123.2" class="st11" width="7.3" height="62.3"/>
<path class="st12" d="M149.4,187.5h-5.3c-0.5,0-1-0.4-1-1v-7.7h7.3v7.7C150.4,187,150,187.5,149.4,187.5z"/>
<rect x="143.1" y="177.9" class="st13" width="7.3" height="3.5"/>
<polygon class="st14" points="146.7,110.1 150.4,123.2 143.1,123.2 "/>
<polygon class="st4" points="148.4,116.1 146.7,110.1 145.1,116.1 "/>
<rect x="121" y="79.1" class="st15" width="12.1" height="116.1"/>
<path d="M133,82.7h-7.2c-0.6,0-1-0.4-1-1l0,0c0-0.6,0.4-1,1-1h7.2V82.7z"/>
<path d="M133,86.6h-3.1c-0.6,0-1-0.4-1-1l0,0c0-0.6,0.4-1,1-1h3.1V86.6z"/>
<path d="M133,90.5h-3.1c-0.6,0-1-0.4-1-1l0,0c0-0.6,0.4-1,1-1h3.1V90.5z"/>
<path d="M133,94.5h-3.1c-0.6,0-1-0.4-1-1l0,0c0-0.6,0.4-1,1-1h3.1V94.5z"/>
<path d="M133,98.4h-7.2c-0.6,0-1-0.4-1-1l0,0c0-0.6,0.4-1,1-1h7.2V98.4z"/>
<path d="M133,102.3h-3.1c-0.6,0-1-0.4-1-1l0,0c0-0.6,0.4-1,1-1h3.1V102.3z"/>
<path d="M133,106.3h-3.1c-0.6,0-1-0.4-1-1l0,0c0-0.6,0.4-1,1-1h3.1V106.3z"/>
<path d="M133,110.2h-3.1c-0.6,0-1-0.4-1-1l0,0c0-0.6,0.4-1,1-1h3.1V110.2z"/>
<path d="M133,114.1h-7.2c-0.6,0-1-0.4-1-1l0,0c0-0.6,0.4-1,1-1h7.2V114.1z"/>
<path d="M133,118.1h-3.1c-0.6,0-1-0.4-1-1l0,0c0-0.6,0.4-1,1-1h3.1V118.1z"/>
<path d="M133,122h-3.1c-0.6,0-1-0.4-1-1l0,0c0-0.6,0.4-1,1-1h3.1V122z"/>
<path d="M133,126h-3.1c-0.6,0-1-0.5-1-1l0,0c0-0.6,0.4-1,1-1h3.1V126z"/>
<path d="M133,129.9h-7.2c-0.6,0-1-0.4-1-1l0,0c0-0.6,0.4-1,1-1h7.2V129.9z"/>
<path d="M133,133.8h-3.1c-0.6,0-1-0.4-1-1l0,0c0-0.6,0.4-1,1-1h3.1V133.8z"/>
<path d="M133,137.8h-3.1c-0.6,0-1-0.4-1-1l0,0c0-0.6,0.4-1,1-1h3.1V137.8z"/>
<path d="M133,141.7h-3.1c-0.6,0-1-0.4-1-1l0,0c0-0.6,0.4-1,1-1h3.1V141.7z"/>
<path d="M133,145.6h-7.2c-0.6,0-1-0.4-1-1l0,0c0-0.6,0.4-1,1-1h7.2V145.6z"/>
<path d="M133,149.6h-3.1c-0.6,0-1-0.4-1-1l0,0c0-0.6,0.4-1,1-1h3.1V149.6z"/>
<path d="M133,153.5h-3.1c-0.6,0-1-0.4-1-1l0,0c0-0.6,0.4-1,1-1h3.1V153.5z"/>
<path d="M133,157.4h-3.1c-0.6,0-1-0.4-1-1l0,0c0-0.6,0.4-1,1-1h3.1V157.4z"/>
<path d="M133,161.4h-7.2c-0.6,0-1-0.4-1-1l0,0c0-0.6,0.4-1,1-1h7.2V161.4z"/>
<path d="M133,165.3h-3.1c-0.6,0-1-0.4-1-1l0,0c0-0.6,0.4-1,1-1h3.1V165.3z"/>
<path d="M133,169.3h-3.1c-0.6,0-1-0.4-1-1l0,0c0-0.6,0.4-1,1-1h3.1V169.3z"/>
<path d="M133,173.2h-3.1c-0.6,0-1-0.4-1-1l0,0c0-0.6,0.4-1,1-1h3.1V173.2z"/>
<path d="M133,177.1h-7.2c-0.6,0-1-0.4-1-1l0,0c0-0.6,0.4-1,1-1h7.2V177.1z"/>
<path d="M133,181.1h-3.1c-0.6,0-1-0.4-1-1l0,0c0-0.6,0.4-1,1-1h3.1V181.1z"/>
<path d="M133,185h-3.1c-0.6,0-1-0.4-1-1l0,0c0-0.6,0.4-1,1-1h3.1V185z"/>
<path d="M133,188.9h-3.1c-0.6,0-1-0.4-1-1l0,0c0-0.6,0.4-1,1-1h3.1V188.9z"/>
<path d="M133,192.9h-7.2c-0.6,0-1-0.4-1-1l0,0c0-0.6,0.4-1,1-1h7.2V192.9z"/>
</svg>
