<?xml version="1.0" encoding="utf-8"?>
<!-- Generator: Adobe Illustrator 24.0.1, SVG Export Plug-In . SVG Version: 6.00 Build 0)  -->
<svg version="1.1" id="Layer_1" xmlns="http://www.w3.org/2000/svg" xmlns:xlink="http://www.w3.org/1999/xlink" x="0px" y="0px"
	 viewBox="0 0 280 270" style="enable-background:new 0 0 280 270;" xml:space="preserve">
<style type="text/css">
	.st0{fill:#FFE5AC;}
	.st1{fill:#E8EAF5;}
	.st2{fill:#8B6235;}
	.st3{fill:#D8E8F6;stroke:#030202;stroke-miterlimit:10;}
	.st4{fill:none;stroke:#030202;stroke-miterlimit:10;}
	.st5{fill:#B07D2B;}
	.st6{fill:#A87C4F;}
	.st7{fill:#8091A7;}
	.st8{fill:#0C0907;}
	.st9{fill:#D1E8F8;}
	.st10{fill:#FFFAEB;}
	.st11{fill:#A7C6E8;}
	.st12{fill:#231F20;}
	.st13{fill:#FFF0EB;}
	.st14{fill:#200E0A;}
	.st15{fill:#635724;}
	.st16{fill:#2B2914;}
	.st17{fill:#F7F9E7;stroke:#030202;stroke-width:0.75;stroke-miterlimit:10;}
	.st18{fill:#EFA81F;stroke:#1F1B0E;stroke-width:0.5;stroke-miterlimit:10;}
	.st19{fill:#603813;}
	.st20{fill:#626366;}
	.st21{fill:#7E9BCF;}
	.st22{fill:#C8CACB;}
	.st23{font-family:'MyriadPro-Regular';}
	.st24{font-size:14px;}
	.st25{font-size:11.394px;}
	.st26{font-size:8.7739px;}
</style>
<path class="st0" d="M62,105.5H47.4c-2,0-3.6-1.6-3.6-3.6V83.7c0-2,1.6-3.6,3.6-3.6H62c2,0,3.6,1.6,3.6,3.6v18.2
	C65.6,103.9,64,105.5,62,105.5z"/>
<path class="st0" d="M61.5,76.2h-14c-9.9,0-18-8.1-18-18V31.8c0-10.5,8.5-19,19-19h12c10.5,0,19,8.5,19,19v26.4
	C79.5,68.1,71.4,76.2,61.5,76.2z"/>
<path class="st1" d="M71.7,27.5l-9-0.8c-1.1-0.1-1.9-1.1-1.8-2.2v0c0.1-1.1,1.1-1.9,2.2-1.8l9,0.8c1.1,0.1,1.9,1.1,1.8,2.2v0
	C73.8,26.8,72.8,27.6,71.7,27.5z"/>
<path class="st2" d="M82.7,44.9h-3.1V32h3.1c1.1,0,2,0.9,2,2v8.9C84.7,44,83.8,44.9,82.7,44.9z"/>
<g>
	<circle class="st3" cx="64.7" cy="35.6" r="8.1"/>
	<circle class="st3" cx="44.7" cy="35" r="8.1"/>
	<path class="st4" d="M54.8,34.4c-0.6,0-1.2,0.1-1.8,0.2l0,0.7c1.1-0.2,2.2-0.3,3.4,0l0.1-0.7C56,34.5,55.4,34.4,54.8,34.4z"/>
</g>
<g>
	<path class="st2" d="M55.1,47.2h-1.1c-1.1,0-2-0.9-2-2v-2.7c0-1.1,0.9-2,2-2h1.1c1.1,0,2,0.9,2,2v2.7
		C57.1,46.3,56.2,47.2,55.1,47.2z"/>
	<path class="st2" d="M56.6,50h-4.1c-0.8,0-1.4-0.6-1.4-1.4v-2.4c0-0.8,0.6-1.4,1.4-1.4h4.1c0.8,0,1.4,0.6,1.4,1.4v2.4
		C57.9,49.4,57.3,50,56.6,50z"/>
</g>
<path class="st1" d="M38.5,26.8l9-0.8c1.1-0.1,1.9-1.1,1.8-2.2v0c-0.1-1.1-1.1-1.9-2.2-1.8l-9,0.8c-1.1,0.1-1.9,1.1-1.8,2.2v0
	C36.4,26.1,37.4,26.9,38.5,26.8z"/>
<path class="st2" d="M26.4,44.9h3.1V32h-3.1c-1.1,0-2,0.9-2,2v8.9C24.4,44,25.3,44.9,26.4,44.9z"/>
<g>
	<g>
		<path class="st5" d="M29.1,50.8"/>
		<g>
			<path class="st6" d="M29.1,53.8c3.9,0,3.9-6,0-6C25.2,47.8,25.2,53.8,29.1,53.8L29.1,53.8z"/>
		</g>
	</g>
	<g>
		<path class="st5" d="M31.6,52.7"/>
		<g>
			<path class="st6" d="M31.6,55.7c3.9,0,3.9-6,0-6C27.7,49.7,27.7,55.7,31.6,55.7L31.6,55.7z"/>
		</g>
	</g>
	<g>
		<path class="st5" d="M28.4,56"/>
		<g>
			<path class="st6" d="M28.4,59c3.9,0,3.9-6,0-6C24.5,53,24.5,59,28.4,59L28.4,59z"/>
		</g>
	</g>
	<g>
		<path class="st5" d="M31.5,56.5"/>
		<g>
			<path class="st6" d="M31.5,59.5c3.9,0,3.9-6,0-6C27.6,53.5,27.6,59.5,31.5,59.5L31.5,59.5z"/>
		</g>
	</g>
	<g>
		<path class="st5" d="M34.5,55.7"/>
		<g>
			<path class="st6" d="M34.5,58.7c3.9,0,3.9-6,0-6C30.6,52.7,30.6,58.7,34.5,58.7L34.5,58.7z"/>
		</g>
	</g>
	<g>
		<path class="st5" d="M33.1,59.2"/>
		<g>
			<path class="st6" d="M33.1,62.2c3.9,0,3.9-6,0-6C29.2,56.2,29.2,62.2,33.1,62.2L33.1,62.2z"/>
		</g>
	</g>
	<g>
		<path class="st5" d="M28.5,59.8"/>
		<g>
			<path class="st6" d="M28.5,62.8c3.9,0,3.9-6,0-6C24.6,56.8,24.6,62.8,28.5,62.8L28.5,62.8z"/>
		</g>
	</g>
	<g>
		<path class="st5" d="M30.6,63.2"/>
		<g>
			<path class="st6" d="M30.6,66.2c3.9,0,3.9-6,0-6C26.7,60.2,26.7,66.2,30.6,66.2L30.6,66.2z"/>
		</g>
	</g>
	<g>
		<path class="st5" d="M33.6,63.3"/>
		<g>
			<path class="st6" d="M33.6,66.3c3.9,0,3.9-6,0-6C29.7,60.3,29.7,66.3,33.6,66.3L33.6,66.3z"/>
		</g>
	</g>
	<g>
		<path class="st5" d="M32,66.2"/>
		<g>
			<path class="st6" d="M32,69.2c3.9,0,3.9-6,0-6C28.1,63.2,28.1,69.2,32,69.2L32,69.2z"/>
		</g>
	</g>
	<g>
		<path class="st5" d="M33.5,70.8"/>
		<g>
			<path class="st6" d="M33.5,73.8c3.9,0,3.9-6,0-6C29.6,67.8,29.6,73.8,33.5,73.8L33.5,73.8z"/>
		</g>
	</g>
	<g>
		<path class="st5" d="M34.2,67.9"/>
		<g>
			<path class="st6" d="M34.2,70.9c3.9,0,3.9-6,0-6C30.4,64.9,30.4,70.9,34.2,70.9L34.2,70.9z"/>
		</g>
	</g>
	<g>
		<path class="st5" d="M37.1,68.8"/>
		<g>
			<path class="st6" d="M37.1,71.8c3.9,0,3.9-6,0-6C33.2,65.8,33.2,71.8,37.1,71.8L37.1,71.8z"/>
		</g>
	</g>
	<g>
		<path class="st5" d="M37.5,71"/>
		<g>
			<path class="st6" d="M37.5,74c3.9,0,3.9-6,0-6C33.6,68,33.6,74,37.5,74L37.5,74z"/>
		</g>
	</g>
	<g>
		<path class="st5" d="M38.7,73.4c0,0.1,0.1,0.2,0.1,0.3"/>
		<g>
			<path class="st6" d="M36.1,74.9c0,0.1,0.1,0.2,0.1,0.3c0.7,1.4,2.8,1.9,4.1,1.1c1.4-0.9,1.8-2.6,1.1-4.1c0-0.1-0.1-0.2-0.1-0.3
				c-0.7-1.4-2.8-1.9-4.1-1.1C35.8,71.8,35.4,73.4,36.1,74.9L36.1,74.9z"/>
		</g>
	</g>
	<g>
		<path class="st5" d="M41.7,74.9"/>
		<g>
			<path class="st6" d="M41.7,77.9c3.9,0,3.9-6,0-6C37.9,71.9,37.9,77.9,41.7,77.9L41.7,77.9z"/>
		</g>
	</g>
	<g>
		<path class="st5" d="M41.1,71"/>
		<g>
			<path class="st6" d="M41.1,74c3.9,0,3.9-6,0-6C37.2,68,37.2,74,41.1,74L41.1,74z"/>
		</g>
	</g>
	<g>
		<path class="st5" d="M44,73.7"/>
		<g>
			<path class="st6" d="M44,76.7c3.9,0,3.9-6,0-6C40.1,70.7,40.1,76.7,44,76.7L44,76.7z"/>
		</g>
	</g>
	<g>
		<path class="st5" d="M46.4,72"/>
		<g>
			<path class="st6" d="M46.4,75c3.9,0,3.9-6,0-6C42.5,69,42.5,75,46.4,75L46.4,75z"/>
		</g>
	</g>
	<g>
		<path class="st5" d="M49.7,72.3"/>
		<g>
			<path class="st6" d="M49.7,75.3c3.9,0,3.9-6,0-6C45.9,69.3,45.9,75.3,49.7,75.3L49.7,75.3z"/>
		</g>
	</g>
	<g>
		<path class="st5" d="M52.5,75.5"/>
		<g>
			<path class="st6" d="M52.5,78.5c3.9,0,3.9-6,0-6C48.6,72.5,48.6,78.5,52.5,78.5L52.5,78.5z"/>
		</g>
	</g>
	<g>
		<path class="st5" d="M50,77.7"/>
		<g>
			<path class="st6" d="M50,80.7c3.9,0,3.9-6,0-6C46.1,74.7,46.1,80.7,50,80.7L50,80.7z"/>
		</g>
	</g>
	<g>
		<path class="st5" d="M45.9,76.4"/>
		<g>
			<path class="st6" d="M45.9,79.4c3.9,0,3.9-6,0-6C42,73.4,42,79.4,45.9,79.4L45.9,79.4z"/>
		</g>
	</g>
	<g>
		<path class="st5" d="M44.6,78.9"/>
		<g>
			<path class="st6" d="M44.6,81.9c3.9,0,3.9-6,0-6C40.7,75.9,40.7,81.9,44.6,81.9L44.6,81.9z"/>
		</g>
	</g>
	<g>
		<path class="st5" d="M48.4,79.4"/>
		<g>
			<path class="st6" d="M48.4,82.4c3.9,0,3.9-6,0-6C44.5,76.4,44.5,82.4,48.4,82.4L48.4,82.4z"/>
		</g>
	</g>
	<g>
		<path class="st5" d="M52.6,80.5"/>
		<g>
			<path class="st6" d="M52.6,83.5c3.9,0,3.9-6,0-6C48.7,77.5,48.7,83.5,52.6,83.5L52.6,83.5z"/>
		</g>
	</g>
	<g>
		<path class="st5" d="M53.4,78.9"/>
		<g>
			<path class="st6" d="M53.4,81.9c3.9,0,3.9-6,0-6C49.5,75.9,49.5,81.9,53.4,81.9L53.4,81.9z"/>
		</g>
	</g>
	<g>
		<path class="st5" d="M57.7,76.2"/>
		<g>
			<path class="st6" d="M57.7,79.2c3.9,0,3.9-6,0-6C53.9,73.2,53.9,79.2,57.7,79.2L57.7,79.2z"/>
		</g>
	</g>
	<g>
		<path class="st5" d="M55.5,73.5"/>
		<g>
			<path class="st6" d="M55.5,76.5c3.9,0,3.9-6,0-6C51.6,70.5,51.6,76.5,55.5,76.5L55.5,76.5z"/>
		</g>
	</g>
	<g>
		<path class="st5" d="M59.5,71.4"/>
		<g>
			<path class="st6" d="M59.5,74.4c3.9,0,3.9-6,0-6C55.6,68.4,55.6,74.4,59.5,74.4L59.5,74.4z"/>
		</g>
	</g>
	<g>
		<path class="st5" d="M53,70.9"/>
		<g>
			<path class="st6" d="M53,73.9c3.9,0,3.9-6,0-6C49.1,67.9,49.1,73.9,53,73.9L53,73.9z"/>
		</g>
	</g>
	<g>
		<path class="st5" d="M62.7,70.3"/>
		<g>
			<path class="st6" d="M62.7,73.3c3.9,0,3.9-6,0-6C58.9,67.3,58.9,73.3,62.7,73.3L62.7,73.3z"/>
		</g>
	</g>
	<g>
		<path class="st5" d="M67.4,71.4"/>
		<g>
			<path class="st6" d="M67.4,74.4c3.9,0,3.9-6,0-6C63.5,68.4,63.5,74.4,67.4,74.4L67.4,74.4z"/>
		</g>
	</g>
	<g>
		<path class="st5" d="M70.6,70.9"/>
		<g>
			<path class="st6" d="M70.6,73.9c3.9,0,3.9-6,0-6C66.7,67.9,66.7,73.9,70.6,73.9L70.6,73.9z"/>
		</g>
	</g>
	<g>
		<path class="st5" d="M66.4,75.7"/>
		<g>
			<path class="st6" d="M66.4,78.7c3.9,0,3.9-6,0-6C62.5,72.7,62.5,78.7,66.4,78.7L66.4,78.7z"/>
		</g>
	</g>
	<g>
		<path class="st5" d="M63,73.8"/>
		<g>
			<path class="st6" d="M63,76.8c3.9,0,3.9-6,0-6C59.1,70.8,59.1,76.8,63,76.8L63,76.8z"/>
		</g>
	</g>
	<g>
		<path class="st5" d="M60,77.2"/>
		<g>
			<path class="st6" d="M60,80.2c3.9,0,3.9-6,0-6C56.1,74.2,56.1,80.2,60,80.2L60,80.2z"/>
		</g>
	</g>
	<g>
		<path class="st5" d="M63.4,77.3"/>
		<g>
			<path class="st6" d="M63.4,80.3c3.9,0,3.9-6,0-6C59.5,74.3,59.5,80.3,63.4,80.3L63.4,80.3z"/>
		</g>
	</g>
	<g>
		<path class="st5" d="M79.2,50.4"/>
		<g>
			<path class="st6" d="M79.2,53.4c3.9,0,3.9-6,0-6C75.4,47.4,75.4,53.4,79.2,53.4L79.2,53.4z"/>
		</g>
	</g>
	<g>
		<path class="st5" d="M81.1,52.2"/>
		<g>
			<path class="st6" d="M81.1,55.2c3.9,0,3.9-6,0-6C77.2,49.2,77.2,55.2,81.1,55.2L81.1,55.2z"/>
		</g>
	</g>
	<g>
		<path class="st5" d="M78.9,54.9"/>
		<g>
			<path class="st6" d="M78.9,57.9c3.9,0,3.9-6,0-6C75,51.9,75,57.9,78.9,57.9L78.9,57.9z"/>
		</g>
	</g>
	<g>
		<path class="st5" d="M76.5,57.7"/>
		<g>
			<path class="st6" d="M76.5,60.7c3.9,0,3.9-6,0-6C72.6,54.7,72.6,60.7,76.5,60.7L76.5,60.7z"/>
		</g>
	</g>
	<g>
		<path class="st5" d="M78.9,59.7"/>
		<g>
			<path class="st6" d="M78.9,62.7c3.9,0,3.9-6,0-6C75,56.7,75,62.7,78.9,62.7L78.9,62.7z"/>
		</g>
	</g>
	<g>
		<path class="st5" d="M80.7,64"/>
		<g>
			<path class="st6" d="M80.7,67c3.9,0,3.9-6,0-6C76.9,61,76.9,67,80.7,67L80.7,67z"/>
		</g>
	</g>
	<g>
		<path class="st5" d="M76.9,66.2"/>
		<g>
			<path class="st6" d="M76.9,69.2c3.9,0,3.9-6,0-6C73,63.2,73,69.2,76.9,69.2L76.9,69.2z"/>
		</g>
	</g>
	<g>
		<path class="st5" d="M76.2,63.8"/>
		<g>
			<path class="st6" d="M76.2,66.8c3.9,0,3.9-6,0-6C72.4,60.8,72.4,66.8,76.2,66.8L76.2,66.8z"/>
		</g>
	</g>
	<g>
		<path class="st5" d="M74.2,60.7"/>
		<g>
			<path class="st6" d="M74.2,63.7c3.9,0,3.9-6,0-6C70.4,57.7,70.4,63.7,74.2,63.7L74.2,63.7z"/>
		</g>
	</g>
	<g>
		<path class="st5" d="M73,66"/>
		<g>
			<path class="st6" d="M73,69c3.9,0,3.9-6,0-6C69.1,63,69.1,69,73,69L73,69z"/>
		</g>
	</g>
	<g>
		<path class="st5" d="M75.1,69"/>
		<g>
			<path class="st6" d="M75.1,72c3.9,0,3.9-6,0-6C71.2,66,71.2,72,75.1,72L75.1,72z"/>
		</g>
	</g>
	<g>
		<path class="st5" d="M73.4,72.3"/>
		<g>
			<path class="st6" d="M73.4,75.3c3.9,0,3.9-6,0-6C69.5,69.3,69.5,75.3,73.4,75.3L73.4,75.3z"/>
		</g>
	</g>
	<g>
		<path class="st5" d="M70,74"/>
		<g>
			<path class="st6" d="M70,77c3.9,0,3.9-6,0-6C66.1,71,66.1,77,70,77L70,77z"/>
		</g>
	</g>
	<g>
		<path class="st5" d="M72.4,77.3"/>
		<g>
			<path class="st6" d="M72.4,80.3c3.9,0,3.9-6,0-6C68.5,74.3,68.5,80.3,72.4,80.3L72.4,80.3z"/>
		</g>
	</g>
	<g>
		<path class="st5" d="M69.6,79.2"/>
		<g>
			<path class="st6" d="M69.6,82.2c3.9,0,3.9-6,0-6C65.7,76.2,65.7,82.2,69.6,82.2L69.6,82.2z"/>
		</g>
	</g>
	<g>
		<path class="st5" d="M67.9,82.4"/>
		<g>
			<path class="st6" d="M67.9,85.4c3.9,0,3.9-6,0-6C64,79.4,64,85.4,67.9,85.4L67.9,85.4z"/>
		</g>
	</g>
	<g>
		<path class="st5" d="M65.7,80.3"/>
		<g>
			<path class="st6" d="M65.7,83.3c3.9,0,3.9-6,0-6C61.9,77.3,61.9,83.3,65.7,83.3L65.7,83.3z"/>
		</g>
	</g>
	<g>
		<path class="st5" d="M61.5,80.3"/>
		<g>
			<path class="st6" d="M61.5,83.3c3.9,0,3.9-6,0-6C57.6,77.3,57.6,83.3,61.5,83.3L61.5,83.3z"/>
		</g>
	</g>
	<g>
		<path class="st5" d="M57.2,80.4"/>
		<g>
			<path class="st6" d="M57.2,83.4c3.9,0,3.9-6,0-6C53.4,77.4,53.4,83.4,57.2,83.4L57.2,83.4z"/>
		</g>
	</g>
	<g>
		<path class="st5" d="M61.5,83.9"/>
		<g>
			<path class="st6" d="M61.5,86.9c3.9,0,3.9-6,0-6C57.6,80.9,57.6,86.9,61.5,86.9L61.5,86.9z"/>
		</g>
	</g>
	<g>
		<path class="st5" d="M65.7,84.7"/>
		<g>
			<path class="st6" d="M65.7,87.7c3.9,0,3.9-6,0-6C61.9,81.7,61.9,87.7,65.7,87.7L65.7,87.7z"/>
		</g>
	</g>
	<g>
		<path class="st5" d="M64.2,87.5"/>
		<g>
			<path class="st6" d="M64.2,90.5c3.9,0,3.9-6,0-6C60.4,84.5,60.4,90.5,64.2,90.5L64.2,90.5z"/>
		</g>
	</g>
	<g>
		<path class="st5" d="M54.7,83.5"/>
		<g>
			<path class="st6" d="M54.7,86.5c3.9,0,3.9-6,0-6C50.9,80.5,50.9,86.5,54.7,86.5L54.7,86.5z"/>
		</g>
	</g>
	<g>
		<path class="st5" d="M51.6,84.5"/>
		<g>
			<path class="st6" d="M51.6,87.5c3.9,0,3.9-6,0-6C47.7,81.5,47.7,87.5,51.6,87.5L51.6,87.5z"/>
		</g>
	</g>
	<g>
		<path class="st5" d="M48.2,85.3"/>
		<g>
			<path class="st6" d="M48.2,88.3c3.9,0,3.9-6,0-6C44.4,82.3,44.4,88.3,48.2,88.3L48.2,88.3z"/>
		</g>
	</g>
	<g>
		<path class="st5" d="M45.5,82.7"/>
		<g>
			<path class="st6" d="M45.5,85.7c3.9,0,3.9-6,0-6C41.6,79.7,41.6,85.7,45.5,85.7L45.5,85.7z"/>
		</g>
	</g>
	<g>
		<path class="st5" d="M50.1,82.5"/>
		<g>
			<path class="st6" d="M50.1,85.5c3.9,0,3.9-6,0-6C46.2,79.5,46.2,85.5,50.1,85.5L50.1,85.5z"/>
		</g>
	</g>
	<g>
		<path class="st5" d="M34.7,73.9"/>
		<g>
			<path class="st6" d="M34.7,76.9c3.9,0,3.9-6,0-6C30.9,70.9,30.9,76.9,34.7,76.9L34.7,76.9z"/>
		</g>
	</g>
	<g>
		<path class="st5" d="M36.7,76.3"/>
		<g>
			<path class="st6" d="M36.7,79.3c3.9,0,3.9-6,0-6C32.9,73.3,32.9,79.3,36.7,79.3L36.7,79.3z"/>
		</g>
	</g>
	<g>
		<path class="st5" d="M39.4,77.5"/>
		<g>
			<path class="st6" d="M39.4,80.5c3.9,0,3.9-6,0-6C35.5,74.5,35.5,80.5,39.4,80.5L39.4,80.5z"/>
		</g>
	</g>
	<g>
		<path class="st5" d="M41.6,78.3"/>
		<g>
			<path class="st6" d="M41.6,81.3c3.9,0,3.9-6,0-6C37.7,75.3,37.7,81.3,41.6,81.3L41.6,81.3z"/>
		</g>
	</g>
	<g>
		<path class="st5" d="M42.1,82.9"/>
		<g>
			<path class="st6" d="M42.1,85.9c3.9,0,3.9-6,0-6C38.2,79.9,38.2,85.9,42.1,85.9L42.1,85.9z"/>
		</g>
	</g>
	<g>
		<path class="st5" d="M56.9,83.8"/>
		<g>
			<path class="st6" d="M56.9,86.8c3.9,0,3.9-6,0-6C53,80.8,53,86.8,56.9,86.8L56.9,86.8z"/>
		</g>
	</g>
	<g>
		<path class="st5" d="M60,86.4"/>
		<g>
			<path class="st6" d="M60,89.4c3.9,0,3.9-6,0-6C56.1,83.4,56.1,89.4,60,89.4L60,89.4z"/>
		</g>
	</g>
	<g>
		<path class="st5" d="M61.2,89.5"/>
		<g>
			<path class="st6" d="M61.2,92.5c3.9,0,3.9-6,0-6C57.4,86.5,57.4,92.5,61.2,92.5L61.2,92.5z"/>
		</g>
	</g>
	<g>
		<path class="st5" d="M56.5,92.3"/>
		<g>
			<path class="st6" d="M56.5,95.3c3.9,0,3.9-6,0-6C52.6,89.3,52.6,95.3,56.5,95.3L56.5,95.3z"/>
		</g>
	</g>
	<g>
		<path class="st5" d="M56.9,89.5"/>
		<g>
			<path class="st6" d="M56.9,92.5c3.9,0,3.9-6,0-6C53,86.5,53,92.5,56.9,92.5L56.9,92.5z"/>
		</g>
	</g>
	<g>
		<path class="st5" d="M53.5,87.5"/>
		<g>
			<path class="st6" d="M53.5,90.5c3.9,0,3.9-6,0-6C49.6,84.5,49.6,90.5,53.5,90.5L53.5,90.5z"/>
		</g>
	</g>
	<g>
		<path class="st5" d="M54.1,90.5"/>
		<g>
			<path class="st6" d="M54.1,93.5c3.9,0,3.9-6,0-6C50.2,87.5,50.2,93.5,54.1,93.5L54.1,93.5z"/>
		</g>
	</g>
	<g>
		<path class="st5" d="M49.9,88.5"/>
		<g>
			<path class="st6" d="M49.9,91.5c3.9,0,3.9-6,0-6C46,85.5,46,91.5,49.9,91.5L49.9,91.5z"/>
		</g>
	</g>
	<g>
		<path class="st5" d="M43.7,87.4"/>
		<g>
			<path class="st6" d="M43.7,90.4c3.9,0,3.9-6,0-6C39.9,84.4,39.9,90.4,43.7,90.4L43.7,90.4z"/>
		</g>
	</g>
	<g>
		<path class="st5" d="M47,89.4"/>
		<g>
			<path class="st6" d="M47,92.4c3.9,0,3.9-6,0-6C43.1,86.4,43.1,92.4,47,92.4L47,92.4z"/>
		</g>
	</g>
	<g>
		<path class="st5" d="M48.7,91.5"/>
		<g>
			<path class="st6" d="M48.7,94.5c3.9,0,3.9-6,0-6C44.9,88.5,44.9,94.5,48.7,94.5L48.7,94.5z"/>
		</g>
	</g>
	<g>
		<path class="st5" d="M51.4,91.8"/>
		<g>
			<path class="st6" d="M51.4,94.8c3.9,0,3.9-6,0-6C47.5,88.8,47.5,94.8,51.4,94.8L51.4,94.8z"/>
		</g>
	</g>
	<g>
		<path class="st5" d="M27.6,62.9c0.1,0,0.2,0,0.3,0"/>
		<g>
			<path class="st6" d="M27.6,65.9c0.1,0,0.2,0,0.3,0c1.6,0,3.1-1.4,3-3c-0.1-1.6-1.3-3-3-3c-0.1,0-0.2,0-0.3,0c-1.6,0-3.1,1.4-3,3
				C24.7,64.5,25.9,65.9,27.6,65.9L27.6,65.9z"/>
		</g>
	</g>
	<g>
		<path class="st5" d="M29,66.3"/>
		<g>
			<path class="st6" d="M29,69.3c3.9,0,3.9-6,0-6C25.1,63.3,25.1,69.3,29,69.3L29,69.3z"/>
		</g>
	</g>
	<g>
		<path class="st5" d="M29.6,68.9c0,0,0.1,0.1,0.1,0.1"/>
		<g>
			<path class="st6" d="M27.5,71c0,0,0.1,0.1,0.1,0.1c1.1,1.1,3.1,1.2,4.2,0c1.1-1.2,1.2-3.1,0-4.2c0,0-0.1-0.1-0.1-0.1
				c-1.1-1.1-3.1-1.2-4.2,0C26.4,68,26.3,69.9,27.5,71L27.5,71z"/>
		</g>
	</g>
	<g>
		<path class="st5" d="M29.2,72.2"/>
		<g>
			<path class="st6" d="M29.2,75.2c3.9,0,3.9-6,0-6C25.4,69.2,25.4,75.2,29.2,75.2L29.2,75.2z"/>
		</g>
	</g>
	<g>
		<path class="st5" d="M31.2,74.5c0.1,0.1,0.2,0.2,0.3,0.3"/>
		<g>
			<path class="st6" d="M29.1,76.7c0.1,0.1,0.2,0.2,0.3,0.3c1.1,1.1,3.1,1.2,4.2,0c1.1-1.2,1.2-3.1,0-4.2c-0.1-0.1-0.2-0.2-0.3-0.3
				c-1.1-1.1-3.1-1.2-4.2,0C28,73.6,27.9,75.5,29.1,76.7L29.1,76.7z"/>
		</g>
	</g>
	<g>
		<path class="st5" d="M32.8,77.3c0.1,0.2,0.2,0.3,0.3,0.5"/>
		<g>
			<path class="st6" d="M30.3,78.8c0.1,0.2,0.2,0.3,0.3,0.5c0.7,1.4,2.8,1.9,4.1,1.1c1.4-0.9,1.8-2.6,1.1-4.1
				c-0.1-0.2-0.2-0.3-0.3-0.5c-0.7-1.4-2.8-1.9-4.1-1.1C29.9,75.6,29.5,77.3,30.3,78.8L30.3,78.8z"/>
		</g>
	</g>
	<g>
		<path class="st5" d="M34.4,80.2c0,0.1,0.1,0.2,0.1,0.3"/>
		<g>
			<path class="st6" d="M31.8,81.7c0,0.1,0.1,0.2,0.1,0.3c0.7,1.4,2.8,1.9,4.1,1.1c1.4-0.9,1.8-2.6,1.1-4.1c0-0.1-0.1-0.2-0.1-0.3
				c-0.7-1.4-2.8-1.9-4.1-1.1C31.4,78.5,31,80.2,31.8,81.7L31.8,81.7z"/>
		</g>
	</g>
	<g>
		<path class="st5" d="M37,81.5"/>
		<g>
			<path class="st6" d="M37,84.5c3.9,0,3.9-6,0-6C33.1,78.5,33.1,84.5,37,84.5L37,84.5z"/>
		</g>
	</g>
	<g>
		<path class="st5" d="M38.5,81.3"/>
		<g>
			<path class="st6" d="M38.5,84.3c3.9,0,3.9-6,0-6C34.6,78.3,34.6,84.3,38.5,84.3L38.5,84.3z"/>
		</g>
	</g>
	<g>
		<path class="st5" d="M37.6,84.2"/>
		<g>
			<path class="st6" d="M37.6,87.2c3.9,0,3.9-6,0-6C33.7,81.2,33.7,87.2,37.6,87.2L37.6,87.2z"/>
		</g>
	</g>
	<g>
		<path class="st5" d="M38.4,86.7"/>
		<g>
			<path class="st6" d="M38.4,89.7c3.9,0,3.9-6,0-6C34.5,83.7,34.5,89.7,38.4,89.7L38.4,89.7z"/>
		</g>
	</g>
	<g>
		<path class="st5" d="M39.6,87.3c0.2,0,0.3,0.1,0.4,0.2"/>
		<g>
			<path class="st6" d="M39.6,90.3c0,0,0.1,0,0.1,0c-0.5-0.1-1-0.3-1.5-0.4c-0.3-0.3-0.6-0.6-0.8-0.8c0.7,1.4,2.8,1.9,4.1,1.1
				c1.4-0.9,1.8-2.6,1.1-4.1c-0.6-1.1-1.8-1.6-3-1.7c-1.6-0.1-3.1,1.5-3,3C36.7,89,37.9,90.2,39.6,90.3L39.6,90.3z"/>
		</g>
	</g>
	<g>
		<path class="st5" d="M42.4,90.9"/>
		<g>
			<path class="st6" d="M42.4,93.9c3.9,0,3.9-6,0-6C38.5,87.9,38.5,93.9,42.4,93.9L42.4,93.9z"/>
		</g>
	</g>
	<g>
		<path class="st5" d="M45.4,93.7"/>
		<g>
			<path class="st6" d="M45.4,96.7c3.9,0,3.9-6,0-6C41.5,90.7,41.5,96.7,45.4,96.7L45.4,96.7z"/>
		</g>
	</g>
	<g>
		<path class="st5" d="M79.7,67.7"/>
		<g>
			<path class="st6" d="M79.7,70.7c3.9,0,3.9-6,0-6C75.9,64.7,75.9,70.7,79.7,70.7L79.7,70.7z"/>
		</g>
	</g>
	<g>
		<path class="st5" d="M81.4,62.9c0-0.1,0.1-0.2,0.1-0.2"/>
		<g>
			<path class="st6" d="M84,64.4c0-0.1,0.1-0.2,0.1-0.2c0.7-1.4,0.4-3.3-1.1-4.1c-1.4-0.7-3.4-0.4-4.1,1.1c0,0.1-0.1,0.2-0.1,0.2
				c-0.7,1.4-0.4,3.3,1.1,4.1C81.2,66.2,83.2,65.9,84,64.4L84,64.4z"/>
		</g>
	</g>
	<g>
		<path class="st5" d="M81.5,59"/>
		<g>
			<path class="st6" d="M81.5,62c3.9,0,3.9-6,0-6C77.6,56,77.6,62,81.5,62L81.5,62z"/>
		</g>
	</g>
	<g>
		<path class="st5" d="M82,55.7"/>
		<g>
			<path class="st6" d="M82,58.7c3.9,0,3.9-6,0-6C78.1,52.7,78.1,58.7,82,58.7L82,58.7z"/>
		</g>
	</g>
	<g>
		<path class="st5" d="M79.9,69.9"/>
		<g>
			<path class="st6" d="M79.9,72.9c3.9,0,3.9-6,0-6C76,66.9,76,72.9,79.9,72.9L79.9,72.9z"/>
		</g>
	</g>
	<g>
		<path class="st5" d="M79.2,73.4"/>
		<g>
			<path class="st6" d="M79.2,76.4c3.9,0,3.9-6,0-6C75.4,70.4,75.4,76.4,79.2,76.4L79.2,76.4z"/>
		</g>
	</g>
	<g>
		<path class="st5" d="M76,72c0,0,0-0.1,0-0.1"/>
		<g>
			<path class="st6" d="M79,72c0,0,0-0.1,0-0.1c0-1.6-1.4-3.1-3-3c-1.6,0.1-3,1.3-3,3c0,0,0,0.1,0,0.1c0,1.6,1.4,3.1,3,3
				C77.6,75,79,73.7,79,72L79,72z"/>
		</g>
	</g>
	<g>
		<path class="st5" d="M75.5,76.8"/>
		<g>
			<path class="st6" d="M75.5,79.8c3.9,0,3.9-6,0-6C71.6,73.8,71.6,79.8,75.5,79.8L75.5,79.8z"/>
		</g>
	</g>
	<g>
		<path class="st5" d="M77.6,76.5"/>
		<g>
			<path class="st6" d="M77.6,79.5c3.9,0,3.9-6,0-6C73.7,73.5,73.7,79.5,77.6,79.5L77.6,79.5z"/>
		</g>
	</g>
	<g>
		<path class="st5" d="M73.2,80.5"/>
		<g>
			<path class="st6" d="M73.2,83.5c3.9,0,3.9-6,0-6C69.4,77.5,69.4,83.5,73.2,83.5L73.2,83.5z"/>
		</g>
	</g>
	<g>
		<path class="st5" d="M75.6,79.9"/>
		<g>
			<path class="st6" d="M75.6,82.9c3.9,0,3.9-6,0-6C71.7,76.9,71.7,82.9,75.6,82.9L75.6,82.9z"/>
		</g>
	</g>
	<g>
		<path class="st5" d="M72.1,84.7"/>
		<g>
			<path class="st6" d="M72.1,87.7c3.9,0,3.9-6,0-6C68.2,81.7,68.2,87.7,72.1,87.7L72.1,87.7z"/>
		</g>
	</g>
	<g>
		<path class="st5" d="M69,86.9"/>
		<g>
			<path class="st6" d="M69,89.9c3.9,0,3.9-6,0-6C65.1,83.9,65.1,89.9,69,89.9L69,89.9z"/>
		</g>
	</g>
	<g>
		<path class="st5" d="M66.7,88.7"/>
		<g>
			<path class="st6" d="M66.7,91.7c3.9,0,3.9-6,0-6C62.9,85.7,62.9,91.7,66.7,91.7L66.7,91.7z"/>
		</g>
	</g>
	<g>
		<path class="st5" d="M64.2,91.8"/>
		<g>
			<path class="st6" d="M64.2,94.8c3.9,0,3.9-6,0-6C60.4,88.8,60.4,94.8,64.2,94.8L64.2,94.8z"/>
		</g>
	</g>
	<g>
		<path class="st5" d="M60.4,93.3"/>
		<g>
			<path class="st6" d="M60.4,96.3c3.9,0,3.9-6,0-6C56.5,90.3,56.5,96.3,60.4,96.3L60.4,96.3z"/>
		</g>
	</g>
	<g>
		<path class="st5" d="M53.5,94.9"/>
		<g>
			<path class="st6" d="M53.5,97.9c3.9,0,3.9-6,0-6C49.6,91.9,49.6,97.9,53.5,97.9L53.5,97.9z"/>
		</g>
	</g>
	<g>
		<path class="st5" d="M57.1,95.7"/>
		<g>
			<path class="st6" d="M57.1,98.7c3.9,0,3.9-6,0-6C53.2,92.7,53.2,98.7,57.1,98.7L57.1,98.7z"/>
		</g>
	</g>
	<g>
		<path class="st5" d="M48.4,95.2"/>
		<g>
			<path class="st6" d="M48.4,98.2c3.9,0,3.9-6,0-6C44.5,92.2,44.5,98.2,48.4,98.2L48.4,98.2z"/>
		</g>
	</g>
	<g>
		<path class="st5" d="M29.4,47.3"/>
		<g>
			<path class="st6" d="M29.4,50.3c3.9,0,3.9-6,0-6C25.5,44.3,25.5,50.3,29.4,50.3L29.4,50.3z"/>
		</g>
	</g>
	<g>
		<path class="st5" d="M29,43.8"/>
		<g>
			<path class="st6" d="M29,46.8c3.9,0,3.9-6,0-6C25.1,40.8,25.1,46.8,29,46.8L29,46.8z"/>
		</g>
	</g>
	<g>
		<path class="st5" d="M31,44.2"/>
		<g>
			<path class="st6" d="M31,47.2c3.9,0,3.9-6,0-6C27.1,41.2,27.1,47.2,31,47.2L31,47.2z"/>
		</g>
	</g>
	<g>
		<path class="st5" d="M32.1,49.3"/>
		<g>
			<path class="st6" d="M32.1,52.3c3.9,0,3.9-6,0-6C28.2,46.3,28.2,52.3,32.1,52.3L32.1,52.3z"/>
		</g>
	</g>
	<g>
		<path class="st5" d="M78.4,44.8"/>
		<g>
			<path class="st6" d="M78.4,47.8c3.9,0,3.9-6,0-6C74.5,41.8,74.5,47.8,78.4,47.8L78.4,47.8z"/>
		</g>
	</g>
	<g>
		<path class="st5" d="M81.1,44"/>
		<g>
			<path class="st6" d="M81.1,47c3.9,0,3.9-6,0-6C77.2,41,77.2,47,81.1,47L81.1,47z"/>
		</g>
	</g>
	<g>
		<path class="st5" d="M81.1,48.2"/>
		<g>
			<path class="st6" d="M81.1,51.2c3.9,0,3.9-6,0-6C77.2,45.2,77.2,51.2,81.1,51.2L81.1,51.2z"/>
		</g>
	</g>
	<g>
		<path class="st5" d="M76.2,47.5"/>
		<g>
			<path class="st6" d="M76.2,50.5c3.9,0,3.9-6,0-6C72.4,44.5,72.4,50.5,76.2,50.5L76.2,50.5z"/>
		</g>
	</g>
	<g>
		<path class="st5" d="M76.6,52.3"/>
		<g>
			<path class="st6" d="M76.6,55.3c3.9,0,3.9-6,0-6C72.7,49.3,72.7,55.3,76.6,55.3L76.6,55.3z"/>
		</g>
	</g>
</g>
<g>
	<g>
		<path class="st7" d="M41.8,15.8c0.6,0,0.6-1,0-1C41.2,14.8,41.2,15.8,41.8,15.8L41.8,15.8z"/>
	</g>
</g>
<g>
	<g>
		<path class="st7" d="M46.2,14.9c0.6,0,0.6-1,0-1C45.6,13.9,45.6,14.9,46.2,14.9L46.2,14.9z"/>
	</g>
</g>
<g>
	<g>
		<path class="st7" d="M38.2,17.9c0.6,0,0.6-1,0-1C37.6,16.9,37.6,17.9,38.2,17.9L38.2,17.9z"/>
	</g>
</g>
<g>
	<g>
		<path class="st7" d="M43.8,16.3c0.6,0,0.6-1,0-1C43.2,15.3,43.2,16.3,43.8,16.3L43.8,16.3z"/>
	</g>
</g>
<g>
	<g>
		<path class="st7" d="M48.7,14.6c0.6,0,0.6-1,0-1C48.1,13.6,48.1,14.6,48.7,14.6L48.7,14.6z"/>
	</g>
</g>
<g>
	<g>
		<path class="st7" d="M54.3,14.5c0.6,0,0.6-1,0-1C53.7,13.5,53.7,14.5,54.3,14.5L54.3,14.5z"/>
	</g>
</g>
<g>
	<g>
		<path class="st7" d="M52.3,14.1c0.6,0,0.6-1,0-1C51.7,13.1,51.7,14.1,52.3,14.1L52.3,14.1z"/>
	</g>
</g>
<g>
	<g>
		<path class="st7" d="M57.2,14c0.6,0,0.6-1,0-1C56.6,13,56.6,14,57.2,14L57.2,14z"/>
	</g>
</g>
<g>
	<g>
		<path class="st7" d="M65.2,15.3c0.6,0,0.6-1,0-1C64.6,14.3,64.6,15.3,65.2,15.3L65.2,15.3z"/>
	</g>
</g>
<g>
	<g>
		<path class="st7" d="M62.3,14.8c0.6,0,0.6-1,0-1C61.7,13.8,61.7,14.8,62.3,14.8L62.3,14.8z"/>
	</g>
</g>
<g>
	<g>
		<path class="st7" d="M59.7,14.4c0.6,0,0.6-1,0-1C59.1,13.4,59.1,14.4,59.7,14.4L59.7,14.4z"/>
	</g>
</g>
<g>
	<g>
		<path class="st7" d="M56.5,15.8c0.6,0,0.6-1,0-1C55.8,14.8,55.8,15.8,56.5,15.8L56.5,15.8z"/>
	</g>
</g>
<g>
	<g>
		<path class="st7" d="M52.6,16.6c0.6,0,0.6-1,0-1C51.9,15.6,51.9,16.6,52.6,16.6L52.6,16.6z"/>
	</g>
</g>
<g>
	<g>
		<path class="st7" d="M50.5,15.1c0.6,0,0.6-1,0-1C49.8,14.1,49.8,15.1,50.5,15.1L50.5,15.1z"/>
	</g>
</g>
<g>
	<g>
		<path class="st7" d="M47.5,16.9c0.6,0,0.6-1,0-1C46.8,15.9,46.8,16.9,47.5,16.9L47.5,16.9z"/>
	</g>
</g>
<g>
	<g>
		<path class="st7" d="M49.7,17.1c0.6,0,0.6-1,0-1C49.1,16.1,49.1,17.1,49.7,17.1L49.7,17.1z"/>
	</g>
</g>
<g>
	<g>
		<path class="st7" d="M44.8,17.4c0.6,0,0.6-1,0-1C44.2,16.4,44.2,17.4,44.8,17.4L44.8,17.4z"/>
	</g>
</g>
<g>
	<g>
		<path class="st7" d="M40.2,17.4c0.6,0,0.6-1,0-1C39.6,16.4,39.6,17.4,40.2,17.4L40.2,17.4z"/>
	</g>
</g>
<g>
	<g>
		<path class="st7" d="M42.7,17.8c0.6,0,0.6-1,0-1C42.1,16.8,42.1,17.8,42.7,17.8L42.7,17.8z"/>
	</g>
</g>
<g>
	<g>
		<path class="st7" d="M58.1,16.1c0.6,0,0.6-1,0-1C57.4,15.1,57.4,16.1,58.1,16.1L58.1,16.1z"/>
	</g>
</g>
<g>
	<g>
		<path class="st7" d="M61.3,15.8c0.6,0,0.6-1,0-1C60.7,14.8,60.7,15.8,61.3,15.8L61.3,15.8z"/>
	</g>
</g>
<g>
	<g>
		<path class="st7" d="M63.8,16.6c0.6,0,0.6-1,0-1C63.2,15.6,63.2,16.6,63.8,16.6L63.8,16.6z"/>
	</g>
</g>
<g>
	<g>
		<path class="st7" d="M66.3,15.8c0.6,0,0.6-1,0-1C65.7,14.8,65.7,15.8,66.3,15.8L66.3,15.8z"/>
	</g>
</g>
<g>
	<g>
		<path class="st7" d="M66.6,17.6c0.6,0,0.6-1,0-1C65.9,16.6,65.9,17.6,66.6,17.6L66.6,17.6z"/>
	</g>
</g>
<g>
	<g>
		<path class="st7" d="M68.3,17.3c0.6,0,0.6-1,0-1C67.7,16.3,67.7,17.3,68.3,17.3L68.3,17.3z"/>
	</g>
</g>
<g>
	<g>
		<path class="st7" d="M71,17.9c0.6,0,0.6-1,0-1C70.3,16.9,70.3,17.9,71,17.9L71,17.9z"/>
	</g>
</g>
<g>
	<g>
		<path class="st7" d="M68.7,16c0.6,0,0.6-1,0-1C68.1,15,68.1,16,68.7,16L68.7,16z"/>
	</g>
</g>
<g>
	<g>
		<path class="st7" d="M72.6,19.8c0.6,0,0.6-1,0-1C71.9,18.8,71.9,19.8,72.6,19.8L72.6,19.8z"/>
	</g>
</g>
<g>
	<g>
		<path class="st7" d="M74.6,21c0.6,0,0.6-1,0-1C73.9,20,73.9,21,74.6,21L74.6,21z"/>
	</g>
</g>
<g>
	<g>
		<path class="st7" d="M74.5,22.6c0.6,0,0.6-1,0-1C73.8,21.6,73.8,22.6,74.5,22.6L74.5,22.6z"/>
	</g>
</g>
<g>
	<g>
		<path class="st7" d="M76.1,23.3c0.6,0,0.6-1,0-1C75.4,22.3,75.4,23.3,76.1,23.3L76.1,23.3z"/>
	</g>
</g>
<g>
	<g>
		<path class="st7" d="M76.8,25.5c0.6,0,0.6-1,0-1C76.2,24.5,76.2,25.5,76.8,25.5L76.8,25.5z"/>
	</g>
</g>
<g>
	<g>
		<path class="st7" d="M76.3,26.4c0.6,0,0.6-1,0-1C75.7,25.4,75.7,26.4,76.3,26.4L76.3,26.4z"/>
	</g>
</g>
<g>
	<g>
		<path class="st7" d="M78.1,29c0.6,0,0.6-1,0-1C77.4,28,77.4,29,78.1,29L78.1,29z"/>
	</g>
</g>
<g>
	<g>
		<path class="st7" d="M78.1,31.3c0.6,0,0.6-1,0-1C77.4,30.3,77.4,31.3,78.1,31.3L78.1,31.3z"/>
	</g>
</g>
<g>
	<g>
		<path class="st7" d="M38.7,19.4c0.6,0,0.6-1,0-1C38.1,18.4,38.1,19.4,38.7,19.4L38.7,19.4z"/>
	</g>
</g>
<g>
	<g>
		<path class="st7" d="M35.6,20.1c0.6,0,0.6-1,0-1C34.9,19.1,34.9,20.1,35.6,20.1L35.6,20.1z"/>
	</g>
</g>
<g>
	<g>
		<path class="st7" d="M37.5,20.9c0.6,0,0.6-1,0-1C36.8,19.9,36.8,20.9,37.5,20.9L37.5,20.9z"/>
	</g>
</g>
<g>
	<g>
		<path class="st7" d="M34,22.5c0.6,0,0.6-1,0-1C33.3,21.5,33.3,22.5,34,22.5L34,22.5z"/>
	</g>
</g>
<g>
	<g>
		<path class="st7" d="M35.7,22c0.6,0,0.6-1,0-1C35.1,21,35.1,22,35.7,22L35.7,22z"/>
	</g>
</g>
<g>
	<g>
		<path class="st7" d="M33.5,24.9c0.6,0,0.6-1,0-1C32.8,23.9,32.8,24.9,33.5,24.9L33.5,24.9z"/>
	</g>
</g>
<g>
	<g>
		<path class="st7" d="M31.7,25.4c0.6,0,0.6-1,0-1C31.1,24.4,31.1,25.4,31.7,25.4L31.7,25.4z"/>
	</g>
</g>
<g>
	<g>
		<path class="st7" d="M32.5,27.4c0.6,0,0.6-1,0-1C31.8,26.4,31.8,27.4,32.5,27.4L32.5,27.4z"/>
	</g>
</g>
<g>
	<g>
		<path class="st7" d="M30.7,28.8c0.6,0,0.6-1,0-1C30.1,27.8,30.1,28.8,30.7,28.8L30.7,28.8z"/>
	</g>
</g>
<g>
	<g>
		<path class="st7" d="M31.6,29.9c0.6,0,0.6-1,0-1C30.9,28.9,30.9,29.9,31.6,29.9L31.6,29.9z"/>
	</g>
</g>
<g>
	<g>
		<path class="st7" d="M30.6,31.5c0.6,0,0.6-1,0-1C29.9,30.5,29.9,31.5,30.6,31.5L30.6,31.5z"/>
	</g>
</g>
<g>
	<g>
		<path class="st7" d="M69.1,18.8c0.6,0,0.6-1,0-1C68.4,17.8,68.4,18.8,69.1,18.8L69.1,18.8z"/>
	</g>
</g>
<g>
	<g>
		<path class="st8" d="M45.1,56.7c3.2,2.3,7.2,4.7,11.2,5.2c3.1,0.4,5.6-1.5,8-3.2c0.5-0.4,0-1.2-0.5-0.9c-2.9,2.1-5.8,3.8-9.6,2.5
			c-3.1-1-5.9-2.6-8.6-4.5C45,55.4,44.5,56.3,45.1,56.7L45.1,56.7z"/>
	</g>
</g>
<g>
	<g>
		<path class="st8" d="M43,54.1c-0.4,0.8-0.6,1.6-0.6,2.5c0,0.6,1,0.6,1,0c0-0.7,0.2-1.4,0.5-2C44.1,54,43.3,53.5,43,54.1L43,54.1z"
			/>
	</g>
</g>
<g>
	<g>
		<path class="st8" d="M42.5,51.4c-1.7,1.9-2.6,4.2-2.6,6.7c0,0.6,1,0.6,1,0c0-2.3,0.8-4.3,2.3-6C43.6,51.6,42.9,50.9,42.5,51.4
			L42.5,51.4z"/>
	</g>
</g>
<circle class="st8" cx="44.7" cy="35" r="1.8"/>
<circle class="st8" cx="65.2" cy="34.9" r="1.8"/>
<path class="st9" d="M76.3,171H33c-3.5,0-6.4-2.9-6.4-6.4V109c0-3.5,2.9-6.4,6.4-6.4h43.3c3.5,0,6.4,2.9,6.4,6.4v55.7
	C82.7,168.2,79.8,171,76.3,171z"/>
<rect x="68.2" y="112.9" class="st10" width="7.8" height="7.8"/>
<path class="st11" d="M74.3,125.8h-4.5c-1.6,0-2.9-1.3-2.9-2.9v-4.5c0-1.6,1.3-2.9,2.9-2.9h4.5c1.6,0,2.9,1.3,2.9,2.9v4.5
	C77.2,124.5,75.9,125.8,74.3,125.8z"/>
<g>
	<path class="st12" d="M99.8,267.3H57.7V244h24.2c9.9,0,18,8.1,18,18V267.3z"/>
	<rect x="57.7" y="263.4" class="st13" width="42.2" height="3.9"/>
	<rect x="57.7" y="265.3" class="st14" width="42.2" height="1"/>
</g>
<path class="st0" d="M68.3,251h-5.4c-2.9,0-5.2-2.3-5.2-5.2V237c0-2.9,2.3-5.2,5.2-5.2h5.4c2.9,0,5.2,2.3,5.2,5.2v8.8
	C73.5,248.6,71.1,251,68.3,251z"/>
<path class="st15" d="M73.5,242.2H57.7V170c0-3.3,2.7-6,6-6h3.8c3.3,0,6,2.7,6,6V242.2z"/>
<path class="st16" d="M72.1,242.2H59c-1.7,0-3-1.3-3-3v-1.3c0-1.7,1.3-3,3-3h13.1c1.7,0,3,1.3,3,3v1.3
	C75.1,240.9,73.8,242.2,72.1,242.2z"/>
<g>
	<path class="st12" d="M7.8,267.3h42.2V244H25.8c-9.9,0-18,8.1-18,18V267.3z"/>
	
		<rect x="7.8" y="263.4" transform="matrix(-1 -4.486379e-11 4.486379e-11 -1 57.732 530.6725)" class="st13" width="42.2" height="3.9"/>
	
		<rect x="7.8" y="265.3" transform="matrix(-1 -4.494994e-11 4.494994e-11 -1 57.732 531.6476)" class="st14" width="42.2" height="1"/>
</g>
<path class="st0" d="M39.3,251h5.4c2.9,0,5.2-2.3,5.2-5.2V237c0-2.9-2.3-5.2-5.2-5.2h-5.4c-2.9,0-5.2,2.3-5.2,5.2v8.8
	C34.2,248.6,36.5,251,39.3,251z"/>
<path class="st15" d="M34.2,242.2h15.8V170c0-3.3-2.7-6-6-6h-3.8c-3.3,0-6,2.7-6,6V242.2z"/>
<path class="st16" d="M35.5,242.2h13.1c1.7,0,3-1.3,3-3v-1.3c0-1.7-1.3-3-3-3H35.5c-1.7,0-3,1.3-3,3v1.3
	C32.5,240.9,33.9,242.2,35.5,242.2z"/>
<rect x="25.5" y="163.3" class="st12" width="56" height="7.8"/>
<path class="st17" d="M58.1,172.6h-7.4c-2.1,0-3.7-1.7-3.7-3.7v-4c0-2.1,1.7-3.7,3.7-3.7h7.4c2.1,0,3.7,1.7,3.7,3.7v4
	C61.8,170.9,60.1,172.6,58.1,172.6z"/>
<path class="st9" d="M88.6,105.5h-5.2c-10.2,0-4.2,12.2-4.2,24.9v36.8H95v-36.8C95,117.7,97.7,108.4,88.6,105.5z"/>
<path class="st9" d="M21,106h5.2c10.2,0,4.2,12.2,4.2,24.9v36.8H14.6v-36.8C14.6,118.2,12,108.9,21,106z"/>
<circle class="st0" cx="21.4" cy="170.9" r="9.4"/>
<polygon class="st18" points="53.5,110.8 49.6,107.5 53.4,103.3 57.3,107.7 "/>
<polygon class="st18" points="53.8,147.5 48.4,142.4 50.4,108.1 53.5,110.8 56.6,108.2 59.2,142.2 "/>
<g>
	<g>
		<path class="st19" d="M80.3,32.7c2.6,0,2.6-4,0-4C77.7,28.7,77.7,32.7,80.3,32.7L80.3,32.7z"/>
	</g>
</g>
<g>
	<g>
		<path class="st19" d="M79.3,32.7c2.6,0,2.6-4,0-4C76.7,28.7,76.7,32.7,79.3,32.7L79.3,32.7z"/>
	</g>
</g>
<g>
	<g>
		<path class="st19" d="M79.3,32c2.6,0,2.6-4,0-4C76.7,28,76.7,32,79.3,32L79.3,32z"/>
	</g>
</g>
<g>
	<g>
		<path class="st19" d="M78.6,29.3c2.6,0,2.6-4,0-4C76.1,25.3,76.1,29.3,78.6,29.3L78.6,29.3z"/>
	</g>
</g>
<g>
	<g>
		<path class="st19" d="M78,28c2.6,0,2.6-4,0-4C75.4,24,75.4,28,78,28L78,28z"/>
	</g>
</g>
<g>
	<g>
		<path class="st19" d="M76.3,25c2.6,0,2.6-4,0-4C73.7,21,73.7,25,76.3,25L76.3,25z"/>
	</g>
</g>
<g>
	<g>
		<path class="st19" d="M78.3,25.3c2.6,0,2.6-4,0-4C75.7,21.3,75.7,25.3,78.3,25.3L78.3,25.3z"/>
	</g>
</g>
<g>
	<g>
		<path class="st19" d="M77.3,25c0.1,0.2,0.2,0.4,0.3,0.7c0.5,0.9,1.9,1.3,2.7,0.7c1-0.6,1.2-1.7,0.7-2.7c-0.1-0.2-0.2-0.4-0.3-0.7
			c-0.5-0.9-1.9-1.3-2.7-0.7C77,22.9,76.8,24,77.3,25L77.3,25z"/>
	</g>
</g>
<g>
	<g>
		<path class="st19" d="M80.3,29c2.6,0,2.6-4,0-4C77.7,25,77.7,29,80.3,29L80.3,29z"/>
	</g>
</g>
<g>
	<g>
		<path class="st19" d="M81.3,31c2.6,0,2.6-4,0-4C78.7,27,78.7,31,81.3,31L81.3,31z"/>
	</g>
</g>
<g>
	<g>
		<path class="st19" d="M81.6,31c2.6,0,2.6-4,0-4C79.1,27,79.1,31,81.6,31L81.6,31z"/>
	</g>
</g>
<g>
	<g>
		<path class="st19" d="M81,28.7c2.6,0,2.6-4,0-4C78.4,24.7,78.4,28.7,81,28.7L81,28.7z"/>
	</g>
</g>
<g>
	<g>
		<path class="st19" d="M81,25c2.6,0,2.6-4,0-4C78.4,21,78.4,25,81,25L81,25z"/>
	</g>
</g>
<g>
	<g>
		<path class="st19" d="M80.6,22.3c2.6,0,2.6-4,0-4C78.1,18.3,78.1,22.3,80.6,22.3L80.6,22.3z"/>
	</g>
</g>
<g>
	<g>
		<path class="st19" d="M78.6,22.3c2.6,0,2.6-4,0-4C76.1,18.3,76.1,22.3,78.6,22.3L78.6,22.3z"/>
	</g>
</g>
<g>
	<g>
		<path class="st19" d="M77.3,22.3c2.6,0,2.6-4,0-4C74.7,18.3,74.7,22.3,77.3,22.3L77.3,22.3z"/>
	</g>
</g>
<g>
	<g>
		<path class="st19" d="M76.3,22.7c2.6,0,2.6-4,0-4C73.7,18.7,73.7,22.7,76.3,22.7L76.3,22.7z"/>
	</g>
</g>
<g>
	<g>
		<path class="st19" d="M75.6,23c2.6,0,2.6-4,0-4C73.1,19,73.1,23,75.6,23L75.6,23z"/>
	</g>
</g>
<g>
	<g>
		<path class="st19" d="M74.6,23c2.6,0,2.6-4,0-4C72.1,19,72.1,23,74.6,23L74.6,23z"/>
	</g>
</g>
<g>
	<g>
		<path class="st19" d="M74.3,22c2.6,0,2.6-4,0-4C71.7,18,71.7,22,74.3,22L74.3,22z"/>
	</g>
</g>
<g>
	<g>
		<path class="st19" d="M74.6,20c2.6,0,2.6-4,0-4C72.1,16,72.1,20,74.6,20L74.6,20z"/>
	</g>
</g>
<g>
	<g>
		<path class="st19" d="M77,19.7c2.6,0,2.6-4,0-4C74.4,15.7,74.4,19.7,77,19.7L77,19.7z"/>
	</g>
</g>
<g>
	<g>
		<path class="st19" d="M78.3,20.3c2.6,0,2.6-4,0-4C75.7,16.3,75.7,20.3,78.3,20.3L78.3,20.3z"/>
	</g>
</g>
<g>
	<g>
		<path class="st19" d="M78.6,18.7c2.6,0,2.6-4,0-4C76.1,14.7,76.1,18.7,78.6,18.7L78.6,18.7z"/>
	</g>
</g>
<g>
	<g>
		<path class="st19" d="M74.3,18.7c2.6,0,2.6-4,0-4C71.7,14.7,71.7,18.7,74.3,18.7L74.3,18.7z"/>
	</g>
</g>
<g>
	<g>
		<path class="st19" d="M71.6,18.3c2.6,0,2.6-4,0-4C69.1,14.3,69.1,18.3,71.6,18.3L71.6,18.3z"/>
	</g>
</g>
<g>
	<g>
		<path class="st19" d="M71.6,20c2.6,0,2.6-4,0-4C69.1,16,69.1,20,71.6,20L71.6,20z"/>
	</g>
</g>
<g>
	<g>
		<path class="st19" d="M71.6,21c2.6,0,2.6-4,0-4C69.1,17,69.1,21,71.6,21L71.6,21z"/>
	</g>
</g>
<g>
	<g>
		<path class="st19" d="M73.3,21.7c2.6,0,2.6-4,0-4C70.7,17.7,70.7,21.7,73.3,21.7L73.3,21.7z"/>
	</g>
</g>
<g>
	<g>
		<path class="st19" d="M37.3,20c2.6,0,2.6-4,0-4C34.7,16,34.7,20,37.3,20L37.3,20z"/>
	</g>
</g>
<g>
	<g>
		<path class="st19" d="M37,21.3c2.6,0,2.6-4,0-4C34.4,17.3,34.4,21.3,37,21.3L37,21.3z"/>
	</g>
</g>
<g>
	<g>
		<path class="st19" d="M36.6,22c2.6,0,2.6-4,0-4C34.1,18,34.1,22,36.6,22L36.6,22z"/>
	</g>
</g>
<g>
	<g>
		<path class="st19" d="M35.3,22c2.6,0,2.6-4,0-4C32.7,18,32.7,22,35.3,22L35.3,22z"/>
	</g>
</g>
<g>
	<g>
		<path class="st19" d="M37.3,18.1c-0.3-1.5-2-2.4-3.5-2c-1,0.3-1.7,1.4-1.4,2.5c0.3,1,1.4,1.7,2.5,1.4c-0.3,0.1-0.8,0-1-0.2
			c-0.1-0.1-0.2-0.2-0.3-0.4c-0.1-0.3-0.2-0.4-0.1-0.2c0.2,1,1.5,1.7,2.5,1.4C37,20.2,37.4,19.2,37.3,18.1L37.3,18.1z"/>
	</g>
</g>
<g>
	<g>
		<path class="st19" d="M32.6,20c2.6,0,2.6-4,0-4C30.1,16,30.1,20,32.6,20L32.6,20z"/>
	</g>
</g>
<g>
	<g>
		<path class="st19" d="M32,21c2.6,0,2.6-4,0-4C29.4,17,29.4,21,32,21L32,21z"/>
	</g>
</g>
<g>
	<g>
		<path class="st19" d="M32,21.3c2.6,0,2.6-4,0-4C29.4,17.3,29.4,21.3,32,21.3L32,21.3z"/>
	</g>
</g>
<g>
	<g>
		<path class="st19" d="M34,22c2.6,0,2.6-4,0-4C31.4,18,31.4,22,34,22L34,22z"/>
	</g>
</g>
<g>
	<g>
		<path class="st19" d="M34.3,23c2.6,0,2.6-4,0-4C31.7,19,31.7,23,34.3,23L34.3,23z"/>
	</g>
</g>
<g>
	<g>
		<path class="st19" d="M33.3,24.7c2.6,0,2.6-4,0-4C30.7,20.7,30.7,24.7,33.3,24.7L33.3,24.7z"/>
	</g>
</g>
<g>
	<g>
		<path class="st19" d="M32.3,25.7c2.6,0,2.6-4,0-4C29.7,21.7,29.7,25.7,32.3,25.7L32.3,25.7z"/>
	</g>
</g>
<g>
	<g>
		<path class="st19" d="M31,27.3c2.6,0,2.6-4,0-4C28.4,23.3,28.4,27.3,31,27.3L31,27.3z"/>
	</g>
</g>
<g>
	<g>
		<path class="st19" d="M30.6,29c2.6,0,2.6-4,0-4C28.1,25,28.1,29,30.6,29L30.6,29z"/>
	</g>
</g>
<g>
	<g>
		<path class="st19" d="M30.6,30.3c2.6,0,2.6-4,0-4C28.1,26.3,28.1,30.3,30.6,30.3L30.6,30.3z"/>
	</g>
</g>
<g>
	<g>
		<path class="st19" d="M30.6,32c2.6,0,2.6-4,0-4C28.1,28,28.1,32,30.6,32L30.6,32z"/>
	</g>
</g>
<g>
	<g>
		<path class="st19" d="M30.6,31c2.6,0,2.6-4,0-4C28.1,27,28.1,31,30.6,31L30.6,31z"/>
	</g>
</g>
<g>
	<g>
		<path class="st19" d="M31.3,36c2.6,0,2.6-4,0-4C28.7,32,28.7,36,31.3,36L31.3,36z"/>
	</g>
</g>
<g>
	<g>
		<path class="st19" d="M30.3,41c2.6,0,2.6-4,0-4C27.7,37,27.7,41,30.3,41L30.3,41z"/>
	</g>
</g>
<g>
	<g>
		<path class="st19" d="M30.3,42.7c2.6,0,2.6-4,0-4C27.7,38.7,27.7,42.7,30.3,42.7L30.3,42.7z"/>
	</g>
</g>
<g>
	<g>
		<path class="st19" d="M30.6,37c2.6,0,2.6-4,0-4C28.1,33,28.1,37,30.6,37L30.6,37z"/>
	</g>
</g>
<g>
	<g>
		<path class="st19" d="M30.6,37c2.6,0,2.6-4,0-4C28.1,33,28.1,37,30.6,37L30.6,37z"/>
	</g>
</g>
<g>
	<g>
		<path class="st19" d="M31,34c2.6,0,2.6-4,0-4C28.4,30,28.4,34,31,34L31,34z"/>
	</g>
</g>
<g>
	<g>
		<path class="st19" d="M31.3,37.7c2.6,0,2.6-4,0-4C28.7,33.7,28.7,37.7,31.3,37.7L31.3,37.7z"/>
	</g>
</g>
<g>
	<g>
		<path class="st19" d="M77.6,35.7c2.6,0,2.6-4,0-4C75.1,31.7,75.1,35.7,77.6,35.7L77.6,35.7z"/>
	</g>
</g>
<g>
	<g>
		<path class="st19" d="M75.6,34.7c0,0.1,0,0.2,0,0.3c0,1,0.9,2,2,2c1.1,0,2-0.9,2-2c0-0.1,0-0.2,0-0.3c0-1-0.9-2-2-2
			C76.5,32.7,75.6,33.5,75.6,34.7L75.6,34.7z"/>
	</g>
</g>
<g>
	<g>
		<path class="st19" d="M77.6,39c2.6,0,2.6-4,0-4C75.1,35,75.1,39,77.6,39L77.6,39z"/>
	</g>
</g>
<g>
	<g>
		<path class="st19" d="M78.6,41.3c2.6,0,2.6-4,0-4C76.1,37.3,76.1,41.3,78.6,41.3L78.6,41.3z"/>
	</g>
</g>
<g>
	<g>
		<path class="st19" d="M78.3,44.3c2.6,0,2.6-4,0-4C75.7,40.3,75.7,44.3,78.3,44.3L78.3,44.3z"/>
	</g>
</g>
<g>
	<g>
		<path class="st19" d="M77.6,45c2.6,0,2.6-4,0-4C75.1,41,75.1,45,77.6,45L77.6,45z"/>
	</g>
</g>
<g>
	<g>
		<path class="st19" d="M78,42c2.6,0,2.6-4,0-4C75.4,38,75.4,42,78,42L78,42z"/>
	</g>
</g>
<g>
	<g>
		<path class="st19" d="M29,33.3c2.6,0,2.6-4,0-4C26.4,29.3,26.4,33.3,29,33.3L29,33.3z"/>
	</g>
</g>
<g>
	<g>
		<path class="st19" d="M28.6,31.3c2.6,0,2.6-4,0-4C26.1,27.3,26.1,31.3,28.6,31.3L28.6,31.3z"/>
	</g>
</g>
<g>
	<g>
		<path class="st19" d="M28.3,29.3c2.6,0,2.6-4,0-4C25.7,25.3,25.7,29.3,28.3,29.3L28.3,29.3z"/>
	</g>
</g>
<g>
	<g>
		<path class="st19" d="M28.6,28c2.6,0,2.6-4,0-4C26.1,24,26.1,28,28.6,28L28.6,28z"/>
	</g>
</g>
<g>
	<g>
		<path class="st19" d="M29.3,26c2.6,0,2.6-4,0-4C26.7,22,26.7,26,29.3,26L29.3,26z"/>
	</g>
</g>
<g>
	<g>
		<path class="st19" d="M30.3,24c2.6,0,2.6-4,0-4C27.7,20,27.7,24,30.3,24L30.3,24z"/>
	</g>
</g>
<circle class="st0" cx="88.3" cy="170.1" r="9.4"/>
<path class="st20" d="M248.5,224.7h-82.3c-6.6,0-12-5.4-12-12v-98.8c0-6.6,5.4-12,12-12h82.3c6.6,0,12,5.4,12,12v98.8
	C260.5,219.3,255.1,224.7,248.5,224.7z"/>
<path class="st21" d="M248.8,143H166c-3.9,0-7-3.2-7-7v-23.4c0-3.8,3.1-7,7-7h82.8c3.8,0,7,3.2,7,7V136
	C255.8,139.9,252.6,143,248.8,143z"/>
<path class="st22" d="M169.6,163.6h-6.7c-2.2,0-4-1.8-4-4v-6.7c0-2.2,1.8-4,4-4h6.7c2.2,0,4,1.8,4,4v6.7
	C173.6,161.8,171.8,163.6,169.6,163.6z"/>
<path class="st22" d="M169.6,181.6h-6.7c-2.2,0-4-1.8-4-4v-6.7c0-2.2,1.8-4,4-4h6.7c2.2,0,4,1.8,4,4v6.7
	C173.6,179.8,171.8,181.6,169.6,181.6z"/>
<path class="st22" d="M169.6,199.6h-6.7c-2.2,0-4-1.8-4-4v-6.7c0-2.2,1.8-4,4-4h6.7c2.2,0,4,1.8,4,4v6.7
	C173.6,197.8,171.8,199.6,169.6,199.6z"/>
<path class="st22" d="M169.6,217.6h-6.7c-2.2,0-4-1.8-4-4v-6.7c0-2.2,1.8-4,4-4h6.7c2.2,0,4,1.8,4,4v6.7
	C173.6,215.8,171.8,217.6,169.6,217.6z"/>
<path class="st22" d="M188.9,163.6h-6.7c-2.2,0-4-1.8-4-4v-6.7c0-2.2,1.8-4,4-4h6.7c2.2,0,4,1.8,4,4v6.7
	C192.9,161.8,191.1,163.6,188.9,163.6z"/>
<path class="st22" d="M188.9,181.6h-6.7c-2.2,0-4-1.8-4-4v-6.7c0-2.2,1.8-4,4-4h6.7c2.2,0,4,1.8,4,4v6.7
	C192.9,179.8,191.1,181.6,188.9,181.6z"/>
<path class="st22" d="M188.9,199.6h-6.7c-2.2,0-4-1.8-4-4v-6.7c0-2.2,1.8-4,4-4h6.7c2.2,0,4,1.8,4,4v6.7
	C192.9,197.8,191.1,199.6,188.9,199.6z"/>
<path class="st22" d="M207.9,163.7h-6.7c-2.2,0-4-1.8-4-4V153c0-2.2,1.8-4,4-4h6.7c2.2,0,4,1.8,4,4v6.7
	C211.9,161.9,210.1,163.7,207.9,163.7z"/>
<path class="st22" d="M207.9,181.7h-6.7c-2.2,0-4-1.8-4-4V171c0-2.2,1.8-4,4-4h6.7c2.2,0,4,1.8,4,4v6.7
	C211.9,179.9,210.1,181.7,207.9,181.7z"/>
<path class="st22" d="M207.9,199.7h-6.7c-2.2,0-4-1.8-4-4V189c0-2.2,1.8-4,4-4h6.7c2.2,0,4,1.8,4,4v6.7
	C211.9,197.9,210.1,199.7,207.9,199.7z"/>
<path class="st22" d="M226.2,163.6h-6.7c-2.2,0-4-1.8-4-4v-6.7c0-2.2,1.8-4,4-4h6.7c2.2,0,4,1.8,4,4v6.7
	C230.2,161.8,228.4,163.6,226.2,163.6z"/>
<path class="st22" d="M226.2,181.6h-6.7c-2.2,0-4-1.8-4-4v-6.7c0-2.2,1.8-4,4-4h6.7c2.2,0,4,1.8,4,4v6.7
	C230.2,179.8,228.4,181.6,226.2,181.6z"/>
<path class="st22" d="M226.2,199.6h-6.7c-2.2,0-4-1.8-4-4v-6.7c0-2.2,1.8-4,4-4h6.7c2.2,0,4,1.8,4,4v6.7
	C230.2,197.8,228.4,199.6,226.2,199.6z"/>
<path class="st22" d="M226.2,217.6h-6.7c-2.2,0-4-1.8-4-4v-6.7c0-2.2,1.8-4,4-4h6.7c2.2,0,4,1.8,4,4v6.7
	C230.2,215.8,228.4,217.6,226.2,217.6z"/>
<path class="st22" d="M251.8,217.7h-14.3c-2.2,0-4-1.8-4-4V207c0-2.2,1.8-4,4-4h14.3c2.2,0,4,1.8,4,4v6.7
	C255.8,215.9,254,217.7,251.8,217.7z"/>
<text transform="matrix(1 0 0 1 162.2991 161.5092)" class="st12 st23 st24">1</text>
<text transform="matrix(1 0 0 1 181.7994 161.5088)" class="st12 st23 st24">2</text>
<text transform="matrix(1 0 0 1 200.4657 161.5092)" class="st12 st23 st24">3</text>
<text transform="matrix(1 0 0 1 181.7997 178.5095)" class="st12 st23 st24">5</text>
<text transform="matrix(1 0 0 1 162.2994 178.5095)" class="st12 st23 st24">4</text>
<text transform="matrix(1 0 0 1 200.4657 178.5092)" class="st12 st23 st24">6</text>
<text transform="matrix(1 0 0 1 162.2994 196.6758)" class="st12 st23 st24">7</text>
<text transform="matrix(1 0 0 1 181.7997 196.6761)" class="st12 st23 st24">8</text>
<text transform="matrix(1 0 0 1 201.133 196.6765)" class="st12 st23 st24">9</text>
<text transform="matrix(1 0 0 1 162.2994 214.1758)" class="st12 st23 st24">0</text>
<text transform="matrix(1 0 0 1 240.7994 214.8422)" class="st12 st23 st24">=</text>
<text transform="matrix(1 0 0 1 219.1321 160.1752)" class="st12 st23 st24">+</text>
<text transform="matrix(1 0 0 1 220.9657 178.5091)" class="st12 st23 st24">-</text>
<text transform="matrix(1 0 0 1 219.8878 196.676)" class="st12 st23 st24">x</text>
<text transform="matrix(1 0 0 1 219.8881 214.8423)" class="st12 st23 st24">/</text>
<path class="st22" d="M251.8,199.6h-14.3c-2.2,0-4-1.8-4-4v-6.7c0-2.2,1.8-4,4-4h14.3c2.2,0,4,1.8,4,4v6.7
	C255.8,197.8,254,199.6,251.8,199.6z"/>
<path class="st22" d="M251.8,181.7h-14.3c-2.2,0-4-1.8-4-4V171c0-2.2,1.8-4,4-4h14.3c2.2,0,4,1.8,4,4v6.7
	C255.8,179.9,254,181.7,251.8,181.7z"/>
<text transform="matrix(0.9692 0 0 1 235.4664 196.4078)" class="st12 st23 st25">DEL</text>
<path class="st22" d="M251.8,163.7h-14.3c-2.2,0-4-1.8-4-4V153c0-2.2,1.8-4,4-4h14.3c2.2,0,4,1.8,4,4v6.7
	C255.8,161.9,254,163.7,251.8,163.7z"/>
<path class="st22" d="M188.9,217.6h-6.7c-2.2,0-4-1.8-4-4v-6.7c0-2.2,1.8-4,4-4h6.7c2.2,0,4,1.8,4,4v6.7
	C192.9,215.8,191.1,217.6,188.9,217.6z"/>
<text transform="matrix(1 0 0 1 183.966 211.6758)" class="st12 st23 st24">.</text>
<text transform="matrix(0.9692 0 0 1 237.966 160.1746)" class="st12 st23 st25">AC</text>
<text transform="matrix(0.9692 0 0 1 237.966 177.6472)" class="st12 st23 st26">OFF</text>
</svg>
