<?xml version="1.0" encoding="utf-8"?>
<!-- Generator: Adobe Illustrator 24.0.1, SVG Export Plug-In . SVG Version: 6.00 Build 0)  -->
<svg version="1.1" id="Layer_1" xmlns="http://www.w3.org/2000/svg" xmlns:xlink="http://www.w3.org/1999/xlink" x="0px" y="0px"
	 viewBox="0 0 280 270" style="enable-background:new 0 0 280 270;" xml:space="preserve">
<style type="text/css">
	.st0{fill:#FBDBE1;}
	.st1{fill:#492B80;}
	.st2{fill:#FFF100;}
	.st3{fill:#FBBB74;}
	.st4{fill:#68092D;}
	.st5{fill:#7B277C;}
	.st6{fill:#F7991C;}
	.st7{fill:#BE5C3F;}
	.st8{fill:#DF1D3B;}
	.st9{fill:#0F0908;}
	.st10{fill:#FAAF40;}
	.st11{fill:#6952A1;}
	.st12{fill:#F6921E;}
	.st13{fill:#CB7929;}
	.st14{fill:#231F20;}
	.st15{fill:#374D8B;}
	.st16{fill:#4562AC;}
	.st17{fill:#FFFFFF;}
	.st18{fill:#D0D2D3;}
</style>
<path class="st0" d="M81,258.3H70.8c-1.1,0-2-0.9-2-2v-12.7c0-1.1,0.9-2,2-2H79c1.1,0,2,0.9,2,2V258.3z"/>
<path class="st0" d="M49.1,256.6H38.9c-1.1,0-2-0.9-2-2V242c0-1.1,0.9-2,2-2h8.2c1.1,0,2,0.9,2,2V256.6z"/>
<path class="st0" d="M94.1,171.2L94.1,171.2c4,0,7.2-3.3,7.2-7.2v-45.3c0-4-3.3-7.2-7.2-7.2h0c-4,0-7.2,3.3-7.2,7.2V164
	C86.9,168,90.1,171.2,94.1,171.2z"/>
<path class="st1" d="M89.9,116.9c0-6.7-3.1-12.7-7.9-16.7c0.3,0,0.6-0.1,0.9-0.1h12.4c4.3,0,7.8,3.5,7.8,7.8v3.8
	c0,4.3-3.5,7.8-7.8,7.8h-6L89.9,116.9z"/>
<path class="st0" d="M21,171.2L21,171.2c-4,0-7.2-3.3-7.2-7.2v-45.3c0-4,3.3-7.2,7.2-7.2h0c4,0,7.2,3.3,7.2,7.2V164
	C28.2,168,25,171.2,21,171.2z"/>
<path class="st1" d="M25.2,116.9c0-6.7,3.1-12.7,7.9-16.7c-0.3,0-0.6-0.1-0.9-0.1H19.8c-4.3,0-7.8,3.5-7.8,7.8v3.8
	c0,4.3,3.5,7.8,7.8,7.8h6L25.2,116.9z"/>
<path class="st0" d="M61.9,100.1h-5.8c-2.8,0-5-2.3-5-5v-5.9c0-2.8,2.3-5,5-5h5.8c2.7,0,5,2.3,5,5v5.9
	C66.9,97.9,64.7,100.1,61.9,100.1z"/>
<path class="st2" d="M12,77.6c1.8,3.1,23.3,5.5,25.9-1.5c2.6-7.2-5.3-7.5-0.9-14c5.1-7.5-14-2.5-14.2,7C22.5,75.5,10.7,75.5,12,77.6
	z"/>
<path class="st2" d="M22.6,68.1c0,9,18-7,20.5-14c2.6-7.2,0.3-7.8,4.7-14.4c5.1-7.5-13.7-7.8-20.5-4.6
	C21.7,37.9,22.6,59.1,22.6,68.1z"/>
<path class="st2" d="M107.4,75.3c-1.8,3.1-23.3,5.5-25.9-1.5c-2.6-7.2,5.3-7.5,0.9-14c-5.1-7.5,14-2.5,14.2,7
	C96.9,73.1,108.7,73.1,107.4,75.3z"/>
<path class="st2" d="M96.5,66.9c0,9-18-7-20.5-14c-2.6-7.2-0.3-7.8-4.7-14.4c-5.1-7.5,13.7-7.8,20.5-4.6
	C97.4,36.7,96.5,57.9,96.5,66.9z"/>
<path class="st0" d="M58.7,88.3L58.7,88.3c-13.8,0-25-11.2-25-25v-22c0-11.6,9.4-21,21-21h8c11.6,0,21,9.4,21,21v22
	C83.7,77.1,72.6,88.3,58.7,88.3z"/>
<path class="st3" d="M86.9,50.8h-3.1V40.8h2.1c1.7,0,3,1.3,3,3v5.1C88.9,49.9,88,50.8,86.9,50.8z"/>
<circle class="st4" cx="68.6" cy="41.9" r="2.5"/>
<polygon class="st5" points="87.3,48.9 84.3,55.1 90.2,55.1 "/>
<polygon class="st6" points="87.9,53.8 87.1,54.1 86.5,53.5 86.7,52.8 87.4,52.5 88,53 "/>
<path class="st3" d="M30.6,50.8h3.1V40.8h-2.1c-1.7,0-3,1.3-3,3v5.1C28.6,49.9,29.5,50.8,30.6,50.8z"/>
<g>
	<polygon class="st5" points="31.2,48.9 28.2,55.1 34.1,55.1 	"/>
	<polygon class="st6" points="31.8,54 31,54.3 30.4,53.7 30.6,52.9 31.3,52.7 31.9,53.2 	"/>
</g>
<path class="st2" d="M96,39.4c0,9-14.7-9.6-22.2-12.6c-7.1-2.9-10.8,4.5-15.3-2C53.4,17.3,71.2,10.1,78,13.3
	C83.7,16,96,30.4,96,39.4z"/>
<path class="st2" d="M23.6,39.4c0,9,14.7-9.6,22.2-12.6c7.1-2.9,10.8,4.5,15.3-2c5.1-7.5-12.8-14.7-19.6-11.5
	C35.8,16,23.6,30.4,23.6,39.4z"/>
<path class="st7" d="M59.2,57.9h-0.4c-1,0-1.8-0.8-1.8-1.8v-3.6c0-1,0.8-1.8,1.8-1.8h0.4c1,0,1.8,0.8,1.8,1.8V56
	C61,57,60.2,57.9,59.2,57.9z"/>
<g>
	<path class="st8" d="M58.6,69.6c0,1.9-1.5,3.4-3.4,3.4c-1.9,0-6.9-3.1-6.9-5c0-1.9,5-1.8,6.9-1.8C57.1,66.2,58.6,67.7,58.6,69.6z"
		/>
	<path class="st8" d="M58.4,69.6c0,1.9,1.5,3.4,3.4,3.4c1.9,0,6.9-3.1,6.9-5c0-1.9-5-1.8-6.9-1.8C60,66.2,58.4,67.7,58.4,69.6z"/>
	<path class="st8" d="M68.1,68.7c0,1.2-5.8,5.3-9.2,5.3s-9.2-3.2-9.2-4.5c0-1.2,5.8,0,9.2,0S68.1,67.5,68.1,68.7z"/>
</g>
<circle class="st4" cx="48.7" cy="41.7" r="2.5"/>
<g>
	<g>
		<path class="st9" d="M43.8,40.5c1.9-1.6,4.1-2.6,6.5-3c0.6-0.1,0.4-1.1-0.3-1c-2.6,0.4-4.9,1.5-6.9,3.2
			C42.6,40.2,43.3,40.9,43.8,40.5L43.8,40.5z"/>
	</g>
</g>
<g>
	<g>
		<path class="st9" d="M74.1,39.9c-2-1.7-4.3-2.8-6.9-3.2c-0.6-0.1-0.9,0.9-0.3,1c2.4,0.4,4.6,1.4,6.5,3
			C73.9,41,74.6,40.3,74.1,39.9L74.1,39.9z"/>
	</g>
</g>
<g>
	<g>
		<path class="st10" d="M58.2,20.3c-2.3-3.8-11-7.6-14.4-3.2c-0.8,1,0.6,2.4,1.4,1.4c2.5-3.3,9.6,0.1,11.2,2.8
			C57.1,22.4,58.9,21.4,58.2,20.3L58.2,20.3z"/>
	</g>
</g>
<g>
	<g>
		<path class="st10" d="M50.4,21.8c-2.7-0.4-3.7-0.7-6.3,0.2c-2.4,0.9-4.9,1.5-7.1,2.6c-3.8,1.8-6.3,4.9-7.6,8.8
			c-0.4,1.2,1.5,1.7,1.9,0.5c2.3-6.9,11.6-11.3,18.6-10.2C51.2,24,51.7,22,50.4,21.8L50.4,21.8z"/>
	</g>
</g>
<g>
	<g>
		<path class="st10" d="M66.8,20.6c8.5-2.1,14.7,1.9,19.9,8.3c0.8,1,2.2-0.4,1.4-1.4c-5.6-7-12.6-11.2-21.8-8.8
			C65,18.9,65.5,20.9,66.8,20.6L66.8,20.6z"/>
	</g>
</g>
<g>
	<g>
		<path class="st10" d="M79.1,29.2c5.3,1.8,7.8,7.5,11.4,11.3c0.9,0.9,2.3-0.5,1.4-1.4c-4-4.2-6.5-9.8-12.3-11.8
			C78.4,26.8,77.9,28.8,79.1,29.2L79.1,29.2z"/>
	</g>
</g>
<g>
	<g>
		<path class="st10" d="M25.6,59.4c0.7,2.8,4.4,12.2,0.2,13.2c-1.3,0.3-0.7,2.2,0.5,1.9c6.6-1.6,2.2-11.7,1.2-15.7
			C27.3,57.6,25.3,58.1,25.6,59.4L25.6,59.4z"/>
	</g>
</g>
<g>
	<g>
		<path class="st10" d="M30.4,75.1c-0.3,1.2-1.5,2-2.7,1.8c-1.3-0.3-1.8,1.7-0.5,1.9c2.3,0.5,4.6-0.9,5.2-3.2
			C32.7,74.4,30.7,73.9,30.4,75.1L30.4,75.1z"/>
	</g>
</g>
<g>
	<g>
		<path class="st10" d="M84.9,60.6c1.4,2.2,1,5.2,1.6,7.7c0.6,2.4,1.6,4.6,2.9,6.7c0.7,1.1,2.4,0.1,1.7-1c-1.7-2.8-2.8-5.7-3.2-9
			c-0.2-2-0.3-3.7-1.3-5.5C86,58.5,84.3,59.5,84.9,60.6L84.9,60.6z"/>
	</g>
</g>
<g>
	<g>
		<path class="st10" d="M91.9,52.8c-0.4,5.2,0.2,10.3,1.8,15.3c0.4,1.2,2.3,0.7,1.9-0.5c-1.6-4.8-2.1-9.7-1.8-14.8
			C94,51.5,92,51.5,91.9,52.8L91.9,52.8z"/>
	</g>
</g>
<g>
	<g>
		<path class="st10" d="M94.4,74.2c0.8,0.5,1.5,0.9,2.3,1.4c1.1,0.7,2.1-1.1,1-1.7c-0.8-0.5-1.5-0.9-2.3-1.4
			C94.3,71.8,93.3,73.5,94.4,74.2L94.4,74.2z"/>
	</g>
</g>
<g>
	<g>
		<path class="st10" d="M39.1,20.1c-1-0.4-2.1-0.5-3.2-0.3c-0.5,0.1-0.8,0.7-0.7,1.2c0.2,0.6,0.7,0.8,1.2,0.7c0.7-0.1,1.5,0,2.1,0.3
			c0.5,0.2,1.1-0.2,1.2-0.7C39.9,20.7,39.6,20.3,39.1,20.1L39.1,20.1z"/>
	</g>
</g>
<g>
	<g>
		<path class="st10" d="M63.1,26.1c0.9-0.4,1.8-0.7,2.6-1.1c0.5-0.2,0.9-0.7,0.7-1.2c-0.1-0.5-0.7-0.9-1.2-0.7
			c-0.9,0.4-1.8,0.7-2.6,1.1c-0.5,0.2-0.9,0.7-0.7,1.2C62,25.9,62.6,26.3,63.1,26.1L63.1,26.1z"/>
	</g>
</g>
<path class="st11" d="M81.8,169.3h-45l-12.4-52.7C24.4,104.7,34.2,95,46,95h23.1c11.9,0,21.6,9.7,21.6,21.6L81.8,169.3z"/>
<polygon class="st11" points="17.8,244.6 35.6,160.6 83.3,160.6 99.4,244.6 "/>
<g>
	<g>
		<path class="st12" d="M45.4,99c2.6,0,2.6-4,0-4C42.8,95,42.8,99,45.4,99L45.4,99z"/>
	</g>
</g>
<g>
	<g>
		<path class="st12" d="M46.9,104.2c2.6,0,2.6-4,0-4C44.3,100.2,44.3,104.2,46.9,104.2L46.9,104.2z"/>
	</g>
</g>
<g>
	<g>
		<path class="st12" d="M49.1,109c2.6,0,2.6-4,0-4C46.5,105,46.5,109,49.1,109L49.1,109z"/>
	</g>
</g>
<g>
	<g>
		<path class="st12" d="M52.3,113.3c2.6,0,2.6-4,0-4C49.7,109.3,49.7,113.3,52.3,113.3L52.3,113.3z"/>
	</g>
</g>
<g>
	<g>
		<path class="st12" d="M56.9,115c2.6,0,2.6-4,0-4C54.3,111,54.3,115,56.9,115L56.9,115z"/>
	</g>
</g>
<g>
	<g>
		<path class="st12" d="M61.6,113.3c2.6,0,2.6-4,0-4C59,109.3,59,113.3,61.6,113.3L61.6,113.3z"/>
	</g>
</g>
<g>
	<g>
		<path class="st12" d="M65.1,109.5c2.6,0,2.6-4,0-4C62.5,105.5,62.5,109.5,65.1,109.5L65.1,109.5z"/>
	</g>
</g>
<g>
	<g>
		<path class="st12" d="M67.3,104.2c2.6,0,2.6-4,0-4C64.7,100.2,64.7,104.2,67.3,104.2L67.3,104.2z"/>
	</g>
</g>
<g>
	<g>
		<path class="st12" d="M68.3,99.3c2.6,0,2.6-4,0-4C65.7,95.3,65.7,99.3,68.3,99.3L68.3,99.3z"/>
	</g>
</g>
<g>
	<g>
		<path class="st2" d="M38.4,165.7c3.9,0,3.9-6,0-6C34.6,159.7,34.6,165.7,38.4,165.7L38.4,165.7z"/>
	</g>
</g>
<g>
	<g>
		<path class="st2" d="M45.2,166.7c3.9,0,3.9-6,0-6C41.3,160.7,41.3,166.7,45.2,166.7L45.2,166.7z"/>
	</g>
</g>
<g>
	<g>
		<path class="st2" d="M51.7,167.2c3.9,0,3.9-6,0-6C47.8,161.2,47.8,167.2,51.7,167.2L51.7,167.2z"/>
	</g>
</g>
<g>
	<g>
		<path class="st2" d="M58.7,167.9c3.9,0,3.9-6,0-6C54.8,161.9,54.8,167.9,58.7,167.9L58.7,167.9z"/>
	</g>
</g>
<g>
	<g>
		<path class="st2" d="M65.2,167.4c3.9,0,3.9-6,0-6C61.3,161.4,61.3,167.4,65.2,167.4L65.2,167.4z"/>
	</g>
</g>
<g>
	<g>
		<path class="st2" d="M72.4,166.7c3.9,0,3.9-6,0-6C68.6,160.7,68.6,166.7,72.4,166.7L72.4,166.7z"/>
	</g>
</g>
<g>
	<g>
		<path class="st2" d="M79.4,165.4c3.9,0,3.9-6,0-6C75.6,159.4,75.6,165.4,79.4,165.4L79.4,165.4z"/>
	</g>
</g>
<circle class="st0" cx="21" cy="171.2" r="9.4"/>
<circle class="st0" cx="94.1" cy="171.2" r="9.4"/>
<path class="st13" d="M49.1,262.2H21v0c0-3.9,3.1-7,7-7h21.1V262.2z"/>
<path class="st14" d="M49.1,261.3h-28v-0.2c0-0.6,0.4-1,1-1h27V261.3z"/>
<path class="st13" d="M68.8,262.2h28.1v0c0-3.9-3.1-7-7-7H68.8V262.2z"/>
<path class="st14" d="M68.8,261.3h28v-0.2c0-0.6-0.4-1-1-1h-27V261.3z"/>
<path class="st15" d="M241.9,200.2H181c-6.6,0-12-5.4-12-12v-30c0-6.6,5.4-12,12-12h60.9c6.6,0,12,5.4,12,12v30
	C253.9,194.8,248.5,200.2,241.9,200.2z"/>
<path class="st16" d="M256.5,162.6h-90.1c-3.8,0-7-3.2-7-7v-10.1c0-3.8,3.2-7,7-7h90.1c3.9,0,7,3.2,7,7v10.1
	C263.5,159.4,260.4,162.6,256.5,162.6z"/>
<circle class="st17" cx="177.3" cy="173.2" r="1.9"/>
<circle class="st17" cx="184.7" cy="173.2" r="1.9"/>
<circle class="st17" cx="177.3" cy="180.2" r="1.9"/>
<circle class="st17" cx="184.7" cy="180.2" r="1.9"/>
<circle class="st17" cx="192.4" cy="173.2" r="1.9"/>
<circle class="st17" cx="199.8" cy="173.2" r="1.9"/>
<circle class="st17" cx="192.4" cy="180.2" r="1.9"/>
<circle class="st17" cx="199.8" cy="180.2" r="1.9"/>
<circle class="st17" cx="207.8" cy="173" r="1.9"/>
<circle class="st17" cx="215.2" cy="173" r="1.9"/>
<circle class="st17" cx="207.8" cy="179.9" r="1.9"/>
<circle class="st17" cx="215.2" cy="179.9" r="1.9"/>
<circle class="st17" cx="221.9" cy="173" r="1.9"/>
<circle class="st17" cx="229.3" cy="173" r="1.9"/>
<circle class="st17" cx="221.9" cy="179.9" r="1.9"/>
<circle class="st17" cx="229.3" cy="179.9" r="1.9"/>
<circle class="st17" cx="236.3" cy="173" r="1.9"/>
<circle class="st17" cx="243.7" cy="173" r="1.9"/>
<circle class="st17" cx="236.3" cy="179.9" r="1.9"/>
<circle class="st17" cx="243.7" cy="179.9" r="1.9"/>
<circle class="st17" cx="184.7" cy="186.6" r="1.9"/>
<circle class="st17" cx="192.2" cy="186.6" r="1.9"/>
<circle class="st17" cx="184.7" cy="193.5" r="1.9"/>
<circle class="st17" cx="192.2" cy="193.5" r="1.9"/>
<circle class="st17" cx="228.8" cy="186.7" r="1.9"/>
<circle class="st17" cx="236.3" cy="186.7" r="1.9"/>
<circle class="st17" cx="228.8" cy="193.7" r="1.9"/>
<circle class="st17" cx="236.3" cy="193.7" r="1.9"/>
<circle class="st17" cx="199.8" cy="186.9" r="1.9"/>
<circle class="st17" cx="207.8" cy="186.4" r="1.9"/>
<circle class="st17" cx="215.2" cy="186.4" r="1.9"/>
<circle class="st17" cx="221.9" cy="186.4" r="1.9"/>
<circle class="st17" cx="199.8" cy="193.5" r="1.9"/>
<circle class="st17" cx="221.9" cy="193.7" r="1.9"/>
<path class="st17" d="M216.3,195h-8.7c-0.8,0-1.5-0.7-1.5-1.5l0,0c0-0.8,0.7-1.5,1.5-1.5h8.7c0.8,0,1.5,0.7,1.5,1.5l0,0
	C217.8,194.3,217.1,195,216.3,195z"/>
<path class="st17" d="M244,195.6L244,195.6c-0.9,0-1.7-0.7-1.7-1.7v-7.3c0-0.9,0.7-1.7,1.7-1.7h0c0.9,0,1.7,0.7,1.7,1.7v7.3
	C245.7,194.9,244.9,195.6,244,195.6z"/>
<path class="st17" d="M177.3,195.6L177.3,195.6c-0.9,0-1.7-0.7-1.7-1.7v-7.3c0-0.9,0.7-1.7,1.7-1.7l0,0c0.9,0,1.7,0.7,1.7,1.7v7.3
	C178.9,194.9,178.2,195.6,177.3,195.6z"/>
<path class="st14" d="M159.4,155.2h-5.1c-1.1,0-2-0.9-2-2V148c0-1.1,0.9-2,2-2h5.1V155.2z"/>
<path class="st14" d="M263.5,155.2h5.1c1.1,0,2-0.9,2-2V148c0-1.1-0.9-2-2-2h-5.1V155.2z"/>
<rect x="185.5" y="108.1" class="st18" width="55.4" height="43.9"/>
<path class="st14" d="M242.1,152.8h-57.8c-0.4,0-0.8-0.4-0.8-0.8l0,0c0-0.4,0.4-0.8,0.8-0.8h57.8c0.4,0,0.8,0.4,0.8,0.8l0,0
	C242.9,152.5,242.6,152.8,242.1,152.8z"/>
<path class="st14" d="M237.3,114.1H189c-0.5,0-0.9-0.4-0.9-0.9v0c0-0.5,0.4-0.9,0.9-0.9h48.2c0.5,0,0.9,0.4,0.9,0.9v0
	C238.2,113.6,237.8,114.1,237.3,114.1z"/>
<path class="st14" d="M237.3,118.4H189c-0.5,0-0.9-0.4-0.9-0.9l0,0c0-0.5,0.4-0.9,0.9-0.9h48.2c0.5,0,0.9,0.4,0.9,0.9l0,0
	C238.2,118,237.8,118.4,237.3,118.4z"/>
<path class="st14" d="M237.4,122.9h-48.2c-0.5,0-0.9-0.4-0.9-0.9l0,0c0-0.5,0.4-0.9,0.9-0.9h48.2c0.5,0,0.9,0.4,0.9,0.9l0,0
	C238.3,122.5,237.9,122.9,237.4,122.9z"/>
<path class="st14" d="M237.3,127.3H189c-0.5,0-0.9-0.4-0.9-0.9l0,0c0-0.5,0.4-0.9,0.9-0.9h48.2c0.5,0,0.9,0.4,0.9,0.9l0,0
	C238.2,126.8,237.8,127.3,237.3,127.3z"/>
<path class="st14" d="M237.4,131.7h-48.2c-0.5,0-0.9-0.4-0.9-0.9v0c0-0.5,0.4-0.9,0.9-0.9h48.2c0.5,0,0.9,0.4,0.9,0.9v0
	C238.3,131.2,237.9,131.7,237.4,131.7z"/>
<path class="st14" d="M237.4,136h-48.2c-0.5,0-0.9-0.4-0.9-0.9l0,0c0-0.5,0.4-0.9,0.9-0.9h48.2c0.5,0,0.9,0.4,0.9,0.9l0,0
	C238.3,135.6,237.9,136,237.4,136z"/>
<path class="st14" d="M220.1,140.5h-31.3c-0.4,0-0.8-0.4-0.8-0.8l0,0c0-0.4,0.4-0.8,0.8-0.8h31.3c0.4,0,0.8,0.4,0.8,0.8l0,0
	C220.9,140.2,220.6,140.5,220.1,140.5z"/>
</svg>
