<?xml version="1.0" encoding="utf-8"?>
<!-- Generator: Adobe Illustrator 24.0.1, SVG Export Plug-In . SVG Version: 6.00 Build 0)  -->
<svg version="1.1" id="Layer_1" xmlns="http://www.w3.org/2000/svg" xmlns:xlink="http://www.w3.org/1999/xlink" x="0px" y="0px"
	 viewBox="0 0 280 270" style="enable-background:new 0 0 280 270;" xml:space="preserve">
<style type="text/css">
	.st0{fill:#3F1A19;}
	.st1{fill:#FFD5B2;}
	.st2{fill:#4C3512;}
	.st3{fill:#D89281;}
	.st4{fill:#050505;}
	.st5{fill:#00567F;}
	.st6{fill:#A47116;}
	.st7{fill:#231F20;}
	.st8{fill:#32472A;}
	.st9{fill:#4A4D52;}
	.st10{fill:#4F565B;}
	.st11{fill:#091F00;stroke:#030202;stroke-miterlimit:10;}
	.st12{fill:#001501;}
	.st13{fill:#C59C1D;stroke:#030202;stroke-width:0.75;stroke-miterlimit:10;}
	.st14{fill:#CCCCCC;stroke:#333333;stroke-miterlimit:10;}
	.st15{fill:#333333;}
	.st16{fill:#3F3D17;}
	.st17{fill:#150A00;}
	.st18{fill:#002E8A;}
	.st19{fill:#603813;}
	.st20{fill:#A67C52;}
	.st21{fill:#BF1A00;}
	.st22{fill:#941000;}
	.st23{fill:#95E1FF;stroke:#000000;stroke-width:2;stroke-miterlimit:10;}
	.st24{fill:#E6E6E6;}
	.st25{fill:#FFFFFF;}
	.st26{fill:#ECA133;}
	.st27{fill:#D6CEC7;}
	.st28{fill:none;stroke:#000000;stroke-width:0.5;stroke-miterlimit:10;}
	.st29{fill:#775413;}
	.st30{fill:#150B00;}
</style>
<rect x="157.7" y="116.6" class="st0" width="4.5" height="75.6"/>
<path class="st1" d="M72.8,98.4H58.1c-2,0-3.6-1.6-3.6-3.6V76.6c0-2,1.6-3.6,3.6-3.6h14.6c2,0,3.6,1.6,3.6,3.6v18.2
	C76.3,96.8,74.7,98.4,72.8,98.4z"/>
<path class="st1" d="M89.1,55.8c-0.1-0.3,0.1-0.5,0.3-0.6V32.1c0-10.5-8.5-19-19-19h-12c-10.5,0-19,8.5-19,19v38
	c0,12.7,10.3,23,23,23h4c12.7,0,23-10.3,23-23V56.7C89.4,56.4,89.2,56.1,89.1,55.8z"/>
<path class="st2" d="M59.1,40.1h-9c-1.1,0-2-0.9-2-2v-0.7c0-1.1,0.9-2,2-2h9c1.1,0,2,0.9,2,2v0.7C61.1,39.2,60.2,40.1,59.1,40.1z"/>
<path class="st2" d="M79.6,40.1h-9c-1.1,0-2-0.9-2-2v-0.7c0-1.1,0.9-2,2-2h9c1.1,0,2,0.9,2,2v0.7C81.6,39.2,80.7,40.1,79.6,40.1z"/>
<path class="st3" d="M39.5,54h-3.1c-1.1,0-2-0.9-2-2v-4.6c0-1.1,0.9-2,2-2h3.1V54z"/>
<path class="st3" d="M92.6,54h-3.1v-8.6h3.1c1.1,0,2,0.9,2,2V52C94.6,53.1,93.7,54,92.6,54z"/>
<ellipse class="st4" cx="65.5" cy="71" rx="4.5" ry="3.5"/>
<path class="st3" d="M66,57.5h-1.1c-1.1,0-2-0.9-2-2v-4.8c0-1.1,0.9-2,2-2H66c1.1,0,2,0.9,2,2v4.8C68,56.6,67.1,57.5,66,57.5z"/>
<path class="st5" d="M87.1,163.9H43.8c-3.5,0-6.4-2.9-6.4-6.4v-55.7c0-3.5,2.9-6.4,6.4-6.4h43.3c3.5,0,6.4,2.9,6.4,6.4v55.7
	C93.5,161.1,90.6,163.9,87.1,163.9z"/>
<g>
	<path class="st6" d="M110.6,260.2H68.5v-23.3h24.2c9.9,0,18,8.1,18,18V260.2z"/>
	<rect x="68.5" y="256.3" class="st6" width="42.2" height="3.9"/>
	<rect x="68.5" y="258.3" class="st6" width="42.2" height="1"/>
	<g>
		<path class="st6" d="M94,238.6c0.4,1.5-0.2,3.2-1.2,4.5c-1,1.2-2.5,2.1-3.9,2.9"/>
		<g>
			<path class="st7" d="M93.1,238.8c0.2,0.6,0.1,1.2,0,1.8c-0.2,0.6-0.5,1.3-0.9,1.7c-1,1.2-2.3,1.9-3.6,2.7
				c-0.5,0.3-0.6,0.9-0.4,1.4c0.3,0.5,0.9,0.6,1.4,0.4c1.6-0.9,3.2-1.9,4.3-3.3c1.1-1.5,1.7-3.3,1.2-5.2c-0.1-0.5-0.7-0.8-1.2-0.7
				C93.3,237.8,92.9,238.3,93.1,238.8L93.1,238.8z"/>
		</g>
	</g>
	<g>
		<path class="st6" d="M100.3,240.2c0.4,1.5-0.2,3.2-1.2,4.5s-2.5,2.1-3.9,2.9"/>
		<g>
			<path class="st7" d="M99.3,240.5c0.2,0.6,0.1,1.2,0,1.8c-0.2,0.6-0.5,1.3-0.9,1.7c-1,1.2-2.3,1.9-3.6,2.7
				c-0.5,0.3-0.6,0.9-0.4,1.4c0.3,0.5,0.9,0.6,1.4,0.4c1.6-0.9,3.2-1.9,4.3-3.3c1.1-1.5,1.7-3.3,1.2-5.2c-0.1-0.5-0.7-0.8-1.2-0.7
				C99.5,239.4,99.2,240,99.3,240.5L99.3,240.5z"/>
		</g>
	</g>
	<g>
		<path class="st6" d="M104.5,243.4c0.4,1.5-0.2,3.2-1.2,4.5c-1,1.2-2.5,2.1-3.9,2.9"/>
		<g>
			<path class="st7" d="M103.5,243.7c0.2,0.6,0.1,1.2,0,1.8c-0.2,0.6-0.5,1.3-0.9,1.7c-1,1.2-2.3,1.9-3.6,2.7
				c-0.5,0.3-0.6,0.9-0.4,1.4c0.3,0.5,0.9,0.6,1.4,0.4c1.6-0.9,3.2-1.9,4.3-3.3c1.1-1.5,1.7-3.3,1.2-5.2c-0.1-0.5-0.7-0.8-1.2-0.7
				C103.7,242.6,103.4,243.1,103.5,243.7L103.5,243.7z"/>
		</g>
	</g>
</g>
<path class="st8" d="M84.2,231.6H68.5v-68.7c0-3.3,2.7-6,6-6h3.8c3.3,0,6,2.7,6,6V231.6z"/>
<rect x="68.5" y="218.4" class="st9" width="15.8" height="15"/>
<g>
	<path class="st6" d="M18.6,260.2h42.2v-23.3H36.6c-9.9,0-18,8.1-18,18V260.2z"/>
	
		<rect x="18.6" y="256.3" transform="matrix(-1 -4.494994e-11 4.494994e-11 -1 79.2779 516.5213)" class="st6" width="42.2" height="3.9"/>
	
		<rect x="18.6" y="258.3" transform="matrix(-1 -4.486379e-11 4.486379e-11 -1 79.2779 517.4964)" class="st6" width="42.2" height="1"/>
	<g>
		<path class="st6" d="M35.1,238.6c-0.4,1.5,0.2,3.2,1.2,4.5c1,1.2,2.5,2.1,3.9,2.9"/>
		<g>
			<path class="st7" d="M34.2,238.3c-0.5,1.8,0.1,3.7,1.2,5.2c1.1,1.4,2.7,2.4,4.3,3.3c0.5,0.3,1.1,0.1,1.4-0.4
				c0.3-0.5,0.1-1.1-0.4-1.4c-1.3-0.8-2.6-1.5-3.6-2.7c-0.4-0.4-0.8-1.1-0.9-1.7c-0.1-0.3-0.2-0.6-0.2-0.9c0-0.4,0-0.6,0.1-1
				c0.1-0.5-0.2-1.1-0.7-1.2C34.9,237.5,34.3,237.8,34.2,238.3L34.2,238.3z"/>
		</g>
	</g>
	<g>
		<path class="st6" d="M28.9,240.2c-0.4,1.5,0.2,3.2,1.2,4.5s2.5,2.1,3.9,2.9"/>
		<g>
			<path class="st7" d="M28,240c-0.5,1.8,0.1,3.7,1.2,5.2c1.1,1.4,2.7,2.4,4.3,3.3c0.5,0.3,1.1,0.1,1.4-0.4c0.3-0.5,0.1-1.1-0.4-1.4
				c-1.3-0.8-2.6-1.5-3.6-2.7c-0.4-0.4-0.8-1.1-0.9-1.7c-0.1-0.3-0.2-0.6-0.2-0.9c0-0.4,0-0.6,0.1-1c0.1-0.5-0.2-1.1-0.7-1.2
				C28.7,239.1,28.1,239.4,28,240L28,240z"/>
		</g>
	</g>
	<g>
		<path class="st6" d="M24.7,243.4c-0.4,1.5,0.2,3.2,1.2,4.5c1,1.2,2.5,2.1,3.9,2.9"/>
		<g>
			<path class="st7" d="M23.7,243.1c-0.5,1.8,0.1,3.7,1.2,5.2c1.1,1.4,2.7,2.4,4.3,3.3c0.5,0.3,1.1,0.1,1.4-0.4
				c0.3-0.5,0.1-1.1-0.4-1.4c-1.3-0.8-2.6-1.5-3.6-2.7c-0.4-0.4-0.8-1.1-0.9-1.7c-0.1-0.3-0.2-0.6-0.2-0.9c0-0.4,0-0.6,0.1-1
				c0.1-0.5-0.2-1.1-0.7-1.2C24.4,242.3,23.9,242.6,23.7,243.1L23.7,243.1z"/>
		</g>
	</g>
</g>
<path class="st8" d="M45,232.8h15.8v-69.9c0-3.3-2.7-6-6-6H51c-3.3,0-6,2.7-6,6V232.8z"/>
<rect x="45" y="219.5" transform="matrix(-1 -3.299106e-11 3.299106e-11 -1 105.6757 452.9724)" class="st10" width="15.8" height="14"/>
<rect x="36.3" y="156.2" class="st7" width="56" height="7.8"/>
<circle class="st1" cx="99.1" cy="163" r="9.4"/>
<circle class="st1" cx="32.2" cy="163.8" r="9.4"/>
<rect x="83.9" y="54.5" class="st1" width="5.6" height="6.1"/>
<polygon class="st1" points="65.1,102.6 54.6,95.2 76.3,95.2 "/>
<rect x="45" y="225.3" class="st6" width="15.8" height="14.9"/>
<rect x="68.5" y="225.3" class="st6" width="15.8" height="14.9"/>
<path class="st1" d="M99.4,167.2h-3.1c-3.5,0-6.4-2.9-6.4-6.4v-49c0-3.5,2.9-6.4,6.4-6.4h3.1c3.5,0,6.4,2.9,6.4,6.4v49
	C105.8,164.4,102.9,167.2,99.4,167.2z"/>
<path class="st1" d="M34.1,167.2h-3.1c-3.5,0-6.4-2.9-6.4-6.4v-49c0-3.5,2.9-6.4,6.4-6.4h3.1c3.5,0,6.4,2.9,6.4,6.4v49
	C40.5,164.4,37.6,167.2,34.1,167.2z"/>
<path class="st11" d="M68.8,165.5h-7.4c-2.1,0-3.7-1.7-3.7-3.7v-4c0-2.1,1.7-3.7,3.7-3.7h7.4c2.1,0,3.7,1.7,3.7,3.7v4
	C72.6,163.8,70.9,165.5,68.8,165.5z"/>
<path class="st5" d="M34.1,98.4h-3.1c-3.5,0-6.4,4.2-6.4,9.4v15h15.8v-15C40.5,102.6,37.6,98.4,34.1,98.4z"/>
<path class="st5" d="M99.4,100.2h-3.1c-3.5,0-6.4,3.9-6.4,8.7v13.9h15.8v-13.9C105.8,104.1,102.9,100.2,99.4,100.2z"/>
<path class="st12" d="M46.3,233.5h13.1c1.7,0,3-1.3,3-3v-4.7c0-1.7-1.3-3-3-3H46.3c-1.7,0-3,1.3-3,3v4.7
	C43.3,232.2,44.6,233.5,46.3,233.5z"/>
<path class="st12" d="M82.9,233.3H69.8c-1.7,0-3-1.3-3-3v-4.5c0-1.7,1.3-3,3-3h13.1c1.7,0,3,1.3,3,3v4.5
	C85.9,232,84.5,233.3,82.9,233.3z"/>
<circle class="st13" cx="65.4" cy="109.5" r="1.4"/>
<path class="st14" d="M61.1,49.9H46.6c-1.1,0-2-0.9-2-2V41c0-1.1,0.9-2,2-2h14.5c1.1,0,2,0.9,2,2v6.9C63.1,49,62.2,49.9,61.1,49.9z"
	/>
<path class="st14" d="M83.6,49.9H69.1c-1.1,0-2-0.9-2-2V41c0-1.1,0.9-2,2-2h14.5c1.1,0,2,0.9,2,2v6.9C85.6,49,84.7,49.9,83.6,49.9z"
	/>
<rect x="63.1" y="45.4" class="st15" width="4" height="1.2"/>
<rect x="85.4" y="43.7" class="st15" width="4" height="1.6"/>
<g>
	<g>
		<g>
			<g>
				<path class="st16" d="M65.2,63.4c0.8,1.1,0.9,2.6,0.2,4c-0.7,1.4-2.2,2.6-4.2,3.1c-1,0.2-3.5,0.4-6.5-0.2
					c-3-0.6-6.4-2.3-8.7-4.6c-2.4-2.3-3.9-5-4.6-7c-0.4-1-0.5-1.9-0.7-2.5c-0.1-0.6-0.1-0.9-0.1-0.9s0.2,0.3,0.5,0.8
					c0.4,0.5,0.9,1.1,1.6,1.8c1.4,1.4,3.6,2.9,6,3.6c2.4,0.8,4.8,0.8,6.6,0.4c1.8-0.4,3.1-1,3.6-1.1c1.1-0.3,2.1-0.1,3.3,0.4
					C63.3,61.5,64.5,62.2,65.2,63.4z"/>
			</g>
		</g>
	</g>
	<g>
		<g>
			<g>
				<path class="st16" d="M65.7,63.4c0.8-1.2,1.9-1.9,3-2.3c1.1-0.4,2.2-0.6,3.3-0.4c0.5,0.1,1.8,0.7,3.6,1.1
					c1.8,0.4,4.2,0.4,6.6-0.4c2.4-0.7,4.6-2.2,6-3.6c0.7-0.7,1.2-1.3,1.6-1.8c0.3-0.5,0.5-0.8,0.5-0.8s-0.1,0.3-0.1,0.9
					c-0.1,0.6-0.3,1.4-0.7,2.5c-0.7,2-2.2,4.7-4.6,7c-2.4,2.3-5.7,4-8.7,4.6c-3,0.7-5.5,0.5-6.5,0.2c-2-0.5-3.5-1.7-4.2-3.1
					C64.8,65.9,64.9,64.5,65.7,63.4z"/>
			</g>
		</g>
	</g>
</g>
<rect x="39.5" y="43.6" class="st15" width="4.8" height="1.6"/>
<path class="st17" d="M58.5,11.5h12c10.5,0,19,8.5,19,19v13.2l-3.4,0l0-2.3c0-10.5-9.2-17.7-19.7-17.7h-12c-6.1,0-11.5,2.9-15,7.4
	v-0.6C39.5,20,48,11.5,58.5,11.5z"/>
<circle class="st13" cx="65.4" cy="117.2" r="1.4"/>
<circle class="st13" cx="65.5" cy="125.5" r="1.4"/>
<circle class="st13" cx="65.5" cy="133.3" r="1.4"/>
<circle class="st13" cx="65.5" cy="141.2" r="1.4"/>
<circle class="st13" cx="65.5" cy="148.7" r="1.4"/>
<path class="st18" d="M83,123.5h-6.5c-0.6,0-1-0.4-1-1v-9.6c0-0.6,0.4-1,1-1H83c0.6,0,1,0.4,1,1v9.6C84,123.1,83.6,123.5,83,123.5z"
	/>
<circle class="st13" cx="79.8" cy="114.7" r="1.1"/>
<circle class="st19" cx="138.4" cy="237.1" r="11.8"/>
<circle class="st19" cx="153.8" cy="243.4" r="11.8"/>
<circle class="st19" cx="166.6" cy="237.1" r="11.8"/>
<circle class="st19" cx="186.5" cy="243.7" r="11.8"/>
<circle class="st19" cx="204.4" cy="246.4" r="11.8"/>
<circle class="st19" cx="200.8" cy="235.8" r="11.8"/>
<circle class="st19" cx="169.6" cy="251" r="11.8"/>
<circle class="st19" cx="129.5" cy="250.8" r="11.8"/>
<circle class="st19" cx="146.1" cy="251.8" r="11.8"/>
<circle class="st19" cx="192.6" cy="251.8" r="11.8"/>
<circle class="st19" cx="159.9" cy="250.5" r="11.8"/>
<circle class="st19" cx="209.8" cy="254.5" r="11.8"/>
<circle class="st19" cx="180.8" cy="251.8" r="11.8"/>
<circle class="st20" cx="126.6" cy="238.1" r="5"/>
<circle class="st20" cx="147.6" cy="230.7" r="5"/>
<circle class="st20" cx="142" cy="228.1" r="5"/>
<circle class="st20" cx="178.4" cy="234.6" r="5"/>
<circle class="st20" cx="154.8" cy="230.8" r="5"/>
<circle class="st20" cx="131.4" cy="231.6" r="5"/>
<circle class="st20" cx="137" cy="226.6" r="5"/>
<circle class="st20" cx="138.4" cy="233.2" r="5"/>
<circle class="st20" cx="194" cy="230.7" r="5"/>
<circle class="st20" cx="183.7" cy="234.3" r="5"/>
<circle class="st20" cx="191.5" cy="234.3" r="5"/>
<circle class="st20" cx="198.3" cy="224.1" r="5"/>
<circle class="st20" cx="188.7" cy="229.1" r="5"/>
<circle class="st20" cx="193.7" cy="226.1" r="5"/>
<circle class="st20" cx="183.7" cy="228.2" r="5"/>
<circle class="st20" cx="176.4" cy="226.9" r="5"/>
<path class="st21" d="M160.7,223.1H160c-5.3,0-10.2-2.8-13-7.3l-3.6-5.9c-0.9-1.5-1.4-3.1-1.5-4.8l-0.5-8.1
	c-0.1-2.6,1.9-4.7,4.5-4.7h27.6c2.4,0,4.4,2,4.5,4.4l0.2,8.8c0,1.5-0.3,2.9-1.1,4.2l-3.3,5.8C171.2,220.1,166.2,223.1,160.7,223.1z"
	/>
<path class="st22" d="M160.9,217.4h-2c-0.6,0-1-0.4-1-1v-24.3h4v24.3C161.9,217,161.5,217.4,160.9,217.4z"/>
<path class="st0" d="M175.3,101.4l-15.4,0.1h-15.4c0,8.7,7,15.8,15.4,15.8S175.3,110.1,175.3,101.4
	C175.3,101.5,175.3,101.5,175.3,101.4z M159.9,115.2c-6.1,0-11-5.3-11-11.7h11l11,0c0,0,0,0,0,0C171,109.9,166,115.2,159.9,115.2z"
	/>
<path d="M189.5,186.8h-2.3c-0.6,0-1-0.4-1-1v-22.2c0-0.6,0.4-1,1-1h2.3c0.6,0,1,0.4,1,1v22.2C190.5,186.3,190,186.8,189.5,186.8z"/>
<ellipse class="st23" cx="188.3" cy="151.3" rx="13.3" ry="13.7"/>
<g>
	<g>
		<path class="st24" d="M184.8,140.6c-0.5,0.2-1,0.6-1.5,0.9c-0.5,0.3-1,0.7-1.4,1.1c-0.9,0.7-1.6,1.7-1.9,2.8
			c-0.1,0.5,0.2,1.1,0.7,1.2c0.5,0.1,1.1-0.2,1.2-0.7c0-0.1,0.1-0.2,0.1-0.3c0.1-0.1,0,0,0,0c0,0,0.1-0.1,0.1-0.2
			c0-0.1,0.1-0.2,0.2-0.3c0-0.1,0.1-0.1,0.1-0.2c0,0,0.1-0.2,0-0.1c-0.1,0.1,0,0,0-0.1c0-0.1,0.1-0.1,0.1-0.2
			c0.1-0.1,0.2-0.2,0.2-0.2c0.2-0.2,0.4-0.3,0.6-0.5c0.1-0.1,0.2-0.1,0.3-0.2c0,0,0.2-0.2,0,0c0,0,0.1-0.1,0.1-0.1
			c0.2-0.1,0.4-0.3,0.6-0.4c0.5-0.3,0.9-0.6,1.5-0.9c0.5-0.2,0.6-0.9,0.4-1.4C185.9,140.5,185.3,140.4,184.8,140.6L184.8,140.6z"/>
	</g>
</g>
<path class="st19" d="M259.9,214.5h-42.2c-3.9,0-7.1-3.2-7.1-7.1v-60.1c0-3.9,3.2-7.1,7.1-7.1h42.2c3.9,0,7.1,3.2,7.1,7.1v60.1
	C267,211.3,263.8,214.5,259.9,214.5z"/>
<rect x="213.9" y="143.6" class="st25" width="49.9" height="68.6"/>
<path class="st26" d="M255.9,145.6h-34.1c-1.7,0-3-1.3-3-3v-0.5c0-1.6,1.3-3,3-3h34.1c1.7,0,3,1.4,3,3v0.5
	C258.9,144.3,257.5,145.6,255.9,145.6z"/>
<circle class="st26" cx="238.8" cy="137.9" r="7.7"/>
<circle class="st27" cx="238.8" cy="136.5" r="3.8"/>
<path d="M260.4,152.1h-43.2c-1,0-1.9-0.9-1.9-1.9l0,0c0-1,0.9-1.9,1.9-1.9h43.2c1,0,1.9,0.9,1.9,1.9l0,0
	C262.3,151.3,261.5,152.1,260.4,152.1z"/>
<path d="M260.4,158.6h-43.2c-1,0-1.9-0.9-1.9-1.9l0,0c0-1,0.9-1.9,1.9-1.9h43.2c1,0,1.9,0.9,1.9,1.9l0,0
	C262.3,157.7,261.5,158.6,260.4,158.6z"/>
<path d="M260.4,165h-43.2c-1,0-1.9-0.9-1.9-1.9v0c0-1,0.9-1.9,1.9-1.9h43.2c1,0,1.9,0.9,1.9,1.9v0C262.3,164.2,261.5,165,260.4,165z
	"/>
<path d="M260.7,171.5h-43.2c-1,0-1.9-0.9-1.9-1.9l0,0c0-1,0.9-1.9,1.9-1.9h43.2c1,0,1.9,0.9,1.9,1.9l0,0
	C262.6,170.7,261.8,171.5,260.7,171.5z"/>
<path d="M260.7,178h-43.2c-1,0-1.9-0.9-1.9-1.9l0,0c0-1,0.9-1.9,1.9-1.9h43.2c1,0,1.9,0.9,1.9,1.9l0,0
	C262.6,177.1,261.8,178,260.7,178z"/>
<path d="M260.2,184.5h-29.3c-1,0-1.9-0.9-1.9-1.9v0c0-1,0.9-1.9,1.9-1.9h29.3c1,0,1.9,0.9,1.9,1.9v0
	C262.1,183.6,261.3,184.5,260.2,184.5z"/>
<ellipse class="st19" cx="221.2" cy="197.8" rx="2.3" ry="1.6"/>
<ellipse class="st19" cx="223.7" cy="198.6" rx="2.3" ry="1.6"/>
<ellipse class="st19" cx="219.7" cy="196.2" rx="2.3" ry="1.6"/>
<ellipse class="st19" cx="221.7" cy="195" rx="2.3" ry="1.6"/>
<ellipse class="st19" cx="219.4" cy="195.5" rx="1.2" ry="1.6"/>
<ellipse class="st19" cx="223.6" cy="196.6" rx="1.2" ry="1.6"/>
<ellipse class="st19" cx="218.9" cy="198.1" rx="1.2" ry="1.6"/>
<ellipse class="st19" cx="224.1" cy="194.3" rx="1.2" ry="1.6"/>
<ellipse class="st19" cx="222.5" cy="194.3" rx="1.2" ry="1.6"/>
<rect x="216" y="189.7" class="st28" width="13" height="13"/>
<rect x="232.6" y="189.7" class="st28" width="13" height="13"/>
<rect x="249.1" y="189.9" class="st28" width="13" height="13"/>
<ellipse class="st29" cx="241.8" cy="199.4" rx="1.2" ry="1.6"/>
<ellipse class="st29" cx="240.2" cy="198.1" rx="1.8" ry="1.6"/>
<ellipse class="st29" cx="237" cy="199.4" rx="1.8" ry="1.6"/>
<ellipse class="st29" cx="238.3" cy="197.6" rx="1.8" ry="1.6"/>
<ellipse class="st29" cx="239.7" cy="199.7" rx="1.8" ry="1.6"/>
<ellipse class="st29" cx="236.3" cy="197" rx="1.8" ry="1.6"/>
<ellipse class="st29" cx="242" cy="198.1" rx="1.4" ry="1.6"/>
<path d="M226.8,206h-10c-0.6,0-1-0.4-1-1l0,0c0-0.6,0.4-1,1-1h10c0.6,0,1,0.4,1,1l0,0C227.8,205.5,227.3,206,226.8,206z"/>
<path d="M244.6,206h-11.2c-0.6,0-1-0.4-1-1l0,0c0-0.6,0.4-1,1-1h11.2c0.6,0,1,0.4,1,1l0,0C245.6,205.5,245.1,206,244.6,206z"/>
<path d="M255.4,206h-5.5c-0.6,0-1-0.4-1-1v0c0-0.6,0.4-1,1-1h5.5c0.6,0,1,0.4,1,1v0C256.4,205.5,255.9,206,255.4,206z"/>
<ellipse class="st30" cx="253.5" cy="200.2" rx="2.4" ry="1.3"/>
<ellipse class="st30" cx="255.9" cy="200.2" rx="1.1" ry="1.3"/>
<ellipse class="st30" cx="257.5" cy="199.7" rx="1.1" ry="1.3"/>
<ellipse class="st30" cx="259" cy="200.5" rx="1.1" ry="1.3"/>
<ellipse class="st30" cx="255.6" cy="198.5" rx="1.4" ry="1.3"/>
<ellipse class="st30" cx="252.3" cy="198.1" rx="1.4" ry="1.3"/>
<ellipse class="st30" cx="254.1" cy="197.2" rx="1.4" ry="1.3"/>
<ellipse class="st30" cx="253.5" cy="198.6" rx="1.4" ry="1.3"/>
<ellipse class="st30" cx="257.5" cy="200.2" rx="1.8" ry="1.3"/>
</svg>
