<?xml version="1.0" encoding="utf-8"?>
<!-- Generator: Adobe Illustrator 24.0.1, SVG Export Plug-In . SVG Version: 6.00 Build 0)  -->
<svg version="1.1" id="Layer_1" xmlns="http://www.w3.org/2000/svg" xmlns:xlink="http://www.w3.org/1999/xlink" x="0px" y="0px"
	 viewBox="0 0 280 270" style="enable-background:new 0 0 280 270;" xml:space="preserve">
<style type="text/css">
	.st0{fill:#006837;}
	.st1{fill:#FFE5AC;}
	.st2{fill:#BED7F8;}
	.st3{fill:#FFFAEB;}
	.st4{fill:#A7C6E8;}
	.st5{fill:#231F20;}
	.st6{fill:#FFF0EB;}
	.st7{fill:#200E0A;}
	.st8{fill:#750094;}
	.st9{fill:#F7F9E7;stroke:#030202;stroke-width:0.75;stroke-miterlimit:10;}
	.st10{fill:#CAFFFF;}
	.st11{fill:#750094;stroke:#1F1B0E;stroke-width:0.5;stroke-miterlimit:10;}
	.st12{fill:#8B6C2A;}
	.st13{fill:#AF852D;}
	.st14{fill:#3F3D17;}
	.st15{fill:#715623;}
	.st16{fill:#3E2C13;}
	.st17{fill:#3E1613;}
	.st18{fill:#6C5020;}
	.st19{fill:#C9F8FF;stroke:#000000;stroke-width:0.75;stroke-miterlimit:10;}
	.st20{fill:none;stroke:#000000;stroke-width:0.75;stroke-miterlimit:10;}
	.st21{fill:#B2E2F3;}
	.st22{fill:#704120;}
	.st23{fill:#452403;}
	.st24{fill:#9A53A0;}
	.st25{fill:#ED1F7E;}
	.st26{fill:#8A4B20;}
	.st27{fill:#616264;}
	.st28{fill:#3B0020;}
	.st29{fill:#2F3132;}
	.st30{fill:#F99C24;}
	.st31{fill:#FF0000;}
</style>
<g>
	<g>
		<path class="st0" d="M242.9,157.8c3.1-0.8,5.8,0.9,7.2,3.7c1.4,2.8,2.4,5.4,5.3,7.1c1.2,0.7,2.8,1.3,3.7,2.5
			c1,1.4-0.1,3.3-0.4,4.9c-0.5,3.3,0.6,6.5,2.7,9c1.3,1.5,3.4-0.7,2.1-2.1c-1.1-1.3-1.9-3-2-4.7c-0.1-1.9,0.8-3.7,0.9-5.6
			c0.1-3.9-3.6-5.1-6.2-6.9c-2.6-1.8-3.1-5.5-5.1-7.9c-2.2-2.6-5.8-3.6-9.1-2.7C240.2,155.4,241,158.3,242.9,157.8L242.9,157.8z"/>
	</g>
</g>
<path class="st1" d="M70.9,102.8H56.3c-2,0-3.6-1.6-3.6-3.6v-8.8c0-2,1.6-3.6,3.6-3.6h14.6c2,0,3.6,1.6,3.6,3.6v8.8
	C74.4,101.1,72.8,102.8,70.9,102.8z"/>
<path class="st2" d="M85.2,168.3H41.9c-3.5,0-6.4-2.9-6.4-6.4v-55.7c0-3.5,2.9-6.4,6.4-6.4h43.3c3.5,0,6.4,2.9,6.4,6.4V162
	C91.6,165.5,88.7,168.3,85.2,168.3z"/>
<rect x="73.1" y="110.1" class="st3" width="7.8" height="7.8"/>
<path class="st4" d="M79.2,123.1h-4.5c-1.6,0-2.9-1.3-2.9-2.9v-4.5c0-1.6,1.3-2.9,2.9-2.9h4.5c1.6,0,2.9,1.3,2.9,2.9v4.5
	C82.1,121.8,80.8,123.1,79.2,123.1z"/>
<g>
	<path class="st5" d="M108.7,264.6H66.6v-23.3h24.2c9.9,0,18,8.1,18,18V264.6z"/>
	<rect x="66.6" y="260.7" class="st6" width="42.2" height="3.9"/>
	<rect x="66.6" y="262.6" class="st7" width="42.2" height="1"/>
</g>
<path class="st1" d="M77.2,248.3h-5.4c-2.9,0-5.2-2.3-5.2-5.2v-8.8c0-2.9,2.3-5.2,5.2-5.2h5.4c2.9,0,5.2,2.3,5.2,5.2v8.8
	C82.3,245.9,80,248.3,77.2,248.3z"/>
<path d="M82.3,239.5H66.6v-72.2c0-3.3,2.7-6,6-6h3.8c3.3,0,6,2.7,6,6V239.5z"/>
<path class="st8" d="M81,240.5H67.9c-1.7,0-3-1.3-3-3v-1.3c0-1.7,1.3-3,3-3H81c1.7,0,3,1.3,3,3v1.3C84,239.2,82.7,240.5,81,240.5z"
	/>
<g>
	<path class="st5" d="M16.7,264.6h42.2v-23.3H34.7c-9.9,0-18,8.1-18,18V264.6z"/>
	
		<rect x="16.7" y="260.7" transform="matrix(-1 -4.486379e-11 4.486379e-11 -1 75.4927 525.2678)" class="st6" width="42.2" height="3.9"/>
	
		<rect x="16.7" y="262.6" transform="matrix(-1 -4.494994e-11 4.494994e-11 -1 75.4927 526.2429)" class="st7" width="42.2" height="1"/>
</g>
<path class="st1" d="M48.2,248.3h5.4c2.9,0,5.2-2.3,5.2-5.2v-8.8c0-2.9-2.3-5.2-5.2-5.2h-5.4c-2.9,0-5.2,2.3-5.2,5.2v8.8
	C43.1,245.9,45.4,248.3,48.2,248.3z"/>
<path d="M43.1,239.5h15.8v-72.2c0-3.3-2.7-6-6-6h-3.8c-3.3,0-6,2.7-6,6V239.5z"/>
<path class="st8" d="M44.4,240.5h13.1c1.7,0,3-1.3,3-3v-1.3c0-1.7-1.3-3-3-3H44.4c-1.7,0-3,1.3-3,3v1.3
	C41.4,239.2,42.7,240.5,44.4,240.5z"/>
<rect x="34.4" y="160.5" class="st5" width="56" height="7.8"/>
<path class="st9" d="M67,169.9h-7.4c-2.1,0-3.7-1.7-3.7-3.7v-4c0-2.1,1.7-3.7,3.7-3.7H67c2.1,0,3.7,1.7,3.7,3.7v4
	C70.7,168.2,69,169.9,67,169.9z"/>
<path class="st10" d="M96.1,105.7h-5.2c-10.2,0-4.2,12.2-4.2,24.9v36.8h15.8v-36.8C102.4,117.9,105.1,108.6,96.1,105.7z"/>
<path class="st10" d="M31.3,104.5h5.2c10.2,0,4.2,12.2,4.2,24.9v36.8H24.9v-36.8C24.9,116.7,22.2,107.4,31.3,104.5z"/>
<polygon class="st11" points="62.4,108.1 58.4,104.8 62.3,100.6 66.2,105 "/>
<polygon class="st11" points="62.7,144.8 57.3,139.7 59.2,105.4 62.4,108.1 65.4,105.5 68.1,139.5 "/>
<path class="st10" d="M90.9,216.6H78c-0.6,0-1-0.4-1-1V100h7.9c5,0,9,4,9,9v104.6C93.9,215.2,92.5,216.6,90.9,216.6z"/>
<path class="st10" d="M34.2,216.6h17.5c0.6,0,1-0.4,1-1V100H41.2c-5.5,0-10,4.5-10,10v103.6C31.2,215.2,32.5,216.6,34.2,216.6z"/>
<circle class="st1" cx="31.7" cy="169.9" r="9.4"/>
<circle class="st1" cx="94.8" cy="169.9" r="9.4"/>
<circle cx="80.9" cy="147.3" r="2.5"/>
<circle cx="80.9" cy="163" r="2.5"/>
<g>
	<path class="st1" d="M65.7,97.6h-4c-12.7,0-23-10.3-23-23l0-38c0-10.5,8.5-19,19-19h12c10.5,0,19,8.5,19,19v38
		C88.7,87.3,78.4,97.6,65.7,97.6z"/>
	<path class="st12" d="M58.3,43.1h-9c-1.1,0-2-0.9-2-2v-0.7c0-1.1,0.9-2,2-2h9c1.1,0,2,0.9,2,2v0.7C60.3,42.2,59.4,43.1,58.3,43.1z"
		/>
	<path class="st12" d="M78.8,43.1h-9c-1.1,0-2-0.9-2-2v-0.7c0-1.1,0.9-2,2-2h9c1.1,0,2,0.9,2,2v0.7C80.8,42.2,79.9,43.1,78.8,43.1z"
		/>
	<path class="st13" d="M38.7,58h-3.1c-1.1,0-2-0.9-2-2v-4.6c0-1.1,0.9-2,2-2h3.1V58z"/>
	<path class="st13" d="M91.8,58h-3.1v-8.6h3.1c1.1,0,2,0.9,2,2V56C93.8,57.1,92.9,58,91.8,58z"/>
	<circle class="st14" cx="53.8" cy="47.3" r="2.1"/>
	<circle class="st14" cx="75" cy="47.3" r="2.1"/>
	<ellipse class="st15" cx="64.4" cy="67.4" rx="7" ry="5"/>
	<path class="st13" d="M65.2,61.5H64c-1.1,0-2-0.9-2-2v-8.2c0-1.1,0.9-2,2-2h1.1c1.1,0,2,0.9,2,2v8.2C67.2,60.6,66.3,61.5,65.2,61.5
		z"/>
	<path class="st16" d="M69.7,17.6h-12c-10.5,0-19,8.5-19,19v7.6c0.5-2,2-3.6,4.7-3.6c0.1,0,0.2,0,0.3,0c1.1-9.4,9.1-16.7,18.8-16.7
		h12c4.7,0,9,1.7,12.3,4.6C83.8,22,77.3,17.6,69.7,17.6z"/>
	<path class="st17" d="M70.5,84.4h-4c-12.7,0-23-10.3-23-23l0.1-20.8c0.1-12.5-0.6-1.7-1.8-2.2c-3.7-1.6-3.1,7.2-3.1,14.5v21.9
		c0,12.7,10.3,23,23,23h4c12.4,0,22.6-9.9,23-22.2C84.5,80.9,77.9,84.4,70.5,84.4z"/>
	<g>
		<g>
			<g>
				<g>
					<path class="st14" d="M64.4,60.7c0.8,1.1,0.9,2.6,0.2,4c-0.7,1.4-2.2,2.6-4.2,3.1c-1,0.2-3.5,0.4-6.5-0.2
						c-3-0.6-6.4-2.3-8.7-4.6c-2.4-2.3-3.9-5-4.6-7c-0.4-1-0.5-1.9-0.7-2.5c-0.1-0.6-0.1-0.9-0.1-0.9s0.2,0.3,0.5,0.8
						c0.4,0.5,0.9,1.1,1.6,1.8c1.4,1.4,3.6,2.9,6,3.6c2.4,0.8,4.8,0.8,6.6,0.4c1.8-0.4,3.1-1,3.6-1.1c1.1-0.3,2.1-0.1,3.3,0.4
						C62.5,58.8,63.6,59.5,64.4,60.7z"/>
				</g>
			</g>
		</g>
		<g>
			<g>
				<g>
					<path class="st14" d="M64.8,60.7c0.8-1.2,1.9-1.9,3-2.3c1.1-0.4,2.2-0.6,3.3-0.4c0.5,0.1,1.8,0.7,3.6,1.1
						c1.8,0.4,4.2,0.4,6.6-0.4c2.4-0.7,4.6-2.2,6-3.6c0.7-0.7,1.2-1.3,1.6-1.8c0.3-0.5,0.5-0.8,0.5-0.8s-0.1,0.3-0.1,0.9
						c-0.1,0.6-0.3,1.4-0.7,2.5c-0.7,2-2.2,4.7-4.6,7c-2.4,2.3-5.7,4-8.7,4.6c-3,0.7-5.5,0.5-6.5,0.2c-2-0.5-3.5-1.7-4.2-3.1
						C63.9,63.3,64.1,61.8,64.8,60.7z"/>
				</g>
			</g>
		</g>
	</g>
	<path class="st17" d="M88.7,36.4h-50v0c0-16.5,13.5-30,30-30h20c8.2,0,15,6.7,15,15v0C103.7,29.6,96.9,36.4,88.7,36.4z"/>
	<g>
		<g>
			<path class="st18" d="M93.2,9.2c-2.8,3.1-7,3.5-10.9,3.6c-4.3,0.1-8.7,0.2-12.9-0.3c-2-0.2-3.9-0.8-5.9-0.8c-2.1,0-4,0.7-6,1.5
				c-3.9,1.6-7.7,3.3-11.4,5.2c-0.4,0.2-0.8,0.6-0.3,0.9c0.5,0.3,1.6-0.1,2-0.3c3.9-1.9,7.9-3.9,12.1-5.4c2.3-0.8,4.5-0.1,6.8,0.2
				c2.1,0.3,4.3,0.4,6.5,0.5c4.3,0.1,8.8,0.3,13-0.4c3.6-0.6,7.2-1.9,9.8-4.7c0.5-0.5-0.4-0.6-0.7-0.6C94.5,8.4,93.7,8.7,93.2,9.2
				L93.2,9.2z"/>
		</g>
	</g>
	<g>
		<g>
			<path class="st18" d="M96.9,12.4c-4.1,7-13,8-20.3,7.8c-8.5-0.2-16.9-1.2-24.9,2.5c-4,1.9-7.7,4.5-11.3,7.1
				c-0.5,0.4-0.7,1-0.2,1.5c0.6,0.4,1.5,0.2,2.1-0.2c3.3-2.4,6.6-4.8,10.2-6.5c4-1.9,8.2-2.6,12.6-2.6c8.5-0.1,17.3,1.6,25.5-1.7
				c3.7-1.5,6.9-4,8.9-7.4c0.4-0.6-0.3-1.1-0.9-1.2C98,11.4,97.2,11.8,96.9,12.4L96.9,12.4z"/>
		</g>
	</g>
	<g>
		<g>
			<path class="st18" d="M98.3,14.5c0.3,3.7-1.7,7.2-4.6,9.3c-3.2,2.3-7.3,3.1-11.2,3.3c-8.3,0.4-16.6-0.6-24.7,2.1
				c-3.9,1.3-7.4,3.3-10.2,6.3c-1.2,1.3,1.6,1.5,2.4,0.7C55.8,30,64.6,29,72.6,29c8.1,0,17.2,0.7,23.9-4.8c3.1-2.6,5.1-6.4,4.7-10.5
				C101.1,12.6,98.2,13.2,98.3,14.5L98.3,14.5z"/>
		</g>
	</g>
	<g>
		<g>
			<path class="st18" d="M99.7,17.6c-0.4,2.5-1,5.1-2.7,7.1c-1.7,2.1-4.3,2.6-6.8,3c-2.6,0.4-5.1,0.9-7.4,2.1
				c-2.4,1.2-4.5,2.9-6.2,5.1c-1.1,1.5,1.6,2,2.4,0.9c1.7-2.2,3.9-3.9,6.5-4.8c2.6-0.9,5.4-1,8-1.8c2.5-0.7,4.9-2,6.4-4.2
				c1.5-2.2,2.2-4.9,2.6-7.6C102.9,15.9,100,16.3,99.7,17.6L99.7,17.6z"/>
		</g>
	</g>
</g>
<ellipse class="st19" cx="53.8" cy="47.3" rx="8.5" ry="5.4"/>
<ellipse class="st19" cx="75.4" cy="47.3" rx="8.5" ry="5.4"/>
<line class="st20" x1="62.4" y1="47.3" x2="66.9" y2="47.3"/>
<path class="st21" d="M155.2,161.5L155.2,161.5c-1.5,0-2.8-1.2-2.8-2.8V133h5.5v25.8C158,160.3,156.7,161.5,155.2,161.5z"/>
<path class="st21" d="M158.8,133.1h-7.3c-0.6,0-1.1-0.5-1.1-1.1l0,0c0-0.6,0.5-1.1,1.1-1.1h7.3c0.6,0,1.1,0.5,1.1,1.1l0,0
	C160,132.6,159.5,133.1,158.8,133.1z"/>
<rect x="142.6" y="176.5" class="st22" width="6.4" height="86.6"/>
<rect x="237.5" y="176.5" class="st22" width="6.4" height="86.6"/>
<rect x="189.4" y="117.4" transform="matrix(6.123234e-17 -1 1 6.123234e-17 19.3198 365.8614)" class="st22" width="6.4" height="111.6"/>
<polygon class="st23" points="162.6,176.5 149.1,192.1 149.1,197 166.9,176.5 "/>
<polygon class="st23" points="223.9,176.5 237.5,192.1 237.5,197 219.7,176.5 "/>
<path class="st24" d="M155.2,161.7L155.2,161.7c-1.5,0-2.8-1.2-2.8-2.8v-13.2h5.5v13.2C158,160.4,156.7,161.7,155.2,161.7z"/>
<g>
	<path class="st21" d="M205.9,145l12.8,22.2c0.7,1.3-0.2,2.9-1.7,2.9h-25.6c-1.5,0-2.4-1.6-1.7-2.9l12.8-22.2
		C203.3,143.7,205.2,143.7,205.9,145z"/>
	<rect x="201.2" y="129.6" class="st21" width="6.1" height="24.5"/>
	<path class="st21" d="M208.9,129.6h-9.3c-0.6,0-1.1-0.5-1.1-1.1V128c0-0.6,0.5-1.1,1.1-1.1h9.3c0.6,0,1.1,0.5,1.1,1.1v0.5
		C210,129.1,209.5,129.6,208.9,129.6z"/>
</g>
<path class="st21" d="M168,161.5L168,161.5c-1.5,0-2.8-1.2-2.8-2.8V133h5.5v25.8C170.8,160.3,169.6,161.5,168,161.5z"/>
<path class="st21" d="M171.7,133.1h-7.3c-0.6,0-1.1-0.5-1.1-1.1l0,0c0-0.6,0.5-1.1,1.1-1.1h7.3c0.6,0,1.1,0.5,1.1,1.1l0,0
	C172.8,132.6,172.3,133.1,171.7,133.1z"/>
<path class="st25" d="M168,161.7L168,161.7c-1.5,0-2.8-1.2-2.8-2.8v-17h5.5v17C170.8,160.4,169.6,161.7,168,161.7z"/>
<path class="st21" d="M181.1,161.5L181.1,161.5c-1.5,0-2.8-1.2-2.8-2.8V133h5.5v25.8C183.9,160.3,182.6,161.5,181.1,161.5z"/>
<path class="st21" d="M184.7,133.1h-7.3c-0.6,0-1.1-0.5-1.1-1.1l0,0c0-0.6,0.5-1.1,1.1-1.1h7.3c0.6,0,1.1,0.5,1.1,1.1l0,0
	C185.9,132.6,185.4,133.1,184.7,133.1z"/>
<path class="st26" d="M181.1,161.7L181.1,161.7c-1.5,0-2.8-1.2-2.8-2.8v-8.2h5.5v8.2C183.9,160.4,182.6,161.7,181.1,161.7z"/>
<rect x="150.4" y="143.4" class="st5" width="2" height="26.6"/>
<rect x="157.9" y="143.4" class="st5" width="2" height="26.6"/>
<rect x="183.9" y="143.4" class="st5" width="2" height="26.6"/>
<rect x="170.6" y="143.4" class="st5" width="2" height="26.6"/>
<rect x="163.3" y="143.4" class="st5" width="2" height="26.6"/>
<rect x="176.3" y="143.4" class="st5" width="2" height="26.6"/>
<rect x="159.8" y="143.4" class="st5" width="3.4" height="2.3"/>
<rect x="172.5" y="143.4" class="st5" width="3.8" height="2.3"/>
<rect x="203.4" y="131.5" class="st5" width="3.9" height="1.1"/>
<rect x="203.4" y="137.5" class="st5" width="3.9" height="1.1"/>
<rect x="203.4" y="143.5" class="st5" width="3.9" height="1.1"/>
<path class="st27" d="M245.2,170h-23.1c-0.6,0-1-0.4-1-1v-1.3c0-0.6,0.4-1,1-1h23.1c0.6,0,1,0.4,1,1v1.3
	C246.2,169.5,245.7,170,245.2,170z"/>
<rect x="230.2" y="146.4" class="st27" width="8.2" height="20.3"/>
<path class="st28" d="M241.2,158.7h-2.8v-5h2.8c0.6,0,1,0.4,1,1v3C242.2,158.2,241.7,158.7,241.2,158.7z"/>
<rect x="231.3" y="143.7" class="st29" width="6.1" height="2.7"/>
<g>
	<path class="st30" d="M231.2,143.3c-0.7-0.4-1.2-1-1.6-1.7c-0.3-0.5-0.5-1-0.5-1.5c0-0.5,0.2-1.1,0.6-1.4c0,0.3,0.2,0.5,0.5,0.6
		c0.3,0.1,0.5,0,0.7-0.2c0.3-0.2,0.4-0.6,0.4-0.9c0-0.2-0.1-0.4-0.2-0.5c-0.1-0.2-0.3-0.5-0.4-0.7c-0.3-0.5-0.7-1-1.1-1.5
		c-0.4-0.5-0.7-1.1-0.8-1.7c-0.1-0.6,0.1-1.3,0.5-1.7c-0.1,0.4,0.3,0.9,0.7,1c0.4,0.1,0.9,0,1.3-0.3s0.6-0.7,0.7-1.1
		c0.1-0.3,0.2-0.6,0.4-0.9c-0.1,0.4-0.2,0.9,0,1.3s0.6,0.8,1,0.6c0.3-0.1,0.5-0.4,0.7-0.7c0.4,0.4,0.7,0.8,0.7,1.3
		c-0.1,0.7-0.8,1.3-0.7,1.9c0.1,0.5,0.7,0.7,1.2,0.5s0.7-0.6,0.8-1.1c0.2,0.3,0.4,0.5,0.6,0.8c0.1,0.2,0.2,0.4,0.3,0.6
		c0,0.3-0.2,0.5-0.3,0.8c-0.3,0.5-0.4,1-0.5,1.5c-0.1,0.2-0.1,0.5,0,0.7c0.1,0.2,0.3,0.5,0.5,0.5c0.3,0,0.5-0.3,0.6-0.6
		c0.1-0.3,0.1-0.6,0.3-0.9c0.3,0.4,0.6,0.9,0.7,1.4c0.2,0.5,0.2,1.1,0,1.6c-0.3,0.8-1.1,1.3-1.1,2.1c0,0.1,0,0.2-0.1,0.2
		c0,0-0.1,0-0.1,0c-0.8-0.1-1.6,0-2.3,0.1c-1,0.1-2.1,0-3.1-0.1"/>
	<g>
		<path class="st31" d="M231.4,143c-1-0.7-2.9-2.8-1.5-4c-0.2-0.1-0.4-0.1-0.6-0.2c0.2,0.7,0.9,1,1.5,0.8c0.7-0.3,1-1.1,0.7-1.8
			c-0.3-0.9-1-1.7-1.6-2.5c-0.6-0.9-1.2-2.1-0.3-3c-0.2-0.1-0.4-0.2-0.6-0.3c0,0.9,0.8,1.6,1.8,1.4c0.5-0.1,0.9-0.4,1.2-0.7
			c0.4-0.5,0.5-1.2,0.8-1.7c-0.2-0.1-0.4-0.2-0.6-0.4c-0.2,0.8-0.2,1.8,0.6,2.3c0.8,0.4,1.4-0.1,1.8-0.8c-0.2,0-0.4,0.1-0.6,0.1
			c0.3,0.4,0.7,0.7,0.5,1.3c-0.1,0.3-0.3,0.6-0.5,0.9c-0.2,0.5-0.2,1,0.1,1.4c0.9,1,2.2,0.1,2.4-1c-0.2,0-0.5,0.1-0.7,0.1
			c0.3,0.4,0.9,1,0.7,1.5c-0.1,0.4-0.4,0.7-0.5,1c-0.2,0.6-0.5,1.4-0.2,2c0.2,0.4,0.7,0.7,1.1,0.5c0.7-0.3,0.6-1.1,0.9-1.6
			c-0.2,0-0.4,0-0.6,0c0.5,0.9,1.1,1.9,0.6,2.9c-0.2,0.3-0.4,0.6-0.6,0.9c-0.2,0.3-0.3,0.6-0.4,0.9c0,0.1,0,0.1,0.1,0.1
			c-0.1,0-0.2,0-0.3,0c-0.2,0-0.5,0-0.7,0c-0.5,0-0.9,0.1-1.4,0.1C233.4,143.2,232.4,143.1,231.4,143c-0.5-0.1-0.5,0.7,0,0.7
			c1.3,0.1,2.5,0.2,3.8,0.1c0.5,0,1.1,0,1.6,0c0.4,0,0.5-0.2,0.6-0.5c0.3-0.9,1-1.5,1.2-2.3c0.3-1.1-0.3-2.2-0.8-3.1
			c-0.1-0.2-0.5-0.3-0.6,0c-0.1,0.2-0.2,0.4-0.2,0.6c0,0.2-0.1,0.9-0.5,0.5c-0.1-0.1,0.1-0.8,0.1-1c0.1-0.3,0.2-0.7,0.4-1
			c0.2-0.4,0.4-0.7,0.3-1.1c-0.1-0.5-0.6-1-0.9-1.5c-0.2-0.2-0.6-0.3-0.7,0.1c-0.1,0.3-0.2,0.6-0.5,0.8c-0.4,0.2-0.8,0-0.8-0.5
			c0.1-0.4,0.4-0.7,0.5-1c0.4-0.8-0.1-1.5-0.6-2.1c-0.2-0.2-0.5-0.1-0.6,0.1c-0.2,0.3-0.5,0.8-0.9,0.3c-0.3-0.4-0.2-0.9-0.1-1.3
			c0.1-0.3-0.4-0.7-0.6-0.4c-0.4,0.4-0.4,1-0.7,1.5c-0.2,0.3-0.4,0.6-0.8,0.7c-0.5,0.2-1-0.1-1-0.6c0-0.3-0.4-0.5-0.6-0.3
			c-0.9,0.9-0.8,2.2-0.2,3.2c0.4,0.7,0.9,1.2,1.3,1.8c0.2,0.3,0.4,0.6,0.5,0.9c0.1,0.2,0.2,0.4,0.2,0.6c0,0.4-0.7,1-0.9,0.3
			c-0.1-0.3-0.4-0.3-0.6-0.2c-1.9,1.6,0.2,4.2,1.6,5.2C231.4,143.9,231.8,143.3,231.4,143L231.4,143z"/>
	</g>
</g>
</svg>
