<?xml version="1.0" encoding="utf-8"?>
<!-- Generator: Adobe Illustrator 24.0.1, SVG Export Plug-In . SVG Version: 6.00 Build 0)  -->
<svg version="1.1" id="Layer_1" xmlns="http://www.w3.org/2000/svg" xmlns:xlink="http://www.w3.org/1999/xlink" x="0px" y="0px"
	 viewBox="0 0 280 270" style="enable-background:new 0 0 280 270;" xml:space="preserve">
<style type="text/css">
	.st0{fill:#EAB785;}
	.st1{fill:#70512C;}
	.st2{fill:#BFA981;}
	.st3{fill:#050505;}
	.st4{fill:#55B047;}
	.st5{fill:#004854;}
	.st6{fill:#9E4A23;}
	.st7{fill:#231F20;}
	.st8{fill:#8C711B;stroke:#030202;stroke-width:2;stroke-miterlimit:10;}
	.st9{fill:#4A7082;}
	.st10{fill:#928571;stroke:#030202;stroke-width:0.75;stroke-miterlimit:10;}
	.st11{fill:#B67526;}
	.st12{fill:none;stroke:#000000;stroke-miterlimit:10;}
	.st13{fill:none;stroke:#000000;stroke-width:1.0006;stroke-linecap:round;stroke-miterlimit:10;}
	.st14{fill:none;stroke:#000000;stroke-width:1.0006;stroke-linecap:round;stroke-linejoin:round;stroke-miterlimit:10;}
	.st15{fill:#2A241D;}
	.st16{fill:#76C043;stroke:#006837;stroke-miterlimit:10;}
	.st17{fill:#5E4638;}
	.st18{fill:#DE2A26;}
	.st19{fill:#37449C;}
	.st20{fill:#D4DE25;}
	.st21{fill:#CE962D;}
	.st22{fill:#FF0000;}
	.st23{fill:#0000FF;}
	.st24{fill:#FFFF00;}
	.st25{fill:#926C1A;}
	.st26{fill:#6A0D39;}
	.st27{fill:#946F5D;}
	.st28{fill:#949494;stroke:#000000;stroke-miterlimit:10;}
	.st29{fill:#4C4C4C;}
	.st30{fill:#606060;}
	.st31{fill:#4A4A4A;}
	.st32{fill:#C7C7C7;}
	.st33{fill:#9B9B9B;}
	.st34{fill:#6E6E6E;}
	.st35{fill:#2E2E2E;}
	.st36{fill:#787878;}
	.st37{fill:none;}
</style>
<path class="st0" d="M81.4,105.4H66.8c-2,0-3.6-1.6-3.6-3.6V83.6c0-2,1.6-3.6,3.6-3.6h14.6c2,0,3.6,1.6,3.6,3.6v18.2
	C85,103.8,83.4,105.4,81.4,105.4z"/>
<path class="st0" d="M98.1,47.3v32.4c0,10.8-10.3,19.6-23,19.6h-4c-12.7,0-23-8.8-23-19.6V47.3c0-8.9,8.5-16.2,19-16.2h12
	C89.6,31.1,98.1,38.3,98.1,47.3z"/>
<path class="st1" d="M67.8,58.1h-9c-1.1,0-2-0.9-2-2v-0.7c0-1.1,0.9-2,2-2h9c1.1,0,2,0.9,2,2v0.7C69.8,57.2,68.9,58.1,67.8,58.1z"/>
<path class="st1" d="M88.3,58.1h-9c-1.1,0-2-0.9-2-2v-0.7c0-1.1,0.9-2,2-2h9c1.1,0,2,0.9,2,2v0.7C90.3,57.2,89.4,58.1,88.3,58.1z"/>
<path class="st2" d="M48.1,67H45c-1.1,0-2-0.9-2-2v-4.6c0-1.1,0.9-2,2-2h3.1V67z"/>
<path class="st2" d="M101.3,67h-3.1v-8.6h3.1c1.1,0,2,0.9,2,2V65C103.3,66.1,102.4,67,101.3,67z"/>
<circle class="st3" cx="63.3" cy="61.3" r="2.1"/>
<circle class="st3" cx="84.4" cy="61.3" r="2.1"/>
<path class="st2" d="M74.6,75.5h-1.1c-1.1,0-2-0.9-2-2v-4.8c0-1.1,0.9-2,2-2h1.1c1.1,0,2,0.9,2,2v4.8C76.6,74.6,75.7,75.5,74.6,75.5
	z"/>
<path class="st4" d="M95.8,170.9H52.4c-3.5,0-6.4-2.9-6.4-6.4v-55.7c0-3.5,2.9-6.4,6.4-6.4h43.3c3.5,0,6.4,2.9,6.4,6.4v55.7
	C102.1,168.1,99.3,170.9,95.8,170.9z"/>
<path class="st5" d="M92.9,238.6H77.1v-68.7c0-3.3,2.7-6,6-6h3.8c3.3,0,6,2.7,6,6V238.6z"/>
<rect x="77.1" y="225.4" class="st6" width="15.8" height="15"/>
<path class="st5" d="M54,239.7h15.8v-69.9c0-3.3-2.7-6-6-6H60c-3.3,0-6,2.7-6,6V239.7z"/>
<rect x="54" y="226.5" transform="matrix(-1 -3.299106e-11 3.299106e-11 -1 123.6768 466.9325)" class="st6" width="15.8" height="14"/>
<rect x="45" y="163.2" class="st7" width="56" height="7.8"/>
<polygon class="st0" points="73.8,109.5 63.2,102.2 85,102.2 "/>
<path class="st5" d="M59.9,119h-6.2v-15.2c0-1.1,0.9-2,2-2h2.2c1.1,0,2,0.9,2,2V119z"/>
<path class="st5" d="M93.9,119H88v-15.2c0-1.1,0.9-2,2-2h1.9c1.1,0,2,0.9,2,2V119z"/>
<path class="st5" d="M102.1,163.9h-56V123c0-2.2,1.9-1.2,4.1-1.2l3.6-2.8h6.2l2.4,2.8h11h7.9L88,119h5.9l4.2,2.8c2.2,0,4-1,4,1.2
	V163.9z"/>
<path class="st0" d="M109.6,170.2h-1.5c-3.5,0-6.4-2.9-6.4-6.4v-13.7c0-3.5,2.9-6.4,6.4-6.4h1.5c3.5,0,6.4,2.9,6.4,6.4v13.7
	C115.9,167.4,113.1,170.2,109.6,170.2z"/>
<path class="st0" d="M39.7,171.2h-1c-3.5,0-6.4-2.9-6.4-6.4v-18c0-3.5,2.9-6.4,6.4-6.4h1c3.5,0,6.4,2.9,6.4,6.4v18
	C46.1,168.4,43.2,171.2,39.7,171.2z"/>
<path class="st8" d="M74.6,171.7h-1.8c-2.1,0-3.7-1.7-3.7-3.7v-1.8c0-2.1,1.7-3.7,3.7-3.7h1.8c2.1,0,3.7,1.7,3.7,3.7v1.8
	C78.3,170,76.7,171.7,74.6,171.7z"/>
<path class="st4" d="M46.3,105.8l-3.2-0.4c-3.7-0.5-7.7,6.2-8.8,15l-3.3,25.2l16.7,2.2l3.3-25.2C52.1,113.8,50,106.2,46.3,105.8z"/>
<path class="st4" d="M105.3,107.2l-3,0.4c-3.5,0.5-5.4,7.5-4.4,15.6l3.1,23.5l15.6-2.1l-3.1-23.5C112.4,113,108.7,106.7,105.3,107.2
	z"/>
<path class="st9" d="M55.3,230.6h13.1c1.7,0,3-1.3,3-3v-1.3c0-1.7-1.3-3-3-3H55.3c-1.7,0-3,1.3-3,3v1.3
	C52.3,229.2,53.6,230.6,55.3,230.6z"/>
<path class="st9" d="M91.5,230.6H78.4c-1.7,0-3-1.3-3-3v-1.3c0-1.7,1.3-3,3-3h13.1c1.7,0,3,1.3,3,3v1.3
	C94.5,229.2,93.2,230.6,91.5,230.6z"/>
<circle class="st10" cx="56.8" cy="123.6" r="2.9"/>
<circle class="st10" cx="90.9" cy="123.6" r="2.9"/>
<g>
	<g>
		<path class="st11" d="M61.1,31.8c1.3,0.7,2.7,1.4,4.2,0.9c1.3-0.4,2.3-1.7,2.2-3.1c-0.1-1.3-2.1-2.2-2.8-0.8
			c-0.8,1.7-0.2,4,1.8,4.5c2.1,0.6,3.9-1.1,4-3.1c0-1.2-1.3-1.8-2.3-1.3c-2.5,1.2-2.1,4.9,0.3,6c3.1,1.4,5.7-1.3,6.7-4.1
			c0.4-1.2-1.1-2.4-2.2-1.7c-2.1,1.3-1.9,4.4,0.2,5.6c2.6,1.4,5.1-0.5,6.8-2.4c0.7-0.7,0.5-1.8-0.3-2.4c-1.4-0.9-3.2,0-3.7,1.5
			c-0.6,1.8,0.8,3.2,2.1,4.2c0.5,0.4,1.4,0.2,1.8-0.2c1-1.2,1.7-2.4,2-3.9c0.3-1.3-1-2.4-2.2-1.7c-1.7,0.9-1.8,3.2-0.5,4.5
			c1.6,1.6,4.6,2,6.6,2.3c2.4,0.4,4.9,0.6,7.4,0.4c2-0.1,4.5-0.7,4-3.2c-0.2-1-1.4-1.3-2.2-0.9c-2.1,1-3.7,2.9-4.3,5.1
			c-0.3,1.2,1.1,2.5,2.2,1.7c1.4-1,2.2-2.5,2-4.2c-0.2-1.6-2.4-2.1-2.9-0.4c-0.7,2.1-0.8,4.2-0.4,6.3c0.3,1.2,1.7,1.3,2.5,0.7
			c0.8-0.7,1.4-1.6,1.7-2.6c-1-0.3-1.9-0.5-2.9-0.8c-0.4,1.7-0.8,3.7,0.5,5.1c1.1,1.2,2.6,1.5,4,0.8c-0.7-0.7-1.4-1.4-2.1-2.1
			c-1,1.9-2,3.8-3,5.7c-0.2,0.5-0.3,1.1,0,1.5c0.8,1.3,2.1,1.8,3.6,1.6c-0.6-0.6-1.2-1.2-1.8-1.8c-0.2,0.8-0.4,1.5-0.5,2.3
			c-0.4,1.6,1.9,2.7,2.7,1.2c0.2-0.3,0.4-0.7,0.6-1c-0.8,0.1-1.6,0.2-2.4,0.3c1.4,1.3,3.5,0.8,4.4-0.8c0.5-0.8,0.7-1.8,1-2.7
			c0.4-1.2,0.8-2.4,1.2-3.6c0.5-1.6-2-2.7-2.7-1.2c-0.3,0.6-0.6,1.1-0.9,1.7c0.9,0.5,1.7,1,2.6,1.5c0.9-2,1.4-4,1.4-6.2
			c0-0.9-1-1.8-1.9-1.4c-1.3,0.5-2.1,1.3-2.5,2.6c-0.5,1.6,1.9,2.7,2.7,1.2c0.5-0.9,0.8-1.9,0.7-3c-0.1-1.1-1.2-1.9-2.3-1.3
			c-1.3,0.7-1.8,2.1-1.4,3.4c0.4,1.4,2.6,1.5,2.9,0c0.3-1.7,0.5-4.3-0.6-5.8c-1.1-1.5-3.2-0.5-3.7,1c1,0.1,2,0.3,2.9,0.4
			c0.1-0.9,0.2-1.9,0.2-2.8c0.1-1.1-1-1.6-1.9-1.4c0.7,0.5,1,0.5,0.8,0.1c0-0.2,0-0.4,0-0.6c0.1-1.1-1.4-1.9-2.3-1.3
			c0.2,0.1,0.4,0.2,0.6,0.2c-0.1-0.5-0.6-0.9-1-1c-1.8-0.5-3.6-0.5-5.4,0.1c-1.8,0.6-1.1,3.3,0.8,2.9c2.4-0.6,3.2-4.2,1.1-5.6
			c-2.3-1.6-5.5,1.1-4.6,3.7c0.4,1.1,1.6,1.4,2.5,0.7c0.9-0.7,1.1-1.8,0.9-2.9c-0.1-0.5-0.6-1-1-1c-2.2-0.4-4,1-4.3,3.2
			c-0.2,1.7,2,1.8,2.8,0.8c1-1.2,0.1-3.2-1.4-3.4c-1.5-0.2-2.9,1.5-2.3,2.9c0.5,1.3,2.5,1.6,2.9,0c0.3-1.4,0.2-2.7-0.5-3.9
			c-0.3-0.6-1.1-0.8-1.7-0.7c-0.8,0.2-1.4,0.6-1.7,1.4c-0.7,1.5,1.1,3.1,2.4,1.8c0.7-0.7,0.9-1.8,0.5-2.7c-0.5-1.1-1.6-1.4-2.7-1.3
			c-2.3,0.1-4.2,1.7-4.9,3.8c-0.6,1.6,1.9,2.6,2.7,1.2c0.5-0.8,0.7-1.7,0.7-2.6c0-0.7-0.4-1.2-1.1-1.4c-2.3-0.7-4.8,0.3-6.1,2.4
			c-1,1.7,1.5,3.1,2.6,1.5c1.6-2.3-0.2-5.3-2.8-5.7c-3.2-0.4-5.3,2.3-6.7,4.8c0.8-0.1,1.6-0.2,2.4-0.3c-1.6-1.6-4-1.9-5.9-0.8
			c0.7,0.7,1.4,1.4,2.1,2.1c1-2.2,0.1-5.1-2.4-5.8c-2.6-0.8-5.3,1.6-5.1,4.3c0.2,1.5,2.6,2.2,2.9,0.4c0.1-0.5,0.2-1,0.3-1.5
			c0.2-1.2-1-2.5-2.2-1.7c-1.4,1-2.2,2.3-2.3,4c0.2-0.4,0.5-0.9,0.7-1.3c-1.1,0.6-1.7,1.6-1.8,2.9c0.2-0.4,0.5-0.9,0.7-1.3
			c-1.4,0.9-2.4,2.2-2.7,3.8c-0.2,1.3,1.5,2.7,2.5,1.5c1.3-1.6,1.1-4-0.8-5c-2.1-1.1-4.5,0.8-4.5,3c0,1,1,1.7,1.9,1.4
			c1.4-0.3,2.2-1.8,1.8-3.1c-0.3-0.8-1-1.2-1.8-1c-2,0.4-3.5,1.9-4.1,3.9c-0.4,1.4,1.5,2.6,2.5,1.5c1.2-1.3,1.1-2.9,0.1-4.2
			c-0.5-0.6-1.6-0.5-2.1,0c-1,1-1.3,2.4-0.9,3.7c0.2,0.7,1,1.3,1.8,1c2-0.6,3.1-2.1,3.4-4.1c0.1-1.1-1.4-1.9-2.3-1.3
			c-1.5,1-2.3,2.5-2.3,4.2c0,1.1,1.3,1.9,2.3,1.3c1.3-0.8,1.9-2.1,1.4-3.6c-0.3-1.1-1.7-1.5-2.5-0.7c-2.4,2.5-4.2,5.5-5.2,8.8
			c-0.3,1.1,0.8,2.2,1.8,1.8c1.7-0.5,2.6-1.7,2.8-3.4c0.2-1.3-1.8-2-2.6-1.1c-0.9,1.1-1.2,2.2-0.9,3.5c0.1,0.8,1.1,1.3,1.8,1
			c1.8-0.6,3.2-2.1,3.6-4c0.2-1.3-1.4-2.7-2.5-1.5c-0.9,1-1.1,2.1-1,3.4c0.2,1.1,1.8,1.4,2.5,0.7c1.3-1.4,2.3-3.1,2.7-5
			c0.4-1.5-1.4-2.4-2.5-1.5c-1,0.8-1.3,2.1-1,3.3c0.3,1.1,1.7,1.4,2.5,0.7c0.9-0.7,1.6-1.5,2.3-2.4c0.7-0.9,1.5-1.7,2.2-2.6
			c1.3-1.8,2-3.8,2.2-6c0.1-1.1-1.4-1.9-2.3-1.3c-1.5,1.1-2.5,2.5-3.1,4.3c-0.3,0.8,0.3,1.7,1,1.8c3.3,0.8,6.7-1.2,7.5-4.5
			c0.4-1.6-1.9-2.7-2.7-1.2c-0.7,1.5-0.9,2.9-0.6,4.6c0.2,0.8,1.1,1.2,1.8,1c2.3-0.6,4.1-2.4,4.4-4.8c0.1-0.9-0.4-1.9-1.4-1.9
			c-4,0.1-6.6,5-3.7,8.1c3.2,3.4,7.8,0.8,9.4-2.8c0.8-1.9,0.6-4.1-1-5.5c-1.4-1.2-3.4-1.1-4.7,0.2c-1.1,1.2-1.3,3.1-0.7,4.6
			c0.7,1.8,2.6,2.8,4.5,3.2c4.2,0.7,9.4-0.3,12.2-3.7c0.7-0.9,0.4-2.6-1.1-2.6c-2.1,0.1-4.1,0.8-5.7,2.2c-1.4,1.3-1.9,3.3-0.3,4.7
			c1.5,1.3,4.2,1.7,6.1,1.8c2,0.1,4-0.4,5.5-1.8c1.2-1.2,1.9-3.2,1-4.8c-1-1.8-3.3-1.4-4.8-0.6c-2.7,1.5-5.7,7.4-1.3,8.8
			c2,0.6,4.4-0.1,6.2-0.8c2.2-0.9,4.1-2.2,5.7-4c1.1-1.2,0-2.8-1.5-2.5c-3.4,0.6-3.3,6.3,0.3,6.5c1.7,0.1,3.2-1.2,3.5-2.9
			c0.4-1.8-1-3.9-3-3.5c-1.8,0.4-2.9,2.3-2.9,4c0,1.9,1,3.6,2.7,4.4c3.2,1.7,9.3,0,8.2-4.5c-0.2-1-1.4-1.3-2.2-0.9
			c-1.7,0.8-2.9,2.4-3.2,4.2c-0.1,0.7,0.1,1.3,0.7,1.7c1.8,1.4,4.2,0.1,5.4-1.5c1.5-1.9,2.3-4.4,2.4-6.8c0.1-2.1-0.4-4.7-3.1-4.3
			c-2.3,0.3-4.6,1.7-6.1,3.4c0.8,0.5,1.7,1,2.5,1.5c0.8-2.8,0.1-5.7-1.8-7.9c-0.6-0.7-1.9-0.5-2.4,0.3c-0.3,0.6-0.6,1.1-0.9,1.7
			c-0.1,0.3-0.3,0.6-0.4,0.9c-0.3,0.7,0-0.1,0.1,0c-0.6-0.5-2.2-0.3-2.9-0.1c-1.8,0.5-3.3,2-3.6,3.9c1,0.1,2,0.3,2.9,0.4
			c0.1-2.3-1.5-4.4-3.8-4.7c-2.3-0.3-4.4,1.4-4.9,3.6c1,0.1,2,0.3,2.9,0.4c0.2-2.2-0.2-5.3-2.7-6.1c-3-0.9-6.2,2.2-7.8,4.4
			c0.9,0.4,1.8,0.8,2.7,1.2c0.6-2.4-1.2-4.7-3.5-5.2c-2.8-0.6-5.2,1.1-7.2,2.9c0.7,0,1.4,0,2.1,0c-2.3-2.7-6.8-2.1-8.7,0.8
			c0.7-0.2,1.4-0.4,2.1-0.5c-3.2-2.1-6.1,0.9-7.7,3.5c0.9,0.3,1.9,0.5,2.8,0.8c0-0.9,0.1-1.8,0.1-2.8c0-0.8-0.7-1.6-1.5-1.5
			c0,0-0.1,0-0.1,0c-0.5,0-1.1,0.2-1.3,0.7c-0.7,1.5,0.6,3.5,2.4,2.5c1.6-0.9,1.2-3.4,0.7-4.8c-0.3-1-1.7-1.5-2.5-0.7
			c-1.7,1.7-1,4.3,0.9,5.6c2.5,1.7,5.4,0,7.4-1.6c-0.7,0-1.4,0-2.1,0c2.1,2.5,5.1,4,8.4,4.2c1.9,0.1,1.9-2.9,0-3
			c-2.5-0.2-4.7-1.4-6.3-3.3c-0.6-0.7-1.5-0.5-2.1,0c-0.8,0.6-2.3,1.8-3.4,1.3c-0.4-0.2-1-0.8-0.7-1.1c-0.8-0.2-1.7-0.4-2.5-0.7
			c0.1,0.4,0.2,0.8,0.3,1.2c0,0.1,0,0.3,0,0.4c-0.1,0.4,0,0.4,0.2-0.1c0.4-0.1,0.8-0.1,1.2-0.2c-0.1,0-0.1,0-0.2,0
			c0.3,0.2,0.6,0.5,0.9,0.7c0,0.3,0,0.7-0.1,1c-0.4,0.2-0.9,0.5-1.3,0.7c0,0,0.1,0,0.1,0c-0.5-0.5-1-1-1.5-1.5
			c0,0.9-0.1,1.8-0.1,2.8c-0.1,1.5,2,2,2.8,0.8c0.7-1.1,2-3.4,3.6-2.4c0.7,0.5,1.6,0.1,2.1-0.5c0.9-1.4,2.9-1.4,3.9-0.2
			c0.6,0.6,1.5,0.5,2.1,0c1-0.9,2.2-2,3.6-2.1c0.8-0.1,2.3,0.5,2.1,1.6c-0.4,1.7,1.8,2.5,2.7,1.2c0.6-0.8,1.2-1.5,2-2
			c0.5-0.3,1.7-1.3,2.3-1c0.9,0.5,0.6,2.5,0.6,3.2c-0.2,1.7,2.6,2.1,2.9,0.4c0.4-2,2.9-1.8,2.8,0.3c-0.1,1.7,2.7,2.1,2.9,0.4
			c0.1-0.8,0.5-1.5,1.3-1.8c0.8-0.3,1.4,0.2,2.2,0.2c2.3,0.2,3-2.4,3.9-4.1c-0.8,0.1-1.6,0.2-2.4,0.3c1.2,1.4,1.5,3.3,1,5
			c-0.4,1.4,1.5,2.6,2.5,1.5c0.8-0.9,1.8-1.7,3-2.1c0.3-0.1,0.6-0.2,0.9-0.3c0.4-0.2,0.4,0,0.2-0.2c0.2,0.4,0.1,1.5,0,1.9
			c-0.1,1.2-0.5,2.4-1.1,3.5c-0.3,0.6-1.3,2.4-2.2,1.7c0.2,0.6,0.5,1.1,0.7,1.7c0.2-1.2,0.7-1.9,1.8-2.4c-0.7-0.3-1.5-0.6-2.2-0.9
			c0.4,1.7-5.3,2.3-5-0.8c0-0.2,0.1-0.4,0.2-0.6c0-0.1,0.1-0.2,0.2-0.3c0.2-0.2,0.1-0.3-0.4-0.3c0,0-0.1,0.6-0.3,0.7
			c0,0,0,0.1,0,0.1c-0.1,0-0.1-0.3-0.1-0.3c0-0.4,0.1-0.4,0.3-0.4c-0.5-0.8-1-1.7-1.5-2.5c-1.8,2-4.1,3.4-6.7,3.9
			c-0.5,0.1-1.2,0.3-1.7,0.2c-0.5-0.1-0.5-0.2-0.4-0.8c0.2-1.2,1-2.3,2.1-2.8c0.1-0.1,0.8-0.2,0.6-0.3c-0.1-0.1,0-0.2-0.1,0.2
			c-0.1,0.5-0.5,0.9-0.9,1.2c-1.2,0.8-2.7,0.7-4,0.5c-0.7-0.1-1.5-0.3-2.2-0.5c-0.2-0.1-0.6-0.2-0.8-0.3c-0.2-0.2-0.1,0.1,0.1-0.1
			c0.9-1.1,2.4-1.6,3.8-1.6c-0.4-0.9-0.7-1.7-1.1-2.6c-1.7,2.1-4.2,2.9-6.9,3c-1.3,0.1-6.2-0.1-4.8-2.6c0.6-1,1.2,0.7,1,1.3
			c-0.3,1.2-1.5,2.8-2.6,3.1c-1,0.3-2.2-0.4-2.4-1.4c-0.3-1.2,0.9-2.2,2-2.2c-0.5-0.6-1-1.3-1.4-1.9c-0.2,1.4-1,2.3-2.3,2.7
			c0.6,0.3,1.2,0.7,1.8,1c-0.2-0.8-0.1-1.5,0.3-2.2c-0.9-0.4-1.8-0.8-2.7-1.2c-0.4,1.7-2.1,2.8-3.8,2.4c0.3,0.6,0.7,1.2,1,1.8
			c0.3-1,0.9-1.8,1.8-2.5c-0.8-0.4-1.5-0.9-2.3-1.3c-0.2,1.8-0.9,3.5-2,4.8c-1.2,1.4-2.4,2.9-3.8,4.1c0.8,0.2,1.7,0.4,2.5,0.7
			c-0.1-0.3-0.1-0.2,0.2-0.4c-0.8-0.5-1.7-1-2.5-1.5c-0.3,1.4-1,2.6-2,3.6c0.8,0.2,1.7,0.4,2.5,0.7c0-0.2,0.1-0.4,0.2-0.5
			c-0.8-0.5-1.7-1-2.5-1.5c-0.2,0.9-0.6,1.6-1.5,1.9c0.6,0.3,1.2,0.7,1.8,1c-0.1-0.2,0-0.4,0.1-0.6c-0.9-0.4-1.7-0.7-2.6-1.1
			c0,0.3-0.3,0.5-0.6,0.5c0.6,0.6,1.2,1.2,1.8,1.8c0.8-2.8,2.3-5.3,4.4-7.5c-0.8-0.2-1.7-0.4-2.5-0.7c0.1,0.1,0.1,0.2-0.1,0.2
			c0.8,0.4,1.5,0.9,2.3,1.3c0-0.7,0.2-1.3,0.8-1.6c-0.8-0.4-1.5-0.9-2.3-1.3c-0.1,0.6-0.6,1.1-1.2,1.2c0.6,0.3,1.2,0.7,1.8,1
			c-0.1-0.4-0.2-0.5,0.1-0.8c-0.7,0-1.4,0-2.1,0c0,0-0.1,0-0.1,0c0.8,0.5,1.7,1,2.5,1.5c0.3-1,1-1.6,2-1.8c-0.6-0.3-1.2-0.7-1.8-1
			c0.1-0.2,0.2-0.4,0.3-0.6c0.6,0.5,1.3,1,1.9,1.4c0-0.5,0.3-0.2,0.2-0.1c0.8,0.5,1.7,1,2.5,1.5c0.1-0.7,0.3-1.3,0.9-1.7
			c0.2-0.2,0.5-0.3,0.7-0.5c0.4-0.4,0.2-0.7,0.4-1.1c0.2-0.4,0.8-0.6,1-1.2c0.2-0.8,0.1-1.3,0.8-1.8c-0.7-0.6-1.5-1.1-2.2-1.7
			c-0.1,0.5-0.2,1-0.3,1.5c1,0.1,2,0.3,2.9,0.4c-0.2-2.1,2.5-1.4,1.8,0c-0.6,1.3,0.7,2.9,2.1,2.1c0.8-0.5,1.7-0.4,2.3,0.3
			c0.7,0.7,1.9,0.5,2.4-0.3c0.6-1.1,1.3-2.6,2.6-3.1c0.7-0.3,2.5-0.1,1.7,1c0.9,0.5,1.7,1,2.6,1.5c0.6-1,1.6-1.3,2.7-1
			c-0.4-0.5-0.7-1-1.1-1.4c0,0.5,0,0.7-0.3,1.1c0.9,0.4,1.8,0.8,2.7,1.2c0.2-0.5,0.5-1,1-1.3c0.2-0.1,0.5-0.2,0.7-0.3
			c0.1,0,0.2,0,0.3,0c0.6,0.1,0.7-0.3,0.1-1.1c0.8,0.6,1.6,1.2,2.4,1.8c0,0,0,0,0,0c-0.6-0.2-1.1-0.5-1.7-0.7c0.3,0.6,0.4,1,0.2,1.6
			c1,0,1.9,0,2.9,0c-0.6-0.1-1.2-0.2-1.8-0.2c0.9,0.3,1.9,0.5,2.8,0.8c0-0.2,0.3-0.3,0.5-0.3c-0.3-0.3-0.7-0.7-1-1c0,0-0.1,0-0.1,0
			c0.8,0.2,1.7,0.4,2.5,0.7c-0.1-0.2,0.3-0.6,0-0.5c-0.1,0,0,0.3-0.1,0.3c0.3,1,0.5,1.9,0.8,2.9c1.3-0.4,2.5-0.5,3.8-0.1
			c-0.3-0.3-0.7-0.7-1-1c0.3,1.7,2.4,2.5,3.8,1.5c-0.8-0.4-1.5-0.9-2.3-1.3c-0.2,1.9,0.9,3.7,2.9,3.4c-0.6-0.5-1.3-1-1.9-1.4
			c-0.1,0.9-0.2,1.9-0.2,2.8c-0.1,1.8,2.4,1.9,2.9,0.4c-0.4,0.1-0.7,0.3-1.1,0.4c-0.2-0.3-0.5-0.6-0.7-0.9c0.4,1.2,0.5,2.4,0.3,3.7
			c1,0,1.9,0,2.9,0c-0.1,0-0.1,0,0.1-0.1c-0.8-0.4-1.5-0.9-2.3-1.3c0.1,0.6,0,1-0.3,1.5c0.9,0.4,1.8,0.8,2.7,1.2
			c0.1-0.2,0.1-0.4,0.4-0.5c-0.6-0.5-1.3-1-1.9-1.4c0,1.6-0.3,3.2-1,4.7c-0.8,1.7,1.7,3.2,2.6,1.5c0.3-0.6,0.6-1.1,0.9-1.7
			c-0.9-0.4-1.8-0.8-2.7-1.2c-0.4,1.1-0.8,2.3-1.2,3.4c-0.2,0.5-0.3,1.1-0.5,1.6c-0.1,0.2-0.2,0.5-0.3,0.7c-0.1,0.2,0,0.2,0.3,0.2
			c-0.7-0.7-1.9-0.6-2.4,0.3c-0.2,0.3-0.4,0.7-0.6,1c0.9,0.4,1.8,0.8,2.7,1.2c0.2-0.8,0.4-1.5,0.5-2.3c0.3-1.2-0.7-2-1.8-1.8
			c-0.1,0-0.2-0.1-0.2-0.2c0,0.5,0,1,0,1.5c1-1.9,2-3.8,3-5.7c0.7-1.4-0.7-2.7-2.1-2.1c-0.6,0.3-0.1-2.4-0.1-2.5
			c0.5-1.9-2.3-2.6-2.9-0.8c-0.2,0.6-0.5,0.9-0.9,1.2c0.8,0.2,1.7,0.4,2.5,0.7c-0.3-1.6-0.2-3.2,0.4-4.7c-1-0.1-2-0.3-2.9-0.4
			c0.1,0.6,0,1.2-0.5,1.6c0.7,0.6,1.5,1.1,2.2,1.7c0.5-1.5,1.5-2.6,2.9-3.3c-0.7-0.3-1.5-0.6-2.2-0.9c0.1-0.3,0.2-0.5,0.2-0.8
			c-0.1,0-0.2,0.1-0.3,0.1c-0.2-0.1-0.6,0.1-0.9,0.1c-0.6,0-1.2,0.1-1.9,0.1c-1.3,0-2.7-0.1-4-0.2c-1.2-0.2-2.5-0.4-3.7-0.7
			c-0.6-0.2-1.2-0.3-1.7-0.5c-0.2-0.1-0.4-0.2-0.7-0.3c-0.4-0.2,0-0.1-0.3,0.1c-0.7-0.6-1.5-1.1-2.2-1.7c-0.2,1-0.6,1.8-1.2,2.6
			c0.6-0.1,1.2-0.2,1.8-0.2c-0.2-0.2-0.4-0.5-0.7-0.6c-0.4-0.2-0.1,0.6-0.8,0.1c-0.1-0.8-0.2-1.6-0.3-2.4c-0.6,0.7-1.3,1.6-2.2,1.9
			c-0.3,0.1-1.5-0.1-1.1-0.4c-0.7-0.6-1.5-1.1-2.2-1.7c-0.3,0.9-0.9,2.2-2,2.2c-0.5,0-1.2-0.4-0.5-0.8c-0.8-0.4-1.5-0.9-2.3-1.3
			c0,0.3-0.3,0.3-0.2,0.1c-0.9-0.3-1.9-0.5-2.8-0.8c0.1,0.7-1.7-0.3-1.9-0.4C61,28.2,59.5,30.8,61.1,31.8L61.1,31.8z"/>
	</g>
</g>
<g>
	<g>
		<path class="st11" d="M83.7,33.2c2.6,2.2,5.5,3.7,8.7,4.6c-0.3-0.2-0.6-0.5-0.9-0.7c-0.1-0.3-0.4,1.1-0.4,1.4
			c0,0.6,0.2,1.2,0.6,1.7c0.9,1,2.2,0.8,3.1-0.1c1.1-1.2,1.9-2.6,2.8-3.9c1-1.4,2-2.9,3.1-4.3c-0.9-0.3-1.9-0.5-2.8-0.8
			c-0.1,2-1,3.7-2.6,5c0.8,0.1,1.6,0.2,2.4,0.3c-0.8-1.3,0-3.1-0.2-4.5c-0.2-1.4-0.7-2.8-2-3.4c-3-1.6-5.2,1.8-6,4.3
			c0.8-0.2,1.7-0.4,2.5-0.7c-1.7-1.4-3.6-2.4-5.8-2.9c0.3,0.6,0.7,1.2,1,1.8c0.6-1.5-0.5-3.2-2-3.6c-1.7-0.5-3.2,0.6-4.4,1.7
			c-1.3,1.2,0.4,3.1,1.8,2.4c1.8-1,2.2-3.6,0.6-5c-1.7-1.4-4-0.4-4.8,1.5c-0.5,1.2,1.2,2.5,2.2,1.7c1.1-0.9,1.7-1.9,1.8-3.3
			c0-1-1-1.6-1.9-1.4c-1.5,0.3-2.4,1.5-2.4,3c0.8-0.4,1.5-0.9,2.3-1.3c-2.9-1.8-6.7,0.5-6.8,3.8c0.9-0.3,1.9-0.5,2.8-0.8
			c-2.1-3.1-7-2.5-8.4,1c-0.6,1.6,1.9,2.6,2.7,1.2c1-1.8,0.6-4.3-1.3-5.4c-1.9-1.1-4.2-0.3-5.3,1.5c0.8-0.1,1.6-0.2,2.4-0.3
			c-1.4-1.2-3.3-1.5-4.9-0.5c0.7,0.3,1.5,0.6,2.2,0.9c-0.7-2-2.7-2.5-4.6-1.8c-0.9,0.4-1.6,1-2.2,1.8c-0.6,0.9-1,2.1-1.8,2.7
			c0.7,0.6,1.5,1.1,2.2,1.7c0.1-0.7,0.2-1.5,0.3-2.2c0.1-1-0.4-1.8-1.4-1.9c-0.9-0.1-1.7,0.3-2.4,0.9c0.8,0.6,1.6,1.2,2.4,1.8
			c0.9-1.2,1.1-2.8,0.6-4.2c-0.4-1.1-1.6-1.4-2.5-0.7c-1.1,0.9-1.8,2-2.3,3.3c-0.2,0.5,0,1.1,0.4,1.5c1.7,1.5,3.9,1.6,6,0.7
			c2.2-0.9,3.6-2.9,5.8-3.8c-0.6-0.2-1.1-0.5-1.7-0.7c0.8,1.3,2.3,1.9,3.8,1.7c1.7-0.3,2.9-1.5,3.9-2.8c-0.8-0.5-1.7-1-2.5-1.5
			c-1,4.6-5.1,5.6-9,6.8c-3.4,1-7.1,3-7.9,6.8c0.6-0.3,1.2-0.7,1.8-1c-2.6-0.5-5-0.2-7.4,0.9c-0.7,0.3-0.9,1.4-0.5,2.1
			c0.7,1.1,1.7,1.7,3,1.7c-0.4-0.9-0.7-1.7-1.1-2.6c-1,1.1-1.9,2.4-1.8,3.9c0.1,1.4,1,2.5,2.3,3c-0.2-0.8-0.4-1.7-0.7-2.5
			c-1,1-1.5,2.1-1.6,3.5c-0.1,0.5,0.3,1,0.7,1.3c0.9,0.6,1.9,0.7,3,0.4C48,48,47.7,47,47.5,46c-0.9,0.3-1.9,0.8-2.3,1.8
			c-0.3,0.9-0.1,1.9,0.7,2.5c1.5,1,3.5-0.2,3.2-2c-0.2-1-1.4-1.4-2.2-0.9c-1.9,1.2-3,3.7-2.1,5.9c0.9,2,4.3,1.3,4.1-0.9
			c-0.1-0.8-0.6-1.5-1.5-1.5c-0.7,0-1.4,0.1-1.9,0.6c0.6,0.8,1.2,1.6,1.8,2.4c2.2-2.6,3.8-5.6,4.4-8.9c0.2-1.2-1-2.4-2.2-1.7
			c-0.8,0.5-1.4,1.2-1.6,2.2c-0.4,1.7,1.8,2.5,2.7,1.2c1.3-1.8,2-3.8,2.3-6c0.2-1.8-2.4-1.8-2.9-0.4c-0.5,1.2-0.6,2.5-0.3,3.8
			c0.2,0.9,1.5,1.4,2.2,0.9c2.3-1.6,3.9-3.8,4.8-6.4c0.5-1.7-1.9-2.6-2.7-1.2c-0.6,0.9-0.7,2-0.4,3c0.4,1.1,1.6,1.4,2.5,0.7
			c1.3-1,2.2-2.4,2.7-3.9c0.4-1.1-0.8-2.1-1.8-1.8c-1.6,0.4-1.9,2.7-0.4,3.5c1.8,1,3.9-1.3,5.1-2.3c1.5-1.2,0.3-3.4-1.5-2.6
			c-3.7,1.7-7.2,3.9-10.3,6.6c-2.8,2.4-6,5.4-6.9,9.1c-0.4,1.6-0.3,3.7,1.5,4.4c1.9,0.8,3.5-0.9,4.6-2.2c3.1-3.6,6.2-7.2,9.3-10.7
			c-0.8-0.2-1.7-0.4-2.5-0.7c0.3,1.9,2.6,1.9,3.9,1.2c1-0.5,1.8-1.4,2.6-2.2c1-0.9,2-1.7,2.9-2.6c-0.6,0.1-1.2,0.2-1.8,0.2
			c1.9,0.9,3.8,0.9,5.6-0.2c-0.7-0.3-1.5-0.6-2.2-0.9c0.2,0.7,0.4,1.4,0.6,2.1c0.2,0.8,1,1.2,1.8,1c3.6-0.6,7.3-0.6,10.9,0
			c-0.3-0.7-0.6-1.5-0.9-2.2c-0.9,1.8-0.1,3.9,1.8,4.7c2,0.9,4.5,0.2,6.6,0c0.6-0.1,1.3-0.1,1.9-0.2c0.4,0,1.2-0.3,1.6-0.1
			c0.7,0.3,1.4,1.6,1.8,2.2c1.2,1.5,2.8,3.4,4.9,2.2c-0.7-0.6-1.5-1.1-2.2-1.7c-0.3,1.4-0.6,2.8-1,4.3c-0.3,1.4,1.5,2.7,2.5,1.5
			c-0.2,0-0.3-0.1-0.5-0.1c0.6,0.5,1.5,0.6,2.1,0c1.3-1.3,2.3-2.9,3.1-4.6c0.5-1.1-0.1-2.1-1.3-2.3c-3.9-0.4-5.3,4.9-2,6.7
			c0.9,0.5,2.4-0.1,2.3-1.3c-0.3-3,0.8-6.1,3.3-7.9c0.9-0.7,1.1-2,0-2.6c-0.3-0.2-0.5-0.5-0.3-0.8c0.6-1.2-0.7-3-2.1-2.1
			c-1.9,1.4-3.6,3-5.2,4.8c0.8,0.2,1.7,0.4,2.5,0.7c-0.3-0.8-0.4-1.4-0.2-2.2c0.3-1.4-1.4-2.6-2.5-1.5c-0.7,0.7-1.4,1.5-2.3,1.8
			C93,38.7,92,38.3,91.1,38c-1.9-0.6-3.7-1.1-5.6-0.2c0.7,0.7,1.4,1.4,2.1,2.1c0.5-1.1,1.4-1.6,2.6-1.6c1.5,0,2-2.1,0.8-2.8
			c-9-5.2-19.6-7-29.8-5.4c-2.5,0.4-5.1,1-7.5,1.9c-2.2,0.8-5,1.4-5.3,4.1c-0.1,1.2-1.2,2-2,2.9c-1,1-2.1,2-2.8,3.3
			c-1,2.1,0,5,2.6,5c1.5,0,2.6-1.1,3.6-2c1.2-1.2,2.4-2.3,3.5-3.5c2.6-2.5,5.2-5.1,7.8-7.6c1.4-1.4-0.7-3.5-2.1-2.1
			c-3.7,3.6-7.4,7.3-11.1,10.9c-0.3,0.3-0.7,0.7-1.1,1c0,0-0.5,0.4-0.6,0.3c0.2,0.1,0-0.1,0-0.2c-0.1-0.9,1.5-2.1,2-2.6
			c0.7-0.8,1.5-1.6,2.2-2.4c0.3-0.4,0.6-0.8,0.8-1.3c0.2-0.5,0-1.3,0.2-1.7c0.1-0.2,0.8-0.3,1-0.4c0.4-0.2,0.9-0.4,1.3-0.5
			c1.1-0.4,2.2-0.8,3.3-1.1c2-0.6,4.1-1,6.2-1.3c4.2-0.5,8.6-0.4,12.8,0.3c4.8,0.9,9.3,2.5,13.5,4.9c0.3-0.9,0.5-1.9,0.8-2.8
			c-2.2,0-4.2,1.1-5.2,3.1c-0.7,1.4,0.7,2.7,2.1,2.1c0.8-0.4,1.8,0,2.6,0.3c1,0.3,2.1,0.7,3.2,0.8c2.3,0.2,4.1-1.2,5.6-2.8
			c-0.8-0.5-1.7-1-2.5-1.5c-0.3,1.3-0.2,2.6,0.2,3.8c0.3,1,1.7,1.6,2.5,0.7c1.4-1.6,2.9-3.1,4.6-4.3c-0.7-0.7-1.4-1.4-2.1-2.1
			c-0.8,1.8-0.3,3.9,1.4,4.9c0-0.9,0-1.7,0-2.6c-3.3,2.5-5.2,6.4-4.7,10.5c0.8-0.4,1.5-0.9,2.3-1.3c-0.9-0.5-0.4-1.2,0.4-1.1
			c-0.4-0.8-0.9-1.5-1.3-2.3c-0.7,1.5-1.5,2.8-2.6,3.9c0.7,0,1.4,0,2.1,0c-1.1-1-2.7-1.1-3.7,0.1c0.8,0.5,1.7,1,2.5,1.5
			c0.3-1.4,0.6-2.8,1-4.3c0.3-1.2-1-2.4-2.2-1.7c0.3,0.1,0.4,0,0.2-0.1c-0.1-0.1-0.3-0.2-0.4-0.3c-0.2-0.2-0.4-0.5-0.6-0.8
			c-0.5-0.6-1-1.3-1.5-1.9c-0.9-1.1-1.9-1.7-3.3-1.6c-1.6,0.1-3.2,0.3-4.9,0.4c-0.3,0-4.4,0.4-4-0.4c0.4-0.8,0.1-2-0.9-2.2
			c-4.2-0.8-8.3-0.8-12.5,0c0.6,0.3,1.2,0.7,1.8,1c-0.2-0.7-0.4-1.4-0.6-2.1c-0.3-0.9-1.4-1.4-2.2-0.9c-0.8,0.5-1.7,0.6-2.6,0.2
			c-0.6-0.3-1.3-0.2-1.8,0.2c-1,0.9-2.1,1.8-3.1,2.8c-0.5,0.4-0.9,0.9-1.4,1.3c-0.1,0.1-0.4,0.2-0.4,0.3c0,0-0.1,0-0.1,0
			c-0.3,0.1-0.1,0.3,0.7,0.5c-0.2-1.1-1.8-1.5-2.5-0.7c-2.4,2.8-4.8,5.6-7.2,8.3c-0.6,0.7-1.2,1.4-1.8,2c-0.3,0.4-0.6,0.8-1,1.1
			c-0.2,0.2-0.8,0.5-0.9,0.8c0.1,0.1,0.2,0.2,0.4,0.2c0-0.1-0.1-0.3,0-0.4c0.1-0.3,0.1-0.6,0.2-0.9c0.2-0.8,0.6-1.5,1-2.2
			c1.6-2.5,4.1-4.7,6.4-6.5c2.6-2,5.4-3.7,8.4-5.1c-0.5-0.9-1-1.7-1.5-2.6c-0.5,0.4-1,0.7-1.5,1.1c-0.3,0.2-1,1-1.4,1
			c0.4,0.1,0.7,0.3,1.1,0.4c0,0.4,0.1,0.7,0.1,1.1c-0.3,0.2-0.6,0.5-0.9,0.7c0.1,0,0.1,0,0.2,0c-0.6-0.6-1.2-1.2-1.8-1.8
			c-0.4,1.1-1,1.9-1.9,2.6c0.8,0.2,1.7,0.4,2.5,0.7c-0.1-0.4-0.1-0.4,0.1-0.7c-0.9-0.4-1.8-0.8-2.7-1.2c-0.6,1.9-1.8,3.5-3.4,4.6
			c0.7,0.3,1.5,0.6,2.2,0.9c-0.1-0.8,0-1.4,0.3-2.2c-1-0.1-2-0.3-2.9-0.4c-0.2,1.7-0.8,3.2-1.8,4.5c0.9,0.4,1.8,0.8,2.7,1.2
			c0-0.2,0.1-0.3,0.2-0.4c-0.7-0.6-1.5-1.1-2.2-1.7c-0.5,2.8-1.7,5.4-3.6,7.6c-1,1.2,0.4,3.4,1.8,2.4c0.1-0.2,0.3-0.2,0.4-0.2
			c-0.5-0.5-1-1-1.5-1.5c0.3-0.9,0.8-1.1,1.2-0.6c0.4,0.4,0.5,0.4,0.3,0c0.1-0.2,0-0.4,0-0.6c0.1-0.5,0.4-1,0.9-1.2
			c-0.7-0.3-1.5-0.6-2.2-0.9c0.5-1.6,1-1.9,1.4-0.8c0.1,0.6,0.3,0.8,0.7,0.5c1.8-0.6,1.1-3.4-0.8-2.9c-0.2,0.1-0.4,0.1-0.6-0.1
			c0.2,0.4,0.5,0.9,0.7,1.3c0.1-0.6,0.4-1,0.8-1.4c0.9-0.8,0.4-2.2-0.7-2.5c-0.6-0.2,0.7-1.7,0.8-1.9c0.8-1,0.3-2.5-1.1-2.6
			c-0.2,0-0.3-0.1-0.4-0.2c-0.2,0.7-0.4,1.4-0.5,2.1c1.6-0.7,3.4-0.9,5.1-0.6c0.8,0.2,1.7-0.2,1.8-1c0.8-3.9,5.7-4.6,8.9-5.7
			c3.9-1.3,7.1-3.8,8-8c0.3-1.3-1.5-2.7-2.5-1.5c-0.4,0.5-2.2,2.9-3,1.7c-0.3-0.5-1.1-0.9-1.7-0.7c-1.7,0.7-3,1.9-4.6,3
			c-1.1,0.8-3,1.9-4.3,0.9c0.1,0.5,0.3,1,0.4,1.5c0.3-0.8,0.9-1.4,1.6-2c-0.8-0.2-1.7-0.4-2.5-0.7c0.3,0.7,0.2,1.2-0.3,1.9
			c-1,1.4,1.2,2.9,2.4,1.8c0-0.1,0.1-0.2,0.3,0c-0.5-0.6-1-1.3-1.4-1.9c-0.1,0.7-0.2,1.5-0.3,2.2c-0.2,1.1,1,2.6,2.2,1.7
			c1.1-0.9,1.8-2,2.5-3.2c0.3-0.4,0.5-0.9,1.1-1.1c0.2-0.1,0.4-0.1,0.6-0.1c0.2,0,0.1,0.2,0-0.1c0.3,0.9,1.3,1.4,2.2,0.9
			c0.4-0.2,0.9-0.3,1.3,0c0.7,0.6,1.8,0.6,2.4-0.3c0.6-1.1,2-0.2,1.4,0.8c0.9,0.4,1.8,0.8,2.7,1.2c0.4-1,2.3-1.1,2.9-0.3
			c0.8,1.2,2.8,0.8,2.8-0.8c0-1.1,1.4-1.7,2.3-1.2c1,0.6,2.2-0.2,2.3-1.3c0-0.1,0-0.1,0.2-0.1c-0.6-0.5-1.3-1-1.9-1.4
			c0,0.2-0.1,0.5-0.3,0.7c0.7,0.6,1.5,1.1,2.2,1.7c0,0.1,0.1,0.2,0,0c0,0-0.1,0-0.2,0.1c0.6,0.8,1.2,1.6,1.8,2.4
			c0.3-0.3,0.6-0.6,1-0.8c0.1-0.1,0.3-0.1,0.4-0.2c0.1,0.1,0.1,0.1,0,0c-0.3,0.7,0.3,1.7,1,1.8c1.7,0.4,3.2,1,4.5,2.1
			c0.9,0.7,2.1,0.5,2.5-0.7c0.3-0.9,1.8-3.9,2.2-1.5c0.1,0.9-0.1,1.9-0.2,2.8c0,1.1,0.2,2.1,0.7,3c0.5,0.9,1.6,0.9,2.4,0.3
			c2.2-1.8,3.3-4.4,3.5-7.1c0.1-1.6-2-1.9-2.8-0.8c-1.2,1.7-2.4,3.4-3.6,5.1c-0.3,0.4-0.6,0.8-0.8,1.2c-0.1,0.2-0.8,0.9-0.8,1.2
			c0.8,1,1.3,1.1,1.4,0.3c0-0.1,0.1-0.2,0.1-0.4c0.1-0.4,0.2-0.9,0.1-1.3c-0.3-1.8-2.5-1.9-4-2.5c-1.7-0.7-3.2-1.7-4.6-2.9
			C84.4,29.8,82.2,31.9,83.7,33.2L83.7,33.2z"/>
	</g>
</g>
<path class="st5" d="M115,149.5l-12.3,1.6c-0.6,0.1-1.1-0.3-1.2-0.9l-0.5-3.5l15.6-2.1l0.3,2.3C117.1,148.2,116.2,149.4,115,149.5z"
	/>
<circle class="st0" cx="108.4" cy="167.8" r="9.4"/>
<path class="st5" d="M32.6,150.3l13.4,1.8c0.6,0.1,1.1-0.3,1.2-0.9l0.5-3.5l-16.7-2.2l-0.3,2.3C30.5,149.1,31.3,150.2,32.6,150.3z"
	/>
<circle class="st0" cx="39" cy="167.9" r="9.4"/>
<path class="st12" d="M85.2,154.5H63.6c-1.7,0-3-1.4-3-3v-14.1c0-1.6,1.3-3,3-3h21.6c1.7,0,3,1.4,3,3v14.1
	C88.2,153.1,86.9,154.5,85.2,154.5z"/>
<line class="st12" x1="61.5" y1="135.3" x2="61.5" y2="135.3"/>
<line class="st13" x1="61.5" y1="135.3" x2="74.4" y2="144.5"/>
<line class="st14" x1="74.4" y1="144.5" x2="87.4" y2="135.3"/>
<circle class="st10" cx="74.4" cy="140.5" r="1.6"/>
<g>
	<path class="st15" d="M117.3,261.3H77.1v-22.2h22.2c9.9,0,18,8.1,18,18V261.3z"/>
	<rect x="77.1" y="257.6" class="st15" width="40.2" height="3.7"/>
	<rect x="77.1" y="259.5" class="st15" width="40.2" height="0.9"/>
</g>
<g>
	<path class="st15" d="M29.6,261.3h40.2v-22.2H47.6c-9.9,0-18,8.1-18,18V261.3z"/>
	
		<rect x="29.6" y="257.6" transform="matrix(-1 -4.493529e-11 4.493529e-11 -1 99.2891 518.9547)" class="st15" width="40.2" height="3.7"/>
	
		<rect x="29.6" y="259.5" transform="matrix(-1 -4.493529e-11 4.493529e-11 -1 99.2891 519.8834)" class="st15" width="40.2" height="0.9"/>
</g>
<g>
	<g>
		<path class="st7" d="M65.7,84.9c3.9,4,10.9,4.1,14.8,0.1c1.4-1.4-0.7-3.5-2.1-2.1c-2.8,2.8-7.8,2.7-10.6-0.1
			C66.5,81.3,64.4,83.5,65.7,84.9L65.7,84.9z"/>
	</g>
</g>
<path class="st16" d="M242.7,229.8h-88c-6.6,0-12-5.4-12-12V162c0-6.6,5.4-12,12-12h88c6.6,0,12,5.4,12,12v55.8
	C254.7,224.4,249.3,229.8,242.7,229.8z"/>
<path class="st17" d="M177.7,176.2h-24.6c-1.7,0-3-1.4-3-3v-14.5c0-1.6,1.3-3,3-3h24.6c1.7,0,3,1.4,3,3v14.5
	C180.7,174.8,179.3,176.2,177.7,176.2z"/>
<path class="st17" d="M227.2,220.3v-24.6c0-1.7,1.3-3,3-3h14.5c1.6,0,3,1.3,3,3v24.6c0,1.7-1.4,3-3,3h-14.5
	C228.5,223.3,227.2,222,227.2,220.3z"/>
<path class="st18" d="M160.4,226.1h-6c-0.6,0-1-0.4-1-1v-13c0-0.5,0.4-1,1-1h6c0.5,0,1,0.5,1,1v13
	C161.4,225.6,161,226.1,160.4,226.1z"/>
<path class="st19" d="M170.6,226.3h-6c-0.6,0-1-0.4-1-1v-13c0-0.6,0.4-1,1-1h6c0.6,0,1,0.4,1,1v13
	C171.6,225.9,171.2,226.3,170.6,226.3z"/>
<path class="st20" d="M180.9,226.1h-6c-0.6,0-1-0.4-1-1v-13c0-0.5,0.4-1,1-1h6c0.5,0,1,0.5,1,1v13
	C181.9,225.6,181.4,226.1,180.9,226.1z"/>
<circle class="st21" cx="191.6" cy="159.8" r="3.4"/>
<circle class="st21" cx="204.3" cy="159.8" r="3.4"/>
<circle class="st21" cx="217.5" cy="159.8" r="3.4"/>
<circle class="st21" cx="198.7" cy="223.3" r="3.4"/>
<circle class="st21" cx="189.5" cy="223.3" r="3.4"/>
<circle class="st21" cx="154.3" cy="187.9" r="3.4"/>
<circle class="st21" cx="189.4" cy="187.7" r="3.4"/>
<circle class="st21" cx="237.4" cy="188.3" r="3.4"/>
<circle class="st21" cx="209.3" cy="223.3" r="3.4"/>
<circle class="st21" cx="154.3" cy="196.7" r="3.4"/>
<circle class="st21" cx="191.6" cy="176.2" r="3.4"/>
<line class="st13" x1="191.6" y1="176.2" x2="191.6" y2="159.6"/>
<circle class="st21" cx="173.9" cy="176.2" r="3.4"/>
<circle class="st21" cx="227.2" cy="214.9" r="3.4"/>
<circle class="st21" cx="227.2" cy="201.1" r="3.4"/>
<circle class="st21" cx="167.6" cy="211.1" r="3.4"/>
<line class="st13" x1="173.9" y1="175.9" x2="191.6" y2="176.2"/>
<line class="st13" x1="167.6" y1="211.1" x2="189.4" y2="188"/>
<line class="st13" x1="154.3" y1="187.9" x2="189.5" y2="187.4"/>
<line class="st13" x1="154.3" y1="187.3" x2="154.3" y2="175.1"/>
<line class="st13" x1="154" y1="170.8" x2="154" y2="159.8"/>
<line class="st13" x1="158" y1="170.8" x2="158" y2="159.8"/>
<line class="st13" x1="161.7" y1="170.8" x2="161.7" y2="159.8"/>
<circle class="st21" cx="204.3" cy="180.7" r="3.4"/>
<line class="st13" x1="204.3" y1="180.7" x2="204.3" y2="159.8"/>
<line class="st13" x1="189.4" y1="187.7" x2="204.3" y2="180.7"/>
<circle class="st21" cx="217.5" cy="188.3" r="3.4"/>
<line class="st13" x1="217.5" y1="188.3" x2="217.5" y2="159.6"/>
<line class="st13" x1="204.3" y1="180.7" x2="217.5" y2="188.3"/>
<line class="st13" x1="217.5" y1="188.3" x2="237.4" y2="188.3"/>
<circle class="st21" cx="204.3" cy="196.1" r="3.4"/>
<line class="st13" x1="204.3" y1="196.2" x2="217.5" y2="188.9"/>
<line class="st13" x1="204.3" y1="196.2" x2="189.5" y2="187.4"/>
<line class="st13" x1="204.3" y1="196.2" x2="227.2" y2="201.1"/>
<line class="st13" x1="227.2" y1="201.1" x2="242.7" y2="201.1"/>
<line class="st13" x1="227.2" y1="214.9" x2="242.7" y2="214.9"/>
<g>
	<g>
		<path class="st22" d="M156.1,220.1c-1.4,2.2-1.6,4.8-1.7,7.3c-0.1,2.3,0,5.1-2,6.7c-1.1,0.9-2.4,1.3-3.6,2.1
			c-1.1,0.7-2,1.7-2.6,2.9c-1.2,2.4-1.2,5.1-0.1,7.5c0.8,1.7,3.4,0.2,2.6-1.5c-1-2-0.4-4.6,1.3-6.1c1.9-1.6,4.4-2.2,5.8-4.4
			c2.6-3.9,0.2-9.2,2.8-13.1C159.7,220,157.1,218.5,156.1,220.1L156.1,220.1z"/>
	</g>
</g>
<g>
	<g>
		<path class="st23" d="M167.4,224.3c0,1.5-0.8,2.9-1.3,4.4c-0.5,1.5-0.7,3-0.3,4.5c0.4,1.5,1.3,2.7,1.9,4.2c0.6,1.6,0,3.1-1.1,4.4
			c-1.9,2.3-4.8,4.1-5.4,7.3c-0.5,2.5,0.7,5.5,3.4,6.1c1.9,0.4,2.7-2.4,0.8-2.9c-1-0.2-1.3-1.2-1.3-2.1c0-1.3,0.9-2.4,1.7-3.3
			c1.9-2,4.3-3.8,4.9-6.7c0.3-1.3,0.2-2.7-0.4-3.9c-0.5-1.3-1.4-2.5-1.7-3.8c-0.3-1.4,0.3-2.7,0.7-4c0.5-1.3,0.9-2.6,1-4.1
			C170.5,222.4,167.5,222.4,167.4,224.3L167.4,224.3z"/>
	</g>
</g>
<g>
	<g>
		<path class="st24" d="M177.6,223.3c-0.3,2.2-2,3.9-2.4,6.1c-0.5,2.5,0.8,4.3,2.7,5.7c2,1.5,3.6,2.9,4.3,5.5c0.8,2.9,0.4,6-0.1,8.9
			c-0.4,1.9,2.5,2.7,2.9,0.8c1-5.3,1.4-11.8-3-15.8c-1.4-1.3-4.3-2.3-3.9-4.6c0.2-1.1,0.9-2.1,1.4-3.1c0.6-1.1,1-2.2,1.1-3.5
			C180.8,221.4,177.8,221.4,177.6,223.3L177.6,223.3z"/>
	</g>
</g>
<path class="st7" d="M152.1,252l-3.6,1.7c-0.5,0.2-1.1,0-1.3-0.5l-2.5-5.2c-0.2-0.5,0-1.1,0.5-1.3l3.6-1.7c0.5-0.2,1.1,0,1.3,0.5
	l2.5,5.2C152.8,251.2,152.6,251.8,152.1,252z"/>
<path class="st7" d="M184.4,253.1l-3.9-0.8c-0.5-0.1-0.9-0.7-0.8-1.2l1.2-5.6c0.1-0.5,0.7-0.9,1.2-0.8l3.9,0.8
	c0.5,0.1,0.9,0.7,0.8,1.2l-1.2,5.6C185.4,252.9,184.9,253.2,184.4,253.1z"/>
<path class="st7" d="M172,254.8l-1.6,3.6c-0.2,0.5-0.8,0.7-1.3,0.5l-5.3-2.4c-0.5-0.2-0.7-0.8-0.5-1.3l1.6-3.6
	c0.2-0.5,0.8-0.7,1.3-0.5l5.3,2.4C172,253.7,172.2,254.3,172,254.8z"/>
<line class="st13" x1="203.4" y1="203.9" x2="188.5" y2="195.2"/>
<line class="st13" x1="219.6" y1="204.4" x2="203.7" y2="204.1"/>
<line class="st13" x1="203" y1="207.6" x2="188.2" y2="198.9"/>
<line class="st13" x1="219.2" y1="208.1" x2="203.3" y2="207.8"/>
<circle class="st21" cx="154.3" cy="205.6" r="3.4"/>
<line class="st13" x1="154.3" y1="205.6" x2="154.3" y2="187.5"/>
<circle class="st21" cx="163.6" cy="196.7" r="3.4"/>
<line class="st13" x1="154.9" y1="196.6" x2="164.2" y2="196.6"/>
<line class="st13" x1="189.5" y1="223.3" x2="209.3" y2="223.3"/>
<circle class="st25" cx="238.4" cy="208" r="3.4"/>
<path class="st17" d="M225.9,179.5v-21c0-1.7,1.3-3,3-3h18.9c1.6,0,3,1.3,3,3v21c0,1.7-1.4,3-3,3h-18.9
	C227.3,182.5,225.9,181.2,225.9,179.5z"/>
<path class="st26" d="M199.1,212.5v2c0,0.6-0.4,1-1,1h-13c-0.6,0-1-0.4-1-1v-2c0-0.6,0.4-1,1-1h13
	C198.7,211.5,199.1,211.9,199.1,212.5z"/>
<path class="st26" d="M210.9,212.5v2c0,0.6-0.4,1-1,1h-8c-0.6,0-1-0.4-1-1v-2c0-0.6,0.4-1,1-1h8
	C210.5,211.5,210.9,211.9,210.9,212.5z"/>
<path class="st26" d="M221.3,212.5v2c0,0.6-0.5,1-1,1h-7c-0.6,0-1-0.4-1-1v-2c0-0.6,0.4-1,1-1h7
	C220.9,211.5,221.3,211.9,221.3,212.5z"/>
<path class="st26" d="M210.9,217.3L210.9,217.3c0,0.6-0.4,1-1,1h-8c-0.6,0-1-0.4-1-1l0,0c0-0.6,0.4-1,1-1h8
	C210.5,216.3,210.9,216.7,210.9,217.3z"/>
<line class="st13" x1="189.5" y1="213.5" x2="189.5" y2="223"/>
<line class="st13" x1="189.5" y1="213.2" x2="216.8" y2="213.2"/>
<line class="st13" x1="205.9" y1="213.5" x2="205.9" y2="217.3"/>
<line class="st13" x1="219.7" y1="204.4" x2="219.7" y2="208.2"/>
<line class="st13" x1="237.4" y1="181.2" x2="237.4" y2="188"/>
<path class="st27" d="M227.5,164.6v-5.3c0-1.1,0.9-2,2-2h5.3c1.1,0,2,0.9,2,2v5.3c0,1.1-0.9,2-2,2h-5.3
	C228.4,166.6,227.5,165.7,227.5,164.6z"/>
<path class="st27" d="M227.5,170.3v-0.1c0-1.1,0.9-2,2-2h5.3c1.1,0,2,0.9,2,2v0.1c0,1.1-0.9,2-2,2h-5.3
	C228.4,172.3,227.5,171.4,227.5,170.3z"/>
<path class="st27" d="M227.5,175.8v-0.1c0-1.1,0.9-2,2-2h5.3c1.1,0,2,0.9,2,2v0.1c0,1.1-0.9,2-2,2h-5.3
	C228.4,177.8,227.5,176.9,227.5,175.8z"/>
<path class="st27" d="M238.1,169.9v-10.6c0-1.1,0.9-2,2-2h7.1c1.1,0,2,0.9,2,2v10.6c0,1.1-0.9,2-2,2h-7.1
	C239,171.9,238.1,171,238.1,169.9z"/>
<circle cx="240.1" cy="175.8" r="1.8"/>
<circle cx="247" cy="175.8" r="1.8"/>
<circle cx="237.4" cy="180.1" r="1.8"/>
<circle cx="243.6" cy="175.8" r="1.8"/>
<path class="st28" d="M244.9,130.3h-88c-6.6,0-12-5.4-12-12V62.5c0-6.6,5.4-12,12-12h88c6.6,0,12,5.4,12,12v55.8
	C256.9,124.9,251.5,130.3,244.9,130.3z"/>
<path class="st29" d="M179.9,76.7h-24.6c-1.7,0-3-1.3-3-3V59.2c0-1.7,1.3-3,3-3h24.6c1.7,0,3,1.3,3,3v14.5
	C182.9,75.3,181.5,76.7,179.9,76.7z"/>
<path class="st29" d="M229.3,120.8V96.2c0-1.7,1.3-3,3-3h14.5c1.6,0,3,1.3,3,3v24.6c0,1.7-1.4,3-3,3h-14.5
	C230.7,123.8,229.3,122.5,229.3,120.8z"/>
<path class="st30" d="M162.6,126.6h-6c-0.5,0-1-0.4-1-1v-13c0-0.5,0.5-1,1-1h6c0.6,0,1,0.5,1,1v13
	C163.6,126.1,163.1,126.6,162.6,126.6z"/>
<path class="st31" d="M172.8,126.8h-6c-0.6,0-1-0.5-1-1v-13c0-0.6,0.4-1,1-1h6c0.6,0,1,0.4,1,1v13
	C173.8,126.4,173.4,126.8,172.8,126.8z"/>
<path class="st32" d="M183.1,126.6h-6c-0.5,0-1-0.4-1-1v-13c0-0.5,0.5-1,1-1h6c0.6,0,1,0.5,1,1v13
	C184.1,126.1,183.6,126.6,183.1,126.6z"/>
<circle class="st33" cx="193.8" cy="60.3" r="3.4"/>
<circle class="st33" cx="206.5" cy="60.3" r="3.4"/>
<circle class="st33" cx="219.7" cy="60.3" r="3.4"/>
<circle class="st33" cx="200.9" cy="123.8" r="3.4"/>
<circle class="st33" cx="191.6" cy="123.8" r="3.4"/>
<circle class="st33" cx="156.5" cy="88.4" r="3.4"/>
<circle class="st33" cx="191.6" cy="88.2" r="3.4"/>
<circle class="st33" cx="239.6" cy="88.8" r="3.4"/>
<circle class="st33" cx="211.5" cy="123.8" r="3.4"/>
<circle class="st33" cx="156.5" cy="97.2" r="3.4"/>
<circle class="st33" cx="193.8" cy="76.7" r="3.4"/>
<line class="st13" x1="193.8" y1="76.7" x2="193.8" y2="60.1"/>
<circle class="st33" cx="176.1" cy="76.7" r="3.4"/>
<circle class="st33" cx="229.3" cy="115.4" r="3.4"/>
<circle class="st33" cx="229.3" cy="101.6" r="3.4"/>
<circle class="st33" cx="169.8" cy="111.6" r="3.4"/>
<line class="st13" x1="176.1" y1="76.4" x2="193.8" y2="76.7"/>
<line class="st13" x1="169.8" y1="111.6" x2="191.6" y2="88.5"/>
<line class="st13" x1="156.5" y1="88.4" x2="191.6" y2="87.9"/>
<line class="st13" x1="156.5" y1="87.8" x2="156.5" y2="75.6"/>
<line class="st13" x1="156.2" y1="71.3" x2="156.2" y2="60.3"/>
<line class="st13" x1="160.2" y1="71.3" x2="160.2" y2="60.3"/>
<line class="st13" x1="163.9" y1="71.3" x2="163.9" y2="60.3"/>
<circle class="st33" cx="206.5" cy="81.2" r="3.4"/>
<line class="st13" x1="206.5" y1="81.2" x2="206.5" y2="60.3"/>
<line class="st13" x1="191.6" y1="88.2" x2="206.5" y2="81.2"/>
<circle class="st33" cx="219.7" cy="88.8" r="3.4"/>
<line class="st13" x1="219.7" y1="88.8" x2="219.7" y2="60.1"/>
<line class="st13" x1="206.5" y1="81.2" x2="219.7" y2="88.8"/>
<line class="st13" x1="219.7" y1="88.8" x2="239.6" y2="88.8"/>
<circle class="st33" cx="206.5" cy="96.6" r="3.4"/>
<line class="st13" x1="206.5" y1="96.7" x2="219.7" y2="89.4"/>
<line class="st13" x1="206.5" y1="96.7" x2="191.6" y2="87.9"/>
<line class="st13" x1="206.5" y1="96.7" x2="229.3" y2="101.6"/>
<line class="st13" x1="229.3" y1="101.6" x2="244.9" y2="101.6"/>
<line class="st13" x1="229.3" y1="115.4" x2="244.9" y2="115.4"/>
<line class="st13" x1="205.5" y1="104.4" x2="190.7" y2="95.7"/>
<line class="st13" x1="221.8" y1="104.9" x2="205.9" y2="104.6"/>
<line class="st13" x1="205.2" y1="108.1" x2="190.3" y2="99.4"/>
<line class="st13" x1="221.4" y1="108.6" x2="205.5" y2="108.4"/>
<circle class="st33" cx="156.5" cy="106.1" r="3.4"/>
<line class="st13" x1="156.5" y1="106.1" x2="156.5" y2="88"/>
<circle class="st33" cx="165.8" cy="97.2" r="3.4"/>
<line class="st13" x1="157" y1="97.1" x2="166.4" y2="97.1"/>
<line class="st13" x1="191.6" y1="123.8" x2="211.5" y2="123.8"/>
<circle class="st34" cx="240.5" cy="108.5" r="3.4"/>
<path class="st29" d="M228.1,80V59c0-1.7,1.4-3,3-3H250c1.6,0,3,1.3,3,3v21c0,1.7-1.4,3-3,3h-18.9C229.5,83,228.1,81.7,228.1,80z"/>
<path class="st35" d="M201.3,113v2c0,0.6-0.4,1-1,1h-13c-0.6,0-1-0.4-1-1v-2c0-0.5,0.4-1,1-1h13C200.8,112,201.3,112.4,201.3,113z"
	/>
<path class="st35" d="M213.1,113v2c0,0.6-0.4,1-1,1h-8c-0.6,0-1-0.4-1-1v-2c0-0.5,0.4-1,1-1h8C212.6,112,213.1,112.4,213.1,113z"/>
<path class="st35" d="M223.5,113v2c0,0.6-0.4,1-1,1h-7c-0.6,0-1-0.4-1-1v-2c0-0.5,0.4-1,1-1h7C223.1,112,223.5,112.4,223.5,113z"/>
<path class="st35" d="M213.1,117.8L213.1,117.8c0,0.5-0.4,1-1,1h-8c-0.6,0-1-0.5-1-1l0,0c0-0.6,0.4-1,1-1h8
	C212.6,116.8,213.1,117.2,213.1,117.8z"/>
<line class="st13" x1="191.6" y1="114" x2="191.6" y2="123.5"/>
<line class="st13" x1="191.6" y1="113.7" x2="219" y2="113.7"/>
<line class="st13" x1="208.1" y1="114" x2="208.1" y2="117.8"/>
<line class="st13" x1="221.8" y1="104.9" x2="221.8" y2="108.7"/>
<line class="st13" x1="239.6" y1="81.7" x2="239.6" y2="88.5"/>
<path class="st36" d="M229.7,65.2v-5.3c0-1.1,0.9-2,2-2h5.3c1.1,0,2,0.9,2,2v5.3c0,1.1-0.9,2-2,2h-5.3
	C230.6,67.2,229.7,66.3,229.7,65.2z"/>
<path class="st36" d="M229.7,70.8v-0.1c0-1.1,0.9-2,2-2h5.3c1.1,0,2,0.9,2,2v0.1c0,1.1-0.9,2-2,2h-5.3
	C230.6,72.8,229.7,71.9,229.7,70.8z"/>
<path class="st36" d="M229.7,76.3v-0.1c0-1.1,0.9-2,2-2h5.3c1.1,0,2,0.9,2,2v0.1c0,1.1-0.9,2-2,2h-5.3
	C230.6,78.3,229.7,77.4,229.7,76.3z"/>
<path class="st36" d="M240.3,70.4V59.8c0-1.1,0.9-2,2-2h7.1c1.1,0,2,0.9,2,2v10.6c0,1.1-0.9,2-2,2h-7.1
	C241.2,72.4,240.3,71.5,240.3,70.4z"/>
<circle cx="242.3" cy="76.3" r="1.8"/>
<circle cx="249.2" cy="76.3" r="1.8"/>
<circle cx="239.6" cy="80.6" r="1.8"/>
<circle cx="245.8" cy="76.3" r="1.8"/>
<rect id="_x3C_Slice_x3E_" x="-5.7" y="-5" class="st37" width="292" height="281"/>
</svg>
