<?xml version="1.0" encoding="utf-8"?>
<!-- Generator: Adobe Illustrator 24.0.1, SVG Export Plug-In . SVG Version: 6.00 Build 0)  -->
<svg version="1.1" id="Layer_1" xmlns="http://www.w3.org/2000/svg" xmlns:xlink="http://www.w3.org/1999/xlink" x="0px" y="0px"
	 viewBox="0 0 280 270" style="enable-background:new 0 0 280 270;" xml:space="preserve">
<style type="text/css">
	.st0{fill:#000024;}
	.st1{fill:#AD652C;}
	.st2{fill:#AD872C;}
	.st3{fill:#AD6347;}
	.st4{fill:#EAAC7D;}
	.st5{fill:#D2BE6A;}
	.st6{fill:#FFFAEB;}
	.st7{fill:#DFBE1A;}
	.st8{fill:#231F20;}
	.st9{fill:#FFF0EB;}
	.st10{fill:#200E0A;}
	.st11{fill:#635724;}
	.st12{fill:#00002F;}
	.st13{fill:#F7F9E7;stroke:#030202;stroke-width:2.8346;stroke-miterlimit:10;}
	.st14{fill:#CCCCCC;stroke:#333333;stroke-miterlimit:10;}
	.st15{fill:#333333;}
	.st16{fill:#4D4D4D;}
	.st17{fill:#1A1A1A;}
	.st18{fill:#2B2938;}
	.st19{fill:#7F2900;}
	.st20{fill:#7F291F;}
	.st21{fill:#AD8762;}
	.st22{fill:#FFCEFF;stroke:#000000;stroke-width:2.8346;stroke-miterlimit:10;}
	.st23{fill:#FFFFFF;stroke:#000000;stroke-miterlimit:10;}
	.st24{fill:#F6921E;}
	.st25{fill:#DEADCF;}
	.st26{fill:#E51C43;}
	.st27{fill:#F39984;}
	.st28{fill:#C59C1D;stroke:#030202;stroke-width:0.75;stroke-miterlimit:10;}
	.st29{fill:#000018;}
	.st30{fill:#002E27;}
	.st31{fill:#A8FFF3;stroke:#000000;stroke-width:2.8346;stroke-miterlimit:10;}
	.st32{fill:#FFFFFF;stroke:#000000;stroke-width:0.7087;stroke-miterlimit:10;}
	.st33{fill:#FFFF6F;stroke:#000000;stroke-width:0.7087;stroke-miterlimit:10;}
</style>
<g>
	<g>
		<path class="st0" d="M168.9,167.3c-3.5,0.1-7.8-1-10.5,2c-2.1,2.3-1.5,6.1,1.4,7.3c0.5,0.2,1.1,0,1.5-0.4c1.2-1.3,2.1-3.4,0.5-4.8
			c-1.8-1.5-4.1,0.4-5.4,1.8c-2.6,2.8-3.1,8,0.9,9.9c0.5,0.2,1.1,0.3,1.5,0c1.3-0.9,1.6-2.7,0.6-4c-1.1-1.4-3.2-1.3-4.5-0.2
			c-1.5,1.2-1.9,3.3-2.2,5.1c-0.3,1.8-0.2,3.9,1.1,5.4c1.1,1.2,3.2,1.7,4.5,0.4c1-1.1,1.1-3-0.1-4c-1.5-1.2-3.5,0.6-4.4,1.8
			c-1.1,1.5-1.3,3.5-0.7,5.3c0.7,1.9,2.3,3.5,4.4,3.8c2.2,0.3,4.3-1.3,4.1-3.6c0-0.6-0.4-1.3-1.1-1.4c-4-0.6-5.2,4.7-2.1,6.7
			c3.3,2.2,7-0.1,8.6-3.1c0.7-1.4,1.6-3.3,0.8-4.8c-1-1.6-3.3-1.4-4.3,0.1c-0.9,1.3-0.8,3.1,0.2,4.3c1.2,1.4,3.2,1.6,4.8,0.9
			c2.1-0.9,3.1-2.8,3.9-4.8c0.5-1.3,1.8-5,3.9-3.7c1.6,1,3.2-1.6,1.5-2.6c-2.5-1.6-5.4-0.1-6.8,2.2c-1,1.6-1.8,6.6-4.4,6.3
			c-0.5,0-0.5-0.2-0.6-0.6c0-0.1,0.1-0.3,0.1-0.3c-0.1,0.2-0.2,0.1-0.4-0.2c-0.3-0.3-0.4-0.3-0.4-0.1c-0.2,0.2-0.4,1.2-0.5,1.4
			c-0.3,0.6-0.7,1.3-1.2,1.8c-0.7,0.8-1.7,1.2-2.8,0.9c-0.4-0.1-0.9-0.4-1-0.8c-0.1-0.3,0.2-0.8,0.1-0.8c-0.4-0.5-0.7-1-1.1-1.4
			c0,0.9-1,0.7-1.5,0.4c-0.7-0.4-1.1-1.1-1.3-1.9c-0.3-1.6,0.6-2.8,2-3.4c-0.5,0-1,0-1.5,0c-0.1-0.1-0.2-0.3-0.2-0.4
			c0.2-0.1,0.3-0.2,0.1-0.3c-0.1-0.3-0.4-0.5-0.6-0.9c-0.2-0.8-0.1-1.8,0.1-2.6c0.2-0.7,0.3-1.5,0.6-2.2c0.2-0.3,0.4-0.4,0.6-0.7
			c0.2,0,0.2-0.1,0-0.2c0.1-0.1,0.1-0.3,0.3-0.4c0.5,0,1,0,1.5,0c-1.5-0.7-1.9-2.3-1.3-3.8c0.3-0.8,1-1.5,1.6-2.1
			c0.2-0.1,0.9-0.5,0.9-0.7c-0.2-0.6-0.4-0.7-0.5-0.4c-0.1,0.2-0.3,0.3-0.4,0.5c0.5-0.1,1-0.3,1.5-0.4c-0.5-0.2-0.6-1-0.5-1.4
			c0.2-0.9,1-1.4,1.7-1.7c2.2-0.8,4.7-0.1,7-0.2C170.9,170.2,170.9,167.2,168.9,167.3L168.9,167.3z"/>
	</g>
</g>
<path class="st1" d="M240.9,76.3V124c0,1.1-0.9,2-2,2h-71.8c-1.1,0-2-0.9-2-2V76.3c0-1.1,0.9-2,2-2h45.8l2.7-7h11.9l4,7h7.5
	C240,74.3,240.9,75.2,240.9,76.3z"/>
<path class="st2" d="M233.1,80.3V128c0,1.1-0.9,2-2,2h-71.8c-1.1,0-2-0.9-2-2V80.3c0-1.1,0.9-2,2-2h45.8l2.7-7h11.9l4,7h7.5
	C232.2,78.3,233.1,79.2,233.1,80.3z"/>
<path class="st3" d="M226,83.5v47.7c0,1.1-0.9,2-2,2h-71.8c-1.1,0-2-0.9-2-2V83.5c0-1.1,0.9-2,2-2H198l2.7-7h11.9l4,7h7.5
	C225.1,81.5,226,82.4,226,83.5z"/>
<path class="st4" d="M90.4,29.7v38c0,9.7-6,18-14.6,21.4v12.5H54.9V89.1c-8.5-3.4-14.6-11.7-14.6-21.4v-38c0-10.5,8.5-19,19-19h12
	C81.9,10.7,90.4,19.2,90.4,29.7z"/>
<path class="st5" d="M87,164H43.7c-3.5,0-6.4-2.9-6.4-6.4V102c0-3.5,2.9-6.4,6.4-6.4H87c3.5,0,6.4,2.9,6.4,6.4v55.7
	C93.4,161.1,90.5,164,87,164z"/>
<rect x="79.4" y="105.8" class="st6" width="7.8" height="7.8"/>
<path class="st7" d="M85.6,118.8h-4.5c-1.6,0-2.9-1.3-2.9-2.9v-4.5c0-1.6,1.3-2.9,2.9-2.9h4.5c1.6,0,2.9,1.3,2.9,2.9v4.5
	C88.5,117.5,87.2,118.8,85.6,118.8z"/>
<g>
	<path class="st8" d="M111,260.2H68.8v-23.3H93c9.9,0,18,8.1,18,18V260.2z"/>
	<rect x="68.8" y="256.3" class="st9" width="42.2" height="3.9"/>
	<rect x="68.8" y="258.3" class="st10" width="42.2" height="1"/>
</g>
<path class="st11" d="M87.8,235.2h-19v-72.2c0-3.3,2.7-6,6-6h7c3.3,0,6,2.7,6,6V235.2z"/>
<g>
	<path class="st8" d="M19.8,260.2h42.2v-23.3H37.8c-9.9,0-18,8.1-18,18V260.2z"/>
	
		<rect x="19.8" y="256.3" transform="matrix(-1 -4.486379e-11 4.486379e-11 -1 81.7318 516.5962)" class="st9" width="42.2" height="3.9"/>
	
		<rect x="19.8" y="258.3" transform="matrix(-1 -4.494994e-11 4.494994e-11 -1 81.7318 517.5713)" class="st10" width="42.2" height="1"/>
</g>
<rect x="42.9" y="231.4" transform="matrix(-1 -1.072266e-11 1.072266e-11 -1 104.8985 468.2802)" class="st12" width="19" height="5.5"/>
<path class="st11" d="M42.9,230.2h19v-67.3c0-3.3-2.7-6-6-6h-7c-3.3,0-6,2.7-6,6V230.2z"/>
<rect x="36.8" y="156.2" class="st8" width="56" height="7.8"/>
<path class="st13" d="M69.3,165.5h-7.4c-2.1,0-3.7-1.7-3.7-3.7v-4c0-2.1,1.7-3.7,3.7-3.7h7.4c2.1,0,3.7,1.7,3.7,3.7v4
	C73.1,163.9,71.4,165.5,69.3,165.5z"/>
<path class="st5" d="M99.9,98.4h-5.2c-10.2,0-4.2,12.2-4.2,24.9v36.8h15.8v-36.8C106.3,110.6,109,101.3,99.9,98.4z"/>
<path class="st5" d="M32.3,99h5.2c10.2,0,4.2,12.2,4.2,24.9v36.8H25.9v-36.8C25.9,111.2,23.2,101.9,32.3,99z"/>
<circle class="st4" cx="32.7" cy="163.8" r="9.4"/>
<circle class="st4" cx="99.6" cy="163" r="9.4"/>
<g>
	<path class="st14" d="M62,45.3H47.5c-1.1,0-2-0.9-2-2V32.4c0-1.1,0.9-2,2-2H62c1.1,0,2,0.9,2,2v10.9C64,44.4,63.1,45.3,62,45.3z"/>
	<path class="st14" d="M84.5,45.3H70c-1.1,0-2-0.9-2-2V32.4c0-1.1,0.9-2,2-2h14.5c1.1,0,2,0.9,2,2v10.9
		C86.5,44.4,85.6,45.3,84.5,45.3z"/>
	<rect x="64" y="39.2" class="st15" width="4" height="1.6"/>
	<rect x="86.4" y="36.9" class="st15" width="4" height="2.2"/>
	<rect x="40.4" y="36.8" class="st15" width="4.8" height="2.2"/>
</g>
<path class="st16" d="M90.2,73.2c0,13.6-24.1,23.4-24.1,23.4s-25-9.7-25-23.3s13.1,1.2,25,1.2S90.2,59.6,90.2,73.2z"/>
<ellipse cx="65.4" cy="71.6" rx="7.8" ry="4.1"/>
<g>
	<g>
		<g>
			<g>
				<path class="st17" d="M96.8,74.2c0,0-0.3-0.2-0.9-0.6c-0.6-0.4-1.4-0.9-2.4-1.5c-1-0.6-2.2-1.1-3.5-1.6c-1.3-0.4-2.7-0.7-4-0.7
					c-1.3,0-2.5,0.2-3.5,0.6c-1,0.4-1.8,0.9-2.6,1.4c-1.5,1-2.8,2-3.7,2.3c-1.7,0.5-4,0.1-6.2-1.1c-2.2-1.2-4.2-3.2-5.3-6
					c-1.1-2.7-1.2-5.6-0.3-8c0.9-2.4,2.9-4.5,6.1-5.4c0.8-0.2,2-0.4,3.6-0.4c1.6,0,3.5,0.2,5.6,0.6c2.1,0.5,4.5,1.3,6.5,2.5
					c2.1,1.2,3.9,2.8,5.3,4.4c2.9,3.3,4,6.9,4.6,9.4c0.3,1.3,0.4,2.3,0.5,3C96.7,73.8,96.8,74.2,96.8,74.2z"/>
			</g>
		</g>
	</g>
	<g>
		<g>
			<g>
				<path class="st17" d="M34.5,74.2c0,0,0-0.4,0.1-1.1c0.1-0.7,0.2-1.7,0.5-3c0.6-2.5,1.8-6,4.6-9.4c1.4-1.7,3.2-3.2,5.3-4.4
					c2.1-1.2,4.4-2,6.5-2.5c2.1-0.5,4.1-0.6,5.6-0.6c1.6,0,2.8,0.1,3.6,0.4c3.2,0.9,5.2,3,6.1,5.4c0.9,2.4,0.8,5.3-0.3,8
					c-1.1,2.7-3.1,4.8-5.3,6c-2.2,1.2-4.5,1.6-6.2,1.1c-0.9-0.2-2.2-1.3-3.7-2.3c-0.8-0.5-1.5-1-2.6-1.4c-1-0.4-2.2-0.6-3.5-0.6
					c-1.3,0-2.7,0.3-4,0.7c-1.3,0.4-2.5,1-3.5,1.6c-1,0.6-1.9,1.1-2.4,1.5C34.8,74,34.5,74.2,34.5,74.2z"/>
			</g>
		</g>
	</g>
</g>
<path class="st18" d="M61.8,231.5H42.6c-0.9,0-1.7-0.8-1.7-1.7v-3.9c0-0.9,0.8-1.7,1.7-1.7h19.3c0.9,0,1.7,0.8,1.7,1.7v3.9
	C63.5,230.7,62.8,231.5,61.8,231.5z"/>
<rect x="68.8" y="231.4" transform="matrix(-1 -1.072266e-11 1.072266e-11 -1 156.6256 468.2802)" class="st12" width="19" height="5.5"/>
<path class="st18" d="M87.7,231.5H68.4c-0.9,0-1.7-0.8-1.7-1.7v-3.9c0-0.9,0.8-1.7,1.7-1.7h19.3c0.9,0,1.7,0.8,1.7,1.7v3.9
	C89.4,230.7,88.6,231.5,87.7,231.5z"/>
<path class="st19" d="M67,53.2H65c-0.5,0-1-0.5-1-1v-6c0-0.5,0.5-1,1-1H67c0.5,0,1,0.5,1,1v6C68,52.8,67.6,53.2,67,53.2z"/>
<path class="st20" d="M92.5,50.7h-2.1v-9.4h2.1c1.1,0,2,0.9,2,2v5.4C94.5,49.8,93.6,50.7,92.5,50.7z"/>
<path class="st20" d="M38.3,41.3h2.1v9.4h-2.1c-1.1,0-2-0.9-2-2v-5.4C36.3,42.2,37.2,41.3,38.3,41.3z"/>
<path class="st21" d="M219.8,87.4v47.7c0,1.1-0.9,2-2,2H146c-1.1,0-2-0.9-2-2V87.4c0-1.1,0.9-2,2-2h45.8l2.7-7h11.9l4,7h7.5
	C218.9,85.4,219.8,86.3,219.8,87.4z"/>
<path class="st22" d="M213.2,110.5h-62.6c-1.1,0-2-0.9-2-2V98.4c0-1.1,0.9-2,2-2h62.6c1.1,0,2,0.9,2,2v10.1
	C215.2,109.6,214.3,110.5,213.2,110.5z"/>
<path class="st23" d="M213.2,123.3h-10c-1.1,0-2-0.9-2-2V117c0-1.1,0.9-2,2-2h10c1.1,0,2,0.9,2,2v4.2
	C215.2,122.4,214.3,123.3,213.2,123.3z"/>
<rect x="253.5" y="73.3" class="st24" width="7.3" height="62.3"/>
<path class="st25" d="M259.8,137.6h-5.3c-0.5,0-1-0.4-1-1V129h7.3v7.7C260.8,137.2,260.4,137.6,259.8,137.6z"/>
<rect x="253.5" y="128.1" class="st26" width="7.3" height="3.5"/>
<polygon class="st27" points="257.1,60.3 260.8,73.3 253.5,73.3 "/>
<polygon class="st8" points="258.8,66.3 257.1,60.3 255.5,66.3 "/>
<circle class="st28" cx="66.5" cy="106.9" r="1.4"/>
<circle class="st28" cx="66.5" cy="114.7" r="1.4"/>
<circle class="st28" cx="66.7" cy="123" r="1.4"/>
<circle class="st28" cx="66.7" cy="130.7" r="1.4"/>
<circle class="st28" cx="66.7" cy="138.7" r="1.4"/>
<circle class="st28" cx="66.7" cy="146.2" r="1.4"/>
<polygon class="st29" points="222.8,216.9 178.5,216.9 170.9,209.2 230.5,209.2 "/>
<polygon class="st30" points="230.5,209.2 170.9,209.2 178.5,176.3 222.8,176.3 "/>
<path d="M194.9,176.3H188v-3.1c0-1.1,0.9-2,2-2h2.9c1.1,0,2,0.9,2,2V176.3z"/>
<path d="M213,176.3h-6.9v-3.1c0-1.1,0.9-2,2-2h2.9c1.1,0,2,0.9,2,2V176.3z"/>
<circle class="st31" cx="200.7" cy="192.8" r="13.6"/>
<circle class="st32" cx="200.7" cy="183.2" r="1.7"/>
<circle class="st32" cx="200.7" cy="202.7" r="1.7"/>
<circle class="st32" cx="210.7" cy="192.2" r="1.7"/>
<circle class="st32" cx="190.6" cy="192.2" r="1.7"/>
<circle class="st32" cx="194.1" cy="186.7" r="1.7"/>
<circle class="st32" cx="207.2" cy="186.7" r="1.7"/>
<circle class="st32" cx="194.1" cy="198.8" r="1.7"/>
<circle class="st32" cx="207.2" cy="198.8" r="1.7"/>
<circle class="st33" cx="200.7" cy="192.2" r="2.2"/>
<path d="M229.3,174.3c-2.7,2.2-11.4-2.1-14.6-3.2c-3.7-1.3-10.5-2.1-14.4-2.1c-3.7,0-18.6,3.5-18.6,3.5s-9.7,4.3-12.9,2.2
	c-3-1.9-2.4-8.5,0-11.1c2.5-2.7,11-1.4,15-1.7c3.9-0.4,12.8-1.3,16.5-1.3c4,0,11.4,0.6,15.7,1.1c3.6,0.4,10.9-0.2,13.4,2.2
	C231.3,165.8,232,172,229.3,174.3z"/>
</svg>
