<?xml version="1.0" encoding="utf-8"?>
<!-- Generator: Adobe Illustrator 24.0.1, SVG Export Plug-In . SVG Version: 6.00 Build 0)  -->
<svg version="1.1" id="Layer_1" xmlns="http://www.w3.org/2000/svg" xmlns:xlink="http://www.w3.org/1999/xlink" x="0px" y="0px"
	 viewBox="0 0 280 270" style="enable-background:new 0 0 280 270;" xml:space="preserve">
<style type="text/css">
	.st0{fill:#55E9FF;}
	.st1{fill:#22B573;}
	.st2{fill:#532C0B;}
	.st3{fill:#FFDCB2;}
	.st4{fill:#3D2437;}
	.st5{fill:#F7B488;}
	.st6{fill:#A45E40;}
	.st7{fill:#231F20;}
	.st8{fill:#510C37;}
	.st9{fill:#B3B3B3;stroke:#030202;stroke-width:2;stroke-miterlimit:10;}
	.st10{fill:#1F0A00;}
	.st11{fill:#7F2900;}
	.st12{fill:#F78188;}
	.st13{fill:#FFB42B;}
	.st14{fill:#F58B1F;stroke:#F58B1F;stroke-miterlimit:10;}
	.st15{fill:#9CB3B5;stroke:#000000;stroke-width:1.4173;stroke-miterlimit:10;}
	.st16{fill:#EC9510;}
	.st17{fill:#704120;}
	.st18{fill:#42210B;}
	.st19{fill:#452403;}
	.st20{fill:#006837;}
	.st21{fill:#39794A;}
	.st22{fill:#39BF4A;}
	.st23{fill:#39814A;}
	.st24{fill:#808380;}
</style>
<rect x="216.7" y="165.3" class="st0" width="21.1" height="3.9"/>
<rect x="203.7" y="160.4" class="st0" width="13.5" height="8.8"/>
<rect x="177.1" y="150.6" class="st0" width="16.5" height="8.8"/>
<polygon class="st1" points="140.3,170 141.7,167.6 143.6,166.2 144.7,164.4 146.5,162.3 149.7,161.9 150.8,160.5 150.8,157.8 
	152.1,156.6 155.4,155.7 158.5,154.6 159.7,153.3 159.7,151.4 160.5,150.3 161.9,148.5 162.6,148.5 165,148.5 167,149.2 
	168.7,149.2 169.9,150.4 171.6,150.5 172.8,150 175.3,149.2 177.3,149.2 178.5,149.8 179.8,150.8 179.8,151.5 181.8,153.8 
	182.9,154.6 183.5,154.6 184.3,154.6 184.8,153.8 184.8,153.2 185.7,152.6 186.5,152.4 187.2,153.2 188.1,153.8 188.7,155.1 
	189.8,156.6 189.8,158.1 191,159.3 192.7,160.4 193.5,161.9 195.3,164.4 195.9,166.2 197.1,166.2 198.5,167.9 199.3,170 "/>
<path class="st2" d="M93.8,230.6H78.1v-60.7c0-3.3,2.7-6,6-6h3.8c3.3,0,6,2.7,6,6V230.6z"/>
<path class="st2" d="M54.6,231.7h15.8v-61.8c0-3.3-2.7-6-6-6h-3.8c-3.3,0-6,2.7-6,6V231.7z"/>
<line class="st3" x1="71.2" y1="96.4" x2="75.2" y2="96.4"/>
<path class="st4" d="M78.7,169.1h-9.2c-14.8,0-27-12.2-27-27v-29.2c0-7.4,6.1-13.5,13.5-13.5c0,0,3.4,0,7.4,0c4,0,4.1,2,11,2
	c5.9,0,6.7-2,10.7-2c3.9,0,7.2,0,7.2,0c7.4,0,13.5,6.1,13.5,13.5v29.2C105.7,156.9,93.6,169.1,78.7,169.1z"/>
<path class="st4" d="M113.1,132h-4.3c-3.3,0-6-2.7-6-6v-13.3c0-3.3,2.7-6,6-6h4.3c3.3,0,6,2.7,6,6V126
	C119.1,129.3,116.4,132,113.1,132z"/>
<rect x="102.8" y="125.8" class="st5" width="16.3" height="39.5"/>
<ellipse class="st5" cx="111" cy="163.2" rx="9.3" ry="9.8"/>
<path class="st4" d="M40.1,132h-4.3c-3.3,0-6-2.7-6-6v-13.3c0-3.3,2.7-6,6-6h4.3c3.3,0,6,2.7,6,6V126C46.1,129.3,43.4,132,40.1,132z
	"/>
<rect x="29.8" y="125.8" class="st5" width="16.3" height="39.5"/>
<ellipse class="st5" cx="38" cy="163.2" rx="9.3" ry="9.8"/>
<path d="M94.3,169.2H54c-1.1,0-2-0.9-2-2v-3c0-1.1,0.9-2,2-2h40.3c1.1,0,2,0.9,2,2v3C96.3,168.3,95.4,169.2,94.3,169.2z"/>
<g>
	<path class="st6" d="M114.2,259.2H78.1v-23.3h18.2c9.9,0,18,8.1,18,18V259.2z"/>
	<rect x="78.1" y="255.3" class="st6" width="36.2" height="3.9"/>
	<rect x="78.1" y="257.2" class="st6" width="36.2" height="1"/>
	<g>
		<path class="st6" d="M100,237.6c0.4,1.5-0.1,3.2-1,4.5c-0.9,1.2-2.1,2.1-3.3,2.9"/>
		<g>
			<path class="st7" d="M99.1,237.8c0.3,1.2-0.1,2.5-0.8,3.6c-0.8,1.1-1.9,1.9-3,2.6c-0.4,0.3-0.6,0.9-0.4,1.4
				c0.3,0.4,0.9,0.7,1.4,0.4c1.4-1,2.9-2,3.8-3.5c1-1.5,1.4-3.3,1-5c-0.1-0.5-0.7-0.8-1.2-0.7C99.2,236.7,98.9,237.3,99.1,237.8
				L99.1,237.8z"/>
		</g>
	</g>
	<g>
		<path class="st6" d="M105.4,239.2c0.4,1.5-0.1,3.2-1,4.5c-0.9,1.2-2.1,2.1-3.3,2.9"/>
		<g>
			<path class="st7" d="M104.4,239.5c0.3,1.2-0.1,2.5-0.8,3.6c-0.8,1.1-1.9,1.9-3,2.6c-0.4,0.3-0.6,0.9-0.4,1.4
				c0.3,0.4,0.9,0.7,1.4,0.4c1.4-1,2.9-2,3.8-3.5c1-1.5,1.4-3.3,1-5c-0.1-0.5-0.7-0.8-1.2-0.7C104.5,238.4,104.3,238.9,104.4,239.5
				L104.4,239.5z"/>
		</g>
	</g>
	<g>
		<path class="st6" d="M109,242.4c0.4,1.5-0.1,3.2-1,4.5c-0.9,1.2-2.1,2.1-3.3,2.9"/>
		<g>
			<path class="st7" d="M108,242.7c0.3,1.2-0.1,2.5-0.8,3.6c-0.8,1.1-1.9,1.9-3,2.6c-0.4,0.3-0.6,0.9-0.4,1.4
				c0.3,0.4,0.9,0.7,1.4,0.4c1.4-1,2.9-2,3.8-3.5c1-1.5,1.4-3.3,1-5c-0.1-0.5-0.7-0.8-1.2-0.7C108.2,241.6,107.9,242.1,108,242.7
				L108,242.7z"/>
		</g>
	</g>
</g>
<g>
	<path class="st6" d="M33.2,259.2h37.1v-23.3H51.2c-9.9,0-18,8.1-18,18V259.2z"/>
	
		<rect x="33.2" y="255.3" transform="matrix(-1 -5.103929e-11 5.103929e-11 -1 103.5458 514.4805)" class="st6" width="37.1" height="3.9"/>
	
		<rect x="33.2" y="257.2" transform="matrix(-1 -5.094159e-11 5.094159e-11 -1 103.5458 515.4556)" class="st6" width="37.1" height="1"/>
	<g>
		<path class="st6" d="M47.8,237.6c-0.4,1.5,0.2,3.2,1.1,4.5c0.9,1.2,2.2,2.1,3.4,2.9"/>
		<g>
			<path class="st7" d="M46.8,237.3c-0.4,1.7,0,3.6,1,5c1,1.5,2.4,2.5,3.9,3.5c0.5,0.3,1.1,0.1,1.4-0.4c0.3-0.5,0.1-1.1-0.4-1.4
				c-1.1-0.7-2.3-1.5-3.1-2.6c-0.8-1.1-1.2-2.4-0.9-3.6c0.1-0.5-0.2-1.1-0.7-1.2C47.6,236.5,47,236.8,46.8,237.3L46.8,237.3z"/>
		</g>
	</g>
	<g>
		<path class="st6" d="M42.3,239.2c-0.4,1.5,0.2,3.2,1.1,4.5c0.9,1.2,2.2,2.1,3.4,2.9"/>
		<g>
			<path class="st7" d="M41.4,238.9c-0.4,1.7,0,3.6,1,5c1,1.5,2.4,2.5,3.9,3.5c0.5,0.3,1.1,0.1,1.4-0.4c0.3-0.5,0.1-1.1-0.4-1.4
				c-1.1-0.7-2.3-1.5-3.1-2.6c-0.8-1.1-1.2-2.4-0.9-3.6c0.1-0.5-0.2-1.1-0.7-1.2C42.1,238.1,41.5,238.4,41.4,238.9L41.4,238.9z"/>
		</g>
	</g>
	<g>
		<path class="st6" d="M38.6,242.4c-0.4,1.5,0.2,3.2,1.1,4.5c0.9,1.2,2.2,2.1,3.4,2.9"/>
		<g>
			<path class="st7" d="M37.7,242.1c-0.4,1.7,0,3.6,1,5c1,1.5,2.4,2.5,3.9,3.5c0.5,0.3,1.1,0.1,1.4-0.4c0.3-0.5,0.1-1.1-0.4-1.4
				c-1.1-0.7-2.3-1.5-3.1-2.6c-0.8-1.1-1.2-2.4-0.9-3.6c0.1-0.5-0.2-1.1-0.7-1.2C38.4,241.3,37.8,241.6,37.7,242.1L37.7,242.1z"/>
		</g>
	</g>
</g>
<rect x="54.6" y="224.3" class="st6" width="15.8" height="14.9"/>
<rect x="78.1" y="224.3" class="st6" width="15.8" height="14.9"/>
<path class="st8" d="M55.9,229.1H69c1.7,0,3-1.3,3-3v-1.3c0-1.7-1.3-3-3-3H55.9c-1.7,0-3,1.3-3,3v1.3
	C52.9,227.8,54.2,229.1,55.9,229.1z"/>
<path class="st8" d="M92.5,229.1H79.4c-1.7,0-3-1.3-3-3v-1.3c0-1.7,1.3-3,3-3h13.1c1.7,0,3,1.3,3,3v1.3
	C95.5,227.8,94.2,229.1,92.5,229.1z"/>
<path class="st9" d="M77.9,171h-7.4c-2.1,0-3.7-1.7-3.7-3.7v-4c0-2.1,1.7-3.7,3.7-3.7h7.4c2.1,0,3.7,1.7,3.7,3.7v4
	C81.7,169.3,80,171,77.9,171z"/>
<rect x="78.1" y="253.9" class="st10" width="36.2" height="5.2"/>
<rect x="33.2" y="253.9" class="st10" width="37.1" height="5.2"/>
<path class="st5" d="M64.1,104.3c-8.5-3.4-14.6-11.7-14.6-21.4v-38c0-10.5,8.5-19,19-19h12c10.5,0,19,8.5,19,19v38
	c0,9.7-6,18-14.6,21.4"/>
<ellipse cx="74.9" cy="87.2" rx="7.8" ry="4.6"/>
<path class="st11" d="M75.6,68.4h-2.1c-0.6,0-1-0.5-1-1v-6c0-0.6,0.4-1,1-1h2.1c0.6,0,1,0.4,1,1v6C76.6,67.9,76.1,68.4,75.6,68.4z"
	/>
<path class="st12" d="M101.6,65.4h-2.1v-9.4h2.1c1.1,0,2,0.9,2,2v5.4C103.6,64.5,102.7,65.4,101.6,65.4z"/>
<path class="st12" d="M47.6,56.1h2.1v9.4h-2.1c-1.1,0-2-0.9-2-2v-5.4C45.6,56.9,46.5,56.1,47.6,56.1z"/>
<path class="st13" d="M74.7,109.8c0,0-25-8.3-25-19.8s13.1,1,25,1s24.1-12.7,24.1-1.1S74.7,109.8,74.7,109.8"/>
<g>
	<g>
		<g>
			<g>
				<path class="st14" d="M74.6,77.9c-0.8-1.1-1.4-2.5-1-4c0.1-0.4,0.2-0.8,0.5-1.2c0.2-0.4,0.6-0.8,0.9-1.2
					c0.4-0.4,0.9-0.7,1.4-1.1c0.6-0.3,1.2-0.6,1.9-0.8c0.3-0.1,0.7-0.2,1.1-0.3c0.3-0.1,0.7-0.1,1.1-0.1c0.4,0,0.8-0.1,1.1,0
					c0.4,0,0.7,0,1.1,0.1c0.8,0.1,1.4,0.2,2.1,0.4c0.7,0.2,1.3,0.4,2,0.6c2.5,1,4.5,2.4,6,3.9c0.8,0.8,1.6,1.9,2.3,3.1
					c0.7,1.2,1.3,2.5,1.9,3.8c0.6,1.3,1.1,2.7,1.6,3.8c0.5,1.2,0.9,2.1,1,2.7c0,0.1,0.1,0.4,0.1,0.5c0,0.1,0,0.2,0.1,0.2
					c0,0.1,0.1,0.1,0.1,0.2c0.2,0.3,0.6,0.5,1.1,0.5c1,0,2.1-0.5,3-1.1c0.9-0.6,1.6-1.3,2.1-1.7c0.5-0.5,0.7-0.8,0.7-0.8
					s0,0.4,0.1,1.1c0,0.7,0,1.7-0.2,3c-0.2,1.3-0.6,2.9-1.9,4.7c-0.7,0.9-1.7,1.7-2.9,2.4c-1.3,0.7-2.8,1-4.4,1c-3,0-5.6-1-7.6-1.9
					c-2.1-0.9-3.8-1.9-5.4-2.9c-1.5-0.9-2.8-1.8-3.8-2.5c-1-0.7-1.7-1.2-2.2-1.7c-1-1-1.5-1.8-1.6-2.5c0-0.1-0.1-0.4,0-0.5l0.1-0.2
					c0.1-0.4,0.3-0.6,0.4-0.9c0.1-0.3,0.2-0.6,0.3-0.9c0.1-0.3,0.1-0.4,0.2-0.6c0-0.2,0.1-0.4,0.1-0.6c0-0.1,0-0.2,0-0.3
					c0-0.1,0-0.2,0-0.3c0,0,0,0,0,0c0,0,0-0.1,0,0.1c0,0.1,0,0.1,0.1,0.2c0-0.1-0.1-0.3-0.2-0.4c-0.1-0.3-0.3-0.5-0.5-0.7
					C76.5,79.8,75.4,79,74.6,77.9z"/>
			</g>
		</g>
	</g>
	<g>
		<g>
			<g>
				<path class="st14" d="M75.9,77.9c-0.9,1.1-2,1.9-2.8,2.9c-0.2,0.2-0.4,0.5-0.5,0.7c-0.1,0.2-0.3,0.7-0.2,0.4c0,0,0.1-0.2,0-0.2
					c0,0,0,0,0,0s0,0,0,0c0,0.1,0,0.2,0,0.2c0,0.1,0,0.2,0,0.2c0,0.1,0,0.3,0,0.5c0,0.2,0.1,0.3,0.1,0.5c0.1,0.3,0.1,0.6,0.2,0.8
					c0.2,0.5,0.4,1,0.5,1.4c0.1,0.1,0,0.3,0,0.5c-0.1,0.6-0.6,1.4-1.6,2.3c-0.5,0.5-1.2,1-2.2,1.7c-1,0.7-2.4,1.6-3.9,2.5
					c-1.6,0.9-3.3,1.9-5.5,2.8c-0.6,0.2-1.1,0.4-1.7,0.6L57.5,96l-1,0.3c-0.6,0.2-1.4,0.3-2.1,0.4c-0.3,0-0.8,0.1-1.1,0.1
					c-0.4,0-0.7,0-1.1,0c-1.5-0.1-3.1-0.6-4.3-1.3c-0.6-0.4-1.1-0.8-1.6-1.2c-0.4-0.4-0.8-0.9-1.1-1.3c-1.2-1.8-1.5-3.4-1.7-4.7
					c-0.2-1.3-0.1-2.3-0.1-3c0-0.7,0.1-1.1,0.1-1.1s0.3,0.3,0.7,0.8c0.5,0.5,1.2,1.1,2.1,1.7c0.9,0.6,2,1.2,3,1.2
					c0.2,0,0.5,0,0.7-0.1c0.2-0.1,0.4-0.2,0.5-0.3c0.1-0.2,0.2-0.2,0.3-0.4c0-0.1,0.1-0.3,0.1-0.5c0.1-0.6,0.4-1.5,0.9-2.6
					c0.5-1.1,1-2.4,1.6-3.7c0.6-1.3,1.2-2.6,2-3.8c0.7-1.2,1.6-2.3,2.4-3c1.6-1.5,3.6-2.9,6.2-3.8c0.7-0.2,1.3-0.4,2-0.6
					c0.4-0.1,0.7-0.1,1.1-0.2c0.3-0.1,0.8-0.1,1.1-0.1c0.4,0,0.7,0,1.1,0c0.4,0,0.8,0.1,1.2,0.1c0.4,0,0.7,0.1,1.1,0.2
					c0.4,0.1,0.7,0.2,1.1,0.3c0.3,0.1,0.7,0.2,1,0.4c0.3,0.2,0.6,0.3,0.9,0.5c0.5,0.4,1,0.7,1.4,1.1c0.4,0.4,0.7,0.8,0.9,1.2
					c0.2,0.4,0.3,0.8,0.4,1.2C77.3,75.5,76.7,76.9,75.9,77.9z"/>
			</g>
		</g>
	</g>
</g>
<g>
	<path class="st15" d="M65.1,67.4h-5c-3.8,0-7-3.1-7-7v-5c0-3.8,3.1-7,7-7h5c3.8,0,7,3.1,7,7v5C72.1,64.2,69,67.4,65.1,67.4z"/>
	<path class="st15" d="M88.9,67.4h-5c-3.8,0-7-3.1-7-7v-5c0-3.8,3.1-7,7-7h5c3.8,0,7,3.1,7,7v5C95.9,64.2,92.7,67.4,88.9,67.4z"/>
	<rect x="71.5" y="57.1" width="5.9" height="1.7"/>
</g>
<path class="st16" d="M99.7,41.8h-50v0c0-16.5,13.5-30,30-30h20c8.2,0,15,6.7,15,15v0C114.7,35,108,41.8,99.7,41.8z"/>
<rect x="146.1" y="178.9" class="st17" width="6.4" height="79.2"/>
<rect x="241" y="178.9" class="st17" width="6.4" height="79.2"/>
<rect x="191.5" y="118.4" transform="matrix(6.123234e-17 -1 1 6.123234e-17 21.8207 370.3631)" class="st18" width="9.2" height="111.6"/>
<polygon class="st19" points="166.1,178.9 152.6,194.5 152.6,199.4 170.4,178.9 "/>
<polygon class="st19" points="227.4,178.9 241,194.5 241,199.4 223.2,178.9 "/>
<polygon class="st20" points="140.5,169.7 141.5,165.2 142.8,162 144.6,159.5 145.4,155.8 146.6,154.8 149.2,153.5 150.8,153.5 
	152.4,154.3 154,156.9 155,159.1 155.4,161.6 157,163.2 157,165.2 157,167.3 157.7,168.1 158.2,169.7 "/>
<polygon class="st21" points="144.4,169.7 145.2,165.2 147,165 147.8,163.2 148.3,159.9 149.5,157.8 151.9,157.1 152.9,155.2 
	154.3,154.2 157.3,154.2 158.5,154.9 158.5,156.6 161,159.7 160.2,161.6 163,163.2 164.2,161.6 165.2,159.5 166.2,159.7 
	167.2,160.8 167.2,162.7 168,164.2 170.3,165.2 170.9,166.7 172,168.6 172,169.7 "/>
<path class="st21" d="M181,169.7l-0.6-3.1l1.4-2.4l2.4-2.6l0.9-3.1l0.8-3.1l1.2-1.1h2l1.3-1.4l1.3-1.4h1.4l1.9-2.5h2l1.9,1.6l1.7,2
	v1.8l0.8,1.7l1.3,0.2v1.9l1.5,2c0,0,0,1.5,0,1.8c0,0.3,0,1.3,0,1.3l1.7,1.3c0,0-0.5,1.7,0,2.3c0.5,0.6,1,1.3,1,1.3l0.8,1.5H181z"/>
<polygon class="st22" points="194.2,169.7 196,169.1 196,167.9 197.3,166.9 198.4,165.2 202.3,163.2 202.3,161.6 203.9,159.9 
	207.4,159.9 208.6,161.6 210.2,162 212,164.1 213.4,165.8 214.1,165.8 215.2,167.8 215.2,169.7 "/>
<polygon class="st22" points="206.5,169.7 210,168.5 212.5,168.5 213.4,167.2 214,165.2 214.9,164.1 216.3,163.2 216.3,161.6 
	217.1,159.9 218.3,159.3 220.2,159.9 221.2,160.7 221.2,162 222.4,163.8 223.1,165.2 223.1,166.6 223.8,167.9 224.9,169.7 "/>
<polygon class="st23" points="216.5,169.7 218.2,168.4 219.7,167.3 221.5,167.3 224.1,167.3 226.7,167.3 227.7,167.3 229.3,167.3 
	230.5,167.9 232.7,168.5 234.5,168.5 235.8,167.3 236.5,165.8 237.3,164.5 238.9,163.9 239.6,165 239.6,165.8 239.1,168 
	239.6,169.7 "/>
<polygon class="st24" points="208.1,160.4 191.2,152 191.7,151.4 210,160.4 "/>
<polygon class="st24" points="223.1,165.9 216.3,162.6 216.3,161.7 223.1,165.2 "/>
</svg>
