<?xml version="1.0" encoding="utf-8"?>
<!-- Generator: Adobe Illustrator 24.0.1, SVG Export Plug-In . SVG Version: 6.00 Build 0)  -->
<svg version="1.1" id="Layer_1" xmlns="http://www.w3.org/2000/svg" xmlns:xlink="http://www.w3.org/1999/xlink" x="0px" y="0px"
	 viewBox="0 0 280 270" style="enable-background:new 0 0 280 270;" xml:space="preserve">
<style type="text/css">
	.st0{fill:#D6CEC7;}
	.st1{fill:#EC873A;}
	.st2{fill:#484545;}
	.st3{fill:#BAA9A7;}
	.st4{fill:#FCCCA5;}
	.st5{fill:#ABC1E4;}
	.st6{fill:#2A241D;}
	.st7{fill:#68809B;}
	.st8{fill:#242962;}
	.st9{fill:#231F20;}
	.st10{fill:#EF4923;}
	.st11{fill:#F3E91C;}
	.st12{fill:#FAED3A;stroke:#110A09;stroke-miterlimit:10;}
	.st13{fill:#110A09;}
	.st14{fill:#808D99;stroke:#231F20;stroke-miterlimit:10;}
	.st15{fill:#050505;}
	.st16{fill:#8B8074;}
	.st17{fill:#7D5F32;}
	.st18{fill:#9E9388;}
	.st19{fill:#9ED8DD;}
	.st20{fill:#EE4223;}
	.st21{fill:#EE4323;}
	.st22{fill:#EE4423;}
	.st23{fill:#FFFFFF;}
	.st24{fill:#ECA133;}
	.st25{fill:#D7CFC8;}
</style>
<path class="st0" d="M263.6,203.78h-135.5c-6.6,0-12-5.4-12-12v-71.84c0-6.6,5.4-12,12-12h135.5c6.6,0,12,5.4,12,12v71.84
	C275.6,198.38,270.2,203.78,263.6,203.78z"/>
<polygon class="st1" points="142.85,161.76 141.37,162.02 141.46,156.25 143.43,156.33 "/>
<polygon class="st2" points="140.55,187.66 132.7,187.66 130.14,152.29 141.68,152.29 "/>
<path class="st3" d="M188.77,139.52l-0.01-4.91c0,0,0.01,0,0.01,0c2.7,0,4.91,2.22,4.91,4.91s-2.22,4.91-4.91,4.91V139.52z"/>
<path class="st4" d="M53.91,108.7h-13.6c-1.96,0-3.56-1.6-3.56-3.56V88.16c0-1.96,1.6-3.56,3.56-3.56h13.6
	c1.96,0,3.56,1.6,3.56,3.56v16.97C57.47,107.09,55.87,108.7,53.91,108.7z"/>
<path class="st5" d="M67.44,171.14H26.8c-3.49,0-6.35-2.86-6.35-6.35v-52.4c0-3.49,2.86-6.35,6.35-6.35h40.64
	c3.49,0,6.35,2.86,6.35,6.35v52.4C73.79,168.28,70.93,171.14,67.44,171.14z"/>
<g>
	<path class="st6" d="M90.12,262.81H49.96v-22.22h22.16c9.9,0,18,8.1,18,18V262.81z"/>
	<rect x="49.96" y="259.1" class="st6" width="40.16" height="3.71"/>
	<rect x="49.96" y="260.96" class="st6" width="40.16" height="0.93"/>
</g>
<path class="st7" d="M64.98,235.57H49.96v-65.17c0-3.3,2.7-6,6-6h3.02c3.3,0,6,2.7,6,6V235.57z"/>
<rect x="49.96" y="222.99" class="st8" width="15.02" height="14.24"/>
<path class="st8" d="M63.57,227.5H51.37c-1.66,0-3-1.34-3-3v-0.95c0-1.66,1.34-3,3-3h12.19c1.66,0,3,1.34,3,3v0.95
	C66.57,226.15,65.23,227.5,63.57,227.5z"/>
<g>
	<path class="st6" d="M2.44,262.81H42.6v-22.22H20.44c-9.9,0-18,8.1-18,18V262.81z"/>
	
		<rect x="2.44" y="259.1" transform="matrix(-1 -4.493529e-11 4.493529e-11 -1 45.0427 521.9133)" class="st6" width="40.16" height="3.71"/>
	
		<rect x="2.44" y="260.96" transform="matrix(-1 -4.488999e-11 4.488999e-11 -1 45.0427 522.842)" class="st6" width="40.16" height="0.93"/>
</g>
<path class="st7" d="M27.58,236.67H42.6v-66.27c0-3.3-2.7-6-6-6h-3.02c-3.3,0-6,2.7-6,6V236.67z"/>
<rect x="27.58" y="224.02" transform="matrix(-1 -3.306789e-11 3.306789e-11 -1 70.1821 461.394)" class="st8" width="15.02" height="13.35"/>
<path class="st8" d="M28.99,227.5h12.19c1.66,0,3-1.34,3-3v-0.95c0-1.66-1.34-3-3-3H28.99c-1.66,0-3,1.34-3,3v0.95
	C25.99,226.15,27.34,227.5,28.99,227.5z"/>
<rect x="19.36" y="163.74" class="st9" width="53.33" height="7.4"/>
<circle class="st4" cx="76.56" cy="164.63" r="8.94"/>
<path class="st4" d="M76.95,164.63h-2.31c-3.49,0-6.35-2.86-6.35-6.35v-7.85c0-3.49,2.86-6.35,6.35-6.35h2.31
	c3.49,0,6.35,2.86,6.35,6.35v7.85C83.3,161.78,80.44,164.63,76.95,164.63z"/>
<circle class="st4" cx="16.93" cy="164.63" r="8.94"/>
<path class="st4" d="M19.51,166.53H17.2c-3.49,0-6.35-2.86-6.35-6.35v-23.97c0-3.49,2.86-6.35,6.35-6.35h2.31
	c3.49,0,6.35,2.86,6.35,6.35v23.97C25.87,163.67,23.01,166.53,19.51,166.53z"/>
<path class="st5" d="M77.25,107.61h-2.92c-3.33,0-6.05,8.47-6.05,18.82v29.96H83.3v-29.96C83.3,116.08,80.58,107.61,77.25,107.61z"
	/>
<path class="st5" d="M19.82,108.41H16.9c-3.33,0-6.05,8.77-6.05,19.49v31.03h15.02V127.9C25.87,117.18,23.15,108.41,19.82,108.41z"
	/>
<path class="st4" d="M46.41,115.42l-9.65-9.71h20.71l-9.65,9.71C47.43,115.82,46.8,115.82,46.41,115.42z"/>
<rect x="27.6" y="233.75" class="st6" width="15" height="10.02"/>
<rect x="49.97" y="233.75" class="st6" width="15" height="10.02"/>
<path class="st10" d="M32.25,106.03h-5.81c-0.56,0-1.01,0.46-1,1.02l1.3,58.5c0.01,0.54,0.46,0.98,1,0.98H43.7
	c0.57,0,1.02-0.47,1-1.03l-1.66-47.99c-0.01-0.25-0.11-0.48-0.28-0.66L32.25,106.03z"/>
<path class="st11" d="M34.07,166.53l-5.57-0.01l-1.38-59.02c-0.03-1.09,0.81-2.01,1.86-2.03l1.79-0.04
	c1.05-0.02,1.93,0.85,1.95,1.95L34.07,166.53z"/>
<path class="st10" d="M61.97,106.03h5.81c0.56,0,1.01,0.46,1,1.02l-1.3,58.5c-0.01,0.54-0.46,0.98-1,0.98H50.52
	c-0.57,0-1.02-0.47-1-1.03l1.66-47.99c0.01-0.25,0.11-0.48,0.28-0.66L61.97,106.03z"/>
<path class="st11" d="M60.16,166.53l5.57-0.01l1.38-59.02c0.03-1.09-0.81-2.01-1.86-2.03l-1.79-0.04c-1.05-0.02-1.93,0.85-1.95,1.95
	L60.16,166.53z"/>
<path class="st4" d="M51.03,96.44H43.2c-10.45,0-19-8.55-19-19v-24.1c0-8.12,6.65-14.77,14.77-14.77h16.29
	c8.12,0,14.77,6.65,14.77,14.77v24.1C70.03,87.89,61.48,96.44,51.03,96.44z"/>
<path class="st12" d="M47.42,53.1H20.48c0-16.99,12.16-30.97,26.94-30.97S74.36,36.11,74.36,53.1c0,0.01,0,0.02,0,0.02L47.42,53.1z"
	/>
<rect x="18.36" y="49.98" class="st12" width="57.43" height="3.49"/>
<g>
	<g>
		<path class="st13" d="M50.39,28.47c1.86,1.03,3.72,2.05,5.58,3.08c1.65,0.91,3.25,1.85,4.52,3.26c1.26,1.39,2.22,3.04,3.18,4.64
			c1.05,1.74,2.01,3.54,2.72,5.45c0.33,0.9,1.78,0.51,1.45-0.4c-0.72-1.94-1.66-3.77-2.71-5.54c-1.02-1.72-2.07-3.47-3.38-4.98
			c-1.26-1.46-2.85-2.5-4.52-3.43c-2.02-1.13-4.05-2.24-6.08-3.36C50.3,26.71,49.55,28,50.39,28.47L50.39,28.47z"/>
	</g>
</g>
<g>
	<g>
		<path class="st13" d="M50.64,35.56c3.94,2.91,7,6.98,8.7,11.58c0.33,0.9,1.78,0.51,1.45-0.4c-1.85-4.99-5.11-9.31-9.39-12.47
			C50.62,33.69,49.87,34.99,50.64,35.56L50.64,35.56z"/>
	</g>
</g>
<g>
	<g>
		<path class="st13" d="M42.87,27.17c-1.99,1.1-3.97,2.19-5.96,3.29c-1.72,0.96-3.35,2.01-4.64,3.5c-1.28,1.48-2.3,3.18-3.3,4.85
			c-1.08,1.82-2.06,3.69-2.79,5.67c-0.34,0.91,1.11,1.3,1.45,0.4c0.69-1.86,1.62-3.61,2.64-5.31c0.98-1.65,1.97-3.34,3.26-4.77
			c1.24-1.38,2.79-2.3,4.4-3.19c1.9-1.05,3.8-2.1,5.7-3.15C44.47,28,43.71,26.71,42.87,27.17L42.87,27.17z"/>
	</g>
</g>
<g>
	<g>
		<path class="st13" d="M43.74,33.5c-4.28,3.16-7.54,7.48-9.39,12.47c-0.34,0.91,1.11,1.3,1.45,0.4c1.7-4.59,4.76-8.67,8.7-11.58
			C45.27,34.23,44.52,32.93,43.74,33.5L43.74,33.5z"/>
	</g>
</g>
<g>
	<g>
		<path class="st13" d="M46.79,37.62c0.04,3.33,0.09,6.67,0.13,10c0.01,0.96,1.51,0.97,1.5,0c-0.04-3.33-0.09-6.67-0.13-10
			C48.28,36.66,46.78,36.65,46.79,37.62L46.79,37.62z"/>
	</g>
</g>
<path class="st14" d="M38.49,203.78H31.7c-1.65,0-3-1.35-3-3v-6.15c0-1.65,1.35-3,3-3h6.79c1.65,0,3,1.35,3,3v6.15
	C41.49,202.44,40.14,203.78,38.49,203.78z"/>
<path class="st14" d="M60.87,203.78h-6.79c-1.65,0-3-1.35-3-3v-6.15c0-1.65,1.35-3,3-3h6.79c1.65,0,3,1.35,3,3v6.15
	C63.86,202.44,62.52,203.78,60.87,203.78z"/>
<circle class="st15" cx="37.26" cy="63.45" r="2.86"/>
<circle class="st15" cx="56.65" cy="63.45" r="2.86"/>
<path class="st16" d="M47.67,75.53L47.67,75.53c-1.05,0-1.9-0.86-1.9-1.9v-3.49c0-1.05,0.86-1.9,1.9-1.9h0c1.05,0,1.9,0.86,1.9,1.9
	v3.49C49.58,74.67,48.72,75.53,47.67,75.53z"/>
<path class="st17" d="M41.84,58.06L41.84,58.06c0.03,0.76-0.57,1.4-1.33,1.43l-7.08,0.25c-0.76,0.03-1.4-0.57-1.43-1.33v0
	c-0.03-0.76,0.57-1.4,1.33-1.43l7.08-0.25C41.17,56.7,41.81,57.3,41.84,58.06z"/>
<path class="st17" d="M51.73,58.06L51.73,58.06c-0.03,0.76,0.57,1.4,1.33,1.43l7.08,0.25c0.76,0.03,1.4-0.57,1.43-1.33v0
	c0.03-0.76-0.57-1.4-1.33-1.43l-7.08-0.25C52.4,56.7,51.76,57.3,51.73,58.06z"/>
<path class="st18" d="M72.93,69.34h-2.9v-7.67h2.9c1.1,0,2,0.9,2,2v3.67C74.93,68.44,74.04,69.34,72.93,69.34z"/>
<path class="st18" d="M21.36,70.15h2.9v-7.67h-2.9c-1.1,0-2,0.9-2,2v3.67C19.36,69.25,20.25,70.15,21.36,70.15z"/>
<g>
	<g>
		<path class="st9" d="M38.07,84.52c1.54,1.39,3.43,2.04,5.47,2.31c2.19,0.29,4.5,0.34,6.69,0.05c4.49-0.6,7.15-3.83,9.58-7.34
			c0.74-1.06-1-2.06-1.73-1.01c-2.08,3-4.33,5.92-8.2,6.4c-1.77,0.22-3.62,0.17-5.39,0.01c-1.8-0.16-3.63-0.6-5-1.83
			C38.53,82.25,37.11,83.66,38.07,84.52L38.07,84.52z"/>
	</g>
</g>
<g>
	<g>
		<path class="st9" d="M59.15,75.52c0.18,0.11,0.35,0.23,0.51,0.36c-0.07-0.05-0.13-0.1-0.2-0.16c0.49,0.38,0.94,0.83,1.32,1.32
			c-0.05-0.07-0.1-0.13-0.16-0.2c0.21,0.28,0.4,0.57,0.57,0.87c0.26,0.46,0.92,0.65,1.37,0.36c0.46-0.3,0.63-0.88,0.36-1.37
			c-0.67-1.18-1.63-2.18-2.76-2.91c-0.44-0.28-1.12-0.1-1.37,0.36C58.53,74.65,58.68,75.22,59.15,75.52L59.15,75.52z"/>
	</g>
</g>
<g>
	<g>
		<path class="st9" d="M42.04,90.32c2.25,0.89,4.7,1.26,7.11,1.08c0.54-0.04,1-0.43,1-1c0-0.51-0.46-1.04-1-1
			c-2.28,0.17-4.45-0.17-6.58-1.01c-0.5-0.2-1.1,0.22-1.23,0.7C41.18,89.66,41.53,90.12,42.04,90.32L42.04,90.32z"/>
	</g>
</g>
<path class="st19" d="M126.01,129.74v21.85c0,1.72,1.38,3.12,3.09,3.14c25.75,0.28,47.98,4.07,59.66,9.56V119.5
	c-13.07,4.38-33.63,7.21-56.75,7.21c-0.98,0-1.96-0.01-2.93-0.02C127.39,126.67,126.01,128.05,126.01,129.74z"/>
<path class="st20" d="M186.82,165.63L186.82,165.63c-1.07,0-1.95-0.88-1.95-1.95v-44.11c0-1.07,0.88-1.95,1.95-1.95h0
	c1.07,0,1.95,0.88,1.95,1.95v44.11C188.76,164.75,187.89,165.63,186.82,165.63z"/>
<path class="st21" d="M154.89,125.72c-7.19,0.62-14.87,0.97-22.88,0.97c-0.98,0-1.96-0.01-2.93-0.02c-1.69-0.02-3.07,1.36-3.07,3.05
	v21.85c0,1.72,1.38,3.12,3.09,3.14c9.15,0.1,17.84,0.64,25.79,1.55V125.72z"/>
<path class="st2" d="M142.3,187.66h-9.21c-0.85,0-1.55-0.7-1.55-1.55v0c0-0.85,0.7-1.55,1.55-1.55h9.21c0.85,0,1.55,0.7,1.55,1.55v0
	C143.85,186.96,143.15,187.66,142.3,187.66z"/>
<path class="st3" d="M126.01,144.44h-0.61c-1.65,0-3-1.35-3-3v-1.5c0-1.65,1.35-3,3-3h0.61V144.44z"/>
<path class="st22" d="M253.41,198.92h-42.19c-3.9,0-7.09-3.19-7.09-7.09v-60.08c0-3.9,3.19-7.09,7.09-7.09h42.19
	c3.9,0,7.09,3.19,7.09,7.09v60.08C260.5,195.73,257.31,198.92,253.41,198.92z"/>
<rect x="207.35" y="128.05" class="st23" width="49.93" height="68.58"/>
<path class="st24" d="M249.39,130.05h-34.14c-1.65,0-3-1.35-3-3v-0.5c0-1.65,1.35-3,3-3h34.14c1.65,0,3,1.35,3,3v0.5
	C252.39,128.7,251.04,130.05,249.39,130.05z"/>
<circle class="st24" cx="232.32" cy="122.34" r="7.71"/>
<circle class="st0" cx="232.32" cy="120.88" r="3.77"/>
<path class="st25" d="M253.94,136.52h-43.24c-1.05,0-1.9-0.86-1.9-1.9l0,0c0-1.05,0.86-1.9,1.9-1.9h43.24c1.05,0,1.9,0.86,1.9,1.9
	l0,0C255.84,135.66,254.98,136.52,253.94,136.52z"/>
<path class="st25" d="M253.94,142.99h-43.24c-1.05,0-1.9-0.86-1.9-1.9l0,0c0-1.05,0.86-1.9,1.9-1.9h43.24c1.05,0,1.9,0.86,1.9,1.9
	l0,0C255.84,142.13,254.98,142.99,253.94,142.99z"/>
<path class="st25" d="M253.94,149.46h-43.24c-1.05,0-1.9-0.86-1.9-1.9l0,0c0-1.05,0.86-1.9,1.9-1.9h43.24c1.05,0,1.9,0.86,1.9,1.9
	l0,0C255.84,148.6,254.98,149.46,253.94,149.46z"/>
<path class="st25" d="M254.23,155.93h-43.24c-1.05,0-1.9-0.86-1.9-1.9l0,0c0-1.05,0.86-1.9,1.9-1.9h43.24c1.05,0,1.9,0.86,1.9,1.9
	l0,0C256.14,155.07,255.28,155.93,254.23,155.93z"/>
<path class="st25" d="M254.23,162.4h-43.24c-1.05,0-1.9-0.86-1.9-1.9l0,0c0-1.05,0.86-1.9,1.9-1.9h43.24c1.05,0,1.9,0.86,1.9,1.9
	l0,0C256.14,161.54,255.28,162.4,254.23,162.4z"/>
<path class="st25" d="M240.3,168.87h-29.3c-1.05,0-1.9-0.86-1.9-1.9v0c0-1.05,0.86-1.9,1.9-1.9h29.3c1.05,0,1.9,0.86,1.9,1.9v0
	C242.2,168.01,241.34,168.87,240.3,168.87z"/>
</svg>
