<?xml version="1.0" encoding="utf-8"?>
<!-- Generator: Adobe Illustrator 24.0.1, SVG Export Plug-In . SVG Version: 6.00 Build 0)  -->
<svg version="1.1" id="Layer_1" xmlns="http://www.w3.org/2000/svg" xmlns:xlink="http://www.w3.org/1999/xlink" x="0px" y="0px"
	 viewBox="0 0 280 270" style="enable-background:new 0 0 280 270;" xml:space="preserve">
<style type="text/css">
	.st0{fill:#DDDFE0;}
	.st1{fill:#FFF000;}
	.st2{fill:#A78956;}
	.st3{fill:#8A5D3B;}
	.st4{fill:#F6921E;}
	.st5{fill:#231F20;}
	.st6{fill:#D8BD9D;}
	.st7{fill:#A87C4F;}
	.st8{fill:#D0D2D3;}
	.st9{fill:none;stroke:#111042;stroke-width:0.75;stroke-miterlimit:10;}
	.st10{fill:#603813;}
	.st11{fill:#3B2314;}
	.st12{fill:#58595B;}
	.st13{fill:#FCB614;stroke:#231F20;stroke-miterlimit:10;}
	.st14{fill:#6D6E70;}
	.st15{fill:none;stroke:#58595B;stroke-width:5;stroke-miterlimit:10;}
	.st16{fill:#DEADCF;}
	.st17{fill:#E51C43;}
	.st18{fill:#F39984;}
	.st19{fill:#3E5724;}
	.st20{fill:#817669;}
</style>
<path class="st0" d="M252,187H121.6c-6.6,0-12-5.4-12-12V99.1c0-6.6,5.4-12,12-12H252c6.6,0,12,5.4,12,12V175
	C264,181.6,258.6,187,252,187z"/>
<rect x="221" y="171.8" class="st1" width="38.9" height="2.6"/>
<path class="st2" d="M237,174.4h-29.6v-22.5c0,0,20.4,15.4,28.6,15.4C240.3,167.3,237,174.4,237,174.4z"/>
<g>
	<g>
		<g>
			<path class="st3" d="M79.8,23.2c-3,14.8-4.2,29.4,3.8,42.9c1.8,3,1.4-0.1,0.4-1.7c-6.7-11.1-4.2-25.1-1.7-37.1
				C82.6,26,79.8,23,79.8,23.2L79.8,23.2z"/>
		</g>
	</g>
	<g>
		<g>
			<path class="st3" d="M81,38.9c0,7.3,0,14.7,0,22c0,1.9,4.2,4.4,4.2,1.8c0-7.3,0-14.7,0-22C85.2,38.8,81,36.3,81,38.9L81,38.9z"/>
		</g>
	</g>
	<g>
		<g>
			<path class="st3" d="M82.2,45.6c-1,5.3-0.4,10.5,1.6,15.4c0.4,1,1.5,1.9,2.6,2.3c0.5,0.2,2,0.5,1.5-0.6C86,58,85.5,53.1,86.4,48
				C86.7,46.6,82.5,44.1,82.2,45.6L82.2,45.6z"/>
		</g>
	</g>
	<g>
		<g>
			<path class="st3" d="M79,42.1c-1.7,7.6-0.5,15.2,3.6,21.8c1.4,2.3,5.8,1.6,4.1-1.2c-3.5-5.6-4.7-12-3.3-18.5
				C84,41.8,79.5,39.4,79,42.1L79,42.1z"/>
		</g>
	</g>
	<g>
		<g>
			<path class="st3" d="M80.5,55.6c-2.4,6.1,0.3,11.9,4.9,16.1c1.1,1,5.4,1.8,3-0.3c-3.9-3.5-5.5-8.5-3.5-13.4
				C85.5,56.6,81,54.4,80.5,55.6L80.5,55.6z"/>
		</g>
	</g>
	<g>
		<g>
			<path class="st3" d="M80.9,55.2c-0.6,3.4-0.3,6.6,0.7,9.9c0.3,1.1,1.3,2.2,2.4,2.6c0.9,0.3,1.5-0.1,1.2-1.1
				c-0.9-2.7-1.1-5.4-0.6-8.2c0.2-1.1-0.7-2.2-1.5-2.8C82.8,55.3,81.1,54.2,80.9,55.2L80.9,55.2z"/>
		</g>
	</g>
	<g>
		<g>
			<path class="st3" d="M83.7,56.6c-2.1-1.1-4.6-0.8-5.5,1.7c-0.9,2.6-0.5,6.1-0.4,8.8c0.1,2,4.8,3.7,4.6,1.5
				c-0.1-1.7-0.1-3.4,0-5.1c0-0.7,0.1-1.5,0.1-2.2c0-0.4,0.1-0.9,0.2-1.3c0.6-0.6,0.4-0.8-0.6-0.7c0.8,0.4,2.4,0.8,2.9-0.2
				C85.7,58.1,84.4,57,83.7,56.6L83.7,56.6z"/>
		</g>
	</g>
	<g>
		<g>
			<path class="st3" d="M75.3,61.7c0,3.1-0.3,6.1-1,9.1c-0.5,2,4.2,3.9,4.6,2c0.7-3.3,1.1-6.5,1.1-9.9C80,61,75.3,59.5,75.3,61.7
				L75.3,61.7z"/>
		</g>
	</g>
	<g>
		<g>
			<path class="st3" d="M75.2,53.9c0.3,3.4,0,6.8-0.9,10.1c-0.6,2.2,4.3,1.6,4.9-0.4c1-3.6,1.3-7.2,0.9-10.9
				C79.8,50.6,74.9,51.7,75.2,53.9L75.2,53.9z"/>
		</g>
	</g>
	<g>
		<g>
			<path class="st3" d="M74.3,55.5c-0.4,3.8-0.5,7.7-0.3,11.5c0.1,0.8,1.2,1.9,1.8,2.5c0.2,0.2,1.5,1.5,1.5,1.1
				c-0.2-3.9-0.1-7.7,0.3-11.5c0.1-0.7-1.3-2-1.8-2.5C75.6,56.4,74.4,55.1,74.3,55.5L74.3,55.5z"/>
		</g>
	</g>
	<g>
		<g>
			<path class="st3" d="M72.1,62.3c-0.7,2.2-1.3,4.3-2,6.5c-0.4,1.3,4.5,1.2,4.8,0c0.7-2.2,1.3-4.3,2-6.5C77.4,61,72.5,61,72.1,62.3
				L72.1,62.3z"/>
		</g>
	</g>
	<g>
		<g>
			<path class="st3" d="M68.9,65.6c-0.2,1.3,0,2.5,0.5,3.7c0.4,0.9,1.6,1.5,2.5,1.9c0.2,0.1,2.3,0.7,2,0c-0.5-1-0.7-2.1-0.5-3.3
				c0.1-0.8-1.3-1.5-1.9-1.8C71.3,66,69,65,68.9,65.6L68.9,65.6z"/>
		</g>
	</g>
	<g>
		<g>
			<path class="st3" d="M73.3,68.5c0,3,0,6.1,0,9.1c0,2,5,2.5,5,0.6c0-3,0-6.1,0-9.1C78.3,67.1,73.3,66.6,73.3,68.5L73.3,68.5z"/>
		</g>
	</g>
	<g>
		<g>
			<path class="st3" d="M77.8,70.8c0.5,2.4,1,4.8,1.4,7.1c0.3,1.3,1.4,2.3,2.7,2.3c1.2,0,2.2-1.1,2-2.3c-0.5-2.4-1-4.8-1.4-7.1
				c-0.3-1.3-1.4-2.3-2.7-2.3C78.6,68.5,77.6,69.6,77.8,70.8L77.8,70.8z"/>
		</g>
	</g>
	<g>
		<g>
			<path class="st3" d="M76.1,28.6c0.5,3.8,1.5,7.3,2.9,10.9c0.7,1.8,5.5,2,4.6-0.4c-1.3-3.2-2.1-6.6-2.6-10
				C80.7,27.1,75.8,26.3,76.1,28.6L76.1,28.6z"/>
		</g>
	</g>
	<g>
		<g>
			<path class="st3" d="M74.2,37.9c-0.6,3.2,0.1,6.3,2,8.9c1.2,1.7,5.9,0,4.5-1.9c-1.5-2.1-2.1-4.6-1.6-7.2
				C79.6,35.3,74.6,35.8,74.2,37.9L74.2,37.9z"/>
		</g>
	</g>
	<g>
		<g>
			<path class="st3" d="M79.8,43.9c0.2,1.8,0.5,3.7,0.7,5.5c0.1,0.6,5,0.1,5-0.2c-0.2-1.8-0.5-3.7-0.7-5.5
				C84.7,43.1,79.8,43.5,79.8,43.9L79.8,43.9z"/>
		</g>
	</g>
	<g>
		<g>
			<path class="st3" d="M77.3,39.1c-0.2,4.7,0.1,9.4,0.9,14c0.4,2.6,5.1,0.8,4.7-1.6c-0.7-4.3-1-8.6-0.9-13
				C82.1,35.6,77.4,36.7,77.3,39.1L77.3,39.1z"/>
		</g>
	</g>
	<g>
		<g>
			<path class="st3" d="M75.1,45.5c0,3.3,0,6.7,0,10c0,1.2,5,0.9,5-0.5c0-3.3,0-6.7,0-10C80.1,43.9,75.1,44.1,75.1,45.5L75.1,45.5z"
				/>
		</g>
	</g>
	<g>
		<g>
			<path class="st3" d="M34.2,38.2c0.2,5.1-0.6,10.1-2.1,14.9c-0.8,2.6,4.2,2.6,4.9,0.2c1.6-5.2,2.3-10.5,2.1-16
				C39,34.8,34.1,35.6,34.2,38.2L34.2,38.2z"/>
		</g>
	</g>
	<g>
		<g>
			<path class="st3" d="M32.4,47.8c0.2,2.9-0.7,5.6-2.5,7.9c-0.2,0.3,1.6-0.4,1.7-0.4c0.8-0.3,2.2-0.7,2.7-1.4
				c1.8-2.3,2.7-5.1,2.6-8.1C36.9,46,32.3,46.9,32.4,47.8L32.4,47.8z"/>
		</g>
	</g>
	<g>
		<g>
			<path class="st3" d="M35.4,50c0.4,2.9-0.2,5.5-1.8,7.9c-1.3,2,2.6,5,4.1,2.7c2-3,2.7-6.5,2.1-10C39.4,48.2,34.9,46.9,35.4,50
				L35.4,50z"/>
		</g>
	</g>
	<g>
		<g>
			<path class="st3" d="M37.5,56.9c-1.5,2-2.4,4.2-2.7,6.8c-0.2,1.3,4.6,0.4,4.8-0.8c0.3-2.2,1-4.4,2.3-6.2c0.6-0.8-0.5-1-1.2-0.9
				C39.8,55.8,38,56.1,37.5,56.9L37.5,56.9z"/>
		</g>
	</g>
	<g>
		<g>
			<path class="st3" d="M39.8,62.7c-0.4,2.2-0.7,4.3-1.1,6.5c-0.3,1.7,3.5,4.7,3.9,2.2c0.4-2.2,0.7-4.3,1.1-6.5
				C44,63.3,40.2,60.3,39.8,62.7L39.8,62.7z"/>
		</g>
	</g>
	<g>
		<g>
			<path class="st3" d="M40.4,56.8c-0.1,1.9-0.7,3.8-1.7,5.4c-1.3,2.2,2.4,5.5,3.9,3c1.4-2.3,2.2-4.9,2.3-7.6
				C45.1,55.1,40.6,53.7,40.4,56.8L40.4,56.8z"/>
		</g>
	</g>
	<g>
		<g>
			<path class="st3" d="M42.4,65.4c-0.4,2.5-1.2,4.7-2.5,6.9c-0.2,0.3,1.6-0.4,1.7-0.5c0.7-0.3,2.2-0.9,2.6-1.6
				c1.4-2.2,2.2-4.6,2.6-7.1c0-0.1-2.2,0.8-2.4,0.9C44,64.3,42.5,64.8,42.4,65.4L42.4,65.4z"/>
		</g>
	</g>
	<g>
		<g>
			<path class="st3" d="M45.2,68.7c-0.4,2.7-1.4,5.1-2.8,7.4c-0.2,0.4,1.7-0.2,1.8-0.3c0.7-0.2,2.4-0.6,2.8-1.3
				c1.5-2.4,2.4-4.9,2.9-7.7c0-0.2-2.3,0.5-2.4,0.6C47,67.6,45.3,68.1,45.2,68.7L45.2,68.7z"/>
		</g>
	</g>
	<g>
		<g>
			<path class="st3" d="M44.8,63.1c-0.9,3.5-2.3,6.7-4.3,9.6c-1.1,1.6,3,4.5,4,3c2.1-3.2,3.7-6.6,4.6-10.4
				C49.6,63.6,45.3,61.1,44.8,63.1L44.8,63.1z"/>
		</g>
	</g>
	<g>
		<g>
			<path class="st3" d="M37.4,64.7c-1.3,2.3-3,4.3-5.2,5.7c-0.9,0.6-1.4,1.6-0.6,2.5c0.8,0.8,2.5,0.7,3.5,0.1
				c2.9-1.8,5.2-4.2,6.8-7.2C43.2,63.4,38.4,62.8,37.4,64.7L37.4,64.7z"/>
		</g>
	</g>
	<g>
		<g>
			<path class="st3" d="M35.1,58.1c-1.7,3.4-3.7,6.5-6.2,9.4c-0.4,0.5,3.5,3.4,4.3,2.5c2.5-2.8,4.6-6,6.2-9.4
				C39.9,59.7,35.5,57.3,35.1,58.1L35.1,58.1z"/>
		</g>
	</g>
	<g>
		<g>
			<path class="st3" d="M30.6,53.4c-1.2,2.2-2.3,4.3-3.5,6.5c-0.7,1.3,2.9,4.3,3.2,3.9c1.2-2.2,2.3-4.3,3.5-6.5
				C34.4,56,30.9,52.9,30.6,53.4L30.6,53.4z"/>
		</g>
	</g>
	<g>
		<g>
			<path class="st3" d="M32.9,52.6c-0.4,6-2,11.6-4.7,16.9c-0.4,0.8,3.6,3.5,3.7,3.4c2.7-5.3,4.3-10.9,4.7-16.9
				C36.7,54.6,32.9,53.1,32.9,52.6L32.9,52.6z"/>
		</g>
	</g>
	<g>
		<g>
			<path class="st3" d="M27.7,61.6c-1.2,1.5-2.1,3.2-2.7,5c-0.4,1.2,0.3,2.6,1.4,3.2c1,0.5,2.4,0.3,2.8-0.9c0.5-1.5,1.2-2.8,2.2-4.1
				C33,62.9,29.5,59.4,27.7,61.6L27.7,61.6z"/>
		</g>
	</g>
	<g>
		<g>
			<path class="st3" d="M34.3,64.2c-0.2,3.2-0.4,6.3-0.6,9.5c-0.2,2.6,4.7,1.5,4.8-0.9c0.2-3.2,0.4-6.3,0.6-9.5
				C39.3,60.7,34.4,61.8,34.3,64.2L34.3,64.2z"/>
		</g>
	</g>
	<g>
		<g>
			<path class="st3" d="M36.5,66.7c0.1,2.5,0,5-0.5,7.4c-0.2,1.2,0.4,2.5,1.5,3.1c0.9,0.5,2.3,0.4,2.6-0.8c0.5-2.8,0.8-5.7,0.6-8.5
				c-0.1-1.2-0.9-2.5-2.1-2.8C37.6,64.8,36.5,65.5,36.5,66.7L36.5,66.7z"/>
		</g>
	</g>
	<g>
		<g>
			<path class="st3" d="M44.9,69.2c0.5,2.2,0.6,4.3,0.4,6.5c0,0.3,2.3-0.5,2.5-0.6c0.5-0.2,2.1-0.7,2.1-1.4c0.2-2.2,0.1-4.4-0.4-6.5
				C49.5,67,44.7,68.4,44.9,69.2L44.9,69.2z"/>
		</g>
	</g>
	<g>
		<g>
			<path class="st3" d="M48.2,68.6c0,0.1,0.3,0.3,0.2,0.4c-0.1-0.3-0.1-0.3,0-0.1c0,0.1,0,0.2,0.1,0.2c0,0.1,0,0.1,0-0.1
				c0,0.1,0,0.2,0,0.2c0,0.1-0.1,0.6,0,0.3C48.2,70.8,49,72,50,72.5c0.7,0.4,2.5,0.7,2.7-0.5c0.3-1.4,0.1-2.8-0.7-4
				c-0.4-0.6-0.8-1-1.4-1.4c-0.4-0.2-1.1-0.5-1.7-0.3C48,66.5,47.6,67.7,48.2,68.6L48.2,68.6z"/>
		</g>
	</g>
	<g>
		<g>
			<path class="st3" d="M67.3,68.8c0,0.8,0,1.7,0,2.5c0,1.2,1.1,2.5,2.3,2.6c1.1,0.2,2.4-0.4,2.4-1.7c0-0.8,0-1.7,0-2.5
				c0-1.2-1.1-2.5-2.3-2.6C68.6,66.9,67.3,67.5,67.3,68.8L67.3,68.8z"/>
		</g>
	</g>
	<g>
		<g>
			<path class="st3" d="M66.1,69.4c0,1.5,0,3,0,4.5c0,1.5,5,1.3,5-0.3c0-1.5,0-3,0-4.5C71.1,67.7,66.1,67.8,66.1,69.4L66.1,69.4z"/>
		</g>
	</g>
	<g>
		<g>
			<path class="st3" d="M51.3,69c-1.2,1.3-1.8,2.7-2,4.5c0,0.5,0.4,1.2,0.8,1.6c0.4,0.4,1.1,0.8,1.7,0.9c1.3,0.1,2.1-0.5,2.2-1.8
				c0,0.4,0.1-0.3,0.1-0.4c0-0.1,0.2-0.6,0.2-0.5c-0.1,0.2,0.2-0.4,0.3-0.4c0-0.1,0.5-0.7,0.2-0.4c0.4-0.4,0.7-0.8,0.6-1.4
				c0-0.6-0.4-1.2-0.8-1.6C53.9,68.8,52.2,68,51.3,69L51.3,69z"/>
		</g>
	</g>
	<g>
		<g>
			<path class="st3" d="M47.7,70.9c-0.2,0.8-0.3,1.7-0.5,2.5c-0.1,0.3,0.2,0.9,0.3,1.2c0.3,0.6,0.6,1.1,1,1.6c0.1,0.2,1.5,1.7,1.6,1
				c0.2-0.8,0.3-1.7,0.5-2.5c0.1-0.3-0.2-0.9-0.3-1.2c-0.3-0.6-0.6-1.1-1-1.6C49.2,71.7,47.9,70.2,47.7,70.9L47.7,70.9z"/>
		</g>
	</g>
	<g>
		<g>
			<path class="st3" d="M35.5,23.7c-1.2,0-2.3,0-3.5,0c-0.4,0-0.6,0.5-0.7,0.8c-0.1,0.5,0.2,1.1,0.4,1.6c0.5,0.9,1.4,1.9,2.6,1.9
				c1.2,0,2.3,0,3.5,0c0.4,0,0.6-0.5,0.7-0.8c0.1-0.5-0.2-1.1-0.4-1.6C37.5,24.6,36.6,23.7,35.5,23.7L35.5,23.7z"/>
		</g>
	</g>
	<g>
		<g>
			<path class="st3" d="M30.8,26.1C29.7,26.5,28.6,27,28,28c-0.4,0.7-0.5,1.5-0.2,2.2c0.3,0.7,2,0.4,2.6,0.3
				c0.3-0.1,2.6-0.6,2.3-1.2c-0.2-0.4-0.2-0.9-0.1-1.4c0.1-0.2,0.2-0.4,0.3-0.6c0,0,0.2-0.2,0.1-0.2c0,0,0.1-0.1,0.1-0.1
				c-0.2,0.1-0.5,0.2-0.7,0.3c0.3-0.1,2.1-0.6,1.5-1.3c-0.3-0.3-0.9-0.2-1.2-0.2C32.1,25.8,31.4,25.9,30.8,26.1L30.8,26.1z"/>
		</g>
	</g>
	<g>
		<g>
			<path class="st3" d="M27.9,30.6c-0.4,2.3,0,4.7,1,6.8c0.6,1.4,5.1-0.8,4.5-2.2c-0.9-2-1.2-4-0.9-6.2
				C32.7,27.6,28.1,29.1,27.9,30.6L27.9,30.6z"/>
		</g>
	</g>
	<g>
		<g>
			<path class="st3" d="M29.6,36.3c-0.3,3.5-1,6.8-2.1,10.1c-0.5,1.4,2.7,5,3.1,3.7c1.2-3.5,1.9-7.1,2.3-10.8
				C33,38,29.8,34.4,29.6,36.3L29.6,36.3z"/>
		</g>
	</g>
	<g>
		<g>
			<path class="st3" d="M31.2,39.1c0.3,3.9-0.4,7.6-2.1,11.2c-0.5,1.1,0.9,1.3,1.6,1.2c1.1-0.1,2.4-0.9,2.9-1.9
				c1.8-3.8,2.6-7.8,2.3-12C35.7,35.6,31.1,37.3,31.2,39.1L31.2,39.1z"/>
		</g>
	</g>
	<g>
		<g>
			<path class="st3" d="M31.4,25.9c-1.2,2.4-1.6,4.9-1.1,7.5c0.2,1.1,1.1,2.4,2.3,2.6c1.2,0.2,1.7-1,1.5-2c-0.3-1.6-0.2-3.1,0.6-4.5
				c0.6-1.1,0.2-2.4-0.6-3.2C33.5,25.7,31.9,24.8,31.4,25.9L31.4,25.9z"/>
		</g>
	</g>
	<g>
		<g>
			<path class="st3" d="M29.8,37.5c0,2.2-0.4,4.2-1.3,6.2c-0.7,1.5,3.8,3.7,4.4,2.3c1-2.2,1.4-4.5,1.4-6.9
				C34.4,37.6,29.8,35.7,29.8,37.5L29.8,37.5z"/>
		</g>
	</g>
	<g>
		<g>
			<path class="st3" d="M28.8,48.9c0,1.8,0,3.7,0,5.5c0,1.5,4.7,2.5,4.7,1.7c0-1.8,0-3.7,0-5.5C33.5,49.2,28.8,48.2,28.8,48.9
				L28.8,48.9z"/>
		</g>
	</g>
	<g>
		<g>
			<path class="st3" d="M28.4,47.9c-0.2,2.5-0.9,4.8-2.2,6.9c-0.3,0.5,4.2,2.6,4.7,1.7c1.2-2.2,2-4.5,2.2-6.9
				C33.2,48.5,28.4,47.5,28.4,47.9L28.4,47.9z"/>
		</g>
	</g>
	<g>
		<g>
			<path class="st3" d="M27.4,37.1c-0.5,10.4-2.7,20.4-6.6,30.1c-0.8,1.9,3.8,4,4.5,2.1c3.9-9.9,6.2-20.2,6.7-30.9
				C32.2,36.5,27.5,34.9,27.4,37.1L27.4,37.1z"/>
		</g>
	</g>
	<g>
		<g>
			<path class="st3" d="M74.8,23.7c0.4,4.8,0.7,9.7,1.1,14.5c0,0.3,5-0.2,4.9-0.8c-0.4-4.8-0.7-9.7-1.1-14.5
				C79.7,22.6,74.7,23.1,74.8,23.7L74.8,23.7z"/>
		</g>
	</g>
	<g>
		<g>
			<path class="st3" d="M76.8,22c0.4,1.8,0.7,3.7,1.1,5.5c0.2,1.1,0.8,2.2,1.3,3.1c0.1,0.2,1.1,1.5,0.9,0.6
				c-0.4-1.8-0.7-3.7-1.1-5.5c-0.2-1.1-0.8-2.2-1.3-3.1C77.6,22.3,76.7,21,76.8,22L76.8,22z"/>
		</g>
	</g>
	<g>
		<g>
			<path class="st3" d="M71.4,24.2c0,0,0.2-0.1,0.2-0.1c-0.1,0-0.3,0-0.4,0.1c-0.1,0-0.3,0-0.4,0c0.3,0-0.2,0-0.2-0.1
				c0.4,0.1-0.3-0.2-0.1-0.1c0,0,0.1,0,0.1,0.1c0.1,0.1,0.1,0,0,0c-0.1-0.1-0.1-0.1-0.1,0c0,0,0.1,0.1,0.1,0.1
				c0.1,0.2-0.1-0.3,0-0.1c0,0.1,0.1,0.2,0.1,0.3c0.2,0.4,0.8,0.7,1.2,0.9c0.6,0.2,1.3,0.2,1.9,0c0.9-0.3,2.1-1,1.6-2.1
				c-0.8-2-3.7-2.6-5.6-2c-0.5,0.2-1.1,0.4-1.4,0.8c-0.3,0.3-0.4,0.9-0.2,1.3C68.8,24.3,70.4,24.6,71.4,24.2L71.4,24.2z"/>
		</g>
	</g>
	<g>
		<g>
			<path class="st3" d="M73.1,27.2c-0.3,4,0.2,7.8,1.6,11.6c0.4,1.1,1.4,2.3,2.7,2.2c1.2-0.1,1.7-1.2,1.3-2.2
				c-1.1-3-1.7-6.2-1.4-9.4c0.1-1.2-0.5-2.5-1.7-3.1C74.7,25.9,73.2,25.9,73.1,27.2L73.1,27.2z"/>
		</g>
	</g>
	<g>
		<g>
			<path class="st3" d="M81.5,56.5c0.9,2.1,2,4.2,3.3,6.1c0.5,0.7,2.4,0.4,3.1,0.3c0.3,0,2.1-0.2,1.7-0.9c-1.2-1.8-2.3-3.7-3.1-5.8
				C86,55,81.3,56,81.5,56.5L81.5,56.5z"/>
		</g>
	</g>
	<g>
		<g>
			<path class="st3" d="M25.3,34.8c0.1,2.5,0,5-0.5,7.4c-0.2,1.2,0.4,2.5,1.5,3.1c0.9,0.5,2.3,0.4,2.6-0.8c0.5-2.8,0.8-5.7,0.6-8.5
				c-0.1-1.2-0.9-2.5-2.1-2.8C26.3,33,25.2,33.6,25.3,34.8L25.3,34.8z"/>
		</g>
	</g>
	<g>
		<g>
			<path class="st3" d="M23.6,45.7c0.1,2.5,0,5-0.5,7.4c-0.2,1.2,0.4,2.5,1.5,3.1c0.9,0.5,2.3,0.4,2.6-0.8c0.5-2.8,0.8-5.7,0.6-8.5
				c-0.1-1.2-0.9-2.5-2.1-2.8C24.7,43.8,23.6,44.5,23.6,45.7L23.6,45.7z"/>
		</g>
	</g>
</g>
<path class="st4" d="M59.7,244.6l14-0.2c0,0-0.3-10.8,0.3-13.9c0.8-4.2,0.8-10.2,1.4-14.8c0.6-4.3,1.2-9.2,2-14.8
	c1.3-8.9,1.5-25.6,1.5-25.6c0-4.8-0.9-18-5.6-18l-14.6,2.3c-0.4,9-1,9.4,0.3,18.8c1.2,8.2-0.2,21.5,0.5,29.2
	c0.5,5.8,0.8,14.3,0.5,19.1C59.8,231.1,59.7,244.6,59.7,244.6z"/>
<g>
	<path class="st4" d="M55.4,165.2c0,0,23.3,7,22.9,1.3c-0.7-9.1-4.6-11.1-5.1-20.5c-0.3-6.8-0.5-22.6,0.4-31.1
		c0.6-5.5,1.9-4.1,2.8-8.1c2.2-10.3-1.2-20.4-1.2-20.4s-5.8-5.3-8.4-5.8c-8.8-1.6-11.3,5.8-11.3,5.8V165.2z"/>
	<path class="st4" d="M56.4,165.2c0,0-21.9,6.5-21.9,0.7c0-8.8,3.6-10.5,4.1-19.9c0.5-8.9,1.7-21.5,0.3-31.4
		c-0.4-2.5-2.8-4.8-3.2-6.8c-2.2-10.3,1-21.4,1-21.4s2.2-4.7,8.8-5.3c7.9-0.7,10.9,5.3,10.9,5.3V165.2z"/>
</g>
<path class="st5" d="M71.9,145.7H39.7c-0.5,0-1,0.1-1-0.4l0.2-4.9c0-0.6,0.2-0.7,0.8-0.7h32.1c0.5,0,1.2-0.5,1.2,0l0.2,5.5
	C73.2,145.6,72.4,145.7,71.9,145.7z"/>
<path class="st6" d="M90.3,140.9l-4.7,0.3c-2.2,0.1-4.1-1.6-4.2-3.8l-1.6-26.5c-0.1-2.2,1.6-4.1,3.8-4.2l4.7-0.3
	c2.2-0.1,4.1,1.6,4.2,3.8l1.6,26.5C94.2,138.9,92.5,140.8,90.3,140.9z"/>
<path class="st6" d="M22.1,140.5l4.7,0.3c2.2,0.1,4.1-1.6,4.2-3.8l1.6-26.5c0.1-2.2-1.6-4.1-3.8-4.2l-4.7-0.3
	c-2.2-0.1-4.1,1.6-4.2,3.8l-1.6,26.5C18.2,138.4,19.9,140.3,22.1,140.5z"/>
<path class="st6" d="M60.3,86h-10c-1.1,0-2-0.9-2-2V74c0-1.1,0.9-2,2-2h10c1.1,0,2,0.9,2,2v10C62.3,85.1,61.4,86,60.3,86z"/>
<path class="st6" d="M55,75.5L55,75.5c-12.2,0-22.1-9.9-22.1-22.1V34c0-10.3,8.3-18.6,18.6-18.6h7.1c10.3,0,18.6,8.3,18.6,18.6v19.5
	C77.1,65.7,67.2,75.5,55,75.5z"/>
<path class="st7" d="M79.7,42.5h-2.5v-8.9h1.5c1.7,0,3,1.3,3,3v3.9C81.7,41.6,80.8,42.5,79.7,42.5z"/>
<path class="st7" d="M30.4,42.5h2.5v-8.9h-1.5c-1.7,0-3,1.3-3,3v3.9C28.4,41.6,29.3,42.5,30.4,42.5z"/>
<path class="st4" d="M52.9,245.1l-14-0.2c0,0,0.3-10.8-0.3-13.9c-0.8-4.2-0.8-10.2-1.4-14.8c-0.6-4.3-1.2-9.2-2-14.8
	c-1.3-8.9-1.5-30.4-1.5-30.4c0-4.8,0.9-8.3,5.3-12.1l15,1.1c0.4,9,1,9.4-0.3,18.8c-1.2,8.2,0.2,21.5-0.5,29.2
	c-0.5,5.8-0.8,14.3-0.5,19.1C52.9,231.6,52.9,245.1,52.9,245.1z"/>
<path class="st8" d="M54.6,86L56,95c0,0,3.7,0.1,10.3,0.8c7.5,0.7,11.9,4.9,11.9,4.9c0.4-8.2-2.1-15-2.1-15s-6.3-5.3-9.1-5.8
	c-7.4-1.2-4,4.8-12.1,4.5C54,84.2,54.6,86,54.6,86z"/>
<path class="st8" d="M55.8,85.7L56,95c0,0-7.6-0.1-10.4-0.1c-2.6,0-11.6,5.8-11.6,5.8c-0.4-8.2,2-15,2-15s6.2-5.3,8.9-5.8
	c7.3-1.2,1,2.3,10,4.5C54.4,85,55.8,85.7,55.8,85.7z"/>
<path class="st6" d="M22.6,112.8l4.4,1.8c2,0.8,4.4-0.2,5.2-2.2l7-17.3c0.8-2-0.2-4.4-2.2-5.2L32.6,88c-2-0.8-4.4,0.2-5.2,2.2
	l-7,17.3C19.6,109.6,20.6,111.9,22.6,112.8z"/>
<path class="st6" d="M89.8,113.2l-4.4,1.8c-2,0.8-4.4-0.2-5.2-2.2l-7-17.3c-0.8-2,0.2-4.4,2.2-5.2l4.4-1.8c2-0.8,4.4,0.2,5.2,2.2
	l7,17.3C92.8,110,91.8,112.4,89.8,113.2z"/>
<path class="st8" d="M74.9,100.2l12-4.4l-4.5-11.5c-1-2.6-4-3.9-6.6-2.9l-2.4,0.9c-2.7,1-4,3.9-3,6.4L74.9,100.2z"/>
<path class="st8" d="M37.5,99.8l-12-4.4L30,83.9c1-2.6,4-3.9,6.6-2.9l2.4,0.9c2.7,1,4,3.9,3,6.4L37.5,99.8z"/>
<path class="st4" d="M66.3,92.2L66.3,92.2c-1.4,0-2.5-1.1-2.5-2.5v-7.6c0-1.4,1.1-2.5,2.5-2.5h0c1.4,0,2.5,1.1,2.5,2.5v7.6
	C68.8,91.1,67.7,92.2,66.3,92.2z"/>
<path class="st4" d="M45.3,92.2L45.3,92.2c-1.4,0-2.5-1.1-2.5-2.5v-7.6c0-1.4,1.1-2.5,2.5-2.5h0c1.4,0,2.5,1.1,2.5,2.5v7.6
	C47.8,91.1,46.7,92.2,45.3,92.2z"/>
<ellipse class="st5" cx="66.3" cy="93.5" rx="2.7" ry="3.3"/>
<ellipse class="st5" cx="45.3" cy="93.5" rx="2.7" ry="3.3"/>
<path class="st9" d="M64.2,120.5H47.5c-1.7,0-3-1.3-3-3V111c0-1.7,1.3-3,3-3h16.7c1.7,0,3,1.3,3,3v6.5
	C67.2,119.2,65.8,120.5,64.2,120.5z"/>
<path class="st9" d="M67.2,112.5H44.5V111c0-1.7,1.3-3,3-3h16.7c1.7,0,3,1.3,3,3V112.5z"/>
<path class="st10" d="M51,251.6l-9.1,0.6c-1.6,0.1-3.1-1.1-3.2-2.8l-1.5-21.5c-0.1-1.6,1.1-3.1,2.8-3.2l9.1-0.6
	c1.6-0.1,3.1,1.1,3.2,2.8l1.5,21.5C53.9,250,52.7,251.5,51,251.6z"/>
<path class="st11" d="M52.4,227.4H36.9c-1.1,0-2-0.9-2-2v-0.3c0-1.1,0.9-2,2-2h15.5c1.1,0,2,0.9,2,2v0.3
	C54.4,226.5,53.5,227.4,52.4,227.4z"/>
<path class="st10" d="M40.1,264.6l-23.7,0.1c0-2.6,0.7-10,6.8-10.4c7.8-0.5,16.7-3.8,15.7-7.5c-2.8-9.8,3.5-4.8,10.2-3
	c8.2,2.2,2.2,6.7,6.3,12.6c1.3,1.9,0.9,5.8,1,8.2l-7.6,0.1l-0.2-2.8L40.1,264.6z"/>
<polygon class="st12" points="56.5,264.7 48.7,264.7 48.6,261.7 56.5,261.7 "/>
<polygon class="st12" points="39.9,264.7 16.4,264.7 16.6,262.7 48.6,261.7 "/>
<path class="st10" d="M60.9,251.6l9.1,0.6c1.6,0.1,3.1-1.1,3.2-2.8l1.5-21.5c0.1-1.6-1.1-3.1-2.8-3.2l-9.1-0.6
	c-1.6-0.1-3.1,1.1-3.2,2.8l-1.5,21.5C58,250,59.2,251.5,60.9,251.6z"/>
<path class="st11" d="M59.5,227.4H75c1.1,0,2-0.9,2-2v-0.3c0-1.1-0.9-2-2-2H59.5c-1.1,0-2,0.9-2,2v0.3
	C57.5,226.5,58.4,227.4,59.5,227.4z"/>
<path class="st10" d="M71.8,264.6l23.7,0.1c0-2.6-0.7-10-6.8-10.4c-7.8-0.5-16.7-3.8-15.7-7.5c2.8-9.8-3.5-4.8-10.2-3
	c-8.2,2.2-2.2,6.7-6.3,12.6c-1.3,1.9-0.9,5.8-1,8.2l7.6,0.1l0.2-2.8L71.8,264.6z"/>
<polygon class="st12" points="55.4,264.7 63.2,264.7 63.3,261.7 55.4,261.7 "/>
<polygon class="st12" points="72,264.7 95.5,264.7 95.3,262.7 63.3,261.7 "/>
<path class="st13" d="M78.7,25.6C78.2,15.2,69.6,7,59.1,7h-7.5C41.1,7,32.5,15.2,32,25.6H78.7z"/>
<path class="st13" d="M79.7,29.6H30c-1.7,0-3-1.3-3-3v-1.5c0-1.7,1.3-3,3-3h49.7c1.7,0,3,1.3,3,3v1.5C82.7,28.3,81.3,29.6,79.7,29.6
	z"/>
<circle class="st6" cx="87.3" cy="138.3" r="8.2"/>
<circle class="st6" cx="24.2" cy="138.1" r="8.2"/>
<g>
	<g>
		<path class="st5" d="M45.7,41.8c3.9,0,3.9-6,0-6C41.8,35.8,41.8,41.8,45.7,41.8L45.7,41.8z"/>
	</g>
</g>
<g>
	<g>
		<path class="st5" d="M64.6,41.8c3.9,0,3.9-6,0-6C60.8,35.8,60.8,41.8,64.6,41.8L64.6,41.8z"/>
	</g>
</g>
<g>
	<g>
		<path class="st5" d="M61.7,34.8c2.5,0.3,5.2-1,7.6,0.3c0.8,0.5,1.6-0.8,0.8-1.3c-2.7-1.5-5.5-0.2-8.3-0.5
			C60.8,33.2,60.8,34.7,61.7,34.8L61.7,34.8z"/>
	</g>
</g>
<g>
	<g>
		<path class="st5" d="M49,33.2c-3.2-0.5-7-1.7-9.6,0.7c-0.7,0.6,0.3,1.7,1.1,1.1c2.2-1.9,5.7-0.7,8.2-0.3
			C49.5,34.8,50,33.4,49,33.2L49,33.2z"/>
	</g>
</g>
<path class="st7" d="M56,53.2L56,53.2c-1.1,0-2-0.9-2-2v-3.8c0-1.1,0.9-2,2-2h0c1.1,0,2,0.9,2,2v3.8C58,52.3,57.1,53.2,56,53.2z"/>
<g>
	<g>
		<path class="st5" d="M51.1,64.3c5.4-0.3,12.4,0.1,15.7-4.9c0.7-1.1-1-2.1-1.7-1c-2.7,4.2-9.5,3.7-13.9,4
			C49.9,62.4,49.8,64.4,51.1,64.3L51.1,64.3z"/>
	</g>
</g>
<rect x="127.4" y="120.2" class="st14" width="10.1" height="37.8"/>
<path class="st14" d="M138.1,104.5v12.8c0,0.7-0.6,1.2-1.2,1.2h-8.2c-0.7,0-1.2-0.6-1.2-1.2v-13c-4.6,1.8-7.8,6.1-7.8,11
	c0,6.6,5.7,12,12.8,12s12.8-5.4,12.8-12C145.3,110.6,142.3,106.5,138.1,104.5z"/>
<circle class="st15" cx="132.6" cy="164.2" r="7.3"/>
<path class="st5" d="M130.3,153.1L130.3,153.1c-0.5,0-0.8-0.4-0.8-0.8v-24.5c0-0.5,0.4-0.8,0.8-0.8l0,0c0.5,0,0.8,0.4,0.8,0.8v24.5
	C131.2,152.7,130.8,153.1,130.3,153.1z"/>
<path class="st5" d="M134.7,153.1L134.7,153.1c-0.5,0-0.8-0.4-0.8-0.8v-24.5c0-0.5,0.4-0.8,0.8-0.8l0,0c0.5,0,0.8,0.4,0.8,0.8v24.5
	C135.5,152.7,135.2,153.1,134.7,153.1z"/>
<rect x="163.6" y="113.1" class="st4" width="7.3" height="62.3"/>
<path class="st16" d="M170,177.4h-5.3c-0.6,0-1-0.4-1-1v-7.7h7.3v7.7C171,177,170.5,177.4,170,177.4z"/>
<rect x="163.6" y="167.8" class="st17" width="7.3" height="3.5"/>
<polygon class="st18" points="167.3,100 171,113.1 163.6,113.1 "/>
<polygon class="st5" points="169,106 167.3,100 165.6,106 "/>
<ellipse class="st2" cx="205.6" cy="149.4" rx="24" ry="25.1"/>
<ellipse class="st19" cx="205.6" cy="149.4" rx="17.2" ry="18"/>
<path class="st20" d="M259.9,177.6h-0.5v-5.8h0.5c0.6,0,1,0.4,1,1v3.8C260.9,177.1,260.4,177.6,259.9,177.6z"/>
</svg>
