<?xml version="1.0" encoding="utf-8"?>
<!-- Generator: Adobe Illustrator 24.0.1, SVG Export Plug-In . SVG Version: 6.00 Build 0)  -->
<svg version="1.1" id="Layer_1" xmlns="http://www.w3.org/2000/svg" xmlns:xlink="http://www.w3.org/1999/xlink" x="0px" y="0px"
	 viewBox="0 0 280 270" style="enable-background:new 0 0 280 270;" xml:space="preserve">
<style type="text/css">
	.st0{fill:#85642D;}
	.st1{fill:#1F4282;}
	.st2{fill:#A8A595;}
	.st3{fill:#BD9C76;}
	.st4{fill:#FDD09C;}
	.st5{fill:#F58B1F;stroke:#F58B1F;stroke-miterlimit:10;}
	.st6{fill:#F58B21;stroke:#F58B1F;stroke-miterlimit:10;}
	.st7{fill:#895121;}
	.st8{fill:#99712A;}
	.st9{fill:none;stroke:#F4CD2F;stroke-width:6;stroke-miterlimit:10;}
	.st10{fill:#603B15;}
	.st11{fill:#9B702A;}
	.st12{fill:#200E0A;}
	.st13{fill:#231F20;}
	.st14{fill:#513217;}
	.st15{fill:#C58E67;}
	.st16{fill:#B67343;}
	.st17{fill:#8E5E38;}
	.st18{fill:#8E807C;}
	.st19{fill:#6D625F;}
	.st20{fill:#958580;}
	.st21{fill:#825B27;}
	.st22{fill:#48484A;}
</style>
<path class="st0" d="M170,168.1h-3.7c-0.7,0-1.3-0.6-1.3-1.3c0,0-0.5-5.9-0.7-12.3c-0.2-6.7,0-13.9,0-17c0-6.5,0.7-21,0.7-21h5.7
	c0,0-0.6,13.2-0.6,19.6c0,6.3,0.6,31.2,0.6,31.2C170.7,167.9,170.4,168.1,170,168.1z"/>
<path class="st1" d="M68.6,244.8h25v-39.3c0-3.3-2.7-6-6-6h-13c-3.3,0-6,2.7-6,6V244.8z"/>
<path class="st1" d="M37.5,244.5h25v-39.3c0-3.3-2.7-6-6-6h-13c-3.3,0-6,2.7-6,6V244.5z"/>
<path class="st2" d="M95.2,198.1c-4.3-0.2-5-1.4-31.5-1.4c-25.5,0-19.1,6.8-31.2,0c-15.5-8.7-16-89.4,30.5-89.9
	C116.2,106.4,110.1,198.7,95.2,198.1z"/>
<path class="st3" d="M94,83.6H91V70.1H94c1.1,0,2,0.9,2,2v9.5C96,82.7,95.1,83.6,94,83.6z"/>
<g>
	<path class="st4" d="M71.7,127.7H56.6c-10.6,0-19.3-8.6-19.3-19.3V66.3c0-8.4,6.8-15.3,15.3-15.3h23.1C84.2,51,91,57.9,91,66.3
		v42.1C91,119.1,82.4,127.7,71.7,127.7z"/>
</g>
<g>
	<g>
		<g>
			<g>
				<path class="st5" d="M53.9,122.2c-1.9,2-4.7,2.9-7.8,2.4c-3-0.4-6.5-2.3-9.2-5.8c-1.3-1.8-2.9-5.1-3.7-9.2
					c-0.4-2.1-0.6-4.3-0.5-6.6c0.1-2.3,0.5-4.4,1-6.2c0.5-1.8,1.1-3.3,1.6-4.8c0.5-1.5,1-2.8,1.4-4c0.9-2.3,1.4-3.7,1.4-3.7
					s0.7,1.4,1.8,3.6c0.5,1.1,1.1,2.4,1.8,3.8c0.7,1.4,1.4,3,2.1,4.5c1.4,3.1,3.2,4.8,5,6.4c1.8,1.6,3.4,2.9,4.2,3.9
					c1.6,2.2,2.8,5,3.1,7.9C56.6,117.3,55.9,120.1,53.9,122.2z"/>
			</g>
		</g>
	</g>
	<g>
		<g>
			<g>
				<path class="st5" d="M64.3,138.1c5.6,0.1,10.1,3.1,10.1,6.9c0,3.7-10.3,15.4-10.3,15.4s-10.1-11.8-10-15.6
					C54.1,141.1,58.7,138.1,64.3,138.1z"/>
			</g>
		</g>
	</g>
	<g>
		<g>
			<g>
				<path class="st5" d="M54.5,109.3c2.6,1.1,4.3,3.5,5.1,6.3c0.8,2.8,0.8,5.8,0.1,8.5c-0.4,1.3-1.4,3.1-2.4,5.3
					c-1,2.2-2,4.4-2.2,7.8c-0.1,1.6-0.2,3.4-0.2,5c-0.1,1.6-0.2,3-0.2,4.2c-0.2,2.4-0.3,4-0.3,4s-1.1-1.1-2.7-2.9
					c-0.8-0.9-1.8-2-2.8-3.1c-1-1.2-2.2-2.4-3.3-3.9c-1.2-1.5-2.4-3.2-3.3-5.3c-0.9-2.1-1.6-4.2-2-6.3c-0.8-4.1-0.6-7.8-0.1-9.9
					c1.2-4.3,3.6-7.3,6.3-8.8C49,108.5,52,108.2,54.5,109.3z"/>
			</g>
		</g>
	</g>
</g>
<g>
	<g>
		<g>
			<g>
				<path class="st5" d="M74.4,122.2c-2-2-2.6-4.9-2.3-7.8c0.3-2.9,1.5-5.7,3.1-7.9c0.8-1.1,2.5-2.4,4.2-3.9c1.8-1.6,3.5-3.3,5-6.4
					c0.7-1.5,1.4-3.1,2.1-4.5c0.7-1.4,1.3-2.7,1.8-3.8c1.1-2.2,1.8-3.6,1.8-3.6s0.5,1.4,1.4,3.7c0.4,1.1,0.9,2.5,1.4,4
					c0.5,1.5,1.1,3,1.6,4.8c0.5,1.8,1,3.9,1,6.2c0.1,2.3-0.1,4.5-0.5,6.6c-0.8,4.1-2.3,7.4-3.7,9.2c-2.7,3.6-6.1,5.4-9.2,5.8
					C79.2,125,76.4,124.2,74.4,122.2z"/>
			</g>
		</g>
	</g>
	<g>
		<g>
			<g>
				<path class="st5" d="M64.1,138.1c5.6-0.1,10.2,2.9,10.2,6.7c0,3.7-10,15.6-10,15.6S54,148.7,54,145
					C53.9,141.2,58.5,138.2,64.1,138.1z"/>
			</g>
		</g>
	</g>
	<g>
		<g>
			<g>
				<path class="st5" d="M73.9,109.3c2.6-1.1,5.5-0.9,8.1,0.7c2.6,1.6,5.1,4.5,6.3,8.8c0.6,2.1,0.7,5.8-0.1,9.9
					c-0.4,2.1-1.1,4.2-2,6.3c-0.9,2.1-2.1,3.9-3.3,5.3c-1.2,1.5-2.3,2.7-3.3,3.9c-1.1,1.2-2,2.2-2.8,3.1c-1.7,1.8-2.7,2.9-2.7,2.9
					s-0.1-1.5-0.3-4c-0.1-1.2-0.2-2.6-0.2-4.2c-0.1-1.6-0.1-3.3-0.2-5c-0.2-3.4-1.2-5.6-2.2-7.8c-1-2.1-2.1-3.9-2.4-5.3
					c-0.7-2.6-0.7-5.7,0.1-8.5C69.6,112.9,71.3,110.5,73.9,109.3z"/>
			</g>
		</g>
	</g>
</g>
<ellipse class="st6" cx="64.3" cy="119.2" rx="14.3" ry="28.3"/>
<path class="st7" d="M86.7,94c7.5,4.1,2.9,18.9,2.7,11c-0.1-3.8-9.5,0.1-14.9,0.1c-5.8,0-10.8-3.7-10.8-11s7.4-6.6,12.9-4.4
	C82.6,92,86.7,94,86.7,94z"/>
<path class="st7" d="M43.1,94c-7.5,4.1-2.9,18.9-2.7,11c0.1-3.8,9.5,0.1,14.9,0.1c5.8,0,10.8-3.7,10.8-11s-7.4-6.6-12.9-4.4
	C47.2,92,43.1,94,43.1,94z"/>
<path class="st6" d="M58.3,67.9h-13c-1.5,0-2.8-1.2-2.8-2.8l0,0c0-1.5,1.2-2.8,2.8-2.8h13c1.5,0,2.8,1.2,2.8,2.8l0,0
	C61,66.6,59.8,67.9,58.3,67.9z"/>
<path class="st6" d="M83.2,67.9h-13c-1.5,0-2.8-1.2-2.8-2.8l0,0c0-1.5,1.2-2.8,2.8-2.8h13c1.5,0,2.8,1.2,2.8,2.8l0,0
	C85.9,66.6,84.7,67.9,83.2,67.9z"/>
<circle class="st7" cx="54.4" cy="70.8" r="2.9"/>
<circle class="st7" cx="74.5" cy="70.8" r="2.9"/>
<path class="st3" d="M67.3,90.9h-4.8c-1.2,0-2.2-1-2.2-2.2l0.5-5.3c0-1.2,0.4-2.9,1.6-2.9h4.8c1.2,0,1.7,1.9,1.7,3.1l0.5,5.2
	C69.5,90,68.5,90.9,67.3,90.9z"/>
<path class="st8" d="M94,211.6H35.9c-1.8,0-3.2-1.4-3.2-3.2v-8.5c0-1.8,1.4-3.2,3.2-3.2H94c1.8,0,3.2,1.4,3.2,3.2v8.5
	C97.1,210.2,95.7,211.6,94,211.6z"/>
<path class="st2" d="M93.6,156.6l-3.9-20.4c-1.2-6.1,2.9-12.1,9-13.3l5.3-1c6.1-1.2,12.1,2.9,13.3,9l3.9,20.4
	c1.2,6.1-2.9,12.1-9,13.3l-5.3,1C100.8,166.8,94.8,162.7,93.6,156.6z"/>
<rect x="96.1" y="159.2" transform="matrix(0.1888 0.982 -0.982 0.1888 258.7387 23.8163)" class="st4" width="37.6" height="18.7"/>
<circle class="st4" cx="118.2" cy="185.4" r="10.2"/>
<path class="st2" d="M36.7,158.9l3.9-20.4c1.2-6.1-2.9-12.1-9-13.3l-5.3-1c-6.1-1.2-12.1,2.9-13.3,9l-3.9,20.4
	c-1.2,6.1,2.9,12.1,9,13.3l5.3,1C29.5,169.1,35.5,165,36.7,158.9z"/>
<rect x="-3.7" y="162.4" transform="matrix(-0.1888 0.982 -0.982 -0.1888 186.601 189.2001)" class="st4" width="37.6" height="18.5"/>
<path class="st9" d="M77.3,213.3h-24c-2.1,0-3.7-1.7-3.7-3.7v-16.7c0-2.1,1.7-3.7,3.7-3.7h24c2.1,0,3.7,1.7,3.7,3.7v16.7
	C81,211.7,79.4,213.3,77.3,213.3z"/>
<g>
	<path class="st10" d="M108.5,263.5H68.1v-22.4h22.4c9.9,0,18,8.1,18,18V263.5z"/>
	<rect x="68.1" y="259.8" class="st11" width="40.4" height="3.7"/>
	<rect x="68.1" y="261.7" class="st12" width="40.4" height="0.9"/>
	<g>
		<g>
			<path class="st13" d="M98.4,244.6c0.2,0.6,0.1,1.1,0,1.7c-0.2,0.5-0.5,1.2-0.9,1.6c-1,1.1-2.2,1.8-3.5,2.5
				c-0.5,0.3-0.6,0.9-0.4,1.4c0.3,0.5,0.9,0.6,1.4,0.4c1.5-0.9,3-1.8,4.1-3.2c1.1-1.4,1.7-3.2,1.2-5
				C100,242.9,98.1,243.4,98.4,244.6L98.4,244.6z"/>
		</g>
	</g>
</g>
<g>
	<path class="st10" d="M22.4,263.5h40.4v-22.4H40.4c-9.9,0-18,8.1-18,18V263.5z"/>
	
		<rect x="22.4" y="259.8" transform="matrix(-1 -4.496016e-11 4.496016e-11 -1 85.1958 523.304)" class="st11" width="40.4" height="3.7"/>
	
		<rect x="22.4" y="261.7" transform="matrix(-1 -4.496016e-11 4.496016e-11 -1 85.1958 524.2386)" class="st12" width="40.4" height="0.9"/>
	<g>
		<g>
			<path class="st13" d="M30.6,244.1c-0.5,1.8,0.1,3.6,1.2,5c1.1,1.4,2.6,2.3,4.1,3.2c0.5,0.3,1.1,0.1,1.4-0.4
				c0.3-0.5,0.1-1.1-0.4-1.4c-1.3-0.7-2.5-1.4-3.5-2.5c-0.4-0.4-0.7-1.1-0.9-1.6c0-0.2-0.1-0.3-0.1-0.5c0,0,0-0.2,0-0.1
				c0-0.1,0-0.1,0-0.2c0-0.4,0-0.6,0.1-0.9C32.8,243.4,30.9,242.9,30.6,244.1L30.6,244.1z"/>
		</g>
	</g>
</g>
<path class="st14" d="M89.6,246.9H71c-2.9,0-5.2-2.3-5.2-5.2V234c0-2.9,2.3-5.2,5.2-5.2h18.6c2.9,0,5.2,2.3,5.2,5.2v7.7
	C94.7,244.6,92.4,246.9,89.6,246.9z"/>
<path class="st14" d="M59.3,246.9H40.7c-2.9,0-5.2-2.3-5.2-5.2V234c0-2.9,2.3-5.2,5.2-5.2h18.6c2.9,0,5.2,2.3,5.2,5.2v7.7
	C64.5,244.6,62.1,246.9,59.3,246.9z"/>
<circle class="st4" cx="11.2" cy="189" r="10.2"/>
<path class="st3" d="M34.5,84.2h2.9V70.8h-2.9c-1.1,0-2,0.9-2,2v9.5C32.5,83.3,33.4,84.2,34.5,84.2z"/>
<path class="st6" d="M76.3,49H51.9c-8.1,0-14.6,7.3-14.6,16.4V68c0-6.5,4.7-11.8,10.5-11.8h32.6c5.8,0,10.5,5.3,10.5,11.8v-2.6
	C90.9,56.4,84.4,49,76.3,49z"/>
<polygon class="st15" points="160.1,262.9 146.9,262.9 173.3,195.6 184.3,195.6 "/>
<polygon class="st15" points="265.1,262.9 278.3,262.9 251.9,195.6 240.9,195.6 "/>
<path class="st16" d="M262.2,196.6h-99.4c-0.6,0-1-0.4-1-1v-9.2c0-0.6,0.4-1,1-1h99.4c0.6,0,1,0.4,1,1v9.2
	C263.2,196.1,262.7,196.6,262.2,196.6z"/>
<path class="st17" d="M161.8,193.6h-1.4c-0.5,0-1-0.4-1-1v-3.3c0-0.6,0.5-1,1-1h1.4V193.6z"/>
<path class="st17" d="M263.2,193.6h1.4c0.6,0,1-0.4,1-1v-3.3c0-0.6-0.4-1-1-1h-1.4V193.6z"/>
<polygon class="st18" points="173.4,104.1 175.1,110.6 173.4,117.1 162.4,117.1 160.6,110.6 162.4,104.1 "/>
<rect x="158.5" y="108.3" class="st18" width="18.6" height="4.6"/>
<path class="st19" d="M175.7,107.9c0,0,2.4-0.8,3.2-0.8c0.8,0,3.2,0,3.2,0.8c0,1.5,0,4,0,5.4c0,0.8-2.4,0.9-3.2,0.9
	c-0.8,0-3.2-0.9-3.2-0.9V107.9z"/>
<path class="st19" d="M150.5,105.6c0-1.2,3.3-1.5,4.5-1.5s4.6,0.3,4.5,1.5c0,2.8,0,7.1,0,9.9c0,1.2-3.3,1.5-4.5,1.6
	s-4.5-0.4-4.5-1.6C150.4,112.6,150.5,108.5,150.5,105.6z"/>
<polygon class="st20" points="276.6,167.8 266,178.9 265.6,176.6 262.4,176.2 261.5,172.9 258,172.7 256.9,169.4 253.7,169.5 
	252.9,166.3 249.9,166.5 249.1,163.7 245.6,163.2 244.1,159.7 241.4,160 240.8,157 237.5,157 236.4,153.7 233.3,153.7 232.7,150.8 
	229.5,150.8 228.7,148 225.7,147.8 224.4,144.5 221.3,144.5 220.1,141.2 216.9,141.1 215.7,137.8 212.8,137.9 212.1,135.1 209,135 
	208.5,132.3 205.4,132.2 221.2,115.5 "/>
<path class="st21" d="M206.2,100l-17.1,18.1c-0.8,0.8-0.7,2.1,0.1,2.9l13.6,12.8c0.8,0.8,2.1,0.7,2.9-0.1l17.1-18.1
	c0.8-0.8,0.7-2.1-0.1-2.9l-13.6-12.8C208.3,99.2,207,99.2,206.2,100z M215.9,111l-15.1,16l-6.6-6.3c-0.8-0.8-0.9-2.1-0.1-2.9
	l12.3-13c0.8-0.8,2.1-0.9,2.9-0.1L215.9,111z"/>
<circle class="st22" cx="206.7" cy="126.9" r="2.2"/>
<circle class="st22" cx="212" cy="121.3" r="2.2"/>
<circle class="st22" cx="216.6" cy="116.4" r="2.2"/>
</svg>
