<?xml version="1.0" encoding="utf-8"?>
<!-- Generator: Adobe Illustrator 24.0.1, SVG Export Plug-In . SVG Version: 6.00 Build 0)  -->
<svg version="1.1" id="Layer_1" xmlns="http://www.w3.org/2000/svg" xmlns:xlink="http://www.w3.org/1999/xlink" x="0px" y="0px"
	 viewBox="0 0 280 270" style="enable-background:new 0 0 280 270;" xml:space="preserve">
<style type="text/css">
	.st0{fill:#D6951F;}
	.st1{fill:#BEA871;}
	.st2{fill:#8B6C2A;}
	.st3{fill:#AF852D;}
	.st4{fill:#3F3D17;}
	.st5{fill:#715623;}
	.st6{fill:#3E2C13;}
	.st7{fill:#6C5020;}
	.st8{fill:#386F3D;}
	.st9{fill:#FFFAEB;}
	.st10{fill:#4FB755;}
	.st11{fill:#603B15;}
	.st12{fill:#FFF0EB;}
	.st13{fill:#200E0A;}
	.st14{fill:#231F20;}
	.st15{fill:#9C692E;}
	.st16{fill:#4D3824;}
	.st17{fill:#FDE9A1;stroke:#030202;stroke-width:0.75;stroke-miterlimit:10;}
	.st18{fill:#7F461D;}
	.st19{fill:#633412;}
	.st20{fill:#F9C11F;}
	.st21{fill:#717275;}
	.st22{fill:#454547;}
	.st23{fill:#F5A924;}
	.st24{fill:#434345;}
	.st25{fill:#7D7E80;}
</style>
<path class="st0" d="M211.9,113.6h-44.6c-1.7,0-3-1.3-3-3V94.9c0-1.7,1.3-3,3-3h44.6c1.7,0,3,1.3,3,3v15.7
	C214.9,112.2,213.6,113.6,211.9,113.6z"/>
<path class="st1" d="M67.4,104.5H52.7c-2,0-3.6-1.6-3.6-3.6V82.8c0-2,1.6-3.6,3.6-3.6h14.6c2,0,3.6,1.6,3.6,3.6v18.2
	C70.9,102.9,69.3,104.5,67.4,104.5z"/>
<g>
	<path class="st1" d="M60.9,98.4h-4c-12.7,0-23-10.3-23-23v-38c0-10.5,8.5-19,19-19h12c10.5,0,19,8.5,19,19v38
		C83.9,88.1,73.6,98.4,60.9,98.4z"/>
	<path class="st2" d="M53.6,43.9h-9c-1.1,0-2-0.9-2-2v-0.7c0-1.1,0.9-2,2-2h9c1.1,0,2,0.9,2,2v0.7C55.6,43,54.7,43.9,53.6,43.9z"/>
	<path class="st2" d="M74.1,43.9h-9c-1.1,0-2-0.9-2-2v-0.7c0-1.1,0.9-2,2-2h9c1.1,0,2,0.9,2,2v0.7C76.1,43,75.2,43.9,74.1,43.9z"/>
	<path class="st3" d="M33.9,58.8h-3.1c-1.1,0-2-0.9-2-2v-4.6c0-1.1,0.9-2,2-2h3.1V58.8z"/>
	<path class="st3" d="M87.1,58.8h-3.1v-8.6h3.1c1.1,0,2,0.9,2,2v4.6C89.1,57.9,88.2,58.8,87.1,58.8z"/>
	<circle class="st4" cx="49.1" cy="48.1" r="2.1"/>
	<circle class="st4" cx="70.2" cy="48.1" r="2.1"/>
	<ellipse class="st5" cx="59.6" cy="68.2" rx="7" ry="5"/>
	<path class="st3" d="M60.4,62.3h-1.1c-1.1,0-2-0.9-2-2v-8.2c0-1.1,0.9-2,2-2h1.1c1.1,0,2,0.9,2,2v8.2
		C62.4,61.4,61.5,62.3,60.4,62.3z"/>
	<path class="st6" d="M64.9,18.4h-12c-10.5,0-19,8.5-19,19V45c0.5-2,2-3.6,4.7-3.6c0.1,0,0.2,0,0.3,0C40,32,48,24.7,57.7,24.7h12
		c4.7,0,9,1.7,12.3,4.6C79,22.8,72.5,18.4,64.9,18.4z"/>
	<path class="st6" d="M65.8,85.2h-4c-12.7,0-23-10.3-23-23l0.1-20.8c0.1-12.5-0.6-1.7-1.8-2.2c-3.7-1.6-3.1,7.2-3.1,14.5v21.9
		c0,12.7,10.3,23,23,23h4c12.4,0,22.6-9.9,23-22.2C79.7,81.8,73.1,85.2,65.8,85.2z"/>
	<g>
		<g>
			<g>
				<g>
					<path class="st4" d="M59.6,61.5c0.8,1.1,0.9,2.6,0.2,4c-0.7,1.4-2.2,2.6-4.2,3.1c-1,0.2-3.5,0.4-6.5-0.2
						c-3-0.6-6.4-2.3-8.7-4.6c-2.4-2.3-3.9-5-4.6-7c-0.4-1-0.5-1.9-0.7-2.5c-0.1-0.6-0.1-0.9-0.1-0.9s0.2,0.3,0.5,0.8
						c0.4,0.5,0.9,1.1,1.6,1.8c1.4,1.4,3.6,2.9,6,3.6c2.4,0.8,4.8,0.8,6.6,0.4c1.8-0.4,3.1-1,3.6-1.1c1.1-0.3,2.1-0.1,3.3,0.4
						C57.7,59.7,58.9,60.4,59.6,61.5z"/>
				</g>
			</g>
		</g>
		<g>
			<g>
				<g>
					<path class="st4" d="M60.1,61.5c0.8-1.2,1.9-1.9,3-2.3c1.1-0.4,2.2-0.6,3.3-0.4c0.5,0.1,1.8,0.7,3.6,1.1
						c1.8,0.4,4.2,0.4,6.6-0.4c2.4-0.7,4.6-2.2,6-3.6c0.7-0.7,1.2-1.3,1.6-1.8c0.3-0.5,0.5-0.8,0.5-0.8s-0.1,0.3-0.1,0.9
						c-0.1,0.6-0.3,1.4-0.7,2.5c-0.7,2-2.2,4.7-4.6,7c-2.4,2.3-5.7,4-8.7,4.6c-3,0.7-5.5,0.5-6.5,0.2c-2-0.5-3.5-1.7-4.2-3.1
						C59.2,64.1,59.3,62.7,60.1,61.5z"/>
				</g>
			</g>
		</g>
	</g>
	<path class="st6" d="M83.9,37.2h-50v0c0-16.5,13.5-30,30-30h20c8.2,0,15,6.7,15,15v0C98.9,30.5,92.2,37.2,83.9,37.2z"/>
	<g>
		<g>
			<path class="st7" d="M88.5,10c-7.3,7-20.6,2.7-29.3,2.5c-6.1-0.1-12.6,4-17.9,6.6c-1.7,0.8,0.9,1,1.7,0.6
				c5.5-2.7,11.1-5.9,17.4-5.4c4.4,0.4,8.7,0.7,13.2,0.7c6.4-0.1,12.7-0.4,17.5-5.1C91.8,9.2,89,9.4,88.5,10L88.5,10z"/>
		</g>
	</g>
	<g>
		<g>
			<path class="st7" d="M92.1,13.2c-7.2,11.1-22,6.9-33,7.4c-9.1,0.4-16.2,4.6-23.4,9.9c-1.6,1.2,0.8,2.1,1.9,1.3
				c5.7-4.1,11.3-8,18.4-8.9c5.9-0.7,11.9,0.2,17.8,0.1c8.2-0.1,16.4-2.4,21.1-9.6C95.7,12.2,92.8,12.2,92.1,13.2L92.1,13.2z"/>
		</g>
	</g>
	<g>
		<g>
			<path class="st7" d="M93.5,15c0.4,15.3-19.2,12.5-29.3,13c-7.9,0.4-15.6,2.5-21.4,8.3c-1.2,1.2,1.6,1.5,2.4,0.7
				c10.1-10,23.9-5.5,36.4-7.7c7.5-1.3,15-6.1,14.8-14.5C96.4,13.4,93.5,13.9,93.5,15L93.5,15z"/>
		</g>
	</g>
	<g>
		<g>
			<path class="st7" d="M95,18.4c-0.8,4.4-2.1,7.7-6.6,9.5c-2.2,0.9-4.9,0.8-7.2,1.5c-3.7,1.1-6.8,3.3-9.3,6.3
				c-1.2,1.4,1.6,1.9,2.4,0.9c2.8-3.3,6.1-4.9,10.2-5.7c2.5-0.5,5.1-0.8,7.3-2c3.9-2.2,5.2-6.4,6-10.6C98.2,16.8,95.2,17.1,95,18.4
				L95,18.4z"/>
		</g>
	</g>
</g>
<path class="st8" d="M83,169.2H39.7c-3.5,0-6.4-2.9-6.4-6.4v-55.7c0-3.5,2.9-6.4,6.4-6.4H83c3.5,0,6.4,2.9,6.4,6.4v55.7
	C89.4,166.3,86.5,169.2,83,169.2z"/>
<rect x="73.5" y="111.9" class="st9" width="7.8" height="7.8"/>
<path class="st10" d="M79.7,124.9h-4.5c-1.6,0-2.9-1.3-2.9-2.9v-4.5c0-1.6,1.3-2.9,2.9-2.9h4.5c1.6,0,2.9,1.3,2.9,2.9v4.5
	C82.6,123.6,81.3,124.9,79.7,124.9z"/>
<g>
	<path class="st11" d="M105.2,266.3H63V243h24.2c9.9,0,18,8.1,18,18V266.3z"/>
	<rect x="63" y="262.4" class="st12" width="42.2" height="3.9"/>
	<rect x="63" y="264.4" class="st13" width="42.2" height="1"/>
	<g>
		<g>
			<path class="st14" d="M87.7,245c0.7,3-2.4,4.9-4.6,6.2c-1.1,0.6-0.1,2.4,1,1.7c3.1-1.8,6.4-4.4,5.5-8.5
				C89.3,243.2,87.4,243.7,87.7,245L87.7,245z"/>
		</g>
	</g>
	<g>
		<g>
			<path class="st14" d="M93.9,246.6c0.7,3-2.4,4.9-4.6,6.2c-1.1,0.6-0.1,2.4,1,1.7c3.1-1.8,6.4-4.4,5.5-8.5
				C95.5,244.8,93.6,245.4,93.9,246.6L93.9,246.6z"/>
		</g>
	</g>
	<g>
		<g>
			<path class="st14" d="M98.1,249.8c0.7,3-2.4,4.9-4.6,6.2c-1.1,0.6-0.1,2.4,1,1.7c3.1-1.8,6.4-4.4,5.5-8.5
				C99.7,248,97.8,248.5,98.1,249.8L98.1,249.8z"/>
		</g>
	</g>
</g>
<path class="st1" d="M73.6,250h-5.4c-2.9,0-5.2-2.3-5.2-5.2V236c0-2.9,2.3-5.2,5.2-5.2h5.4c2.9,0,5.2,2.3,5.2,5.2v8.8
	C78.8,247.7,76.5,250,73.6,250z"/>
<path class="st15" d="M78.8,241.3H63V169c0-3.3,2.7-6,6-6h3.8c3.3,0,6,2.7,6,6V241.3z"/>
<path class="st16" d="M77.5,241.3H64.4c-1.7,0-3-1.3-3-3V237c0-1.7,1.3-3,3-3h13.1c1.7,0,3,1.3,3,3v1.3
	C80.5,239.9,79.1,241.3,77.5,241.3z"/>
<g>
	<path class="st11" d="M13.1,266.3h42.2V243H31.1c-9.9,0-18,8.1-18,18V266.3z"/>
	
		<rect x="13.1" y="262.4" transform="matrix(-1 -4.486379e-11 4.486379e-11 -1 68.4586 528.7726)" class="st12" width="42.2" height="3.9"/>
	
		<rect x="13.1" y="264.4" transform="matrix(-1 -4.490687e-11 4.490687e-11 -1 68.4586 529.7477)" class="st13" width="42.2" height="1"/>
	<g>
		<g>
			<path class="st14" d="M28.8,244.4c-0.9,4,2.4,6.7,5.5,8.5c1.1,0.6,2.1-1.1,1-1.7c-2.2-1.3-5.3-3.2-4.6-6.2
				C31,243.7,29,243.2,28.8,244.4L28.8,244.4z"/>
		</g>
	</g>
	<g>
		<g>
			<path class="st14" d="M22.5,246.1c-0.9,4,2.4,6.7,5.5,8.5c1.1,0.6,2.1-1.1,1-1.7c-2.2-1.3-5.3-3.2-4.6-6.2
				C24.8,245.4,22.8,244.8,22.5,246.1L22.5,246.1z"/>
		</g>
	</g>
	<g>
		<g>
			<path class="st14" d="M18.3,249.3c-0.9,4,2.4,6.7,5.5,8.5c1.1,0.6,2.1-1.1,1-1.7c-2.2-1.3-5.3-3.2-4.6-6.2
				C20.5,248.5,18.6,248,18.3,249.3L18.3,249.3z"/>
		</g>
	</g>
</g>
<path class="st1" d="M44.7,250h5.4c2.9,0,5.2-2.3,5.2-5.2V236c0-2.9-2.3-5.2-5.2-5.2h-5.4c-2.9,0-5.2,2.3-5.2,5.2v8.8
	C39.5,247.7,41.9,250,44.7,250z"/>
<path class="st15" d="M39.5,241.3h15.8V169c0-3.3-2.7-6-6-6h-3.8c-3.3,0-6,2.7-6,6V241.3z"/>
<path class="st16" d="M40.9,241.3H54c1.7,0,3-1.3,3-3V237c0-1.7-1.3-3-3-3H40.9c-1.7,0-3,1.3-3,3v1.3
	C37.9,239.9,39.2,241.3,40.9,241.3z"/>
<rect x="30.9" y="162.3" class="st14" width="56" height="7.8"/>
<circle class="st1" cx="93.7" cy="169.1" r="9.4"/>
<path class="st1" d="M94,173.4H91c-3.5,0-6.4-2.9-6.4-6.4v-49c0-3.5,2.9-6.4,6.4-6.4H94c3.5,0,6.4,2.9,6.4,6.4v49
	C100.4,170.5,97.5,173.4,94,173.4z"/>
<circle class="st1" cx="26.8" cy="169.9" r="9.4"/>
<path class="st1" d="M28.7,173.4h-3.1c-3.5,0-6.4-2.9-6.4-6.4v-49c0-3.5,2.9-6.4,6.4-6.4h3.1c3.5,0,6.4,2.9,6.4,6.4v49
	C35.1,170.5,32.2,173.4,28.7,173.4z"/>
<path class="st17" d="M63.4,171.6H56c-2.1,0-3.7-1.7-3.7-3.7v-4c0-2.1,1.7-3.7,3.7-3.7h7.4c2.1,0,3.7,1.7,3.7,3.7v4
	C67.2,169.9,65.5,171.6,63.4,171.6z"/>
<path class="st8" d="M94,106.3H91c-3.5,0-6.4,2.9-6.4,6.4v10.1h15.8v-10.1C100.4,109.2,97.5,106.3,94,106.3z"/>
<path class="st8" d="M28.7,104.5h-3.1c-3.5,0-6.4,2.9-6.4,6.4V121h15.8v-10.1C35.1,107.4,32.2,104.5,28.7,104.5z"/>
<g>
	<g>
		<path class="st18" d="M164,244.9c0.2-0.1,0.3-0.2,0.5-0.3c1.3-0.6,2.4-2.2,2.8-3.6c0.4-1.4,0.2-3.3-0.6-4.6
			c-0.8-1.3-2.1-2.4-3.6-2.8c-0.5-0.1-1.1-0.1-1.6-0.2c-1.1,0-2.1,0.3-3,0.8c-0.2,0.1-0.3,0.2-0.5,0.3c-1.3,0.6-2.4,2.2-2.8,3.6
			c-0.4,1.4-0.2,3.3,0.6,4.6c0.8,1.3,2.1,2.4,3.6,2.8c0.5,0.1,1.1,0.1,1.6,0.2C162.1,245.7,163.1,245.5,164,244.9L164,244.9z"/>
	</g>
</g>
<g>
	<g>
		<path class="st18" d="M225.3,240.7c7.7,0,7.7-12,0-12C217.5,228.7,217.5,240.7,225.3,240.7L225.3,240.7z"/>
	</g>
</g>
<g>
	<g>
		<path class="st18" d="M217.8,229.5c-0.2,0-0.3,0-0.5,0c-1.5,0-3.2,0.7-4.2,1.8c-1,1-1.8,2.7-1.8,4.2c0.1,1.6,0.6,3.2,1.8,4.2
			c1.2,1.1,2.6,1.8,4.2,1.8c0.2,0,0.3,0,0.5,0c1.5,0,3.2-0.7,4.2-1.8c1-1,1.8-2.7,1.8-4.2c-0.1-1.6-0.6-3.2-1.8-4.2
			C220.8,230.2,219.4,229.5,217.8,229.5L217.8,229.5z"/>
	</g>
</g>
<g>
	<g>
		<path class="st18" d="M208.9,229.2c-0.3,0.1-0.7,0.2-1,0.3c-1.4,0.4-2.8,1.5-3.6,2.8c-0.8,1.3-1.1,3.2-0.6,4.6
			c0.5,1.5,1.4,2.9,2.8,3.6c1.4,0.8,3,1,4.6,0.6c0.3-0.1,0.7-0.2,1-0.3c1.4-0.4,2.8-1.5,3.6-2.8c0.8-1.3,1.1-3.2,0.6-4.6
			c-0.5-1.5-1.4-2.9-2.8-3.6C212.1,229.1,210.5,228.8,208.9,229.2L208.9,229.2z"/>
	</g>
</g>
<g>
	<g>
		<path class="st18" d="M198.4,231.7c-0.4,0.1-0.8,0.2-1.3,0.3c-1.4,0.3-2.9,1.5-3.6,2.8c-0.8,1.3-1.1,3.2-0.6,4.6
			c0.5,1.5,1.4,2.9,2.8,3.6c0.5,0.2,1,0.4,1.4,0.6c1.1,0.3,2.1,0.3,3.2,0c0.4-0.1,0.8-0.2,1.3-0.3c1.4-0.3,2.9-1.5,3.6-2.8
			c0.8-1.3,1.1-3.2,0.6-4.6c-0.5-1.5-1.4-2.9-2.8-3.6c-0.5-0.2-1-0.4-1.4-0.6C200.5,231.4,199.5,231.4,198.4,231.7L198.4,231.7z"/>
	</g>
</g>
<g>
	<g>
		<path class="st18" d="M187.7,232.5c-0.1-0.1-0.2-0.2-0.3-0.3c-1.1-1.1-2.7-1.8-4.2-1.8c-1.5,0-3.2,0.7-4.2,1.8
			c-1,1.1-1.8,2.6-1.8,4.2c0.1,1.6,0.6,3.1,1.8,4.2c0.1,0.1,0.2,0.2,0.3,0.3c1.1,1.1,2.7,1.8,4.2,1.8c1.5,0,3.2-0.7,4.2-1.8
			c1-1.1,1.8-2.6,1.8-4.2C189.4,235.2,188.9,233.6,187.7,232.5L187.7,232.5z"/>
	</g>
</g>
<g>
	<g>
		<path class="st18" d="M176,230.2c-0.4,0-0.8,0-1.3,0c-1.5,0-3.2,0.7-4.2,1.8c-1,1-1.8,2.7-1.8,4.2c0.1,1.6,0.6,3.2,1.8,4.2
			c1.2,1.1,2.6,1.8,4.2,1.8c0.4,0,0.8,0,1.3,0c1.5,0,3.2-0.7,4.2-1.8c1-1,1.8-2.7,1.8-4.2c-0.1-1.6-0.6-3.2-1.8-4.2
			C179.1,230.9,177.6,230.2,176,230.2L176,230.2z"/>
	</g>
</g>
<g>
	<g>
		<path class="st18" d="M163.5,229.8c-0.2,0.1-0.3,0.2-0.5,0.3c-1.3,0.7-2.4,2.2-2.8,3.6c-0.4,1.4-0.2,3.3,0.6,4.6
			c0.8,1.3,2.1,2.4,3.6,2.8c1.6,0.4,3.1,0.2,4.6-0.6c0.2-0.1,0.3-0.2,0.5-0.3c1.3-0.7,2.4-2.2,2.8-3.6c0.4-1.4,0.2-3.3-0.6-4.6
			c-0.8-1.3-2.1-2.4-3.6-2.8C166.5,228.8,165,229,163.5,229.8L163.5,229.8z"/>
	</g>
</g>
<g>
	<g>
		<path class="st18" d="M159.5,232.8c-0.2,0.1-0.3,0.2-0.5,0.3c-1.3,0.6-2.4,2.2-2.8,3.6c-0.4,1.4-0.2,3.3,0.6,4.6
			c0.8,1.3,2.1,2.4,3.6,2.8c0.5,0.1,1.1,0.1,1.6,0.2c1.1,0,2.1-0.3,3-0.8c0.2-0.1,0.3-0.2,0.5-0.3c1.3-0.6,2.4-2.2,2.8-3.6
			c0.4-1.4,0.2-3.3-0.6-4.6c-0.8-1.3-2.1-2.4-3.6-2.8c-0.5-0.1-1.1-0.1-1.6-0.2C161.4,232,160.4,232.3,159.5,232.8L159.5,232.8z"/>
	</g>
</g>
<g>
	<g>
		<path class="st18" d="M239.3,244.5c7.7,0,7.7-12,0-12C231.5,232.5,231.5,244.5,239.3,244.5L239.3,244.5z"/>
	</g>
</g>
<g>
	<g>
		<path class="st18" d="M238,231c-0.1-0.1-0.2-0.2-0.3-0.3c-1.1-1.1-2.7-1.8-4.2-1.8c-1.5,0-3.2,0.7-4.2,1.8c-1,1.1-1.8,2.6-1.8,4.2
			c0.1,1.6,0.6,3.1,1.8,4.2c0.1,0.1,0.2,0.2,0.3,0.3c1.1,1.1,2.7,1.8,4.2,1.8c1.5,0,3.2-0.7,4.2-1.8c1-1.1,1.8-2.6,1.8-4.2
			C239.7,233.7,239.1,232.1,238,231L238,231z"/>
	</g>
</g>
<g>
	<g>
		<path class="st18" d="M229,228.5c-0.2,0-0.3,0-0.5,0c-1.5,0-3.2,0.7-4.2,1.8c-1,1-1.8,2.7-1.8,4.2c0.1,1.6,0.6,3.2,1.8,4.2
			c1.2,1.1,2.6,1.8,4.2,1.8c0.2,0,0.3,0,0.5,0c1.5,0,3.2-0.7,4.2-1.8c1-1,1.8-2.7,1.8-4.2c-0.1-1.6-0.6-3.2-1.8-4.2
			C232.1,229.2,230.6,228.5,229,228.5L229,228.5z"/>
	</g>
</g>
<g>
	<g>
		<path class="st18" d="M156.5,236.2c7.7,0,7.7-12,0-12C148.8,224.2,148.8,236.2,156.5,236.2L156.5,236.2z"/>
	</g>
</g>
<g>
	<g>
		<path class="st18" d="M181,242c7.7,0,7.7-12,0-12C173.3,230,173.3,242,181,242L181,242z"/>
	</g>
</g>
<g>
	<g>
		<path class="st18" d="M189.3,243.2c7.7,0,7.7-12,0-12C181.5,231.2,181.5,243.2,189.3,243.2L189.3,243.2z"/>
	</g>
</g>
<g>
	<g>
		<path class="st18" d="M150.5,241.2c7.7,0,7.7-12,0-12C142.8,229.2,142.8,241.2,150.5,241.2L150.5,241.2z"/>
	</g>
</g>
<g>
	<g>
		<path class="st18" d="M161.5,237.2c0.2,0,0.3,0,0.5,0c1.5,0,3.2-0.7,4.2-1.8c1-1,1.8-2.7,1.8-4.2c-0.1-1.6-0.6-3.2-1.8-4.2
			c-1.2-1.1-2.6-1.8-4.2-1.8c-0.2,0-0.3,0-0.5,0c-1.5,0-3.2,0.7-4.2,1.8c-1,1-1.8,2.7-1.8,4.2c0.1,1.6,0.6,3.2,1.8,4.2
			C158.4,236.6,159.9,237.2,161.5,237.2L161.5,237.2z"/>
	</g>
</g>
<g>
	<g>
		<path class="st18" d="M163,233.5c7.7,0,7.7-12,0-12C155.3,221.5,155.3,233.5,163,233.5L163,233.5z"/>
	</g>
</g>
<g>
	<g>
		<path class="st18" d="M162.5,230.7c7.7,0,7.7-12,0-12C154.8,218.7,154.8,230.7,162.5,230.7L162.5,230.7z"/>
	</g>
</g>
<g>
	<g>
		<path class="st19" d="M221.8,238.7c0.2,0,0.3,0,0.5,0c1.5,0,3.2-0.7,4.2-1.8c1-1,1.8-2.7,1.8-4.2c-0.1-1.6-0.6-3.2-1.8-4.2
			c-1.2-1.1-2.6-1.8-4.2-1.8c-0.2,0-0.3,0-0.5,0c-1.5,0-3.2,0.7-4.2,1.8c-1,1-1.8,2.7-1.8,4.2c0.1,1.6,0.6,3.2,1.8,4.2
			C218.7,238.1,220.1,238.7,221.8,238.7L221.8,238.7z"/>
	</g>
</g>
<g>
	<g>
		<path class="st19" d="M227.3,234c7.7,0,7.7-12,0-12C219.5,222,219.5,234,227.3,234L227.3,234z"/>
	</g>
</g>
<g>
	<g>
		<path class="st19" d="M221.7,226.6c-0.7,0.5-1.5,1-2.4,1.3c0.5-0.2,1-0.4,1.4-0.6c-0.4,0.2-0.8,0.3-1.2,0.4
			c-1.5,0.4-2.8,1.4-3.6,2.8c-0.8,1.3-1.1,3.2-0.6,4.6c1,3,4.2,5.2,7.4,4.2c1.7-0.5,3.5-1.3,4.9-2.3c1.3-0.9,2.3-2,2.8-3.6
			c0.4-1.4,0.2-3.3-0.6-4.6c-0.8-1.3-2.1-2.4-3.6-2.8C224.9,225.6,223,225.7,221.7,226.6L221.7,226.6z"/>
	</g>
</g>
<g>
	<g>
		<path class="st19" d="M213.8,231.5c-0.2,0.2-0.4,0.4-0.6,0.5c0.4-0.3,0.8-0.6,1.2-0.9c-0.3,0.2-0.6,0.4-1,0.6
			c0.5-0.2,1-0.4,1.4-0.6c-0.1,0.1-0.3,0.1-0.4,0.2c-1.5,0.5-2.8,1.4-3.6,2.8c-0.8,1.3-1.1,3.2-0.6,4.6c0.5,1.5,1.4,2.9,2.8,3.6
			c1.4,0.7,3.1,1.1,4.6,0.6c1.7-0.6,3.4-1.5,4.6-2.8c1.1-1.1,1.8-2.6,1.8-4.2c0-1.5-0.7-3.2-1.8-4.2c-1.1-1-2.6-1.8-4.2-1.8
			C216.4,229.8,214.8,230.3,213.8,231.5L213.8,231.5z"/>
	</g>
</g>
<g>
	<g>
		<path class="st19" d="M221.2,243.2c0.2,0.1,0.3,0.2,0.5,0.3c1.5,0.7,3,1,4.6,0.6c1.4-0.4,2.9-1.5,3.6-2.8c0.7-1.4,1.1-3.1,0.6-4.6
			c-0.5-1.4-1.4-2.9-2.8-3.6c-0.2-0.1-0.3-0.2-0.5-0.3c-1.5-0.7-3-1-4.6-0.6c-1.4,0.4-2.9,1.5-3.6,2.8c-0.7,1.4-1.1,3.1-0.6,4.6
			C218.9,241,219.8,242.5,221.2,243.2L221.2,243.2z"/>
	</g>
</g>
<g>
	<g>
		<path class="st19" d="M224.1,242c0.2,0.3,0.3,0.7,0.5,1c0.7,1.3,2.2,2.4,3.6,2.8c1.4,0.4,3.3,0.2,4.6-0.6c1.3-0.8,2.4-2.1,2.8-3.6
			c0.4-1.6,0.2-3.1-0.6-4.6c-0.2-0.3-0.3-0.7-0.5-1c-0.7-1.3-2.2-2.4-3.6-2.8c-1.4-0.4-3.3-0.2-4.6,0.6c-1.3,0.8-2.4,2.1-2.8,3.6
			C223.1,239,223.4,240.5,224.1,242L224.1,242z"/>
	</g>
</g>
<g>
	<g>
		<g>
			<path class="st18" d="M165.5,234.7c-0.1,0-0.2,0-0.3,0c-1.5,0-3.2,0.7-4.2,1.8c-1,1-1.8,2.7-1.8,4.2c0.1,1.6,0.6,3.2,1.8,4.2
				c1.2,1.1,2.6,1.8,4.2,1.8c0.1,0,0.2,0,0.3,0c1.5,0,3.2-0.7,4.2-1.8c1-1,1.8-2.7,1.8-4.2c-0.1-1.6-0.6-3.2-1.8-4.2
				C168.5,235.4,167.1,234.7,165.5,234.7L165.5,234.7z"/>
		</g>
	</g>
	<g>
		<g>
			<path class="st18" d="M156.5,254.2c7.7,0,7.7-12,0-12C148.7,242.2,148.7,254.2,156.5,254.2L156.5,254.2z"/>
		</g>
	</g>
	<g>
		<g>
			<path class="st18" d="M146.5,256.7c7.7,0,7.7-12,0-12C138.7,244.7,138.7,256.7,146.5,256.7L146.5,256.7z"/>
		</g>
	</g>
	<g>
		<g>
			<path class="st18" d="M152.7,251.4c7.7,0,7.7-12,0-12C145,239.4,145,251.4,152.7,251.4L152.7,251.4z"/>
		</g>
	</g>
	<g>
		<g>
			<path class="st18" d="M156,249.9c7.7,0,7.7-12,0-12C148.2,237.9,148.2,249.9,156,249.9L156,249.9z"/>
		</g>
	</g>
	<g>
		<g>
			<path class="st18" d="M157.7,248.4c7.7,0,7.7-12,0-12C150,236.4,150,248.4,157.7,248.4L157.7,248.4z"/>
		</g>
	</g>
	<g>
		<g>
			<path class="st18" d="M164.9,243.4c0.1-0.1,0.2-0.2,0.3-0.3c-0.4,0.3-0.8,0.6-1.2,0.9c0.1-0.1,0.3-0.2,0.4-0.2
				c-0.5,0.2-1,0.4-1.4,0.6c0.2-0.1,0.4-0.1,0.6-0.2c-0.5,0.1-1.1,0.1-1.6,0.2c0.1,0,0.1,0,0.2,0c0.8,0,1.6-0.1,2.3-0.5
				c0.7-0.2,1.4-0.7,1.9-1.2c1-1,1.8-2.7,1.8-4.2c-0.1-1.6-0.6-3.2-1.8-4.2c-0.4-0.3-0.8-0.6-1.2-0.9c-0.9-0.5-1.9-0.8-3-0.8
				c-1.6,0.2-2.3,0.3-3.8,1c-0.7,0.4-1.4,0.9-2,1.5c-1.1,1.1-1.8,2.7-1.8,4.2c0,1.5,0.7,3.2,1.8,4.2c1.1,1,2.6,1.8,4.2,1.8
				C162.3,245.1,163.8,244.6,164.9,243.4L164.9,243.4z"/>
		</g>
	</g>
	<g>
		<g>
			<path class="st18" d="M168,241.2c0.4,0.3,0.8,0.7,1.2,1c0.5,0.6,1.2,1,1.9,1.2c0.7,0.4,1.5,0.5,2.3,0.5c1.5,0,3.2-0.7,4.2-1.8
				c1-1.1,1.8-2.6,1.8-4.2c-0.1-1.5-0.5-3.3-1.8-4.2c-0.4-0.3-0.8-0.7-1.2-1c-0.5-0.6-1.2-1-1.9-1.2c-0.7-0.4-1.5-0.5-2.3-0.5
				c-1.5,0-3.2,0.7-4.2,1.8c-1,1.1-1.8,2.6-1.8,4.2C166.3,238.4,166.8,240.2,168,241.2L168,241.2z"/>
		</g>
	</g>
	<g>
		<g>
			<path class="st18" d="M179.2,246.7c0.1,0,0.2,0,0.3,0c1.5,0,3.2-0.7,4.2-1.8c1-1,1.8-2.7,1.8-4.2c-0.1-1.6-0.6-3.2-1.8-4.2
				c-1.2-1.1-2.6-1.8-4.2-1.8c-0.1,0-0.2,0-0.3,0c-1.5,0-3.2,0.7-4.2,1.8c-1,1-1.8,2.7-1.8,4.2c0.1,1.6,0.6,3.2,1.8,4.2
				C176.1,246,177.6,246.7,179.2,246.7L179.2,246.7z"/>
		</g>
	</g>
	<g>
		<g>
			<path class="st18" d="M183,248.4c2.5,2.5,6.5,2.4,9,0c1.1-1.1,1.8-2.7,1.8-4.2c0-1.5-0.7-3.2-1.8-4.2c-1.1-1-2.6-1.8-4.2-1.8
				c-1.6,0.1-3.1,0.6-4.2,1.8c0,0-0.1,0.1-0.1,0.1c0.9-0.5,1.8-1,2.6-1.5c0,0-0.1,0-0.1,0c0.5-0.1,1.1-0.1,1.6-0.2c0,0-0.1,0-0.1,0
				c0.5,0.1,1.1,0.1,1.6,0.2c0,0-0.1,0-0.1,0c0.9,0.5,1.8,1,2.6,1.5c0,0-0.1-0.1-0.1-0.1c-1.1-1.1-2.7-1.8-4.2-1.8
				c-1.5,0-3.2,0.7-4.2,1.8c-1,1.1-1.8,2.6-1.8,4.2C181.3,245.8,181.8,247.3,183,248.4L183,248.4z"/>
		</g>
	</g>
	<g>
		<g>
			<path class="st18" d="M190.9,251.1c0.3,0.2,0.5,0.3,0.8,0.5c1.3,0.8,3.2,1,4.6,0.6c1.4-0.4,2.9-1.5,3.6-2.8
				c0.7-1.4,1.1-3.1,0.6-4.6c-0.5-1.5-1.4-2.7-2.8-3.6c-0.3-0.2-0.5-0.3-0.8-0.5c-1.3-0.8-3.2-1-4.6-0.6c-1.4,0.4-2.9,1.5-3.6,2.8
				c-0.7,1.4-1.1,3.1-0.6,4.6C188.7,249.1,189.6,250.2,190.9,251.1L190.9,251.1z"/>
		</g>
	</g>
	<g>
		<g>
			<path class="st18" d="M201.2,253.4c0.2,0,0.3,0,0.5,0c1.5,0,3.2-0.7,4.2-1.8c1-1,1.8-2.7,1.8-4.2c-0.1-1.6-0.6-3.2-1.8-4.2
				c-1.2-1.1-2.6-1.8-4.2-1.8c-0.2,0-0.3,0-0.5,0c-1.5,0-3.2,0.7-4.2,1.8c-1,1-1.8,2.7-1.8,4.2c0.1,1.6,0.6,3.2,1.8,4.2
				C198.1,252.8,199.6,253.4,201.2,253.4L201.2,253.4z"/>
		</g>
	</g>
	<g>
		<g>
			<path class="st18" d="M203.2,252.2c0.3,0.3,0.5,0.5,0.8,0.8c1.1,1.1,2.7,1.8,4.2,1.8c1.5,0,3.2-0.7,4.2-1.8
				c1-1.1,1.8-2.6,1.8-4.2c-0.1-1.6-0.6-3.1-1.8-4.2c-0.3-0.3-0.5-0.5-0.8-0.8c-1.1-1.1-2.7-1.8-4.2-1.8c-1.5,0-3.2,0.7-4.2,1.8
				c-1,1.1-1.8,2.6-1.8,4.2C201.5,249.5,202.1,251,203.2,252.2L203.2,252.2z"/>
		</g>
	</g>
	<g>
		<g>
			<path class="st18" d="M207,259.4c7.7,0,7.7-12,0-12C199.2,247.4,199.2,259.4,207,259.4L207,259.4z"/>
		</g>
	</g>
	<g>
		<g>
			<path class="st18" d="M207.1,247.6c-1.3-0.3-2.5-0.6-3.8-1c-1.5-0.4-3.3-0.2-4.6,0.6c-1.2,0.7-2.4,2.2-2.8,3.6
				c-0.7,3.1,0.9,6.6,4.2,7.4c1.3,0.3,2.5,0.6,3.8,1c1.5,0.4,3.3,0.2,4.6-0.6c1.2-0.7,2.4-2.2,2.8-3.6
				C212,251.9,210.3,248.5,207.1,247.6L207.1,247.6z"/>
		</g>
	</g>
	<g>
		<g>
			<path class="st18" d="M197.7,246.5c-0.4,0-0.7,0-1-0.1c0.5,0.1,1.1,0.1,1.6,0.2c-0.4-0.1-0.8-0.2-1.2-0.3c0.5,0.2,1,0.4,1.4,0.6
				C198.2,246.8,198,246.7,197.7,246.5c-1.3-0.7-3.1-1-4.6-0.6c-1.4,0.4-2.9,1.5-3.6,2.8c-0.7,1.4-1.1,3.1-0.6,4.6
				c0.5,1.5,1.4,2.8,2.8,3.6c1.8,1.1,3.9,1.7,6,1.6c1.6,0,3.1-0.6,4.2-1.8c1-1,1.8-2.7,1.8-4.2c-0.1-1.6-0.6-3.2-1.8-4.2
				C200.8,247.2,199.3,246.4,197.7,246.5L197.7,246.5z"/>
		</g>
	</g>
	<g>
		<g>
			<path class="st18" d="M194.7,246.3c-0.1-0.1-0.3-0.2-0.4-0.3c-0.5-0.3-1.2-0.6-1.7-0.7c-0.8-0.2-1.6-0.3-2.4-0.3
				c-1.5,0-3.2,0.7-4.2,1.8c-1,1-1.8,2.7-1.8,4.2c0.1,1.6,0.6,3.2,1.8,4.2c1.2,1.1,2.6,1.7,4.2,1.8c0.1,0,0.2,0,0.3,0
				c-0.5-0.1-1.1-0.1-1.6-0.2c0.2,0,0.4,0.1,0.6,0.2c-0.5-0.2-1-0.4-1.4-0.6c0.2,0.1,0.4,0.2,0.6,0.3c0.7,0.4,1.4,0.7,2.2,0.7
				c0.8,0.2,1.6,0.1,2.4-0.1c1.4-0.4,2.9-1.5,3.6-2.8c0.7-1.4,1.1-3.1,0.6-4.6c-0.2-0.5-0.4-1-0.6-1.4
				C196.4,247.5,195.6,246.8,194.7,246.3L194.7,246.3z"/>
		</g>
	</g>
	<g>
		<g>
			<path class="st18" d="M186.5,243.4c-0.5-0.2-1-0.3-1.5-0.5c-1.4-0.5-3.3-0.1-4.6,0.6c-1.2,0.7-2.4,2.2-2.8,3.6
				c-0.3,1.5-0.3,3.3,0.6,4.6c0.9,1.4,2,2.2,3.6,2.8c0.5,0.2,1,0.3,1.5,0.5c1.4,0.5,3.3,0.1,4.6-0.6c1.2-0.7,2.4-2.2,2.8-3.6
				c0.3-1.5,0.3-3.3-0.6-4.6C189.3,244.8,188.1,243.9,186.5,243.4L186.5,243.4z"/>
		</g>
	</g>
	<g>
		<g>
			<path class="st18" d="M179.5,242.2c-0.4-0.1-0.8-0.2-1.2-0.3c-1.6-0.3-3.2-0.2-4.6,0.6c-1.2,0.7-2.4,2.2-2.8,3.6
				c-0.3,1.5-0.3,3.3,0.6,4.6c0.8,1.3,2.1,2.4,3.6,2.8c0.4,0.1,0.8,0.2,1.2,0.3c1.6,0.3,3.2,0.2,4.6-0.6c1.2-0.7,2.4-2.2,2.8-3.6
				c0.3-1.5,0.3-3.3-0.6-4.6C182.3,243.7,181.1,242.5,179.5,242.2L179.5,242.2z"/>
		</g>
	</g>
	<g>
		<g>
			<path class="st18" d="M170.5,252.7c7.7,0,7.7-12,0-12C162.7,240.7,162.7,252.7,170.5,252.7L170.5,252.7z"/>
		</g>
	</g>
	<g>
		<g>
			<path class="st18" d="M164.9,240.4c-3.4,0.7-6.5,1.9-9.7,3.3c-2.9,1.3-3.8,5.7-2.2,8.2c1.9,3,5.1,3.5,8.2,2.2
				c0.7-0.3,0.7-0.3,0.2-0.1c0.4-0.1,0.7-0.3,1.1-0.4c0.5-0.2,1.1-0.4,1.6-0.6c1.3-0.4,2.6-0.8,3.9-1c3.1-0.7,5.2-4.4,4.2-7.4
				C171.2,241.4,168.1,239.7,164.9,240.4L164.9,240.4z"/>
		</g>
	</g>
	<g>
		<g>
			<path class="st18" d="M153.2,244.2c-4.6,2-7.6,8.3-4.9,13c2.7,4.8,10.5,4.4,15,3.8c2.7-0.4,5.3-1,8.1-0.8c3,0.2,5.9,1.1,9,1.2
				c6.5,0.2,13.1-0.2,19.6-0.4c7.8-0.2,7.7-11.6,0-12c-18.5-1-37.1-2.7-55.6-0.6c-7.7,0.9-7.7,11.1,0,12c8.4,1,16.4,0.7,23.1-4.9
				c3.3-2.8,7.4-6.3,9.8-9.9c0.8-1.2,1.3-2.4,1.4-3.9c-0.1-0.9-0.2-1.9-0.5-2.8c-2.6,1.5-2.9,2.7-0.9,3.5c2.2,2.4,7,2.8,10.1,2.8
				c4.5,0,7.5-0.6,11.8,1.2c3.3,1.3,6.5,1.7,9.8,0.2c2.3-1.1,5.2-5.8,7.8-3.7c-0.6-1.4-1.2-2.8-1.8-4.2c0.1,1.2-1.9,4.1-2.4,5.3
				c2.7-0.7,5.5-1.4,8.2-2.2c-1.7-1-3.4-2-5.1-3.1c-1.5,3.7-3.1,7.3-4.6,11c8.4,2.9,23.1,8.3,30.4,0.5c3.3-3.5,3.3-9.5-1.1-12
				c-2-1.2-4.2-1.1-6.5-0.7c-0.9,0.2-2.9,1.2-3.8,1c-0.1,0.1-0.3,0.2-0.4,0.3c-0.4-0.8-0.8-1.6-1.2-2.4c-2.3,2.9-4.5,5.9-6.8,8.8
				c4.7,1.7,9.7,1.7,14.3-0.2c-1.9-0.5-3.9-1-5.8-1.5c4.7,4.9,9.9,7.5,15.6,10.8c-0.9-1.2-1.8-2.4-2.8-3.6c0.1,0.3,0.2,0.5,0.3,0.8
				c0.5-1.9,1-3.9,1.5-5.8c0.9-0.7-2.1,0.1-2.7,0.1c-1.7,0.1-3.4,0-5.1,0.1c-3.4,0.1-6.8,0.2-10.2,0.5c-7,0.5-14.1,1.5-21,2.8
				c-6.2,1.2-5.1,9.8,0,11.6c7.5,2.5,15.3,0.7,23,0.5c4.1-0.1,8.3,0.1,12.4,0.5c3.6,0.3,7.4,1.3,10.9,0.5c6-1.4,10.6-8.6,6.8-14.3
				c-0.7-1.1-1.8-2.2-3-2.9c-0.8-0.5-2.9-0.8-3.5-1.4c0.5,0.6-0.5-1.8-0.7-2c-0.7-1.1-2.2-2.3-2.8-3c0.6,1.4,1.2,2.8,1.8,4.2
				c0.1-3,0.3-6.2-2.7-8.8c-3.1-2.7-7.1-2.6-10.6-0.6c2.7,0.7,5.5,1.4,8.2,2.2c-2.2-4.4-6.8-7-11.7-6.5c-7.6,0.7-7.7,12.7,0,12
				c0.8-0.5,1.3-0.3,1.3,0.6c1.5,2.9,5.5,3.7,8.2,2.2c-3-4.2-4.6-5-4.7-2.5c-0.1,0.4-0.1,0.8-0.1,1.2c0,1.2,0.2,2.3,0.8,3.4
				c0.9,1.6,2.1,2.6,2.9,3.8c1.2,1.9,2.3,3.5,4.3,4.6c2.1,1.1,2.5,1.7,2.4-1.3c-0.2-3.1-0.5-2.3-3.2-2.6c-6-0.7-12-1.1-18-1
				c-6.2,0.2-12.9,1.9-18.9-0.1c0,3.9,0,7.7,0,11.6c8-1.5,16.2-2.4,24.3-2.7c6.7-0.3,14.6,0.9,20-3.8c1.5-1.3,2.2-4,1.5-5.8
				c-1.3-3.9-3.6-4.6-6.9-6.3c-3.6-1.8-6.5-4.2-9.3-7.1c-1.3-1.4-4-2.3-5.8-1.5c-2.9,1.2-5,1.3-7.9,0.2c-5.5-2-8.6,4.6-6.8,8.8
				c1.5,3.4,3.8,6.6,7.5,7.8c2,0.6,4.1,0.6,6.1,0.2c1-0.2,2-0.5,3-0.8c2.1-0.3,2-0.6-0.2-0.8c-0.9-1.2-1.8-2.4-2.8-3.6
				c1.8-2.6,2-3.6,0.7-3c-0.4,0-0.8,0-1.3,0c-1.6-0.5-3.7-0.4-5.4-0.8c-3.9-0.8-7.7-1.9-11.5-3.2c-6.5-2.3-10.4,7.6-4.6,11
				c1.7,1,3.4,2,5.1,3.1c2.6,1.5,6.9,0.8,8.2-2.2c1.5-3.4,4.3-7.5,4-11.3c-0.3-4.4-4.6-7-8.5-8.1c-4.1-1.2-7.9-0.3-11.2,2.3
				c-0.7,0.6-2.4,2.7-3.3,2.9c-0.2,0-2.8-1.5-3.4-1.7c-3.8-1.4-7.6-1-11.6-0.8c-2.3,0.1-3.6,0-5.6-1.1c-1.7-0.9-3.1-2.2-5.1-2.6
				c-8.5-1.8-13.1,6.6-11.4,13.8c0.2-1.5,0.4-3.1,0.6-4.6c-2,3.1-6.7,7.6-10,9.2c-4,1.9-9,1-13.2,0.5c0,4,0,8,0,12
				c18.4-2.2,37.1-0.4,55.6,0.6c0-4,0-8,0-12c-7.5,0.2-15.5,1.2-22.9,0c-3.3-0.5-6.3-1-9.7-0.7c-3.2,0.3-7.7,2-10.8,0.6
				c1,1.7,2,3.5,3,5.2c-0.1,0.1-0.1,0.2-0.2,0.4C166.3,251.5,160.2,241.2,153.2,244.2L153.2,244.2z"/>
		</g>
	</g>
	<g>
		<g>
			<path class="st18" d="M154.2,233c-0.1,0.1-0.2,0.2-0.3,0.3c-1.1,1.1-1.8,2.7-1.8,4.2c0,1.5,0.7,3.2,1.8,4.2
				c1.1,1,2.6,1.8,4.2,1.8c1.6-0.1,3.1-0.6,4.2-1.8c0.1-0.1,0.2-0.2,0.3-0.3c1.1-1.1,1.8-2.7,1.8-4.2c0-1.5-0.7-3.2-1.8-4.2
				c-1.1-1-2.6-1.8-4.2-1.8C156.9,231.3,155.4,231.8,154.2,233L154.2,233z"/>
		</g>
	</g>
	<g>
		<g>
			<path class="st18" d="M148.7,238.7c-0.4,0.5-0.8,1-1.3,1.5c-0.6,0.5-1,1.2-1.2,1.9c-0.4,0.7-0.5,1.5-0.5,2.3
				c0,1.5,0.7,3.2,1.8,4.2c1.1,1,2.6,1.8,4.2,1.8c1.5-0.1,3.2-0.6,4.2-1.8c0.4-0.5,0.8-1,1.3-1.5c0.6-0.5,1-1.2,1.2-1.9
				c0.4-0.7,0.5-1.5,0.5-2.3c0-1.5-0.7-3.2-1.8-4.2c-1.1-1-2.6-1.8-4.2-1.8C151.5,237,149.8,237.5,148.7,238.7L148.7,238.7z"/>
		</g>
	</g>
	<g>
		<g>
			<path class="st18" d="M140.9,246.6c-0.1,0.3-0.2,0.7-0.3,1c-0.4,1.5-0.2,3.2,0.6,4.6c0.7,1.2,2.2,2.4,3.6,2.8
				c1.5,0.3,3.3,0.3,4.6-0.6c1.3-0.8,2.4-2.1,2.8-3.6c0.1-0.3,0.2-0.7,0.3-1c0.4-1.5,0.2-3.2-0.6-4.6c-0.7-1.2-2.2-2.4-3.6-2.8
				c-1.5-0.3-3.3-0.3-4.6,0.6C142.4,243.9,141.3,245.1,140.9,246.6L140.9,246.6z"/>
		</g>
	</g>
	<g>
		<g>
			<path class="st18" d="M141.5,260.4c7.7,0,7.7-12,0-12C133.7,248.4,133.7,260.4,141.5,260.4L141.5,260.4z"/>
		</g>
	</g>
	<g>
		<g>
			<path class="st18" d="M258.7,259.4c7.7,0,7.7-12,0-12C251,247.4,251,259.4,258.7,259.4L258.7,259.4z"/>
		</g>
	</g>
	<g>
		<g>
			<path class="st18" d="M262.3,245.9c-0.2-0.1-0.5-0.2-0.7-0.3c-1.4-0.5-3.4-0.1-4.6,0.6c-1.2,0.7-2.4,2.2-2.8,3.6
				c-0.3,1.5-0.3,3.3,0.6,4.6c0.9,1.4,2,2.2,3.6,2.8c0.2,0.1,0.5,0.2,0.7,0.3c1.4,0.5,3.4,0.1,4.6-0.6c1.2-0.7,2.4-2.2,2.8-3.6
				c0.3-1.5,0.3-3.3-0.6-4.6C265,247.3,263.8,246.5,262.3,245.9L262.3,245.9z"/>
		</g>
	</g>
	<g>
		<g>
			<path class="st18" d="M252.5,251.7c7.7,0,7.7-12,0-12C244.7,239.7,244.7,251.7,252.5,251.7L252.5,251.7z"/>
		</g>
	</g>
	<g>
		<g>
			<path class="st18" d="M251,246.4c7.7,0,7.7-12,0-12C243.2,234.4,243.2,246.4,251,246.4L251,246.4z"/>
		</g>
	</g>
	<g>
		<g>
			<path class="st18" d="M254.8,236.3c-0.1-0.2-0.2-0.5-0.3-0.7c-0.5-1.5-1.4-2.8-2.8-3.6c-1.3-0.8-3.2-1.1-4.6-0.6
				c-1.5,0.5-2.9,1.4-3.6,2.8c-0.7,1.4-1.1,3.1-0.6,4.6c0.1,0.2,0.2,0.5,0.3,0.7c0.5,1.5,1.4,2.8,2.8,3.6c1.3,0.8,3.2,1.1,4.6,0.6
				c1.5-0.5,2.9-1.4,3.6-2.8C254.9,239.6,255.3,237.9,254.8,236.3L254.8,236.3z"/>
		</g>
	</g>
	<g>
		<g>
			<path class="st18" d="M147.5,242.9c7.7,0,7.7-12,0-12C139.7,230.9,139.7,242.9,147.5,242.9L147.5,242.9z"/>
		</g>
	</g>
	<g>
		<g>
			<path class="st18" d="M145.5,246.4c7.7,0,7.7-12,0-12C137.7,234.4,137.7,246.4,145.5,246.4L145.5,246.4z"/>
		</g>
	</g>
	<g>
		<g>
			<path class="st18" d="M142,250.2c7.7,0,7.7-12,0-12C134.2,238.2,134.2,250.2,142,250.2L142,250.2z"/>
		</g>
	</g>
	<g>
		<g>
			<path class="st18" d="M137.5,255.2c7.7,0,7.7-12,0-12C129.7,243.2,129.7,255.2,137.5,255.2L137.5,255.2z"/>
		</g>
	</g>
	<g>
		<g>
			<path class="st18" d="M133,258.9c7.7,0,7.7-12,0-12C125.2,246.9,125.2,258.9,133,258.9L133,258.9z"/>
		</g>
	</g>
	<g>
		<g>
			<path class="st19" d="M129.2,262.1c4.7,1.4,9.5,1.3,14.1-0.6c6.2-2.6,5.4-11.1-1.6-11.8c-2.5-0.2-4.9-0.5-7.4-0.7c0,4,0,8,0,12
				c4.6-0.1,8.7-1.2,12.6-3.7c-2.9-1.2-5.9-2.4-8.8-3.6c0.5,1.9,0.6,3.5,0.3,5.5c-0.5,2.8,0.4,5.2,2.8,6.8c2.2,1.4,4.6,1.8,7,1.1
				c1.1-0.3,2.1-0.8,3-1.4c1.1-0.7,2.7-1.2,1.3-1.8c0-3.9,0-7.7,0-11.6c0.6,1.3,1.3,2.7,1.9,4c0.9-2.3-0.6-5.7-2.8-6.8
				c-0.9-0.5-1.9-0.9-2.9-1.1c-0.4-0.1-0.9-0.1-1.3-0.2c-1.9-0.4-1.3,0.3,1.9,2.2c-0.2,1.5-0.4,3.1-0.6,4.6c3.3-5,11.8-3.2,16.6-3
				c6.4,0.2,12.8-0.4,19.1-1.3c7.6-1.2,4.4-12.7-3.2-11.6c-6.2,1-12.4,1.1-18.7,0.8c-5.6-0.3-10.7-0.3-15.8,2.1
				c-3.8,1.8-9,5.3-9.2,10c-0.1,2.3,1,4.5,2.7,5.9c1.7,1.4,3.7,1.2,5.4,2c-0.9-2.3-1.8-4.5-2.8-6.8c-1.3,3.3-0.1,6.9,2.6,9.1
				c3,2.6,6.7,2.3,10.3,1.6c6.2-1.2,5.2-9.8,0-11.6c-2.2-0.8-4.2-0.7-6.4,0.2c-1,0.4-1.8,0.9-2.6,1.5c-0.4,0.3-0.8,0.6-1.2,1
				c-1.2,0.8-0.6,1,1.7,0.6c0.9,2.3,1.8,4.5,2.8,6.8c0.7-4.1,0.7-7.8-0.3-11.9c-0.9-3.7-5.6-5.7-8.8-3.6c-2.1,1.4-4,2-6.5,2.1
				c-7.8,0.1-7.6,11.3,0,12c2.5,0.2,4.9,0.5,7.4,0.7c-0.5-3.9-1.1-7.9-1.6-11.8c-2.7,1.1-4.9,1.5-7.7,0.6
				C124.9,248.4,121.8,259.9,129.2,262.1L129.2,262.1z"/>
		</g>
	</g>
	<g>
		<g>
			<path class="st19" d="M160.9,253.8c0.5-1.7,4.5-4,6.1-4.6c2.8-1,5-0.9,7.1-3.3c3.5-3.8,1.1-10.2-4.2-10.2
				c-5.4,0-10.6,0.8-15.7,2.6c-6.3,2.2-5.4,11.5,1.6,11.8c7.8,0.3,16.9,2,22.4-4.6c-1.4,0.6-2.8,1.2-4.2,1.8
				c-1.6-0.9-2.1-0.8-1.5,0.2c0.3,0.6,0.5,1.2,0.8,1.8c0.6,1,1.2,2,2,2.8c1.8,1.8,4.1,3.1,6.6,3.4c7.6,1.2,10.8-10.4,3.2-11.6
				c-2.2-0.3-2.6-3.7-4.1-5.4c-2-2.2-4.8-3.6-7.8-3.1c-1.7,0.3-2.5,1.1-3.8,2c-1.5,1.1-0.4,0.7-2,0.9c-3.6,0.5-8-0.1-11.6-0.2
				c0.5,3.9,1.1,7.9,1.6,11.8c4.2-1.5,8.1-2.2,12.5-2.1c-1.4-3.4-2.8-6.8-4.2-10.2c0.6-0.7,0.9-0.4-0.4-0.1c-1,0.2-1.9,0.5-2.8,0.8
				c-2.1,0.8-4,2-5.8,3.4c-3.2,2.4-6.3,5.1-7.4,9.1C147.4,258.1,159,261.2,160.9,253.8L160.9,253.8z"/>
		</g>
	</g>
	<g>
		<g>
			<path class="st19" d="M233.5,246.2c-3.7,0.2-7.4,0.7-11.1,1.3c-3.1,0.5-5.1,4.5-4.2,7.4c1.1,3.4,4.1,4.7,7.4,4.2
				c2.5-0.4,5.1-0.7,7.9-0.9c3.1-0.2,6.2-2.6,6-6C239.3,249.1,236.8,245.9,233.5,246.2L233.5,246.2z"/>
		</g>
	</g>
	<g>
		<g>
			<path class="st19" d="M225.3,241.5c-3.7,0.7-6.9,0.3-10.3,2.4c-3.2,2-3,4.4-4.7,7.3c-2,3.3-0.1,7.8,3.6,8.8
				c8.3,2.4,18.5-0.4,26.9-1.4c2.6-0.3,5.1-1.6,5.8-4.4c2.4-10-7.5-10.1-13.5-14c-1,3.7-2,7.5-3,11.2c1.5,0,4.1-0.1,5.4,0.9
				c1.4,1.1,1.6,3.2,3.4,4.3c4.2,2.7,8.7,0.6,11.6,5.6c1.7-3,3.5-6,5.2-9c-42.5,0.6-85.1,0.9-127.6,0.6c-7.7-0.1-7.7,11.9,0,12
				c42.5,0.3,85.1,0,127.6-0.6c4.5-0.1,7.5-5.1,5.2-9c-1.9-3.2-4.5-6-7.8-7.7c-1.2-0.6-2.6-1.2-3.9-1.6c-1-0.2-1.9-0.4-2.9-0.5
				c-2-0.5-1.9,0,0.4,1.3c1.2-0.9-5.1-5.7-6-6.2c-3.2-1.6-6.9-1.9-10.4-2c-6.2-0.2-7.9,8.1-3,11.2c1.7,1.1,3.4,1.9,5.2,2.6
				c0.9,0.4,1.8,0.7,2.7,0.9c2.1,0.8,2.1-0.2,0.1-3.1c1.9-1.5,3.9-2.9,5.8-4.4c-4.1,0.5-8.1,0.9-12.2,1.4c-3.7,0.4-7.8,1.4-11.5,0.4
				c1.2,2.9,2.4,5.9,3.6,8.8c0.3-0.5,2.5-4.8,0.8-3.3c0.9-0.8,5.6-0.6,7-0.8C236.1,251.7,232.9,240.2,225.3,241.5L225.3,241.5z"/>
		</g>
	</g>
	<g>
		<g>
			<path class="st19" d="M155.3,261.7c11.6-3.9,25.7-2.3,37.8-2.4c6.2-0.1,12.4-0.2,18.6-0.7c4.9-0.4,10.4-0.9,12.8-5.9
				c1.6-3.4,0.5-7.8-3.6-8.8c-5.8-1.4-11.9-2.2-17.9-1.8c-4.3,0.3-11.5,3.2-15.5,1c-6.8-3.7-12.9,6.7-6.1,10.4
				c5.3,2.9,10.4,2.3,16.2,1.3c6.8-1.1,13.4-1,20.1,0.7c-1.2-2.9-2.4-5.9-3.6-8.8c-0.3,0.7-12.4,0.5-14.2,0.6
				c-5.6,0.1-11.1,0.1-16.7,0.2c-10.2,0.1-21.4-0.5-31.2,2.7C144.8,252.6,147.9,264.2,155.3,261.7L155.3,261.7z"/>
		</g>
	</g>
	<g>
		<g>
			<path class="st19" d="M199.9,245c0-0.1,0-0.2,0-0.3c-0.1,0.5-0.1,1.1-0.2,1.6c0-0.1,0-0.2,0.1-0.4c-0.2,0.5-0.4,1-0.6,1.4
				c0-0.1,0.1-0.2,0.1-0.2c-0.3,0.4-0.6,0.8-0.9,1.2c0.1-0.1,0.1-0.1,0.2-0.2c-0.4,0.3-0.8,0.6-1.2,0.9c0.1-0.1,0.1-0.1,0.2-0.1
				c-0.5,0.2-1,0.4-1.4,0.6c0,0,0.1,0,0.1,0c1.5-0.5,2.8-1.4,3.6-2.8c0.8-1.3,1.1-3.2,0.6-4.6c-0.5-1.5-1.4-2.9-2.8-3.6
				c-1.4-0.7-3.1-1.1-4.6-0.6c-1.7,0.6-3.3,1.6-4.2,3.2c-0.3,0.5-0.6,1.2-0.8,1.8c-0.1,0.3-0.1,0.8-0.1,1c-0.1,0.4-0.1,0.7-0.1,1.1
				c0,0.8,0.1,1.6,0.5,2.3c0.2,0.7,0.7,1.4,1.2,1.9c1,1,2.7,1.8,4.2,1.8c1.6-0.1,3.2-0.6,4.2-1.8c0.3-0.4,0.6-0.8,0.9-1.2
				C199.7,247,199.9,246,199.9,245L199.9,245z"/>
		</g>
	</g>
	<g>
		<g>
			<path class="st19" d="M204,246.7c1.5,0.2,3.1,0,4.6-0.4c1.4-0.4,2.8-1.5,3.6-2.8c0.8-1.3,1.1-3.2,0.6-4.6
				c-0.5-1.5-1.4-2.9-2.8-3.6c-1.4-0.8-3-1-4.6-0.6c-0.4,0.1-0.7,0.2-1.1,0.2c0.5-0.1,1.1-0.1,1.6-0.2c-0.7,0.1-1.3,0.1-1.9,0
				c-1.4-0.2-3.3,0.8-4.2,1.8c-1,1-1.8,2.7-1.8,4.2c0.1,1.6,0.6,3.2,1.8,4.2c0.4,0.3,0.8,0.6,1.2,0.9
				C201.9,246.4,202.9,246.7,204,246.7L204,246.7z"/>
		</g>
	</g>
	<g>
		<g>
			<path class="st19" d="M214.9,230.7c-0.5,0.2-1,0.3-1.5,0.5c-1.5,0.5-2.8,1.4-3.6,2.8c-0.8,1.3-1.1,3.2-0.6,4.6
				c0.5,1.5,1.4,2.9,2.8,3.6c1.4,0.7,3.1,1.1,4.6,0.6c0.5-0.2,1-0.3,1.5-0.5c1.5-0.5,2.8-1.4,3.6-2.8c0.8-1.3,1.1-3.2,0.6-4.6
				c-0.5-1.5-1.4-2.9-2.8-3.6C218.1,230.5,216.4,230.2,214.9,230.7L214.9,230.7z"/>
		</g>
	</g>
	<g>
		<g>
			<path class="st19" d="M206.7,234.2c-0.2,0.2-0.3,0.3-0.5,0.5c-1.1,1.1-1.8,2.7-1.8,4.2c0,1.5,0.7,3.2,1.8,4.2
				c1.1,1,2.6,1.8,4.2,1.8c1.6-0.1,3.1-0.6,4.2-1.8c0.2-0.2,0.3-0.3,0.5-0.5c1.1-1.1,1.8-2.7,1.8-4.2c0-1.5-0.7-3.2-1.8-4.2
				c-1.1-1-2.6-1.8-4.2-1.8C209.4,232.5,207.9,233.1,206.7,234.2L206.7,234.2z"/>
		</g>
	</g>
	<g>
		<g>
			<path class="st19" d="M213.5,246.2c1.5,0,3,0,4.5,0c3.1,0,6.1-2.8,6-6c-0.1-3.3-2.6-6-6-6c-1.5,0-3,0-4.5,0c-3.1,0-6.1,2.8-6,6
				C207.6,243.5,210.1,246.2,213.5,246.2L213.5,246.2z"/>
		</g>
	</g>
	<g>
		<g>
			<path class="st19" d="M222.5,246.2c0.6,0,1.2,0,1.8,0c1.5,0,3.2-0.7,4.2-1.8c1-1,1.8-2.7,1.8-4.2c-0.1-1.6-0.6-3.2-1.8-4.2
				c-1.2-1.1-2.6-1.8-4.2-1.8c-0.6,0-1.2,0-1.8,0c-1.5,0-3.2,0.7-4.2,1.8c-1,1-1.8,2.7-1.8,4.2c0.1,1.6,0.6,3.2,1.8,4.2
				C219.4,245.5,220.8,246.2,222.5,246.2L222.5,246.2z"/>
		</g>
	</g>
	<g>
		<g>
			<path class="st19" d="M228.7,246.2c7.7,0,7.7-12,0-12C221,234.2,221,246.2,228.7,246.2L228.7,246.2z"/>
		</g>
	</g>
	<g>
		<g>
			<path class="st19" d="M231,244.7c0.3,0.3,0.7,0.7,1,1c1.1,1.1,2.7,1.8,4.2,1.8c1.5,0,3.2-0.7,4.2-1.8c1-1.1,1.8-2.6,1.8-4.2
				c-0.1-1.6-0.6-3.1-1.8-4.2c-0.3-0.3-0.7-0.7-1-1c-1.1-1.1-2.7-1.8-4.2-1.8c-1.5,0-3.2,0.7-4.2,1.8c-1,1.1-1.8,2.6-1.8,4.2
				C229.3,242,229.8,243.5,231,244.7L231,244.7z"/>
		</g>
	</g>
	<g>
		<g>
			<path class="st19" d="M239.2,249.9c7.7,0,7.7-12,0-12C231.5,237.9,231.5,249.9,239.2,249.9L239.2,249.9z"/>
		</g>
	</g>
	<g>
		<g>
			<path class="st19" d="M245.7,256.2c7.7,0,7.7-12,0-12C238,244.2,238,256.2,245.7,256.2L245.7,256.2z"/>
		</g>
	</g>
	<g>
		<g>
			<path class="st19" d="M265.2,261.9c7.7,0,7.7-12,0-12C257.5,249.9,257.5,261.9,265.2,261.9L265.2,261.9z"/>
		</g>
	</g>
	<g>
		<g>
			<path class="st19" d="M260.2,266.4c7.7,0,7.7-12,0-12C252.5,254.4,252.5,266.4,260.2,266.4L260.2,266.4z"/>
		</g>
	</g>
	<g>
		<g>
			<path class="st19" d="M266.5,267.9c7.7,0,7.7-12,0-12C258.7,255.9,258.7,267.9,266.5,267.9L266.5,267.9z"/>
		</g>
	</g>
</g>
<path class="st20" d="M211.6,132.2h-30.8c-1.1,0-2-0.9-2-2V127c0-1.1,0.9-2,2-2h30.8c1.1,0,2,0.9,2,2v3.2
	C213.6,131.3,212.7,132.2,211.6,132.2z"/>
<rect x="181.5" y="121.5" class="st14" width="29.5" height="3.5"/>
<polygon class="st21" points="127.1,253.5 125.2,253.7 175.4,129.3 182.7,129.3 "/>
<polygon class="st21" points="194.7,231.8 192.8,231.8 191.9,129.3 199.2,129.3 "/>
<polygon class="st21" points="249,231.2 247.3,231.3 209.9,129.3 217.3,129.3 "/>
<path class="st14" d="M181.7,130h-5.6c-0.6,0-1-0.4-1-1v-1c0-0.6,0.4-1,1-1h5.6c0.6,0,1,0.4,1,1v1C182.7,129.5,182.3,130,181.7,130z
	"/>
<path class="st14" d="M198.8,130.1h-6.7c-0.5,0-1-0.4-1-1v-1c0-0.5,0.5-1,1-1h6.7c0.6,0,1,0.5,1,1v1
	C199.8,129.7,199.3,130.1,198.8,130.1z"/>
<path class="st14" d="M216.9,130h-6.7c-0.5,0-1-0.4-1-1v-1c0-0.6,0.5-1,1-1h6.7c0.6,0,1,0.4,1,1v1C217.9,129.5,217.5,130,216.9,130z
	"/>
<path class="st22" d="M190.8,121.5H187c-0.5,0-1-0.4-1-1v-1c0-0.6,0.5-1,1-1h3.9c0.6,0,1,0.4,1,1v1
	C191.8,121,191.4,121.5,190.8,121.5z"/>
<path class="st22" d="M207.1,121.5h-3.9c-0.5,0-1-0.4-1-1v-1c0-0.6,0.5-1,1-1h3.9c0.6,0,1,0.4,1,1v1
	C208.1,121,207.6,121.5,207.1,121.5z"/>
<path class="st23" d="M209.8,118.5h-27.5c-0.6,0-1-0.4-1-1v-5.2c0-0.6,0.4-1,1-1h27.5c0.6,0,1,0.4,1,1v5.2
	C210.8,118,210.3,118.5,209.8,118.5z"/>
<rect x="181.3" y="117.4" class="st14" width="29.5" height="1.1"/>
<path class="st24" d="M164.3,103.8H152c-1.1,0-2-0.9-2-2v-4.5c0-1.1,0.9-2,2-2h12.3V103.8z"/>
<path class="st24" d="M214.9,104.8h5.3c0.5,0,1-0.5,1-1v-8.5c0-0.6-0.5-1-1-1h-5.3V104.8z"/>
<path class="st14" d="M221.1,103.2h1.1c0.5,0,1-0.4,1-1v-5.4c0-0.6-0.5-1-1-1h-1.1V103.2z"/>
<path class="st14" d="M210.8,91.9v-1.1c0-0.6-0.4-1-1-1h-15.1c-0.6,0-1,0.4-1,1v1.1H210.8z"/>
<path class="st25" d="M209.8,100.9h-15.1c-0.6,0-1-0.4-1-1v-4.3c0-0.5,0.4-1,1-1h15.1c0.6,0,1,0.5,1,1v4.3
	C210.8,100.4,210.3,100.9,209.8,100.9z"/>
</svg>
